<?xml version="1.0" standalone="no"?>
<!DOCTYPE svg PUBLIC "-//W3C//DTD SVG 1.1//EN" "http://www.w3.org/Graphics/SVG/1.1/DTD/svg11.dtd" >
<svg>
<metadata>
Created by FontForge 20090914 at Tue Nov 20 21:30:42 2012
 By www-data
Typeface &#194;&#169; A.M. VanTorre. 2007. All Rights Reserved
</metadata>
<defs>
<font id="Brankovic" horiz-adv-x="1139" >
  <font-face 
    font-family="Brankovic"
    font-weight="400"
    font-stretch="normal"
    units-per-em="2048"
    panose-1="2 0 0 0 0 0 0 0 0 0"
    ascent="1638"
    descent="-410"
    x-height="997"
    cap-height="1778"
    bbox="-364 -422.001 2393 2190"
    underline-thickness="150"
    underline-position="-142"
    unicode-range="U+0020-U+F005"
  />
<missing-glyph horiz-adv-x="1536" 
d="M618 2190c27.333 -25.333 42.332 -57.335 44.999 -96.002l-8 -148l806 52l259 -45c-7.33301 -28 -24.666 -52.667 -51.999 -74l-177 -44l66 -1383l45 -244l44 -44l-44 -30l-8 -81l45 -15c37.333 -1.33301 57 -20.666 59 -57.999l-37 -23l-82 15l-953 37l-8 -15l-89 37
h-103l-74 22l37 52l200 22c-39.333 16.667 -59.333 48.667 -60 96l-29 96v828l29 548l-80 14l14 45l66 37l-221 -74l-52 7l23 74l88 67l133 22c-32 6.66699 -56.667 26.334 -74 59.001h118v30l45 96zM809.999 1746c-32 -2.66699 -56.667 -19.667 -74 -51l-22 -1309l22 -89
l651 -44l-15 1575zM735.999 207.998c-18 -19.333 -27.667 -46.333 -29 -81l325 7l-7 23l-185 44zM1202 178.998l96 -30l89 15l-103 7z" />
    <glyph glyph-name=".notdef" horiz-adv-x="1536" 
d="M618 2190c27.333 -25.333 42.332 -57.335 44.999 -96.002l-8 -148l806 52l259 -45c-7.33301 -28 -24.666 -52.667 -51.999 -74l-177 -44l66 -1383l45 -244l44 -44l-44 -30l-8 -81l45 -15c37.333 -1.33301 57 -20.666 59 -57.999l-37 -23l-82 15l-953 37l-8 -15l-89 37
h-103l-74 22l37 52l200 22c-39.333 16.667 -59.333 48.667 -60 96l-29 96v828l29 548l-80 14l14 45l66 37l-221 -74l-52 7l23 74l88 67l133 22c-32 6.66699 -56.667 26.334 -74 59.001h118v30l45 96zM809.999 1746c-32 -2.66699 -56.667 -19.667 -74 -51l-22 -1309l22 -89
l651 -44l-15 1575zM735.999 207.998c-18 -19.333 -27.667 -46.333 -29 -81l325 7l-7 23l-185 44zM1202 178.998l96 -30l89 15l-103 7z" />
    <glyph glyph-name="space" unicode=" " horiz-adv-x="1154" 
 />
    <glyph glyph-name="space" unicode="&#xa0;" horiz-adv-x="1154" 
 />
    <glyph glyph-name="exclam" unicode="!" horiz-adv-x="370" 
d="M298 1842l45 -17v-180l-146 -1268l-28 -17l-45 39l-73 320v354l50 567l34 95l34 -28l-6 -185c70 184 115 290.667 135 320zM292 1758l-28 -73l-39 -157l11 -90l-11 -360l79 663c-1.33301 7.33301 -5.33301 13 -12 17zM219 1067l6 -33v28zM107 214l62 -17l11 -17l34 11
l28 -50l-11 -112l33 -23l-16 -28l-73 -73l-45 34l11 39l-84 12l-45 33l-6 45l22 73l34 45zM113 180l-45 -39l-23 -56v-45l40 -23l-17 56l28 51l39 39z" />
    <glyph glyph-name="quotedbl" unicode="&#x22;" horiz-adv-x="354" 
d="M237 1848c19.333 -9.33301 32.332 -25.334 38.999 -48.001l34 -49l-48 -338h-20l-19 -58c-18 5.33301 -29.333 18 -34 38l-10 73l-24 63l10 145l34 130c10.667 14.667 23.334 29.334 38.001 44.001zM38.999 1829l39 -54l33 10l29 -58l-4 -72l-39 -218l-19 -68l-15 -14
l-29 19l-10 -29l-19 29l-5 169z" />
    <glyph glyph-name="numbersign" unicode="#" horiz-adv-x="895" 
d="M578 1843l31 -5l-92 -187l-10 -56l-40 -101l147 238l86 111l20 -15l-20 -46l-193 -324l86 -86l21 -10l121 228l101 131l26 16l20 -132l-152 -359l66 -92l-15 -15l-21 -5l46 -66l-15 -50l-51 20l-76 76l-50 -106l20 -41l40 -35l56 -76l-10 -15l5 -36l-30 -10l-46 30
l-116 112l-41 -66l-25 25l-51 15l25 132l-71 81l-35 15l-116 -268l-46 -35l-15 -31l-41 25l56 142l5 61l25 101l-81 -172l-55 -86l-21 -5l167 425l-20 51l-172 212l15 16l122 -81l35 -41l76 -50l61 121l-36 35l-141 92l-41 101l15 10l92 -41l121 -111l41 -15l65 81l41 30z
M462 1372l-56 -101l91 -106l36 55l10 56zM391 1241l35 -61l56 -51l-41 61z" />
    <glyph glyph-name="dollar" unicode="$" horiz-adv-x="869" 
d="M380 1847l24.001 -6l6 -190l-18 -129l203 -25l92 6l18 -12l19 -43l-92 -19l6 -49l-37 -43v50l-19 36l-153 -36l-227 -123l-62 -62l-12 -61l110 -55l572 -166l49 -68l6 -67l-92 -86l-166 -80c-28.667 -0.666992 -55.334 -13 -80.001 -37v-80l-55 -92l-31 13l-6 -68l-31 74
l-49 190l-184 61l-80 50l-37 104l19 12l208 -86l105 -18h98l111 31l80 42l18 43l-25 37l-448 25l-92 31l-68 55l-55 67l31 92l18 105l55 67l136 111v61l55 166l49 -24zM128.001 1092c12.667 -30.667 37.333 -53.333 74 -68l135 -6zM767 852.001l-37 -79l-43 -37l24 6l86 80z
" />
    <glyph glyph-name="percent" unicode="%" horiz-adv-x="1279" 
d="M503 1792l108 -25l17 -42l-100 -8l100 -92l-8 -101l-42 -84l-59 -67l-75 -50l-109 -17l-92 42l-17 92l17 109zM1089 1775l50 -25l-67 -100l-176 -176l-17 -42l67 50l143 151l17 -25l-26 -59l26 9l50 58l109 67l8 -42l-1080 -1365l-59 -167l-59 -42l-50 -67l-25 75l34 201
l92 260l720 1022zM477 1625l-67 -42l-50 -59l-25 -67l59 -50l109 100l33 84c-15.333 14.667 -35 26 -59 34zM896 745l101 -58l117 -9l50 -109l-125 -259l50 -25l-109 -51l-226 -67l-109 34l-67 92l-8 117l67 126l75 84zM963 595l-134 -84l-25 -84l59 -33l134 75l25 42
l-25 17c-6.66699 22.667 -18 45 -34 67zM1039 595l25 -51c-4 19.333 -12.333 36.333 -25 51zM653 285l51 -51l108 9l-50 25z" />
    <glyph glyph-name="ampersand" unicode="&#x26;" horiz-adv-x="1265" 
d="M498 1673l134.001 -43c25.333 -25.333 39.666 -58.333 42.999 -99l-14 -99l84 28l15 -21l-92 -99l148 71c38 15.333 61.667 43.666 71 84.999l43 -21l-29 -43l-99 -78l-113 -49l-220 -383l22 -64c9.33301 -33.333 30.333 -59.333 63 -78l107 64l141 35h170l135 -35
c36.667 -13.333 69.667 -37 99 -71l78 -64l-64 -106l-78 -92l-99 -71l-149 -134l36 -22l120 -134l-64 -14l-42 14l49 -50c16.667 -33.333 45 -61.666 85 -84.999c24 -21.333 38.333 -49.333 43 -84l99 -71l-78 21l-106 64l-92 35l163 -184l99 -64l99 -7l-21 -28l-78 -22
l-50 22l-191 156l-255 325l-177 -99l-127 -43l-192 -35l-71 35l-70 100l-50 120l-7 50l42 233l93 248l77 149l-35 85l-28 142l14 142l49 127l64 106l85 85zM519.001 1503l-78 -71l-50 -85l-21 -92l7 -78l156 170l43 92c-2 32 -21 53.333 -57 64zM250.001 1305l-14 -107
l28 -99v92zM476.001 1092l-21 -50c10 14 17 30.667 21 50zM1064 759l57 -92v-71l35 35l36 64l-22 29zM901.001 745l-269 -43l-56 7l49 -92l142 -191l120 50l163 134v57l-78 57zM356.001 702l-35 -71l-71 -226l28 -57l57 14l35 -7l-21 -28l42 7l50 -21l99 28l-156 290z
M73.001 320l14.001 -36c-0.666992 12.667 -5.33398 24.667 -14.001 36z" />
    <glyph glyph-name="quotesingle" unicode="'" horiz-adv-x="230" 
d="M120 1828c24.667 -12 41 -32.668 49 -62.001l44 -63l-62 -436h-25l-25 -75c-22.667 7.33301 -37 24 -43 50l-13 93l-31 81l12 187l44 169c13.333 18.667 30 37.334 50 56.001z" />
    <glyph glyph-name="parenleft" unicode="(" horiz-adv-x="520" 
d="M555 1848l80 -12.999l-360 -707l-87 -321l-20 -180v-93l20 -167l27 -73l40 -60l80 -20l53 13l-6 -33l-47 -61l-53 -46l60 -7l46 53l60 20l-86 -120l-54 -33l80 -19l74 6l-47 -53l-67 -14l-93 34l-180 226l-33 174l-7 93l53 547l80 327l87 213l73 134l54 53
c97.333 67.333 155 109.666 173 126.999zM208 180.001c24 -13.333 50.667 -22.333 80 -27z" />
    <glyph glyph-name="parenright" unicode=")" horiz-adv-x="510" 
d="M164 1842l55 -36l30 -60l138 -445l18 18l60 -253l-6 -475l-30 -217l-66 -192l-60 -115l-127 -125l-54 -37l-60 25l-72 -6l-24 36l24 6l78 59l-48 42l60 -24l18 12l90 169l85 842l-42 457l-25 54l13 18l-25 115l-54 72l30 6l12 18zM387 1258l6 -30v24zM393 1222l6 -30v24z
" />
    <glyph glyph-name="asterisk" unicode="*" horiz-adv-x="714" 
d="M372 1613l28 -62l51 -33l28 -6l5 -39l-16 -84l-23 -61l-17 -146l34 28l106 151l95 84l17 -50l-11 -39l22 -12l-16 -61l-174 -174l17 -50l179 -341l-45 -45l-61 28l-151 157l-90 -118l-101 -73l-67 -22l-39 50v62l118 229l22 62l-45 39l-67 22l-117 56
c-18 6.66699 -29.333 20 -34 40l62 28h33l-28 44l17 6l73 -50l128 -45l6 61l-28 219l-28 95l39 16l56 -28zM400 1484l-5 -100l17 89c-1.33301 5.33301 -5.33301 9 -12 11zM372 925l-33.001 -89.999l-39 23l-62 -101c-20.667 -14.667 -31.667 -35.334 -33 -62.001l72 45
l118 118l11 44c-9.33301 8 -20.666 15.667 -33.999 23z" />
    <glyph glyph-name="plus" unicode="+" horiz-adv-x="1074" 
d="M475 992l60.001 -11.001l27 -113l21 65c6 20.667 20.333 33 43 37l11 -64l11 -329c17.333 -13.333 38.666 -20.333 63.999 -21l162 -6l70 -16h172l38 -27l-183 -21l38 -33c-13.333 -20 -33.333 -30.667 -60 -32l-237 -27l-59 -27v-318l-27 -59l-48 32l-54 103l-11 -65
l-21 -11l-11 6l-11 32l-16 259l-291 -6l-97 16l16 27l-102 6l27 43l210 43h-92l-64 -11l-33 16l22 22l65 21l323 16c14 16.667 21 38.334 21 65.001zM508.001 431.999l5 -27v21zM438.001 425.999l-173 -32l22 -11l167 11c-0.666992 11.333 -6 22 -16 32zM508.001 350.999
l-6 -183l11 -54l11 59l-5 124z" />
    <glyph glyph-name="comma" unicode="," horiz-adv-x="355" 
d="M162 246h77l51 -35l41 -71l-10 -94l-36 -70l-46 -64l-10 35l5 18l-72 -83l-51 -17l-31 70l92 35l-25 47l-57 41l-25 71l36 76zM249 187l-26 -11l46 -53l11 59zM193 117l10 -12l5 6zM264 76l5 -12l11 29z" />
    <glyph glyph-name="hyphen" unicode="-" horiz-adv-x="874" 
d="M726 795l62 -10l77 -36l-659 -134l-118 -10l-57 15l15 21h-30l-21 26l41 25l62 11l21 36l51 15z" />
    <glyph glyph-name="hyphen" unicode="&#xad;" horiz-adv-x="874" 
d="M726 795l62 -10l77 -36l-659 -134l-118 -10l-57 15l15 21h-30l-21 26l41 25l62 11l21 36l51 15z" />
    <glyph glyph-name="period" unicode="." horiz-adv-x="360" 
d="M195 280l105 -37.001l37 -43l-6 -62l13 -50l-62 -6l-81 -62l-61 -18l-74 43v80l49 93c20 18.667 46.667 39.334 80 62.001zM171 211.999l-44 -74l-6 -68l25 -6l-12 68c20 30 32.333 56.667 37 80zM239 168.999l6 -25l24 19l-18 12z" />
    <glyph glyph-name="slash" unicode="/" horiz-adv-x="855" 
d="M900 1789l-7 -54l-46 -126l-726 -1511l-53 -153l-34 20l-13 47l7 20l-27 66l13 73l87 260l586 1052l40 39l153 280zM394 870l-166.999 -306l-33 -106l160 312c17.333 28.667 30.666 62 39.999 100z" />
    <glyph glyph-name="zero" unicode="0" horiz-adv-x="1621" 
d="M926 1830l164 -59l134 -82l171 -157l119 -208l82 -245l22 -194l-15 -193l-22 -90l-67 -149l-141 -186l-179 -148l-231 -97l-178 -37h-112l-96 15l-82 29l-127 90l-149 178l-111 216l-74 253l-22 179l15 193l51 164l89 134l268 275l142 82l171 45zM844 1793l-126 -15
l238 -15v15zM525 1718l-60 -44l37 7l60 37h-37zM815 1689l-157 -37l-186 -97l-44 -45l-119 -164l-82 -201l-52 -260l82 -335l67 -119l134 -156l163 -112l142 -44l163 22l67 30l209 163l126 149l67 127l37 149l8 178l-45 238l-82 194l-74 111l-97 90l-82 44l37 -89l-7 -22
l-15 59l-104 104zM153 1346l-60 -134l-22 -119l7 -29c41.333 137.333 66.333 231.333 75 282zM495 126l15 -15c-2 5.33301 -7 10.333 -15 15z" />
    <glyph glyph-name="one" unicode="1" horiz-adv-x="374" 
d="M251 1840l47 -41l23 -70l-12 -76l30 -146v-1326l17 -111l-23 -11l-12 5l-23 70l-6 -23l35 -216l-23 18l-12 82l-29 69l-18 76l-29 234v-94l23 -169l-35 53l-17 76l-29 718l6 222l-12 12l-23 -70l-35 -24l-12 35l41 146c-1.33301 24 -15 37.667 -41 41l-70 -23l-29 64
l41 58l52 41l35 59l105 263zM152 1408l-17 -24c9.33301 6 15 14 17 24z" />
    <glyph glyph-name="two" unicode="2" horiz-adv-x="1266" 
d="M787 1842l90 -7l69 -21l55 -34l76 -104l14 -76l7 -173l-48 -221v-76l-49 -312l-48 -138c0.666992 -16.667 9.66699 -30.667 27 -42l305 -55l21 -41l-70 -14l-207 34l83 -27h62l-7 -28l-62 -21l76 -41l166 27l7 -20l-97 -42l83 -104h-34l-187 83l-83 -7l-201 42l-21 -7
l-76 -104l-138 -131l-118 -62l-76 -14h-138l-97 -21l-76 14l-69 28l-28 48l21 14l83 -35l-41 69l-14 83l76 194l83 104l145 117l69 28l76 14l138 -14l111 -35l125 270l20 125l-13 256l-56 214l-41 49l-56 34h-90l-69 -14l-55 -34l-48 -49l-111 -152l-56 -124l14 -42l-20 -14
l-35 -110l-69 34v166l83 194l-28 14l-158 -111l-21 -28l-14 21l35 55l47 42l381 249l201 69zM814 1717l35 -27c-8 10.667 -19.667 19.667 -35 27zM904 1572l21 -76c-4.66699 24.667 -11.667 50 -21 76zM219 1309l-12.999 -76l13 -69l14 76
c-0.666992 21.333 -5.33398 44.333 -14.001 69zM434.001 687l-111 -49l-159 -173l-35 -96l139 200l104 62c25.333 14 46 32.667 62 56zM468.001 528l-103 -69l-70 -97l-20 -83l20 -42l70 -14l221 194c22 29.333 33.667 64 35 104zM946.001 493v-41l97 -7zM718.001 465
l-70 -89.001l-41 -90l69 90c18 26.667 32 56.334 42 89.001zM212.001 236.999c4.66699 -18.667 16.333 -34.667 35 -48z" />
    <glyph glyph-name="three" unicode="3" horiz-adv-x="1342" 
d="M593 1688l152.001 -30l91 -92c33.333 -9.33301 58.666 -32 75.999 -68l84 -191l-8 -76l-53 -129l-38 -61l144 -106l84 -99l160 -381l38 -304l-46 -130l-91 -91l-106 -68l-130 -53l-144 -31l-175 -8l-160 16l-137 45l-205 153l-69 113l-30 145l-8 99l15 61l46 23l46 -77
v92l22 53l46 -68l23 -153l61 -114l106 -68l130 -54l152 -30l114 53l167 191l61 121l-23 153l-53 129l-68 106l-122 54l-305 38l-91 38l38 7l206 198l-69 23c31.333 23.333 69.333 36 114 38l46 130l8 83l-31 46l-46 30l-91 -7c-37.333 -12 -70.333 -37.333 -99 -76
l-144 -206l-31 -23l-23 16l23 76l-53 7l-15 -61c-27.333 21.333 -45 52 -53 92l53 129l76 99l205 152zM547.001 1627l-198 -114l-76 -76l-38 -61l114 91l99 46l91 61l54 53h-46zM653.001 1627l-38 -61l145 -23l-23 46zM760.001 1452l30 -46
c-2.66699 18.667 -12.667 34 -30 46zM844.001 995l30 -45l190 -145l-30 61l-114 99zM988.001 211l-121.001 -175l83 77c16.667 29.333 29.334 62 38.001 98zM144 189l30.001 -98.999l53 -61l-30 84c-14.667 25.333 -32.334 50.666 -53.001 75.999zM1125 29.001l-114 -114
l76 53c16 18 28.667 38.333 38 61zM258.001 -0.999023c24 -19.333 52 -34.667 84 -46z" />
    <glyph glyph-name="four" unicode="4" horiz-adv-x="1111" 
d="M731 1844c29.333 -20 47.667 -50.332 55 -90.999l-19 -738l104 18l134 6l61 -79l6 -37l-18 -12l-55 6l-177 -30l293 -6l-6 -43l-92 -43l-244 -36l-24 -98l6 -384l-12 -128c-26 -16 -44.333 -40.333 -55 -73l-18 -43l-49 37l-31 91l-36 244l-6 -67l24 -378
c-31.333 15.333 -51.666 41.666 -60.999 78.999l-30 519l6 164l-287 -36h-116l-97 -98l-24 -12l-13 36l116 189c1.33301 38 21.666 62.667 60.999 74l378 731v-73l85 183l13 85l24 -18l37 -232l24 275zM517.001 1362l-250 -433l171 31l61 24l24 317zM151.001 795.001
l-24 -42l317 36h-207z" />
    <glyph glyph-name="five" unicode="5" horiz-adv-x="1566" 
d="M1032 1845h95l81 -15l29 -36l-59 -22l73 -8l66 -36l-58 -37l-762 -80l-36 -59l-161 -410l292 81h96l322 -44l212 -73l125 -66l161 -132l29 -66l22 -132l-29 -88l-66 -124l-95 -95l-161 -125l-249 -131l-147 -37l-58 29l-147 15l-80 -15l-176 15l-110 80l59 -36l58 -7
l73 51l81 14l381 191l153 132l125 161l29 153l-51 52l-132 51l-461 29l-147 -15l-139 -51l-95 -95l-51 44h-59l-51 73l66 110l29 227l95 271l-58 -44l-22 51l-110 -29l8 29l51 44l14 51l249 37l51 44l66 -15zM1339 937l22 -57.999c-0.666992 19.333 -8 38.666 -22 57.999z
M1427 864.001l-116.999 -403l95 103l73 146l-7 59c-8.66699 31.333 -23.334 63 -44.001 95zM1149 396.001l-212.001 -154l73 22l110 80c12.667 14 22.334 31.333 29.001 52z" />
    <glyph glyph-name="six" unicode="6" horiz-adv-x="1307" 
d="M961 1838l66 -20l-33 -13l-20 -46l-85 -85l59 20l46 -46l-40 6l-124 -46l-46 -39l-230 -282l-184 -322l-78 -236l6 -112l33 20l20 -20l-46 -59l39 -72l26 -13l20 20h33l7 -27l-40 -52l125 -138l52 -26l92 -20l-59 79l-26 65l-13 73l13 72l46 125l72 98l184 151l137 26
l79 -6l66 -20l52 -33l86 -85l26 -59l13 -72l-7 -79l-72 -184l-39 -46l-53 -118l-164 -92l-144 -26l-289 26l-78 -7l-132 40l-52 33h-26l52 -73l53 -32l72 -13l85 39l-7 -26l-45 -46l-66 -20h-46l-66 33l-85 85l-157 269l-46 125l-20 138l72 269l381 558l229 197zM889 1785
l-99 -52l-59 -53l92 46c28.667 9.33301 50.667 29 66 59zM521 1379l-26 -46c11.333 12.667 20 28 26 46zM449 1293l-72.001 -91.999l-26 -111l72 118c14.667 25.333 23.334 53.666 26.001 84.999zM1053 814.001l151 -98.001c-0.666992 28.667 -11.667 54.667 -33 78
c-34 12.667 -73.333 19.334 -118 20.001zM921.999 755l-72.999 -92l-19 -65l6 -73l66 -32l164 45l98 60l33 46l-33 32l-111 53c-38.667 13.333 -82.334 22 -131.001 26zM1230 571l-26 -65l19 6l27 40zM1145 545l-59 -59l-164 -59h-53l20 -39l105 -7l79 33l45 59
c11.333 20.667 20.333 44.667 27 72zM797 355c13.333 -22 30.667 -41.667 52 -59zM292.001 322c0 -9.33301 4.33301 -18 13 -26zM318.001 263l33 -20c-9.33301 9.33301 -20.333 16 -33 20z" />
    <glyph glyph-name="seven" unicode="7" horiz-adv-x="1324" 
d="M992 1844l36 -15l-7 -138l43 14l22 44l51 -15l58 -65h131l8 -65c-3.33301 -24 -18 -38.667 -44 -44l-73 -29l-284 -1113l-7 -109l-29 -95l-87 -167l7 -101l-15 -44l-43 22l-44 79l-29 102l73 1149l58 320l-87 22l-480 8c-27.333 -0.666992 -44.333 -13 -51 -37
c-10.667 -26 -32.667 -43 -66 -51l7 -116l-29 -22l-51 29l-36 95l-58 65c-25.333 13.333 -42.333 35.333 -51 66l-36 123l15 15l57 -15h611l386 -51zM-1 1564c-24 -0.666992 -36.332 -12.667 -36.999 -36c17.333 6.66699 29.666 18.667 36.999 36zM100.001 1557l51 -8l15 8
h-66zM872.001 1469l7 -29l7 29h-14z" />
    <glyph glyph-name="eight" unicode="8" horiz-adv-x="1224" 
d="M857 1830l96 -59l-81 -59l37 -96l-111 22l-81 -81l74 22l81 8l44 -15l-22 -88l89 36l-74 -88l-81 -74l-162 -228l66 -22l280 -199l74 -89l51 -103l23 -125l-15 -133l-52 -110l-66 -89l-88 -66l-118 -52l-177 -103l132 22l214 111l81 74l74 88l96 177l7 -44l-37 -111
l-140 -177l-199 -125l-110 -44l-148 -15l-140 22l-206 111l-74 88l-37 125l-7 148l15 147l162 457l-251 229l-51 110l-15 66l15 67l81 81l214 96zM636 1683l-176 -67l-229 -140l-29 -37l81 -88l73 -52l74 -29l96 147l169 192l37 59zM246 1661l-81 -30l-52 -52l-37 -66
l15 -51l37 73l147 126h-29zM776 1498l-109.999 -103l-74 -118l162 170c11.333 14 18.666 31 21.999 51zM710.001 1292l-7 -22l14 7zM585.001 1277l-8 -22l15 8zM688.001 1263l-52.001 -59l-22 -52c42.667 54 67.334 91 74.001 111zM312 1174l44 -37
c-12 14.667 -26.667 27 -44 37zM533 1071l-88 -140l22 -15l66 81l30 59zM600 1019l-52 -103l-81 -228l-7 -140l14 -140l59 -89l111 -44l96 52l81 81l110 191l-22 126l-125 176l-89 67zM968 769l29 -148l-36 -95l36 29l30 66l7 -66l-29 -74l-74 -125l37 30l37 59l59 140l7 66
l-51 74zM946 496l-15 -44c9.33301 11.333 14.333 26 15 44zM415 305c4 -16.667 14 -31.667 30 -45z" />
    <glyph glyph-name="nine" unicode="9" horiz-adv-x="1101" 
d="M920 1833l39 -84l39 -25l6 51l84 -148c-0.666992 -28 -13.667 -51.333 -39 -70l6 -270l33 13l6 -13l-39 -84l-6 -64l19 -141l-58 -855l-19 -70l7 -26l-33 -39v-115l33 -45l-26 -13l-52 84l-6 102l13 187l-13 19l-13 -64l7 -103l-39 -32l-19 32l-26 199l32 675l-64 -33
l-64 -51l-84 -38l-186 -58l-110 -13l-89 6l-110 32l-77 52l-51 64l-26 84l13 115l45 193l38 83l52 71l122 122l148 97l167 70l302 52zM863 1679l-65 -45l97 -77l6 115zM657 1582l-128.999 -32l-90 -57l-160 -142l-52 -103v-122c3.33301 -36.667 22.666 -66.667 57.999 -90
l135 20l109 38l193 109l84 71l70 84l-12 128l-77 77c-37.333 12 -80.333 18.333 -129 19zM863.001 1113l-58 -64l-219 -109l97 19l83 32l77 45c11.333 23.333 18 49 20 77zM66.001 1101l-7 -84l20 -96l57 -58l71 -45l103 -13l109 7l97 19l135 58l-129 -20l-109 7l-90 25
l-71 45l-83 33l-65 51z" />
    <glyph glyph-name="colon" unicode=":" horiz-adv-x="284" 
d="M229 833l35 -30l-25 -35l-5 -75c-9.33301 -25.333 -26 -48.333 -50 -69l-84 -20l-10 10c-28 7.33301 -46.333 25.333 -55 54l45 75l70 50zM150 334l59 -29l50 -40l-10 -65l-45 -45l-54 -5l-20 10l-30 60l10 65z" />
    <glyph glyph-name="semicolon" unicode=";" horiz-adv-x="250" 
d="M111 753l72 -22l28 -89l-61 -55c-24 -10 -42.333 -28.667 -55 -56l-61 23c-18 19.333 -27.333 45 -28 77l39 78zM178 348l55 -49l11 -23l-11 -49l11 -72l-22 -95l-39 -66l-50 -39l-16 17l72 171l-117 -49c-22 6.66699 -34.667 23 -38 49l-17 72l44 50z" />
    <glyph glyph-name="semicolon" unicode="&#x37e;" horiz-adv-x="250" 
d="M111 753l72 -22l28 -89l-61 -55c-24 -10 -42.333 -28.667 -55 -56l-61 23c-18 19.333 -27.333 45 -28 77l39 78zM178 348l55 -49l11 -23l-11 -49l11 -72l-22 -95l-39 -66l-50 -39l-16 17l72 171l-117 -49c-22 6.66699 -34.667 23 -38 49l-17 72l44 50z" />
    <glyph glyph-name="less" unicode="&#x3c;" horiz-adv-x="859" 
d="M448 1187l49 -97l-28 -119l-76 -201l-146 -279l83 -28l251 -34l222 -63c27.333 -18 41.333 -46 42 -84l-42 -20l-41 41l69 -104l-42 -14l-125 56l-355 69l-243 7l-56 91l21 14l230 334l62 215l56 63v-28l42 70z" />
    <glyph glyph-name="equal" unicode="=" horiz-adv-x="1320" 
d="M1064 987c12 -22.667 30.667 -36.667 56 -42l140 -35l-35 -42l-105 -21l-1098 -105l-21 42l154 35l308 35l-406 21l7 35l91 35l797 49zM882 693l231 -56.001l84 -7l147 -49c24 -7.33301 38 -23.666 42 -48.999l-1084 -42l-119 21l-91 42l21 42l91 14l56 42l147 35z
M421 643.999l-105 -14l49 -7l112 14z" />
    <glyph glyph-name="greater" unicode="&#x3e;" horiz-adv-x="874" 
d="M109 1023l17 -34l12 23l51 -18l80 -85l560 -292l46 -40l-17 -57l-160 -97l-360 -320l-103 -69l-46 -11l-91 -80l-52 -23v23l-34 -17l-17 17l149 206l-29 -6l-23 34l103 97l251 166l46 40l109 63l-275 149l-142 108l-86 86l-46 80l29 6l40 -29l-23 63zM584 434
l-40 -39.999c16 11.333 29.333 24.666 40 39.999zM132 51.001l-34 -62c20.667 14 32 34.667 34 62z" />
    <glyph glyph-name="question" unicode="?" horiz-adv-x="914" 
d="M669 1648l91 -6l91 -55l49 -78l12 -104l-12 -230l-406 -679l-31 -85l6 -36h79l85 30l24 18l55 -55l-121 -103l-237 -85l-12 31l-67 -12l-6 30l49 85l-24 91l30 91l212 388l133 352l7 115l-79 36l-97 24l-103 7l-97 -25l-182 -176l-61 -91l24 -54l25 -24l-19 -6l-30 24
l-36 6l-6 67l24 97l85 91l-164 -91l79 78l157 91l67 55l49 67l79 42zM754 1581l61 -42c-12 20.667 -32.333 34.667 -61 42zM336 1509l-36 -49c14 12.667 26 29 36 49zM536 1502l-91.001 -30l140 -24l12 30c-19.333 10.667 -39.666 18.667 -60.999 24zM656.999 1442l12 -24
c0 8.66699 -4 16.667 -12 24zM347.999 308l-18 -49l127 49h-109zM571.999 174l43 -12.001l-61 -163l6 -12l49 12c-12.667 -29.333 -37 -45.666 -73 -48.999l-61 55c-30.667 0.666992 -50.667 16.667 -60 48l73 67z" />
    <glyph glyph-name="at" unicode="@" horiz-adv-x="1235" 
d="M777 1046l99 -12l81 -32l143 -74l100 -125l25 -87l6 -106l-12 -99l-63 -156l-43 -68l-63 -50l-80 -31h-100l-131 -88l-74 -31l-156 -37l-118 25l-206 93l100 -93l-44 12l-130 88l-38 74l-56 168l-6 75l19 193l25 87l87 137l124 93l87 25h100l-193 -74l-62 -50l-50 -62
l-69 -150l-18 -93v-112l18 -94l13 13l19 93l56 168l87 131l106 118l68 44l81 31l174 44zM808 903l-199 -50l-156 -81l-81 -75l-68 -93l-44 -112l-25 -118l13 -69l37 -43l50 -25l137 -25l155 6l137 50l-62 87l-62 -56l-69 -12l-68 12l-87 75l-19 56l6 74l19 63l62 99l81 81
l68 13l63 -19l68 -68l19 12l31 -25l6 -50l-31 -74l-12 -63l6 -74l25 -50l56 -25l56 100l31 18l12 -18l-6 -69l37 37l25 56l19 137l-19 137l-56 106l-99 56zM1050 872l75.001 -112l-25 62c-12.667 17.333 -29.334 34 -50.001 50zM1082 691l12 -124l-19 -125l-87 -149l75 68
l50 94l6 137c-6 32 -18.333 65 -37 99zM627.001 673l-81 -119l-31 -143l31 6l63 44l43 75l25 80zM677.001 492l-62 -100l62 38l12 43zM652.001 156l-112 -13l-62 -31l131 13c18.667 6.66699 33 17 43 31z" />
    <glyph glyph-name="A" unicode="A" horiz-adv-x="1194" 
d="M373 1838l76 -82l673 -1260l32 -94c-32 13.333 -59.333 34.333 -82 63l-13 -19l139 -416l-44 26l38 -233l-25 -44l18 -114l-270 743l-57 95l-101 50l-170 32l-220 -19l-57 -366c-3.33301 -36 -18 -71.667 -44 -107l-38 177l19 277l-157 -19l-25 6l-19 25l208 51l6 31
l-233 -25l-82 25l19 25l308 63l-188 89l44 56l119 26h51l81 598l51 176l-13 57zM398 1353l7 -19l25 139zM468 1372v-69l-26 -38l-56 -372l56 -6l177 -69l126 -76l-38 132zM732 1088l13 -75l113 -189l-19 76zM216 855l-51 -31l114 -57l12 88h-75zM726 849l19 -75l31 -51
l-25 69zM373 843l-12 -88l12 -13l334 -25l-57 38zM845 792l32 -81l50 -76l-38 82zM782 679l-18.001 -19l31 -6c-1.33301 8.66699 -5.66602 17 -12.999 25zM1122 -51l13 -32c0 11.333 -4.33301 22 -13 32z" />
    <glyph glyph-name="B" unicode="B" horiz-adv-x="1254" 
d="M682 1832c35.333 -13.333 62.334 -40.001 81.001 -80.001l7 -74l-59 -139l81 -102c8.66699 -31.333 30.667 -55.666 66 -72.999l110 -44l87 -66l103 -51l95 -66l51 -102v-139l-161 -300l-366 -490l52 14l21 -29l-226 -175l-190 -271l-44 -15l124 264l-139 -110l-37 -7
l-7 14l-7 -139l-22 8l-29 124l-103 -29l-139 -73l15 29l212 132v87l-139 -58l-73 -15l22 37l102 51c31.333 17.333 55.666 44 72.999 80l-153 1566l-59 -8l-51 15l44 51c40 12.667 62 42 66 88l36 -29l88 73l29 -29l191 -44l131 87zM668.001 1788l-183 -73l-30 -51l227 -81
l22 44l22 103c-6 30 -25.333 49.333 -58 58zM375.001 1532c-44.667 -4.66699 -69 -31.333 -73 -80l22 -191l249 110l36 73l-102 73c-38.667 9.33301 -82.667 14.333 -132 15zM675.001 1466l21.999 -44.001c-3.33301 16.667 -10.666 31.334 -21.999 44.001zM631 1386l-15 -30
l30 8zM719 1342c1.33301 -30 16 -47 44 -51c-1.33301 26.667 -16 43.667 -44 51zM829 1335l-0.000976562 -74l73 8c-13.333 31.333 -37.666 53.333 -72.999 66zM528.999 1327l-88 -22l-66 -36l-51 -52l22 -65l66 36l139 132zM901.999 1320l80 -59
c-23.333 21.333 -50 41 -80 59zM645.999 1291l-87.999 -88l73 36l29 37c-0.666992 6.66699 -5.33398 11.667 -14.001 15zM770 1188l-102 -22l-300 -197l-15 -51l7 -22l-14 -132l36 -541l-14 -96h-22l-8 -80l315 168l73 51l59 59l241 373l22 102l-29 213l-44 65v74l-88 36
h-117zM1092 1188l14.001 -14c-0.666992 6 -5.33398 10.667 -14.001 14zM1180 1137l44 -176l-30 -175l59 95l14 110l-29 87c-16.667 19.333 -36 39 -58 59zM1041 1013l14 -51.999c-1.33301 17.333 -6 34.666 -14 51.999zM1092 683l-22 -117l29 66zM946.001 493l-59 -79.999
l-22 -73l59 65c10 25.333 17.333 54.666 22 87.999zM799.001 252.001l-21.999 -36.999c11.333 9.33301 18.666 21.666 21.999 36.999zM682.002 171.002l-36 -29c14.667 6 26.667 15.667 36 29zM763.002 98.002l-30 -44l59 44h-29zM624.002 76.002l-278 -116l-22 -59l14 -22
l183 81l73 58c14.667 16 24.667 35.333 30 58z" />
    <glyph glyph-name="C" unicode="C" horiz-adv-x="1299" 
d="M942 1842l-65 -43l187 -22l44 -43l-123 -22l22 -29l144 -101l-22 -29l-21 -79l-51 86l-253 -7l-317 -108l-159 -123l-29 -108l-22 -369l72 -375l73 -73l166 -115l101 -51l217 -65l130 -7l231 108l-15 -65l58 -21l-22 -44l-79 -65l-87 -50l-123 -22l-512 65l-109 29
l-86 58l-73 72l-57 87l-123 296l-29 260l7 137l123 303l58 87l65 72l94 145l14 -43l65 72l80 58l101 50zM725 1661l-108 -35.999l-174 -108l-29 -43c196 109.333 299.667 171.666 311 186.999zM862 1661l-114.999 -65l252 29c-40.667 14.667 -86.334 26.667 -137.001 36z
M227.001 1127l7 -36v29zM219.001 1091l-14 -159l22 94zM371.001 376.001l15 -80l151 -123l123 -57l79 -15l80 15l-238 108zM1166 181.001l-44 -29c18 4 32.667 13.667 44 29z" />
    <glyph glyph-name="D" unicode="D" horiz-adv-x="1245" 
d="M496 1842l99 -35l386 -240l158 -152l59 -93l58 -182v-76l-18 -140l-274 -503l-76 -82l-193 -117l-188 -35l-5 -58l11 -35l-17 -12l-24 82l-304 -123l-70 -41l-18 12l59 99l94 105l-106 6l24 59l93 58l-58 632l17 52l70 -672l53 12l12 40l-82 1182l-18 46l-386 -81h-58
l-47 -24l-64 -58l-41 -6l-6 17l88 82l146 88l12 41l52 29l252 59l47 29l17 -6l176 35zM402 1737c13.333 -26 36.667 -41.667 70 -47l293 -53l-70 53l-193 41zM361.001 1731l29 -35.001c-4 14.667 -13.667 26.334 -29 35.001zM297.001 1719l-18 -17c10 2 16 7.66699 18 17z
M233.001 1708l-53 -18h23c14.667 2.66699 24.667 8.66699 30 18zM373.001 1637l93.001 -1193l12 -23l29 18l-17 152l6 5l-65 930l-11 76c-6.66699 20.667 -22.334 32.334 -47.001 35.001zM431.002 1626l18.001 -82.001l82 -1094l82 12l93 29l164 82l53 70l11 -23l111 93
l47 82l24 94v234l-24 93c-22.667 6.66699 -38.334 24.334 -47.001 53.001l-40 82l-100 146l-70 47l-392 93zM1086 1398l71 -223l23 -239l18 134l-18 123l-64 164zM396.003 993.997l12 -374l12 -18l-6 199zM934.003 549.997l18 6l-12 5zM934.003 484.997l-122 -99l-94 -99
l70 35l59 46l52 59c14 16.667 25.667 36 35 58zM268.003 174.997l-76 -87l70 46l23 36z" />
    <glyph glyph-name="E" unicode="E" 
d="M981 1842h81.999l51 -19l-44 -25l-89 -25h95l12 -38l-132 -19l-334 -82l-38 -25l164 44l177 6l-398 -113l-38 -57l-50 -492l334 13l183 31l44 -12l-12 -26l-70 -38l-176 -31l113 -38l-12 -38l31 -12c22 -10.667 34.667 -29.667 38 -57l-63 -13l-101 38l-328 19l-38 -441
l385 -177l158 -44l82 -13l50 -50l145 -69c-1.33301 -22.667 -14 -37.334 -38 -44.001l-76 31l-447 69l-158 51l-113 56l-7 -422c-17.333 2.66699 -29.666 13.334 -36.999 32.001l-13 359l6 19l-31 69l-38 -63l-38 32l-13 -19l-63 31v70l-25 -108l-25 -44l-25 13l-7 25
l13 126l-82 26l25 18l51 7l-57 56l19 7l63 -25l-13 107l101 416l13 95l-7 69l45 296l-101 -44l50 70l-101 -51l13 44l-32 44l221 145l19 45l25 -19l133 69l-19 76l44 25l19 -95zM419.999 1508l-31 -114l-45 -403h26l31 107l32 391c-2 8 -6.33301 14.333 -13 19z
M186.999 1495l-57 -57c20.667 16 39.667 35 57 57zM287.999 1445l-19 -101l-7 -133l32 108v75zM325.999 827l-38 -385l44 -19l38 404h-44zM211.999 644v-164l38 334zM280.999 373l45 -57c-8 22.667 -23 41.667 -45 57zM375.999 322l25 -44l70 -12l-45 31z" />
    <glyph glyph-name="F" unicode="F" horiz-adv-x="1114" 
d="M139 1828c21.333 -14 36.333 -35.667 45 -65l84 -19l777 -13c27.333 -1.33301 51.333 -14.333 72 -39l-868 19c10.667 -23.333 30 -38.333 58 -45l725 13l91 -13l26 -19l-26 -39l-58 -32l-78 -13l-699 -26l97 -427l13 -143l511 52l91 -58l-26 -39l7 -13l45 -20l-19 -25
l-78 -26h-110l-65 -39l-142 -26l-201 39c-24.667 -4.66699 -42 -20 -52 -46l-26 -84l-19 52l-46 570l-19 84l-52 129l143 -1223l-20 -291l-32 -78l-20 13l13 214l-26 -20l-19 91l-19 492l-7 -72l20 -466l-7 -32l-39 32l-58 1172l-32 181l-78 20l-26 32l33 7l58 32l-7 65
l13 19l-19 52l13 19l38 -32zM184 1711v-32l39 32h-39zM230 1711l13 -19c-2 8.66699 -6.33301 15 -13 19zM398 1595l-110 -19h149l97 13zM378 857l227 13l143 26z" />
    <glyph glyph-name="G" unicode="G" horiz-adv-x="1619" 
d="M925 1842h144.001l109 -34l82 -62l69 -75l14 -48l-48 -7l-14 14l-110 27l-48 -7l117 -89l62 -75l13 -42l-13 -13l-192 164l-96 48l-213 -61l-253 -172l-55 -89l-34 -247l20 -383l76 -213l96 -185l178 -82l116 20l-27 -34l185 14l110 34l95 48l7 21l-20 219
c-32.667 17.333 -69.334 26.333 -110.001 27h-226l-75 76l13 34l48 7l130 -34l185 13l-308 48l-48 21l55 27l500 -27v20l48 35l28 -41l75 -69l-75 -62l6 -96l28 -13l-21 -110l7 -130l-20 -199l-48 7l-76 68l-7 62l-383 -110l-480 55l20 -82l-54 27l-55 83l-96 48l-82 61
l-69 69l-103 185l-68 212l-14 96l21 151l61 226l220 343l143 144l83 55l171 75l-267 -199l-192 -239l-96 -186l-34 -109l-41 -240l20 -103l69 -219l102 -172l76 -68l68 -41l-102 178l-131 439l7 281l69 212l55 89l130 151l171 110zM959.001 1746l82 -48l110 7l-82 27z
M863.001 1739l-75 -20l-124 -55l-75 -55l34 -7l-48 -41l-41 -82h14l185 123l192 69l-14 34c-14 14 -30 25.333 -48 34zM479.001 1506l-130 -219l-14 -76l35 83l89 137zM397.001 704l21 -137v76zM1350 560l20 -226l14 69c-6.66699 68 -18 120.333 -34 157z" />
    <glyph glyph-name="H" unicode="H" horiz-adv-x="1382" 
d="M1050 1598c32 -19.333 50 -43.333 54 -72l-18 -83l45 -78l18 -83l-36 -678l154 6l81 -17l-235 -38v-56c0.666992 -20.667 18.667 -33.667 54 -39l217 -5l-54 -23l-226 -11l208 -5l135 -17c-14 -21.333 -41 -34.333 -81 -39h-163c-40.667 -2 -73.667 -15 -99 -39v-194
l72 -343l-18 -28l-54 28l-90 27l-64 6l-36 78l-36 371l9 67l-18 16l-524 11l72 -687l-27 -23l-27 39l-81 677l-28 -33l28 -411l-64 -61l-18 -50l-45 17l-45 67l-27 643l-18 22l-81 33h90l-18 761l72 55l27 -83l27 -272l9 33l-27 433l27 45l118 -972l27 -11l551 11l54 739
l-9 22l45 -34l9 -83l37 283zM327 543l54 -55l506 -17v84zM164 -83l9 -33v27z" />
    <glyph glyph-name="I" unicode="I" horiz-adv-x="384" 
d="M208 1778l27 -4.99902v-68l-18 -5v-72l45 -64l41 -447l-4 -5l41 -825l-18 -32l27 -223l-9 -32l-14 14l-54 364l-37 -68l5 -77l-19 -5v-73l-9 9l-45 119l36 -178l-18 -5l-55 178l-100 1122l5 237l18 9l32 -561v388c10.667 23.333 16.667 50.666 18 81.999l-32 68l36 -32
l19 68l45 51zM244 857.001l14 -118v246l-9 223z" />
    <glyph glyph-name="J" unicode="J" horiz-adv-x="809" 
d="M523 1808l55 -93l27 -170l39 -83l-28 110l6 11l11 -6l49 -93l88 -615l-22 -565l-44 -170l-33 -39l-5 -66l-39 11l-22 -49l-60 -11l-66 11l-44 22l-214 214l-132 82l-77 72l-22 49l22 -5l121 -94l22 -5l-88 197l11 33l-11 39l5 16l39 -27l110 -247l60 -83l50 -21l126 -17
l49 17l17 247l-22 658l-11 33l16 6l33 -110l28 -247l-17 -587l28 43l11 121l-72 1400zM671 1303l39 -428l16 -66l-38 379c-2 36 -7.66699 74.333 -17 115zM721 776l5 -27v21zM567 183l-22 -44c10.667 12 18 26.667 22 44zM495 46l17 -11c-3.33301 5.33301 -9 9 -17 11z
M528 46v-11l28 5z" />
    <glyph glyph-name="K" unicode="K" horiz-adv-x="999" 
d="M175 1792l26 -90.001l6 -207l21 -85l26 -392l53 47l90 133l207 562l21 -79l-21 -160l-47 -175l53 22l10 -11l-37 -85l-85 -138l-101 -116l-79 -144l-16 -47l297 100l37 -10c20 -15.333 36 -36.666 48 -63.999l58 -382l58 -159l48 -63l59 -53l68 -22
c-14 -18.667 -35 -31 -63 -37l143 -190l-16 -22l-48 16l-58 53l-95 122l21 -69c-24 0.666992 -45.333 9.66699 -64 27l-217 334l-59 164l-10 154l21 133l-239 -91l-10 -85l69 -636l-11 -37l-42 16l-11 -42l-32 21l-42 63l-32 80l11 21l-27 530l5 16l-21 6l21 -610l-31 69
l-27 567l-95 -32l-11 11l85 95l16 91l-11 684l11 16l21 -91l21 -620l16 37l-5 536l-21 37l15 26l11 43l-16 37l21 69v64zM541 1320l-22 -64l16 11l27 48zM620 863.999l5 -90l22 -80l-11 90zM567 741.999l-5 -64l26 -164l90 -186l-5 48c-62 228 -97.333 350 -106 366z" />
    <glyph glyph-name="L" unicode="L" horiz-adv-x="1164" 
d="M193 1798l43 -92l17 -114l32 -1055l33 -167l156 32l585 16l70 -54l27 -75l-87 -49l-898 -130c-30.667 6 -55.667 24 -75 54l-27 108l-49 844l16 114l71 -952l5 113l-22 1169l-16 141l16 32l87 -76l5 125zM209 1652l6 -27v22zM209 1122l-5 -60l16 -189l6 54zM204 608
l11 -292l27 10v141c-16 71.333 -28.667 118.333 -38 141zM480 348l-103 -22l-49 -21l195 43h-43zM117 245l33 -97l103 -6l-60 55c-24 10 -49.333 26 -76 48zM561 245l-114 -27l-43 -21l168 32zM637 213l-49 -22l265 38l49 16z" />
    <glyph glyph-name="M" unicode="M" horiz-adv-x="1104" 
d="M866 1842l64.999 -43l21 6l11 -11l-16 -54l5 -48l27 27l-11 43l16 43l59 -22l-11 -86l27 -1049l27 -198l-21 -97l21 -241l-27 17l-27 74l-5 -26l-43 43l-27 85l-37 188l-37 482l-11 -11l-11 -525l43 -273l-11 16l-48 182l-11 428l27 407v150l-16 -21l-112 -257l-38 16
l-48 -96l32 -22l-48 -64l-43 16l-64 54l-48 58c-24 11.333 -43.667 29.333 -59 54l-43 70l-198 257l-11 -49l64 -1012l32 -150l-53 -58l37 -118l-5 -27l-70 16l-64 161c-21.333 10 -35.666 27.667 -42.999 53l-32 466l5 16l-21 921l11 70l21 -38l11 75
c20.667 -14 36.667 -33.667 48 -59l64 -53l86 -91l-59 96l-64 70l11 32l32 -22l107 -117l326 -434l43 96l54 65l43 69l69 155c12.667 21.333 20 46.333 22 75l59 108c-18.667 42 -29.667 79.333 -33 112zM973.999 1580v-113l5 91z" />
    <glyph glyph-name="N" unicode="N" horiz-adv-x="1034" 
d="M608 1848l58 -73l309 -1472l-11 -16l26 -99l-31 -6l10 -52l58 -162l-21 -5l-388 502l-52 47l5 -21l446 -691l-58 48l-786 1183l26 -843l-10 -74l-16 89l-16 215v-147l-10 -47c-18 18 -30.333 40.667 -37 68l-15 514l-11 -524l11 -47l-11 -16l-26 21l-26 89v251l42 603
l-11 36l-47 79l-21 58l31 -21l48 -58l5 110l-68 225l21 11l26 -32l21 -57v78l36 -42l37 -131v-73l466 -676l-136 220l-57 137l26 -21l251 -351l-99 560l21 26l-84 566l26 -26zM613 1717l-21.001 -10l32 -84l21 -121l5 37c-17.333 100 -29.666 159.333 -36.999 178z
M162.999 1214v-63l83 -131l-62 147zM366.999 937l26 -68l47 -53l-36 58zM445.999 806l10 -6l-5 16zM623.999 675l10 -6l-5 16z" />
    <glyph glyph-name="O" unicode="O" horiz-adv-x="1189" 
d="M595 1752l145 -38l54 -32l102 -80l75 -97l102 -172l70 -193l32 -225v-258l-43 -220l-27 -65l-64 -112l-43 -49l-97 -80l-59 -27l-75 -16l-306 54l-59 27l-113 69l-42 43l-119 151l-59 118l-53 214l-11 424l11 76l37 139l59 118l81 102l107 70l70 21zM622 1720l113 -59
l107 -81l91 -91l76 -107l-22 64l-118 156l-54 43l-118 59zM499 1671l16 -10h70l-11 10h-75zM552 1634l108 -27l-49 22zM676 1612l96 -59l-42 38zM483 1569l-97.001 -37l-64 -59l-43 -86l-27 -97l-32 -214v-242l43 -209l37 -91l91 -162c22.667 -18 51.334 -28.667 86.001 -32
l113 -10l-107 112l-135 247l-26 102l-11 204l21 134l70 183l48 80l70 59l81 43l91 33l-91 37zM675.999 1489l-85.999 -32l-70 -43l-53 -65l-43 -75l-59 -166l-22 -199l32 -188l70 -161l48 -69l108 -119l86 -32l85 27l76 38l64 53l54 59l43 188l5 113l-21 199l-81 263l-43 75
l-107 118c-24.667 10.667 -53.334 16 -86.001 16zM86 1231l-27 -139v-81l16 -64l-6 64l22 204zM1084 968l5 -257l11 10l11 59v70zM48 764l54 -193l26 -54l-53 199zM1068 507l-43 -102l32 53c6 16 9.66699 32.333 11 49zM896 394l-124.001 -75l86 27
c16.667 12.667 29.334 28.667 38.001 48zM670.999 297l-178 -16l27 -32l65 -16l80 5l97 38l-16 11zM954.999 233l-43 -32l-97 -43l-26 -22l59 11l48 22l37 32c10 8 17.333 18.667 22 32z" />
    <glyph glyph-name="P" unicode="P" horiz-adv-x="920" 
d="M323 1848l197 -42l106 -54l180 -138l69 -90l22 -58l5 -64l-11 -69l-47 -112l-38 -42l-127 -112l-154 -85l-186 -53l-37 -26l37 -770l-26 -122l-21 -11l-11 5l-5 32l-32 37l-11 53l-37 -31l-16 292l5 53l-10 456c-1.33301 16.667 -8.33301 31 -21 43
c-21.333 2 -39.333 12.667 -54 32l48 32l-48 32l32 37l32 -6v393l-16 144l27 21l26 -90l16 -138l6 132l31 -5v27c14 -4 24.667 -14.667 32 -32l16 -64l5 -377l48 32l159 80l91 63l111 133l48 101l-16 48l-127 106l-53 26l-181 59h-149l-122 -32l-217 -101l-128 -85l-5 11
l133 122l101 53l-11 11l-122 -43v21l26 43l43 37zM759 1365l-31.999 -43l-16 -37l32 37c7.33301 12 12.666 26.333 15.999 43zM780.001 1259l-228 -160l-245 -122l80 16l74 27l128 63l111 80l48 48c12 12.667 22.667 28.667 32 48z" />
    <glyph glyph-name="Q" unicode="Q" horiz-adv-x="1179" 
d="M515 1748l79 0.000976562l91 -28l68 -35l108 -85l91 -108l69 -131l102 -386l17 -171l-11 -165l-69 -227l-74 -120l-17 -79l12 -63l-12 -17v-57l-22 -23c-10 -16.667 -27 -28 -51 -34c-4 -19.333 -17.333 -30.333 -40 -33l40 -108l-12 -18l-68 23l-40 57l-68 130
c-10.667 23.333 -29.667 36.666 -57 39.999h-74l-176 46l-68 34l-108 85l-91 108l-103 290l-11 438l28 176l91 205l114 154v-23l182 108zM532 1708l301 -136l-57 57l-68 39l-80 29zM458 1612l-68 -40l164 5l120 -45l11 11l-57 46l-74 23h-96zM429 1515l-108 -63l-85 -85
l-11 -74v-307l17 -142l51 -205l51 -114l171 -256l28 -56l40 -6l28 11l23 40l-63 199l-28 46l-11 45l11 17l57 -28l-17 102l28 11l40 -45l46 -28l28 -57l40 -131l28 -46l12 17l-17 35l-35 130l17 29l52 -68l22 -69l34 12l12 352l-29 478l-17 80l-39 45l-97 74l-125 45l-74 12
h-80zM947 1356l11 -80l85 -301l6 -91l-17 -148l6 -23l17 80v170l-80 330zM924 1162l28 -540l12 11l11 160l-34 318zM1015 497.001v-68l45 136l23 142zM174 486.001l17 -69l34 -57l-17 69zM287 468.001l-5 -28l11 -6zM293 383.001l45 -74l57 -51l-45 74
c-15.333 18.667 -34.333 35.667 -57 51zM282 298.001l45 -39.999c-10.667 15.333 -25.667 28.666 -45 39.999zM890 184.002l-17.001 -11l11 -34l34 -46l-11 40l11 11c-5.33301 14 -14.666 27.333 -27.999 40zM656.999 178.002l-17 -11c8 1.33301 13.667 5 17 11z
M798.999 76.002c2.66699 -20.667 8.33301 -41.333 17 -62z" />
    <glyph glyph-name="R" unicode="R" horiz-adv-x="1348" 
d="M294 1842l50 -62c8.66699 -27.333 27.667 -46.333 57 -57l81 -29l76 -39l94 -23l75 -34l69 -46l170 -56l75 -40l38 -74l-32 -182l-37 -68l-51 -62l-62 -52l-208 -130l-62 -29l100 -5l75 22l195 -22l88 -34l82 -131l18 -91v-108l19 -85l32 -74l44 -68l75 -193l-25 -11
l-63 28l-12 -23l25 -62l62 -45l57 17l-13 -29c-20 -18 -45 -27.333 -75 -28l-75 40l-94 124l-38 74l-151 386l-81 142l-63 46l-151 74h-188l31 -313l44 -170l-25 34l-19 85l-31 80l-51 267l-25 -6l63 -687l-25 -29l6 -45l-12 -45l-82 33l-25 35l6 -204l-44 -18l-107 869
l-25 97l13 62l-19 222l-19 90l-6 250l38 -17l31 -56v79l13 17l50 -51l31 -136l25 17l38 -74l31 -261l26 5l6 46l-82 596l-213 6l-195 -29l-81 -34l-13 -28l-44 28l-19 40l32 23l94 22l332 120l88 5c-0.666992 41.333 -4.66699 79.333 -12 114zM287 1689l-155.999 -40l182 6
c-2.66699 14 -11.334 25.333 -26.001 34zM357.001 1683l12 -28l57 5zM375.001 1575l76.001 -601.999l94 34l176 119c19.333 27.333 31.666 59.666 36.999 96.999l-12 125l-63 113l-213 12v23l119 34l-88 28zM765.002 1467l50 -220.999l-6 -46l25 17l38 91l-13 57l-31 68
c-18.667 13.333 -39.667 24.666 -63 33.999zM200.002 1297l31 -262l-19 205zM784.002 1070l-63 -57l-32 -51l63 51c14 16 24.667 35 32 57zM576.002 962.002l-69 -40l-31 -34l69 34c14.667 10.667 25 24 31 40zM934.002 774.002l19 -28c-2 10 -8.33301 19.333 -19 28z
M256.002 746.002l38 -517l19 -51l-44 505c0 20 -4.33301 41 -13 63zM1047 734.002l-6 -17l19 12z" />
    <glyph glyph-name="S" unicode="S" horiz-adv-x="984" 
d="M648 1733l88 -33l44 -39l-16 -49l-17 27l-110 -16l-77 -50l-88 -38l-143 -110l-60 -66l-28 -94l77 -55l83 -38l280 -99l77 -50l66 -60l55 -77l72 -286l-28 -121l-38 -88l-116 -138l-71 -55l-83 -44l-209 -44h-77l-33 17l-49 -17l-17 28l72 55l-28 -6l-71 -55l-55 17
l5 -22l-60 16l-66 6l-17 11l11 11l105 22l82 44l61 66l396 363l38 88l17 99l-83 49l-291 88l-83 44l-66 61l-49 77l-33 93l-6 44l11 66l44 88l61 66l71 55zM335 1540l16 6l-11 5zM318 1529l17 6l-11 5zM285 1507l17 6l-11 5zM269 1496l16 6l-11 5zM263 1095l33 -39l105 -49
l192 -50l105 -49l-28 44l-99 55l-71 11zM824 534l-44 -83l-110 -137l-66 -61l-132 -82l110 38l83 44l132 116l49 71l39 83l16 110l-11 88z" />
    <glyph glyph-name="T" unicode="T" horiz-adv-x="1145" 
d="M393 1802l18 -18l-12 -144h355l234 -30l271 -73l60 12l48 -24l-24 -42c-30.667 -18.667 -66.667 -30.667 -108 -36l-589 -36l6 -806l96 -655l-60 150l-66 72l-6 -54l12 -54v-60l-49 24l-18 30c-2 -18 -14 -28 -36 -30l-48 90l-60 217l-24 769l-12 -42l-18 121l-12 270
l-361 -12c-31.333 0.666992 -59.333 14.667 -84 42l-54 6l48 36l313 49l-384 -13l-13 6l48 61l48 -12l361 18l18 -6c40 0.666992 66 20.667 78 60zM243 1574l48 -19l54 6zM399 1574l18 -13l12 6zM471 1574l36 -7l12 7h-48zM393 1459l6 -282l18 246
c-4.66699 14.667 -12.667 26.667 -24 36zM471 1417l6 -54l6 42c-0.666992 5.33301 -4.66699 9.33301 -12 12z" />
    <glyph glyph-name="U" unicode="U" horiz-adv-x="964" 
d="M170 1842l17 -72l-28 -162l33 -116v-835l62 -217l66 -122l61 -34l78 -16l67 11l39 55l28 62l16 77l-50 1002l6 89l-11 83l11 28l17 -44l22 -162l11 67l22 50l17 78l33 -33l6 22l44 5l17 -27l83 -1386l17 -66l28 -62l39 -22l11 -22l-83 -61l61 -22l-61 -22l-56 38
l-100 167l-33 -61l-51 -45l-72 -22l-150 34l-72 27l-56 34l-50 44l-39 56l-94 278l-6 -22l11 -100l61 -212l67 -122l50 -45l67 -27l83 -11l78 11l-28 -28l-78 -17l-77 17l-117 72l-95 184l-39 150l-33 411l28 546l39 228l33 61l11 78zM687 1625l6 -95l22 -116l-5 200z
M637 963l11 -189v100zM231 257l23 -51c-5.33301 17.333 -13 34.333 -23 51zM593 240l-78 -67l-72 -28l16 -22l61 11l39 28c20 20 31.333 46 34 78zM365 229l22 -39l56 11zM643 218l-38.999 -89l39 44l11 33c-0.666992 5.33301 -4.33398 9.33301 -11.001 12z" />
    <glyph glyph-name="V" unicode="V" horiz-adv-x="1034" 
d="M54 1842l45.001 -60.001l71 -131l83 -305l32 -71l180 -698l32 -66l129 922l25 71l77 125l65 -27l64 131c10.667 18 27.667 27 51 27l-25 -65l-52 -202l32 11l-25 -77l-39 -65l-135 -796l13 11l315 1058l26 27l6 -44l-13 -76l-360 -1309l26 -202l-19 -27l19 -81l32 -66
l-6 -33l-32 22l-32 71l-58 44l-135 158l-129 272l-6 -22l19 -76l71 -131l-64 22l-39 65l-96 295l-193 1091l45 -22l-13 158c1.33301 20.667 5.66602 44.334 12.999 71.001zM780.001 1586l-64 -142l-97 -469l148 540zM240.001 1100l-6 -27l199 -758l-173 687z
M439.001 303.999l13 -27l-6 38z" />
    <glyph glyph-name="W" unicode="W" horiz-adv-x="1039" 
d="M100 1842l11 -54.001l-11 -253l44 43l26 -178l38 43l22 -420l107 -636l17 33v538h43l-6 119c26 -6.66699 44 -23 54 -49l237 -630l92 1148c17.333 -21.333 26.333 -46.666 27 -75.999l-81 -1153l11 -32l21 43l92 1234l16 54l76 -426l10 253l-10 103l21 5l27 -232
l-65 -1422l-10 65l-11 -43l5 -43l-43 32l-16 65v-97l-16 -6l-22 140l-43 49c12.667 -28 20 -58.667 22 -92l-6 -26l-48 37l-38 86c-17.333 18 -39 27 -65 27l-59 65l-97 269l-5 -291l-33 -161l-64 -32l-38 43l-5 -65l-60 27l-43 80l-32 92l-167 1040l11 151l32 91l-5 216
l10 129c5.33301 30 14.333 62.333 27 97zM882 1395l-0.000976562 -119l10 65c-1.33301 17.333 -4.66602 35.333 -9.99902 54zM924.999 1190l-16 -377l21 366zM487.999 656.999v-54l33 -135l-11 102c-4.66699 28 -12 57 -22 87zM886.999 429.999l5 -32v27zM557.999 424.999
v-75l27 -6zM881.999 327.999v-275l16 -53zM557.999 305.999l33 -91c6 -28.667 20.333 -54 43 -76l-33 92c-8.66699 25.333 -23 50.333 -43 75z" />
    <glyph glyph-name="X" unicode="X" horiz-adv-x="1178" 
d="M179 1802l106 -194l253 -599l6 23l500 746l5 -17l-17 -41l76 70h41l6 -23l-12 -12l-88 -300l-29 -70l-359 -623l24 -65l476 -787l-35 18l-118 176l-6 -18l41 -70l-23 -76l-71 35l-88 105l-41 30l35 -65l24 -76l-47 -11l-306 575l-335 -494l-59 18l18 82l259 629l-24 70
l-317 564l-41 59l-24 77l53 17l18 -12l58 -11l-47 76l-11 41l23 6l100 -106l147 -241l-18 71l-135 352c-7.33301 20 -13.333 43.667 -18 71zM603 1068l-47 -105.999c27.333 51.333 43 86.666 47 105.999zM432 744.001l-23 -82l35 71c-1.33301 3.33301 -5.33301 7 -12 11z
" />
    <glyph glyph-name="Y" unicode="Y" horiz-adv-x="870" 
d="M39 1838l49.999 -39.001l11 -27l27 11l-11 -72l199 -744l27 -33l238 524l22 66l33 49c6.66699 21.333 21.334 34.333 44.001 39l11 -17l-33 -82l11 -11l33 55l88 66l39 50l33 22v-22l-469 -1214l-66 -352v-132l-11 -17l-39 -16l-5 27l11 242l-11 -5l-50 -270l22 -33
l-44 -28l-44 45l-6 16l72 386l-16 -17l-39 -127l-6 -77l-27 55l-6 55l78 408l-39 78l-127 380l28 -16l149 -414l11 22l-221 871l22 6v33l11 16l-27 111l-6 82l39 -16l38 -133l-22 149c-8.66699 14.667 -16 31.334 -22 50.001zM507.999 999.999l-11 -39
c6 11.333 9.66699 24.333 11 39z" />
    <glyph glyph-name="Z" unicode="Z" horiz-adv-x="1509" 
d="M1304 1802l15.998 -18l-69 -137l64 -18h65l-11 -36l-108 -6l-59 -54l-757 -1223l-16 -47l38 11l617 12l285 -35c28.667 -0.666992 55.334 -12.667 80.001 -36h97c29.333 -1.33301 58 -11.333 86 -30c-21.333 -20.667 -48.333 -32.667 -81 -36l-21 -24l-156 -12l-75 -18
l-48 -53l-86 -18l-838 -24l-91 6l-17 18l60 24c-26.667 5.33301 -50 21 -70 47l-65 24l-64 6l-11 24l86 42l505 907l274 382l-876 -12l-48 12l16 53l258 36l703 -18l17 12l-693 18l-194 -18l-86 6l6 24l75 36l516 18l-38 12l-414 -6l-64 12l16 24l91 23l967 -71l65 101
c16.667 16 34.334 36 53.001 60zM1079 1492l-49 -6l17 -36l-60 -54l-268 -411l54 47l241 322l43 72c10.667 18.667 18 40.667 22 66z" />
    <glyph glyph-name="bracketleft" unicode="[" horiz-adv-x="704" 
d="M531 1842l89.001 -6l89 -29c-24.667 -14.667 -54.334 -22.667 -89.001 -24l95 -47l-24 -42l-449 -12l-89 -17l-30 -89l148 -1325c13.333 -26 37 -39.667 71 -41l18 6l254 -12l65 -12l-30 -41l-100 -12l30 -12l100 6l71 -12l-6 -30l-53 -65l-95 -23l-207 -18l-47 12l18 41
l-65 24l-95 6l-29 -36l-42 18c-10 24 -29.667 41.667 -59 53l-18 30l30 41l29 6l-88 1035l12 420l-12 65l-18 30l35 35zM188.001 464l18 -254l24 6l6 17z" />
    <glyph glyph-name="backslash" unicode="\" horiz-adv-x="729" 
d="M12 1802l49 -43l30 -48l597 -1578l55 -194l-12 -19l-79 49l-55 18l-408 1017l-43 37l-97 292l30 6l-79 402c0 18.667 4 39 12 61z" />
    <glyph glyph-name="bracketright" unicode="]" horiz-adv-x="750" 
d="M537 1842l35 -46l17 -51l57 -23l34 -35l-34 -34l-51 -11l5 -264l12 23l23 235l28 -12l12 -62v-470l17 481l23 29l-6 -1334l23 -206l-17 -57l6 -195l-35 41l-11 125l-40 -17l-46 23l-35 34l-137 12l-344 -12l-63 17l23 40l29 12l-17 11l-63 12l-46 28l52 29l194 23
l338 109l23 45l-23 201l-6 561l18 498l-58 11l-143 -6l-361 -57l-11 12l17 40l80 34l-17 11l-17 46l57 17l441 6l17 52v74zM303 176l45 -17l212 -11l-11 91z" />
    <glyph glyph-name="asciicircum" unicode="^" horiz-adv-x="759" 
d="M249 1838l85 -61l43 -98l202 -226l177 -117l43 -43l-37 -18l-110 37l-153 134l19 -49l134 -146l-12 -31l-67 37l-74 67l-128 165l-49 92l-196 -361l-85 -55h-31c2.66699 24 15 44.333 37 61l49 80l-55 -31zM261 1716l-80 -270l12 13l86 244z" />
    <glyph glyph-name="underscore" unicode="_" horiz-adv-x="1360" 
d="M1346 -11l20 -9l-10 -32l-61 -14l-70 -5l-16 -9l21 -9l15 -37l-66 -9l-192 18l-359 -9l-515 -79l-71 5l-15 42l510 115l-520 -74l-46 -14l-35 28l707 110z" />
    <glyph glyph-name="grave" unicode="`" horiz-adv-x="682" 
 />
    <glyph glyph-name="a" unicode="a" horiz-adv-x="935" 
d="M470 1003l96 -17l80 -34l63 -51l57 -63l34 -80l23 -91v-285l28 -17l57 -57l-17 -85l-63 -51l-22 -80v-40l56 12l137 57l-80 -69l-85 -34c-23.333 -14 -40.333 -34.667 -51 -62l-69 -46l-39 75l-86 27l-296 23l-114 23l-73 40l-86 74v57c6.66699 26 22 48.667 46 68
l148 80l267 74l165 11v143l-23 91l-45 68l-51 57l-114 57l-51 -6l-80 -34l-63 -51l-108 -120l-45 -11l-12 11l63 91l131 131l-120 -68l-28 6l34 39l-11 12l-91 -57l-29 -74l-17 57l57 62l68 40zM447 935l-40 -17h46l85 -17l-11 17zM561 855l11 -11
c-1.33301 3.33301 -5 7 -11 11zM680 844c2.66699 -10.667 8.33301 -20.333 17 -29zM600.999 821.001l68 -108l-23 68zM526.999 354.001l-217 -51l-51 -40l29 -17l102 -29l97 -5l136 17l17 114c-34 6 -71.667 9.66699 -113 11zM201.999 240.001l-28 -40l40 -22l113 -23
l-51 28c-28 9.33301 -52.667 28.333 -74 57zM622.999 81.001l-68 -17l40 -17h68z" />
    <glyph glyph-name="b" unicode="b" horiz-adv-x="954" 
d="M163 1842c19.333 -16.667 33.333 -40.667 42 -72l-12 -186l24 -78l24 -715l24 -6l84 18l151 12l108 -24l78 -30l132 -78l150 -210l-12 -54l-36 -66l-60 -48l-348 -174l-241 -78v-48l-30 -5l24 -175l-60 37l-36 173c-10 23.333 -30 39.333 -60 48l-42 60l72 66l-36 282
l-36 6l-12 -12l-65 -12l-55 12l19 54l137 72v54l-18 -6l12 72l-6 679l42 168l18 180zM319 749c-44 0 -68 -22 -72 -66l205 66h-133zM439 611l-174 -30l-12 -42l12 -222c6.66699 -19.333 20.667 -29.333 42 -30l60 36l151 54l180 114l-30 54l-48 54zM854 515l-6 -48l18 -30
l-30 -30l-6 -24l18 6l48 60c-10 23.333 -24 45.333 -42 66zM578 293l-78 -48l54 24c10.667 4.66699 18.667 12.667 24 24z" />
    <glyph glyph-name="c" unicode="c" horiz-adv-x="975" 
d="M596 993l79 -20l138 -85l33 -46l-73 19l-59 -19l59 -99l-13 -13l-33 13l-52 59l52 -131l-33 -27l-52 112l-59 46l-79 20l-92 -20l-66 -46l-53 -59l-72 -145v-98l26 -79l112 -112l72 -39l86 -20l99 -7l85 27l112 111l39 73l33 -33l40 52l-27 -85l-39 -72l20 -20l85 85
l-7 -46l-32 -72l-119 -105l-66 -40l-59 -52l-79 -13l-217 -7l-177 46l-66 46l-98 125l-53 171l26 191l33 79l86 131l59 53l138 85l171 53zM221 283l59 -85.999l119 -39l-99 52c-28 19.333 -54.333 43.666 -79 72.999z" />
    <glyph glyph-name="d" unicode="d" horiz-adv-x="939" 
d="M882 1807l37 -6v-1487l18 -91l-18 -85v-109l-67 -12l-61 49l-48 54v-115l-49 115l-206 -73l-103 -6l-103 13l-79 30l-115 103l-49 67l-24 91v97l24 97l43 73l133 91l85 24l285 36l91 -6l24 486l-12 412h25l30 -376l6 243c0.666992 22 10.667 36 30 42l25 61l6 79l24 -6
l24 24zM336 691l-97 -37l-78 -48l-55 -79l-24 -73l139 152l73 54l67 31h-25zM518 624l-91 -24l-72 -37l-67 -48l-55 -55l-30 -79l-6 -60l73 -85l85 -19l97 19l157 66l55 55l6 218l-42 49h-110zM725 314l-6 -18h12l6 18h-12z" />
    <glyph glyph-name="e" unicode="e" horiz-adv-x="973" 
d="M615 1070h125l74 -44l44 -82l8 -59l-30 -29l-15 96l-51 59l-104 22l-111 -7l-133 -52l222 37l111 -45l44 -73l-15 -97l-59 -59l-273 -214l-163 -74l-37 -81l15 -104l52 -73l74 -8l177 89l133 111l111 125l67 170l44 59l59 -66l22 -96l-22 -96l-81 -163l-119 -125
l-140 -96l-185 -60l-177 -29l-126 29l-59 60l-81 162l-15 104l8 110l44 200l37 81l52 74l59 59l147 96l170 67zM570 900l-74 -30l-51 -44l-119 -170l-44 -111l22 -15l59 30l311 273l7 52l-22 15h-89zM297 752l-74 -96l-52 -111l-22 -148l30 -125l7 140l-15 67l37 51z
M881 464l-36.999 -74c15.333 21.333 27.666 46 36.999 74z" />
    <glyph glyph-name="f" unicode="f" horiz-adv-x="665" 
d="M408 1792l63.001 -0.000976562l63 -17l92 -52l34 -57l-11 -12l-115 69c12.667 -21.333 31.667 -38.333 57 -51l81 -69c17.333 -27.333 28.666 -60 33.999 -98l-52 -5l-28 45l-81 69l-68 17l-46 -5l-109 -35l-58 -86l-23 -120v-241l35 -241l17 -6l224 35l63 -29l-35 -23
l-86 -34l132 23l35 -12l-35 -68l-114 -29l-167 -12l81 -585l-58 -234l-51 -92l-98 -46l-46 -6l-69 23l-80 64l-51 91l-12 74l12 46l29 17l28 -74c3.33301 -37.333 16.666 -71.666 39.999 -102.999l86 -57l52 6l-35 45l-132 115l18 28l80 -51
c26.667 -1.33301 53.334 -11 80.001 -29l12 52v195l-75 521l-132 35l17 69c31.333 7.33301 62 24.333 92 51l-29 379l12 132l29 114l45 98l58 86l92 57zM287.001 157.999l6 -35v29z" />
    <glyph glyph-name="g" unicode="g" horiz-adv-x="999" 
d="M541 993l118.001 -16.001l162 -86l37 -71l87 -247l50 -302l-19 -211l-56 -177l-143 -221l-68 -54l-112 -22l-255 6l-106 27l-75 43l-55 65l-44 81c-6.66699 26.667 -23 50 -49 70l-50 70l-13 75l32 5c1.33301 21.333 11.666 39.333 30.999 54l37 48
c23.333 -15.333 44 -36.666 62 -63.999l43 -75l181 -183l93 -33h87l137 33l81 48l50 65l62 177v216l-56 -11l-230 -140l-94 -33l-99 -5l-125 32l-81 44l-105 140l-31 86l-6 108l18 102l37 76l56 64l143 108l168 81zM640.001 879.999l-155 -27l193 5zM535.001 803.999
l-199 -54l-106 -59l-106 -124l-25 -75l69 -141l43 -37l100 -54l43 -11l75 11l118 48l100 60l118 118l37 92l-62 189l-37 37h-168zM821.001 458.999l-50 -75c24 19.333 40.667 44.333 50 75zM31.001 54.999l25 -75l50 -48l-38 64zM155.001 -128.001
c10.667 -19.333 27.333 -35.333 50 -48zM690 -284.001l-162.001 -65.001l106 27c20.667 8.66699 39.334 21.334 56.001 38.001z" />
    <glyph glyph-name="h" unicode="h" horiz-adv-x="884" 
d="M131 1828c22 -30.667 34.999 -67.334 38.999 -110.001v-97l20 -26l32 -110l-7 -19l33 -595l26 -13l148 78l117 13l90 -52c34.667 -8 54 -31.667 58 -71l39 -104l52 -90l84 -194l13 -259l-26 -116l-71 -71c-11.333 0 -17.666 6.33301 -18.999 19l19 52l19 110l-6 194
l-45 -162v-78l-33 -19c-34 8.66699 -53.333 32.334 -58 71.001l7 136l-46 291l-38 6l-110 -13l-117 -51l-77 -65l-20 -116v-104l-45 -110l-26 -103l20 -220l-33 13l-39 110l-38 446l-13 -13l19 -297l-13 -78l-26 19l-32 110l-13 1488l19 148l26 26l52 -26zM447.999 761
l-39 -52c16 14 29 31.333 39 52zM311.999 735l-58 -32l13 -52l58 71c-0.666992 6 -5 10.333 -13 13zM551.999 735l-59 -45h104c-9.33301 19.333 -24.333 34.333 -45 45zM79.999 444l6 -32v26z" />
    <glyph glyph-name="i" unicode="i" horiz-adv-x="251" 
d="M179 1212l66 -49l6 -49l-42 -69l30 -10l6 -19l-12 -10l-42 -5l-12 10l-97 19l-12 74l36 69zM173 1163l-36 -35l42 5l24 -9v24c-8 6.66699 -18 11.667 -30 15zM118 814l91 -24l-6 -732l-48 -49l-43 9l-6 -58l-42 -30l-36 45l-18 269l36 516l12 25l30 -15z" />
    <glyph glyph-name="j" unicode="j" horiz-adv-x="324" 
d="M106 1198l49 -24l44 -10l39 -24l29 -39l5 -44l-24 -39l10 -15l-15 -49l-34 -34l-49 -14l-39 14l-24 64l9 39l-34 29l-9 58l14 49zM121 1164l-10.001 -19.999l20 10c-1.33301 3.33301 -4.66602 6.66602 -9.99902 9.99902zM125.999 1105l-10 -18.999
c6 5.33301 9.33301 11.666 10 18.999zM218.999 1071l-39 -39c22 4 35 17 39 39zM144.999 959.002l10 -10l54 15l10 29l-74 5v-39zM183.999 813.002l25 -19l19 9l30 -39l14 -53l5 -692l-24 -170l-73 -137l-156 -117l-54 -15l-63 5l-49 25l-29 39l10 9l-64 113l35 -15l82 -59
l44 -19l73 68l49 88l48 584l-53 346l10 34l39 -63l24 -112v161l19 14l10 -24zM188.999 745.002l-5 -64l15 -48v63zM203.999 -14.998l5 -73v54zM96.999 -194.998l-64 -122c18.667 10 35 26.333 49 49l49 156l10 82z" />
    <glyph glyph-name="k" unicode="k" horiz-adv-x="954" 
d="M222 1667l34.999 -869l126 155l75 46l52 17l35 -17l92 -17l34 -133l-46 -28l-69 -179l-52 -69l150 -29l161 -86l121 -121l69 -155l-12 -12l-63 29l-11 -17l40 -81l-12 -63l18 -75l-46 -11l-12 11l-69 173l-109 132l-150 92l-173 69l-86 -23l-23 12l-11 -6l34 -495
l-23 -52l-17 35l-6 103l-35 -17l-34 23c-11.333 20.667 -28.666 32 -51.999 34c-18 26 -29.333 57 -34 93l-23 650l11 628l17 103l35 69v52l34 -34zM60.999 1661l12 -80l-12 -1048l29 -311l-52 75l-23 662l29 622zM538.999 924l-64 -34l47 -41l11 -23l-46 -103l23 23l29 57
l29 110zM463.999 826l-138 -132l-46 -86l-12 -46l12 -46l63 74l138 231zM285.999 729c-9.33301 -14 -15.333 -29.333 -18 -46zM526.999 504l87 -52l97 -34l-69 69c-32.667 9.33301 -71 15 -115 17zM808.999 406l41 -69l51 -46l-40 69z" />
    <glyph glyph-name="l" unicode="l" horiz-adv-x="319" 
d="M191 1798l45 -11l18 -1216l91 -491l-36 -80l-36 17l-46 103l-54 -63l-91 217l-72 1261l18 126l109 34c22 30 40 64.333 54 103z" />
    <glyph glyph-name="m" unicode="m" horiz-adv-x="1130" 
d="M147 993l32 -42.999l11 -55l-6 -65l11 -114l98 103l81 60l49 11l49 -27l38 -38l21 -44l66 -206l27 44l108 97l271 109l54 -49l27 -38l33 -108v-244l-16 -109c-0.666992 -34.667 -15.334 -67.334 -44.001 -98.001l-32 -27l-11 -54
c-21.333 -12.667 -46.666 -20 -75.999 -22l-11 38l27 440l-21 119l-17 11l-75 -27l-87 -54l-92 -109l-65 -141l-28 -249l-27 -108l-38 -22l-32 48l-33 16l-5 66l27 108l5 244l-21 179l-22 43l-43 28l-49 -17l-76 -59l-33 -38l-21 -44l27 -472l-11 -10l-33 27l-16 -38l-38 16
l-21 -43l5 -92l-11 -6l-32 55l-17 48l-27 168l-16 439l16 250l22 49l11 -27v27l27 16l22 -130l5 65c1.33301 34 12.333 68.333 33 103zM363 809.001l-59.001 -76l114 32c-15.333 16 -33.666 30.667 -54.999 44zM921.999 744.001l76 -17c-24 8 -49.333 13.667 -76 17z
M986.999 668.001l16 -60c0 18.667 -5.33301 38.667 -16 60z" />
    <glyph glyph-name="n" unicode="n" horiz-adv-x="974" 
d="M95 1188l42 -42l50 14l7 -319l269 106h106l85 -28l14 21l177 -85l64 -71l50 -77l28 -319l-28 -134l-114 -283l-77 -21l-15 21l15 84l14 312l-22 148l-21 64l14 -269l-21 -226l-49 -205l-29 -29l-14 71l50 446l-22 219l-28 106l-64 64l-85 28l-92 -35l-70 -64l-107 -148
l-28 -99l21 -361c-11.333 -26.667 -32.333 -45.667 -63 -57c0 30 -16.667 51.333 -50 64l-42 92l-22 113l-28 439l14 333l36 -8l14 29zM307 749l-85.001 -71l-28 -85c62.667 79.333 100.334 131.333 113.001 156zM894.999 530l-7 -121l14 -21v85z" />
    <glyph glyph-name="o" unicode="o" horiz-adv-x="924" 
d="M386 998h85l178 -31h-37l104 -49l67 -55l49 -73l62 -184l24 -196l-43 -110l-98 -141l-61 -61l-73 -55l-92 -31l-110 -12l-111 12l-97 25l-74 49l-61 61l-80 165l-18 227l43 190l98 147l73 55l80 43zM569 876l123 -80l-49 49c-21.333 12 -46 22.333 -74 31zM392 839
l-122.999 -31l-61 -98l-31 -122l-6 -129l31 -110l61 -92l129 -18l140 12l117 37l79 73l43 110l-18 129l-49 104l-74 74l-104 49c-40.667 7.33301 -85.334 11.333 -134.001 12zM67.001 318l31 -73l43 -55l-37 67zM783.001 312l-61 -55l-67 -43l-135 -61h49l129 43l61 49
c10 20 18 42.333 24 67zM153.001 184l24 -49l37 -37l129 -31l-153 80zM636.001 110l-73 -24l-214 -25h190l67 25c13.333 5.33301 23.333 13.333 30 24z" />
    <glyph glyph-name="p" unicode="p" horiz-adv-x="849" 
d="M117 1077l50 -49l12 -117l185 61h86l80 -12l259 -123l31 -62v-86l25 -130l-25 -92l-68 -124l-154 -129l-142 -49l-80 -13h-154l31 -437l-43 -43l-13 31l-43 332v-123l43 -327l-55 44l-25 67l-61 580v80l-56 185l49 -50l-6 401l13 86l37 62l18 -49zM500 886l74 -74l30 -49
l50 -118v-129l37 43l55 111l-6 56l-31 49l-43 37l-105 62zM315 874l-87.001 -50c-23.333 -20 -37.666 -48.667 -42.999 -86l25 -438l18 -18l50 -13l55 13l86 37l81 55l61 68l37 92l13 93l-44 111l-55 74l-74 55z" />
    <glyph glyph-name="q" unicode="q" horiz-adv-x="778" 
d="M212 1008l101 -8l86 -21l72 -34l92 -59l14 42l5 51l24 4l24 -26v-122l10 89l48 46l29 -17l4 -38l-9 -236l14 -84l-14 -38l9 -438l-14 -67l10 -71l72 130l48 46l-116 -269l39 42l82 118l14 -13l-24 -46l14 -50l-163 -337l-19 -22l-44 26l15 71l-24 -16l-10 12l29 72
l-77 623l5 76l-10 12l-86 -21h-87l-115 17l-77 29l-63 43l-48 54l-33 64l-24 75l-10 89l63 135l57 46zM308 970l72 -25l63 -38l115 -93v51l-87 59l-77 29c-25.333 8 -54 13.667 -86 17zM231 936l-47.999 -50l-15 -80v-55l29 -97l44 -55l62 -38l91 -12l159 4v194l-62 50
c-148.667 84.667 -235.334 131 -260.001 139zM164.001 928l-39.001 -51.001l-19 -63l5 -59l24 -63c18.667 138.667 28.334 217.334 29.001 236.001zM63 733.999v-42l24 -55l-10 47zM274 514.999l77 -29l48 -5l53 9zM822 -24.001l-4 -16l9 4z" />
    <glyph glyph-name="r" unicode="r" horiz-adv-x="570" 
d="M134 1198l61.999 -186.999v-250l125 130l119 51l57 -28l97 -74l40 -51l11 -62l-11 -29l-29 17l-51 -17l6 34l-108 6l-68 -17l-57 -28l-97 -74l-34 -51l17 -432l-23 -130l-28 5l-23 40l-39 -6l-12 34l-28 216l-6 -210l34 -192l-11 -18l-40 40l-11 74l-6 408l11 74l40 608
c14.667 -18 22.334 -40.667 23.001 -68c16 1.33301 25.333 10.666 28 27.999zM110.999 738.001l6 -119l5 74c0 15.333 -3.66699 30.333 -11 45zM116.999 505.001l-6 -17l11 -193l6 108z" />
    <glyph glyph-name="s" unicode="s" horiz-adv-x="719" 
d="M354 998h61l65 -44l48 -52l9 -52h-22l-43 -44c-3.33301 22 -12 39.333 -26 52h-57l-74 -23l-52 -44l-40 -59l323 -89l104 -74l48 -52l22 -96l-13 -103l-26 -81l-39 -67l-88 -103l-117 -60l-61 -7l-131 37l-161 103l-44 60l-26 88l-4 82l9 29l17 -96l22 -29l-31 155l22 7
l66 -140l87 -111l48 -37l74 7l61 22l48 45l78 125l-13 82l-57 29l-69 8l-57 -22h-61l-65 37l-88 110l-17 60l26 125l35 67l96 96zM193 688c6 -12.667 13.333 -20.333 22 -23zM541 481.001l9 -23l4 23h-13zM655 458.001l-26 -184l30 88l9 89zM594 421.001l-18 -88
c8.66699 26.667 14.667 56 18 88z" />
    <glyph glyph-name="t" unicode="t" horiz-adv-x="600" 
d="M191 1798l55 -66.999l36 31l31 -85v30l30 12l12 -6l31 -146l18 -261l18 -18l310 -6l18 -19l-55 -36h-60l-19 -18c24.667 -16 55 -24.333 91 -25l37 -6l-43 -36l-97 -18l-194 -12l-12 -13l-18 -984c-12 -21.333 -32.333 -35.333 -61 -42l-30 -73
c-26.667 4 -41 22.333 -43 55l12 164l-24 -12l-18 42l24 322l-12 462l-18 66v-200l-49 -298l-6 98l24 413l-188 24c-21.333 -16 -49.666 -24 -84.999 -24l36 54c9.33301 19.333 23.666 31.666 42.999 36.999l146 73h79l6 18l-31 455z" />
    <glyph glyph-name="u" unicode="u" horiz-adv-x="899" 
d="M170 998l-20 -53.001l-40 -60l-27 -73l-13 -87l100 187l46 13l7 -20l-33 -53l26 -74l-26 -79l-27 -173v-187l27 -73l53 -53l86 13l100 100l73 126l47 160l13 193l20 13l40 -13l46 -60l14 -86l46 -153l40 -67l53 -46l80 -20l20 -60l73 -7l27 -73l-53 -53l-67 -20l-73 26
l-133 73l-46 40l-34 -66l-46 -60l-107 -93l-139 -67l-87 -13l-73 27l-60 46l-73 127l-13 93l-7 359l13 87l27 79l66 133c18.667 12.667 36.667 28.334 54 47.001zM954 292.999l-13 -40c8.66699 10.667 13 24 13 40zM429 239.999l-66 -74.001
c26.667 16.667 48.667 41.334 66 74.001zM216 159.998c18 -9.33301 38 -16 60 -20z" />
    <glyph glyph-name="v" unicode="v" horiz-adv-x="695" 
d="M650 998l27 -67l14 -73v-85l-197 -676l-81 -103l-61 30l-41 37l27 -116h-27l-271 864l-14 110l27 -31l48 -103l-21 170l7 19l41 -19l74 -85l184 -596l156 614l27 13l47 -80l14 25c6 76 12.667 126.667 20 152z" />
    <glyph glyph-name="w" unicode="w" horiz-adv-x="1000" 
d="M13 998l51.999 -78l19 -92v46l46 6l170 -627l33 -46l78 477l33 98l-20 105l66 20c26.667 -11.333 46.334 -31 59.001 -59l26 -144l32 52c20.667 -25.333 31.667 -58 33 -98l-7 -52l14 -52l124 -203l39 150l7 118l39 216l19 26l26 -46c4.66699 29.333 20 53.333 46 72
l7 -98l-13 -72l39 -20l13 -98l-92 -424l-32 -99l-85 -169l-66 72l7 32l26 39l-59 66l-39 91l-104 144l-33 -98l-85 -177l-20 -104l-32 -72l-13 85l-66 -32l-65 123l-190 582l-39 320zM83.999 808l7 -32v26zM920.999 652l7 -20l13 78zM953.999 684l6 -39v33zM456.999 612v-78
l13 78h-13zM293.999 116l39 -105l19 20l14 45l-14 14z" />
    <glyph glyph-name="x" unicode="x" horiz-adv-x="769" 
d="M778 997l27.001 -11l-80 -138l27 -43l-22 -48l-283 -299l102 -187l48 -53l21 -64l-75 43l16 -48v-59l-26 5l-48 48l-123 171l-43 37l-245 -240l-43 -21l-16 21l16 70l53 90l-21 -26l-37 -16l48 85l165 213l-139 251l-26 70l58 32l11 53c19.333 1.33301 30 12 32 32
l54 -27l21 -69l91 -208c5.33301 -19.333 17.666 -30 36.999 -32l181 208l32 21l-10 -37l-59 -91l203 224zM261.001 479l-97 -101l-74 -107c106 120 163 189.333 171 208z" />
    <glyph glyph-name="y" unicode="y" horiz-adv-x="694" 
d="M718 1102l15 -5.00098l-15 -77l-36 -72l-289 -912l-46 -380l-31 -78l-62 31l-20 88l5 98l67 416l-36 -128l-42 -268l-15 -5l-16 10l21 273l52 216l-31 26l-268 386l-25 82l-6 88l31 98l52 56l35 21l36 -21l52 -56l26 -83l15 -92l139 -299l155 371l56 103l36 -16l62 16
c22 4.66699 37.667 18.334 47 41.001c14.667 20.667 26.667 44.667 36 72zM64 1030l10 -57l26 -15l10 15c-18 28.667 -33.333 47.667 -46 57zM38 1025l-36 -52l-25 -56l-6 -83l16 -67l133 -200l26 -21l-62 190zM264 504.999l36 -93l11 26l-21 20zM275 -221.001v-77
c0 -30 8.33301 -59 25 -87l6 175z" />
    <glyph glyph-name="z" unicode="z" horiz-adv-x="1185" 
d="M875 998l111 -30l200 -88l22 -60l-111 -103l-541 -319l-59 -51l341 29l207 -15l170 -66l-15 -45l30 -111l-74 -7l-44 59l-104 37l-126 22l-267 -14l-340 -89l-104 -45l-118 -7l-15 15l7 37l30 44l385 341l-67 -30l-377 -340l-30 -8l37 67l296 281l400 237l-429 81
l-111 -14l-112 37l274 140zM393 835l385 -66l74 59l-133 7h-326zM1075 843l22 -30c-2.66699 11.333 -10 21.333 -22 30z" />
    <glyph glyph-name="braceleft" unicode="{" horiz-adv-x="639" 
d="M560 1842l52 -14l-108 -52l52 -42v-23l-71 23h-60l-38 -23l-94 -94l-42 -79l-4 -42l135 -380l14 -103l19 -37l10 -56l-24 -42l-89 -94l56 -47l19 -46l-19 -169l28 -150l75 -112l178 -131l-18 -24l93 -32l33 -24l-89 14l52 -56h-15l-60 28l-103 80l-19 4l122 -103l70 -32
l-10 -19l-93 29l-42 22l-66 61l-150 99l-56 70l-42 79l-23 103l23 164l33 89l-38 24l-33 -19l-42 14l-84 -9l-47 14l-9 -10l-61 66l47 9l33 -5l9 14l243 160l-46 107l-80 108l-61 126l-14 113l9 51l75 112l14 52l43 80l107 79l85 42l23 -4zM176 1453l-23 -79l19 -84l75 -131
l-57 206zM251 1397l42 -121l-18 65zM298 382l9 -33c-0.666992 10.667 -3.66699 21.667 -9 33zM317 335l-5 -14l10 -10z" />
    <glyph glyph-name="bar" unicode="|" horiz-adv-x="532" 
 />
    <glyph glyph-name="braceright" unicode="}" horiz-adv-x="710" 
d="M14 1848l64 -5l162 -34l138 -59l79 -54l24 -45l15 -49v-64l-93 -437v-118l34 -30l118 -14l49 -20l30 -34l34 -20l49 -15l15 -39l-84 -44l-206 -54l-10 -49l5 -59l49 -148l10 -123l-15 -118l-44 -88l-34 -30l-84 -49l-148 -49h-211l15 20l118 14l-163 25l-34 34l10 15
l29 -10l64 -5l118 15l133 59l39 30l30 34l10 54l-5 261l-20 44l-20 93l15 69l25 44l20 89l-15 44l-40 24l-29 123l15 99l78 250l5 59l-24 108l-54 74l-55 10h-68l-25 -30l-25 10l-54 -14l-39 29l39 30l143 49h59l98 -35l69 -64l25 -39l5 20l-30 39l-34 30l-128 68l-266 54
c4 8 10.667 16.333 20 25zM412 1563l-5 -20l10 -108l5 69zM358 890l5 -49.999l20 10c-4.66699 15.333 -13 28.666 -25 39.999zM437 826.001l-25 -20l45 20h-20zM368 590.001l15 -74c-1.33301 23.333 -6.33301 48 -15 74zM412 182.001l-5 -15l10 5z" />
    <glyph glyph-name="asciitilde" unicode="~" horiz-adv-x="900" 
d="M853 1545c20.667 -16.667 35 -40 43 -70l-27 -91l-64 -60l-103 -21l-113 11l-97 26l-75 11l-16 -5l204 -43l200 -11l32 -11c-25.333 -18 -56 -28.667 -92 -32l-209 5l-200 70l-91 11l-145 -32l37 27l-21 5l-92 -48l-10 -16l-38 10l16 38c22 19.333 34.667 44.333 38 75
l75 49l194 54h54l252 -65h113l92 32z" />
    <glyph glyph-name="exclamdown" unicode="&#xa1;" horiz-adv-x="315" 
d="M177 1562c32 -7.33301 59.667 -23.999 83 -49.999l-27 -88l-39 -78c-26 -18.667 -57.333 -29.667 -94 -33c-30 9.33301 -52 29.666 -66 60.999l-28 39l22 44zM155 1114l56 -61v-110c1.33301 24 10.333 48 27 72l33 -61l-11 -89l39 -995h-22c-26 8 -48 24.667 -66 50
l-23 88l-11 -121l-38 6l-39 187l-28 570l11 337l50 39l6 77z" />
    <glyph glyph-name="cent" unicode="&#xa2;" 
 />
    <glyph glyph-name="sterling" unicode="&#xa3;" horiz-adv-x="1250" 
d="M609 1722l252.001 -40l99 -53l33 -53l-46 -26l-86 39l-133 14l-239 -27l-6 -139l40 -113c10.667 -30.667 32.667 -55 66 -73c4 -33.333 17.333 -64 40 -92l132 19h106l47 -46l-27 -66l-132 -20c-37.333 -4 -68.333 -21.667 -93 -53l-13 -60l13 -66l-20 -133l-60 -92
l-132 -107l13 -6l583 46l140 -13l93 -40l92 -6l7 -40l-345 -40l179 -20c35.333 -6 59.666 -25.667 72.999 -59l-113 -27h-974l-139 27l-73 -20l-13 33l52 40l-119 6l47 40l106 33l212 93l119 179l40 113l20 119l-140 -20l-126 26c11.333 28 31.333 50.333 60 67l179 53
l-66 152l-27 126l7 146l66 80l93 66zM423.001 1543l-13 -40l20 -13z" />
    <glyph glyph-name="yen" unicode="&#xa5;" 
 />
    <glyph glyph-name="brokenbar" unicode="&#xa6;" horiz-adv-x="532" 
 />
    <glyph glyph-name="section" unicode="&#xa7;" 
 />
    <glyph glyph-name="dieresis" unicode="&#xa8;" horiz-adv-x="814" 
d="M608 1531l84.999 -50.999l34 6l73 -34l-23 -85l-67 -67l-96 -40c-28 18 -48.667 44.333 -62 79l-12 68l12 45c12.667 25.333 31.334 51.666 56.001 78.999zM111.999 1503l79 -17l33 -62l-22 -74l-40 -50l74 16l45 46l17 67l17 -67l-45 -51l-57 -34l-90 -6l-57 23l-56 124
l40 51zM613.999 1497l-34 -56l-6 -40l79 57c-8 16.667 -21 29.667 -39 39z" />
    <glyph glyph-name="copyright" unicode="&#xa9;" horiz-adv-x="2383" 
d="M1468 1592l340 -39.001l157 -45l118 -78l5 -35l-15 -10l-14 30l-54 44l-69 30l-163 39l-437 15l-330 -69l-147 -54l-256 -143l-162 -132l-89 -114l-39 -103l34 -19c15.333 -18.667 25.333 -41.667 30 -69l-35 -69l-24 -20l44 -103l84 -118l78 -74l-10 35l-49 98l30 5
l44 -44v24l39 59l15 10l49 -30l59 -98l10 30c11.333 18.667 29.333 28.334 54 29.001l35 -64l24 -78l5 -94l-10 -24l-24 39l-45 157l-9 -64v-83c6.66699 -22.667 21.334 -39 44.001 -49l79 -25l147 -25l5 15l-20 79l-78 221l-40 59v30l40 -25l73 -128l50 -152l54 137l34 168
l-34 54h44l5 39l24 74l10 -54l-5 -64l118 10l50 49l9 69l-44 73l-54 -44l-69 -10l-15 5c-20.667 12.667 -32 32.334 -34 59.001l34 64l64 35c24 -2.66699 43.667 -14.334 59 -35.001l50 -54l34 -64l10 -88l-35 -64l-63 -35l-84 -19l-35 4l-39 -216l-79 -197h143l669 133
l-20 20l-34 10l-15 -40c-17.333 16.667 -28.666 38 -33.999 64l-10 94c10 21.333 28 36 54 44l69 -34l-30 -59l-29 -25l29 -15l54 -44l20 5l-20 54v64l-24 49l29 5l10 -10l39 54l30 10l15 -29l44 44l64 24c21.333 -14 34.333 -35.333 39 -64l-44 -54l-64 -39l39 -44l64 34
l118 84l84 113l20 83l-10 84l-30 69l-39 64l-89 103l-108 94l-123 73l-147 54l-172 25l-217 -10l118 39h99l167 -19l152 -49l177 -118l153 -153l73 -123l25 -74l5 -98l-25 -74l-44 -54l-103 -93l-30 -59l-59 -44l-68 -5l-15 10l-531 -168l-458 -39l-88 10l-217 49l-9 -20
c-22.667 1.33301 -39.334 13 -50.001 35l-93 54l20 -54l-10 -49h-15c-19.333 13.333 -34 33 -44 59l-10 88l-79 59l-34 -24l29 -69l10 39l40 -15l9 -14l-14 -30l-25 10l5 -39l25 -40l-10 -29l-49 44l-30 69c-8.66699 19.333 -23.334 29 -44.001 29l-59 -44l-15 -84l-15 -34
l-29 25l-15 270l10 93c6 21.333 19 38 39 50l30 -15l-15 44c-6 22 -19 41.667 -39 59l-59 20l-45 -54l-69 -10l-78 39l-15 69l34 84l55 49l39 10l24 -25l35 -69l-5 -19l-64 68l-34 -9l-35 -59l-5 -55l15 -29l64 -10l88 30v68l50 74l24 74l128 167l162 138l325 172l310 88z
M1601 1253l35.001 -54.001l5 -74c0.666992 -20.667 12 -33.667 34 -39l59 19h39l-14 -34l-54 -30c-18.667 -3.33301 -30.334 -14.666 -35.001 -33.999l20 -64l-99 -49l-44 39l-29 49l-59 -14l-45 -40l-34 -15l-30 261l35 -25l24 -59v-113l79 45l64 -15l44 -74l40 10l-15 44
l-35 44l-29 5l25 30l19 5l-15 113zM1006 1140l59 -35c-1.33301 -21.333 -11 -39.333 -29 -54l-25 -10l-29 30c6 22 14 45 24 69zM928.001 1012c22.667 -4.66699 40.667 -18 54 -40l5 -44l-25 -44l34 -5l64 20l15 34l-39 54l29 5l44 -44l15 -74l-10 -20l-39 10l-74 -15
l-64 10l-19 -34c-22.667 0 -40.667 9.66699 -54 29v79l-10 39h29zM1237 991.998l-54 -44l-10 -39l45 -5l54 39c-1.33301 22.667 -13 39 -35 49zM932.001 981.998l-34 -44l25 -39l29 44c-2 13.333 -8.66699 26.333 -20 39zM623.001 967.998l19 -5l5 -89l20 -39l39 19l35 84
c30 -6.66699 54.333 -23 73 -49l45 -79l10 -88l-5 -20c-6 -28.667 -21 -55 -45 -79l-29 -19h-59l44 34c21.333 13.333 41 33 59 59l5 49l-10 54l-44 79l-25 20l-24 -50l-69 -54l-49 64v89zM500.001 952.998l49 -20l34 -34l15 -54l-15 -50l-44 -29l-49 -15l15 -108l-10 -15
l-35 10l-24 44l-15 49l-10 104l15 69l29 29zM490.001 917.998l-30 -34l15 -39l5 -55l49 10c18 20 28 44.667 30 74c-18 22 -41 36.667 -69 44zM303.001 878.998l4.99902 -89l20 15l9 49c-9.33301 10.667 -20.666 19 -33.999 25zM249 804.998l20 -19l-5 83zM1493 760.998
l25 -59.001l147 -10l64 -15c-10 -14.667 -26.333 -26 -49 -34l-148 10l20 -138l74 54l49 -29l39 -45l-9 -68l-45 -35l-49 -10l-44 25v-30c-4.66699 -19.333 -18 -30.666 -40 -33.999l-14 64l-20 221c-10.667 16 -27 24.333 -49 25l-74 -5l-113 -49l-29 5l-5 24l118 59
l142 15c0.666992 19.333 4 39 10 59zM2088 642.997l-39 -34l-15 -30l15 -10l39 35l15 29zM293 608.997v-50l25 5c-6.66699 15.333 -15 30.333 -25 45zM593 593.997l-15 -79l5 -79l40 -54l64 -29l4 15l-29 113l-30 64c-10 16.667 -23 33 -39 49zM377 563.997l24 -69
c4.66699 -20.667 19.667 -32 45 -34l-25 49zM1252 568.997l49 -34l15 -69l-15 -74l-34 -44l-59 -25h-44l-25 15l-5 54l10 15l54 5l59 -20l15 15l5 74l-25 54l-44 -40l-20 -63l-15 49l35 54zM323 553.997l-10 -162l69 35c-23.333 58.667 -43 101 -59 127zM1783 544.997l5 -50
l20 15l15 35h-40zM1631 534.997l-39.999 -58.998c4 -24.667 19 -39.334 45 -44.001c20 10.667 33 28.667 39 54c-12.667 17.333 -27.334 33.666 -44.001 48.999zM1980 534.999l-10 -49h25c-2 16.667 -7 33 -15 49zM1395 529.999c29.333 -5.33301 53.667 -21.668 73 -49.001
l10 -108l-24 -20l-20 59l-10 74l-19 -10l-35 -133l-34 30l-5 39l15 59c6.66699 26.667 23 46.334 49 59.001zM2009 460.997l-44 -15l-15 -24l74 29zM864.002 445.997l39 -29l-20 -44l-34 24zM1168 386.997l-4 -24h54c-15.333 10.667 -32 18.667 -50 24z" />
    <glyph glyph-name="ordfeminine" unicode="&#xaa;" horiz-adv-x="758" 
 />
    <glyph glyph-name="guillemotleft" unicode="&#xab;" 
 />
    <glyph glyph-name="logicalnot" unicode="&#xac;" horiz-adv-x="1196" 
 />
    <glyph glyph-name="registered" unicode="&#xae;" horiz-adv-x="1509" 
 />
    <glyph glyph-name="overscore" unicode="&#xaf;" horiz-adv-x="1131" 
 />
    <glyph glyph-name="degree" unicode="&#xb0;" horiz-adv-x="819" 
 />
    <glyph glyph-name="plusminus" unicode="&#xb1;" horiz-adv-x="1124" 
 />
    <glyph glyph-name="twosuperior" unicode="&#xb2;" horiz-adv-x="682" 
 />
    <glyph glyph-name="threesuperior" unicode="&#xb3;" horiz-adv-x="682" 
 />
    <glyph glyph-name="acute" unicode="&#xb4;" horiz-adv-x="799" 
d="M679 1838l24 -6l6 -50l-12 -43l99 43l-31 -55l25 -62l-19 -62l-445 -364l-129 -68l-161 -31l-25 6l-6 37l56 68l556 445l43 62zM413 1443l-215.999 -179.001l185 135c13.333 12.667 23.666 27.334 30.999 44.001z" />
    <glyph glyph-name="mu1" unicode="&#xb5;" horiz-adv-x="1180" 
 />
    <glyph glyph-name="paragraph" unicode="&#xb6;" horiz-adv-x="1100" 
 />
    <glyph glyph-name="periodcentered" unicode="&#xb7;" horiz-adv-x="569" 
 />
    <glyph glyph-name="periodcentered" unicode="&#x2219;" horiz-adv-x="569" 
 />
    <glyph glyph-name="cedilla" unicode="&#xb8;" horiz-adv-x="682" 
 />
    <glyph glyph-name="onesuperior" unicode="&#xb9;" horiz-adv-x="682" 
 />
    <glyph glyph-name="ordmasculine" unicode="&#xba;" horiz-adv-x="748" 
 />
    <glyph glyph-name="guillemotright" unicode="&#xbb;" 
 />
    <glyph glyph-name="onequarter" unicode="&#xbc;" horiz-adv-x="1708" 
 />
    <glyph glyph-name="onehalf" unicode="&#xbd;" horiz-adv-x="1708" 
 />
    <glyph glyph-name="threequarters" unicode="&#xbe;" horiz-adv-x="1708" 
 />
    <glyph glyph-name="questiondown" unicode="&#xbf;" horiz-adv-x="985" 
d="M413 1388c24 -19.333 36.667 -45 38 -77c-16.667 -21.333 -27.667 -47 -33 -77l6 -49l-55 38l-55 -33h-83l-11 22l44 83zM522 1064l39 -11l-22 -50l-154 -66l-27 -82v-71l313 22l104 -28l77 -33l61 -55l38 -71l28 -88l5 -105l-16 -93l-33 -77l-50 -60l-181 -154l-143 -82
l-77 -33l-93 -17h-83l-247 104l-50 94l11 60l44 105l44 -11l33 -77l44 -66l61 -50l82 -5l105 33l131 82l110 116l6 208l-22 83l-160 60l-296 17l-77 33l-94 22l-27 71l88 137l27 -5l-55 -121l-5 -33l66 6l16 71l61 55l99 121l71 27l72 -16c24.667 7.33301 50 18.333 76 33z
M242 822l-11.001 -44c6.66699 13.333 10.334 28 11.001 44zM565.999 690l105 -49l-44 33zM736.999 685l55.001 -72l38 -93v-72l-22 -44l-16 -65l44 93l22 110l-50 88c-18.667 20 -42.334 38.333 -71.001 55zM913 448l-33 -93l-143 -176v-33l77 61l55 71l38 83l17 76
c-1.33301 4 -5 7.66699 -11 11zM775 328l-5 -17l11 6zM665 130l-71.001 -55l-242 -104l105 16l164 82c24.667 12.667 39.334 33 44.001 61z" />
    <glyph glyph-name="Agrave" unicode="&#xc0;" horiz-adv-x="1366" 
 />
    <glyph glyph-name="Aacute" unicode="&#xc1;" horiz-adv-x="1366" 
 />
    <glyph glyph-name="Acircumflex" unicode="&#xc2;" horiz-adv-x="1366" 
 />
    <glyph glyph-name="Atilde" unicode="&#xc3;" horiz-adv-x="1366" 
 />
    <glyph glyph-name="Adieresis" unicode="&#xc4;" horiz-adv-x="1366" 
 />
    <glyph glyph-name="Aring" unicode="&#xc5;" horiz-adv-x="1366" 
 />
    <glyph glyph-name="AE" unicode="&#xc6;" horiz-adv-x="2048" 
 />
    <glyph glyph-name="Ccedilla" unicode="&#xc7;" horiz-adv-x="1479" 
 />
    <glyph glyph-name="Egrave" unicode="&#xc8;" horiz-adv-x="1366" 
 />
    <glyph glyph-name="Eacute" unicode="&#xc9;" horiz-adv-x="1366" 
 />
    <glyph glyph-name="Ecircumflex" unicode="&#xca;" horiz-adv-x="1366" 
 />
    <glyph glyph-name="Edieresis" unicode="&#xcb;" horiz-adv-x="1366" 
 />
    <glyph glyph-name="Igrave" unicode="&#xcc;" horiz-adv-x="569" 
 />
    <glyph glyph-name="Iacute" unicode="&#xcd;" horiz-adv-x="569" 
 />
    <glyph glyph-name="Icircumflex" unicode="&#xce;" horiz-adv-x="569" 
 />
    <glyph glyph-name="Idieresis" unicode="&#xcf;" horiz-adv-x="569" 
 />
    <glyph glyph-name="Eth" unicode="&#xd0;" horiz-adv-x="1479" 
 />
    <glyph glyph-name="Ntilde" unicode="&#xd1;" horiz-adv-x="1479" 
 />
    <glyph glyph-name="Ograve" unicode="&#xd2;" horiz-adv-x="1593" 
 />
    <glyph glyph-name="Oacute" unicode="&#xd3;" horiz-adv-x="1593" 
 />
    <glyph glyph-name="Ocircumflex" unicode="&#xd4;" horiz-adv-x="1593" 
 />
    <glyph glyph-name="Otilde" unicode="&#xd5;" horiz-adv-x="1593" 
 />
    <glyph glyph-name="Odieresis" unicode="&#xd6;" horiz-adv-x="1593" 
 />
    <glyph glyph-name="multiply" unicode="&#xd7;" horiz-adv-x="1196" 
 />
    <glyph glyph-name="Oslash" unicode="&#xd8;" horiz-adv-x="1593" 
 />
    <glyph glyph-name="Ugrave" unicode="&#xd9;" horiz-adv-x="1479" 
 />
    <glyph glyph-name="Uacute" unicode="&#xda;" horiz-adv-x="1479" 
 />
    <glyph glyph-name="Ucircumflex" unicode="&#xdb;" horiz-adv-x="1479" 
 />
    <glyph glyph-name="Udieresis" unicode="&#xdc;" horiz-adv-x="1479" 
 />
    <glyph glyph-name="Yacute" unicode="&#xdd;" horiz-adv-x="1366" 
 />
    <glyph glyph-name="Thorn" unicode="&#xde;" horiz-adv-x="1366" 
 />
    <glyph glyph-name="germandbls" unicode="&#xdf;" horiz-adv-x="1251" 
 />
    <glyph glyph-name="agrave" unicode="&#xe0;" 
 />
    <glyph glyph-name="aacute" unicode="&#xe1;" 
 />
    <glyph glyph-name="acircumflex" unicode="&#xe2;" 
 />
    <glyph glyph-name="atilde" unicode="&#xe3;" 
 />
    <glyph glyph-name="adieresis" unicode="&#xe4;" 
 />
    <glyph glyph-name="aring" unicode="&#xe5;" 
 />
    <glyph glyph-name="ae" unicode="&#xe6;" horiz-adv-x="1821" 
 />
    <glyph glyph-name="ccedilla" unicode="&#xe7;" horiz-adv-x="1074" 
d="M557 992h94l43 -14l51 -65l-22 -8l-36 36h-72l-130 -21l-58 -36l173 7l80 -44l50 -50l-14 -36l-94 43l-137 7l-116 -36l-173 -123l-65 -86l-15 -58l87 -130l108 -44l138 8l115 21l398 195l86 22l22 -65l-22 -72l-57 -94l-152 -130l-109 -36
c-34 -4.66699 -62.667 -24 -86 -58l-15 -80l166 -36l87 -64l51 -123l-44 -65l-166 -138l-115 -29h-138c-32.667 12 -54.334 36.333 -65.001 73l253 36l87 58l58 94l-73 65l-137 14l-116 -7l-108 51l22 115l29 65l-174 29l-94 50l-79 72l-51 102l-7 137l94 210l65 86l130 73
c-25.333 -14.667 -39.666 -39 -42.999 -73l86 65l94 51zM991 522l-109 -58l-87 -72c-20 -32 -48.667 -58.333 -86 -79l-80 -44l166 29l116 44l80 86l28 94h-28z" />
    <glyph glyph-name="egrave" unicode="&#xe8;" horiz-adv-x="1145" 
d="M-189 1491l181 -167l28 42l-14 27l28 21l697 -383l-14 -28l-49 -7l-90 42l34 -42l63 -41l-49 -70l-167 63l-84 -28l-83 35l-63 41l-118 112l-98 132l-167 167c-16 24 -27.667 52 -35 84zM76 1247l132 -181l91 -77l125 -34l-251 229zM473 1094l14 -14.001
c-1.33301 4.66699 -6 9.33398 -14 14.001zM877 905.999l77 -14l70 -28l55 -49l77 -118l-14 -63l-91 -111l-125 -77l-153 -49l-251 -49l-279 -14l21 -76l63 -35l90 -14l272 14l446 146l7 -62l-49 -49l-62 -98l-279 -125l-160 -35h-203l-90 14l-98 -14l-55 14l-91 111l-49 154
l28 174l35 63l104 97l182 119l139 62l300 98zM619 738.999l-195 -77l-118 -70l35 -35l76 56l230 126h-28zM870 731.999l-216 -63l-188 -91l-153 -118l-35 -56l91 42l125 14l432 118l84 56c-0.666992 31.333 -14.667 57 -42 77zM292 529.999l21 6l-14 7zM264 515.999l-21 -42
c11.333 11.333 18.333 25.333 21 42zM146 187.999l55 -77l98 -20l-84 41zM564 97.999l-91 -21h105l167 34z" />
    <glyph glyph-name="eacute" unicode="&#xe9;" horiz-adv-x="1135" 
d="M1156 1492l32 -56l-128 -120l-470 -167l-200 -40l-16 32l16 8l40 80l447 191l112 24l15 -48l64 24zM901 1476l-527 -231l-80 -16l40 48l88 24l223 103l176 40zM382 878h112l-24 -24l-80 -16l-144 -72l-24 -48l216 96l88 16l199 8l88 -24l247 -176l-32 -72l-790 -239
l80 -24l798 -24c18.667 -1.33301 32 -9.33301 40 -24l-56 -48l-135 -71l-168 -40l-32 -40l-80 -32l-183 -24l-88 16l-152 64l-119 88l-136 175l-16 64l56 183l136 176l127 80zM613 646l-151 -40l-256 -119l96 16l423 127zM222 184l96 -64l112 -48l72 -8l223 16l-128 8
l-263 56z" />
    <glyph glyph-name="ecircumflex" unicode="&#xea;" 
 />
    <glyph glyph-name="edieresis" unicode="&#xeb;" 
 />
    <glyph glyph-name="igrave" unicode="&#xec;" horiz-adv-x="569" 
 />
    <glyph glyph-name="iacute" unicode="&#xed;" horiz-adv-x="569" 
 />
    <glyph glyph-name="icircumflex" unicode="&#xee;" horiz-adv-x="569" 
 />
    <glyph glyph-name="idieresis" unicode="&#xef;" horiz-adv-x="569" 
 />
    <glyph glyph-name="eth" unicode="&#xf0;" 
 />
    <glyph glyph-name="ntilde" unicode="&#xf1;" horiz-adv-x="965" 
d="M175 1502l94 -34.001l209 -175l101 -27l101 20l61 68l34 94c24 -11.333 37.333 -31.666 40 -60.999l-34 -101l-33 -47l27 14l60 67l14 94l-34 61l67 -47l27 -88l-20 -67l14 -20l-115 -149l-88 -33l-94 -7l-108 47l-229 155l-88 34l-101 -20l-74 -54l-20 20l20 47l101 148
zM114 1030l67 -19.999l21 -88l74 41l296 20l149 -61l114 -108l47 -67l61 -155l27 -155l-40 -209l-75 -148l-53 -61l-21 20l81 216c-22.667 -4.66699 -36 -20.334 -40 -47.001l-61 -162l-81 -101l-7 7l81 283l14 175l-14 94l-27 88l-74 148l-60 48h-81l-283 -337l13 -371
l-13 -101l-54 47l-21 40l-20 -20l-40 68l-74 849l13 13l20 -20l34 -74zM404 895l-54 -54l121 34c-20 10 -42.333 16.667 -67 20zM235 882l-33 -41c15.333 10 26.333 23.667 33 41zM680 855l14 -14.001c-2 4.66699 -6.66699 9.33398 -14 14.001zM242 807.999
c-22 -22 -33.333 -49 -34 -81c14 24.667 25.333 51.667 34 81zM754 787.999l88 -135c-38.667 70 -68 115 -88 135zM330 699.999v-14l13 7zM276 638.999l-20 -33c10 8 16.667 19 20 33zM242 598.999l-7 -20l14 6zM855 409.999l-13 -74l7 -27z" />
    <glyph glyph-name="ograve" unicode="&#xf2;" 
 />
    <glyph glyph-name="oacute" unicode="&#xf3;" 
 />
    <glyph glyph-name="ocircumflex" unicode="&#xf4;" 
 />
    <glyph glyph-name="otilde" unicode="&#xf5;" 
 />
    <glyph glyph-name="odieresis" unicode="&#xf6;" 
 />
    <glyph glyph-name="divide" unicode="&#xf7;" horiz-adv-x="1124" 
 />
    <glyph glyph-name="oslash" unicode="&#xf8;" horiz-adv-x="1251" 
 />
    <glyph glyph-name="ugrave" unicode="&#xf9;" 
 />
    <glyph glyph-name="uacute" unicode="&#xfa;" 
 />
    <glyph glyph-name="ucircumflex" unicode="&#xfb;" 
 />
    <glyph glyph-name="udieresis" unicode="&#xfc;" 
 />
    <glyph glyph-name="yacute" unicode="&#xfd;" horiz-adv-x="1024" 
 />
    <glyph glyph-name="thorn" unicode="&#xfe;" 
 />
    <glyph glyph-name="ydieresis" unicode="&#xff;" horiz-adv-x="1024" 
 />
    <glyph glyph-name="Amacron" unicode="&#x100;" horiz-adv-x="1366" 
 />
    <glyph glyph-name="amacron" unicode="&#x101;" 
 />
    <glyph glyph-name="Abreve" unicode="&#x102;" horiz-adv-x="1366" 
 />
    <glyph glyph-name="abreve" unicode="&#x103;" 
 />
    <glyph glyph-name="Aogonek" unicode="&#x104;" horiz-adv-x="1366" 
 />
    <glyph glyph-name="aogonek" unicode="&#x105;" 
 />
    <glyph glyph-name="Cacute" unicode="&#x106;" horiz-adv-x="1479" 
 />
    <glyph glyph-name="cacute" unicode="&#x107;" horiz-adv-x="1024" 
 />
    <glyph glyph-name="Ccircumflex" unicode="&#x108;" horiz-adv-x="1479" 
 />
    <glyph glyph-name="ccircumflex" unicode="&#x109;" horiz-adv-x="1024" 
 />
    <glyph glyph-name="Cdot" unicode="&#x10a;" horiz-adv-x="1479" 
 />
    <glyph glyph-name="cdot" unicode="&#x10b;" horiz-adv-x="1024" 
 />
    <glyph glyph-name="Ccaron" unicode="&#x10c;" horiz-adv-x="1479" 
 />
    <glyph glyph-name="ccaron" unicode="&#x10d;" horiz-adv-x="1024" 
 />
    <glyph glyph-name="Dcaron" unicode="&#x10e;" horiz-adv-x="1479" 
 />
    <glyph glyph-name="dcaron" unicode="&#x10f;" horiz-adv-x="1259" 
 />
    <glyph glyph-name="Dslash" unicode="&#x110;" horiz-adv-x="1479" 
 />
    <glyph glyph-name="dmacron" unicode="&#x111;" 
 />
    <glyph glyph-name="Emacron" unicode="&#x112;" horiz-adv-x="1366" 
 />
    <glyph glyph-name="emacron" unicode="&#x113;" 
 />
    <glyph glyph-name="Ebreve" unicode="&#x114;" horiz-adv-x="1366" 
 />
    <glyph glyph-name="ebreve" unicode="&#x115;" 
 />
    <glyph glyph-name="Edot" unicode="&#x116;" horiz-adv-x="1366" 
 />
    <glyph glyph-name="edot" unicode="&#x117;" 
 />
    <glyph glyph-name="Eogonek" unicode="&#x118;" horiz-adv-x="1366" 
 />
    <glyph glyph-name="eogonek" unicode="&#x119;" 
 />
    <glyph glyph-name="Ecaron" unicode="&#x11a;" horiz-adv-x="1366" 
 />
    <glyph glyph-name="ecaron" unicode="&#x11b;" 
 />
    <glyph glyph-name="Gcircumflex" unicode="&#x11c;" horiz-adv-x="1593" 
 />
    <glyph glyph-name="gcircumflex" unicode="&#x11d;" 
 />
    <glyph glyph-name="Gbreve" unicode="&#x11e;" horiz-adv-x="1593" 
 />
    <glyph glyph-name="gbreve" unicode="&#x11f;" 
 />
    <glyph glyph-name="Gdot" unicode="&#x120;" horiz-adv-x="1593" 
 />
    <glyph glyph-name="gdot" unicode="&#x121;" 
 />
    <glyph glyph-name="Gcedilla" unicode="&#x122;" horiz-adv-x="1593" 
 />
    <glyph glyph-name="gcedilla" unicode="&#x123;" 
 />
    <glyph glyph-name="Hcircumflex" unicode="&#x124;" horiz-adv-x="1479" 
 />
    <glyph glyph-name="hcircumflex" unicode="&#x125;" 
 />
    <glyph glyph-name="Hbar" unicode="&#x126;" horiz-adv-x="1479" 
 />
    <glyph glyph-name="hbar" unicode="&#x127;" 
 />
    <glyph glyph-name="Itilde" unicode="&#x128;" horiz-adv-x="569" 
 />
    <glyph glyph-name="itilde" unicode="&#x129;" horiz-adv-x="569" 
 />
    <glyph glyph-name="Imacron" unicode="&#x12a;" horiz-adv-x="569" 
 />
    <glyph glyph-name="imacron" unicode="&#x12b;" horiz-adv-x="569" 
 />
    <glyph glyph-name="Ibreve" unicode="&#x12c;" horiz-adv-x="569" 
 />
    <glyph glyph-name="ibreve" unicode="&#x12d;" horiz-adv-x="569" 
 />
    <glyph glyph-name="Iogonek" unicode="&#x12e;" horiz-adv-x="569" 
 />
    <glyph glyph-name="iogonek" unicode="&#x12f;" horiz-adv-x="455" 
 />
    <glyph glyph-name="Idotaccent" unicode="&#x130;" horiz-adv-x="569" 
 />
    <glyph glyph-name="dotlessi" unicode="&#x131;" horiz-adv-x="569" 
 />
    <glyph glyph-name="IJ" unicode="&#x132;" horiz-adv-x="1505" 
 />
    <glyph glyph-name="ij" unicode="&#x133;" horiz-adv-x="909" 
 />
    <glyph glyph-name="Jcircumflex" unicode="&#x134;" horiz-adv-x="1024" 
 />
    <glyph glyph-name="jcircumflex" unicode="&#x135;" horiz-adv-x="455" 
 />
    <glyph glyph-name="Kcedilla" unicode="&#x136;" horiz-adv-x="1366" 
 />
    <glyph glyph-name="kcedilla" unicode="&#x137;" horiz-adv-x="1024" 
 />
    <glyph glyph-name="kgreenlandic" unicode="&#x138;" horiz-adv-x="1024" 
 />
    <glyph glyph-name="Lacute" unicode="&#x139;" 
 />
    <glyph glyph-name="lacute" unicode="&#x13a;" horiz-adv-x="455" 
 />
    <glyph glyph-name="Lcedilla" unicode="&#x13b;" 
 />
    <glyph glyph-name="lcedilla" unicode="&#x13c;" horiz-adv-x="455" 
 />
    <glyph glyph-name="Lcaron" unicode="&#x13d;" 
 />
    <glyph glyph-name="lcaron" unicode="&#x13e;" horiz-adv-x="597" 
 />
    <glyph glyph-name="Ldot" unicode="&#x13f;" 
 />
    <glyph glyph-name="ldot" unicode="&#x140;" horiz-adv-x="684" 
 />
    <glyph glyph-name="Lslash" unicode="&#x141;" 
 />
    <glyph glyph-name="lslash" unicode="&#x142;" horiz-adv-x="455" 
 />
    <glyph glyph-name="Nacute" unicode="&#x143;" horiz-adv-x="1479" 
 />
    <glyph glyph-name="nacute" unicode="&#x144;" 
 />
    <glyph glyph-name="Ncedilla" unicode="&#x145;" horiz-adv-x="1479" 
 />
    <glyph glyph-name="ncedilla" unicode="&#x146;" 
 />
    <glyph glyph-name="Ncaron" unicode="&#x147;" horiz-adv-x="1479" 
 />
    <glyph glyph-name="ncaron" unicode="&#x148;" 
 />
    <glyph glyph-name="napostrophe" unicode="&#x149;" horiz-adv-x="1237" 
 />
    <glyph glyph-name="Eng" unicode="&#x14a;" horiz-adv-x="1481" 
 />
    <glyph glyph-name="eng" unicode="&#x14b;" 
 />
    <glyph glyph-name="Omacron" unicode="&#x14c;" horiz-adv-x="1593" 
 />
    <glyph glyph-name="omacron" unicode="&#x14d;" 
 />
    <glyph glyph-name="Obreve" unicode="&#x14e;" horiz-adv-x="1593" 
 />
    <glyph glyph-name="obreve" unicode="&#x14f;" 
 />
    <glyph glyph-name="Odblacute" unicode="&#x150;" horiz-adv-x="1593" 
 />
    <glyph glyph-name="odblacute" unicode="&#x151;" 
 />
    <glyph glyph-name="OE" unicode="&#x152;" horiz-adv-x="2048" 
 />
    <glyph glyph-name="oe" unicode="&#x153;" horiz-adv-x="1933" 
 />
    <glyph glyph-name="Racute" unicode="&#x154;" horiz-adv-x="1479" 
 />
    <glyph glyph-name="racute" unicode="&#x155;" horiz-adv-x="682" 
 />
    <glyph glyph-name="Rcedilla" unicode="&#x156;" horiz-adv-x="1479" 
 />
    <glyph glyph-name="rcedilla" unicode="&#x157;" horiz-adv-x="682" 
 />
    <glyph glyph-name="Rcaron" unicode="&#x158;" horiz-adv-x="1479" 
 />
    <glyph glyph-name="rcaron" unicode="&#x159;" horiz-adv-x="682" 
 />
    <glyph glyph-name="Sacute" unicode="&#x15a;" horiz-adv-x="1366" 
 />
    <glyph glyph-name="sacute" unicode="&#x15b;" horiz-adv-x="1024" 
 />
    <glyph glyph-name="Scircumflex" unicode="&#x15c;" horiz-adv-x="1366" 
 />
    <glyph glyph-name="scircumflex" unicode="&#x15d;" horiz-adv-x="1024" 
 />
    <glyph glyph-name="Scedilla" unicode="&#x15e;" horiz-adv-x="1366" 
 />
    <glyph glyph-name="scedilla" unicode="&#x15f;" horiz-adv-x="1024" 
 />
    <glyph glyph-name="Scaron" unicode="&#x160;" horiz-adv-x="1366" 
 />
    <glyph glyph-name="scaron" unicode="&#x161;" horiz-adv-x="1024" 
 />
    <glyph glyph-name="Tcedilla" unicode="&#x162;" horiz-adv-x="1251" 
 />
    <glyph glyph-name="tcedilla" unicode="&#x163;" horiz-adv-x="569" 
 />
    <glyph glyph-name="Tcaron" unicode="&#x164;" horiz-adv-x="1251" 
 />
    <glyph glyph-name="tcaron" unicode="&#x165;" horiz-adv-x="768" 
 />
    <glyph glyph-name="Tbar" unicode="&#x166;" horiz-adv-x="1251" 
 />
    <glyph glyph-name="tbar" unicode="&#x167;" horiz-adv-x="569" 
 />
    <glyph glyph-name="Utilde" unicode="&#x168;" horiz-adv-x="1479" 
 />
    <glyph glyph-name="utilde" unicode="&#x169;" 
 />
    <glyph glyph-name="Umacron" unicode="&#x16a;" horiz-adv-x="1479" 
 />
    <glyph glyph-name="umacron" unicode="&#x16b;" 
 />
    <glyph glyph-name="Ubreve" unicode="&#x16c;" horiz-adv-x="1479" 
 />
    <glyph glyph-name="ubreve" unicode="&#x16d;" 
 />
    <glyph glyph-name="Uring" unicode="&#x16e;" horiz-adv-x="1479" 
 />
    <glyph glyph-name="uring" unicode="&#x16f;" 
 />
    <glyph glyph-name="Udblacute" unicode="&#x170;" horiz-adv-x="1479" 
 />
    <glyph glyph-name="udblacute" unicode="&#x171;" 
 />
    <glyph glyph-name="Uogonek" unicode="&#x172;" horiz-adv-x="1479" 
 />
    <glyph glyph-name="uogonek" unicode="&#x173;" 
 />
    <glyph glyph-name="Wcircumflex" unicode="&#x174;" horiz-adv-x="1933" 
 />
    <glyph glyph-name="wcircumflex" unicode="&#x175;" horiz-adv-x="1479" 
 />
    <glyph glyph-name="Ycircumflex" unicode="&#x176;" horiz-adv-x="1366" 
 />
    <glyph glyph-name="ycircumflex" unicode="&#x177;" horiz-adv-x="1024" 
 />
    <glyph glyph-name="Ydieresis" unicode="&#x178;" horiz-adv-x="1366" 
 />
    <glyph glyph-name="Zacute" unicode="&#x179;" horiz-adv-x="1251" 
 />
    <glyph glyph-name="zacute" unicode="&#x17a;" horiz-adv-x="1024" 
 />
    <glyph glyph-name="Zdot" unicode="&#x17b;" horiz-adv-x="1251" 
 />
    <glyph glyph-name="zdot" unicode="&#x17c;" horiz-adv-x="1024" 
 />
    <glyph glyph-name="Zcaron" unicode="&#x17d;" horiz-adv-x="1251" 
 />
    <glyph glyph-name="zcaron" unicode="&#x17e;" horiz-adv-x="1024" 
 />
    <glyph glyph-name="longs" unicode="&#x17f;" horiz-adv-x="455" 
 />
    <glyph glyph-name="florin" unicode="&#x192;" 
 />
    <glyph glyph-name="Aringacute" unicode="&#x1fa;" horiz-adv-x="1366" 
 />
    <glyph glyph-name="aringacute" unicode="&#x1fb;" 
 />
    <glyph glyph-name="AEacute" unicode="&#x1fc;" horiz-adv-x="2048" 
 />
    <glyph glyph-name="aeacute" unicode="&#x1fd;" horiz-adv-x="1821" 
 />
    <glyph glyph-name="Oslashacute" unicode="&#x1fe;" horiz-adv-x="1593" 
 />
    <glyph glyph-name="oslashacute" unicode="&#x1ff;" horiz-adv-x="1251" 
 />
    <glyph glyph-name="circumflex" unicode="&#x2c6;" horiz-adv-x="682" 
 />
    <glyph glyph-name="caron" unicode="&#x2c7;" horiz-adv-x="682" 
 />
    <glyph glyph-name="macron" unicode="&#x2c9;" horiz-adv-x="682" 
 />
    <glyph glyph-name="breve" unicode="&#x2d8;" horiz-adv-x="682" 
 />
    <glyph glyph-name="dotaccent" unicode="&#x2d9;" horiz-adv-x="682" 
 />
    <glyph glyph-name="ring" unicode="&#x2da;" horiz-adv-x="682" 
 />
    <glyph glyph-name="ogonek" unicode="&#x2db;" horiz-adv-x="682" 
 />
    <glyph glyph-name="tilde" unicode="&#x2dc;" horiz-adv-x="682" 
 />
    <glyph glyph-name="hungarumlaut" unicode="&#x2dd;" horiz-adv-x="682" 
 />
    <glyph glyph-name="tonos" unicode="&#x384;" horiz-adv-x="682" 
 />
    <glyph glyph-name="dieresistonos" unicode="&#x385;" horiz-adv-x="682" 
 />
    <glyph glyph-name="Alphatonos" unicode="&#x386;" horiz-adv-x="1367" 
 />
    <glyph glyph-name="anoteleia" unicode="&#x387;" horiz-adv-x="569" 
 />
    <glyph glyph-name="Epsilontonos" unicode="&#x388;" horiz-adv-x="1606" 
 />
    <glyph glyph-name="Etatonos" unicode="&#x389;" horiz-adv-x="1716" 
 />
    <glyph glyph-name="Iotatonos" unicode="&#x38a;" horiz-adv-x="786" 
 />
    <glyph glyph-name="Omicrontonos" unicode="&#x38c;" horiz-adv-x="1586" 
 />
    <glyph glyph-name="Upsilontonos" unicode="&#x38e;" horiz-adv-x="1752" 
 />
    <glyph glyph-name="Omegatonos" unicode="&#x38f;" horiz-adv-x="1541" 
 />
    <glyph glyph-name="iotadieresistonos" unicode="&#x390;" horiz-adv-x="455" 
 />
    <glyph glyph-name="Alpha" unicode="&#x391;" horiz-adv-x="1366" 
 />
    <glyph glyph-name="Beta" unicode="&#x392;" horiz-adv-x="1366" 
 />
    <glyph glyph-name="Gamma" unicode="&#x393;" horiz-adv-x="1128" 
 />
    <glyph glyph-name="Delta" unicode="&#x394;" horiz-adv-x="1368" 
 />
    <glyph glyph-name="Epsilon" unicode="&#x395;" horiz-adv-x="1366" 
 />
    <glyph glyph-name="Zeta" unicode="&#x396;" horiz-adv-x="1251" 
 />
    <glyph glyph-name="Eta" unicode="&#x397;" horiz-adv-x="1479" 
 />
    <glyph glyph-name="Theta" unicode="&#x398;" horiz-adv-x="1593" 
 />
    <glyph glyph-name="Iota" unicode="&#x399;" horiz-adv-x="569" 
 />
    <glyph glyph-name="Kappa" unicode="&#x39a;" horiz-adv-x="1366" 
 />
    <glyph glyph-name="Lambda" unicode="&#x39b;" horiz-adv-x="1368" 
 />
    <glyph glyph-name="Mu" unicode="&#x39c;" horiz-adv-x="1706" 
 />
    <glyph glyph-name="Nu" unicode="&#x39d;" horiz-adv-x="1479" 
 />
    <glyph glyph-name="Xi" unicode="&#x39e;" horiz-adv-x="1331" 
 />
    <glyph glyph-name="Omicron" unicode="&#x39f;" horiz-adv-x="1593" 
 />
    <glyph glyph-name="Pi" unicode="&#x3a0;" horiz-adv-x="1479" 
 />
    <glyph glyph-name="Rho" unicode="&#x3a1;" horiz-adv-x="1366" 
 />
    <glyph glyph-name="Sigma" unicode="&#x3a3;" horiz-adv-x="1266" 
 />
    <glyph glyph-name="Tau" unicode="&#x3a4;" horiz-adv-x="1251" 
 />
    <glyph glyph-name="Upsilon" unicode="&#x3a5;" horiz-adv-x="1366" 
 />
    <glyph glyph-name="Phi" unicode="&#x3a6;" horiz-adv-x="1634" 
 />
    <glyph glyph-name="Chi" unicode="&#x3a7;" horiz-adv-x="1366" 
 />
    <glyph glyph-name="Psi" unicode="&#x3a8;" horiz-adv-x="1711" 
 />
    <glyph glyph-name="Omega" unicode="&#x3a9;" horiz-adv-x="1531" 
 />
    <glyph glyph-name="Iotadieresis" unicode="&#x3aa;" horiz-adv-x="569" 
 />
    <glyph glyph-name="Upsilondieresis" unicode="&#x3ab;" horiz-adv-x="1366" 
 />
    <glyph glyph-name="alphatonos" unicode="&#x3ac;" horiz-adv-x="1184" 
 />
    <glyph glyph-name="epsilontonos" unicode="&#x3ad;" horiz-adv-x="913" 
 />
    <glyph glyph-name="etatonos" unicode="&#x3ae;" 
 />
    <glyph glyph-name="iotatonos" unicode="&#x3af;" horiz-adv-x="455" 
 />
    <glyph glyph-name="upsilondieresistonos" unicode="&#x3b0;" horiz-adv-x="1120" 
 />
    <glyph glyph-name="alpha" unicode="&#x3b1;" horiz-adv-x="1184" 
 />
    <glyph glyph-name="beta" unicode="&#x3b2;" horiz-adv-x="1178" 
 />
    <glyph glyph-name="gamma" unicode="&#x3b3;" horiz-adv-x="1024" 
 />
    <glyph glyph-name="delta" unicode="&#x3b4;" horiz-adv-x="1140" 
 />
    <glyph glyph-name="epsilon" unicode="&#x3b5;" horiz-adv-x="913" 
 />
    <glyph glyph-name="zeta" unicode="&#x3b6;" horiz-adv-x="903" 
 />
    <glyph glyph-name="eta" unicode="&#x3b7;" 
 />
    <glyph glyph-name="theta" unicode="&#x3b8;" 
 />
    <glyph glyph-name="iota" unicode="&#x3b9;" horiz-adv-x="455" 
 />
    <glyph glyph-name="kappa" unicode="&#x3ba;" horiz-adv-x="1024" 
 />
    <glyph glyph-name="lambda" unicode="&#x3bb;" horiz-adv-x="1024" 
 />
    <glyph glyph-name="mu" unicode="&#x3bc;" horiz-adv-x="1180" 
 />
    <glyph glyph-name="nu" unicode="&#x3bd;" horiz-adv-x="1024" 
 />
    <glyph glyph-name="xi" unicode="&#x3be;" horiz-adv-x="917" 
 />
    <glyph glyph-name="omicron" unicode="&#x3bf;" 
 />
    <glyph glyph-name="pi" unicode="&#x3c0;" horiz-adv-x="1413" 
 />
    <glyph glyph-name="rho" unicode="&#x3c1;" horiz-adv-x="1165" 
 />
    <glyph glyph-name="sigma1" unicode="&#x3c2;" horiz-adv-x="987" 
 />
    <glyph glyph-name="sigma" unicode="&#x3c3;" horiz-adv-x="1264" 
 />
    <glyph glyph-name="tau" unicode="&#x3c4;" horiz-adv-x="809" 
 />
    <glyph glyph-name="upsilon" unicode="&#x3c5;" horiz-adv-x="1120" 
 />
    <glyph glyph-name="phi" unicode="&#x3c6;" horiz-adv-x="1328" 
 />
    <glyph glyph-name="chi" unicode="&#x3c7;" horiz-adv-x="1075" 
 />
    <glyph glyph-name="psi" unicode="&#x3c8;" horiz-adv-x="1460" 
 />
    <glyph glyph-name="omega" unicode="&#x3c9;" horiz-adv-x="1599" 
 />
    <glyph glyph-name="iotadieresis" unicode="&#x3ca;" horiz-adv-x="455" 
 />
    <glyph glyph-name="upsilondieresis" unicode="&#x3cb;" horiz-adv-x="1120" 
 />
    <glyph glyph-name="omicrontonos" unicode="&#x3cc;" 
 />
    <glyph glyph-name="upsilontonos" unicode="&#x3cd;" horiz-adv-x="1120" 
 />
    <glyph glyph-name="omegatonos" unicode="&#x3ce;" horiz-adv-x="1599" 
 />
    <glyph glyph-name="afii10023" unicode="&#x401;" horiz-adv-x="1367" 
 />
    <glyph glyph-name="afii10051" unicode="&#x402;" horiz-adv-x="1771" 
 />
    <glyph glyph-name="afii10052" unicode="&#x403;" horiz-adv-x="1109" 
 />
    <glyph glyph-name="afii10053" unicode="&#x404;" horiz-adv-x="1472" 
 />
    <glyph glyph-name="afii10054" unicode="&#x405;" horiz-adv-x="1366" 
 />
    <glyph glyph-name="afii10055" unicode="&#x406;" horiz-adv-x="569" 
 />
    <glyph glyph-name="afii10056" unicode="&#x407;" horiz-adv-x="569" 
 />
    <glyph glyph-name="afii10057" unicode="&#x408;" horiz-adv-x="1024" 
 />
    <glyph glyph-name="afii10058" unicode="&#x409;" horiz-adv-x="2165" 
 />
    <glyph glyph-name="afii10059" unicode="&#x40a;" horiz-adv-x="2069" 
 />
    <glyph glyph-name="afii10060" unicode="&#x40b;" horiz-adv-x="1749" 
 />
    <glyph glyph-name="afii10061" unicode="&#x40c;" horiz-adv-x="1193" 
 />
    <glyph glyph-name="afii10062" unicode="&#x40e;" horiz-adv-x="1301" 
 />
    <glyph glyph-name="afii10145" unicode="&#x40f;" horiz-adv-x="1472" 
 />
    <glyph glyph-name="afii10017" unicode="&#x410;" horiz-adv-x="1366" 
 />
    <glyph glyph-name="afii10018" unicode="&#x411;" horiz-adv-x="1344" 
 />
    <glyph glyph-name="afii10019" unicode="&#x412;" horiz-adv-x="1366" 
 />
    <glyph glyph-name="afii10020" unicode="&#x413;" horiz-adv-x="1109" 
 />
    <glyph glyph-name="afii10021" unicode="&#x414;" horiz-adv-x="1387" 
 />
    <glyph glyph-name="afii10022" unicode="&#x415;" horiz-adv-x="1366" 
 />
    <glyph glyph-name="afii10024" unicode="&#x416;" horiz-adv-x="1891" 
 />
    <glyph glyph-name="afii10025" unicode="&#x417;" horiz-adv-x="1237" 
 />
    <glyph glyph-name="afii10026" unicode="&#x418;" horiz-adv-x="1472" 
 />
    <glyph glyph-name="afii10027" unicode="&#x419;" horiz-adv-x="1472" 
 />
    <glyph glyph-name="afii10028" unicode="&#x41a;" horiz-adv-x="1193" 
 />
    <glyph glyph-name="afii10029" unicode="&#x41b;" horiz-adv-x="1344" 
 />
    <glyph glyph-name="afii10030" unicode="&#x41c;" horiz-adv-x="1706" 
 />
    <glyph glyph-name="afii10031" unicode="&#x41d;" horiz-adv-x="1479" 
 />
    <glyph glyph-name="afii10032" unicode="&#x41e;" horiz-adv-x="1593" 
 />
    <glyph glyph-name="afii10033" unicode="&#x41f;" horiz-adv-x="1472" 
 />
    <glyph glyph-name="afii10034" unicode="&#x420;" horiz-adv-x="1366" 
 />
    <glyph glyph-name="afii10035" unicode="&#x421;" horiz-adv-x="1479" 
 />
    <glyph glyph-name="afii10036" unicode="&#x422;" horiz-adv-x="1251" 
 />
    <glyph glyph-name="afii10037" unicode="&#x423;" horiz-adv-x="1301" 
 />
    <glyph glyph-name="afii10038" unicode="&#x424;" horiz-adv-x="1557" 
 />
    <glyph glyph-name="afii10039" unicode="&#x425;" horiz-adv-x="1366" 
 />
    <glyph glyph-name="afii10040" unicode="&#x426;" horiz-adv-x="1515" 
 />
    <glyph glyph-name="afii10041" unicode="&#x427;" horiz-adv-x="1365" 
 />
    <glyph glyph-name="afii10042" unicode="&#x428;" horiz-adv-x="1877" 
 />
    <glyph glyph-name="afii10043" unicode="&#x429;" horiz-adv-x="1920" 
 />
    <glyph glyph-name="afii10044" unicode="&#x42a;" horiz-adv-x="1621" 
 />
    <glyph glyph-name="afii10045" unicode="&#x42b;" horiz-adv-x="1813" 
 />
    <glyph glyph-name="afii10046" unicode="&#x42c;" horiz-adv-x="1344" 
 />
    <glyph glyph-name="afii10047" unicode="&#x42d;" horiz-adv-x="1472" 
 />
    <glyph glyph-name="afii10048" unicode="&#x42e;" horiz-adv-x="2069" 
 />
    <glyph glyph-name="afii10049" unicode="&#x42f;" horiz-adv-x="1479" 
 />
    <glyph glyph-name="afii10065" unicode="&#x430;" 
 />
    <glyph glyph-name="afii10066" unicode="&#x431;" horiz-adv-x="1173" 
 />
    <glyph glyph-name="afii10067" unicode="&#x432;" horiz-adv-x="1088" 
 />
    <glyph glyph-name="afii10068" unicode="&#x433;" horiz-adv-x="747" 
 />
    <glyph glyph-name="afii10069" unicode="&#x434;" horiz-adv-x="1195" 
 />
    <glyph glyph-name="afii10070" unicode="&#x435;" 
 />
    <glyph glyph-name="afii10072" unicode="&#x436;" horiz-adv-x="1370" 
 />
    <glyph glyph-name="afii10073" unicode="&#x437;" horiz-adv-x="939" 
 />
    <glyph glyph-name="afii10074" unicode="&#x438;" horiz-adv-x="1144" 
 />
    <glyph glyph-name="afii10075" unicode="&#x439;" horiz-adv-x="1144" 
 />
    <glyph glyph-name="afii10076" unicode="&#x43a;" horiz-adv-x="896" 
 />
    <glyph glyph-name="afii10077" unicode="&#x43b;" horiz-adv-x="1195" 
 />
    <glyph glyph-name="afii10078" unicode="&#x43c;" horiz-adv-x="1408" 
 />
    <glyph glyph-name="afii10079" unicode="&#x43d;" horiz-adv-x="1131" 
 />
    <glyph glyph-name="afii10080" unicode="&#x43e;" 
 />
    <glyph glyph-name="afii10081" unicode="&#x43f;" horiz-adv-x="1109" 
 />
    <glyph glyph-name="afii10082" unicode="&#x440;" 
 />
    <glyph glyph-name="afii10083" unicode="&#x441;" horiz-adv-x="1024" 
 />
    <glyph glyph-name="afii10084" unicode="&#x442;" horiz-adv-x="938" 
 />
    <glyph glyph-name="afii10085" unicode="&#x443;" horiz-adv-x="1024" 
 />
    <glyph glyph-name="afii10086" unicode="&#x444;" horiz-adv-x="1685" 
 />
    <glyph glyph-name="afii10087" unicode="&#x445;" horiz-adv-x="1024" 
 />
    <glyph glyph-name="afii10088" unicode="&#x446;" horiz-adv-x="1173" 
 />
    <glyph glyph-name="afii10089" unicode="&#x447;" horiz-adv-x="1067" 
 />
    <glyph glyph-name="afii10090" unicode="&#x448;" horiz-adv-x="1643" 
 />
    <glyph glyph-name="afii10091" unicode="&#x449;" horiz-adv-x="1685" 
 />
    <glyph glyph-name="afii10092" unicode="&#x44a;" horiz-adv-x="1280" 
 />
    <glyph glyph-name="afii10093" unicode="&#x44b;" horiz-adv-x="1472" 
 />
    <glyph glyph-name="afii10094" unicode="&#x44c;" horiz-adv-x="1067" 
 />
    <glyph glyph-name="afii10095" unicode="&#x44d;" horiz-adv-x="1045" 
 />
    <glyph glyph-name="afii10096" unicode="&#x44e;" horiz-adv-x="1536" 
 />
    <glyph glyph-name="afii10097" unicode="&#x44f;" horiz-adv-x="1109" 
 />
    <glyph glyph-name="afii10071" unicode="&#x451;" 
 />
    <glyph glyph-name="afii10099" unicode="&#x452;" 
 />
    <glyph glyph-name="afii10100" unicode="&#x453;" horiz-adv-x="747" 
 />
    <glyph glyph-name="afii10101" unicode="&#x454;" horiz-adv-x="1045" 
 />
    <glyph glyph-name="afii10102" unicode="&#x455;" horiz-adv-x="1024" 
 />
    <glyph glyph-name="afii10103" unicode="&#x456;" horiz-adv-x="455" 
 />
    <glyph glyph-name="afii10104" unicode="&#x457;" horiz-adv-x="569" 
 />
    <glyph glyph-name="afii10105" unicode="&#x458;" horiz-adv-x="455" 
 />
    <glyph glyph-name="afii10106" unicode="&#x459;" horiz-adv-x="1856" 
 />
    <glyph glyph-name="afii10107" unicode="&#x45a;" horiz-adv-x="1664" 
 />
    <glyph glyph-name="afii10108" unicode="&#x45b;" 
 />
    <glyph glyph-name="afii10109" unicode="&#x45c;" horiz-adv-x="896" 
 />
    <glyph glyph-name="afii10110" unicode="&#x45e;" horiz-adv-x="1024" 
 />
    <glyph glyph-name="afii10193" unicode="&#x45f;" horiz-adv-x="1131" 
 />
    <glyph glyph-name="afii10050" unicode="&#x490;" horiz-adv-x="1001" 
 />
    <glyph glyph-name="afii10098" unicode="&#x491;" horiz-adv-x="842" 
 />
    <glyph glyph-name="Wgrave" unicode="&#x1e80;" horiz-adv-x="1933" 
 />
    <glyph glyph-name="wgrave" unicode="&#x1e81;" horiz-adv-x="1479" 
 />
    <glyph glyph-name="Wacute" unicode="&#x1e82;" horiz-adv-x="1933" 
 />
    <glyph glyph-name="wacute" unicode="&#x1e83;" horiz-adv-x="1479" 
 />
    <glyph glyph-name="Wdieresis" unicode="&#x1e84;" horiz-adv-x="1933" 
 />
    <glyph glyph-name="wdieresis" unicode="&#x1e85;" horiz-adv-x="1479" 
 />
    <glyph glyph-name="Ygrave" unicode="&#x1ef2;" horiz-adv-x="1366" 
 />
    <glyph glyph-name="ygrave" unicode="&#x1ef3;" horiz-adv-x="1024" 
 />
    <glyph glyph-name="endash" unicode="&#x2013;" horiz-adv-x="890" 
d="M756 838l64 -11l80 -37l-685 -139l-123 -11l-59 16l16 21h-32l-21 27l43 27l64 11l21 37l54 16z" />
    <glyph glyph-name="emdash" unicode="&#x2014;" horiz-adv-x="1260" 
d="M1262 840l19 -9l-9 -32l-56 -14l-65 -5l-14 -9l19 -10l13 -37l-60 -9l-176 18l-330 -9l-474 -79l-65 5l-14 42l469 116l-479 -75l-41 -14l-33 28l651 112z" />
    <glyph glyph-name="afii00208" unicode="&#x2015;" horiz-adv-x="2048" 
 />
    <glyph glyph-name="underscoredbl" unicode="&#x2017;" horiz-adv-x="1131" 
 />
    <glyph glyph-name="quoteleft" unicode="&#x2018;" horiz-adv-x="455" 
 />
    <glyph glyph-name="quoteright" unicode="&#x2019;" horiz-adv-x="455" 
 />
    <glyph glyph-name="quotesinglbase" unicode="&#x201a;" horiz-adv-x="455" 
 />
    <glyph glyph-name="quotereversed" unicode="&#x201b;" horiz-adv-x="455" 
 />
    <glyph glyph-name="quotedblleft" unicode="&#x201c;" horiz-adv-x="564" 
d="M502 1853l70 -46l-46 -70l-16 -108v-124l23 -100l-54 -31l39 -23l-23 -47l-62 8l15 -23l-69 -39l-39 77l-23 139l31 178l85 155c24 14 47 32 69 54zM162 1845l78 -46l7 -39l-15 -23l-31 8l-31 -85l-8 -217l31 -77l-54 -31l-46 39v-31l23 -16l15 -46l-38 8l-70 54l-23 93
l23 201l31 92l46 70c22 12 42.667 27.333 62 46z" />
    <glyph glyph-name="quotedblright" unicode="&#x201d;" horiz-adv-x="530" 
d="M123 1823l86 -67l25 -129l-19 -135l-43 -104l-67 -80l-92 -61l-98 55l123 6l61 135l-31 196c-12.667 29.333 -33 52 -61 68l31 18l-13 73l105 -104l-25 43l12 43l-24 25c10.667 2.66699 20.667 8.66699 30 18zM369 1762l67 -31l55 18l18 -12l25 -86l-12 -91l-25 -86
l-73 -135l-62 -6l-73 -37l-25 55l37 49l31 74l30 177c-2 26.667 -14 43 -36 49z" />
    <glyph glyph-name="quotedblbase" unicode="&#x201e;" horiz-adv-x="682" 
 />
    <glyph glyph-name="dagger" unicode="&#x2020;" 
 />
    <glyph glyph-name="daggerdbl" unicode="&#x2021;" 
 />
    <glyph glyph-name="bullet" unicode="&#x2022;" horiz-adv-x="717" 
 />
    <glyph glyph-name="ellipsis" unicode="&#x2026;" horiz-adv-x="2048" 
 />
    <glyph glyph-name="perthousand" unicode="&#x2030;" horiz-adv-x="2048" 
 />
    <glyph glyph-name="minute" unicode="&#x2032;" horiz-adv-x="384" 
 />
    <glyph glyph-name="second" unicode="&#x2033;" horiz-adv-x="725" 
 />
    <glyph glyph-name="guilsinglleft" unicode="&#x2039;" horiz-adv-x="682" 
 />
    <glyph glyph-name="guilsinglright" unicode="&#x203a;" horiz-adv-x="682" 
 />
    <glyph glyph-name="exclamdbl" unicode="&#x203c;" horiz-adv-x="1024" 
 />
    <glyph glyph-name="radicalex" unicode="&#x203e;" horiz-adv-x="682" 
 />
    <glyph glyph-name="fraction" unicode="&#x2044;" horiz-adv-x="342" 
 />
    <glyph glyph-name="fraction" unicode="&#x2215;" horiz-adv-x="342" 
 />
    <glyph glyph-name="nsuperior" unicode="&#x207f;" horiz-adv-x="747" 
 />
    <glyph glyph-name="franc" unicode="&#x20a3;" 
 />
    <glyph glyph-name="afii08941" unicode="&#x20a4;" 
 />
    <glyph glyph-name="peseta" unicode="&#x20a7;" horiz-adv-x="2240" 
 />
    <glyph glyph-name="Euro" unicode="&#x20ac;" horiz-adv-x="1255" 
d="M904 1803l128.999 -5.99902l-12 -25l-86 -6l-123 -49l313 -123l19 -73l6 -80c-1.33301 -22.667 -11.666 -43.334 -30.999 -62.001l-31 13l19 12v86l-19 37l-6 -25l-30 -24l6 30l-31 62l-61 24l-56 6l-86 -24l-165 -92l-74 -74l141 37l-31 -31l-61 -24l-104 -68l-43 -49
l-80 -160l12 -6l203 62l233 30l98 -24l-12 -43h-49v-31l55 -12l12 -19l-24 -36l-12 -50l-252 -12l-276 -80c-16 -12.667 -24.333 -31 -25 -55l43 -129l80 -98l98 -80l55 -18l135 24l246 111l86 86l37 18v-24l12 -19l86 55l25 68l18 -43l-12 -68l-25 -61l-37 -49l-135 -135
l-104 -68l-184 -79l-154 -25l-135 25l-117 61l-159 190l-56 283l-36 6l12 37l-25 6l-79 -19l-105 37l-49 6l12 31l56 31l214 49l56 24l18 74l55 123l142 209l227 208l172 92zM817.999 1662l-159 -98l36 6l56 30l122 43zM676.999 1072l-258 -49l264 19l80 24z
M344.999 680.001c2 -10 6.33301 -18.333 13 -25zM1137 624.001l-67 -43l-25 -37l62 37c14 12 24 26.333 30 43zM1009 526.001l18 6l-12 6zM989.999 514.001l19 6l-13 6zM971.999 501.001l18 7l-12 6z" />
    <glyph glyph-name="afii61248" unicode="&#x2105;" horiz-adv-x="1813" 
 />
    <glyph glyph-name="afii61289" unicode="&#x2113;" horiz-adv-x="662" 
 />
    <glyph glyph-name="afii61352" unicode="&#x2116;" horiz-adv-x="2197" 
 />
    <glyph glyph-name="trademark" unicode="&#x2122;" horiz-adv-x="2048" 
 />
    <glyph glyph-name="Ohm" unicode="&#x2126;" horiz-adv-x="1573" 
 />
    <glyph glyph-name="estimated" unicode="&#x212e;" horiz-adv-x="1229" 
 />
    <glyph glyph-name="oneeighth" unicode="&#x215b;" horiz-adv-x="1708" 
 />
    <glyph glyph-name="threeeighths" unicode="&#x215c;" horiz-adv-x="1708" 
 />
    <glyph glyph-name="fiveeighths" unicode="&#x215d;" horiz-adv-x="1708" 
 />
    <glyph glyph-name="seveneighths" unicode="&#x215e;" horiz-adv-x="1708" 
 />
    <glyph glyph-name="arrowleft" unicode="&#x2190;" horiz-adv-x="2048" 
 />
    <glyph glyph-name="arrowup" unicode="&#x2191;" horiz-adv-x="1024" 
 />
    <glyph glyph-name="arrowright" unicode="&#x2192;" horiz-adv-x="2048" 
 />
    <glyph glyph-name="arrowdown" unicode="&#x2193;" horiz-adv-x="1024" 
 />
    <glyph glyph-name="arrowboth" unicode="&#x2194;" horiz-adv-x="2048" 
 />
    <glyph glyph-name="arrowupdn" unicode="&#x2195;" horiz-adv-x="1024" 
 />
    <glyph glyph-name="arrowupdnbse" unicode="&#x21a8;" horiz-adv-x="1024" 
 />
    <glyph glyph-name="partialdiff" unicode="&#x2202;" horiz-adv-x="1012" 
 />
    <glyph glyph-name="uni2206" unicode="&#x2206;" horiz-adv-x="1253" 
 />
    <glyph glyph-name="product" unicode="&#x220f;" horiz-adv-x="1686" 
 />
    <glyph glyph-name="summation" unicode="&#x2211;" horiz-adv-x="1460" 
 />
    <glyph glyph-name="minus" unicode="&#x2212;" horiz-adv-x="1196" 
 />
    <glyph glyph-name="radical" unicode="&#x221a;" horiz-adv-x="1124" 
 />
    <glyph glyph-name="infinity" unicode="&#x221e;" horiz-adv-x="1460" 
 />
    <glyph glyph-name="orthogonal" unicode="&#x221f;" horiz-adv-x="2005" 
 />
    <glyph glyph-name="intersection" unicode="&#x2229;" horiz-adv-x="1472" 
 />
    <glyph glyph-name="integral" unicode="&#x222b;" horiz-adv-x="561" 
 />
    <glyph glyph-name="approxequal" unicode="&#x2248;" horiz-adv-x="1124" 
 />
    <glyph glyph-name="notequal" unicode="&#x2260;" horiz-adv-x="1124" 
 />
    <glyph glyph-name="equivalence" unicode="&#x2261;" horiz-adv-x="1195" 
 />
    <glyph glyph-name="lessequal" unicode="&#x2264;" horiz-adv-x="1124" 
 />
    <glyph glyph-name="greaterequal" unicode="&#x2265;" horiz-adv-x="1124" 
 />
    <glyph glyph-name="house" unicode="&#x2302;" horiz-adv-x="1237" 
 />
    <glyph glyph-name="revlogicalnot" unicode="&#x2310;" horiz-adv-x="1196" 
 />
    <glyph glyph-name="integraltp" unicode="&#x2320;" horiz-adv-x="1237" 
 />
    <glyph glyph-name="integralbt" unicode="&#x2321;" horiz-adv-x="1237" 
 />
    <glyph glyph-name="SF100000" unicode="&#x2500;" horiz-adv-x="1451" 
 />
    <glyph glyph-name="SF110000" unicode="&#x2502;" horiz-adv-x="1280" 
 />
    <glyph glyph-name="SF010000" unicode="&#x250c;" horiz-adv-x="1451" 
 />
    <glyph glyph-name="SF030000" unicode="&#x2510;" horiz-adv-x="1451" 
 />
    <glyph glyph-name="SF020000" unicode="&#x2514;" horiz-adv-x="1451" 
 />
    <glyph glyph-name="SF040000" unicode="&#x2518;" horiz-adv-x="1451" 
 />
    <glyph glyph-name="SF080000" unicode="&#x251c;" horiz-adv-x="1451" 
 />
    <glyph glyph-name="SF090000" unicode="&#x2524;" horiz-adv-x="1451" 
 />
    <glyph glyph-name="SF060000" unicode="&#x252c;" horiz-adv-x="1451" 
 />
    <glyph glyph-name="SF070000" unicode="&#x2534;" horiz-adv-x="1451" 
 />
    <glyph glyph-name="SF050000" unicode="&#x253c;" horiz-adv-x="1451" 
 />
    <glyph glyph-name="SF430000" unicode="&#x2550;" horiz-adv-x="1451" 
 />
    <glyph glyph-name="SF240000" unicode="&#x2551;" horiz-adv-x="1451" 
 />
    <glyph glyph-name="SF510000" unicode="&#x2552;" horiz-adv-x="1451" 
 />
    <glyph glyph-name="SF520000" unicode="&#x2553;" horiz-adv-x="1451" 
 />
    <glyph glyph-name="SF390000" unicode="&#x2554;" horiz-adv-x="1451" 
 />
    <glyph glyph-name="SF220000" unicode="&#x2555;" horiz-adv-x="1451" 
 />
    <glyph glyph-name="SF210000" unicode="&#x2556;" horiz-adv-x="1451" 
 />
    <glyph glyph-name="SF250000" unicode="&#x2557;" horiz-adv-x="1451" 
 />
    <glyph glyph-name="SF500000" unicode="&#x2558;" horiz-adv-x="1451" 
 />
    <glyph glyph-name="SF490000" unicode="&#x2559;" horiz-adv-x="1451" 
 />
    <glyph glyph-name="SF380000" unicode="&#x255a;" horiz-adv-x="1451" 
 />
    <glyph glyph-name="SF280000" unicode="&#x255b;" horiz-adv-x="1451" 
 />
    <glyph glyph-name="SF270000" unicode="&#x255c;" horiz-adv-x="1451" 
 />
    <glyph glyph-name="SF260000" unicode="&#x255d;" horiz-adv-x="1451" 
 />
    <glyph glyph-name="SF360000" unicode="&#x255e;" horiz-adv-x="1451" 
 />
    <glyph glyph-name="SF370000" unicode="&#x255f;" horiz-adv-x="1451" 
 />
    <glyph glyph-name="SF420000" unicode="&#x2560;" horiz-adv-x="1451" 
 />
    <glyph glyph-name="SF190000" unicode="&#x2561;" horiz-adv-x="1451" 
 />
    <glyph glyph-name="SF200000" unicode="&#x2562;" horiz-adv-x="1451" 
 />
    <glyph glyph-name="SF230000" unicode="&#x2563;" horiz-adv-x="1451" 
 />
    <glyph glyph-name="SF470000" unicode="&#x2564;" horiz-adv-x="1451" 
 />
    <glyph glyph-name="SF480000" unicode="&#x2565;" horiz-adv-x="1451" 
 />
    <glyph glyph-name="SF410000" unicode="&#x2566;" horiz-adv-x="1451" 
 />
    <glyph glyph-name="SF450000" unicode="&#x2567;" horiz-adv-x="1451" 
 />
    <glyph glyph-name="SF460000" unicode="&#x2568;" horiz-adv-x="1451" 
 />
    <glyph glyph-name="SF400000" unicode="&#x2569;" horiz-adv-x="1451" 
 />
    <glyph glyph-name="SF540000" unicode="&#x256a;" horiz-adv-x="1451" 
 />
    <glyph glyph-name="SF530000" unicode="&#x256b;" horiz-adv-x="1451" 
 />
    <glyph glyph-name="SF440000" unicode="&#x256c;" horiz-adv-x="1451" 
 />
    <glyph glyph-name="upblock" unicode="&#x2580;" horiz-adv-x="1451" 
 />
    <glyph glyph-name="dnblock" unicode="&#x2584;" horiz-adv-x="1451" 
 />
    <glyph glyph-name="block" unicode="&#x2588;" horiz-adv-x="1451" 
 />
    <glyph glyph-name="lfblock" unicode="&#x258c;" horiz-adv-x="1451" 
 />
    <glyph glyph-name="rtblock" unicode="&#x2590;" horiz-adv-x="1451" 
 />
    <glyph glyph-name="ltshade" unicode="&#x2591;" horiz-adv-x="1451" 
 />
    <glyph glyph-name="shade" unicode="&#x2592;" horiz-adv-x="1451" 
 />
    <glyph glyph-name="dkshade" unicode="&#x2593;" horiz-adv-x="1493" 
 />
    <glyph glyph-name="filledbox" unicode="&#x25a0;" horiz-adv-x="1237" 
 />
    <glyph glyph-name="H22073" unicode="&#x25a1;" horiz-adv-x="1237" 
 />
    <glyph glyph-name="H18543" unicode="&#x25aa;" horiz-adv-x="726" 
 />
    <glyph glyph-name="H18551" unicode="&#x25ab;" horiz-adv-x="726" 
 />
    <glyph glyph-name="filledrect" unicode="&#x25ac;" horiz-adv-x="2048" 
 />
    <glyph glyph-name="triagup" unicode="&#x25b2;" horiz-adv-x="2027" 
 />
    <glyph glyph-name="triagrt" unicode="&#x25ba;" horiz-adv-x="2027" 
 />
    <glyph glyph-name="triagdn" unicode="&#x25bc;" horiz-adv-x="2027" 
 />
    <glyph glyph-name="triaglf" unicode="&#x25c4;" horiz-adv-x="2027" 
 />
    <glyph glyph-name="lozenge" unicode="&#x25ca;" horiz-adv-x="1012" 
 />
    <glyph glyph-name="circle" unicode="&#x25cb;" horiz-adv-x="1237" 
 />
    <glyph glyph-name="H18533" unicode="&#x25cf;" horiz-adv-x="1237" 
 />
    <glyph glyph-name="invbullet" unicode="&#x25d8;" horiz-adv-x="1237" 
 />
    <glyph glyph-name="invcircle" unicode="&#x25d9;" horiz-adv-x="1237" 
 />
    <glyph glyph-name="openbullet" unicode="&#x25e6;" horiz-adv-x="726" 
 />
    <glyph glyph-name="smileface" unicode="&#x263a;" horiz-adv-x="2091" 
 />
    <glyph glyph-name="invsmileface" unicode="&#x263b;" horiz-adv-x="2155" 
 />
    <glyph glyph-name="sun" unicode="&#x263c;" horiz-adv-x="1877" 
 />
    <glyph glyph-name="female" unicode="&#x2640;" horiz-adv-x="1536" 
 />
    <glyph glyph-name="male" unicode="&#x2642;" horiz-adv-x="1536" 
 />
    <glyph glyph-name="spade" unicode="&#x2660;" horiz-adv-x="1088" 
 />
    <glyph glyph-name="club" unicode="&#x2663;" horiz-adv-x="1344" 
 />
    <glyph glyph-name="heart" unicode="&#x2665;" horiz-adv-x="1216" 
 />
    <glyph glyph-name="diamond" unicode="&#x2666;" horiz-adv-x="1045" 
 />
    <glyph glyph-name="musicalnote" unicode="&#x266a;" horiz-adv-x="1024" 
 />
    <glyph glyph-name="musicalnotedbl" unicode="&#x266b;" horiz-adv-x="1536" 
 />
    <glyph glyph-name="fi" unicode="&#xf001;" horiz-adv-x="1024" 
 />
    <glyph glyph-name="fi" unicode="&#xfb01;" horiz-adv-x="1024" 
 />
    <glyph glyph-name="fl" unicode="&#xf002;" horiz-adv-x="1024" 
 />
    <glyph glyph-name="fl" unicode="&#xfb02;" horiz-adv-x="1024" 
 />
    <glyph glyph-name="commaaccent" unicode="&#xf004;" horiz-adv-x="682" 
 />
    <glyph glyph-name="undercommaaccent" unicode="&#xf005;" horiz-adv-x="682" 
 />
    <glyph glyph-name=".null" horiz-adv-x="0" 
 />
    <glyph glyph-name="nonmarkingreturn" horiz-adv-x="569" 
 />
    <glyph glyph-name="pi1" horiz-adv-x="1124" 
 />
    <glyph glyph-name="middot" horiz-adv-x="682" 
 />
  </font>
</defs>
</svg>
