<?xml version="1.0" standalone="no"?>
<!DOCTYPE svg PUBLIC "-//W3C//DTD SVG 1.1//EN" "http://www.w3.org/Graphics/SVG/1.1/DTD/svg11.dtd" >
<svg>
<metadata>
Created by FontForge 20090914 at Wed Nov 21 08:52:36 2012
 By www-data
Digitized data copyright (c) 2010 Google Corporation.
Copyright (c) 2012 Red Hat, Inc.
</metadata>
<defs>
<font id="LiberationSans-Italic" horiz-adv-x="1139" >
  <font-face 
    font-family="Liberation Sans"
    font-weight="400"
    font-style="italic"
    font-stretch="normal"
    units-per-em="2048"
    panose-1="2 11 6 4 2 2 2 9 2 4"
    ascent="1638"
    descent="-410"
    x-height="1082"
    cap-height="1409"
    bbox="-1360 -621 2787 2077"
    underline-thickness="150"
    underline-position="-142"
    slope="-12"
    unicode-range="U+0020-U+FFFC"
  />
<missing-glyph horiz-adv-x="1536" 
 />
    <glyph glyph-name=".notdef" horiz-adv-x="1536" 
 />
    <glyph glyph-name="space" unicode=" " horiz-adv-x="569" 
 />
    <glyph glyph-name="exclam" unicode="!" horiz-adv-x="569" 
d="M329 397h-148l172 1012h196zM77 0l40 201h194l-40 -201h-194z" />
    <glyph glyph-name="quotedbl" unicode="&#x22;" horiz-adv-x="727" 
d="M697 966h-142l64 443h184zM328 966h-141l63 443h184z" />
    <glyph glyph-name="numbersign" unicode="#" 
d="M926 885l-78 -369h260v-108h-283l-88 -408h-110l86 408h-363l-84 -408h-110l84 408h-201v108h225l78 369h-252v108h274l89 408h110l-88 -408h363l88 408h110l-88 -408h211v-108h-233zM455 885l-80 -369h362l78 369h-360z" />
    <glyph glyph-name="dollar" unicode="$" 
d="M1072 425c0 -123.333 -45.834 -220.169 -137.501 -290.502s-223.167 -108.166 -394.5 -113.499l-31 -161h-114l32 163c-134 9.33301 -236.167 44 -306.5 104s-114.5 143 -132.5 249l163 37c16.667 -76.667 49.167 -134.667 97.5 -174s117.166 -62.333 206.499 -69l96 493
c-99.333 27.333 -173.166 56.166 -221.499 86.499s-85.166 67 -110.499 110s-38 95.833 -38 158.5c0 74.667 21.667 139.5 65 194.5s103.833 97.333 181.5 127s165.5 44.834 263.5 45.501l25 131h114l-27 -137c104 -12.667 186.833 -44 248.5 -94s101.167 -116 118.5 -198
l-156 -45c-30 111.333 -109.333 176 -238 194l-86 -441c130.667 -35.333 227 -83.666 289 -144.999s93 -136.333 93 -225zM886.999 412.997c0 52 -16.832 94.833 -50.499 128.5s-92.834 63.834 -177.501 90.501l-90 -463c212 11.333 318 92.666 318 243.999zM363 1018
c0 -44.667 15.001 -81.332 45.001 -109.999s88 -56.334 174 -83.001l81 415c-96.667 -3.33301 -170.834 -24 -222.501 -62s-77.5 -91.333 -77.5 -160z" />
    <glyph glyph-name="percent" unicode="%" horiz-adv-x="1821" 
d="M425 0h-165l1186 1409h167zM545 1421c83.333 0 147.331 -26.333 191.998 -79s67 -129 67 -229c0 -70.667 -9 -144.5 -27 -221.5s-45.333 -143.333 -82 -199s-79.167 -97.667 -127.5 -126s-102.166 -42.5 -161.499 -42.5c-82.667 0 -146.667 27.5 -192 82.5
s-68 133.167 -68 234.5c0 98 15.5 194.5 46.5 289.5s75.833 167.167 134.5 216.5s131.334 74 218.001 74zM543.998 1313c-44.667 0 -81.335 -10.335 -110.002 -31.002s-53.667 -53.167 -75 -97.5s-39.166 -102.166 -53.499 -173.499s-21.5 -132.666 -21.5 -183.999
c0 -126.667 42 -190 126 -190c56.667 0 103.334 22.333 140.001 67s65 111 85 199s30 164 30 228c0 121.333 -40.333 182 -121 182zM1474 884.998c83.333 0 147.331 -26.333 191.998 -79s67 -129 67 -229c0 -70.667 -9 -144.5 -27 -221.5s-45.333 -143.333 -82 -199
s-79.167 -97.667 -127.5 -126s-102.166 -42.5 -161.499 -42.5c-82.667 0 -146.667 27.5 -192 82.5s-68 133.167 -68 234.5c0 98 15.5 194.5 46.5 289.5s75.833 167.167 134.5 216.5s131.334 74 218.001 74zM1473 776.998c-44.667 0 -81.335 -10.335 -110.002 -31.002
s-53.667 -53.167 -75 -97.5s-39.166 -102.166 -53.499 -173.499s-21.5 -132.666 -21.5 -183.999c0 -126.667 42 -190 126 -190c56.667 0 103.334 22.333 140.001 67s65 111 85 199s30 164 30 228c0 121.333 -40.333 182 -121 182z" />
    <glyph glyph-name="ampersand" unicode="&#x26;" horiz-adv-x="1366" 
d="M1248 684c-92.667 -210 -189.669 -368.668 -291.002 -476.001c26.667 -25.333 56.834 -44.833 90.501 -58.5s65.834 -20.5 96.501 -20.5c40 0 77.333 5.33301 112 16l-13 -135c-40 -14.667 -81.667 -22 -125 -22c-99.333 0 -189.666 40.667 -270.999 122
c-118.667 -86.667 -254.334 -130 -407.001 -130c-126 0 -225.333 33.5 -298 100.5s-109 157.167 -109 270.5c0 104.667 31 191.167 93 259.5s174 133.5 336 195.5c-18.667 79.333 -28 156 -28 230c0 115.333 36.167 207.666 108.5 276.999s169.166 104 290.499 104
c92 0 166.833 -24 224.5 -72s86.5 -111.333 86.5 -190c0 -77.333 -27.167 -144.666 -81.5 -201.999s-151.5 -113.666 -291.5 -168.999l-125 -50c50.667 -149.333 123.334 -289 218.001 -419c40 45.333 79 99.333 117 162s83 150 135 262zM451.998 110.999
c108.667 0 209 33.666 301 100.999c-48.667 60 -95.334 130.833 -140.001 212.5s-81.667 165.167 -111 250.5c-112 -44 -189.833 -90.167 -233.5 -138.5s-65.5 -109.166 -65.5 -182.499c0 -74 22.833 -133 68.5 -177s105.834 -66 180.501 -66zM591.998 1041
c0 -52 6.33398 -111.331 19.001 -177.998l148 55c46 17.333 86.167 36.666 120.5 57.999s61.333 45.666 81 72.999s29.5 60.333 29.5 99c0 43.333 -15.167 78.833 -45.5 106.5s-69.833 41.5 -118.5 41.5c-74.667 0 -132.334 -22.5 -173.001 -67.5s-61 -107.5 -61 -187.5z
" />
    <glyph glyph-name="quotesingle" unicode="'" horiz-adv-x="391" 
d="M343 966h-141l63 443h184z" />
    <glyph glyph-name="parenleft" unicode="(" horiz-adv-x="682" 
d="M855 1484c-385.333 -339.333 -578 -746.668 -578 -1222c0 -259.333 69 -488 207 -686h-174c-142.667 197.333 -214 431.333 -214 702c0 248 50 474.333 150 679s245 380.334 435 527.001h174z" />
    <glyph glyph-name="parenright" unicode=")" horiz-adv-x="682" 
d="M-199 -424c385.333 339.333 578 746.668 578 1222c0 259.333 -69 488 -207 686h174c142.667 -197.333 214 -431.333 214 -702c0 -248 -50 -474.333 -150 -679s-245 -380.334 -435 -527.001h-174z" />
    <glyph glyph-name="asterisk" unicode="*" horiz-adv-x="797" 
d="M543 1114l264 103l45 -132l-282 -73l185 -250l-119 -72l-150 258l-156 -256l-119 72l189 248l-280 73l45 134l267 -107l-12 297h136z" />
    <glyph glyph-name="plus" unicode="+" horiz-adv-x="1196" 
d="M701 608v-428h-147v428h-424v146h424v428h147v-428h424v-146h-424z" />
    <glyph glyph-name="comma" unicode="," horiz-adv-x="569" 
d="M160 -262l-123 0.000976562c80 91.333 128.333 178.666 145 261.999h-88l42 219h195l-32 -168c-12 -63.333 -29 -120 -51 -170s-51.333 -97.667 -88 -143z" />
    <glyph glyph-name="hyphen" unicode="-" horiz-adv-x="682" 
d="M105 464l31 160h500l-31 -160h-500z" />
    <glyph glyph-name="period" unicode="." horiz-adv-x="569" 
d="M80 0l43 219h195l-43 -219h-195z" />
    <glyph glyph-name="slash" unicode="/" horiz-adv-x="569" 
d="M-116 -20l703 1504h158l-700 -1504h-161z" />
    <glyph glyph-name="zero" unicode="0" 
d="M732 1430c122 0 217.501 -40.999 286.501 -122.999s103.5 -196.333 103.5 -343c0 -170.667 -26 -335.834 -78 -495.501s-125.667 -281 -221 -364s-211 -124.5 -347 -124.5c-120.667 0 -215.334 43 -284.001 129s-103 204.667 -103 356c0 120 14.833 242 44.5 366
s71 231.333 124 322s118.667 159.5 197 206.5s170.833 70.5 277.5 70.5zM491.001 127.001c100.667 0 182.834 35.333 246.501 106s114.5 180.5 152.5 329.5s57 285.833 57 410.5c0 103.333 -19.833 181 -59.5 233s-95.5 78 -167.5 78
c-100.667 0 -182.834 -35.333 -246.501 -106s-114.5 -180.5 -152.5 -329.5s-57 -285.833 -57 -410.5c0 -103.333 19.833 -181 59.5 -233s95.5 -78 167.5 -78z" />
    <glyph glyph-name="one" unicode="1" 
d="M53 0l30 153h359l208 1070l-361 -223l35 180l377 229h166l-244 -1256h343l-30 -153h-883z" />
    <glyph glyph-name="two" unicode="2" 
d="M-12 0l23.999 127c36.667 62 77.667 117.333 123 166s92.666 92.834 141.999 132.501s99.5 75.834 150.5 108.501l148 94.5c47.667 30.333 92.334 60.5 134.001 90.5s78.167 62 109.5 96s56 71.167 74 111.5s27 85.833 27 136.5c0 65.333 -20.833 118.166 -62.5 158.499
s-97.834 60.5 -168.501 60.5c-72.667 0 -136 -19.833 -190 -59.5s-93.333 -99.167 -118 -178.5l-170 37c36 113.333 95.333 199.833 178 259.5s186.334 89.5 311.001 89.5c121.333 0 219.833 -32.667 295.5 -98s113.5 -150 113.5 -254c0 -70.667 -17 -138.334 -51 -203.001
s-85.167 -126.667 -153.5 -186s-171.166 -132.333 -308.499 -219c-98 -62 -177.167 -118.333 -237.5 -169s-105.833 -100 -136.5 -148h727l-29 -153h-932z" />
    <glyph glyph-name="three" unicode="3" 
d="M566 795c122 0 213.164 24.3301 273.497 72.9971s90.5 119.667 90.5 213c0 62 -20.167 111 -60.5 147s-94.166 54 -161.499 54c-79.333 0 -147.5 -20.333 -204.5 -61s-96.833 -98 -119.5 -172l-178 14c38.667 124 102.5 216.167 191.5 276.5s195.833 90.5 320.5 90.5
s223 -30.667 295 -92s108 -145.333 108 -252c0 -102 -32.167 -185.167 -96.5 -249.5s-154.833 -104.166 -271.5 -119.499l-1 -4c87.333 -17.333 155.333 -52.166 204 -104.499s73 -119.5 73 -201.5c0 -83.333 -20.167 -157.5 -60.5 -222.5s-98.666 -115.333 -174.999 -151
s-165.5 -53.5 -267.5 -53.5c-85.333 0 -160.666 14.667 -225.999 44s-119.5 70.833 -162.5 124.5s-72.833 116.834 -89.5 189.501l164 48c20 -77.333 59.333 -139.5 118 -186.5s129 -70.5 211 -70.5c94 0 167.5 24.833 220.5 74.5s79.5 116.5 79.5 200.5
c0 74.667 -25 132.5 -75 173.5s-118 61.5 -204 61.5h-124l30 156h98z" />
    <glyph glyph-name="four" unicode="4" 
d="M846 319l-62 -319h-180l62 319h-653l27 140l819 950h199l-184 -948h188l-28 -142h-188zM826 1157l-599 -696h467z" />
    <glyph glyph-name="five" unicode="5" 
d="M343 1409h800.999l-29 -153h-637l-114 -447c33.333 28 74 50 122 66s99.667 24 155 24c122.667 0 221.667 -35.5 297 -106.5s113 -166.5 113 -286.5c0 -164 -48 -292.667 -144 -386s-230 -140 -402 -140c-247.333 0 -400.333 109.667 -459 329l163 43
c20.667 -76 57.334 -132.5 110.001 -169.5s118 -55.5 196 -55.5c110.667 0 196 31.167 256 93.5s90 150.833 90 265.5c0 81.333 -23 146 -69 194s-107.667 72 -185 72c-108.667 0 -202.667 -33.667 -282 -101h-176z" />
    <glyph glyph-name="six" unicode="6" 
d="M534 -20c-128.667 0 -230.668 44.667 -306.001 134s-113 206 -113 350c0 160.667 27.833 319.5 83.5 476.5s131.834 277.833 228.501 362.5s208 127 334 127c100 0 182.167 -23.833 246.5 -71.5s108.166 -116.834 131.499 -207.501l-166 -36
c-16.667 54 -44 95.667 -82 125s-84 44 -138 44c-109.333 0 -202.333 -48.667 -279 -146s-132.334 -234.666 -167.001 -411.999c40 60 90.5 105.833 151.5 137.5s129.167 47.5 204.5 47.5c114.667 0 207.334 -35 278.001 -105s106 -161 106 -273
c0 -101.333 -22.167 -194.833 -66.5 -280.5s-105.666 -152.5 -183.999 -200.5s-165.833 -72 -262.5 -72zM287.999 421c0 -87.333 22.668 -158.5 68.001 -213.5s106 -82.5 182 -82.5c92.667 0 169.667 37.5 231 112.5s92 169.833 92 284.5
c0 76.667 -19.833 137.5 -59.5 182.5s-96.834 67.5 -171.501 67.5c-62 0 -119.167 -14.167 -171.5 -42.5s-93.833 -68.5 -124.5 -120.5s-46 -114.667 -46 -188z" />
    <glyph glyph-name="seven" unicode="7" 
d="M435 0l-188.001 -0.00390625c27.333 136 68.833 265.333 124.5 388s125 244.334 208 365.001s218.5 288.334 406.5 503.001h-774l29 153h961l-28 -146c-148.667 -174.667 -251.334 -298.667 -308.001 -372s-107.667 -144.666 -153 -213.999
s-85.666 -139.5 -120.999 -210.5s-66.166 -145.167 -92.499 -222.5s-47.833 -158.666 -64.5 -243.999z" />
    <glyph glyph-name="eight" unicode="8" 
d="M704 1429c127.333 0 229.666 -30.501 306.999 -91.501s116 -143.167 116 -246.5c0 -93.333 -28.833 -172.666 -86.5 -237.999s-135.5 -105.333 -233.5 -120l-1 -4c73.333 -22 129.5 -58.667 168.5 -110s58.5 -113.666 58.5 -186.999
c0 -138.667 -47.333 -248.667 -142 -330s-225 -122 -391 -122c-142 0 -251.833 33.667 -329.5 101s-116.5 160.333 -116.5 279c0 100 30.333 184.5 91 253.5s149.334 116.5 266.001 142.5v4c-60.667 25.333 -107.667 63.166 -141 113.499s-50 109.833 -50 178.5
c0 118 43.333 210.333 130 277s204.667 100 354 100zM658 810.999c89.333 0 158.833 23.835 208.5 71.502s74.5 115.834 74.5 204.501c0 65.333 -21.833 116.166 -65.5 152.499s-107.834 54.5 -192.501 54.5c-88.667 0 -158 -22.333 -208 -67s-75 -109.334 -75 -194.001
c0 -68.667 22.833 -122.834 68.5 -162.501s108.834 -59.5 189.501 -59.5zM566 672.001c-104 0 -184.5 -27.667 -241.5 -83s-85.5 -133 -85.5 -233c0 -74.667 24.667 -133.167 74 -175.5s118 -63.5 206 -63.5c98.667 0 178.5 28.667 239.5 86s91.5 135 91.5 233
c0 74 -25.5 131.833 -76.5 173.5s-120.167 62.5 -207.5 62.5z" />
    <glyph glyph-name="nine" unicode="9" 
d="M898 684c-89.333 -135.333 -202.332 -202.997 -338.999 -202.997c-78.667 0 -148 17.167 -208 51.5s-106.333 82.166 -139 143.499s-49 129.666 -49 204.999c0 101.333 22 194.166 66 278.499s105.833 150.5 185.5 198.5s168.834 72 267.501 72
c130.667 0 232.5 -42.333 305.5 -127s109.5 -200 109.5 -346c0 -103.333 -12.5 -211.166 -37.5 -323.499s-58.5 -210.166 -100.5 -293.499s-89.667 -151.833 -143 -205.5s-111 -92.834 -173 -117.501s-125.333 -37 -190 -37c-205.333 0 -333 92.333 -383 277l158 45
c16 -56.667 43.667 -100.334 83 -131.001s89.333 -46 150 -46c105.333 0 195.166 48.167 269.499 144.5s130.166 234.5 167.499 414.5zM925.001 1017c0 80.667 -23 145.333 -69 194s-105.333 73 -178 73c-98.667 0 -178.667 -36 -240 -108s-92 -171 -92 -297
c0 -81.333 21 -144.333 63 -189s99 -67 171 -67c62.667 0 121.5 17 176.5 51s96.833 79.333 125.5 136s43 125.667 43 207z" />
    <glyph glyph-name="colon" unicode=":" horiz-adv-x="569" 
d="M251 875l41 207h195l-41 -207h-195zM81 0l41 207h195l-41 -207h-195z" />
    <glyph glyph-name="semicolon" unicode=";" horiz-adv-x="569" 
d="M161 -262l-123 0.000976562c80 91.333 128.333 178.666 145 261.999h-88l40 207h195l-30 -156c-12 -63.333 -29 -120 -51 -170s-51.333 -97.667 -88 -143zM265 875.001l40 207h195l-40 -207h-195z" />
    <glyph glyph-name="less" unicode="&#x3c;" horiz-adv-x="1196" 
d="M131 571v205l995 418v-154l-858 -366l858 -367v-153z" />
    <glyph glyph-name="equal" unicode="=" horiz-adv-x="1196" 
d="M130 856v148h995v-148h-995zM130 344v148h995v-148h-995z" />
    <glyph glyph-name="greater" unicode="&#x3e;" horiz-adv-x="1196" 
d="M131 154v153l858 367l-858 366v154l995 -418v-205z" />
    <glyph glyph-name="question" unicode="?" 
d="M701 1430c131.333 0 236.165 -33.3301 314.498 -99.9971s117.5 -152.334 117.5 -257.001c0 -64.667 -10.167 -119.834 -30.5 -165.501s-46.666 -85.334 -78.999 -119.001s-68.666 -62.834 -108.999 -87.501l-120.5 -72c-84.667 -48 -143.334 -90.667 -176.001 -128
s-53.667 -78.666 -63 -123.999h-175c8.66699 53.333 24.667 99.833 48 139.5s52.5 75.167 87.5 106.5s97.167 72.333 186.5 123c70.667 40 121.334 73.833 152.001 101.5s53.667 58.167 69 91.5s23 71 23 113c0 65.333 -24.333 118 -73 158s-111.667 60 -189 60
c-93.333 0 -170.333 -23.333 -231 -70s-103.667 -110.667 -129 -192l-165 40c42 130 108.5 226.167 199.5 288.5s205.167 93.5 342.5 93.5zM298.999 0.00292969l39 201h195l-39 -201h-195z" />
    <glyph glyph-name="at" unicode="@" horiz-adv-x="2079" 
d="M1935 755c0 -124 -19.1689 -236.169 -57.502 -336.502s-91.666 -177.833 -159.999 -232.5s-144.833 -82 -229.5 -82c-67.333 0 -118.666 15.167 -153.999 45.5s-53 73.833 -53 130.5l3 70h-6c-44 -82 -98.5 -143.5 -163.5 -184.5s-135.167 -61.5 -210.5 -61.5
c-104.667 0 -185.834 34 -243.501 102s-86.5 162.333 -86.5 283c0 109.333 21.5 211 64.5 305s103.167 168.667 180.5 224s163 83 257 83c146 0 246.333 -60.667 301 -182h6l39 160h156l-116 -506c-24.667 -109.333 -37 -193.666 -37 -252.999c0 -62.667 27 -94 81 -94
c53.333 0 102.5 23 147.5 69s80.5 109.333 106.5 190s39 170 39 268c0 119.333 -25.667 225.166 -77 317.499s-125.333 163.333 -222 213s-209.667 74.5 -339 74.5c-161.333 0 -304 -35.667 -428 -107s-221.333 -174.166 -292 -308.499s-106 -284.833 -106 -451.5
c0 -128.667 26.167 -242.167 78.5 -340.5s128 -173.833 227 -226.5s214.5 -79 346.5 -79c208.667 0 409.667 54 603 162l55 -112c-96.667 -58 -201.5 -102.167 -314.5 -132.5s-227.5 -45.5 -343.5 -45.5c-160 0 -299.833 31.667 -419.5 95s-211.834 154 -276.501 272
s-97 253.667 -97 407c0 186.667 41.5 356.334 124.5 509.001s198.167 271.5 345.5 356.5s312.333 127.5 495 127.5c160.667 0 299.334 -30.167 416.001 -90.5s205.834 -145.5 267.501 -255.5s92.5 -237.667 92.5 -383zM1329 746.998c0 68 -22.002 122.832 -66.002 164.499
s-102.667 62.5 -176 62.5c-67.333 0 -127.166 -21.167 -179.499 -63.5s-93.5 -101.5 -123.5 -177.5s-45 -156.667 -45 -242c0 -80 15.833 -142.667 47.5 -188s80.5 -68 146.5 -68c53.333 0 104.333 14.667 153 44s91.334 69.833 128.001 121.5s65 110.334 85 176.001
s30 122.5 30 170.5z" />
    <glyph glyph-name="A" unicode="A" horiz-adv-x="1366" 
d="M1061 0l-75 412h-639l-240 -412h-208l848 1409h217l292 -1409h-195zM830 1265c-8.66699 -17.333 -21 -40.333 -37 -69l-362 -635h527l-102 553z" />
    <glyph glyph-name="B" unicode="B" horiz-adv-x="1366" 
d="M336 1409l510.001 -0.000976562c139.333 0 249.166 -28.833 329.499 -86.5s120.5 -136.167 120.5 -235.5c0 -190 -113 -304.667 -339 -344c92 -15.333 163.333 -50.166 214 -104.499s76 -120.833 76 -199.5c0 -142 -52 -250.667 -156 -326s-248.333 -113 -433 -113h-595z
M411.001 809.999h331c236.667 0 355 86 355 258c0 125.333 -89.333 188 -268 188h-331zM283.001 152.999l368 0.000976562c140 0 242.5 24.5 307.5 73.5s97.5 120.833 97.5 215.5c0 71.333 -26.5 125.666 -79.5 162.999s-129.167 56 -228.5 56h-366z" />
    <glyph glyph-name="C" unicode="C" horiz-adv-x="1479" 
d="M1358 337c-84 -125.333 -179.333 -216.166 -286 -272.499s-230.667 -84.5 -372 -84.5c-120.667 0 -225.5 24.167 -314.5 72.5s-156.667 117.166 -203 206.499s-69.5 192.666 -69.5 309.999c0 164 35 312.333 105 445s167.167 235.167 291.5 307.5
s263.166 108.5 416.499 108.5c144.667 0 266.834 -30.167 366.501 -90.5s165.5 -145.166 197.5 -254.499l-180 -55c-24 74.667 -70.5 134 -139.5 178s-153.833 66 -254.5 66c-122.667 0 -230.667 -29.5 -324 -88.5s-165 -142 -215 -249s-75 -230.5 -75 -370.5
c0 -133.333 36.333 -238.5 109 -315.5s173.334 -115.5 302.001 -115.5c98.667 0 190.667 24.5 276 73.5s160.666 121.5 225.999 217.5z" />
    <glyph glyph-name="D" unicode="D" horiz-adv-x="1479" 
d="M744 1409c208 0 371.5 -54.832 490.5 -164.499s178.5 -260.834 178.5 -453.501c0 -157.333 -34.333 -295 -103 -413s-167.5 -210.5 -296.5 -277.5s-275.167 -100.5 -438.5 -100.5h-512l273 1409h408zM283 153.001h284c130 0 244.667 25.833 344 77.5s175.5 126 228.5 223
s79.5 210.167 79.5 339.5c0 146 -42 259.667 -126 341s-201.667 122 -353 122h-242z" />
    <glyph glyph-name="E" unicode="E" horiz-adv-x="1366" 
d="M63 0l273 1409h1049l-30 -156h-858l-88 -452h798l-30 -154h-798l-95 -491h899l-30 -156h-1090z" />
    <glyph glyph-name="F" unicode="F" horiz-adv-x="1251" 
d="M497 1253l-102 -524h796l-31 -158h-796l-110 -571h-191l273 1409h1011l-30 -156h-820z" />
    <glyph glyph-name="G" unicode="G" horiz-adv-x="1593" 
d="M742 -20c-203.333 0 -361 52.002 -473 156.002s-168 249.667 -168 437c0 166 35 314.5 105 445.5s169.167 232.333 297.5 304s275.166 107.5 440.499 107.5c148 0 269.333 -28 364 -84s160.334 -138.667 197.001 -248l-193 -54
c-24.667 76.667 -69.334 134.167 -134.001 172.5s-146.667 57.5 -246 57.5c-128 0 -240.167 -28.667 -336.5 -86s-170.166 -138.833 -221.499 -244.5s-77 -227.834 -77 -366.501c0 -140.667 39.333 -249.5 118 -326.5s189.667 -115.5 333 -115.5c92 0 180 13.167 264 39.5
s157 65.166 219 116.499l51 254h-421l32 160h597l-100 -495c-93.333 -80 -192.833 -138.333 -298.5 -175s-222.167 -55 -349.5 -55z" />
    <glyph glyph-name="H" unicode="H" horiz-adv-x="1479" 
d="M1021 0l127 653h-767l-127 -653h-191l274 1409h191l-116 -596h767l116 596h186l-274 -1409h-186z" />
    <glyph glyph-name="I" unicode="I" horiz-adv-x="569" 
d="M81 0l274 1409h191l-274 -1409h-191z" />
    <glyph glyph-name="J" unicode="J" horiz-adv-x="1024" 
d="M381 -20c-106 0 -192.499 31 -259.499 93s-109.167 152 -126.5 270l168 33c15.333 -78 41.666 -137.667 78.999 -179s89.333 -62 156 -62c70 0 126.667 24.167 170 72.5s75 125.833 95 232.5l157 813h-291l30 156h481l-193 -986c-28.667 -149.333 -81 -260.5 -157 -333.5
s-179 -109.5 -309 -109.5z" />
    <glyph glyph-name="K" unicode="K" horiz-adv-x="1366" 
d="M1022 0l-472 674l-190 -129l-106 -545h-191l273 1409h191l-136 -691l140 129l665 562h245l-750 -630l557 -779h-226z" />
    <glyph glyph-name="L" unicode="L" 
d="M63 0l273 1409h191l-243 -1253h712l-30 -156h-903z" />
    <glyph glyph-name="M" unicode="M" horiz-adv-x="1706" 
d="M1261 0l180 928.001c24 123.333 45.667 223.333 65 300c-60.667 -126 -109 -219.333 -145 -280l-548 -948h-124l-185 948c-4 19.333 -17.667 112.666 -41 279.999c-6 -40 -16 -102.5 -30 -187.5s-80.667 -431.833 -200 -1040.5h-170l273 1409h236l189 -977
c5.33301 -26 16 -94.333 32 -205l104 213l553 969h256l-273 -1409h-172z" />
    <glyph glyph-name="N" unicode="N" horiz-adv-x="1479" 
d="M987 0l-531 1210c-14.667 -114 -28.667 -203 -42 -267l-181 -943h-170l273 1409h212l534 -1215c17.333 126 32.333 220.667 45 284l181 931h172l-273 -1409h-220z" />
    <glyph glyph-name="O" unicode="O" horiz-adv-x="1593" 
d="M938 1430c184.667 0 330.499 -52.332 437.499 -156.999s160.5 -245.334 160.5 -422.001c-3.33301 -178.667 -40.666 -333.167 -111.999 -463.5s-169 -230.833 -293 -301.5s-264.667 -106 -422 -106c-189.333 0 -336.333 52.5 -441 157.5s-157 250.167 -157 435.5
c0 159.333 35.167 305.833 105.5 439.5s168.5 236.667 294.5 309s268.333 108.5 427 108.5zM928.999 1276c-133.333 0 -246.499 -29.667 -339.499 -89s-164.167 -148 -213.5 -266s-74 -237.333 -74 -358c0 -139.333 35.5 -245.5 106.5 -318.5s174.167 -109.5 309.5 -109.5
c131.333 0 243.166 28.833 335.499 86.5s164 144.167 215 259.5s76.5 237.333 76.5 366c0 138 -36.167 244 -108.5 318s-174.833 111 -307.5 111z" />
    <glyph glyph-name="P" unicode="P" horiz-adv-x="1366" 
d="M852 1409c154 0 276 -34.666 366 -103.999s135 -164.333 135 -285c0 -146.667 -50.833 -261.834 -152.5 -345.501s-240.5 -125.5 -416.5 -125.5h-424l-106 -549h-191l273 1409h516zM390 700.001h387.001c254.667 0 382 103.667 382 311c0 79.333 -26.333 140 -79 182
s-130.334 63 -233.001 63h-349z" />
    <glyph glyph-name="Q" unicode="Q" horiz-adv-x="1593" 
d="M928 1430c184.667 0 330.501 -52.3281 437.501 -156.995s160.5 -245.334 160.5 -422.001c-3.33301 -162.667 -34.666 -305.334 -93.999 -428.001s-141.5 -221.334 -246.5 -296.001s-226.167 -121 -363.5 -139c11.333 -80.667 33.666 -139.5 66.999 -176.5
s83 -55.5 149 -55.5c38.667 0 79.667 4.33301 123 13l-18 -134c-50.667 -14.667 -107 -22 -169 -22c-100.667 0 -178 28.667 -232 86s-88.667 152 -104 284c-168.667 11.333 -300.334 68.666 -395.001 171.999s-142 242.666 -142 417.999
c0 159.333 35.167 305.833 105.5 439.5s168.5 236.667 294.5 309s268.333 108.5 427 108.5zM919.001 1276c-133.333 0 -246.499 -29.667 -339.499 -89s-164.167 -148 -213.5 -266s-74 -237.333 -74 -358c0 -139.333 35.5 -245.5 106.5 -318.5s174.167 -109.5 309.5 -109.5
c131.333 0 243.166 28.833 335.499 86.5s164 144.167 215 259.5s76.5 237.333 76.5 366c0 138 -36.167 244 -108.5 318s-174.833 111 -307.5 111z" />
    <glyph glyph-name="R" unicode="R" horiz-adv-x="1479" 
d="M1051 0l-243.001 584.998h-441l-113 -585h-191l273 1409h612c142.667 0 256.334 -34 341.001 -102s127 -157.333 127 -268c0 -125.333 -36 -224.666 -108 -297.999s-178.333 -119.666 -319 -138.999l268 -602h-206zM856.999 735.998
c120.667 0 211.668 25.168 273.001 75.501s92 121.166 92 212.499c0 74.667 -24.833 132 -74.5 172s-123.834 60 -222.501 60h-427l-101 -520h460z" />
    <glyph glyph-name="S" unicode="S" horiz-adv-x="1366" 
d="M616 -20c-166 0 -294.835 29.5 -386.502 88.5s-148.834 148.833 -171.501 269.5l177 37c18 -86 58 -148.333 120 -187s153.667 -58 275 -58c146 0 252.667 21.833 320 65.5s101 110.5 101 200.5c0 44.667 -9.66699 80.5 -29 107.5s-52.333 51.333 -99 73
s-127 48.5 -241 80.5c-114 31.333 -199.167 63.5 -255.5 96.5s-99 72.833 -128 119.5s-43.5 102.667 -43.5 168c0 121.333 51.167 216.5 153.5 285.5s240.833 103.5 415.5 103.5c146.667 0 264.334 -25.333 353.001 -76s144.334 -124.667 167.001 -222l-173 -51
c-22 70 -61.5 121.667 -118.5 155s-133.5 50 -229.5 50c-250.667 0 -376 -78.667 -376 -236c0 -40 8.5 -72.667 25.5 -98s45 -47.5 84 -66.5s116.5 -44.167 232.5 -75.5c130 -36 223.5 -70.667 280.5 -104s100.667 -73.833 131 -121.5s45.5 -106.5 45.5 -176.5
c0 -137.333 -51.667 -243 -155 -317s-261.666 -111 -474.999 -111z" />
    <glyph glyph-name="T" unicode="T" horiz-adv-x="1251" 
d="M858 1253l-244 -1253h-190l244 1253h-484l30 156h1158l-30 -156h-484z" />
    <glyph glyph-name="U" unicode="U" horiz-adv-x="1479" 
d="M654 -20c-155.333 0 -277.667 40.168 -367 120.501s-134 190.5 -134 330.5c0 29.333 2.5 64.5 7.5 105.5s10.167 73.833 15.5 98.5l150 774h191l-162 -843c-11.333 -58 -17 -105.667 -17 -143c0 -90.667 29.167 -161.334 87.5 -212.001s139.833 -76 244.5 -76
c256 0 409.667 135.333 461 406l168 868h190l-170 -879c-36 -182 -110 -319.167 -222 -411.5s-259.667 -138.5 -443 -138.5z" />
    <glyph glyph-name="V" unicode="V" horiz-adv-x="1366" 
d="M677 0h-198l-302 1409h194l198 -992l35 -249l133 249l580 992h208z" />
    <glyph glyph-name="W" unicode="W" horiz-adv-x="1933" 
d="M1406 0l-223.001 -0.000976562l-71 895c-9.33301 183.333 -14.666 291.333 -15.999 324c-50.667 -132.667 -95.667 -240.667 -135 -324l-419 -895h-223l-142 1409h197l79 -895c8 -103.333 13.333 -218.666 16 -345.999l130.5 302l443.5 939h183l75 -877
c9.33301 -102.667 15 -224 17 -364l16 35l78 184c20 46 180.333 386.667 481 1022h201z" />
    <glyph glyph-name="X" unicode="X" horiz-adv-x="1366" 
d="M999 0l-303 606l-524 -606h-211l654 746l-340 663h199l270 -551l475 551h211l-600 -676l368 -733h-199z" />
    <glyph glyph-name="Y" unicode="Y" horiz-adv-x="1366" 
d="M672 0h-190l115 584l-384 825h196l306 -674l560 674h214l-704 -825z" />
    <glyph glyph-name="Z" unicode="Z" horiz-adv-x="1251" 
d="M1082 0h-1122l27 143l1054 1110h-765l30 156h1002l-27 -139l-1054 -1114h885z" />
    <glyph glyph-name="bracketleft" unicode="[" horiz-adv-x="569" 
d="M-39 -425l370 1909h407l-25 -129h-233l-321 -1651h233l-25 -129h-406z" />
    <glyph glyph-name="backslash" unicode="\" horiz-adv-x="569" 
d="M320 -20l-174 1504h148l178 -1504h-152z" />
    <glyph glyph-name="bracketright" unicode="]" horiz-adv-x="569" 
d="M-169 -425l25 129h232l321 1651h-233l25 129h407l-371 -1909h-406z" />
    <glyph glyph-name="asciicircum" unicode="^" horiz-adv-x="961" 
d="M817 673l-309 633l-306 -633h-162l368 736h203l370 -736h-164z" />
    <glyph glyph-name="underscore" unicode="_" 
d="M-160 -250v76h1178v-76h-1178z" />
    <glyph glyph-name="grave" unicode="`" horiz-adv-x="682" 
d="M412 1201l-282 278l5 29h207l161 -287l-3 -20h-88z" />
    <glyph glyph-name="a" unicode="a" 
d="M927 -10c-62 0 -107.167 12.834 -135.5 38.501s-42.5 63.834 -42.5 114.501l5 64h-6c-55.333 -84 -112.666 -142.833 -171.999 -176.5s-131 -50.5 -215 -50.5c-93.333 0 -169.166 28 -227.499 84s-87.5 127.333 -87.5 214c0 123.333 44.167 216.666 132.5 279.999
s229.166 96.333 422.499 99l232 3c12.667 65.333 19 107.666 19 126.999c0 60.667 -17.667 105.5 -53 134.5s-84.333 43.5 -147 43.5c-79.333 0 -139.333 -14.167 -180 -42.5s-70 -71.5 -88 -129.5l-178 29c30 98 82.167 169.167 156.5 213.5s174.166 66.5 299.499 66.5
c114 0 204.167 -26.667 270.5 -80s99.5 -125 99.5 -215c0 -42.667 -6.33301 -95 -19 -157l-74 -378c-7.33301 -32 -11 -61.333 -11 -88c0 -48.667 27 -73 81 -73c18 0 38 2.33301 60 7l-14 -112c-44 -10.667 -86.667 -16 -128 -16zM809 536.001l-199 -4.00098
c-79.333 -2 -141.666 -9.16699 -186.999 -21.5s-80.5 -28 -105.5 -47s-44.667 -43 -59 -72s-21.5 -64.167 -21.5 -105.5c0 -50 16.167 -90.667 48.5 -122s74.166 -47 125.499 -47c64.667 0 123 13.833 175 41.5s95 63.834 129 108.501s56.333 92.667 67 144z" />
    <glyph glyph-name="b" unicode="b" 
d="M744 1102c104.667 0 186.163 -31.5 244.496 -94.5s87.5 -149.5 87.5 -259.5c0 -135.333 -20.5 -266.5 -61.5 -393.5s-98.667 -221.167 -173 -282.5s-169.166 -92 -284.499 -92c-82 0 -148.667 17.333 -200 52s-87.666 83.334 -108.999 146.001h-3
c-4.66699 -24.667 -12.667 -60 -24 -106s-17.666 -70 -18.999 -72h-173c3.33301 10 9.83301 37.333 19.5 82l29.5 141l245 1261h180l-83 -423c-5.33301 -30.667 -16.666 -77.334 -33.999 -140.001h4c48.667 63.333 100 109.333 154 138s120.667 43 200 43zM691.996 963
c-66 0 -122.498 -13.5 -169.498 -40.5s-86.833 -67.667 -119.5 -122s-58.334 -122.333 -77.001 -204s-28 -154.834 -28 -219.501c0 -83.333 21.167 -148.166 63.5 -194.499s101.166 -69.5 176.499 -69.5c82.667 0 148 25.167 196 75.5s85.667 130.333 113 240
s41 205.5 41 287.5s-15.667 143.667 -47 185s-81 62 -149 62z" />
    <glyph glyph-name="c" unicode="c" horiz-adv-x="1024" 
d="M469 122c136.667 0 232.999 76.668 288.999 230.001l156 -49c-80.667 -215.333 -230.334 -323 -449.001 -323c-128 0 -226.333 36.333 -295 109s-103 174.667 -103 306c0 133.333 24.167 257.333 72.5 372s112.333 199.167 192 253.5s177.5 81.5 293.5 81.5
c112.667 0 201.834 -28.333 267.501 -85s101.834 -134.334 108.501 -233.001l-177 -25c-4 64.667 -24 114.5 -60 149.5s-84.333 52.5 -145 52.5c-84 0 -152 -22.5 -204 -67.5s-92.333 -116.5 -121 -214.5s-43 -194.667 -43 -290c0 -178 72.667 -267 218 -267z" />
    <glyph glyph-name="d" unicode="d" 
d="M401 -21c-104.667 0 -186.166 31.501 -244.499 94.501s-87.5 149.5 -87.5 259.5c0 135.333 20.5 266.5 61.5 393.5s98.667 221.167 173 282.5s169.166 92 284.499 92c82 0 148.833 -17.333 200.5 -52s88.167 -83.334 109.5 -146.001h5l28 162l82 419h180l-245 -1261
c-19.333 -94 -32 -168.333 -38 -223h-172c0 34 7 87.333 21 160h-5c-48.667 -63.333 -100 -109.333 -154 -138s-120.333 -43 -199 -43zM453.001 118.001c66 0 122.497 13.5 169.497 40.5s86.833 67.667 119.5 122s58.334 122.333 77.001 204s28 154.834 28 219.501
c0 83.333 -21.167 148.166 -63.5 194.499s-101.166 69.5 -176.499 69.5c-81.333 0 -145.666 -24.167 -192.999 -72.5s-85.333 -127.333 -114 -237s-43 -207.5 -43 -293.5c0 -82 15.667 -143.667 47 -185s81 -62 149 -62z" />
    <glyph glyph-name="e" unicode="e" 
d="M256 503c-4 -23.333 -7 -61 -9 -113c0 -88.667 22.167 -156.667 66.5 -204s111.166 -71 200.499 -71c64.667 0 123.334 16 176.001 48s93.667 75.667 123 131l138 -63c-48.667 -87.333 -110.5 -151 -185.5 -191s-165.833 -60 -272.5 -60
c-134 0 -238.167 37.167 -312.5 111.5s-111.5 178.833 -111.5 313.5c0 134 23.667 254.167 71 360.5s114 189 200 248s182.667 88.5 290 88.5c136.667 0 243 -34.333 319 -103s114 -165.667 114 -291c0 -70 -8 -138.333 -24 -205h-783zM880 641l4 72
c0 82.667 -21.5 146 -64.5 190s-104.833 66 -185.5 66c-89.333 0 -164.5 -28.5 -225.5 -85.5s-103.833 -137.833 -128.5 -242.5h600z" />
    <glyph glyph-name="f" unicode="f" horiz-adv-x="569" 
d="M434 951l-185 -951h-180l185 951h-152l26 131h152l23 122c15.333 74.667 35.5 130.5 60.5 167.5s58.167 65 99.5 84s94.333 28.5 159 28.5c49.333 0 90.666 -4 123.999 -12l-26 -137l-45 6l-46 2c-42 0 -74.167 -10.833 -96.5 -32.5s-40.166 -65.5 -53.499 -131.5
l-19 -97h211l-26 -131h-211z" />
    <glyph glyph-name="g" unicode="g" 
d="M397 -425c-226 0 -357 83.998 -393 251.998l163 42c23.333 -104.667 101.333 -157 234 -157c94.667 0 168 24.5 220 73.5s88.667 129.5 110 241.5l34 174h-2c-41.333 -59.333 -77.833 -102 -109.5 -128s-67.334 -46 -107.001 -60s-85.167 -21 -136.5 -21
c-102 0 -184.167 33.5 -246.5 100.5s-93.5 155.833 -93.5 266.5c0 88.667 12.5 184.334 37.5 287.001s59.167 188 102.5 256s96 118.167 158 150.5s135.333 48.5 220 48.5c80.667 0 148.834 -19 204.501 -57s91.5 -87 107.5 -147h2c4.66699 24.667 13 60.167 25 106.5
s19.667 72.5 23 78.5h171l-19 -82l-30 -142l-161 -827c-32 -161.333 -89.333 -277.666 -172 -348.999s-196.667 -107 -342 -107zM259 372.998c0 -80.667 17.501 -142.162 52.501 -184.495s86.5 -63.5 154.5 -63.5c72 0 137.333 26.167 196 78.5
s104.167 124.166 136.5 215.499s48.5 186.333 48.5 285c0 83.333 -21.333 148.166 -64 194.499s-101.334 69.5 -176.001 69.5c-60 0 -110 -12.333 -150 -37s-73.667 -63.334 -101 -116.001s-50.333 -122.834 -69 -210.501s-28 -164.834 -28 -231.501z" />
    <glyph glyph-name="h" unicode="h" 
d="M383 897c55.333 76.667 110.831 129.834 166.498 159.501s121.834 44.5 198.501 44.5c98.667 0 172.834 -24.333 222.501 -73s74.5 -119 74.5 -211c0 -42.667 -7 -97.334 -21 -164.001l-127 -653h-181l126 645c12 58.667 18 108.667 18 150
c0 111.333 -59.667 167 -179 167c-84 0 -158 -32 -222 -96s-106.667 -150.667 -128 -260l-118 -606h-179l288 1484h180l-75 -386c-12 -66.667 -27.667 -133.667 -47 -201h3z" />
    <glyph glyph-name="i" unicode="i" horiz-adv-x="455" 
d="M287 1312l34 172h180l-34 -172h-180zM33 0l210 1082h180l-211 -1082h-179z" />
    <glyph glyph-name="j" unicode="j" horiz-adv-x="455" 
d="M289 1312l33 172h180l-33 -172h-180zM-100 -425c-37.333 0 -80.333 4.66602 -129 13.999l23 136c34.667 -5.33301 62.334 -8 83.001 -8c39.333 0 69 14 89 42s35.667 72.667 47 134l231 1189h180l-237 -1216c-20.667 -105.333 -54.334 -180.166 -101.001 -224.499
s-108.667 -66.5 -186 -66.5z" />
    <glyph glyph-name="k" unicode="k" horiz-adv-x="1024" 
d="M721 0l-268 502l-168 -124l-72 -378h-179l288 1484h180l-179 -917l204 190l361 325h222l-530 -465l336 -617h-195z" />
    <glyph glyph-name="l" unicode="l" horiz-adv-x="455" 
d="M33 0l288 1484h180l-289 -1484h-179z" />
    <glyph glyph-name="m" unicode="m" horiz-adv-x="1706" 
d="M660 0l123.998 634c16.667 83.333 25 141.333 25 174c0 50 -12.667 88.167 -38 114.5s-66.666 39.5 -123.999 39.5c-77.333 0 -144.833 -33 -202.5 -99s-95.5 -152.333 -113.5 -259l-118 -604h-179l166 851c13.333 63.333 26.333 140.333 39 231h170
c0 -7.33301 -3.5 -33.166 -10.5 -77.499l-17.5 -107.5h3c48.667 76 97.5 129 146.5 159s107.5 45 175.5 45c80.667 0 144.667 -19.833 192 -59.5s75.666 -97.167 84.999 -172.5c55.333 86.667 109.833 147 163.5 181s115.167 51 184.5 51c90 0 159.167 -24.333 207.5 -73
s72.5 -119 72.5 -211c0 -42.667 -7 -97.334 -21 -164.001l-127 -653h-178l124 634c16.667 83.333 25 141.333 25 174c0 50 -12.667 88.167 -38 114.5s-66.666 39.5 -123.999 39.5c-77.333 0 -144.666 -32.5 -201.999 -97.5s-95.333 -150.833 -114 -257.5l-118 -607h-178z
" />
    <glyph glyph-name="n" unicode="n" 
d="M717 0l125.998 644.999c12 58.667 18 108.667 18 150c0 111.333 -59.667 167 -179 167c-84 0 -158 -32 -222 -96s-106.667 -150.667 -128 -260l-118 -606h-180l166 851c13.333 63.333 26.333 140.333 39 231h170c0 -7.33301 -3.5 -33.166 -10.5 -77.499l-17.5 -107.5h3
c55.333 76.667 110.833 129.834 166.5 159.501s121.834 44.5 198.501 44.5c98.667 0 172.834 -24.333 222.501 -73s74.5 -119 74.5 -211c0 -42.667 -7 -97.334 -21 -164.001l-127 -653h-181z" />
    <glyph glyph-name="o" unicode="o" 
d="M1074 683c0 -86.667 -13.334 -176.833 -40.001 -270.5s-64.834 -173 -114.501 -238s-110.5 -113.667 -182.5 -146s-154 -48.5 -246 -48.5c-130.667 0 -234 39.333 -310 118s-114 185.667 -114 321c2.66699 136 27.334 256.667 74.001 362s111.334 185 194.001 239
s185 81 307 81c140 0 247 -36.5 321 -109.5s111 -175.833 111 -308.5zM887.999 683.001c0 190.667 -82.668 286.001 -248.001 286.001c-90 0 -162.167 -23.167 -216.5 -69.5s-96.5 -116.5 -126.5 -210.5s-45 -185 -45 -273c0 -98.667 21.333 -173.834 64 -225.501
s104.667 -77.5 186 -77.5c68.667 0 123.834 11.5 165.501 34.5s78.167 59 109.5 108s56.833 111.5 76.5 187.5s31.167 156 34.5 240z" />
    <glyph glyph-name="p" unicode="p" 
d="M554 -20c-82 0 -148.833 17.332 -200.5 51.999s-88.167 83.334 -109.5 146.001h-5c0 -7.33301 -2.83301 -29 -8.5 -65s-39.834 -215.333 -102.501 -538h-179l249 1286c15.333 74 27 147.667 35 221h167c0 -18 -2.16699 -45.5 -6.5 -82.5s-7.83301 -63.167 -10.5 -78.5h4
c48.667 63.333 100 109.333 154 138s120.667 43 200 43c104.667 0 186.167 -31.5 244.5 -94.5s87.5 -149.5 87.5 -259.5c0 -135.333 -20.5 -266.5 -61.5 -393.5s-98.667 -221.167 -173 -282.5s-169.166 -92 -284.499 -92zM689 962.999c-66 0 -122.498 -13.5 -169.498 -40.5
s-86.833 -67.667 -119.5 -122s-58.334 -122.333 -77.001 -204s-28 -154.834 -28 -219.501c0 -83.333 21.167 -148.166 63.5 -194.499s101.166 -69.5 176.499 -69.5c82.667 0 148 25.167 196 75.5s85.667 130.333 113 240s41 205.5 41 287.5s-15.667 143.667 -47 185
s-81 62 -149 62z" />
    <glyph glyph-name="q" unicode="q" 
d="M401 -21c-104.667 0 -186.166 31.501 -244.499 94.501s-87.5 149.5 -87.5 259.5c0 135.333 20.5 266.5 61.5 393.5s98.667 221.167 173 282.5s169.166 92 284.499 92c82 0 148.833 -17.333 200.5 -52s88.167 -83.334 109.5 -146.001h5c7.33301 36 16.333 75.333 27 118
s18 67.667 22 75h173c-15.333 -52 -37 -150.333 -65 -295l-238 -1226h-180l85 439l32 146h-4c-48.667 -63.333 -100 -109.333 -154 -138s-120.667 -43 -200 -43zM453.001 118.001c66 0 122.497 13.5 169.497 40.5s86.833 67.667 119.5 122s58.334 122.333 77.001 204
s28 154.834 28 219.501c0 83.333 -21.167 148.166 -63.5 194.499s-101.166 69.5 -176.499 69.5c-81.333 0 -145.666 -24.167 -192.999 -72.5s-85.333 -127.333 -114 -237s-43 -207.5 -43 -293.5c0 -82 15.667 -143.667 47 -185s81 -62 149 -62z" />
    <glyph glyph-name="r" unicode="r" horiz-adv-x="682" 
d="M718 938c-29.333 8.66699 -59.334 12.999 -90.001 12.999c-70 0 -133.167 -36.667 -189.5 -110s-94.5 -165.666 -114.5 -276.999l-110 -564h-180l162 830l25 138l18 114h170l-35 -221h4c44 88.667 87.333 151 130 187s92 54 148 54c30.667 0 62.334 -4.66699 95.001 -14z
" />
    <glyph glyph-name="s" unicode="s" horiz-adv-x="1024" 
d="M907 317c0 -108 -41.3291 -191.168 -123.996 -249.501s-202 -87.5 -358 -87.5c-116 0 -208.167 19.5 -276.5 58.5s-116.166 100.5 -143.499 184.5l147 56c22 -58.667 56.167 -101.334 102.5 -128.001s108.5 -40 186.5 -40c95.333 0 167.666 16.167 216.999 48.5
s74 79.5 74 141.5c0 41.333 -17 75.833 -51 103.5s-106 58.5 -216 92.5c-85.333 28 -149.333 55.333 -192 82s-75.334 57.834 -98.001 93.501s-34 77.167 -34 124.5c0 96.667 38.667 171.167 116 223.5s186.333 78.5 327 78.5c236 0 368.667 -85 398 -255l-163 -25
c-14.667 52.667 -42.334 90.667 -83.001 114s-95.334 35 -164.001 35c-82.667 0 -146.167 -13.167 -190.5 -39.5s-66.5 -63.5 -66.5 -111.5c0 -28 7 -51.667 21 -71s34.167 -36.5 60.5 -51.5s87.166 -37.5 182.499 -67.5c84.667 -26.667 148.5 -53.667 191.5 -81
s76.5 -59.666 100.5 -96.999s36 -81.333 36 -132z" />
    <glyph glyph-name="t" unicode="t" horiz-adv-x="569" 
d="M275 -20c-56.667 0 -101.167 17 -133.5 51s-48.5 79 -48.5 135c0 36.667 5 80 15 130l126 655h-125l26 131h127l105 242h120l-47 -242h200l-26 -131h-200l-125 -645c-8 -40 -12 -71.667 -12 -95c0 -58.667 30 -88 90 -88c28 0 61.333 4.66699 100 14l-19 -133
c-66 -16 -123.667 -24 -173 -24z" />
    <glyph glyph-name="u" unicode="u" 
d="M415 1082l-125.998 -644.999c-12 -58.667 -18 -108.667 -18 -150c0 -111.333 59.667 -167 179 -167c84 0 158 32 222 96s106.667 150.667 128 260l118 606h180l-166 -851c-13.333 -63.333 -26.333 -140.333 -39 -231h-170c0 7.33301 3.5 33.166 10.5 77.499l17.5 107.5
h-3c-55.333 -76.667 -110.833 -129.834 -166.5 -159.501s-121.834 -44.5 -198.501 -44.5c-98.667 0 -172.834 24.333 -222.501 73s-74.5 119 -74.5 211c0 42.667 7 97.334 21 164.001l127 653h181z" />
    <glyph glyph-name="v" unicode="v" horiz-adv-x="1024" 
d="M507 0l-213 -0.00195312l-182 1082h187l101 -704c6 -45.333 12.333 -106.666 19 -183.999l4 -53l26 53c30 62.667 61 123.334 93 182.001l384 706h196z" />
    <glyph glyph-name="w" unicode="w" horiz-adv-x="1479" 
d="M1068 0h-209l-37 698l-6 236l-54 -131.5c-16 -37.667 -136 -305.167 -360 -802.5h-208l-92 1082h178l40 -735l7 -198l81 190l341 743h193l44 -743c4 -72 6 -135.333 6 -190c22 52.667 162.333 363.667 421 933h176z" />
    <glyph glyph-name="x" unicode="x" horiz-adv-x="1024" 
d="M706 0l-209 444l-380 -444h-199l492 556l-264 526h189l193 -421l350 421h206l-469 -524l281 -558h-190z" />
    <glyph glyph-name="y" unicode="y" horiz-adv-x="1024" 
d="M16 -425c-48 0 -92.001 4.66895 -132.001 14.002l31 134c30 -5.33301 55.667 -8 77 -8c63.333 0 119.166 21.333 167.499 64s95.833 104.667 142.5 186l27 47l-217 1070h183l112 -598c10 -53.333 19.333 -110.166 28 -170.499s13.334 -99.5 14.001 -117.5
c6.66699 14.667 15.334 32.667 26.001 54s161.667 298.666 453 831.999h199l-626 -1082c-74 -128.667 -133.5 -218.834 -178.5 -270.501s-92 -90.334 -141 -116.001s-104.167 -38.5 -165.5 -38.5z" />
    <glyph glyph-name="z" unicode="z" horiz-adv-x="1024" 
d="M-12 0l23 137l742 806h-566l25 139h784l-24 -137l-742 -806h621l-25 -139h-838z" />
    <glyph glyph-name="braceleft" unicode="{" horiz-adv-x="684" 
d="M366 -425c-74 0 -132.834 22.167 -176.501 66.5s-65.5 105.5 -65.5 183.5c0 41.333 3.33301 80.333 10 117l56 287c6 29.333 9 55 9 77c0 55.333 -15.5 95.166 -46.5 119.499s-74.833 37.833 -131.5 40.5l25 127c73.333 2.66699 131.333 23.167 174 61.5
s71.667 96.5 87 174.5l70 362c18.667 95.333 53.167 168 103.5 218s122.833 75 217.5 75h135l-25 -129h-63c-59.333 0 -105.166 -15.667 -137.499 -47s-56.5 -87.333 -72.5 -168l-69 -356c-12.667 -63.333 -40.834 -117.5 -84.501 -162.5s-96.5 -74.833 -158.5 -89.5v-2
c46 -11.333 82.5 -33.666 109.5 -66.999s40.5 -76 40.5 -128c0 -18 -2 -37.667 -6 -59l-61 -319c-3.33301 -16 -6.16602 -37.5 -8.49902 -64.5s-3.83301 -46.167 -4.5 -57.5v-6c0 -37.333 11.5 -67.5 34.5 -90.5s60.167 -34.5 111.5 -34.5h48l-25 -129h-96z" />
    <glyph glyph-name="bar" unicode="|" horiz-adv-x="532" 
d="M213 -454v1938h166v-1938h-166z" />
    <glyph glyph-name="braceright" unicode="}" horiz-adv-x="684" 
d="M308 1484c74 0 132.834 -22.167 176.501 -66.5s65.5 -105.5 65.5 -183.5c0 -41.333 -3.33301 -80.333 -10 -117l-56 -287c-6 -28.667 -9 -54.334 -9 -77.001c0 -55.333 15.5 -95.166 46.5 -119.499s74.833 -37.833 131.5 -40.5l-25 -127
c-73.333 -2.66699 -131.333 -23.167 -174 -61.5s-71.667 -96.5 -87 -174.5l-70 -362c-18.667 -95.333 -53.167 -168 -103.5 -218s-122.833 -75 -217.5 -75h-135l25 129h63c59.333 0 105.166 15.667 137.499 47s56.5 87.333 72.5 168l69 356
c12.667 63.333 40.834 117.5 84.501 162.5s96.5 74.833 158.5 89.5v2c-46 11.333 -82.5 33.666 -109.5 66.999s-40.5 76 -40.5 128c0 18.667 2 38.334 6 59.001l61 319c3.33301 16 6.16602 37.5 8.49902 64.5s3.83301 46.167 4.5 57.5v6c0 37.333 -11.5 67.5 -34.5 90.5
s-60.167 34.5 -111.5 34.5h-48l25 129h96z" />
    <glyph glyph-name="asciitilde" unicode="~" horiz-adv-x="1196" 
d="M874 553c-46 0 -93.166 7.33301 -141.499 22s-96.833 30.667 -145.5 48c-86 30 -158.333 45 -217 45c-44.667 0 -86.334 -6.83301 -125.001 -20.5s-79.667 -36.167 -123 -67.5v143c74 56 161.667 84 263 84c68 0 146.333 -15.333 235 -46c98 -34 161.5 -54.333 190.5 -61
s55.5 -10 79.5 -10c86.667 0 168 30.667 244 92v-149c-40 -28 -79.167 -48.333 -117.5 -61s-85.833 -19 -142.5 -19z" />
    <glyph glyph-name="uni00A0" unicode="&#xa0;" horiz-adv-x="569" 
 />
    <glyph glyph-name="exclamdown" unicode="&#xa1;" horiz-adv-x="682" 
d="M284 686h148l-172 -1012h-196zM536 1083l-40 -201h-194l40 201h194z" />
    <glyph glyph-name="cent" unicode="&#xa2;" 
d="M560 278c136.667 0 233.001 76.668 289.001 230.001l156 -49c-77.333 -205.333 -216.333 -313 -417 -323l-32 -167h-124l34 173c-99.333 14.667 -175.5 57.5 -228.5 128.5s-79.5 164.5 -79.5 280.5c0 90.667 12.667 181.5 38 272.5s59.666 167.833 102.999 230.5
s96 111.167 158 145.5s137.333 53.5 226 57.5l28 152h124l-29 -158c87.333 -12.667 155.5 -46.334 204.5 -101.001s76.167 -124.667 81.5 -210l-177 -25c-4 64.667 -24 114.5 -60 149.5s-84.333 52.5 -145 52.5c-84 0 -152 -22.5 -204 -67.5s-92.333 -116.5 -121 -214.5
s-43 -194.667 -43 -290c0 -178 72.667 -267 218 -267z" />
    <glyph glyph-name="sterling" unicode="&#xa3;" 
d="M1075 310c-24.667 -101.333 -70.335 -178.336 -137.002 -231.003s-150 -79 -250 -79h-700l29 154c64.667 30.667 116.5 72.167 155.5 124.5s66.5 119.833 82.5 202.5l28 144h-186l25 129h186l55 280c26.667 136.667 77.5 236.834 152.5 300.501s175.167 95.5 300.5 95.5
c98.667 0 179.834 -20.833 243.501 -62.5s103.167 -97.5 118.5 -167.5l-164 -50c-13.333 42.667 -38.666 75.334 -75.999 98.001s-80.333 34 -129 34c-76 0 -135.167 -19.167 -177.5 -57.5s-71.5 -99.166 -87.5 -182.499l-56 -288h408l-25 -129h-408l-27 -147
c-13.333 -74 -40.833 -139.667 -82.5 -197s-92.167 -100 -151.5 -128h464c68.667 0 124.5 14.167 167.5 42.5s73.167 74.5 90.5 138.5z" />
    <glyph glyph-name="currency" unicode="&#xa4;" 
d="M165 684c0 92 26 176 78 252l-100 100l104 103l99 -101c76 54.667 160.667 82 254 82c91.333 0 175 -26.667 251 -80l97 97l104 -105l-96 -96c53.333 -78 80 -162 80 -252c0 -92 -27.333 -176 -82 -252l100 -100l-102 -105l-101 101c-76 -52 -159.667 -78 -251 -78
c-95.333 0 -179.333 26.667 -252 80l-105 -105l-102 105l102 102c-52 76 -78 160 -78 252zM319 686c0 -76 27.333 -141.667 82 -197s121 -83 199 -83c76 0 141.667 27 197 81s83 120.333 83 199c0 77.333 -27.5 143.5 -82.5 198.5s-120.833 82.5 -197.5 82.5
c-78 0 -144.333 -27.833 -199 -83.5s-82 -121.5 -82 -197.5z" />
    <glyph glyph-name="yen" unicode="&#xa5;" 
d="M745 709h321l-24 -125h-383l-30 -154h383l-25 -127h-383l-59 -303h-178l59 303h-381l25 127h381l32 154h-383l24 125h320l-285 700h193l246 -647l500 647h205z" />
    <glyph glyph-name="brokenbar" unicode="&#xa6;" horiz-adv-x="532" 
d="M213 707v778h166v-778h-166zM213 -455v779h166v-779h-166z" />
    <glyph glyph-name="section" unicode="&#xa7;" 
d="M1010 673c0 -149.333 -91.3301 -244.332 -273.997 -284.999c88 -55.333 132 -129.666 132 -222.999c0 -108 -41.333 -191.167 -124 -249.5s-203 -87.5 -361 -87.5c-114 0 -205.333 19.5 -274 58.5s-116.334 100.5 -143.001 184.5l147 56
c22 -58.667 56.167 -101.334 102.5 -128.001s108.5 -40 186.5 -40c95.333 0 167.666 16.167 216.999 48.5s74 79.5 74 141.5c0 42 -17.667 77.5 -53 106.5s-106.333 59.833 -213 92.5c-216.667 66.667 -325 175 -325 325c0 73.333 23.5 134 70.5 182s115.5 82 205.5 102
c-89.333 56.667 -134 131.667 -134 225c0 96.667 39 171.167 117 223.5s189.333 78.5 334 78.5c230.667 0 360.667 -85 390 -255l-163 -25c-27.333 99.333 -105.333 149 -234 149c-180 0 -270 -54.333 -270 -163c0 -36.667 17.833 -69.334 53.5 -98.001
s105.167 -59.667 208.5 -93c121.333 -38 206.666 -83.5 255.999 -136.5s74 -116.167 74 -189.5zM276.003 688.001c0 -46 20.5 -86.501 61.5 -121.501s111.833 -67.833 212.5 -98.5c88 3.33301 157.5 21.833 208.5 55.5s76.5 79.834 76.5 138.501c0 34 -9.5 63.5 -28.5 88.5
s-46.5 47.167 -82.5 66.5s-99.667 42.333 -191 69c-78 -4 -140.333 -24 -187 -60s-70 -82 -70 -138z" />
    <glyph glyph-name="dieresis" unicode="&#xa8;" horiz-adv-x="682" 
d="M521 1219l35 184h173l-35 -184h-173zM137 1219l35 184h175l-35 -184h-175z" />
    <glyph glyph-name="copyright" unicode="&#xa9;" horiz-adv-x="1509" 
d="M1509 707c0 -128.667 -32.167 -249.169 -96.5 -361.502s-152.666 -200.666 -264.999 -264.999s-232.833 -96.5 -361.5 -96.5c-131.333 0 -253.5 33.5 -366.5 100.5s-200.667 156 -263 267s-93.5 229.5 -93.5 355.5c0 128.667 32.333 249 97 361s153 200.333 265 265
s232.333 97 361 97c129.333 0 250.166 -32.5 362.499 -97.5s200.5 -153.167 264.5 -264.5s96 -231.666 96 -360.999zM1417 706.998c0 112 -28.167 216.498 -84.5 313.498s-133.333 173.667 -231 230s-202.834 84.5 -315.501 84.5c-112 0 -216.667 -28.167 -314 -84.5
s-174 -133.166 -230 -230.499s-84 -201.666 -84 -312.999c0 -112.667 28.167 -217.667 84.5 -315s132.833 -174 229.5 -230s201.334 -84 314.001 -84c113.333 0 218.833 28.167 316.5 84.5s174.5 133 230.5 230s84 201.833 84 314.5zM797 278.996
c-125.333 0 -222.666 37.668 -291.999 113.001s-104 181 -104 317c0 135.333 33.333 239.833 100 313.5s163 110.5 289 110.5c162.667 0 276 -69.667 340 -209l-114 -33c-21.333 46 -51.333 80.333 -90 103s-83.334 34 -134.001 34c-84.667 0 -149.5 -26.833 -194.5 -80.5
s-67.5 -133.167 -67.5 -238.5c0 -103.333 23.667 -183.5 71 -240.5s112.666 -85.5 195.999 -85.5c52 0 97.167 12.5 135.5 37.5s70.833 64.5 97.5 118.5l115 -35c-41.333 -80.667 -90.166 -138.334 -146.499 -173.001s-123.5 -52 -201.5 -52z" />
    <glyph glyph-name="ordfeminine" unicode="&#xaa;" horiz-adv-x="758" 
d="M723 657c-44 0 -77.835 9.83398 -101.502 29.501s-35.5 45.834 -35.5 78.501l4 40h-4c-44 -56.667 -87.667 -96.5 -131 -119.5s-91.333 -34.5 -144 -34.5c-67.333 0 -121.166 18.667 -161.499 56s-60.5 87.666 -60.5 150.999c0 166 121.333 250.667 364 254l179 4
c12 60 18 97.667 18 113c0 68 -42.333 102 -127 102c-101.333 0 -162.666 -45 -183.999 -135l-132 17c38.667 146 144.667 219 318 219c84.667 0 150.167 -17.833 196.5 -53.5s69.5 -84.167 69.5 -145.5c0 -26 -3.33301 -54 -10 -84l-53 -275
c-4 -20.667 -6 -38.334 -6 -53.001c0 -36.667 16 -55 48 -55c13.333 0 28 2.66699 44 8l-15 -104c-24.667 -8.66699 -50 -13 -76 -13zM613.998 1024l-139 -4.00098c-82 -2 -141.167 -15.833 -177.5 -41.5s-54.5 -63.5 -54.5 -113.5c0 -31.333 9.66699 -56.333 29 -75
s46 -28 80 -28c59.333 0 113.333 20.833 162 62.5s78.667 90.834 90 147.501z" />
    <glyph glyph-name="guillemotleft" unicode="&#xab;" 
d="M818 141l-267 365l12 63l410 371h158l-6 -37l-410 -372l268 -367l-5 -23h-160zM341 141l-265 365l12 63l408 371h157l-6 -38l-407 -372l265 -367l-5 -22h-159z" />
    <glyph glyph-name="logicalnot" unicode="&#xac;" horiz-adv-x="1196" 
d="M950 180v428h-850v146h995v-574h-145z" />
    <glyph glyph-name="uni00AD" unicode="&#xad;" horiz-adv-x="682" 
d="M105 464l31 160h500l-31 -160h-500z" />
    <glyph glyph-name="registered" unicode="&#xae;" horiz-adv-x="1509" 
d="M1509 707c0 -128.667 -32.167 -249.169 -96.5 -361.502s-152.666 -200.666 -264.999 -264.999s-232.833 -96.5 -361.5 -96.5c-131.333 0 -253.5 33.5 -366.5 100.5s-200.667 156 -263 267s-93.5 229.5 -93.5 355.5c0 128.667 32.333 249 97 361s153 200.333 265 265
s232.333 97 361 97c129.333 0 250.166 -32.5 362.499 -97.5s200.5 -153.167 264.5 -264.5s96 -231.666 96 -360.999zM1417 706.998c0 112 -28.167 216.498 -84.5 313.498s-133.333 173.667 -231 230s-202.834 84.5 -315.501 84.5c-112 0 -216.667 -28.167 -314 -84.5
s-174 -133.166 -230 -230.499s-84 -201.666 -84 -312.999c0 -112.667 28.167 -217.667 84.5 -315s132.833 -174 229.5 -230s201.334 -84 314.001 -84c113.333 0 218.833 28.167 316.5 84.5s174.5 133 230.5 230s84 201.833 84 314.5zM987 288.996l-198.999 336h-161v-336
h-127v831h307c94.667 0 167.167 -21 217.5 -63s75.5 -100 75.5 -174c0 -68 -17.333 -122.5 -52 -163.5s-80.334 -67.833 -137.001 -80.5l221 -350h-145zM973.001 880.996c0 46 -15.833 81 -47.5 105s-74.5 36 -128.5 36h-170v-301h182c53.333 0 94 14.167 122 42.5
s42 67.5 42 117.5z" />
    <glyph glyph-name="overscore" unicode="&#xaf;" horiz-adv-x="1131" 
d="M1148 1503h-1165v117h1165v-117z" />
    <glyph glyph-name="degree" unicode="&#xb0;" horiz-adv-x="819" 
d="M770 1145c0 -79.333 -28.167 -146.668 -84.5 -202.001s-123.833 -83 -202.5 -83s-146.167 28 -202.5 84s-84.5 123 -84.5 201s27.833 145 83.5 201s123.5 84 203.5 84s147.833 -27.667 203.5 -83s83.5 -122.666 83.5 -201.999zM661 1145
c0 50.667 -17.167 93.3311 -51.5 127.998s-76.5 52 -126.5 52s-92.167 -17.667 -126.5 -53s-51.5 -77.666 -51.5 -126.999s17.5 -91.666 52.5 -126.999s76.833 -53 125.5 -53c49.333 0 91.333 17.5 126 52.5s52 77.5 52 127.5z" />
    <glyph glyph-name="plusminus" unicode="&#xb1;" horiz-adv-x="1124" 
d="M636 680v-395h-147v395h-424v145h424v394h147v-394h424v-145h-424zM65 0v145h995v-145h-995z" />
    <glyph glyph-name="twosuperior" unicode="&#xb2;" horiz-adv-x="682" 
d="M30 563l17.999 103.001c20 32 42.833 61.167 68.5 87.5s53.834 51.166 84.501 74.499s80.667 55.666 150 96.999c87.333 51.333 144.5 88.333 171.5 111s47.667 46.5 62 71.5s21.5 53.167 21.5 84.5c0 34 -11.333 63 -34 87s-55.667 36 -99 36
c-46.667 0 -86.667 -13 -120 -39s-54.666 -60 -63.999 -102l-125 15c19.333 76 55.833 133.667 109.5 173s122.5 59 206.5 59c79.333 0 142.833 -20 190.5 -60s71.5 -91.667 71.5 -155c0 -45.333 -10.167 -86.333 -30.5 -123s-48.333 -70.667 -84 -102
s-102.5 -75.666 -200.5 -132.999c-64.667 -37.333 -113.834 -68.833 -147.501 -94.5s-59.167 -51.5 -76.5 -77.5h448l-20 -113h-601z" />
    <glyph glyph-name="threesuperior" unicode="&#xb3;" horiz-adv-x="682" 
d="M332 1049l56.998 -0.00195312c64.667 0 114.334 13.833 149.001 41.5s52 65.5 52 113.5c0 32 -11 58.5 -33 79.5s-52 31.5 -90 31.5c-45.333 0 -84.166 -11.667 -116.499 -35s-54.833 -56.666 -67.5 -99.999l-125 25c44.667 144 151 216 319 216
c74 0 134.333 -18.833 181 -56.5s70 -86.5 70 -146.5c0 -119.333 -72.667 -193.666 -218 -222.999v-2c48.667 -8.66699 88 -28.834 118 -60.501s45 -70.167 45 -115.5c0 -80.667 -29.667 -145.167 -89 -193.5s-137.333 -72.5 -234 -72.5c-174 0 -273 78 -297 234l129 16
c6 -48 24.167 -84.333 54.5 -109s70.166 -37 119.499 -37c57.333 0 101.833 14.833 133.5 44.5s47.5 69.834 47.5 120.501c0 36 -14.667 65 -44 87s-69.666 33 -120.999 33h-61z" />
    <glyph glyph-name="acute" unicode="&#xb4;" horiz-adv-x="682" 
d="M175 1201l3 20l253 287h217l-5 -29l-374 -278h-94z" />
    <glyph glyph-name="mu1" unicode="&#xb5;" horiz-adv-x="1180" 
d="M-1 -425l293 1507h181l-134 -686c-7.33301 -42.667 -11 -76.334 -11 -101.001c0 -117.333 54 -176 162 -176c74.667 0 139.5 31.667 194.5 95s91.833 149.333 110.5 258l118 610h180l-157 -807c-6 -27.333 -9 -54.666 -9 -81.999c0 -48 19 -72 57 -72
c8 0 26.667 2.66699 56 8l-22 -129c-48 -13.333 -89 -20 -123 -20c-49.333 0 -84.333 16.167 -105 48.5s-31 79.166 -31 140.499h-2c-86 -126 -189 -189 -309 -189c-41.333 0 -77 7 -107 21s-52.667 33.333 -68 58l-94 -484h-180z" />
    <glyph glyph-name="paragraph" unicode="&#xb6;" horiz-adv-x="1100" 
d="M948 1307v-1571h-112v1571h-217v-1571h-113v958c-112 0 -200.333 30.833 -265 92.5s-97 149.167 -97 262.5c0 112.667 32.833 200.834 98.5 264.501s156.167 95.5 271.5 95.5h563v-102h-129z" />
    <glyph glyph-name="middot" unicode="&#xb7;" horiz-adv-x="682" 
 />
    <glyph glyph-name="cedilla" unicode="&#xb8;" horiz-adv-x="682" 
d="M318 -96c54 -3.33301 94.498 -17 121.498 -41s40.5 -55.667 40.5 -95c0 -128.667 -101 -193 -303 -193c-33.333 0 -68.666 2.33301 -105.999 7l21 91c32 -4 61.333 -6 88 -6c60.667 0 103.5 7.33301 128.5 22s37.5 37 37.5 67c0 48 -39.667 72 -119 72
c-29.333 0 -48.666 -0.666992 -57.999 -2l101 174h107z" />
    <glyph glyph-name="onesuperior" unicode="&#xb9;" horiz-adv-x="682" 
d="M61 563l20 107h211l118 609l-229 -138l26 131l237 137h123l-144 -739h215l-21 -107h-556z" />
    <glyph glyph-name="ordmasculine" unicode="&#xba;" horiz-adv-x="748" 
d="M403 651c-96.667 0 -171.167 26.167 -223.5 78.5s-78.5 125.833 -78.5 220.5c0 39.333 4.33301 82 13 128c45.333 236 180.666 354 405.999 354c96.667 0 171.167 -26.167 223.5 -78.5s78.5 -125.833 78.5 -220.5c0 -39.333 -4.33301 -82 -13 -128
c-45.333 -236 -180.666 -354 -405.999 -354zM513 1325c-63.333 0 -113.001 -15.832 -149.001 -47.499s-64.333 -81.834 -85 -150.501s-31 -131.667 -31 -189c0 -120 53.333 -180 160 -180c64.667 0 115.334 16.5 152.001 49.5s65.5 85.167 86.5 156.5
s31.5 134.666 31.5 189.999c0 62.667 -14.5 106.834 -43.5 132.501s-69.5 38.5 -121.5 38.5z" />
    <glyph glyph-name="guillemotright" unicode="&#xbb;" 
d="M640 141h-158l7 39l410 367l-264 372l4 21h156l266 -371l-12 -63zM165 141h-160l7 39l410 367l-264 372l4 21h158l263 -371l-12 -63z" />
    <glyph glyph-name="onequarter" unicode="&#xbc;" horiz-adv-x="1708" 
d="M96 563l20 107h211l118 609l-229 -138l26 131l237 137h123l-144 -739h215l-21 -107h-556zM427 0h-153l1150 1409h154zM1437 179l-35 -178h-131l35 178h-405l21 111l484 557h161l-108 -555h125l-22 -113h-125zM1412 714l-108 -135l-245 -287h269l63 322z" />
    <glyph glyph-name="onehalf" unicode="&#xbd;" horiz-adv-x="1708" 
d="M47 563l20 107h211l118 609l-229 -138l26 131l237 137h123l-144 -739h215l-21 -107h-556zM377 0h-153l1150 1409h154zM937 1l17.999 103.001c20 32 42.833 61.167 68.5 87.5s53.834 51.166 84.501 74.499s80.667 55.666 150 96.999c87.333 51.333 144.5 88.333 171.5 111
s47.667 46.5 62 71.5s21.5 53.167 21.5 84.5c0 34 -11.333 63 -34 87s-55.667 36 -99 36c-46.667 0 -86.667 -13 -120 -39s-54.666 -60 -63.999 -102l-125 15c19.333 76 55.833 133.667 109.5 173s122.5 59 206.5 59c79.333 0 142.833 -20 190.5 -60s71.5 -91.667 71.5 -155
c0 -45.333 -10.167 -86.333 -30.5 -123s-48.333 -70.667 -84 -102s-102.5 -75.666 -200.5 -132.999c-64.667 -37.333 -113.834 -68.833 -147.501 -94.5s-59.167 -51.5 -76.5 -77.5h448l-20 -113h-601z" />
    <glyph glyph-name="threequarters" unicode="&#xbe;" horiz-adv-x="1708" 
d="M415 1049l56.998 -0.00195312c64.667 0 114.334 13.833 149.001 41.5s52 65.5 52 113.5c0 32 -11 58.5 -33 79.5s-52 31.5 -90 31.5c-45.333 0 -84.166 -11.667 -116.499 -35s-54.833 -56.666 -67.5 -99.999l-125 25c44.667 144 151 216 319 216
c74 0 134.333 -18.833 181 -56.5s70 -86.5 70 -146.5c0 -119.333 -72.667 -193.666 -218 -222.999v-2c48.667 -8.66699 88 -28.834 118 -60.501s45 -70.167 45 -115.5c0 -80.667 -29.667 -145.167 -89 -193.5s-137.333 -72.5 -234 -72.5c-174 0 -273 78 -297 234l129 16
c6 -48 24.167 -84.333 54.5 -109s70.166 -37 119.499 -37c57.333 0 101.833 14.833 133.5 44.5s47.5 69.834 47.5 120.501c0 36 -14.667 65 -44 87s-69.666 33 -120.999 33h-61zM426.998 -0.00195312h-153l1150 1409h154zM1437 178.998l-35 -178h-131l35 178h-405l21 111
l484 557h161l-108 -555h125l-22 -113h-125zM1412 713.998l-108 -135l-245 -287h269l63 322z" />
    <glyph glyph-name="questiondown" unicode="&#xbf;" horiz-adv-x="1251" 
d="M497 -347c-131.333 0 -236.165 33.332 -314.498 99.999s-117.5 152.334 -117.5 257.001c0 64.667 10.167 119.834 30.5 165.501s46.666 85.334 78.999 119.001s68.666 63 108.999 88l120.5 71.5c84.667 48 143.334 90.667 176.001 128s53.667 78.666 63 123.999h175
c-8.66699 -53.333 -24.667 -99.833 -48 -139.5s-52.5 -75.167 -87.5 -106.5s-97.167 -72.333 -186.5 -123c-70 -39.333 -120.333 -72.833 -151 -100.5s-53.834 -57.834 -69.501 -90.501s-23.5 -71 -23.5 -115c0 -65.333 24.333 -118 73 -158s111.667 -60 189 -60
c93.333 0 170.333 23.333 231 70s103.667 110.667 129 192l165 -40c-42 -130 -108.167 -226.167 -198.5 -288.5s-204.833 -93.5 -343.5 -93.5zM899.001 1083l-39 -201h-195l39 201h195z" />
    <glyph glyph-name="Agrave" unicode="&#xc0;" horiz-adv-x="1366" 
d="M1079 0l-75 412h-639l-240 -412h-208l848 1409h217l292 -1409h-195zM848 1265c-8.66699 -17.333 -21 -40.333 -37 -69l-362 -635h527l-102 553zM943 1530l-293 217l5 29h207l173 -226l-3 -20h-89z" />
    <glyph glyph-name="Aacute" unicode="&#xc1;" horiz-adv-x="1366" 
d="M1079 0l-75 412h-639l-240 -412h-208l848 1409h217l292 -1409h-195zM848 1265c-8.66699 -17.333 -21 -40.333 -37 -69l-362 -635h527l-102 553zM743 1530l3 20l261 226h207l-5 -29l-352 -217h-114z" />
    <glyph glyph-name="Acircumflex" unicode="&#xc2;" horiz-adv-x="1366" 
d="M1079 0l-75 412h-639l-240 -412h-208l848 1409h217l292 -1409h-195zM848 1265c-8.66699 -17.333 -21 -40.333 -37 -69l-362 -635h527l-102 553zM1197 1550l-4 -20h-95l-192 139h-2l-259 -139h-113l4 20l280 240h204z" />
    <glyph glyph-name="Atilde" unicode="&#xc3;" horiz-adv-x="1366" 
d="M1079 0l-75 412h-639l-240 -412h-208l848 1409h217l292 -1409h-195zM848 1265c-8.66699 -17.333 -21 -40.333 -37 -69l-362 -635h527l-102 553zM1037 1530c-28 0 -54.6641 6.66895 -79.9971 20.002s-49.5 28.166 -72.5 44.499s-45 31.166 -66 44.499s-41.833 20 -62.5 20
c-30.667 0 -56.334 -9.83301 -77.001 -29.5s-39.334 -52.834 -56.001 -99.501h-100c31.333 101.333 67.166 171.333 107.499 210s88.166 58 143.499 58c29.333 0 56.666 -6.66699 81.999 -20s49.333 -28.166 72 -44.499s44.334 -31.166 65.001 -44.499s41 -20 61 -20
c60.667 0 104.667 43 132 129h102c-23.333 -72.667 -45.666 -125.834 -66.999 -159.501s-47 -60.167 -77 -79.5s-65.667 -29 -107 -29z" />
    <glyph glyph-name="Adieresis" unicode="&#xc4;" horiz-adv-x="1366" 
d="M1079 0l-75 412h-639l-240 -412h-208l848 1409h217l292 -1409h-195zM848 1265c-8.66699 -17.333 -21 -40.333 -37 -69l-362 -635h527l-102 553zM990 1530l35 184h173l-35 -184h-173zM606 1530l35 184h175l-35 -184h-175z" />
    <glyph glyph-name="Aring" unicode="&#xc5;" horiz-adv-x="1366" 
d="M1061 0l-75 412h-639l-240 -412h-208l848 1409h217l292 -1409h-195zM830 1265c-8.66699 -17.333 -21 -40.333 -37 -69l-362 -635h527l-102 553zM1100 1546c0 -66.667 -23.667 -123.667 -71 -171s-104.333 -71 -171 -71s-123.667 23.667 -171 71s-71 104.333 -71 171
c0 67.333 23.667 124.333 71 171s104.333 70 171 70c66 0 122.833 -23.5 170.5 -70.5s71.5 -103.833 71.5 -170.5zM992 1546c0 38.667 -12.667 70.667 -38 96s-57.333 38 -96 38c-39.333 0 -71.666 -13.167 -96.999 -39.5s-38 -57.833 -38 -94.5s12.667 -68.667 38 -96
s57.666 -41 96.999 -41c38.667 0 70.667 13.333 96 40s38 59 38 97z" />
    <glyph glyph-name="AE" unicode="&#xc6;" horiz-adv-x="2048" 
d="M863 0l81 412h-543l-279 -412h-203l959 1409h1189l-30 -156h-739l-88 -452h679l-30 -154h-679l-95 -491h780l-31 -156h-971zM1109 1262h-151l-136 -216l-322 -485h473z" />
    <glyph glyph-name="Ccedilla" unicode="&#xc7;" horiz-adv-x="1479" 
d="M1358 337c-84 -125.333 -179.333 -216.166 -286 -272.499s-230.667 -84.5 -372 -84.5c-120.667 0 -225.5 24.167 -314.5 72.5s-156.667 117.166 -203 206.499s-69.5 192.666 -69.5 309.999c0 164 35 312.333 105 445s167.167 235.167 291.5 307.5
s263.166 108.5 416.499 108.5c144.667 0 266.834 -30.167 366.501 -90.5s165.5 -145.166 197.5 -254.499l-180 -55c-24 74.667 -70.5 134 -139.5 178s-153.833 66 -254.5 66c-122.667 0 -230.667 -29.5 -324 -88.5s-165 -142 -215 -249s-75 -230.5 -75 -370.5
c0 -133.333 36.333 -238.5 109 -315.5s173.334 -115.5 302.001 -115.5c98.667 0 190.667 24.5 276 73.5s160.666 121.5 225.999 217.5zM708 -96c54 -3.33301 94.498 -17 121.498 -41s40.5 -55.667 40.5 -95c0 -128.667 -101 -193 -303 -193
c-33.333 0 -68.666 2.33301 -105.999 7l21 91c32 -4 61.333 -6 88 -6c60.667 0 103.5 7.33301 128.5 22s37.5 37 37.5 67c0 48 -39.667 72 -119 72c-29.333 0 -48.666 -0.666992 -57.999 -2l101 174h107z" />
    <glyph glyph-name="Egrave" unicode="&#xc8;" horiz-adv-x="1366" 
d="M63 0l273 1409h1049l-30 -156h-858l-88 -452h798l-30 -154h-798l-95 -491h899l-30 -156h-1090zM937 1530l-293 217l5 29h207l173 -226l-3 -20h-89z" />
    <glyph glyph-name="Eacute" unicode="&#xc9;" horiz-adv-x="1366" 
d="M63 0l273 1409h1049l-30 -156h-858l-88 -452h798l-30 -154h-798l-95 -491h899l-30 -156h-1090zM727 1530l3 20l261 226h207l-5 -29l-352 -217h-114z" />
    <glyph glyph-name="Ecircumflex" unicode="&#xca;" horiz-adv-x="1366" 
d="M63 0l273 1409h1049l-30 -156h-858l-88 -452h798l-30 -154h-798l-95 -491h899l-30 -156h-1090zM1206 1550l-4 -20h-95l-192 139h-2l-259 -139h-113l4 20l280 240h204z" />
    <glyph glyph-name="Edieresis" unicode="&#xcb;" horiz-adv-x="1366" 
d="M63 0l273 1409h1049l-30 -156h-858l-88 -452h798l-30 -154h-798l-95 -491h899l-30 -156h-1090zM977 1530l35 184h173l-35 -184h-173zM593 1530l35 184h175l-35 -184h-175z" />
    <glyph glyph-name="Igrave" unicode="&#xcc;" horiz-adv-x="569" 
d="M81 0l274 1409h191l-274 -1409h-191zM504 1530l-293 217l5 29h207l173 -226l-3 -20h-89z" />
    <glyph glyph-name="Iacute" unicode="&#xcd;" horiz-adv-x="569" 
d="M81 0l274 1409h191l-274 -1409h-191zM365 1530l3 20l261 226h207l-5 -29l-352 -217h-114z" />
    <glyph glyph-name="Icircumflex" unicode="&#xce;" horiz-adv-x="569" 
d="M81 0l274 1409h191l-274 -1409h-191zM794 1550l-4 -20h-95l-192 139h-2l-259 -139h-113l4 20l280 240h204z" />
    <glyph glyph-name="Idieresis" unicode="&#xcf;" horiz-adv-x="569" 
d="M81 0l274 1409h191l-274 -1409h-191zM571 1530l35 184h173l-35 -184h-173zM187 1530l35 184h175l-35 -184h-175z" />
    <glyph glyph-name="Eth" unicode="&#xd0;" horiz-adv-x="1479" 
d="M764 1409c208 0 371.5 -54.832 490.5 -164.499s178.5 -260.834 178.5 -453.501c0 -156 -32.833 -293.5 -98.5 -412.5s-162 -211.833 -289 -278.5s-271.5 -100 -433.5 -100h-549l125 647h-154l30 154h154l118 608h428zM409 801.001h406l-30 -154h-406l-96 -494h304
c130 0 244.667 25.833 344 77.5s175.5 126 228.5 223s79.5 210.167 79.5 339.5c0 146 -42 259.667 -126 341s-201.667 122 -353 122h-262z" />
    <glyph glyph-name="Ntilde" unicode="&#xd1;" horiz-adv-x="1479" 
d="M987 0l-531 1210c-14.667 -114 -28.667 -203 -42 -267l-181 -943h-170l273 1409h212l534 -1215c17.333 126 32.333 220.667 45 284l181 931h172l-273 -1409h-220zM1085 1530c-28 0 -54.6641 6.66895 -79.9971 20.002s-49.5 28.166 -72.5 44.499s-45 31.166 -66 44.499
s-41.833 20 -62.5 20c-30.667 0 -56.334 -9.83301 -77.001 -29.5s-39.334 -52.834 -56.001 -99.501h-100c31.333 101.333 67.166 171.333 107.499 210s88.166 58 143.499 58c29.333 0 56.666 -6.66699 81.999 -20s49.333 -28.166 72 -44.499s44.334 -31.166 65.001 -44.499
s41 -20 61 -20c60.667 0 104.667 43 132 129h102c-23.333 -72.667 -45.666 -125.834 -66.999 -159.501s-47 -60.167 -77 -79.5s-65.667 -29 -107 -29z" />
    <glyph glyph-name="Ograve" unicode="&#xd2;" horiz-adv-x="1593" 
d="M938 1430c184.667 0 330.499 -52.332 437.499 -156.999s160.5 -245.334 160.5 -422.001c-3.33301 -178.667 -40.666 -333.167 -111.999 -463.5s-169 -230.833 -293 -301.5s-264.667 -106 -422 -106c-189.333 0 -336.333 52.5 -441 157.5s-157 250.167 -157 435.5
c0 159.333 35.167 305.833 105.5 439.5s168.5 236.667 294.5 309s268.333 108.5 427 108.5zM928.999 1276c-133.333 0 -246.499 -29.667 -339.499 -89s-164.167 -148 -213.5 -266s-74 -237.333 -74 -358c0 -139.333 35.5 -245.5 106.5 -318.5s174.167 -109.5 309.5 -109.5
c131.333 0 243.166 28.833 335.499 86.5s164 144.167 215 259.5s76.5 237.333 76.5 366c0 138 -36.167 244 -108.5 318s-174.833 111 -307.5 111zM970 1530l-293 217l5 29h207l173 -226l-3 -20h-89z" />
    <glyph glyph-name="Oacute" unicode="&#xd3;" horiz-adv-x="1593" 
d="M938 1430c184.667 0 330.499 -52.332 437.499 -156.999s160.5 -245.334 160.5 -422.001c-3.33301 -178.667 -40.666 -333.167 -111.999 -463.5s-169 -230.833 -293 -301.5s-264.667 -106 -422 -106c-189.333 0 -336.333 52.5 -441 157.5s-157 250.167 -157 435.5
c0 159.333 35.167 305.833 105.5 439.5s168.5 236.667 294.5 309s268.333 108.5 427 108.5zM928.999 1276c-133.333 0 -246.499 -29.667 -339.499 -89s-164.167 -148 -213.5 -266s-74 -237.333 -74 -358c0 -139.333 35.5 -245.5 106.5 -318.5s174.167 -109.5 309.5 -109.5
c131.333 0 243.166 28.833 335.499 86.5s164 144.167 215 259.5s76.5 237.333 76.5 366c0 138 -36.167 244 -108.5 318s-174.833 111 -307.5 111zM817 1530l3 20l261 226h207l-5 -29l-352 -217h-114z" />
    <glyph glyph-name="Ocircumflex" unicode="&#xd4;" horiz-adv-x="1593" 
d="M938 1430c184.667 0 330.499 -52.332 437.499 -156.999s160.5 -245.334 160.5 -422.001c-3.33301 -178.667 -40.666 -333.167 -111.999 -463.5s-169 -230.833 -293 -301.5s-264.667 -106 -422 -106c-189.333 0 -336.333 52.5 -441 157.5s-157 250.167 -157 435.5
c0 159.333 35.167 305.833 105.5 439.5s168.5 236.667 294.5 309s268.333 108.5 427 108.5zM928.999 1276c-133.333 0 -246.499 -29.667 -339.499 -89s-164.167 -148 -213.5 -266s-74 -237.333 -74 -358c0 -139.333 35.5 -245.5 106.5 -318.5s174.167 -109.5 309.5 -109.5
c131.333 0 243.166 28.833 335.499 86.5s164 144.167 215 259.5s76.5 237.333 76.5 366c0 138 -36.167 244 -108.5 318s-174.833 111 -307.5 111zM1265 1550l-4 -20h-95l-192 139h-2l-259 -139h-113l4 20l280 240h204z" />
    <glyph glyph-name="Otilde" unicode="&#xd5;" horiz-adv-x="1593" 
d="M938 1430c184.667 0 330.499 -52.332 437.499 -156.999s160.5 -245.334 160.5 -422.001c-3.33301 -178.667 -40.666 -333.167 -111.999 -463.5s-169 -230.833 -293 -301.5s-264.667 -106 -422 -106c-189.333 0 -336.333 52.5 -441 157.5s-157 250.167 -157 435.5
c0 159.333 35.167 305.833 105.5 439.5s168.5 236.667 294.5 309s268.333 108.5 427 108.5zM928.999 1276c-133.333 0 -246.499 -29.667 -339.499 -89s-164.167 -148 -213.5 -266s-74 -237.333 -74 -358c0 -139.333 35.5 -245.5 106.5 -318.5s174.167 -109.5 309.5 -109.5
c131.333 0 243.166 28.833 335.499 86.5s164 144.167 215 259.5s76.5 237.333 76.5 366c0 138 -36.167 244 -108.5 318s-174.833 111 -307.5 111zM1136 1530c-28 0 -54.6641 6.66895 -79.9971 20.002s-49.5 28.166 -72.5 44.499s-45 31.166 -66 44.499s-41.833 20 -62.5 20
c-30.667 0 -56.334 -9.83301 -77.001 -29.5s-39.334 -52.834 -56.001 -99.501h-100c31.333 101.333 67.166 171.333 107.499 210s88.166 58 143.499 58c29.333 0 56.666 -6.66699 81.999 -20s49.333 -28.166 72 -44.499s44.334 -31.166 65.001 -44.499s41 -20 61 -20
c60.667 0 104.667 43 132 129h102c-23.333 -72.667 -45.666 -125.834 -66.999 -159.501s-47 -60.167 -77 -79.5s-65.667 -29 -107 -29z" />
    <glyph glyph-name="Odieresis" unicode="&#xd6;" horiz-adv-x="1593" 
d="M938 1430c184.667 0 330.499 -52.332 437.499 -156.999s160.5 -245.334 160.5 -422.001c-3.33301 -178.667 -40.666 -333.167 -111.999 -463.5s-169 -230.833 -293 -301.5s-264.667 -106 -422 -106c-189.333 0 -336.333 52.5 -441 157.5s-157 250.167 -157 435.5
c0 159.333 35.167 305.833 105.5 439.5s168.5 236.667 294.5 309s268.333 108.5 427 108.5zM928.999 1276c-133.333 0 -246.499 -29.667 -339.499 -89s-164.167 -148 -213.5 -266s-74 -237.333 -74 -358c0 -139.333 35.5 -245.5 106.5 -318.5s174.167 -109.5 309.5 -109.5
c131.333 0 243.166 28.833 335.499 86.5s164 144.167 215 259.5s76.5 237.333 76.5 366c0 138 -36.167 244 -108.5 318s-174.833 111 -307.5 111zM1048 1530l35 184h173l-35 -184h-173zM664 1530l35 184h175l-35 -184h-175z" />
    <glyph glyph-name="multiply" unicode="&#xd7;" horiz-adv-x="1196" 
d="M172 330l354 354l-352 352l104 103l350 -353l350 351l105 -105l-350 -348l352 -352l-102 -105l-353 353l-356 -355z" />
    <glyph glyph-name="Oslash" unicode="&#xd8;" horiz-adv-x="1593" 
d="M1423 1205c68.667 -96.667 102.999 -214.667 102.999 -354c-3.33301 -178.667 -40.666 -333.167 -111.999 -463.5s-169 -230.833 -293 -301.5s-264.667 -106 -422 -106c-168 0 -303 41.333 -405 124l-161 -157h-189l260 254c-68.667 99.333 -103 223.333 -103 372
c0 159.333 35.167 305.833 105.5 439.5s168.5 236.667 294.5 309s268.333 108.5 427 108.5c165.333 0 300 -42.333 404 -127l167 163h192zM918.999 1276c-133.333 0 -246.5 -29.667 -339.5 -89s-164.167 -148 -213.5 -266s-74 -237.333 -74 -358
c0 -90.667 15.333 -167.667 46 -231l870 850c-72.667 62.667 -169 94 -289 94zM1335 847c0 88.667 -15.332 164.333 -45.999 227l-870 -848c70 -60.667 166.333 -91 289 -91c131.333 0 243.166 28.833 335.499 86.5s164 144.167 215 259.5s76.5 237.333 76.5 366z" />
    <glyph glyph-name="Ugrave" unicode="&#xd9;" horiz-adv-x="1479" 
d="M654 -20c-155.333 0 -277.667 40.168 -367 120.501s-134 190.5 -134 330.5c0 29.333 2.5 64.5 7.5 105.5s10.167 73.833 15.5 98.5l150 774h191l-162 -843c-11.333 -58 -17 -105.667 -17 -143c0 -90.667 29.167 -161.334 87.5 -212.001s139.833 -76 244.5 -76
c256 0 409.667 135.333 461 406l168 868h190l-170 -879c-36 -182 -110 -319.167 -222 -411.5s-259.667 -138.5 -443 -138.5zM981.999 1530l-293 217l5 29h207l173 -226l-3 -20h-89z" />
    <glyph glyph-name="Uacute" unicode="&#xda;" horiz-adv-x="1479" 
d="M654 -20c-155.333 0 -277.667 40.168 -367 120.501s-134 190.5 -134 330.5c0 29.333 2.5 64.5 7.5 105.5s10.167 73.833 15.5 98.5l150 774h191l-162 -843c-11.333 -58 -17 -105.667 -17 -143c0 -90.667 29.167 -161.334 87.5 -212.001s139.833 -76 244.5 -76
c256 0 409.667 135.333 461 406l168 868h190l-170 -879c-36 -182 -110 -319.167 -222 -411.5s-259.667 -138.5 -443 -138.5zM775.999 1530l3 20l261 226h207l-5 -29l-352 -217h-114z" />
    <glyph glyph-name="Ucircumflex" unicode="&#xdb;" horiz-adv-x="1479" 
d="M654 -20c-155.333 0 -277.667 40.168 -367 120.501s-134 190.5 -134 330.5c0 29.333 2.5 64.5 7.5 105.5s10.167 73.833 15.5 98.5l150 774h191l-162 -843c-11.333 -58 -17 -105.667 -17 -143c0 -90.667 29.167 -161.334 87.5 -212.001s139.833 -76 244.5 -76
c256 0 409.667 135.333 461 406l168 868h190l-170 -879c-36 -182 -110 -319.167 -222 -411.5s-259.667 -138.5 -443 -138.5zM1249 1550l-4 -20h-95l-192 139h-2l-259 -139h-113l4 20l280 240h204z" />
    <glyph glyph-name="Udieresis" unicode="&#xdc;" horiz-adv-x="1479" 
d="M654 -20c-155.333 0 -277.667 40.168 -367 120.501s-134 190.5 -134 330.5c0 29.333 2.5 64.5 7.5 105.5s10.167 73.833 15.5 98.5l150 774h191l-162 -843c-11.333 -58 -17 -105.667 -17 -143c0 -90.667 29.167 -161.334 87.5 -212.001s139.833 -76 244.5 -76
c256 0 409.667 135.333 461 406l168 868h190l-170 -879c-36 -182 -110 -319.167 -222 -411.5s-259.667 -138.5 -443 -138.5zM1018 1530l35 184h173l-35 -184h-173zM633.999 1530l35 184h175l-35 -184h-175z" />
    <glyph glyph-name="Yacute" unicode="&#xdd;" horiz-adv-x="1366" 
d="M672 0h-190l115 584l-384 825h196l306 -674l560 674h214l-704 -825zM702 1530l3 20l261 226h207l-5 -29l-352 -217h-114z" />
    <glyph glyph-name="Thorn" unicode="&#xde;" horiz-adv-x="1366" 
d="M254 0l-191 0.000976562l274 1409h191l-49 -252h327c158 0 281 -34 369 -102s132 -163.667 132 -287c0 -146.667 -50.833 -261.834 -152.5 -345.501s-240.5 -125.5 -416.5 -125.5h-424zM344 448.001h387.001c254.667 0 382 103.667 382 311c0 79.333 -26.333 140 -79 182
s-130.334 63 -233.001 63h-349z" />
    <glyph glyph-name="germandbls" unicode="&#xdf;" horiz-adv-x="1251" 
d="M34 0l199.998 1027c31.333 158 90.5 273.667 177.5 347s203.833 110 350.5 110c118 0 212.5 -27 283.5 -81s106.5 -123 106.5 -207c0 -100.667 -51.667 -186 -155 -256c-64 -43.333 -105.833 -75.333 -125.5 -96s-29.5 -43 -29.5 -67c0 -26.667 10.333 -54.167 31 -82.5
s57.334 -66.833 110.001 -115.5c93.333 -87.333 140 -177.666 140 -270.999c0 -106 -36 -188.667 -108 -248s-172.333 -89 -301 -89c-57.333 0 -113.166 5.33301 -167.499 16s-97.5 23.667 -129.5 39l56 143c77.333 -36 159.333 -54 246 -54
c73.333 0 129.666 16.5 168.999 49.5s59 79.833 59 140.5c0 37.333 -10.667 73.166 -32 107.499s-56.666 73.166 -105.999 116.499c-48.667 42 -84 80.833 -106 116.5s-33 72.5 -33 110.5c0 50.667 12.833 95 38.5 133s63.834 72 114.501 102
c54.667 32 93.667 62.833 117 92.5s35 63.834 35 102.501c0 46 -20 83.667 -60 113s-94 44 -162 44c-96.667 0 -172.334 -26.5 -227.001 -79.5s-92.667 -133.833 -114 -242.5l-198 -1021h-180z" />
    <glyph glyph-name="agrave" unicode="&#xe0;" 
d="M933 -10c-62 0 -107.167 12.834 -135.5 38.501s-42.5 63.834 -42.5 114.501l5 64h-6c-55.333 -84 -112.666 -142.833 -171.999 -176.5s-131 -50.5 -215 -50.5c-93.333 0 -169.166 28 -227.499 84s-87.5 127.333 -87.5 214c0 123.333 44.167 216.666 132.5 279.999
s229.166 96.333 422.499 99l232 3c12.667 65.333 19 107.666 19 126.999c0 60.667 -17.667 105.5 -53 134.5s-84.333 43.5 -147 43.5c-79.333 0 -139.333 -14.167 -180 -42.5s-70 -71.5 -88 -129.5l-178 29c30 98 82.167 169.167 156.5 213.5s174.166 66.5 299.499 66.5
c114 0 204.167 -26.667 270.5 -80s99.5 -125 99.5 -215c0 -42.667 -6.33301 -95 -19 -157l-74 -378c-7.33301 -32 -11 -61.333 -11 -88c0 -48.667 27 -73 81 -73c18 0 38 2.33301 60 7l-14 -112c-44 -10.667 -86.667 -16 -128 -16zM815 536.001l-199 -4.00098
c-79.333 -2 -141.666 -9.16699 -186.999 -21.5s-80.5 -28 -105.5 -47s-44.667 -43 -59 -72s-21.5 -64.167 -21.5 -105.5c0 -50 16.167 -90.667 48.5 -122s74.166 -47 125.499 -47c64.667 0 123 13.833 175 41.5s95 63.834 129 108.501s56.333 92.667 67 144zM753 1201
l-282 278l5 29h207l161 -287l-3 -20h-88z" />
    <glyph glyph-name="aacute" unicode="&#xe1;" 
d="M933 -10c-62 0 -107.167 12.834 -135.5 38.501s-42.5 63.834 -42.5 114.501l5 64h-6c-55.333 -84 -112.666 -142.833 -171.999 -176.5s-131 -50.5 -215 -50.5c-93.333 0 -169.166 28 -227.499 84s-87.5 127.333 -87.5 214c0 123.333 44.167 216.666 132.5 279.999
s229.166 96.333 422.499 99l232 3c12.667 65.333 19 107.666 19 126.999c0 60.667 -17.667 105.5 -53 134.5s-84.333 43.5 -147 43.5c-79.333 0 -139.333 -14.167 -180 -42.5s-70 -71.5 -88 -129.5l-178 29c30 98 82.167 169.167 156.5 213.5s174.166 66.5 299.499 66.5
c114 0 204.167 -26.667 270.5 -80s99.5 -125 99.5 -215c0 -42.667 -6.33301 -95 -19 -157l-74 -378c-7.33301 -32 -11 -61.333 -11 -88c0 -48.667 27 -73 81 -73c18 0 38 2.33301 60 7l-14 -112c-44 -10.667 -86.667 -16 -128 -16zM815 536.001l-199 -4.00098
c-79.333 -2 -141.666 -9.16699 -186.999 -21.5s-80.5 -28 -105.5 -47s-44.667 -43 -59 -72s-21.5 -64.167 -21.5 -105.5c0 -50 16.167 -90.667 48.5 -122s74.166 -47 125.499 -47c64.667 0 123 13.833 175 41.5s95 63.834 129 108.501s56.333 92.667 67 144zM540 1201l3 20
l253 287h217l-5 -29l-374 -278h-94z" />
    <glyph glyph-name="acircumflex" unicode="&#xe2;" 
d="M933 -10c-62 0 -107.167 12.834 -135.5 38.501s-42.5 63.834 -42.5 114.501l5 64h-6c-55.333 -84 -112.666 -142.833 -171.999 -176.5s-131 -50.5 -215 -50.5c-93.333 0 -169.166 28 -227.499 84s-87.5 127.333 -87.5 214c0 123.333 44.167 216.666 132.5 279.999
s229.166 96.333 422.499 99l232 3c12.667 65.333 19 107.666 19 126.999c0 60.667 -17.667 105.5 -53 134.5s-84.333 43.5 -147 43.5c-79.333 0 -139.333 -14.167 -180 -42.5s-70 -71.5 -88 -129.5l-178 29c30 98 82.167 169.167 156.5 213.5s174.166 66.5 299.499 66.5
c114 0 204.167 -26.667 270.5 -80s99.5 -125 99.5 -215c0 -42.667 -6.33301 -95 -19 -157l-74 -378c-7.33301 -32 -11 -61.333 -11 -88c0 -48.667 27 -73 81 -73c18 0 38 2.33301 60 7l-14 -112c-44 -10.667 -86.667 -16 -128 -16zM815 536.001l-199 -4.00098
c-79.333 -2 -141.666 -9.16699 -186.999 -21.5s-80.5 -28 -105.5 -47s-44.667 -43 -59 -72s-21.5 -64.167 -21.5 -105.5c0 -50 16.167 -90.667 48.5 -122s74.166 -47 125.499 -47c64.667 0 123 13.833 175 41.5s95 63.834 129 108.501s56.333 92.667 67 144zM1007 1221
l-4 -20h-92l-186 169h-2l-265 -169h-116l4 20l286 270h204z" />
    <glyph glyph-name="atilde" unicode="&#xe3;" 
d="M933 -10c-62 0 -107.167 12.834 -135.5 38.501s-42.5 63.834 -42.5 114.501l5 64h-6c-55.333 -84 -112.666 -142.833 -171.999 -176.5s-131 -50.5 -215 -50.5c-93.333 0 -169.166 28 -227.499 84s-87.5 127.333 -87.5 214c0 123.333 44.167 216.666 132.5 279.999
s229.166 96.333 422.499 99l232 3c12.667 65.333 19 107.666 19 126.999c0 60.667 -17.667 105.5 -53 134.5s-84.333 43.5 -147 43.5c-79.333 0 -139.333 -14.167 -180 -42.5s-70 -71.5 -88 -129.5l-178 29c30 98 82.167 169.167 156.5 213.5s174.166 66.5 299.499 66.5
c114 0 204.167 -26.667 270.5 -80s99.5 -125 99.5 -215c0 -42.667 -6.33301 -95 -19 -157l-74 -378c-7.33301 -32 -11 -61.333 -11 -88c0 -48.667 27 -73 81 -73c18 0 38 2.33301 60 7l-14 -112c-44 -10.667 -86.667 -16 -128 -16zM815 536.001l-199 -4.00098
c-79.333 -2 -141.666 -9.16699 -186.999 -21.5s-80.5 -28 -105.5 -47s-44.667 -43 -59 -72s-21.5 -64.167 -21.5 -105.5c0 -50 16.167 -90.667 48.5 -122s74.166 -47 125.499 -47c64.667 0 123 13.833 175 41.5s95 63.834 129 108.501s56.333 92.667 67 144zM843 1201
c-28 0 -54.665 6.16797 -79.998 18.501s-49.5 26 -72.5 41s-45.167 28.667 -66.5 41s-42.333 18.5 -63 18.5c-66.667 0 -114 -39.667 -142 -119h-90c31.333 101.333 67.166 171.333 107.499 210s88.166 58 143.499 58c29.333 0 56.666 -6.16699 81.999 -18.5
s49.5 -26 72.5 -41l65.5 -41c20.667 -12.333 41 -18.5 61 -18.5c67.333 0 114.333 39.667 141 119h92c-23.333 -72.667 -45.666 -125.834 -66.999 -159.501s-47 -60.167 -77 -79.5s-65.667 -29 -107 -29z" />
    <glyph glyph-name="adieresis" unicode="&#xe4;" 
d="M933 -10c-62 0 -107.167 12.834 -135.5 38.501s-42.5 63.834 -42.5 114.501l5 64h-6c-55.333 -84 -112.666 -142.833 -171.999 -176.5s-131 -50.5 -215 -50.5c-93.333 0 -169.166 28 -227.499 84s-87.5 127.333 -87.5 214c0 123.333 44.167 216.666 132.5 279.999
s229.166 96.333 422.499 99l232 3c12.667 65.333 19 107.666 19 126.999c0 60.667 -17.667 105.5 -53 134.5s-84.333 43.5 -147 43.5c-79.333 0 -139.333 -14.167 -180 -42.5s-70 -71.5 -88 -129.5l-178 29c30 98 82.167 169.167 156.5 213.5s174.166 66.5 299.499 66.5
c114 0 204.167 -26.667 270.5 -80s99.5 -125 99.5 -215c0 -42.667 -6.33301 -95 -19 -157l-74 -378c-7.33301 -32 -11 -61.333 -11 -88c0 -48.667 27 -73 81 -73c18 0 38 2.33301 60 7l-14 -112c-44 -10.667 -86.667 -16 -128 -16zM815 536.001l-199 -4.00098
c-79.333 -2 -141.666 -9.16699 -186.999 -21.5s-80.5 -28 -105.5 -47s-44.667 -43 -59 -72s-21.5 -64.167 -21.5 -105.5c0 -50 16.167 -90.667 48.5 -122s74.166 -47 125.499 -47c64.667 0 123 13.833 175 41.5s95 63.834 129 108.501s56.333 92.667 67 144zM787 1219
l35 184h173l-35 -184h-173zM403 1219l35 184h175l-35 -184h-175z" />
    <glyph glyph-name="aring" unicode="&#xe5;" 
d="M933 -10c-62 0 -107.167 12.834 -135.5 38.501s-42.5 63.834 -42.5 114.501l5 64h-6c-55.333 -84 -112.666 -142.833 -171.999 -176.5s-131 -50.5 -215 -50.5c-93.333 0 -169.166 28 -227.499 84s-87.5 127.333 -87.5 214c0 123.333 44.167 216.666 132.5 279.999
s229.166 96.333 422.499 99l232 3c12.667 65.333 19 107.666 19 126.999c0 60.667 -17.667 105.5 -53 134.5s-84.333 43.5 -147 43.5c-79.333 0 -139.333 -14.167 -180 -42.5s-70 -71.5 -88 -129.5l-178 29c30 98 82.167 169.167 156.5 213.5s174.166 66.5 299.499 66.5
c114 0 204.167 -26.667 270.5 -80s99.5 -125 99.5 -215c0 -42.667 -6.33301 -95 -19 -157l-74 -378c-7.33301 -32 -11 -61.333 -11 -88c0 -48.667 27 -73 81 -73c18 0 38 2.33301 60 7l-14 -112c-44 -10.667 -86.667 -16 -128 -16zM815 536.001l-199 -4.00098
c-79.333 -2 -141.666 -9.16699 -186.999 -21.5s-80.5 -28 -105.5 -47s-44.667 -43 -59 -72s-21.5 -64.167 -21.5 -105.5c0 -50 16.167 -90.667 48.5 -122s74.166 -47 125.499 -47c64.667 0 123 13.833 175 41.5s95 63.834 129 108.501s56.333 92.667 67 144zM975 1410
c0 -66.667 -23.667 -123.667 -71 -171s-104.333 -71 -171 -71s-123.667 23.667 -171 71s-71 104.333 -71 171c0 67.333 23.667 124.333 71 171s104.333 70 171 70c66 0 122.833 -23.5 170.5 -70.5s71.5 -103.833 71.5 -170.5zM867 1410c0 38.667 -12.667 70.667 -38 96
s-57.333 38 -96 38c-39.333 0 -71.666 -13.167 -96.999 -39.5s-38 -57.833 -38 -94.5s12.667 -68.667 38 -96s57.666 -41 96.999 -41c38.667 0 70.667 13.333 96 40s38 59 38 97z" />
    <glyph glyph-name="ae" unicode="&#xe6;" horiz-adv-x="1821" 
d="M989 503c-4 -23.333 -7.00098 -61 -9.00098 -113c0 -88.667 20.5 -156.667 61.5 -204s101.833 -71 182.5 -71c58 0 110.5 15.167 157.5 45.5s85.167 74.833 114.5 133.5l138 -63c-47.333 -88 -106.333 -151.833 -177 -191.5s-155.667 -59.5 -255 -59.5
c-100.667 0 -182.667 23.333 -246 70s-106.666 112.667 -129.999 198c-64.667 -92.667 -137 -160.5 -217 -203.5s-167.333 -64.5 -262 -64.5c-63.333 0 -118.833 12.667 -166.5 38s-84.334 60.833 -110.001 106.5s-38.5 96.834 -38.5 153.501
c0 123.333 45.167 216.5 135.5 279.5s234.833 96.167 433.5 99.5l238 3c12.667 65.333 19 107.666 19 126.999c0 118.667 -69.333 178 -208 178c-82.667 0 -145.167 -14 -187.5 -42s-73.166 -71.333 -92.499 -130l-178 29c31.333 98 85.5 169.167 162.5 213.5
s180.5 66.5 310.5 66.5c148 0 256.333 -52.667 325 -158c82.667 105.333 197.667 158 345 158c130 0 231 -34.667 303 -104s108 -166 108 -290c0 -32 -2.5 -68.5 -7.5 -109.5s-10.167 -72.833 -15.5 -95.5h-734zM813.999 534l-205.999 -3.99902
c-98 -2.66699 -173.833 -13 -227.5 -31s-93.334 -44.833 -119.001 -80.5s-38.5 -79.834 -38.5 -132.501c0 -51.333 15.5 -92.333 46.5 -123s72.5 -46 124.5 -46c67.333 0 129.5 14.833 186.5 44.5s104.667 70 143 121s62.833 105.167 73.5 162.5zM1563 641.001l4 72
c0 82.667 -19.667 146 -59 190s-96 66 -170 66c-82 0 -151 -28.333 -207 -85s-95.333 -137.667 -118 -243h550z" />
    <glyph glyph-name="ccedilla" unicode="&#xe7;" horiz-adv-x="1024" 
d="M469 122c136.667 0 232.999 76.668 288.999 230.001l156 -49c-80.667 -215.333 -230.334 -323 -449.001 -323c-128 0 -226.333 36.333 -295 109s-103 174.667 -103 306c0 133.333 24.167 257.333 72.5 372s112.333 199.167 192 253.5s177.5 81.5 293.5 81.5
c112.667 0 201.834 -28.333 267.501 -85s101.834 -134.334 108.501 -233.001l-177 -25c-4 64.667 -24 114.5 -60 149.5s-84.333 52.5 -145 52.5c-84 0 -152 -22.5 -204 -67.5s-92.333 -116.5 -121 -214.5s-43 -194.667 -43 -290c0 -178 72.667 -267 218 -267z
M451.999 -95.999c54 -3.33301 94.498 -17 121.498 -41s40.5 -55.667 40.5 -95c0 -128.667 -101 -193 -303 -193c-33.333 0 -68.666 2.33301 -105.999 7l21 91c32 -4 61.333 -6 88 -6c60.667 0 103.5 7.33301 128.5 22s37.5 37 37.5 67c0 48 -39.667 72 -119 72
c-29.333 0 -48.666 -0.666992 -57.999 -2l101 174h107z" />
    <glyph glyph-name="egrave" unicode="&#xe8;" 
d="M256 503c-4 -23.333 -7 -61 -9 -113c0 -88.667 22.167 -156.667 66.5 -204s111.166 -71 200.499 -71c64.667 0 123.334 16 176.001 48s93.667 75.667 123 131l138 -63c-48.667 -87.333 -110.5 -151 -185.5 -191s-165.833 -60 -272.5 -60
c-134 0 -238.167 37.167 -312.5 111.5s-111.5 178.833 -111.5 313.5c0 134 23.667 254.167 71 360.5s114 189 200 248s182.667 88.5 290 88.5c136.667 0 243 -34.333 319 -103s114 -165.667 114 -291c0 -70 -8 -138.333 -24 -205h-783zM880 641l4 72
c0 82.667 -21.5 146 -64.5 190s-104.833 66 -185.5 66c-89.333 0 -164.5 -28.5 -225.5 -85.5s-103.833 -137.833 -128.5 -242.5h600zM710 1201l-282 278l5 29h207l161 -287l-3 -20h-88z" />
    <glyph glyph-name="eacute" unicode="&#xe9;" 
d="M256 503c-4 -23.333 -7 -61 -9 -113c0 -88.667 22.167 -156.667 66.5 -204s111.166 -71 200.499 -71c64.667 0 123.334 16 176.001 48s93.667 75.667 123 131l138 -63c-48.667 -87.333 -110.5 -151 -185.5 -191s-165.833 -60 -272.5 -60
c-134 0 -238.167 37.167 -312.5 111.5s-111.5 178.833 -111.5 313.5c0 134 23.667 254.167 71 360.5s114 189 200 248s182.667 88.5 290 88.5c136.667 0 243 -34.333 319 -103s114 -165.667 114 -291c0 -70 -8 -138.333 -24 -205h-783zM880 641l4 72
c0 82.667 -21.5 146 -64.5 190s-104.833 66 -185.5 66c-89.333 0 -164.5 -28.5 -225.5 -85.5s-103.833 -137.833 -128.5 -242.5h600zM533 1201l3 20l253 287h217l-5 -29l-374 -278h-94z" />
    <glyph glyph-name="ecircumflex" unicode="&#xea;" 
d="M256 503c-4 -23.333 -7 -61 -9 -113c0 -88.667 22.167 -156.667 66.5 -204s111.166 -71 200.499 -71c64.667 0 123.334 16 176.001 48s93.667 75.667 123 131l138 -63c-48.667 -87.333 -110.5 -151 -185.5 -191s-165.833 -60 -272.5 -60
c-134 0 -238.167 37.167 -312.5 111.5s-111.5 178.833 -111.5 313.5c0 134 23.667 254.167 71 360.5s114 189 200 248s182.667 88.5 290 88.5c136.667 0 243 -34.333 319 -103s114 -165.667 114 -291c0 -70 -8 -138.333 -24 -205h-783zM880 641l4 72
c0 82.667 -21.5 146 -64.5 190s-104.833 66 -185.5 66c-89.333 0 -164.5 -28.5 -225.5 -85.5s-103.833 -137.833 -128.5 -242.5h600zM1000 1221l-4 -20h-92l-186 169h-2l-265 -169h-116l4 20l286 270h204z" />
    <glyph glyph-name="edieresis" unicode="&#xeb;" 
d="M256 503c-4 -23.333 -7 -61 -9 -113c0 -88.667 22.167 -156.667 66.5 -204s111.166 -71 200.499 -71c64.667 0 123.334 16 176.001 48s93.667 75.667 123 131l138 -63c-48.667 -87.333 -110.5 -151 -185.5 -191s-165.833 -60 -272.5 -60
c-134 0 -238.167 37.167 -312.5 111.5s-111.5 178.833 -111.5 313.5c0 134 23.667 254.167 71 360.5s114 189 200 248s182.667 88.5 290 88.5c136.667 0 243 -34.333 319 -103s114 -165.667 114 -291c0 -70 -8 -138.333 -24 -205h-783zM880 641l4 72
c0 82.667 -21.5 146 -64.5 190s-104.833 66 -185.5 66c-89.333 0 -164.5 -28.5 -225.5 -85.5s-103.833 -137.833 -128.5 -242.5h600zM762 1219l35 184h173l-35 -184h-173zM378 1219l35 184h175l-35 -184h-175z" />
    <glyph glyph-name="igrave" unicode="&#xec;" horiz-adv-x="569" 
d="M89 0l210 1082h180l-211 -1082h-179zM408 1201l-282 278l5 29h207l161 -287l-3 -20h-88z" />
    <glyph glyph-name="iacute" unicode="&#xed;" horiz-adv-x="569" 
d="M89 0l210 1082h180l-211 -1082h-179zM262 1201l3 20l253 287h217l-5 -29l-374 -278h-94z" />
    <glyph glyph-name="icircumflex" unicode="&#xee;" horiz-adv-x="569" 
d="M89 0l210 1082h180l-211 -1082h-179zM723 1221l-4 -20h-92l-186 169h-2l-265 -169h-116l4 20l286 270h204z" />
    <glyph glyph-name="idieresis" unicode="&#xef;" horiz-adv-x="569" 
d="M89 0l210 1082h180l-211 -1082h-179zM514 1219l35 184h173l-35 -184h-173zM130 1219l35 184h175l-35 -184h-175z" />
    <glyph glyph-name="eth" unicode="&#xf0;" 
d="M625 1328c-64 60 -128.997 112.002 -194.997 156.002h176c51.333 -26 103.333 -60 156 -102l263 102l-19 -108l-169 -67c78 -92.667 133.667 -185.334 167 -278.001s50 -193.667 50 -303c0 -140 -21.5 -270.333 -64.5 -391s-104.5 -209.5 -184.5 -266.5
s-184.667 -85.5 -314 -85.5c-132.667 0 -236.5 37.667 -311.5 113s-112.5 177 -112.5 305c0 106.667 21.5 205.834 64.5 297.501s103.833 161 182.5 208s175.667 70.5 291 70.5c52.667 0 103.167 -9.83301 151.5 -29.5s84.166 -44.834 107.499 -75.501
c-12.667 75.333 -33.834 145.666 -63.501 210.999s-63.834 120 -102.501 164l-273 -113l21 120zM603.003 846.002c-80 0 -145.332 -18.668 -195.999 -56.001s-89.334 -95.166 -116.001 -173.499s-40 -154.5 -40 -228.5c0 -86.667 21 -153.334 63 -200.001s102 -70 180 -70
c62.667 0 115.667 11.333 159 34s79.833 57.5 109.5 104.5s53.167 108.167 70.5 183.5s26 140.333 26 195c0 36.667 -10.833 71.334 -32.5 104.001s-52.167 58.667 -91.5 78s-83.333 29 -132 29z" />
    <glyph glyph-name="ntilde" unicode="&#xf1;" 
d="M717 0l125.998 644.999c12 58.667 18 108.667 18 150c0 111.333 -59.667 167 -179 167c-84 0 -158 -32 -222 -96s-106.667 -150.667 -128 -260l-118 -606h-180l166 851c13.333 63.333 26.333 140.333 39 231h170c0 -7.33301 -3.5 -33.166 -10.5 -77.499l-17.5 -107.5h3
c55.333 76.667 110.833 129.834 166.5 159.501s121.834 44.5 198.501 44.5c98.667 0 172.834 -24.333 222.501 -73s74.5 -119 74.5 -211c0 -42.667 -7 -97.334 -21 -164.001l-127 -653h-181zM843.998 1201c-28 0 -54.665 6.16797 -79.998 18.501s-49.5 26 -72.5 41
s-45.167 28.667 -66.5 41s-42.333 18.5 -63 18.5c-66.667 0 -114 -39.667 -142 -119h-90c31.333 101.333 67.166 171.333 107.499 210s88.166 58 143.499 58c29.333 0 56.666 -6.16699 81.999 -18.5s49.5 -26 72.5 -41l65.5 -41c20.667 -12.333 41 -18.5 61 -18.5
c67.333 0 114.333 39.667 141 119h92c-23.333 -72.667 -45.666 -125.834 -66.999 -159.501s-47 -60.167 -77 -79.5s-65.667 -29 -107 -29z" />
    <glyph glyph-name="ograve" unicode="&#xf2;" 
d="M1080 683c0 -86.667 -13.334 -176.833 -40.001 -270.5s-64.834 -173 -114.501 -238s-110.5 -113.667 -182.5 -146s-154 -48.5 -246 -48.5c-130.667 0 -234 39.333 -310 118s-114 185.667 -114 321c2.66699 136 27.334 256.667 74.001 362s111.334 185 194.001 239
s185 81 307 81c140 0 247 -36.5 321 -109.5s111 -175.833 111 -308.5zM893.999 683.001c0 190.667 -82.668 286.001 -248.001 286.001c-90 0 -162.167 -23.167 -216.5 -69.5s-96.5 -116.5 -126.5 -210.5s-45 -185 -45 -273c0 -98.667 21.333 -173.834 64 -225.501
s104.667 -77.5 186 -77.5c68.667 0 123.834 11.5 165.501 34.5s78.167 59 109.5 108s56.833 111.5 76.5 187.5s31.167 156 34.5 240zM719.998 1201l-282 278l5 29h207l161 -287l-3 -20h-88z" />
    <glyph glyph-name="oacute" unicode="&#xf3;" 
d="M1080 683c0 -86.667 -13.334 -176.833 -40.001 -270.5s-64.834 -173 -114.501 -238s-110.5 -113.667 -182.5 -146s-154 -48.5 -246 -48.5c-130.667 0 -234 39.333 -310 118s-114 185.667 -114 321c2.66699 136 27.334 256.667 74.001 362s111.334 185 194.001 239
s185 81 307 81c140 0 247 -36.5 321 -109.5s111 -175.833 111 -308.5zM893.999 683.001c0 190.667 -82.668 286.001 -248.001 286.001c-90 0 -162.167 -23.167 -216.5 -69.5s-96.5 -116.5 -126.5 -210.5s-45 -185 -45 -273c0 -98.667 21.333 -173.834 64 -225.501
s104.667 -77.5 186 -77.5c68.667 0 123.834 11.5 165.501 34.5s78.167 59 109.5 108s56.833 111.5 76.5 187.5s31.167 156 34.5 240zM532.998 1201l3 20l253 287h217l-5 -29l-374 -278h-94z" />
    <glyph glyph-name="ocircumflex" unicode="&#xf4;" 
d="M1080 683c0 -86.667 -13.334 -176.833 -40.001 -270.5s-64.834 -173 -114.501 -238s-110.5 -113.667 -182.5 -146s-154 -48.5 -246 -48.5c-130.667 0 -234 39.333 -310 118s-114 185.667 -114 321c2.66699 136 27.334 256.667 74.001 362s111.334 185 194.001 239
s185 81 307 81c140 0 247 -36.5 321 -109.5s111 -175.833 111 -308.5zM893.999 683.001c0 190.667 -82.668 286.001 -248.001 286.001c-90 0 -162.167 -23.167 -216.5 -69.5s-96.5 -116.5 -126.5 -210.5s-45 -185 -45 -273c0 -98.667 21.333 -173.834 64 -225.501
s104.667 -77.5 186 -77.5c68.667 0 123.834 11.5 165.501 34.5s78.167 59 109.5 108s56.833 111.5 76.5 187.5s31.167 156 34.5 240zM1009 1221l-4 -20h-92l-186 169h-2l-265 -169h-116l4 20l286 270h204z" />
    <glyph glyph-name="otilde" unicode="&#xf5;" 
d="M1080 683c0 -86.667 -13.334 -176.833 -40.001 -270.5s-64.834 -173 -114.501 -238s-110.5 -113.667 -182.5 -146s-154 -48.5 -246 -48.5c-130.667 0 -234 39.333 -310 118s-114 185.667 -114 321c2.66699 136 27.334 256.667 74.001 362s111.334 185 194.001 239
s185 81 307 81c140 0 247 -36.5 321 -109.5s111 -175.833 111 -308.5zM893.999 683.001c0 190.667 -82.668 286.001 -248.001 286.001c-90 0 -162.167 -23.167 -216.5 -69.5s-96.5 -116.5 -126.5 -210.5s-45 -185 -45 -273c0 -98.667 21.333 -173.834 64 -225.501
s104.667 -77.5 186 -77.5c68.667 0 123.834 11.5 165.501 34.5s78.167 59 109.5 108s56.833 111.5 76.5 187.5s31.167 156 34.5 240zM813.998 1201c-28 0 -54.665 6.16797 -79.998 18.501s-49.5 26 -72.5 41s-45.167 28.667 -66.5 41s-42.333 18.5 -63 18.5
c-66.667 0 -114 -39.667 -142 -119h-90c31.333 101.333 67.166 171.333 107.499 210s88.166 58 143.499 58c29.333 0 56.666 -6.16699 81.999 -18.5s49.5 -26 72.5 -41l65.5 -41c20.667 -12.333 41 -18.5 61 -18.5c67.333 0 114.333 39.667 141 119h92
c-23.333 -72.667 -45.666 -125.834 -66.999 -159.501s-47 -60.167 -77 -79.5s-65.667 -29 -107 -29z" />
    <glyph glyph-name="odieresis" unicode="&#xf6;" 
d="M1080 683c0 -86.667 -13.334 -176.833 -40.001 -270.5s-64.834 -173 -114.501 -238s-110.5 -113.667 -182.5 -146s-154 -48.5 -246 -48.5c-130.667 0 -234 39.333 -310 118s-114 185.667 -114 321c2.66699 136 27.334 256.667 74.001 362s111.334 185 194.001 239
s185 81 307 81c140 0 247 -36.5 321 -109.5s111 -175.833 111 -308.5zM893.999 683.001c0 190.667 -82.668 286.001 -248.001 286.001c-90 0 -162.167 -23.167 -216.5 -69.5s-96.5 -116.5 -126.5 -210.5s-45 -185 -45 -273c0 -98.667 21.333 -173.834 64 -225.501
s104.667 -77.5 186 -77.5c68.667 0 123.834 11.5 165.501 34.5s78.167 59 109.5 108s56.833 111.5 76.5 187.5s31.167 156 34.5 240zM773.998 1219l35 184h173l-35 -184h-173zM389.998 1219l35 184h175l-35 -184h-175z" />
    <glyph glyph-name="divide" unicode="&#xf7;" horiz-adv-x="1124" 
d="M495 958v183h168v-183h-168zM82 608v146h995v-146h-995zM495 223v183h168v-183h-168z" />
    <glyph glyph-name="oslash" unicode="&#xf8;" horiz-adv-x="1251" 
d="M201 145c-50.667 72.667 -76.002 164 -76.002 274c2.66699 136 27.334 256.667 74.001 362s111.334 185 194.001 239s185 81 307 81c108 0 197 -22.333 267 -67l70 82h167l-146 -169c49.333 -68.667 74 -156.667 74 -264c0 -70.667 -8.66699 -142.667 -26 -216
c-73.333 -321.333 -259 -482 -557 -482c-102.667 0 -188.667 23.667 -258 71l-80 -94h-167zM309.998 416c0 -48.667 5 -91 15 -127l540 627c-42 35.333 -97.667 53 -167 53c-90 0 -162.167 -23.167 -216.5 -69.5s-96.5 -116.5 -126.5 -210.5s-45 -185 -45 -273zM945.998 683
c0 44 -4.66895 83.002 -14.002 117.002l-540 -627c42 -36.667 98 -55 168 -55c90.667 0 161.834 22.167 213.501 66.5s92.334 111.666 122.001 201.999s46.5 189.166 50.5 296.499z" />
    <glyph glyph-name="ugrave" unicode="&#xf9;" 
d="M415 1082l-125.998 -644.999c-12 -58.667 -18 -108.667 -18 -150c0 -111.333 59.667 -167 179 -167c84 0 158 32 222 96s106.667 150.667 128 260l118 606h180l-166 -851c-13.333 -63.333 -26.333 -140.333 -39 -231h-170c0 7.33301 3.5 33.166 10.5 77.499l17.5 107.5
h-3c-55.333 -76.667 -110.833 -129.834 -166.5 -159.501s-121.834 -44.5 -198.501 -44.5c-98.667 0 -172.834 24.333 -222.501 73s-74.5 119 -74.5 211c0 42.667 7 97.334 21 164.001l127 653h181zM734.002 1201l-282 278l5 29h207l161 -287l-3 -20h-88z" />
    <glyph glyph-name="uacute" unicode="&#xfa;" 
d="M415 1082l-125.998 -644.999c-12 -58.667 -18 -108.667 -18 -150c0 -111.333 59.667 -167 179 -167c84 0 158 32 222 96s106.667 150.667 128 260l118 606h180l-166 -851c-13.333 -63.333 -26.333 -140.333 -39 -231h-170c0 7.33301 3.5 33.166 10.5 77.499l17.5 107.5
h-3c-55.333 -76.667 -110.833 -129.834 -166.5 -159.501s-121.834 -44.5 -198.501 -44.5c-98.667 0 -172.834 24.333 -222.501 73s-74.5 119 -74.5 211c0 42.667 7 97.334 21 164.001l127 653h181zM541.002 1201l3 20l253 287h217l-5 -29l-374 -278h-94z" />
    <glyph glyph-name="ucircumflex" unicode="&#xfb;" 
d="M415 1082l-125.998 -644.999c-12 -58.667 -18 -108.667 -18 -150c0 -111.333 59.667 -167 179 -167c84 0 158 32 222 96s106.667 150.667 128 260l118 606h180l-166 -851c-13.333 -63.333 -26.333 -140.333 -39 -231h-170c0 7.33301 3.5 33.166 10.5 77.499l17.5 107.5
h-3c-55.333 -76.667 -110.833 -129.834 -166.5 -159.501s-121.834 -44.5 -198.501 -44.5c-98.667 0 -172.834 24.333 -222.501 73s-74.5 119 -74.5 211c0 42.667 7 97.334 21 164.001l127 653h181zM1021 1221l-4 -20h-92l-186 169h-2l-265 -169h-116l4 20l286 270h204z" />
    <glyph glyph-name="udieresis" unicode="&#xfc;" 
d="M415 1082l-125.998 -644.999c-12 -58.667 -18 -108.667 -18 -150c0 -111.333 59.667 -167 179 -167c84 0 158 32 222 96s106.667 150.667 128 260l118 606h180l-166 -851c-13.333 -63.333 -26.333 -140.333 -39 -231h-170c0 7.33301 3.5 33.166 10.5 77.499l17.5 107.5
h-3c-55.333 -76.667 -110.833 -129.834 -166.5 -159.501s-121.834 -44.5 -198.501 -44.5c-98.667 0 -172.834 24.333 -222.501 73s-74.5 119 -74.5 211c0 42.667 7 97.334 21 164.001l127 653h181zM794.002 1219l35 184h173l-35 -184h-173zM410.002 1219l35 184h175
l-35 -184h-175z" />
    <glyph glyph-name="yacute" unicode="&#xfd;" horiz-adv-x="1024" 
d="M16 -425c-48 0 -92.001 4.66895 -132.001 14.002l31 134c30 -5.33301 55.667 -8 77 -8c63.333 0 119.166 21.333 167.499 64s95.833 104.667 142.5 186l27 47l-217 1070h183l112 -598c10 -53.333 19.333 -110.166 28 -170.499s13.334 -99.5 14.001 -117.5
c6.66699 14.667 15.334 32.667 26.001 54s161.667 298.666 453 831.999h199l-626 -1082c-74 -128.667 -133.5 -218.834 -178.5 -270.501s-92 -90.334 -141 -116.001s-104.167 -38.5 -165.5 -38.5zM502.999 1201l3 20l253 287h217l-5 -29l-374 -278h-94z" />
    <glyph glyph-name="thorn" unicode="&#xfe;" 
d="M554 -20c-82 0 -148.834 17.333 -200.501 52s-88.167 83.334 -109.5 146.001h-5c-6.66699 -57.333 -16.334 -117.333 -29.001 -180l-82 -423h-179l371 1909h180l-83 -423c-5.33301 -30.667 -16.666 -77.334 -33.999 -140.001h4c48.667 63.333 100 109.333 154 138
s120.667 43 200 43c104.667 0 186.167 -31.5 244.5 -94.5s87.5 -149.5 87.5 -259.5c0 -135.333 -20.5 -266.5 -61.5 -393.5s-98.667 -221.167 -173 -282.5s-169.166 -92 -284.499 -92zM688.999 963c-66 0 -122.498 -13.5 -169.498 -40.5s-86.833 -67.667 -119.5 -122
s-58.334 -122.333 -77.001 -204s-28 -154.834 -28 -219.501c0 -83.333 21.167 -148.166 63.5 -194.499s101.166 -69.5 176.499 -69.5c82.667 0 148 25.167 196 75.5s85.667 130.333 113 240s41 205.5 41 287.5s-15.667 143.667 -47 185s-81 62 -149 62z" />
    <glyph glyph-name="ydieresis" unicode="&#xff;" horiz-adv-x="1024" 
d="M16 -425c-48 0 -92.001 4.66895 -132.001 14.002l31 134c30 -5.33301 55.667 -8 77 -8c63.333 0 119.166 21.333 167.499 64s95.833 104.667 142.5 186l27 47l-217 1070h183l112 -598c10 -53.333 19.333 -110.166 28 -170.499s13.334 -99.5 14.001 -117.5
c6.66699 14.667 15.334 32.667 26.001 54s161.667 298.666 453 831.999h199l-626 -1082c-74 -128.667 -133.5 -218.834 -178.5 -270.501s-92 -90.334 -141 -116.001s-104.167 -38.5 -165.5 -38.5zM737.999 1219l35 184h173l-35 -184h-173zM353.999 1219l35 184h175l-35 -184
h-175z" />
    <glyph glyph-name="Amacron" unicode="&#x100;" horiz-adv-x="1366" 
d="M1061 0l-75 412h-639l-240 -412h-208l848 1409h217l292 -1409h-195zM830 1265c-8.66699 -17.333 -21 -40.333 -37 -69l-362 -635h527l-102 553zM1127 1570h-550l26 127h550z" />
    <glyph glyph-name="amacron" unicode="&#x101;" 
d="M927 -10c-62 0 -107.167 12.834 -135.5 38.501s-42.5 63.834 -42.5 114.501l5 64h-6c-55.333 -84 -112.666 -142.833 -171.999 -176.5s-131 -50.5 -215 -50.5c-93.333 0 -169.166 28 -227.499 84s-87.5 127.333 -87.5 214c0 123.333 44.167 216.666 132.5 279.999
s229.166 96.333 422.499 99l232 3c12.667 65.333 19 107.666 19 126.999c0 60.667 -17.667 105.5 -53 134.5s-84.333 43.5 -147 43.5c-79.333 0 -139.333 -14.167 -180 -42.5s-70 -71.5 -88 -129.5l-178 29c30 98 82.167 169.167 156.5 213.5s174.166 66.5 299.499 66.5
c114 0 204.167 -26.667 270.5 -80s99.5 -125 99.5 -215c0 -42.667 -6.33301 -95 -19 -157l-74 -378c-7.33301 -32 -11 -61.333 -11 -88c0 -48.667 27 -73 81 -73c18 0 38 2.33301 60 7l-14 -112c-44 -10.667 -86.667 -16 -128 -16zM809 536.001l-199 -4.00098
c-79.333 -2 -141.666 -9.16699 -186.999 -21.5s-80.5 -28 -105.5 -47s-44.667 -43 -59 -72s-21.5 -64.167 -21.5 -105.5c0 -50 16.167 -90.667 48.5 -122s74.166 -47 125.499 -47c64.667 0 123 13.833 175 41.5s95 63.834 129 108.501s56.333 92.667 67 144zM959 1236h-550
l26 127h550z" />
    <glyph glyph-name="Abreve" unicode="&#x102;" horiz-adv-x="1366" 
d="M1061 0l-75 412h-639l-240 -412h-208l848 1409h217l292 -1409h-195zM830 1265c-8.66699 -17.333 -21 -40.333 -37 -69l-362 -635h527l-102 553zM871 1520c-88.667 0 -159.831 23 -213.498 69s-81.167 106 -82.5 180h116c2 -39.333 20.167 -68 54.5 -86
s79.166 -27 134.499 -27c119.333 0 200.333 38 243 114h117c-34.667 -81.333 -83.834 -143.333 -147.501 -186s-137.5 -64 -221.5 -64z" />
    <glyph glyph-name="abreve" unicode="&#x103;" 
d="M927 -10c-62 0 -107.167 12.834 -135.5 38.501s-42.5 63.834 -42.5 114.501l5 64h-6c-55.333 -84 -112.666 -142.833 -171.999 -176.5s-131 -50.5 -215 -50.5c-93.333 0 -169.166 28 -227.499 84s-87.5 127.333 -87.5 214c0 123.333 44.167 216.666 132.5 279.999
s229.166 96.333 422.499 99l232 3c12.667 65.333 19 107.666 19 126.999c0 60.667 -17.667 105.5 -53 134.5s-84.333 43.5 -147 43.5c-79.333 0 -139.333 -14.167 -180 -42.5s-70 -71.5 -88 -129.5l-178 29c30 98 82.167 169.167 156.5 213.5s174.166 66.5 299.499 66.5
c114 0 204.167 -26.667 270.5 -80s99.5 -125 99.5 -215c0 -42.667 -6.33301 -95 -19 -157l-74 -378c-7.33301 -32 -11 -61.333 -11 -88c0 -48.667 27 -73 81 -73c18 0 38 2.33301 60 7l-14 -112c-44 -10.667 -86.667 -16 -128 -16zM809 536.001l-199 -4.00098
c-79.333 -2 -141.666 -9.16699 -186.999 -21.5s-80.5 -28 -105.5 -47s-44.667 -43 -59 -72s-21.5 -64.167 -21.5 -105.5c0 -50 16.167 -90.667 48.5 -122s74.166 -47 125.499 -47c64.667 0 123 13.833 175 41.5s95 63.834 129 108.501s56.333 92.667 67 144zM689 1201
c-88.667 0 -159.831 28.501 -213.498 85.501s-81.167 131.5 -82.5 223.5h116c2 -56.667 20.167 -98 54.5 -124s79.166 -39 134.499 -39c119.333 0 200.333 54.333 243 163h117c-34 -98.667 -82.833 -174.834 -146.5 -228.501s-137.834 -80.5 -222.501 -80.5z" />
    <glyph glyph-name="Aogonek" unicode="&#x104;" horiz-adv-x="1366" 
d="M1061 0l-75 412h-639l-240 -412h-208l848 1409h217l292 -1409h-195zM830 1265c-8.66699 -17.333 -21 -40.333 -37 -69l-362 -635h527l-102 553zM1035 -427c-58.667 0 -102.999 15.6689 -132.999 47.002s-45 71.666 -45 120.999c0 55.333 19 106.5 57 153.5
s87.333 82.167 148 105.5h133c-62 -32 -109.667 -68.833 -143 -110.5s-50 -83.5 -50 -125.5c0 -22.667 6.66699 -41.834 20 -57.501s32.666 -23.5 57.999 -23.5c36 0 74 7.33301 114 22l-15 -105c-44.667 -18 -92.667 -27 -144 -27z" />
    <glyph glyph-name="aogonek" unicode="&#x105;" 
d="M927 -10c-62 0 -107.167 12.834 -135.5 38.501s-42.5 63.834 -42.5 114.501l5 64h-6c-55.333 -84 -112.666 -142.833 -171.999 -176.5s-131 -50.5 -215 -50.5c-93.333 0 -169.166 28 -227.499 84s-87.5 127.333 -87.5 214c0 123.333 44.167 216.666 132.5 279.999
s229.166 96.333 422.499 99l232 3c12.667 65.333 19 107.666 19 126.999c0 60.667 -17.667 105.5 -53 134.5s-84.333 43.5 -147 43.5c-79.333 0 -139.333 -14.167 -180 -42.5s-70 -71.5 -88 -129.5l-178 29c30 98 82.167 169.167 156.5 213.5s174.166 66.5 299.499 66.5
c114 0 204.167 -26.667 270.5 -80s99.5 -125 99.5 -215c0 -42.667 -6.33301 -95 -19 -157l-74 -378c-7.33301 -32 -11 -61.333 -11 -88c0 -48.667 27 -73 81 -73c18 0 38 2.33301 60 7l-14 -112c-44 -10.667 -86.667 -16 -128 -16zM809 536.001l-199 -4.00098
c-79.333 -2 -141.666 -9.16699 -186.999 -21.5s-80.5 -28 -105.5 -47s-44.667 -43 -59 -72s-21.5 -64.167 -21.5 -105.5c0 -50 16.167 -90.667 48.5 -122s74.166 -47 125.499 -47c64.667 0 123 13.833 175 41.5s95 63.834 129 108.501s56.333 92.667 67 144zM802 -417
c-58.667 0 -102.999 15.6689 -132.999 47.002s-45 71.666 -45 120.999c0 55.333 19 106.5 57 153.5s87.333 82.167 148 105.5h133c-62 -32 -109.667 -68.833 -143 -110.5s-50 -83.5 -50 -125.5c0 -22.667 6.66699 -41.834 20 -57.501s32.666 -23.5 57.999 -23.5
c36 0 74 7.33301 114 22l-15 -105c-44.667 -18 -92.667 -27 -144 -27z" />
    <glyph glyph-name="Cacute" unicode="&#x106;" horiz-adv-x="1479" 
d="M1358 337c-84 -125.333 -179.333 -216.166 -286 -272.499s-230.667 -84.5 -372 -84.5c-120.667 0 -225.5 24.167 -314.5 72.5s-156.667 117.166 -203 206.499s-69.5 192.666 -69.5 309.999c0 164 35 312.333 105 445s167.167 235.167 291.5 307.5
s263.166 108.5 416.499 108.5c144.667 0 266.834 -30.167 366.501 -90.5s165.5 -145.166 197.5 -254.499l-180 -55c-24 74.667 -70.5 134 -139.5 178s-153.833 66 -254.5 66c-122.667 0 -230.667 -29.5 -324 -88.5s-165 -142 -215 -249s-75 -230.5 -75 -370.5
c0 -133.333 36.333 -238.5 109 -315.5s173.334 -115.5 302.001 -115.5c98.667 0 190.667 24.5 276 73.5s160.666 121.5 225.999 217.5zM863 1530l3 20l261 226h207l-5 -29l-352 -217h-114z" />
    <glyph glyph-name="cacute" unicode="&#x107;" horiz-adv-x="1024" 
d="M469 122c136.667 0 232.999 76.668 288.999 230.001l156 -49c-80.667 -215.333 -230.334 -323 -449.001 -323c-128 0 -226.333 36.333 -295 109s-103 174.667 -103 306c0 133.333 24.167 257.333 72.5 372s112.333 199.167 192 253.5s177.5 81.5 293.5 81.5
c112.667 0 201.834 -28.333 267.501 -85s101.834 -134.334 108.501 -233.001l-177 -25c-4 64.667 -24 114.5 -60 149.5s-84.333 52.5 -145 52.5c-84 0 -152 -22.5 -204 -67.5s-92.333 -116.5 -121 -214.5s-43 -194.667 -43 -290c0 -178 72.667 -267 218 -267zM533.999 1201
l3 20l253 287h217l-5 -29l-374 -278h-94z" />
    <glyph glyph-name="Ccircumflex" unicode="&#x108;" horiz-adv-x="1479" 
d="M1358 337c-84 -125.333 -179.333 -216.166 -286 -272.499s-230.667 -84.5 -372 -84.5c-120.667 0 -225.5 24.167 -314.5 72.5s-156.667 117.166 -203 206.499s-69.5 192.666 -69.5 309.999c0 164 35 312.333 105 445s167.167 235.167 291.5 307.5
s263.166 108.5 416.499 108.5c144.667 0 266.834 -30.167 366.501 -90.5s165.5 -145.166 197.5 -254.499l-180 -55c-24 74.667 -70.5 134 -139.5 178s-153.833 66 -254.5 66c-122.667 0 -230.667 -29.5 -324 -88.5s-165 -142 -215 -249s-75 -230.5 -75 -370.5
c0 -133.333 36.333 -238.5 109 -315.5s173.334 -115.5 302.001 -115.5c98.667 0 190.667 24.5 276 73.5s160.666 121.5 225.999 217.5zM1289 1550l-4 -20h-95l-192 139h-2l-259 -139h-113l4 20l280 240h204z" />
    <glyph glyph-name="ccircumflex" unicode="&#x109;" horiz-adv-x="1024" 
d="M469 122c136.667 0 232.999 76.668 288.999 230.001l156 -49c-80.667 -215.333 -230.334 -323 -449.001 -323c-128 0 -226.333 36.333 -295 109s-103 174.667 -103 306c0 133.333 24.167 257.333 72.5 372s112.333 199.167 192 253.5s177.5 81.5 293.5 81.5
c112.667 0 201.834 -28.333 267.501 -85s101.834 -134.334 108.501 -233.001l-177 -25c-4 64.667 -24 114.5 -60 149.5s-84.333 52.5 -145 52.5c-84 0 -152 -22.5 -204 -67.5s-92.333 -116.5 -121 -214.5s-43 -194.667 -43 -290c0 -178 72.667 -267 218 -267zM969.999 1221
l-4 -20h-92l-186 169h-2l-265 -169h-116l4 20l286 270h204z" />
    <glyph glyph-name="Cdotaccent" unicode="&#x10a;" horiz-adv-x="1479" 
d="M1358 337c-84 -125.333 -179.333 -216.166 -286 -272.499s-230.667 -84.5 -372 -84.5c-120.667 0 -225.5 24.167 -314.5 72.5s-156.667 117.166 -203 206.499s-69.5 192.666 -69.5 309.999c0 164 35 312.333 105 445s167.167 235.167 291.5 307.5
s263.166 108.5 416.499 108.5c144.667 0 266.834 -30.167 366.501 -90.5s165.5 -145.166 197.5 -254.499l-180 -55c-24 74.667 -70.5 134 -139.5 178s-153.833 66 -254.5 66c-122.667 0 -230.667 -29.5 -324 -88.5s-165 -142 -215 -249s-75 -230.5 -75 -370.5
c0 -133.333 36.333 -238.5 109 -315.5s173.334 -115.5 302.001 -115.5c98.667 0 190.667 24.5 276 73.5s160.666 121.5 225.999 217.5zM867 1530l34 172h180l-34 -172h-180z" />
    <glyph glyph-name="cdotaccent" unicode="&#x10b;" horiz-adv-x="1024" 
d="M469 122c136.667 0 232.999 76.668 288.999 230.001l156 -49c-80.667 -215.333 -230.334 -323 -449.001 -323c-128 0 -226.333 36.333 -295 109s-103 174.667 -103 306c0 133.333 24.167 257.333 72.5 372s112.333 199.167 192 253.5s177.5 81.5 293.5 81.5
c112.667 0 201.834 -28.333 267.501 -85s101.834 -134.334 108.501 -233.001l-177 -25c-4 64.667 -24 114.5 -60 149.5s-84.333 52.5 -145 52.5c-84 0 -152 -22.5 -204 -67.5s-92.333 -116.5 -121 -214.5s-43 -194.667 -43 -290c0 -178 72.667 -267 218 -267zM588.999 1312
l34 172h180l-34 -172h-180z" />
    <glyph glyph-name="Ccaron" unicode="&#x10c;" horiz-adv-x="1479" 
d="M1358 337c-84 -125.333 -179.333 -216.166 -286 -272.499s-230.667 -84.5 -372 -84.5c-120.667 0 -225.5 24.167 -314.5 72.5s-156.667 117.166 -203 206.499s-69.5 192.666 -69.5 309.999c0 164 35 312.333 105 445s167.167 235.167 291.5 307.5
s263.166 108.5 416.499 108.5c144.667 0 266.834 -30.167 366.501 -90.5s165.5 -145.166 197.5 -254.499l-180 -55c-24 74.667 -70.5 134 -139.5 178s-153.833 66 -254.5 66c-122.667 0 -230.667 -29.5 -324 -88.5s-165 -142 -215 -249s-75 -230.5 -75 -370.5
c0 -133.333 36.333 -238.5 109 -315.5s173.334 -115.5 302.001 -115.5c98.667 0 190.667 24.5 276 73.5s160.666 121.5 225.999 217.5zM1056 1530h-204l-187 239l4 21h93l205 -139h2l246 139h116l-4 -21z" />
    <glyph glyph-name="ccaron" unicode="&#x10d;" horiz-adv-x="1024" 
d="M469 122c136.667 0 232.999 76.668 288.999 230.001l156 -49c-80.667 -215.333 -230.334 -323 -449.001 -323c-128 0 -226.333 36.333 -295 109s-103 174.667 -103 306c0 133.333 24.167 257.333 72.5 372s112.333 199.167 192 253.5s177.5 81.5 293.5 81.5
c112.667 0 201.834 -28.333 267.501 -85s101.834 -134.334 108.501 -233.001l-177 -25c-4 64.667 -24 114.5 -60 149.5s-84.333 52.5 -145 52.5c-84 0 -152 -22.5 -204 -67.5s-92.333 -116.5 -121 -214.5s-43 -194.667 -43 -290c0 -178 72.667 -267 218 -267zM734.999 1201
h-204l-181 270l4 20h97l199 -169h2l252 169h112l-4 -20z" />
    <glyph glyph-name="Dcaron" unicode="&#x10e;" horiz-adv-x="1479" 
d="M744 1409c208 0 371.5 -54.832 490.5 -164.499s178.5 -260.834 178.5 -453.501c0 -157.333 -34.333 -295 -103 -413s-167.5 -210.5 -296.5 -277.5s-275.167 -100.5 -438.5 -100.5h-512l273 1409h408zM283 153.001h284c130 0 244.667 25.833 344 77.5s175.5 126 228.5 223
s79.5 210.167 79.5 339.5c0 146 -42 259.667 -126 341s-201.667 122 -353 122h-242zM941 1530h-204l-187 239l4 21h93l205 -139h2l246 139h116l-4 -21z" />
    <glyph glyph-name="dcaron" unicode="&#x10f;" horiz-adv-x="1280" 
d="M401 -21c-104.667 0 -186.166 31.501 -244.499 94.501s-87.5 149.5 -87.5 259.5c0 135.333 20.5 266.5 61.5 393.5s98.667 221.167 173 282.5s169.166 92 284.499 92c82 0 148.833 -17.333 200.5 -52s88.167 -83.334 109.5 -146.001h5l28 162l82 419h180l-245 -1261
c-19.333 -94 -32 -168.333 -38 -223h-172c0 34 7 87.333 21 160h-5c-48.667 -63.333 -100 -109.333 -154 -138s-120.333 -43 -199 -43zM453.001 118.001c66 0 122.497 13.5 169.497 40.5s86.833 67.667 119.5 122s58.334 122.333 77.001 204s28 154.834 28 219.501
c0 83.333 -21.167 148.166 -63.5 194.499s-101.166 69.5 -176.499 69.5c-81.333 0 -145.666 -24.167 -192.999 -72.5s-85.333 -127.333 -114 -237s-43 -207.5 -43 -293.5c0 -82 15.667 -143.667 47 -185s81 -62 149 -62zM1326 1127l-117.001 0.000976562
c76 67.333 119.667 130.666 131 189.999h-88l32 167h195l-20 -106c-11.333 -58 -28.166 -106.5 -50.499 -145.5s-49.833 -74.167 -82.5 -105.5z" />
    <glyph glyph-name="Dcroat" unicode="&#x110;" horiz-adv-x="1479" 
d="M764 1409c208 0 371.5 -54.832 490.5 -164.499s178.5 -260.834 178.5 -453.501c0 -156 -32.833 -293.5 -98.5 -412.5s-162 -211.833 -289 -278.5s-271.5 -100 -433.5 -100h-549l125 647h-154l30 154h154l118 608h428zM409 801.001h406l-30 -154h-406l-96 -494h304
c130 0 244.667 25.833 344 77.5s175.5 126 228.5 223s79.5 210.167 79.5 339.5c0 146 -42 259.667 -126 341s-201.667 122 -353 122h-262z" />
    <glyph glyph-name="dcroat" unicode="&#x111;" 
d="M453 118c66 0 122.497 13.5 169.497 40.5s86.833 67.667 119.5 122s58.334 122.333 77.001 204s28 154.834 28 219.501c0 83.333 -21.167 148.166 -63.5 194.499s-101.166 69.5 -176.499 69.5c-81.333 0 -145.666 -24.167 -192.999 -72.5s-85.333 -127.333 -114 -237
s-43 -207.5 -43 -293.5c0 -82 15.667 -143.667 47 -185s81 -62 149 -62zM400.997 -21c-104.667 0 -186.166 31.501 -244.499 94.501s-87.5 149.5 -87.5 259.5c0 135.333 20.5 266.5 61.5 393.5s98.667 221.167 173 282.5s169.166 92 284.499 92
c82 0 148.833 -17.333 200.5 -52s88.167 -83.334 109.5 -146.001h5l57 303h-300l25 131h300l29 147h180l-29 -147h132l-25 -131h-132l-192 -983c-19.333 -94 -32 -168.333 -38 -223h-172c0 34 7 87.333 21 160h-4c-48.667 -63.333 -100 -109.333 -154 -138
s-120.667 -43 -200 -43z" />
    <glyph glyph-name="Emacron" unicode="&#x112;" horiz-adv-x="1366" 
d="M63 0l273 1409h1049l-30 -156h-858l-88 -452h798l-30 -154h-798l-95 -491h899l-30 -156h-1090zM1158 1570h-550l26 127h550z" />
    <glyph glyph-name="emacron" unicode="&#x113;" 
d="M256 503c-4 -23.333 -7 -61 -9 -113c0 -88.667 22.167 -156.667 66.5 -204s111.166 -71 200.499 -71c64.667 0 123.334 16 176.001 48s93.667 75.667 123 131l138 -63c-48.667 -87.333 -110.5 -151 -185.5 -191s-165.833 -60 -272.5 -60
c-134 0 -238.167 37.167 -312.5 111.5s-111.5 178.833 -111.5 313.5c0 134 23.667 254.167 71 360.5s114 189 200 248s182.667 88.5 290 88.5c136.667 0 243 -34.333 319 -103s114 -165.667 114 -291c0 -70 -8 -138.333 -24 -205h-783zM880 641l4 72
c0 82.667 -21.5 146 -64.5 190s-104.833 66 -185.5 66c-89.333 0 -164.5 -28.5 -225.5 -85.5s-103.833 -137.833 -128.5 -242.5h600zM951 1236h-550l26 127h550z" />
    <glyph glyph-name="Ebreve" unicode="&#x114;" horiz-adv-x="1366" 
d="M63 0l273 1409h1049l-30 -156h-858l-88 -452h798l-30 -154h-798l-95 -491h899l-30 -156h-1090zM847 1520c-88.667 0 -159.831 23 -213.498 69s-81.167 106 -82.5 180h116c2 -39.333 20.167 -68 54.5 -86s79.166 -27 134.499 -27c119.333 0 200.333 38 243 114h117
c-34.667 -81.333 -83.834 -143.333 -147.501 -186s-137.5 -64 -221.5 -64z" />
    <glyph glyph-name="ebreve" unicode="&#x115;" 
d="M256 503c-4 -23.333 -7 -61 -9 -113c0 -88.667 22.167 -156.667 66.5 -204s111.166 -71 200.499 -71c64.667 0 123.334 16 176.001 48s93.667 75.667 123 131l138 -63c-48.667 -87.333 -110.5 -151 -185.5 -191s-165.833 -60 -272.5 -60
c-134 0 -238.167 37.167 -312.5 111.5s-111.5 178.833 -111.5 313.5c0 134 23.667 254.167 71 360.5s114 189 200 248s182.667 88.5 290 88.5c136.667 0 243 -34.333 319 -103s114 -165.667 114 -291c0 -70 -8 -138.333 -24 -205h-783zM880 641l4 72
c0 82.667 -21.5 146 -64.5 190s-104.833 66 -185.5 66c-89.333 0 -164.5 -28.5 -225.5 -85.5s-103.833 -137.833 -128.5 -242.5h600zM698 1201c-88.667 0 -159.831 28.501 -213.498 85.501s-81.167 131.5 -82.5 223.5h116c2 -56.667 20.167 -98 54.5 -124
s79.166 -39 134.499 -39c119.333 0 200.333 54.333 243 163h117c-34 -98.667 -82.833 -174.834 -146.5 -228.501s-137.834 -80.5 -222.501 -80.5z" />
    <glyph glyph-name="Edotaccent" unicode="&#x116;" horiz-adv-x="1366" 
d="M63 0l273 1409h1049l-30 -156h-858l-88 -452h798l-30 -154h-798l-95 -491h899l-30 -156h-1090zM781 1530l34 172h180l-34 -172h-180z" />
    <glyph glyph-name="edotaccent" unicode="&#x117;" 
d="M256 503c-4 -23.333 -7 -61 -9 -113c0 -88.667 22.167 -156.667 66.5 -204s111.166 -71 200.499 -71c64.667 0 123.334 16 176.001 48s93.667 75.667 123 131l138 -63c-48.667 -87.333 -110.5 -151 -185.5 -191s-165.833 -60 -272.5 -60
c-134 0 -238.167 37.167 -312.5 111.5s-111.5 178.833 -111.5 313.5c0 134 23.667 254.167 71 360.5s114 189 200 248s182.667 88.5 290 88.5c136.667 0 243 -34.333 319 -103s114 -165.667 114 -291c0 -70 -8 -138.333 -24 -205h-783zM880 641l4 72
c0 82.667 -21.5 146 -64.5 190s-104.833 66 -185.5 66c-89.333 0 -164.5 -28.5 -225.5 -85.5s-103.833 -137.833 -128.5 -242.5h600zM604 1312l34 172h180l-34 -172h-180z" />
    <glyph glyph-name="Eogonek" unicode="&#x118;" horiz-adv-x="1366" 
d="M63 0l273 1409h1049l-30 -156h-858l-88 -452h798l-30 -154h-798l-95 -491h899l-30 -156h-1090zM860 -427c-58.667 0 -102.999 15.6689 -132.999 47.002s-45 71.666 -45 120.999c0 55.333 19 106.5 57 153.5s87.333 82.167 148 105.5h133
c-62 -32 -109.667 -68.833 -143 -110.5s-50 -83.5 -50 -125.5c0 -22.667 6.66699 -41.834 20 -57.501s32.666 -23.5 57.999 -23.5c36 0 74 7.33301 114 22l-15 -105c-44.667 -18 -92.667 -27 -144 -27z" />
    <glyph glyph-name="eogonek" unicode="&#x119;" 
d="M256 503c-4 -23.333 -7 -61 -9 -113c0 -88.667 22.167 -156.667 66.5 -204s111.166 -71 200.499 -71c64.667 0 123.334 16 176.001 48s93.667 75.667 123 131l138 -63c-48.667 -87.333 -110.5 -151 -185.5 -191s-165.833 -60 -272.5 -60
c-134 0 -238.167 37.167 -312.5 111.5s-111.5 178.833 -111.5 313.5c0 134 23.667 254.167 71 360.5s114 189 200 248s182.667 88.5 290 88.5c136.667 0 243 -34.333 319 -103s114 -165.667 114 -291c0 -70 -8 -138.333 -24 -205h-783zM880 641l4 72
c0 82.667 -21.5 146 -64.5 190s-104.833 66 -185.5 66c-89.333 0 -164.5 -28.5 -225.5 -85.5s-103.833 -137.833 -128.5 -242.5h600zM562 -407c-58.667 0 -102.999 15.6689 -132.999 47.002s-45 71.666 -45 120.999c0 55.333 19 106.5 57 153.5s87.333 82.167 148 105.5h133
c-62 -32 -109.667 -68.833 -143 -110.5s-50 -83.5 -50 -125.5c0 -22.667 6.66699 -41.834 20 -57.501s32.666 -23.5 57.999 -23.5c36 0 74 7.33301 114 22l-15 -105c-44.667 -18 -92.667 -27 -144 -27z" />
    <glyph glyph-name="Ecaron" unicode="&#x11a;" horiz-adv-x="1366" 
d="M63 0l273 1409h1049l-30 -156h-858l-88 -452h798l-30 -154h-798l-95 -491h899l-30 -156h-1090zM985 1530h-204l-187 239l4 21h93l205 -139h2l246 139h116l-4 -21z" />
    <glyph glyph-name="ecaron" unicode="&#x11b;" 
d="M256 503c-4 -23.333 -7 -61 -9 -113c0 -88.667 22.167 -156.667 66.5 -204s111.166 -71 200.499 -71c64.667 0 123.334 16 176.001 48s93.667 75.667 123 131l138 -63c-48.667 -87.333 -110.5 -151 -185.5 -191s-165.833 -60 -272.5 -60
c-134 0 -238.167 37.167 -312.5 111.5s-111.5 178.833 -111.5 313.5c0 134 23.667 254.167 71 360.5s114 189 200 248s182.667 88.5 290 88.5c136.667 0 243 -34.333 319 -103s114 -165.667 114 -291c0 -70 -8 -138.333 -24 -205h-783zM880 641l4 72
c0 82.667 -21.5 146 -64.5 190s-104.833 66 -185.5 66c-89.333 0 -164.5 -28.5 -225.5 -85.5s-103.833 -137.833 -128.5 -242.5h600zM778 1201h-204l-181 270l4 20h97l199 -169h2l252 169h112l-4 -20z" />
    <glyph glyph-name="Gcircumflex" unicode="&#x11c;" horiz-adv-x="1593" 
d="M742 -20c-203.333 0 -361 52.002 -473 156.002s-168 249.667 -168 437c0 166 35 314.5 105 445.5s169.167 232.333 297.5 304s275.166 107.5 440.499 107.5c148 0 269.333 -28 364 -84s160.334 -138.667 197.001 -248l-193 -54
c-24.667 76.667 -69.334 134.167 -134.001 172.5s-146.667 57.5 -246 57.5c-128 0 -240.167 -28.667 -336.5 -86s-170.166 -138.833 -221.499 -244.5s-77 -227.834 -77 -366.501c0 -140.667 39.333 -249.5 118 -326.5s189.667 -115.5 333 -115.5c92 0 180 13.167 264 39.5
s157 65.166 219 116.499l51 254h-421l32 160h597l-100 -495c-93.333 -80 -192.833 -138.333 -298.5 -175s-222.167 -55 -349.5 -55zM1291 1550l-4 -20h-95l-192 139h-2l-259 -139h-113l4 20l280 240h204z" />
    <glyph glyph-name="gcircumflex" unicode="&#x11d;" 
d="M397 -425c-226 0 -357 83.998 -393 251.998l163 42c23.333 -104.667 101.333 -157 234 -157c94.667 0 168 24.5 220 73.5s88.667 129.5 110 241.5l34 174h-2c-41.333 -59.333 -77.833 -102 -109.5 -128s-67.334 -46 -107.001 -60s-85.167 -21 -136.5 -21
c-102 0 -184.167 33.5 -246.5 100.5s-93.5 155.833 -93.5 266.5c0 88.667 12.5 184.334 37.5 287.001s59.167 188 102.5 256s96 118.167 158 150.5s135.333 48.5 220 48.5c80.667 0 148.834 -19 204.501 -57s91.5 -87 107.5 -147h2c4.66699 24.667 13 60.167 25 106.5
s19.667 72.5 23 78.5h171l-19 -82l-30 -142l-161 -827c-32 -161.333 -89.333 -277.666 -172 -348.999s-196.667 -107 -342 -107zM259 372.998c0 -80.667 17.501 -142.162 52.501 -184.495s86.5 -63.5 154.5 -63.5c72 0 137.333 26.167 196 78.5
s104.167 124.166 136.5 215.499s48.5 186.333 48.5 285c0 83.333 -21.333 148.166 -64 194.499s-101.334 69.5 -176.001 69.5c-60 0 -110 -12.333 -150 -37s-73.667 -63.334 -101 -116.001s-50.333 -122.834 -69 -210.501s-28 -164.834 -28 -231.501zM980.001 1221l-4 -20
h-92l-186 169h-2l-265 -169h-116l4 20l286 270h204z" />
    <glyph glyph-name="Gbreve" unicode="&#x11e;" horiz-adv-x="1593" 
d="M742 -20c-203.333 0 -361 52.002 -473 156.002s-168 249.667 -168 437c0 166 35 314.5 105 445.5s169.167 232.333 297.5 304s275.166 107.5 440.499 107.5c148 0 269.333 -28 364 -84s160.334 -138.667 197.001 -248l-193 -54
c-24.667 76.667 -69.334 134.167 -134.001 172.5s-146.667 57.5 -246 57.5c-128 0 -240.167 -28.667 -336.5 -86s-170.166 -138.833 -221.499 -244.5s-77 -227.834 -77 -366.501c0 -140.667 39.333 -249.5 118 -326.5s189.667 -115.5 333 -115.5c92 0 180 13.167 264 39.5
s157 65.166 219 116.499l51 254h-421l32 160h597l-100 -495c-93.333 -80 -192.833 -138.333 -298.5 -175s-222.167 -55 -349.5 -55zM956 1520c-88.667 0 -159.831 23 -213.498 69s-81.167 106 -82.5 180h116c2 -39.333 20.167 -68 54.5 -86s79.166 -27 134.499 -27
c119.333 0 200.333 38 243 114h117c-34.667 -81.333 -83.834 -143.333 -147.501 -186s-137.5 -64 -221.5 -64z" />
    <glyph glyph-name="gbreve" unicode="&#x11f;" 
d="M397 -425c-226 0 -357 83.998 -393 251.998l163 42c23.333 -104.667 101.333 -157 234 -157c94.667 0 168 24.5 220 73.5s88.667 129.5 110 241.5l34 174h-2c-41.333 -59.333 -77.833 -102 -109.5 -128s-67.334 -46 -107.001 -60s-85.167 -21 -136.5 -21
c-102 0 -184.167 33.5 -246.5 100.5s-93.5 155.833 -93.5 266.5c0 88.667 12.5 184.334 37.5 287.001s59.167 188 102.5 256s96 118.167 158 150.5s135.333 48.5 220 48.5c80.667 0 148.834 -19 204.501 -57s91.5 -87 107.5 -147h2c4.66699 24.667 13 60.167 25 106.5
s19.667 72.5 23 78.5h171l-19 -82l-30 -142l-161 -827c-32 -161.333 -89.333 -277.666 -172 -348.999s-196.667 -107 -342 -107zM259 372.998c0 -80.667 17.501 -142.162 52.501 -184.495s86.5 -63.5 154.5 -63.5c72 0 137.333 26.167 196 78.5
s104.167 124.166 136.5 215.499s48.5 186.333 48.5 285c0 83.333 -21.333 148.166 -64 194.499s-101.334 69.5 -176.001 69.5c-60 0 -110 -12.333 -150 -37s-73.667 -63.334 -101 -116.001s-50.333 -122.834 -69 -210.501s-28 -164.834 -28 -231.501zM675.001 1201
c-88.667 0 -159.831 28.501 -213.498 85.501s-81.167 131.5 -82.5 223.5h116c2 -56.667 20.167 -98 54.5 -124s79.166 -39 134.499 -39c119.333 0 200.333 54.333 243 163h117c-34 -98.667 -82.833 -174.834 -146.5 -228.501s-137.834 -80.5 -222.501 -80.5z" />
    <glyph glyph-name="Gdotaccent" unicode="&#x120;" horiz-adv-x="1593" 
d="M742 -20c-203.333 0 -361 52.002 -473 156.002s-168 249.667 -168 437c0 166 35 314.5 105 445.5s169.167 232.333 297.5 304s275.166 107.5 440.499 107.5c148 0 269.333 -28 364 -84s160.334 -138.667 197.001 -248l-193 -54
c-24.667 76.667 -69.334 134.167 -134.001 172.5s-146.667 57.5 -246 57.5c-128 0 -240.167 -28.667 -336.5 -86s-170.166 -138.833 -221.499 -244.5s-77 -227.834 -77 -366.501c0 -140.667 39.333 -249.5 118 -326.5s189.667 -115.5 333 -115.5c92 0 180 13.167 264 39.5
s157 65.166 219 116.499l51 254h-421l32 160h597l-100 -495c-93.333 -80 -192.833 -138.333 -298.5 -175s-222.167 -55 -349.5 -55zM869 1530l34 172h180l-34 -172h-180z" />
    <glyph glyph-name="gdotaccent" unicode="&#x121;" 
d="M397 -425c-226 0 -357 83.998 -393 251.998l163 42c23.333 -104.667 101.333 -157 234 -157c94.667 0 168 24.5 220 73.5s88.667 129.5 110 241.5l34 174h-2c-41.333 -59.333 -77.833 -102 -109.5 -128s-67.334 -46 -107.001 -60s-85.167 -21 -136.5 -21
c-102 0 -184.167 33.5 -246.5 100.5s-93.5 155.833 -93.5 266.5c0 88.667 12.5 184.334 37.5 287.001s59.167 188 102.5 256s96 118.167 158 150.5s135.333 48.5 220 48.5c80.667 0 148.834 -19 204.501 -57s91.5 -87 107.5 -147h2c4.66699 24.667 13 60.167 25 106.5
s19.667 72.5 23 78.5h171l-19 -82l-30 -142l-161 -827c-32 -161.333 -89.333 -277.666 -172 -348.999s-196.667 -107 -342 -107zM259 372.998c0 -80.667 17.501 -142.162 52.501 -184.495s86.5 -63.5 154.5 -63.5c72 0 137.333 26.167 196 78.5
s104.167 124.166 136.5 215.499s48.5 186.333 48.5 285c0 83.333 -21.333 148.166 -64 194.499s-101.334 69.5 -176.001 69.5c-60 0 -110 -12.333 -150 -37s-73.667 -63.334 -101 -116.001s-50.333 -122.834 -69 -210.501s-28 -164.834 -28 -231.501zM623.001 1312l34 172
h180l-34 -172h-180z" />
    <glyph glyph-name="Gcommaaccent" unicode="&#x122;" horiz-adv-x="1593" 
d="M742 -20c-203.333 0 -361 52.002 -473 156.002s-168 249.667 -168 437c0 166 35 314.5 105 445.5s169.167 232.333 297.5 304s275.166 107.5 440.499 107.5c148 0 269.333 -28 364 -84s160.334 -138.667 197.001 -248l-193 -54
c-24.667 76.667 -69.334 134.167 -134.001 172.5s-146.667 57.5 -246 57.5c-128 0 -240.167 -28.667 -336.5 -86s-170.166 -138.833 -221.499 -244.5s-77 -227.834 -77 -366.501c0 -140.667 39.333 -249.5 118 -326.5s189.667 -115.5 333 -115.5c92 0 180 13.167 264 39.5
s157 65.166 219 116.499l51 254h-421l32 160h597l-100 -495c-93.333 -80 -192.833 -138.333 -298.5 -175s-222.167 -55 -349.5 -55zM694 -454.998l-117.001 0.000976562c76 67.333 119.667 130.666 131 189.999h-88l32 167h195l-20 -106
c-11.333 -58 -28.166 -106.5 -50.499 -145.5s-49.833 -74.167 -82.5 -105.5z" />
    <glyph glyph-name="gcommaaccent" unicode="&#x123;" 
d="M397 -425c-226 0 -357 83.998 -393 251.998l163 42c23.333 -104.667 101.333 -157 234 -157c94.667 0 168 24.5 220 73.5s88.667 129.5 110 241.5l34 174h-2c-41.333 -59.333 -77.833 -102 -109.5 -128s-67.334 -46 -107.001 -60s-85.167 -21 -136.5 -21
c-102 0 -184.167 33.5 -246.5 100.5s-93.5 155.833 -93.5 266.5c0 88.667 12.5 184.334 37.5 287.001s59.167 188 102.5 256s96 118.167 158 150.5s135.333 48.5 220 48.5c80.667 0 148.834 -19 204.501 -57s91.5 -87 107.5 -147h2c4.66699 24.667 13 60.167 25 106.5
s19.667 72.5 23 78.5h171l-19 -82l-30 -142l-161 -827c-32 -161.333 -89.333 -277.666 -172 -348.999s-196.667 -107 -342 -107zM259 372.998c0 -80.667 17.501 -142.162 52.501 -184.495s86.5 -63.5 154.5 -63.5c72 0 137.333 26.167 196 78.5
s104.167 124.166 136.5 215.499s48.5 186.333 48.5 285c0 83.333 -21.333 148.166 -64 194.499s-101.334 69.5 -176.001 69.5c-60 0 -110 -12.333 -150 -37s-73.667 -63.334 -101 -116.001s-50.333 -122.834 -69 -210.501s-28 -164.834 -28 -231.501zM733.001 1568
l117.001 -0.000976562c-76 -67.333 -119.667 -130.666 -131 -189.999h88l-32 -167h-195l20 106c11.333 58 28.166 106.5 50.499 145.5s49.833 74.167 82.5 105.5z" />
    <glyph glyph-name="Hcircumflex" unicode="&#x124;" horiz-adv-x="1479" 
d="M1021 0l127 653h-767l-127 -653h-191l274 1409h191l-116 -596h767l116 596h186l-274 -1409h-186zM1258 1550l-4 -20h-95l-192 139h-2l-259 -139h-113l4 20l280 240h204z" />
    <glyph glyph-name="hcircumflex" unicode="&#x125;" 
d="M383 897c55.333 76.667 110.831 129.834 166.498 159.501s121.834 44.5 198.501 44.5c98.667 0 172.834 -24.333 222.501 -73s74.5 -119 74.5 -211c0 -42.667 -7 -97.334 -21 -164.001l-127 -653h-181l126 645c12 58.667 18 108.667 18 150
c0 111.333 -59.667 167 -179 167c-84 0 -158 -32 -222 -96s-106.667 -150.667 -128 -260l-118 -606h-179l288 1484h180l-75 -386c-12 -66.667 -27.667 -133.667 -47 -201h3zM1127 1629l-4 -20h-95l-192 139h-2l-259 -139h-113l4 20l280 240h204z" />
    <glyph glyph-name="Hbar" unicode="&#x126;" horiz-adv-x="1479" 
d="M1020 0l126 653h-767l-126 -653h-191l199 1025h-154l30 154h154l44 230h191l-44 -230h767l44 230h186l-44 -230h153l-30 -154h-153l-199 -1025h-186zM1178 813l41 212h-767l-41 -212h767z" />
    <glyph glyph-name="hbar" unicode="&#x127;" 
d="M375 857c55.333 76.667 110.831 129.834 166.498 159.501s121.834 44.5 198.501 44.5c98.667 0 172.834 -24.333 222.501 -73s74.5 -119 74.5 -211c0 -42.667 -7 -97.334 -21 -164.001l-119 -613h-181l118 605c12 58.667 18 108.667 18 150
c0 111.333 -59.667 167 -179 167c-84 0 -158 -32 -222 -96s-106.667 -150.667 -128 -260l-110 -566h-179l234 1206h-131l25 131h131l29 147h180l-29 -147h301l-25 -131h-301c-28.667 -146.667 -47.667 -238.167 -57 -274.5l-19 -74.5h3z" />
    <glyph glyph-name="Itilde" unicode="&#x128;" horiz-adv-x="569" 
d="M81 0l274 1409h191l-274 -1409h-191zM637 1530c-28 0 -54.6641 6.66895 -79.9971 20.002s-49.5 28.166 -72.5 44.499s-45 31.166 -66 44.499s-41.833 20 -62.5 20c-30.667 0 -56.334 -9.83301 -77.001 -29.5s-39.334 -52.834 -56.001 -99.501h-100
c31.333 101.333 67.166 171.333 107.499 210s88.166 58 143.499 58c29.333 0 56.666 -6.66699 81.999 -20s49.333 -28.166 72 -44.499s44.334 -31.166 65.001 -44.499s41 -20 61 -20c60.667 0 104.667 43 132 129h102c-23.333 -72.667 -45.666 -125.834 -66.999 -159.501
s-47 -60.167 -77 -79.5s-65.667 -29 -107 -29z" />
    <glyph glyph-name="itilde" unicode="&#x129;" horiz-adv-x="455" 
d="M34 0l210 1082h180l-211 -1082h-179zM500 1201c-28 0 -54.665 6.16797 -79.998 18.501s-49.5 26 -72.5 41s-45.167 28.667 -66.5 41s-42.333 18.5 -63 18.5c-66.667 0 -114 -39.667 -142 -119h-90c31.333 101.333 67.166 171.333 107.499 210s88.166 58 143.499 58
c29.333 0 56.666 -6.16699 81.999 -18.5s49.5 -26 72.5 -41l65.5 -41c20.667 -12.333 41 -18.5 61 -18.5c67.333 0 114.333 39.667 141 119h92c-23.333 -72.667 -45.666 -125.834 -66.999 -159.501s-47 -60.167 -77 -79.5s-65.667 -29 -107 -29z" />
    <glyph glyph-name="Imacron" unicode="&#x12a;" horiz-adv-x="569" 
d="M81 0l274 1409h191l-274 -1409h-191zM744 1570h-550l26 127h550z" />
    <glyph glyph-name="imacron" unicode="&#x12b;" horiz-adv-x="455" 
d="M34 0l210 1082h180l-211 -1082h-179zM630 1236h-550l26 127h550z" />
    <glyph glyph-name="Ibreve" unicode="&#x12c;" horiz-adv-x="569" 
d="M81 0l274 1409h191l-274 -1409h-191zM464 1520c-88.667 0 -159.831 23 -213.498 69s-81.167 106 -82.5 180h116c2 -39.333 20.167 -68 54.5 -86s79.166 -27 134.499 -27c119.333 0 200.333 38 243 114h117c-34.667 -81.333 -83.834 -143.333 -147.501 -186
s-137.5 -64 -221.5 -64z" />
    <glyph glyph-name="ibreve" unicode="&#x12d;" horiz-adv-x="455" 
d="M34 0l210 1082h180l-211 -1082h-179zM358 1201c-88.667 0 -159.831 28.501 -213.498 85.501s-81.167 131.5 -82.5 223.5h116c2 -56.667 20.167 -98 54.5 -124s79.166 -39 134.499 -39c119.333 0 200.333 54.333 243 163h117
c-34 -98.667 -82.833 -174.834 -146.5 -228.501s-137.834 -80.5 -222.501 -80.5z" />
    <glyph glyph-name="Iogonek" unicode="&#x12e;" horiz-adv-x="569" 
d="M81 0l274 1409h191l-274 -1409h-191zM114 -427c-58.667 0 -102.999 15.6689 -132.999 47.002s-45 71.666 -45 120.999c0 55.333 19 106.5 57 153.5s87.333 82.167 148 105.5h133c-62 -32 -109.667 -68.833 -143 -110.5s-50 -83.5 -50 -125.5
c0 -22.667 6.66699 -41.834 20 -57.501s32.666 -23.5 57.999 -23.5c36 0 74 7.33301 114 22l-15 -105c-44.667 -18 -92.667 -27 -144 -27z" />
    <glyph glyph-name="iogonek" unicode="&#x12f;" horiz-adv-x="455" 
d="M287 1312l34 172h180l-34 -172h-180zM33 0l210 1082h180l-211 -1082h-179zM53 -427c-58.667 0 -102.999 15.6689 -132.999 47.002s-45 71.666 -45 120.999c0 55.333 19 106.5 57 153.5s87.333 82.167 148 105.5h133c-62 -32 -109.667 -68.833 -143 -110.5
s-50 -83.5 -50 -125.5c0 -22.667 6.66699 -41.834 20 -57.501s32.666 -23.5 57.999 -23.5c36 0 74 7.33301 114 22l-15 -105c-44.667 -18 -92.667 -27 -144 -27z" />
    <glyph glyph-name="Idotaccent" unicode="&#x130;" horiz-adv-x="569" 
d="M81 0l274 1409h191l-274 -1409h-191zM376 1530l34 172h180l-34 -172h-180z" />
    <glyph glyph-name="dotlessi" unicode="&#x131;" horiz-adv-x="569" 
d="M89 0l210 1082h180l-211 -1082h-179z" />
    <glyph glyph-name="IJ" unicode="&#x132;" horiz-adv-x="1502" 
d="M81 0l274 1409h191l-274 -1409h-191zM859 -20c-106 0 -192.499 31 -259.499 93s-109.167 152 -126.5 270l168 33c15.333 -78 41.666 -137.667 78.999 -179s89.333 -62 156 -62c70 0 126.667 24.167 170 72.5s75 125.833 95 232.5l157 813h-291l30 156h481l-193 -986
c-28.667 -149.333 -81 -260.5 -157 -333.5s-179 -109.5 -309 -109.5z" />
    <glyph glyph-name="ij" unicode="&#x133;" horiz-adv-x="909" 
d="M287 1312l34 172h180l-34 -172h-180zM33 0l210 1082h180l-211 -1082h-179zM743 1312l33 172h180l-33 -172h-180zM354 -425c-37.333 0 -80.333 4.66602 -129 13.999l23 136c34.667 -5.33301 62.334 -8 83.001 -8c39.333 0 69 14 89 42s35.667 72.667 47 134l231 1189h180
l-237 -1216c-20.667 -105.333 -54.334 -180.166 -101.001 -224.499s-108.667 -66.5 -186 -66.5z" />
    <glyph glyph-name="Jcircumflex" unicode="&#x134;" horiz-adv-x="1024" 
d="M381 -20c-106 0 -192.499 31 -259.499 93s-109.167 152 -126.5 270l168 33c15.333 -78 41.666 -137.667 78.999 -179s89.333 -62 156 -62c70 0 126.667 24.167 170 72.5s75 125.833 95 232.5l157 813h-291l30 156h481l-193 -986c-28.667 -149.333 -81 -260.5 -157 -333.5
s-179 -109.5 -309 -109.5zM1171 1550l-4 -20h-95l-192 139h-2l-259 -139h-113l4 20l280 240h204z" />
    <glyph glyph-name="jcircumflex" unicode="&#x135;" horiz-adv-x="455" 
d="M669 1221l-4 -20h-92l-186 169h-2l-265 -169h-116l4 20l286 270h204zM-100 -425c-37.333 0 -80.333 4.66602 -129 13.999l23 136c34.667 -5.33301 62.334 -8 83.001 -8c39.333 0 69 14 89 42s35.667 72.667 47 134l231 1189h180l-237 -1216
c-20.667 -105.333 -54.334 -180.166 -101.001 -224.499s-108.667 -66.5 -186 -66.5z" />
    <glyph glyph-name="Kcommaaccent" unicode="&#x136;" horiz-adv-x="1366" 
d="M1022 0l-472 674l-190 -129l-106 -545h-191l273 1409h191l-136 -691l140 129l665 562h245l-750 -630l557 -779h-226zM566 -455l-117.001 0.000976562c76 67.333 119.667 130.666 131 189.999h-88l32 167h195l-20 -106c-11.333 -58 -28.166 -106.5 -50.499 -145.5
s-49.833 -74.167 -82.5 -105.5z" />
    <glyph glyph-name="kcommaaccent" unicode="&#x137;" horiz-adv-x="1024" 
d="M721 0l-268 502l-168 -124l-72 -378h-179l288 1484h180l-179 -917l204 190l361 325h222l-530 -465l336 -617h-195zM414 -455l-117.001 0.000976562c76 67.333 119.667 130.666 131 189.999h-88l32 167h195l-20 -106c-11.333 -58 -28.166 -106.5 -50.499 -145.5
s-49.833 -74.167 -82.5 -105.5z" />
    <glyph glyph-name="kgreenlandic" unicode="&#x138;" horiz-adv-x="1024" 
d="M721 0l-268 502l-168 -124l-72 -378h-179l210 1082h180l-101 -515l204 190l361 325h222l-530 -465l336 -617h-195z" />
    <glyph glyph-name="Lacute" unicode="&#x139;" 
d="M63 0l273 1409h191l-243 -1253h712l-30 -156h-903zM441 1530l3 20l261 226h207l-5 -29l-352 -217h-114z" />
    <glyph glyph-name="lacute" unicode="&#x13a;" horiz-adv-x="455" 
d="M33 0l288 1484h180l-289 -1484h-179zM309 1609l3 20l261 226h207l-5 -29l-352 -217h-114z" />
    <glyph glyph-name="Lcommaaccent" unicode="&#x13b;" 
d="M63 0l273 1409h191l-243 -1253h712l-30 -156h-903zM469 -455l-117.001 0.000976562c76 67.333 119.667 130.666 131 189.999h-88l32 167h195l-20 -106c-11.333 -58 -28.166 -106.5 -50.499 -145.5s-49.833 -74.167 -82.5 -105.5z" />
    <glyph glyph-name="lcommaaccent" unicode="&#x13c;" horiz-adv-x="455" 
d="M33 0l288 1484h180l-289 -1484h-179zM49 -455l-117.001 0.000976562c76 67.333 119.667 130.666 131 189.999h-88l32 167h195l-20 -106c-11.333 -58 -28.166 -106.5 -50.499 -145.5s-49.833 -74.167 -82.5 -105.5z" />
    <glyph glyph-name="Lcaron" unicode="&#x13d;" 
d="M63 0l273 1409h191l-243 -1253h712l-30 -156h-903zM898 1052l-117.001 0.000976562c76 67.333 119.667 130.666 131 189.999h-88l32 167h195l-20 -106c-11.333 -58 -28.166 -106.5 -50.499 -145.5s-49.833 -74.167 -82.5 -105.5z" />
    <glyph glyph-name="lcaron" unicode="&#x13e;" horiz-adv-x="576" 
d="M33 0l288 1484h180l-289 -1484h-179zM637 1127l-117.001 0.000976562c76 67.333 119.667 130.666 131 189.999h-88l32 167h195l-20 -106c-11.333 -58 -28.166 -106.5 -50.499 -145.5s-49.833 -74.167 -82.5 -105.5z" />
    <glyph glyph-name="Ldot" unicode="&#x13f;" 
d="M63 0l273 1409h191l-243 -1253h712l-30 -156h-903zM677 686l34 172h180l-34 -172h-180z" />
    <glyph glyph-name="ldot" unicode="&#x140;" horiz-adv-x="819" 
d="M33 0l288 1484h180l-289 -1484h-179zM543 686l34 172h180l-34 -172h-180z" />
    <glyph glyph-name="Lslash" unicode="&#x141;" 
d="M282 156h712l-31 -156h-903l105 538l-163 -85l29 158l165 85l138 713h191l-117 -603l306 148l-31 -157l-306 -149z" />
    <glyph glyph-name="lslash" unicode="&#x142;" horiz-adv-x="455" 
d="M32 0l105 542l-135 -68l31 158l134 68l153 784h180l-132 -680l138 72l-31 -159l-138 -71l-126 -646h-179z" />
    <glyph glyph-name="Nacute" unicode="&#x143;" horiz-adv-x="1479" 
d="M987 0l-531 1210c-14.667 -114 -28.667 -203 -42 -267l-181 -943h-170l273 1409h212l534 -1215c17.333 126 32.333 220.667 45 284l181 931h172l-273 -1409h-220zM797 1530l3 20l261 226h207l-5 -29l-352 -217h-114z" />
    <glyph glyph-name="nacute" unicode="&#x144;" 
d="M721 0l125.998 644.999c12 58.667 18 108.667 18 150c0 111.333 -59.667 167 -179 167c-84 0 -158 -32 -222 -96s-106.667 -150.667 -128 -260l-118 -606h-180l166 851c13.333 63.333 26.333 140.333 39 231h170c0 -7.33301 -3.5 -33.166 -10.5 -77.499l-17.5 -107.5h3
c55.333 76.667 110.833 129.834 166.5 159.501s121.834 44.5 198.501 44.5c98.667 0 172.834 -24.333 222.501 -73s74.5 -119 74.5 -211c0 -42.667 -7 -97.334 -21 -164.001l-127 -653h-181zM562.998 1201l3 20l253 287h217l-5 -29l-374 -278h-94z" />
    <glyph glyph-name="Ncommaaccent" unicode="&#x145;" horiz-adv-x="1479" 
d="M987 0l-531 1210c-14.667 -114 -28.667 -203 -42 -267l-181 -943h-170l273 1409h212l534 -1215c17.333 126 32.333 220.667 45 284l181 931h172l-273 -1409h-220zM574 -455l-117.001 0.000976562c76 67.333 119.667 130.666 131 189.999h-88l32 167h195l-20 -106
c-11.333 -58 -28.166 -106.5 -50.499 -145.5s-49.833 -74.167 -82.5 -105.5z" />
    <glyph glyph-name="ncommaaccent" unicode="&#x146;" 
d="M721 0l125.998 644.999c12 58.667 18 108.667 18 150c0 111.333 -59.667 167 -179 167c-84 0 -158 -32 -222 -96s-106.667 -150.667 -128 -260l-118 -606h-180l166 851c13.333 63.333 26.333 140.333 39 231h170c0 -7.33301 -3.5 -33.166 -10.5 -77.499l-17.5 -107.5h3
c55.333 76.667 110.833 129.834 166.5 159.501s121.834 44.5 198.501 44.5c98.667 0 172.834 -24.333 222.501 -73s74.5 -119 74.5 -211c0 -42.667 -7 -97.334 -21 -164.001l-127 -653h-181zM413.998 -455.001l-117.001 0.000976562c76 67.333 119.667 130.666 131 189.999
h-88l32 167h195l-20 -106c-11.333 -58 -28.166 -106.5 -50.499 -145.5s-49.833 -74.167 -82.5 -105.5z" />
    <glyph glyph-name="Ncaron" unicode="&#x147;" horiz-adv-x="1479" 
d="M987 0l-531 1210c-14.667 -114 -28.667 -203 -42 -267l-181 -943h-170l273 1409h212l534 -1215c17.333 126 32.333 220.667 45 284l181 931h172l-273 -1409h-220zM1027 1530h-204l-187 239l4 21h93l205 -139h2l246 139h116l-4 -21z" />
    <glyph glyph-name="ncaron" unicode="&#x148;" 
d="M721 0l125.998 644.999c12 58.667 18 108.667 18 150c0 111.333 -59.667 167 -179 167c-84 0 -158 -32 -222 -96s-106.667 -150.667 -128 -260l-118 -606h-180l166 851c13.333 63.333 26.333 140.333 39 231h170c0 -7.33301 -3.5 -33.166 -10.5 -77.499l-17.5 -107.5h3
c55.333 76.667 110.833 129.834 166.5 159.501s121.834 44.5 198.501 44.5c98.667 0 172.834 -24.333 222.501 -73s74.5 -119 74.5 -211c0 -42.667 -7 -97.334 -21 -164.001l-127 -653h-181zM784.998 1201h-204l-181 270l4 20h97l199 -169h2l252 169h112l-4 -20z" />
    <glyph glyph-name="napostrophe" unicode="&#x149;" horiz-adv-x="1259" 
d="M837 0l125.998 644.999c12 58.667 18 108.667 18 150c0 111.333 -59.667 167 -179 167c-84 0 -158 -32 -222 -96s-106.667 -150.667 -128 -260l-118 -606h-180l166 851c13.333 63.333 26.333 140.333 39 231h170c0 -7.33301 -3.5 -33.166 -10.5 -77.499l-17.5 -107.5h3
c55.333 76.667 110.833 129.834 166.5 159.501s121.834 44.5 198.501 44.5c98.667 0 172.834 -24.333 222.501 -73s74.5 -119 74.5 -211c0 -42.667 -7 -97.334 -21 -164.001l-127 -653h-181zM173.998 951.999l-122.999 -0.000976562
c79.333 90.667 127.666 177.334 144.999 260.001h-88l38 197h195l-28 -145c-12 -63.333 -29 -119.833 -51 -169.5s-51.333 -97.167 -88 -142.5z" />
    <glyph glyph-name="Eng" unicode="&#x14a;" horiz-adv-x="1481" 
d="M852 -20c-74 0 -137.171 14.501 -189.504 43.501s-93.166 66.167 -122.499 111.5l141 108c22.667 -32 49.834 -58.333 81.501 -79s65.5 -31 101.5 -31c48 0 87.667 11.833 119 35.5s57.833 61.5 79.5 113.5s44.834 140 69.501 264l73 378c9.33301 46.667 14 88 14 124
c0 150.667 -91.333 226 -274 226c-79.333 0 -156.666 -17.5 -231.999 -52.5s-138.5 -82 -189.5 -141s-83.167 -122.167 -96.5 -189.5l-173 -891h-191l212 1092l57 317h184c-8 -60.667 -21.667 -144.334 -41 -251.001h4c64.667 88.667 141 156 229 202s184.333 69 289 69
c274 0 411 -119 411 -357c0 -51.333 -5.66699 -107.333 -17 -168l-70 -362c-34.667 -177.333 -69.667 -299.5 -105 -366.5s-81.833 -116.333 -139.5 -148s-132.5 -47.5 -224.5 -47.5z" />
    <glyph glyph-name="eng" unicode="&#x14b;" 
d="M584 -425c-37.333 0 -80.335 4.66504 -129.002 13.998l23 136c34.667 -5.33301 62.334 -8 83.001 -8c39.333 0 69 14 89 42s35.667 72.667 47 134l146 752c12 58.667 18 108.667 18 150c0 111.333 -59.667 167 -179 167c-84 0 -158 -32 -222 -96
s-106.667 -150.667 -128 -260l-118 -606h-180l166 851c13.333 63.333 26.333 140.333 39 231h170c0 -7.33301 -3.5 -33.166 -10.5 -77.499l-17.5 -107.5h3c55.333 76.667 110.833 129.834 166.5 159.501s121.834 44.5 198.501 44.5c98.667 0 172.834 -24.333 222.501 -73
s74.5 -119 74.5 -211c0 -42.667 -7 -97.334 -21 -164.001l-154 -787c-20.667 -105.333 -54.334 -180.166 -101.001 -224.499s-108.667 -66.5 -186 -66.5z" />
    <glyph glyph-name="Omacron" unicode="&#x14c;" horiz-adv-x="1593" 
d="M938 1430c184.667 0 330.499 -52.332 437.499 -156.999s160.5 -245.334 160.5 -422.001c-3.33301 -178.667 -40.666 -333.167 -111.999 -463.5s-169 -230.833 -293 -301.5s-264.667 -106 -422 -106c-189.333 0 -336.333 52.5 -441 157.5s-157 250.167 -157 435.5
c0 159.333 35.167 305.833 105.5 439.5s168.5 236.667 294.5 309s268.333 108.5 427 108.5zM928.999 1276c-133.333 0 -246.499 -29.667 -339.499 -89s-164.167 -148 -213.5 -266s-74 -237.333 -74 -358c0 -139.333 35.5 -245.5 106.5 -318.5s174.167 -109.5 309.5 -109.5
c131.333 0 243.166 28.833 335.499 86.5s164 144.167 215 259.5s76.5 237.333 76.5 366c0 138 -36.167 244 -108.5 318s-174.833 111 -307.5 111zM1227 1570h-550l26 127h550z" />
    <glyph glyph-name="omacron" unicode="&#x14d;" 
d="M1074 683c0 -86.667 -13.334 -176.833 -40.001 -270.5s-64.834 -173 -114.501 -238s-110.5 -113.667 -182.5 -146s-154 -48.5 -246 -48.5c-130.667 0 -234 39.333 -310 118s-114 185.667 -114 321c2.66699 136 27.334 256.667 74.001 362s111.334 185 194.001 239
s185 81 307 81c140 0 247 -36.5 321 -109.5s111 -175.833 111 -308.5zM887.999 683.001c0 190.667 -82.668 286.001 -248.001 286.001c-90 0 -162.167 -23.167 -216.5 -69.5s-96.5 -116.5 -126.5 -210.5s-45 -185 -45 -273c0 -98.667 21.333 -173.834 64 -225.501
s104.667 -77.5 186 -77.5c68.667 0 123.834 11.5 165.501 34.5s78.167 59 109.5 108s56.833 111.5 76.5 187.5s31.167 156 34.5 240zM935.998 1236h-550l26 127h550z" />
    <glyph glyph-name="Obreve" unicode="&#x14e;" horiz-adv-x="1593" 
d="M938 1430c184.667 0 330.499 -52.332 437.499 -156.999s160.5 -245.334 160.5 -422.001c-3.33301 -178.667 -40.666 -333.167 -111.999 -463.5s-169 -230.833 -293 -301.5s-264.667 -106 -422 -106c-189.333 0 -336.333 52.5 -441 157.5s-157 250.167 -157 435.5
c0 159.333 35.167 305.833 105.5 439.5s168.5 236.667 294.5 309s268.333 108.5 427 108.5zM928.999 1276c-133.333 0 -246.499 -29.667 -339.499 -89s-164.167 -148 -213.5 -266s-74 -237.333 -74 -358c0 -139.333 35.5 -245.5 106.5 -318.5s174.167 -109.5 309.5 -109.5
c131.333 0 243.166 28.833 335.499 86.5s164 144.167 215 259.5s76.5 237.333 76.5 366c0 138 -36.167 244 -108.5 318s-174.833 111 -307.5 111zM950 1520c-88.667 0 -159.831 23 -213.498 69s-81.167 106 -82.5 180h116c2 -39.333 20.167 -68 54.5 -86
s79.166 -27 134.499 -27c119.333 0 200.333 38 243 114h117c-34.667 -81.333 -83.834 -143.333 -147.501 -186s-137.5 -64 -221.5 -64z" />
    <glyph glyph-name="obreve" unicode="&#x14f;" 
d="M1074 683c0 -86.667 -13.334 -176.833 -40.001 -270.5s-64.834 -173 -114.501 -238s-110.5 -113.667 -182.5 -146s-154 -48.5 -246 -48.5c-130.667 0 -234 39.333 -310 118s-114 185.667 -114 321c2.66699 136 27.334 256.667 74.001 362s111.334 185 194.001 239
s185 81 307 81c140 0 247 -36.5 321 -109.5s111 -175.833 111 -308.5zM887.999 683.001c0 190.667 -82.668 286.001 -248.001 286.001c-90 0 -162.167 -23.167 -216.5 -69.5s-96.5 -116.5 -126.5 -210.5s-45 -185 -45 -273c0 -98.667 21.333 -173.834 64 -225.501
s104.667 -77.5 186 -77.5c68.667 0 123.834 11.5 165.501 34.5s78.167 59 109.5 108s56.833 111.5 76.5 187.5s31.167 156 34.5 240zM697.998 1201c-88.667 0 -159.831 28.501 -213.498 85.501s-81.167 131.5 -82.5 223.5h116c2 -56.667 20.167 -98 54.5 -124
s79.166 -39 134.499 -39c119.333 0 200.333 54.333 243 163h117c-34 -98.667 -82.833 -174.834 -146.5 -228.501s-137.834 -80.5 -222.501 -80.5z" />
    <glyph glyph-name="Ohungarumlaut" unicode="&#x150;" horiz-adv-x="1593" 
d="M938 1430c184.667 0 330.499 -52.332 437.499 -156.999s160.5 -245.334 160.5 -422.001c-3.33301 -178.667 -40.666 -333.167 -111.999 -463.5s-169 -230.833 -293 -301.5s-264.667 -106 -422 -106c-189.333 0 -336.333 52.5 -441 157.5s-157 250.167 -157 435.5
c0 159.333 35.167 305.833 105.5 439.5s168.5 236.667 294.5 309s268.333 108.5 427 108.5zM928.999 1276c-133.333 0 -246.499 -29.667 -339.499 -89s-164.167 -148 -213.5 -266s-74 -237.333 -74 -358c0 -139.333 35.5 -245.5 106.5 -318.5s174.167 -109.5 309.5 -109.5
c131.333 0 243.166 28.833 335.499 86.5s164 144.167 215 259.5s76.5 237.333 76.5 366c0 138 -36.167 244 -108.5 318s-174.833 111 -307.5 111zM668 1530l3 20l222 227h207l-5 -29l-334 -218h-93zM1014 1530l3 20l223 227h207l-5 -29l-334 -218h-94z" />
    <glyph glyph-name="ohungarumlaut" unicode="&#x151;" 
d="M1074 683c0 -86.667 -13.334 -176.833 -40.001 -270.5s-64.834 -173 -114.501 -238s-110.5 -113.667 -182.5 -146s-154 -48.5 -246 -48.5c-130.667 0 -234 39.333 -310 118s-114 185.667 -114 321c2.66699 136 27.334 256.667 74.001 362s111.334 185 194.001 239
s185 81 307 81c140 0 247 -36.5 321 -109.5s111 -175.833 111 -308.5zM887.999 683.001c0 190.667 -82.668 286.001 -248.001 286.001c-90 0 -162.167 -23.167 -216.5 -69.5s-96.5 -116.5 -126.5 -210.5s-45 -185 -45 -273c0 -98.667 21.333 -173.834 64 -225.501
s104.667 -77.5 186 -77.5c68.667 0 123.834 11.5 165.501 34.5s78.167 59 109.5 108s56.833 111.5 76.5 187.5s31.167 156 34.5 240zM353.998 1201l3 20l252 287h207l-5 -29l-364 -278h-93zM699.998 1201l3 20l253 287h207l-5 -29l-364 -278h-94z" />
    <glyph glyph-name="OE" unicode="&#x152;" horiz-adv-x="2048" 
d="M893 0c-50.667 -6.66699 -114.333 -10.001 -191 -10.001c-188 0 -335.167 52 -441.5 156s-159.5 246.333 -159.5 427c0 164 35.5 310.833 106.5 440.5s169 229.834 294 300.501s266.167 106 423.5 106c80 0 169.667 -3.66699 269 -11h873l-30 -156h-710l-88 -452h650
l-30 -154h-650l-95 -491h751l-30 -156h-942zM712.001 144.999c86 0 156.333 3.66504 211 10.998l213 1099c-56 7.33301 -129.667 11 -221 11c-130 0 -241.5 -28.667 -334.5 -86s-164.333 -142.666 -214 -255.999s-74.5 -233.666 -74.5 -360.999
c0 -135.333 36.5 -238.833 109.5 -310.5s176.5 -107.5 310.5 -107.5z" />
    <glyph glyph-name="oe" unicode="&#x153;" horiz-adv-x="1933" 
d="M1055 503c-7.33301 -34 -10.999 -71.668 -10.999 -113.001c0 -88.667 22.167 -156.667 66.5 -204s111.166 -71 200.499 -71c64 0 121.833 15.667 173.5 47s92.5 75.333 122.5 132l138 -63c-49.333 -88.667 -111.333 -152.667 -186 -192s-164.334 -59 -269.001 -59
c-178.667 0 -303 64.333 -373 193c-98 -125.333 -240 -188 -426 -188c-132.667 0 -236.167 38.667 -310.5 116s-111.5 183.333 -111.5 318c2.66699 134.667 27.167 254.834 73.5 360.501s110.833 185.667 193.5 240s184.667 81.5 306 81.5
c187.333 0 314.666 -64 381.999 -192c50.667 62 110.334 109.667 179.001 143s143.334 50 224.001 50c136 0 241.667 -34.333 317 -103s113 -165.667 113 -291c0 -70 -8 -138.333 -24 -205h-778zM888.001 682.999c0 190.667 -82.6689 286.002 -248.002 286.002
c-90 0 -162 -23.5 -216 -70.5s-95.833 -117.5 -125.5 -211.5s-44.5 -184.333 -44.5 -271c0 -198.667 82.667 -298 248 -298c90.667 0 161.834 22.167 213.501 66.5s92.334 111.666 122.001 201.999s46.5 189.166 50.5 296.499zM1674 641.001l4 72
c0 82.667 -20.833 146 -62.5 190s-103.167 66 -184.5 66c-89.333 0 -164.5 -28.5 -225.5 -85.5s-103.833 -137.833 -128.5 -242.5h597z" />
    <glyph glyph-name="Racute" unicode="&#x154;" horiz-adv-x="1479" 
d="M1051 0l-243.001 584.998h-441l-113 -585h-191l273 1409h612c142.667 0 256.334 -34 341.001 -102s127 -157.333 127 -268c0 -125.333 -36 -224.666 -108 -297.999s-178.333 -119.666 -319 -138.999l268 -602h-206zM856.999 735.998
c120.667 0 211.668 25.168 273.001 75.501s92 121.166 92 212.499c0 74.667 -24.833 132 -74.5 172s-123.834 60 -222.501 60h-427l-101 -520h460zM718 1530l3 20l261 226h207l-5 -29l-352 -217h-114z" />
    <glyph glyph-name="racute" unicode="&#x155;" horiz-adv-x="682" 
d="M718 938c-29.333 8.66699 -59.334 12.999 -90.001 12.999c-70 0 -133.167 -36.667 -189.5 -110s-94.5 -165.666 -114.5 -276.999l-110 -564h-180l162 830l25 138l18 114h170l-35 -221h4c44 88.667 87.333 151 130 187s92 54 148 54c30.667 0 62.334 -4.66699 95.001 -14z
M356.999 1201l3 20l253 287h217l-5 -29l-374 -278h-94z" />
    <glyph glyph-name="Rcommaaccent" unicode="&#x156;" horiz-adv-x="1479" 
d="M1051 0l-243.001 584.998h-441l-113 -585h-191l273 1409h612c142.667 0 256.334 -34 341.001 -102s127 -157.333 127 -268c0 -125.333 -36 -224.666 -108 -297.999s-178.333 -119.666 -319 -138.999l268 -602h-206zM856.999 735.998
c120.667 0 211.668 25.168 273.001 75.501s92 121.166 92 212.499c0 74.667 -24.833 132 -74.5 172s-123.834 60 -222.501 60h-427l-101 -520h460zM599 -455.001l-117.001 0.000976562c76 67.333 119.667 130.666 131 189.999h-88l32 167h195l-20 -106
c-11.333 -58 -28.166 -106.5 -50.499 -145.5s-49.833 -74.167 -82.5 -105.5z" />
    <glyph glyph-name="rcommaaccent" unicode="&#x157;" horiz-adv-x="682" 
d="M718 938c-29.333 8.66699 -59.334 12.999 -90.001 12.999c-70 0 -133.167 -36.667 -189.5 -110s-94.5 -165.666 -114.5 -276.999l-110 -564h-180l162 830l25 138l18 114h170l-35 -221h4c44 88.667 87.333 151 130 187s92 54 148 54c30.667 0 62.334 -4.66699 95.001 -14z
M63.999 -455.001l-117.001 0.000976562c76 67.333 119.667 130.666 131 189.999h-88l32 167h195l-20 -106c-11.333 -58 -28.166 -106.5 -50.499 -145.5s-49.833 -74.167 -82.5 -105.5z" />
    <glyph glyph-name="Rcaron" unicode="&#x158;" horiz-adv-x="1479" 
d="M1051 0l-243.001 584.998h-441l-113 -585h-191l273 1409h612c142.667 0 256.334 -34 341.001 -102s127 -157.333 127 -268c0 -125.333 -36 -224.666 -108 -297.999s-178.333 -119.666 -319 -138.999l268 -602h-206zM856.999 735.998
c120.667 0 211.668 25.168 273.001 75.501s92 121.166 92 212.499c0 74.667 -24.833 132 -74.5 172s-123.834 60 -222.501 60h-427l-101 -520h460zM954 1530h-204l-187 239l4 21h93l205 -139h2l246 139h116l-4 -21z" />
    <glyph glyph-name="rcaron" unicode="&#x159;" horiz-adv-x="682" 
d="M718 938c-29.333 8.66699 -59.334 12.999 -90.001 12.999c-70 0 -133.167 -36.667 -189.5 -110s-94.5 -165.666 -114.5 -276.999l-110 -564h-180l162 830l25 138l18 114h170l-35 -221h4c44 88.667 87.333 151 130 187s92 54 148 54c30.667 0 62.334 -4.66699 95.001 -14z
M592.999 1201h-204l-181 270l4 20h97l199 -169h2l252 169h112l-4 -20z" />
    <glyph glyph-name="Sacute" unicode="&#x15a;" horiz-adv-x="1366" 
d="M616 -20c-166 0 -294.835 29.5 -386.502 88.5s-148.834 148.833 -171.501 269.5l177 37c18 -86 58 -148.333 120 -187s153.667 -58 275 -58c146 0 252.667 21.833 320 65.5s101 110.5 101 200.5c0 44.667 -9.66699 80.5 -29 107.5s-52.333 51.333 -99 73
s-127 48.5 -241 80.5c-114 31.333 -199.167 63.5 -255.5 96.5s-99 72.833 -128 119.5s-43.5 102.667 -43.5 168c0 121.333 51.167 216.5 153.5 285.5s240.833 103.5 415.5 103.5c146.667 0 264.334 -25.333 353.001 -76s144.334 -124.667 167.001 -222l-173 -51
c-22 70 -61.5 121.667 -118.5 155s-133.5 50 -229.5 50c-250.667 0 -376 -78.667 -376 -236c0 -40 8.5 -72.667 25.5 -98s45 -47.5 84 -66.5s116.5 -44.167 232.5 -75.5c130 -36 223.5 -70.667 280.5 -104s100.667 -73.833 131 -121.5s45.5 -106.5 45.5 -176.5
c0 -137.333 -51.667 -243 -155 -317s-261.666 -111 -474.999 -111zM703.998 1530l3 20l253 287h217l-5 -29l-374 -278h-94z" />
    <glyph glyph-name="sacute" unicode="&#x15b;" horiz-adv-x="1024" 
d="M907 317c0 -108 -41.3291 -191.168 -123.996 -249.501s-202 -87.5 -358 -87.5c-116 0 -208.167 19.5 -276.5 58.5s-116.166 100.5 -143.499 184.5l147 56c22 -58.667 56.167 -101.334 102.5 -128.001s108.5 -40 186.5 -40c95.333 0 167.666 16.167 216.999 48.5
s74 79.5 74 141.5c0 41.333 -17 75.833 -51 103.5s-106 58.5 -216 92.5c-85.333 28 -149.333 55.333 -192 82s-75.334 57.834 -98.001 93.501s-34 77.167 -34 124.5c0 96.667 38.667 171.167 116 223.5s186.333 78.5 327 78.5c236 0 368.667 -85 398 -255l-163 -25
c-14.667 52.667 -42.334 90.667 -83.001 114s-95.334 35 -164.001 35c-82.667 0 -146.167 -13.167 -190.5 -39.5s-66.5 -63.5 -66.5 -111.5c0 -28 7 -51.667 21 -71s34.167 -36.5 60.5 -51.5s87.166 -37.5 182.499 -67.5c84.667 -26.667 148.5 -53.667 191.5 -81
s76.5 -59.666 100.5 -96.999s36 -81.333 36 -132zM488.004 1201l3 20l253 287h217l-5 -29l-374 -278h-94z" />
    <glyph glyph-name="Scircumflex" unicode="&#x15c;" horiz-adv-x="1366" 
d="M616 -20c-166 0 -294.835 29.5 -386.502 88.5s-148.834 148.833 -171.501 269.5l177 37c18 -86 58 -148.333 120 -187s153.667 -58 275 -58c146 0 252.667 21.833 320 65.5s101 110.5 101 200.5c0 44.667 -9.66699 80.5 -29 107.5s-52.333 51.333 -99 73
s-127 48.5 -241 80.5c-114 31.333 -199.167 63.5 -255.5 96.5s-99 72.833 -128 119.5s-43.5 102.667 -43.5 168c0 121.333 51.167 216.5 153.5 285.5s240.833 103.5 415.5 103.5c146.667 0 264.334 -25.333 353.001 -76s144.334 -124.667 167.001 -222l-173 -51
c-22 70 -61.5 121.667 -118.5 155s-133.5 50 -229.5 50c-250.667 0 -376 -78.667 -376 -236c0 -40 8.5 -72.667 25.5 -98s45 -47.5 84 -66.5s116.5 -44.167 232.5 -75.5c130 -36 223.5 -70.667 280.5 -104s100.667 -73.833 131 -121.5s45.5 -106.5 45.5 -176.5
c0 -137.333 -51.667 -243 -155 -317s-261.666 -111 -474.999 -111zM1179 1548l-4 -20h-92l-186 169h-2l-265 -169h-116l4 20l286 270h204z" />
    <glyph glyph-name="scircumflex" unicode="&#x15d;" horiz-adv-x="1024" 
d="M907 317c0 -108 -41.3291 -191.168 -123.996 -249.501s-202 -87.5 -358 -87.5c-116 0 -208.167 19.5 -276.5 58.5s-116.166 100.5 -143.499 184.5l147 56c22 -58.667 56.167 -101.334 102.5 -128.001s108.5 -40 186.5 -40c95.333 0 167.666 16.167 216.999 48.5
s74 79.5 74 141.5c0 41.333 -17 75.833 -51 103.5s-106 58.5 -216 92.5c-85.333 28 -149.333 55.333 -192 82s-75.334 57.834 -98.001 93.501s-34 77.167 -34 124.5c0 96.667 38.667 171.167 116 223.5s186.333 78.5 327 78.5c236 0 368.667 -85 398 -255l-163 -25
c-14.667 52.667 -42.334 90.667 -83.001 114s-95.334 35 -164.001 35c-82.667 0 -146.167 -13.167 -190.5 -39.5s-66.5 -63.5 -66.5 -111.5c0 -28 7 -51.667 21 -71s34.167 -36.5 60.5 -51.5s87.166 -37.5 182.499 -67.5c84.667 -26.667 148.5 -53.667 191.5 -81
s76.5 -59.666 100.5 -96.999s36 -81.333 36 -132zM937.004 1221l-4 -20h-92l-186 169h-2l-265 -169h-116l4 20l286 270h204z" />
    <glyph glyph-name="Scedilla" unicode="&#x15e;" horiz-adv-x="1366" 
d="M616 -20c-166 0 -294.835 29.5 -386.502 88.5s-148.834 148.833 -171.501 269.5l177 37c18 -86 58 -148.333 120 -187s153.667 -58 275 -58c146 0 252.667 21.833 320 65.5s101 110.5 101 200.5c0 44.667 -9.66699 80.5 -29 107.5s-52.333 51.333 -99 73
s-127 48.5 -241 80.5c-114 31.333 -199.167 63.5 -255.5 96.5s-99 72.833 -128 119.5s-43.5 102.667 -43.5 168c0 121.333 51.167 216.5 153.5 285.5s240.833 103.5 415.5 103.5c146.667 0 264.334 -25.333 353.001 -76s144.334 -124.667 167.001 -222l-173 -51
c-22 70 -61.5 121.667 -118.5 155s-133.5 50 -229.5 50c-250.667 0 -376 -78.667 -376 -236c0 -40 8.5 -72.667 25.5 -98s45 -47.5 84 -66.5s116.5 -44.167 232.5 -75.5c130 -36 223.5 -70.667 280.5 -104s100.667 -73.833 131 -121.5s45.5 -106.5 45.5 -176.5
c0 -137.333 -51.667 -243 -155 -317s-261.666 -111 -474.999 -111zM633.998 -96c54 -3.33301 94.498 -17 121.498 -41s40.5 -55.667 40.5 -95c0 -128.667 -101 -193 -303 -193c-33.333 0 -68.666 2.33301 -105.999 7l21 91c32 -4 61.333 -6 88 -6
c60.667 0 103.5 7.33301 128.5 22s37.5 37 37.5 67c0 48 -39.667 72 -119 72c-29.333 0 -48.666 -0.666992 -57.999 -2l101 174h107z" />
    <glyph glyph-name="scedilla" unicode="&#x15f;" horiz-adv-x="1024" 
d="M907 317c0 -108 -41.3291 -191.168 -123.996 -249.501s-202 -87.5 -358 -87.5c-116 0 -208.167 19.5 -276.5 58.5s-116.166 100.5 -143.499 184.5l147 56c22 -58.667 56.167 -101.334 102.5 -128.001s108.5 -40 186.5 -40c95.333 0 167.666 16.167 216.999 48.5
s74 79.5 74 141.5c0 41.333 -17 75.833 -51 103.5s-106 58.5 -216 92.5c-85.333 28 -149.333 55.333 -192 82s-75.334 57.834 -98.001 93.501s-34 77.167 -34 124.5c0 96.667 38.667 171.167 116 223.5s186.333 78.5 327 78.5c236 0 368.667 -85 398 -255l-163 -25
c-14.667 52.667 -42.334 90.667 -83.001 114s-95.334 35 -164.001 35c-82.667 0 -146.167 -13.167 -190.5 -39.5s-66.5 -63.5 -66.5 -111.5c0 -28 7 -51.667 21 -71s34.167 -36.5 60.5 -51.5s87.166 -37.5 182.499 -67.5c84.667 -26.667 148.5 -53.667 191.5 -81
s76.5 -59.666 100.5 -96.999s36 -81.333 36 -132zM461.004 -96.001c54 -3.33301 94.498 -17 121.498 -41s40.5 -55.667 40.5 -95c0 -128.667 -101 -193 -303 -193c-33.333 0 -68.666 2.33301 -105.999 7l21 91c32 -4 61.333 -6 88 -6c60.667 0 103.5 7.33301 128.5 22
s37.5 37 37.5 67c0 48 -39.667 72 -119 72c-29.333 0 -48.666 -0.666992 -57.999 -2l101 174h107z" />
    <glyph glyph-name="Scaron" unicode="&#x160;" horiz-adv-x="1366" 
d="M616 -20c-166 0 -294.835 29.5 -386.502 88.5s-148.834 148.833 -171.501 269.5l177 37c18 -86 58 -148.333 120 -187s153.667 -58 275 -58c146 0 252.667 21.833 320 65.5s101 110.5 101 200.5c0 44.667 -9.66699 80.5 -29 107.5s-52.333 51.333 -99 73
s-127 48.5 -241 80.5c-114 31.333 -199.167 63.5 -255.5 96.5s-99 72.833 -128 119.5s-43.5 102.667 -43.5 168c0 121.333 51.167 216.5 153.5 285.5s240.833 103.5 415.5 103.5c146.667 0 264.334 -25.333 353.001 -76s144.334 -124.667 167.001 -222l-173 -51
c-22 70 -61.5 121.667 -118.5 155s-133.5 50 -229.5 50c-250.667 0 -376 -78.667 -376 -236c0 -40 8.5 -72.667 25.5 -98s45 -47.5 84 -66.5s116.5 -44.167 232.5 -75.5c130 -36 223.5 -70.667 280.5 -104s100.667 -73.833 131 -121.5s45.5 -106.5 45.5 -176.5
c0 -137.333 -51.667 -243 -155 -317s-261.666 -111 -474.999 -111zM946.998 1530h-204l-187 239l4 21h93l205 -139h2l246 139h116l-4 -21z" />
    <glyph glyph-name="scaron" unicode="&#x161;" horiz-adv-x="1024" 
d="M907 317c0 -108 -41.3291 -191.168 -123.996 -249.501s-202 -87.5 -358 -87.5c-116 0 -208.167 19.5 -276.5 58.5s-116.166 100.5 -143.499 184.5l147 56c22 -58.667 56.167 -101.334 102.5 -128.001s108.5 -40 186.5 -40c95.333 0 167.666 16.167 216.999 48.5
s74 79.5 74 141.5c0 41.333 -17 75.833 -51 103.5s-106 58.5 -216 92.5c-85.333 28 -149.333 55.333 -192 82s-75.334 57.834 -98.001 93.501s-34 77.167 -34 124.5c0 96.667 38.667 171.167 116 223.5s186.333 78.5 327 78.5c236 0 368.667 -85 398 -255l-163 -25
c-14.667 52.667 -42.334 90.667 -83.001 114s-95.334 35 -164.001 35c-82.667 0 -146.167 -13.167 -190.5 -39.5s-66.5 -63.5 -66.5 -111.5c0 -28 7 -51.667 21 -71s34.167 -36.5 60.5 -51.5s87.166 -37.5 182.499 -67.5c84.667 -26.667 148.5 -53.667 191.5 -81
s76.5 -59.666 100.5 -96.999s36 -81.333 36 -132zM713.004 1201h-204l-181 270l4 20h97l199 -169h2l252 169h112l-4 -20z" />
    <glyph glyph-name="Tcommaaccent" unicode="&#x162;" horiz-adv-x="1251" 
d="M858 1253l-244 -1253h-190l244 1253h-484l30 156h1158l-30 -156h-484zM519 -96c54 -3.33301 94.498 -17 121.498 -41s40.5 -55.667 40.5 -95c0 -128.667 -101 -193 -303 -193c-33.333 0 -68.666 2.33301 -105.999 7l21 91c32 -4 61.333 -6 88 -6
c60.667 0 103.5 7.33301 128.5 22s37.5 37 37.5 67c0 48 -39.667 72 -119 72c-29.333 0 -48.666 -0.666992 -57.999 -2l101 174h107z" />
    <glyph glyph-name="tcommaaccent" unicode="&#x163;" horiz-adv-x="569" 
d="M275 -20c-56.667 0 -101.167 17 -133.5 51s-48.5 79 -48.5 135c0 36.667 5 80 15 130l126 655h-125l26 131h127l105 242h120l-47 -242h200l-26 -131h-200l-125 -645c-8 -40 -12 -71.667 -12 -95c0 -58.667 30 -88 90 -88c28 0 61.333 4.66699 100 14l-19 -133
c-66 -16 -123.667 -24 -173 -24zM261 -96c54 -3.33301 94.498 -17 121.498 -41s40.5 -55.667 40.5 -95c0 -128.667 -101 -193 -303 -193c-33.333 0 -68.666 2.33301 -105.999 7l21 91c32 -4 61.333 -6 88 -6c60.667 0 103.5 7.33301 128.5 22s37.5 37 37.5 67
c0 48 -39.667 72 -119 72c-29.333 0 -48.666 -0.666992 -57.999 -2l101 174h107z" />
    <glyph glyph-name="Tcaron" unicode="&#x164;" horiz-adv-x="1251" 
d="M858 1253l-244 -1253h-190l244 1253h-484l30 156h1158l-30 -156h-484zM911 1530h-204l-187 239l4 21h93l205 -139h2l246 139h116l-4 -21z" />
    <glyph glyph-name="tcaron" unicode="&#x165;" horiz-adv-x="725" 
d="M275 -20c-56.667 0 -101.167 17 -133.5 51s-48.5 79 -48.5 135c0 36.667 5 80 15 130l126 655h-125l26 131h127l105 242h120l-47 -242h200l-26 -131h-200l-125 -645c-8 -40 -12 -71.667 -12 -95c0 -58.667 30 -88 90 -88c28 0 61.333 4.66699 100 14l-19 -133
c-66 -16 -123.667 -24 -173 -24zM785 1127l-117.001 0.000976562c76 67.333 119.667 130.666 131 189.999h-88l32 167h195l-20 -106c-11.333 -58 -28.166 -106.5 -50.499 -145.5s-49.833 -74.167 -82.5 -105.5z" />
    <glyph glyph-name="Tbar" unicode="&#x166;" horiz-adv-x="1251" 
d="M858 1253l-88 -452h281l-30 -154h-281l-125 -647h-190l125 647h-279l30 154h279l88 452h-484l30 156h1158l-30 -156h-484z" />
    <glyph glyph-name="tbar" unicode="&#x167;" horiz-adv-x="569" 
d="M277 211c0 -58.667 30 -88 90 -88c28 0 61.333 4.66699 100 14l-19 -133c-66 -16 -123.667 -24 -173 -24c-56.667 0 -101.167 17 -133.5 51s-48.5 79 -48.5 135c0 36.667 5 80 15 130l42 220h-125l25 131h125l59 304h-125l26 131h127l105 242h120l-47 -242h200l-26 -131
h-200l-59 -304h200l-25 -131h-201l-40 -210c-8 -40 -12 -71.667 -12 -95z" />
    <glyph glyph-name="Utilde" unicode="&#x168;" horiz-adv-x="1479" 
d="M654 -20c-155.333 0 -277.667 40.168 -367 120.501s-134 190.5 -134 330.5c0 29.333 2.5 64.5 7.5 105.5s10.167 73.833 15.5 98.5l150 774h191l-162 -843c-11.333 -58 -17 -105.667 -17 -143c0 -90.667 29.167 -161.334 87.5 -212.001s139.833 -76 244.5 -76
c256 0 409.667 135.333 461 406l168 868h190l-170 -879c-36 -182 -110 -319.167 -222 -411.5s-259.667 -138.5 -443 -138.5zM1091 1530c-28 0 -54.6641 6.66895 -79.9971 20.002s-49.5 28.166 -72.5 44.499s-45 31.166 -66 44.499s-41.833 20 -62.5 20
c-30.667 0 -56.334 -9.83301 -77.001 -29.5s-39.334 -52.834 -56.001 -99.501h-100c31.333 101.333 67.166 171.333 107.499 210s88.166 58 143.499 58c29.333 0 56.666 -6.66699 81.999 -20s49.333 -28.166 72 -44.499s44.334 -31.166 65.001 -44.499s41 -20 61 -20
c60.667 0 104.667 43 132 129h102c-23.333 -72.667 -45.666 -125.834 -66.999 -159.501s-47 -60.167 -77 -79.5s-65.667 -29 -107 -29z" />
    <glyph glyph-name="utilde" unicode="&#x169;" 
d="M415 1082l-125.998 -644.999c-12 -58.667 -18 -108.667 -18 -150c0 -111.333 59.667 -167 179 -167c84 0 158 32 222 96s106.667 150.667 128 260l118 606h180l-166 -851c-13.333 -63.333 -26.333 -140.333 -39 -231h-170c0 7.33301 3.5 33.166 10.5 77.499l17.5 107.5
h-3c-55.333 -76.667 -110.833 -129.834 -166.5 -159.501s-121.834 -44.5 -198.501 -44.5c-98.667 0 -172.834 24.333 -222.501 73s-74.5 119 -74.5 211c0 42.667 7 97.334 21 164.001l127 653h181zM838.002 1201c-28 0 -54.665 6.16797 -79.998 18.501s-49.5 26 -72.5 41
s-45.167 28.667 -66.5 41s-42.333 18.5 -63 18.5c-66.667 0 -114 -39.667 -142 -119h-90c31.333 101.333 67.166 171.333 107.499 210s88.166 58 143.499 58c29.333 0 56.666 -6.16699 81.999 -18.5s49.5 -26 72.5 -41l65.5 -41c20.667 -12.333 41 -18.5 61 -18.5
c67.333 0 114.333 39.667 141 119h92c-23.333 -72.667 -45.666 -125.834 -66.999 -159.501s-47 -60.167 -77 -79.5s-65.667 -29 -107 -29z" />
    <glyph glyph-name="Umacron" unicode="&#x16a;" horiz-adv-x="1479" 
d="M654 -20c-155.333 0 -277.667 40.168 -367 120.501s-134 190.5 -134 330.5c0 29.333 2.5 64.5 7.5 105.5s10.167 73.833 15.5 98.5l150 774h191l-162 -843c-11.333 -58 -17 -105.667 -17 -143c0 -90.667 29.167 -161.334 87.5 -212.001s139.833 -76 244.5 -76
c256 0 409.667 135.333 461 406l168 868h190l-170 -879c-36 -182 -110 -319.167 -222 -411.5s-259.667 -138.5 -443 -138.5zM1196 1565h-550l26 127h550z" />
    <glyph glyph-name="umacron" unicode="&#x16b;" 
d="M415 1082l-125.998 -644.999c-12 -58.667 -18 -108.667 -18 -150c0 -111.333 59.667 -167 179 -167c84 0 158 32 222 96s106.667 150.667 128 260l118 606h180l-166 -851c-13.333 -63.333 -26.333 -140.333 -39 -231h-170c0 7.33301 3.5 33.166 10.5 77.499l17.5 107.5
h-3c-55.333 -76.667 -110.833 -129.834 -166.5 -159.501s-121.834 -44.5 -198.501 -44.5c-98.667 0 -172.834 24.333 -222.501 73s-74.5 119 -74.5 211c0 42.667 7 97.334 21 164.001l127 653h181zM958.002 1236h-550l26 127h550z" />
    <glyph glyph-name="Ubreve" unicode="&#x16c;" horiz-adv-x="1479" 
d="M654 -20c-155.333 0 -277.667 40.168 -367 120.501s-134 190.5 -134 330.5c0 29.333 2.5 64.5 7.5 105.5s10.167 73.833 15.5 98.5l150 774h191l-162 -843c-11.333 -58 -17 -105.667 -17 -143c0 -90.667 29.167 -161.334 87.5 -212.001s139.833 -76 244.5 -76
c256 0 409.667 135.333 461 406l168 868h190l-170 -879c-36 -182 -110 -319.167 -222 -411.5s-259.667 -138.5 -443 -138.5zM912.999 1520c-88.667 0 -159.831 23 -213.498 69s-81.167 106 -82.5 180h116c2 -39.333 20.167 -68 54.5 -86s79.166 -27 134.499 -27
c119.333 0 200.333 38 243 114h117c-34.667 -81.333 -83.834 -143.333 -147.501 -186s-137.5 -64 -221.5 -64z" />
    <glyph glyph-name="ubreve" unicode="&#x16d;" 
d="M415 1082l-125.998 -644.999c-12 -58.667 -18 -108.667 -18 -150c0 -111.333 59.667 -167 179 -167c84 0 158 32 222 96s106.667 150.667 128 260l118 606h180l-166 -851c-13.333 -63.333 -26.333 -140.333 -39 -231h-170c0 7.33301 3.5 33.166 10.5 77.499l17.5 107.5
h-3c-55.333 -76.667 -110.833 -129.834 -166.5 -159.501s-121.834 -44.5 -198.501 -44.5c-98.667 0 -172.834 24.333 -222.501 73s-74.5 119 -74.5 211c0 42.667 7 97.334 21 164.001l127 653h181zM682.002 1201c-88.667 0 -159.831 28.501 -213.498 85.501
s-81.167 131.5 -82.5 223.5h116c2 -56.667 20.167 -98 54.5 -124s79.166 -39 134.499 -39c119.333 0 200.333 54.333 243 163h117c-34 -98.667 -82.833 -174.834 -146.5 -228.501s-137.834 -80.5 -222.501 -80.5z" />
    <glyph glyph-name="Uring" unicode="&#x16e;" horiz-adv-x="1479" 
d="M654 -20c-155.333 0 -277.667 40.168 -367 120.501s-134 190.5 -134 330.5c0 29.333 2.5 64.5 7.5 105.5s10.167 73.833 15.5 98.5l150 774h191l-162 -843c-11.333 -58 -17 -105.667 -17 -143c0 -90.667 29.167 -161.334 87.5 -212.001s139.833 -76 244.5 -76
c256 0 409.667 135.333 461 406l168 868h190l-170 -879c-36 -182 -110 -319.167 -222 -411.5s-259.667 -138.5 -443 -138.5zM1162 1744c0 -66.667 -23.667 -123.667 -71 -171s-104.333 -71 -171 -71s-123.667 23.667 -171 71s-71 104.333 -71 171
c0 67.333 23.667 124.333 71 171s104.333 70 171 70c66 0 122.833 -23.5 170.5 -70.5s71.5 -103.833 71.5 -170.5zM1054 1744c0 38.667 -12.667 70.667 -38 96s-57.333 38 -96 38c-39.333 0 -71.666 -13.167 -96.999 -39.5s-38 -57.833 -38 -94.5s12.667 -68.667 38 -96
s57.666 -41 96.999 -41c38.667 0 70.667 13.333 96 40s38 59 38 97z" />
    <glyph glyph-name="uring" unicode="&#x16f;" 
d="M415 1082l-125.998 -644.999c-12 -58.667 -18 -108.667 -18 -150c0 -111.333 59.667 -167 179 -167c84 0 158 32 222 96s106.667 150.667 128 260l118 606h180l-166 -851c-13.333 -63.333 -26.333 -140.333 -39 -231h-170c0 7.33301 3.5 33.166 10.5 77.499l17.5 107.5
h-3c-55.333 -76.667 -110.833 -129.834 -166.5 -159.501s-121.834 -44.5 -198.501 -44.5c-98.667 0 -172.834 24.333 -222.501 73s-74.5 119 -74.5 211c0 42.667 7 97.334 21 164.001l127 653h181zM931.002 1410c0 -66.667 -23.667 -123.667 -71 -171s-104.333 -71 -171 -71
s-123.667 23.667 -171 71s-71 104.333 -71 171c0 67.333 23.667 124.333 71 171s104.333 70 171 70c66 0 122.833 -23.5 170.5 -70.5s71.5 -103.833 71.5 -170.5zM823.002 1410c0 38.667 -12.667 70.667 -38 96s-57.333 38 -96 38c-39.333 0 -71.666 -13.167 -96.999 -39.5
s-38 -57.833 -38 -94.5s12.667 -68.667 38 -96s57.666 -41 96.999 -41c38.667 0 70.667 13.333 96 40s38 59 38 97z" />
    <glyph glyph-name="Uhungarumlaut" unicode="&#x170;" horiz-adv-x="1479" 
d="M654 -20c-155.333 0 -277.667 40.168 -367 120.501s-134 190.5 -134 330.5c0 29.333 2.5 64.5 7.5 105.5s10.167 73.833 15.5 98.5l150 774h191l-162 -843c-11.333 -58 -17 -105.667 -17 -143c0 -90.667 29.167 -161.334 87.5 -212.001s139.833 -76 244.5 -76
c256 0 409.667 135.333 461 406l168 868h190l-170 -879c-36 -182 -110 -319.167 -222 -411.5s-259.667 -138.5 -443 -138.5zM615.999 1530l3 20l222 227h207l-5 -29l-334 -218h-93zM961.999 1530l3 20l223 227h207l-5 -29l-334 -218h-94z" />
    <glyph glyph-name="uhungarumlaut" unicode="&#x171;" 
d="M415 1082l-125.998 -644.999c-12 -58.667 -18 -108.667 -18 -150c0 -111.333 59.667 -167 179 -167c84 0 158 32 222 96s106.667 150.667 128 260l118 606h180l-166 -851c-13.333 -63.333 -26.333 -140.333 -39 -231h-170c0 7.33301 3.5 33.166 10.5 77.499l17.5 107.5
h-3c-55.333 -76.667 -110.833 -129.834 -166.5 -159.501s-121.834 -44.5 -198.501 -44.5c-98.667 0 -172.834 24.333 -222.501 73s-74.5 119 -74.5 211c0 42.667 7 97.334 21 164.001l127 653h181zM376.002 1201l3 20l252 287h207l-5 -29l-364 -278h-93zM722.002 1201l3 20
l253 287h207l-5 -29l-364 -278h-94z" />
    <glyph glyph-name="Uogonek" unicode="&#x172;" horiz-adv-x="1479" 
d="M654 -20c-155.333 0 -277.667 40.168 -367 120.501s-134 190.5 -134 330.5c0 29.333 2.5 64.5 7.5 105.5s10.167 73.833 15.5 98.5l150 774h191l-162 -843c-11.333 -58 -17 -105.667 -17 -143c0 -90.667 29.167 -161.334 87.5 -212.001s139.833 -76 244.5 -76
c256 0 409.667 135.333 461 406l168 868h190l-170 -879c-36 -182 -110 -319.167 -222 -411.5s-259.667 -138.5 -443 -138.5zM682.999 -426.999c-58.667 0 -102.999 15.6689 -132.999 47.002s-45 71.666 -45 120.999c0 55.333 19 106.5 57 153.5s87.333 82.167 148 105.5h133
c-62 -32 -109.667 -68.833 -143 -110.5s-50 -83.5 -50 -125.5c0 -22.667 6.66699 -41.834 20 -57.501s32.666 -23.5 57.999 -23.5c36 0 74 7.33301 114 22l-15 -105c-44.667 -18 -92.667 -27 -144 -27z" />
    <glyph glyph-name="uogonek" unicode="&#x173;" 
d="M415 1082l-125.998 -644.999c-12 -58.667 -18 -108.667 -18 -150c0 -111.333 59.667 -167 179 -167c84 0 158 32 222 96s106.667 150.667 128 260l118 606h180l-166 -851c-13.333 -63.333 -26.333 -140.333 -39 -231h-170c0 7.33301 3.5 33.166 10.5 77.499l17.5 107.5
h-3c-55.333 -76.667 -110.833 -129.834 -166.5 -159.501s-121.834 -44.5 -198.501 -44.5c-98.667 0 -172.834 24.333 -222.501 73s-74.5 119 -74.5 211c0 42.667 7 97.334 21 164.001l127 653h181zM697.002 -426.999c-58.667 0 -102.999 15.6689 -132.999 47.002
s-45 71.666 -45 120.999c0 55.333 19 106.5 57 153.5s87.333 82.167 148 105.5h133c-62 -32 -109.667 -68.833 -143 -110.5s-50 -83.5 -50 -125.5c0 -22.667 6.66699 -41.834 20 -57.501s32.666 -23.5 57.999 -23.5c36 0 74 7.33301 114 22l-15 -105
c-44.667 -18 -92.667 -27 -144 -27z" />
    <glyph glyph-name="Wcircumflex" unicode="&#x174;" horiz-adv-x="1933" 
d="M1406 0l-223.001 -0.000976562l-71 895c-9.33301 183.333 -14.666 291.333 -15.999 324c-50.667 -132.667 -95.667 -240.667 -135 -324l-419 -895h-223l-142 1409h197l79 -895c8 -103.333 13.333 -218.666 16 -345.999l130.5 302l443.5 939h183l75 -877
c9.33301 -102.667 15 -224 17 -364l16 35l78 184c20 46 180.333 386.667 481 1022h201zM1465 1550l-4 -20h-95l-192 139h-2l-259 -139h-113l4 20l280 240h204z" />
    <glyph glyph-name="wcircumflex" unicode="&#x175;" horiz-adv-x="1479" 
d="M1068 0h-209l-37 698l-6 236l-54 -131.5c-16 -37.667 -136 -305.167 -360 -802.5h-208l-92 1082h178l40 -735l7 -198l81 190l341 743h193l44 -743c4 -72 6 -135.333 6 -190c22 52.667 162.333 363.667 421 933h176zM1165 1221l-4 -20h-92l-186 169h-2l-265 -169h-116
l4 20l286 270h204z" />
    <glyph glyph-name="Ycircumflex" unicode="&#x176;" horiz-adv-x="1366" 
d="M672 0h-190l115 584l-384 825h196l306 -674l560 674h214l-704 -825zM1196 1550l-4 -20h-95l-192 139h-2l-259 -139h-113l4 20l280 240h204z" />
    <glyph glyph-name="ycircumflex" unicode="&#x177;" horiz-adv-x="1024" 
d="M16 -425c-48 0 -92.001 4.66895 -132.001 14.002l31 134c30 -5.33301 55.667 -8 77 -8c63.333 0 119.166 21.333 167.499 64s95.833 104.667 142.5 186l27 47l-217 1070h183l112 -598c10 -53.333 19.333 -110.166 28 -170.499s13.334 -99.5 14.001 -117.5
c6.66699 14.667 15.334 32.667 26.001 54s161.667 298.666 453 831.999h199l-626 -1082c-74 -128.667 -133.5 -218.834 -178.5 -270.501s-92 -90.334 -141 -116.001s-104.167 -38.5 -165.5 -38.5zM959.999 1221l-4 -20h-92l-186 169h-2l-265 -169h-116l4 20l286 270h204z
" />
    <glyph glyph-name="Ydieresis" unicode="&#x178;" horiz-adv-x="1366" 
d="M672 0h-190l115 584l-384 825h196l306 -674l560 674h214l-704 -825zM951 1530l35 184h173l-35 -184h-173zM567 1530l35 184h175l-35 -184h-175z" />
    <glyph glyph-name="Zacute" unicode="&#x179;" horiz-adv-x="1251" 
d="M1082 0h-1122l27 143l1054 1110h-765l30 156h1002l-27 -139l-1054 -1114h885zM684 1530l3 20l261 226h207l-5 -29l-352 -217h-114z" />
    <glyph glyph-name="zacute" unicode="&#x17a;" horiz-adv-x="1024" 
d="M-12 0l23 137l742 806h-566l25 139h784l-24 -137l-742 -806h621l-25 -139h-838zM484 1201l3 20l253 287h217l-5 -29l-374 -278h-94z" />
    <glyph glyph-name="Zdotaccent" unicode="&#x17b;" horiz-adv-x="1251" 
d="M1082 0h-1122l27 143l1054 1110h-765l30 156h1002l-27 -139l-1054 -1114h885zM697 1530l34 172h180l-34 -172h-180z" />
    <glyph glyph-name="zdotaccent" unicode="&#x17c;" horiz-adv-x="1024" 
d="M-12 0l23 137l742 806h-566l25 139h784l-24 -137l-742 -806h621l-25 -139h-838zM551 1312l34 172h180l-34 -172h-180z" />
    <glyph glyph-name="Zcaron" unicode="&#x17d;" horiz-adv-x="1251" 
d="M1082 0h-1122l27 143l1054 1110h-765l30 156h1002l-27 -139l-1054 -1114h885zM899 1530h-204l-187 239l4 21h93l205 -139h2l246 139h116l-4 -21z" />
    <glyph glyph-name="zcaron" unicode="&#x17e;" horiz-adv-x="1024" 
d="M-23 0l23 137l742 806h-566l25 139h784l-24 -137l-742 -806h621l-25 -139h-838zM721 1201h-204l-181 270l4 20h97l199 -169h2l252 169h112l-4 -20z" />
    <glyph glyph-name="longs" unicode="&#x17f;" horiz-adv-x="455" 
d="M33 0l234.001 1204c19.333 104 53 176.667 101 218s116 62 204 62c46.667 0 86 -4 118 -12l-24 -137c-28.667 5.33301 -56.667 8 -84 8c-26.667 0 -48.5 -4.83301 -65.5 -14.5s-30.833 -24.167 -41.5 -43.5s-21.334 -54.666 -32.001 -105.999l-230 -1179h-180z" />
    <glyph glyph-name="uni0180" unicode="&#x180;" 
d="M167 1337l126.998 -0.00195312l29 147h180l-29 -147h305l-25 -131h-306l-28 -145c-8.66699 -42 -20 -88.667 -34 -140h4c48.667 63.333 100 109.333 154 138s120.667 43 200 43c104.667 0 186.167 -31.5 244.5 -94.5s87.5 -149.5 87.5 -259.5
c0 -135.333 -20.5 -266.5 -61.5 -393.5s-98.667 -221.167 -173 -282.5s-169.166 -92 -284.499 -92c-82 0 -148.667 17.333 -200 52s-87.666 83.334 -108.999 146.001h-3c-3.33301 -17.333 -17.666 -76.666 -42.999 -177.999h-173c5.33301 16.667 21.666 91 48.999 223
l191 983h-127zM691.998 962.998c-66 0 -122.497 -13.5 -169.497 -40.5s-86.833 -67.667 -119.5 -122s-58.334 -122.333 -77.001 -204s-28 -154.834 -28 -219.501c0 -83.333 21.167 -148.166 63.5 -194.499s101.166 -69.5 176.499 -69.5
c81.333 0 145.666 24.167 192.999 72.5s85.333 127.333 114 237s43 207.5 43 293.5c0 82 -15.667 143.667 -47 185s-81 62 -149 62z" />
    <glyph glyph-name="uni0181" unicode="&#x181;" horiz-adv-x="1496" 
d="M438 1261l-15.999 0.000976562c-62.667 0 -109.5 -17 -140.5 -51s-46.5 -81.667 -46.5 -143l4 -50l-148 -17c-5.33301 19.333 -8 38.666 -8 57.999c0 113.333 30.167 200.166 90.5 260.499s147.833 90.5 262.5 90.5h540c139.333 0 249.166 -28.833 329.499 -86.5
s120.5 -136.167 120.5 -235.5c0 -190 -113 -304.667 -339 -344c92 -15.333 163.333 -50.166 214 -104.499s76 -120.833 76 -199.5c0 -142 -52 -250.667 -156 -326s-248.333 -113 -433 -113h-595zM413.001 153.001l368 0.000976562c140 0 242.5 24.5 307.5 73.5
s97.5 120.833 97.5 215.5c0 71.333 -26.5 125.666 -79.5 162.999s-129.167 56 -228.5 56h-366zM541.001 810.002h331c236.667 0 355 86 355 258c0 125.333 -89.333 188 -268 188h-331z" />
    <glyph glyph-name="uni0182" unicode="&#x182;" horiz-adv-x="1333" 
d="M336 1409h926l-30 -156h-735l-85 -440h324c152 0 270.5 -32.667 355.5 -98s127.5 -158 127.5 -278c0 -138 -49.167 -245.333 -147.5 -322s-233.833 -115 -406.5 -115h-603zM282 151l374 0.000976562c246 0 369 92 369 276c0 75.333 -25.167 133.166 -75.5 173.499
s-124.5 60.5 -222.5 60.5h-345z" />
    <glyph glyph-name="uni0183" unicode="&#x183;" 
d="M744 1102c104.667 0 186.164 -31.502 244.497 -94.502s87.5 -149.5 87.5 -259.5c0 -135.333 -20.5 -266.5 -61.5 -393.5s-98.667 -221.167 -173 -282.5s-169.166 -92 -284.499 -92c-82 0 -148.667 17.333 -200 52s-87.666 83.334 -108.999 146.001h-3
c-3.33301 -17.333 -17.666 -76.666 -42.999 -177.999h-173c5.33301 16.667 21.666 91 48.999 223l245 1261h744l-31 -159h-564l-50.5 -257.5c-12.333 -63.667 -24.166 -112.5 -35.499 -146.5h4c48.667 63.333 100 109.333 154 138s120.667 43 200 43zM691.997 962.998
c-66 0 -122.497 -13.5 -169.497 -40.5s-86.833 -67.667 -119.5 -122s-58.334 -122.333 -77.001 -204s-28 -154.834 -28 -219.501c0 -83.333 21.167 -148.166 63.5 -194.499s101.166 -69.5 176.499 -69.5c81.333 0 145.666 24.167 192.999 72.5s85.333 127.333 114 237
s43 207.5 43 293.5c0 82 -15.667 143.667 -47 185s-81 62 -149 62z" />
    <glyph glyph-name="uni0184" unicode="&#x184;" horiz-adv-x="1333" 
d="M411 813h313c152 0 270.5 -32.667 355.5 -98s127.5 -158 127.5 -278c0 -138 -49.167 -245.333 -147.5 -322s-233.833 -115 -406.5 -115h-592l197 1011l-126 165l6 33l332 200h56zM281 151l363 0.000976562c246 0 369 92 369 276c0 75.333 -25.167 133.166 -75.5 173.499
s-124.5 60.5 -222.5 60.5h-334z" />
    <glyph glyph-name="uni0185" unicode="&#x185;" 
d="M744 1102c104.667 0 186.165 -31.502 244.498 -94.502s87.5 -149.5 87.5 -259.5c0 -135.333 -20.5 -266.5 -61.5 -393.5s-98.667 -221.167 -173 -282.5s-169.166 -92 -284.499 -92c-82 0 -148.667 17.333 -200 52s-87.666 83.334 -108.999 146.001h-3
c-3.33301 -17.333 -17.666 -76.666 -42.999 -177.999h-173c5.33301 16.667 21.666 91 48.999 223l167 863l-93 180l7 33l293 185h51l-83 -423c-8.66699 -42 -20 -88.667 -34 -140h4c48.667 63.333 100 109.333 154 138s120.667 43 200 43zM691.998 962.998
c-66 0 -122.497 -13.5 -169.497 -40.5s-86.833 -67.667 -119.5 -122s-58.334 -122.333 -77.001 -204s-28 -154.834 -28 -219.501c0 -83.333 21.167 -148.166 63.5 -194.499s101.166 -69.5 176.499 -69.5c81.333 0 145.666 24.167 192.999 72.5s85.333 127.333 114 237
s43 207.5 43 293.5c0 82 -15.667 143.667 -47 185s-81 62 -149 62z" />
    <glyph glyph-name="uni0186" unicode="&#x186;" horiz-adv-x="1479" 
d="M175 1073c84 125.333 179.333 216.166 286 272.499s230.667 84.5 372 84.5c120.667 0 225.5 -24.167 314.5 -72.5s156.667 -117.166 203 -206.499s69.5 -192.666 69.5 -309.999c0 -164 -35 -312.333 -105 -445s-167.167 -235.167 -291.5 -307.5
s-263.166 -108.5 -416.499 -108.5c-144.667 0 -266.834 30.167 -366.501 90.5s-165.5 145.166 -197.5 254.499l180 55c24 -74.667 70.5 -134 139.5 -178s153.833 -66 254.5 -66c122.667 0 230.667 29.5 324 88.5s165 142 215 249s75 230.5 75 370.5
c0 133.333 -36.333 238.5 -109 315.5s-173.334 115.5 -302.001 115.5c-98.667 0 -190.667 -24.5 -276 -73.5s-160.666 -121.5 -225.999 -217.5z" />
    <glyph glyph-name="uni0187" unicode="&#x187;" horiz-adv-x="1479" 
d="M1358 337c-84 -125.333 -179.335 -216.165 -286.002 -272.498s-230.667 -84.5 -372 -84.5c-120.667 0 -225.5 24.167 -314.5 72.5s-156.667 117.166 -203 206.499s-69.5 192.666 -69.5 309.999c0 164 35 312.333 105 445s167.167 235.167 291.5 307.5
s263.166 108.5 416.499 108.5c188.667 0 335.334 -49.333 440.001 -148l8 39c20.667 98.667 57.834 172.5 111.501 221.5s122.167 73.5 205.5 73.5c42.667 0 82.334 -7 119.001 -21l-29 -151c-30 12 -58.667 18 -86 18c-45.333 0 -81.666 -14.333 -108.999 -43
s-46.666 -73.667 -57.999 -135l-38 -199l-180 -55c-24.667 74.667 -71.334 134 -140.001 178s-153.334 66 -254.001 66c-122.667 0 -230.667 -29.5 -324 -88.5s-165 -142 -215 -249s-75 -230.5 -75 -370.5c0 -133.333 36.333 -238.5 109 -315.5
s173.334 -115.5 302.001 -115.5c98.667 0 190.667 24.5 276 73.5s160.666 121.5 225.999 217.5z" />
    <glyph glyph-name="uni0188" unicode="&#x188;" horiz-adv-x="1024" 
d="M469 122c66.667 0 123.834 18.333 171.501 55s86.834 95 117.501 175l156 -49c-80.667 -215.333 -230.334 -323 -449.001 -323c-128.667 0 -227.167 36.667 -295.5 110s-102.5 175 -102.5 305c0 133.333 24.167 257.333 72.5 372s112.333 199.167 192 253.5
s177.5 81.5 293.5 81.5c108.667 0 195.667 -26.333 261 -79c46.667 177.333 144.667 266 294 266c43.333 0 81.666 -7 114.999 -21l-29 -151c-32 13.333 -58.333 20 -79 20c-42 0 -75.167 -15.5 -99.5 -46.5s-42.833 -78.833 -55.5 -143.5l-31 -163l-177 -25
c-4 64.667 -24 114.5 -60 149.5s-84.333 52.5 -145 52.5c-84 0 -152 -22.5 -204 -67.5s-92.333 -116.5 -121 -214.5s-43 -194.667 -43 -290c0 -178 72.667 -267 218 -267z" />
    <glyph glyph-name="uni0189" unicode="&#x189;" horiz-adv-x="1479" 
d="M764 1409c208 0 371.5 -54.832 490.5 -164.499s178.5 -260.834 178.5 -453.501c0 -156 -32.833 -293.5 -98.5 -412.5s-162 -211.833 -289 -278.5s-271.5 -100 -433.5 -100h-549l125 647h-154l30 154h154l118 608h428zM409 801.001h406l-30 -154h-406l-96 -494h304
c130 0 244.667 25.833 344 77.5s175.5 126 228.5 223s79.5 210.167 79.5 339.5c0 146 -42 259.667 -126 341s-201.667 122 -353 122h-262z" />
    <glyph glyph-name="uni018A" unicode="&#x18a;" horiz-adv-x="1606" 
d="M871 1409c208 0 371.5 -54.8301 490.5 -164.497s178.5 -260.834 178.5 -453.501c0 -157.333 -34.333 -295 -103 -413s-167.5 -210.5 -296.5 -277.5s-275.167 -100.5 -438.5 -100.5h-512l244 1261h-15c-62.667 0 -109.5 -17 -140.5 -51s-46.5 -81.667 -46.5 -143l4 -50
l-148 -17c-5.33301 19.333 -8 38.666 -8 57.999c0 113.333 30.167 200.166 90.5 260.499s147.833 90.5 262.5 90.5h438zM410 153.003h284c131.333 0 246.333 25.833 345 77.5s174.5 126 227.5 223s79.5 210.167 79.5 339.5c0 146 -42 259.667 -126 341
s-201.667 122 -353 122h-242z" />
    <glyph glyph-name="uni018B" unicode="&#x18b;" horiz-adv-x="1333" 
d="M554 0c-152 0 -270.5 32.667 -355.5 98s-127.5 158 -127.5 278c0 138 49.167 245.333 147.5 322s233.833 115 406.5 115h403l86 440h-760l30 156h951l-274 -1409h-507zM998 662l-364 -0.000976562c-246 0 -369 -92 -369 -276c0 -75.333 25.167 -133.166 75.5 -173.499
s124.5 -60.5 222.5 -60.5h344z" />
    <glyph glyph-name="uni018C" unicode="&#x18c;" 
d="M401 -21c-104.667 0 -186.166 31.501 -244.499 94.501s-87.5 149.5 -87.5 259.5c0 135.333 20.5 266.5 61.5 393.5s98.667 221.167 173 282.5s169.166 92 284.499 92c82 0 148.833 -17.333 200.5 -52s88.167 -83.334 109.5 -146.001h5l28 162l51 260h-564l31 159h744
l-245 -1261l-33 -192l-5 -31h-172c0 34 7 87.333 21 160h-5c-48.667 -63.333 -100 -109.333 -154 -138s-120.333 -43 -199 -43zM453.001 118.001c66 0 122.498 13.5 169.498 40.5s86.833 67.667 119.5 122s58.334 122.333 77.001 204s28 154.834 28 219.501
c0 83.333 -21.167 148.166 -63.5 194.499s-101.166 69.5 -176.499 69.5c-82.667 0 -148 -25.167 -196 -75.5s-85.667 -130.333 -113 -240s-41 -205.5 -41 -287.5s15.667 -143.667 47 -185s81 -62 149 -62z" />
    <glyph glyph-name="uni018D" unicode="&#x18d;" horiz-adv-x="1138" 
d="M1074 683c0 -117.333 -21.8311 -232.667 -65.498 -346s-106.334 -200 -188.001 -260s-182.167 -92 -301.5 -96l290 -274l-25 -132h-739l28 145h366l152 -8l-369 343c-56.667 52 -96.667 107.667 -120 167s-35 125 -35 197c0 124 22.667 240.5 68 349.5
s110.166 191.667 194.499 248s188.5 84.5 312.5 84.5c140 0 247 -36.5 321 -109.5s111 -175.833 111 -308.5zM888.002 682.999c0 190.667 -82.666 286 -247.999 286c-90 0 -162.167 -23.167 -216.5 -69.5s-96.5 -116.5 -126.5 -210.5s-45 -185 -45 -273
c0 -98.667 21.333 -173.834 64 -225.501s104.667 -77.5 186 -77.5c69.333 0 125.166 12 167.499 36s79.5 61.833 111.5 113.5s57.833 118.834 77.5 201.501s29.5 155.667 29.5 219z" />
    <glyph glyph-name="uni018E" unicode="&#x18e;" horiz-adv-x="1366" 
d="M-30 0l33 156h919l104 491h-818l33 154h818l96 452h-878l33 156h1069l-299 -1409h-1110z" />
    <glyph glyph-name="uni018F" unicode="&#x18f;" horiz-adv-x="1593" 
d="M703 126c150.667 0 276.332 45.5 376.999 136.5s171.334 220.833 212.001 389.5h-983c-6 -38 -9 -75.333 -9 -112c0 -134 34.833 -236.5 104.5 -307.5s169.167 -106.5 298.5 -106.5zM1316 810c1.33301 29.333 2.00293 48.667 2.00293 58c0 126.667 -34.5 226 -103.5 298
s-164.833 108 -287.5 108c-102.667 0 -192.834 -20.333 -270.501 -61s-146.834 -104.667 -207.501 -192l-168 60c79.333 119.333 173.166 207.333 281.499 264s233.166 85 374.499 85c176.667 0 314.834 -50.5 414.501 -151.5s149.5 -240.5 149.5 -418.5
c0 -170 -32.667 -322.167 -98 -456.5s-159 -238.5 -281 -312.5s-264.333 -111 -427 -111c-182 0 -323 49.167 -423 147.5s-150 235.833 -150 412.5c0 80 12.333 170 37 270h1157z" />
    <glyph glyph-name="uni0190" unicode="&#x190;" horiz-adv-x="1257" 
d="M545 -20c-144.667 0 -258.33 32.6689 -340.997 98.002s-124 154.333 -124 267c0 109.333 35.167 199 105.5 269s166.166 113.333 287.499 130c-72 18.667 -127.5 50.5 -166.5 95.5s-58.5 101.5 -58.5 169.5c0 127.333 48.5 229.166 145.5 305.499
s225.833 114.5 386.5 114.5c133.333 0 238 -27.833 314 -83.5s126 -141.5 150 -257.5l-175 -51c-24.667 87.333 -60.834 148.666 -108.501 183.999s-112.167 53 -193.5 53c-99.333 0 -178.833 -25 -238.5 -75s-89.5 -117.333 -89.5 -202c0 -66 26.333 -115 79 -147
s133.334 -48 242.001 -48h61l-29 -148h-71c-298 0 -447 -99.333 -447 -298c0 -69.333 25.667 -123.833 77 -163.5s121.666 -59.5 210.999 -59.5c171.333 0 314 90.667 428 272l145 -87c-56.667 -87.333 -112.667 -154 -168 -200s-117.833 -80.5 -187.5 -103.5
s-147.834 -34.5 -234.501 -34.5z" />
    <glyph glyph-name="uni0191" unicode="&#x191;" horiz-adv-x="1251" 
d="M497 1253l-102 -524h796l-31 -158h-796l-135 -700c-18.667 -97.333 -55.667 -170.833 -111 -220.5s-133 -74.5 -233 -74.5c-44 0 -84.333 7 -121 21l30 155c30 -12 58.667 -18 86 -18c44.667 0 80.5 14.333 107.5 43s46.5 73.667 58.5 135l290 1497h1011l-30 -156h-820z
" />
    <glyph glyph-name="florin" unicode="&#x192;" 
d="M1028 1312c-34 10 -70.6699 15.001 -110.003 15.001c-40 0 -70.667 -12.333 -92 -37s-38.333 -68.334 -51 -131.001l-26 -137h211l-25 -131h-213l-258 -1347h-180l258 1347h-152l27 131h151l29 152c20.667 102 55.834 174.167 105.501 216.5s118.834 63.5 207.501 63.5
c52.667 0 102.334 -6.66699 149.001 -20z" />
    <glyph glyph-name="uni0193" unicode="&#x193;" horiz-adv-x="1593" 
d="M742 -20c-203.333 0 -361.002 52.002 -473.002 156.002s-168 249.667 -168 437c0 166 35 314.5 105 445.5s169.167 232.333 297.5 304s275.166 107.5 440.499 107.5c190.667 0 336.334 -46 437.001 -138l6 29c18.667 95.333 55.167 168.333 109.5 219s123.5 76 207.5 76
c42.667 0 82.334 -7 119.001 -21l-29 -151c-30 12 -58.667 18 -86 18c-45.333 0 -81.5 -14.333 -108.5 -43s-46.5 -73.667 -58.5 -135l-36 -186l-193 -54c-24.667 76.667 -69.334 134.167 -134.001 172.5s-146.667 57.5 -246 57.5c-128 0 -240.167 -28.667 -336.5 -86
s-170.166 -138.833 -221.499 -244.5s-77 -227.834 -77 -366.501c0 -140.667 39.333 -249.5 118 -326.5s189.667 -115.5 333 -115.5c94 0 183.833 13.667 269.5 41s156.834 65.666 213.501 114.999l51 254h-421l32 160h597l-100 -495
c-93.333 -80 -192.833 -138.333 -298.5 -175s-222.167 -55 -349.5 -55z" />
    <glyph glyph-name="uni0194" unicode="&#x194;" horiz-adv-x="1017" 
d="M343 -425c-68 0 -122.167 19.501 -162.5 58.501s-60.5 92.833 -60.5 161.5c0 34 7.5 71.667 22.5 113s35.5 84.666 61.5 129.999s75.667 118.333 149 219l-304 1152h198l234 -997l620 997h206l-756 -1162c34 -106.667 55.333 -184 64 -232s13 -90.333 13 -127
c0 -58 -11.833 -112.167 -35.5 -162.5s-57 -88 -100 -113s-92.833 -37.5 -149.5 -37.5zM358 -274.999c33.333 0 59.501 15.667 78.501 47s28.5 75.333 28.5 132c0 74.667 -11 150 -33 226c-44.667 -64 -80.334 -125.667 -107.001 -185s-40 -105.333 -40 -138
c0 -26 6.5 -46.167 19.5 -60.5s30.833 -21.5 53.5 -21.5z" />
    <glyph glyph-name="uni0195" unicode="&#x195;" horiz-adv-x="1801" 
d="M1144 -20c-121.333 0 -213.001 25.8311 -275.001 77.498s-93 122.834 -93 213.501c0 28 3.33301 58 10 90l59 299c10 53.333 15 98 15 134c0 56.667 -14.333 98.834 -43 126.501s-73.667 41.5 -135 41.5c-84.667 0 -159 -32.167 -223 -96.5
s-106.333 -149.166 -127 -254.499l-119 -611h-179l288 1484h180l-75 -386c-13.333 -73.333 -28.666 -140.333 -45.999 -201h3c48.667 71.333 101.5 123.166 158.5 155.499s125.833 48.5 206.5 48.5c97.333 0 171 -24.333 221 -73s75 -118 75 -208c0 -40.667 -5 -86 -15 -136
l-57 -293c-8.66699 -42 -13 -77 -13 -105c0 -54.667 14.667 -96.5 44 -125.5s78.666 -43.5 147.999 -43.5c81.333 0 143.833 20.167 187.5 60.5s75.834 112.5 96.501 216.5l134 688h181l-140 -717c-26.667 -136.667 -78.167 -235 -154.5 -295s-180.5 -90 -312.5 -90z" />
    <glyph glyph-name="uni0196" unicode="&#x196;" horiz-adv-x="455" 
d="M33 0l288 1484h180l-289 -1484h-179z" />
    <glyph glyph-name="uni0197" unicode="&#x197;" horiz-adv-x="569" 
d="M82 0l130 672h-164l27 141h165l130 671h180l-131 -671h170l-27 -141h-170l-131 -672h-179z" />
    <glyph glyph-name="uni0198" unicode="&#x198;" horiz-adv-x="1366" 
d="M621 1425c43.333 0 85.333 -7 126 -21l-31 -159c-30 12 -58.667 18 -86 18c-44.667 0 -80.334 -13 -107.001 -39s-46 -69.667 -58 -131l-74 -375l140 129l665 562h245l-750 -630l557 -779h-226l-472 674l-190 -129l-106 -545h-191l219 1130
c18.667 97.333 54.834 170.833 108.501 220.5s130.5 74.5 230.5 74.5z" />
    <glyph glyph-name="uni0199" unicode="&#x199;" horiz-adv-x="1024" 
d="M721 0l-268.004 502l-168 -124l-72 -378h-179l237 1221c16.667 88 51.334 156.167 104.001 204.5s119.334 72.5 200.001 72.5c46.667 0 88.334 -7 125.001 -21l-29 -151c-31.333 13.333 -57.666 20 -78.999 20c-42 0 -75.333 -16 -100 -48s-43 -80.333 -55 -145
l-114 -586l204 190l361 325h222l-530 -465l336 -617h-195z" />
    <glyph glyph-name="uni019A" unicode="&#x19a;" horiz-adv-x="455" 
d="M27 0l129 666h-133l29 134h130l133 684h180l-134 -684h138l-29 -134h-135l-129 -666h-179z" />
    <glyph glyph-name="uni019B" unicode="&#x19b;" horiz-adv-x="1008" 
d="M849 1271l-170.001 -57.999l220 -1213h-180l-93 577c-13.333 73.333 -21.666 144.666 -24.999 213.999l-14 -25.5l-17 -31c-6 -11 -38.333 -64.167 -97 -159.5l-370 -575h-195l648 980l-32 179l-207 -67l-23 118l203 69l-35 205h168l26 -148l170 58z" />
    <glyph glyph-name="uni019C" unicode="&#x19c;" horiz-adv-x="1733" 
d="M1041 -20c-136.667 0 -229.333 56.002 -278 168.002c-61.333 -62.667 -118.666 -106.334 -171.999 -131.001s-111.333 -37 -174 -37c-110.667 0 -195 28 -253 84s-87 137.667 -87 245c0 47.333 7 107.666 21 180.999l179 919h188l-179 -921
c-12 -62 -18 -114.333 -18 -157c0 -68.667 14.5 -118.5 43.5 -149.5s75.833 -46.5 140.5 -46.5c80.667 0 144.167 25.667 190.5 77s79.5 127.333 99.5 228l188 969h189l-185 -953c-10.667 -52 -16 -96.667 -16 -134c0 -63.333 13.833 -110.333 41.5 -141
s71.167 -46 130.5 -46c164.667 0 268 107.667 310 323l185 951h189l-229 -1178c-13.333 -65.333 -25 -142.333 -35 -231h-168l19 146c-38.667 -52 -85.834 -92.667 -141.501 -122s-115.167 -44 -178.5 -44z" />
    <glyph glyph-name="uni019D" unicode="&#x19d;" horiz-adv-x="1479" 
d="M987 0l-531.001 1210c-22.667 -151.333 -36.667 -240.333 -42 -267l-205 -1072c-20 -102.667 -55.667 -177.5 -107 -224.5s-123.666 -70.5 -216.999 -70.5c-44 0 -84.333 7 -121 21l30 155c30 -12 58.667 -18 86 -18c44.667 0 80.5 14.333 107.5 43s46.5 73.667 58.5 135
l290 1497h212l534 -1215c17.333 126 32.333 220.667 45 284l181 931h172l-273 -1409h-220z" />
    <glyph glyph-name="uni019E" unicode="&#x19e;" 
d="M634 -425l208.998 1070c12 58.667 18 108.667 18 150c0 111.333 -59.667 167 -179 167c-84 0 -158 -32 -222 -96s-106.667 -150.667 -128 -260l-118 -606h-180l155 789c5.33301 24.667 10 53.834 14 87.501s6 56.167 6 67.5c0 7.33301 -1 30.666 -3 69.999s-4 62 -6 68
h166c10 -40 15 -101.667 15 -185h3c55.333 76.667 110.833 129.834 166.5 159.501s121.834 44.5 198.501 44.5c98.667 0 172.834 -24.333 222.501 -73s74.5 -119 74.5 -211c0 -42.667 -7 -97.334 -21 -164.001l-210 -1078h-181z" />
    <glyph glyph-name="uni019F" unicode="&#x19f;" horiz-adv-x="1593" 
d="M938 1430c122 0 228.167 -23.833 318.5 -71.5s159.5 -115.5 207.5 -203.5s72 -189.333 72 -304c0 -118.667 -19.167 -232 -57.5 -340s-94.5 -202.167 -168.5 -282.5s-162.5 -141.833 -265.5 -184.5s-214.833 -64 -335.5 -64c-189.333 0 -336.333 52.5 -441 157.5
s-157 250.167 -157 435.5c0 159.333 35.167 305.833 105.5 439.5s168.5 236.667 294.5 309s268.333 108.5 427 108.5zM718 135c158 0 287.667 41.833 389 125.5s172 208.167 212 373.5h-1014l-3 -71c0 -139.333 35.5 -245.5 106.5 -318.5s174.167 -109.5 309.5 -109.5z
M929 1276c-158 0 -286.833 -40.833 -386.5 -122.5s-169.5 -201.5 -209.5 -359.5h1010l2 53c0 138 -36.167 244 -108.5 318s-174.833 111 -307.5 111z" />
    <glyph glyph-name="Ohorn" unicode="&#x1a0;" horiz-adv-x="1662" 
d="M938 1430c152.667 0 279.667 -36.334 381 -109.001s167.333 -174.667 198 -306c69.333 31.333 120 65 152 101s53.333 78 64 126h-88l35 167h195l-22 -106c-19.333 -91.333 -53 -165.333 -101 -222s-121.667 -106 -221 -148c3.33301 -33.333 5 -60.666 5 -81.999
c0 -118.667 -19.167 -232 -57.5 -340s-94.5 -202.167 -168.5 -282.5s-162.5 -141.833 -265.5 -184.5s-214.833 -64 -335.5 -64c-189.333 0 -336.333 52.5 -441 157.5s-157 250.167 -157 435.5c0 159.333 35.167 305.833 105.5 439.5s168.5 236.667 294.5 309
s268.333 108.5 427 108.5zM929 1276c-99.333 0 -187.167 -16.333 -263.5 -49s-141.166 -81 -194.499 -145s-94.833 -144 -124.5 -240s-44.5 -189 -44.5 -279c0 -139.333 35.5 -245.5 106.5 -318.5s174.167 -109.5 309.5 -109.5c131.333 0 243.166 28.833 335.499 86.5
s164 144.167 215 259.5s76.5 237.333 76.5 366c0 138 -36.167 244 -108.5 318s-174.833 111 -307.5 111z" />
    <glyph glyph-name="ohorn" unicode="&#x1a1;" horiz-adv-x="1238" 
d="M491 -20c-130.667 0 -234 38.999 -310 116.999s-114 185.333 -114 322c0 124 22.667 240.5 68 349.5s110.166 191.667 194.499 248s188.5 84.5 312.5 84.5c132.667 0 236 -33.167 310 -99.5s114.333 -160.166 121 -281.499c90.667 48.667 144.667 115.667 162 201h-88
l35 167h195l-22 -106c-17.333 -84 -47.666 -154 -90.999 -210s-107.333 -103.333 -192 -142c-4 -81.333 -20 -165 -48 -251s-66.667 -159 -116 -219s-109 -105 -179 -135s-149.333 -45 -238 -45zM888 682.999c0 190.667 -82.668 286.001 -248.001 286.001
c-90 0 -162.167 -23.167 -216.5 -69.5s-96.5 -116.5 -126.5 -210.5s-45 -185 -45 -273c0 -98.667 21.333 -173.834 64 -225.501s104.667 -77.5 186 -77.5c68.667 0 123.834 11.5 165.501 34.5s78.167 59 109.5 108s56.833 111.5 76.5 187.5s31.167 156 34.5 240z" />
    <glyph glyph-name="uni01A2" unicode="&#x1a2;" horiz-adv-x="1778" 
d="M709 -20c-189.333 0 -336.332 52.5 -440.999 157.5s-157 250.167 -157 435.5c0 159.333 35.167 305.833 105.5 439.5s168.5 236.667 294.5 309s268.333 108.5 427 108.5c114.667 0 227 -25.667 337 -77l465 70h43l-359 -1847h-180l320 1645l-226 2l-224 -1151
c-74.667 -34.667 -143.334 -58.667 -206.001 -72s-129 -20 -199 -20zM1159 1228c-62.667 32 -139.334 48 -230.001 48c-99.333 0 -187.166 -16.333 -263.499 -49s-141.166 -81 -194.499 -145s-94.833 -144 -124.5 -240s-44.5 -189 -44.5 -279
c0 -138.667 35.167 -244.667 105.5 -318s173.166 -110 308.499 -110c90.667 0 170.667 15.333 240 46z" />
    <glyph glyph-name="uni01A3" unicode="&#x1a3;" horiz-adv-x="1367" 
d="M491 -20c-130.667 0 -233.999 39 -309.999 117s-114 185.333 -114 322c0 124 22.667 240.5 68 349.5s110.166 191.667 194.499 248s188.5 84.5 312.5 84.5c110 0 210 -25.333 300 -76l350 68h43l-295 -1518h-175l261 1343h-189l-173 -880
c-77.333 -38.667 -168.333 -58 -273 -58zM769.001 950c-41.333 12.667 -84.333 19.001 -129 19.001c-90 0 -162.167 -23.167 -216.5 -69.5s-96.5 -116.5 -126.5 -210.5s-45 -185 -45 -273c0 -98.667 21.333 -173.834 64 -225.501s104.667 -77.5 186 -77.5
c41.333 0 77.333 3.66699 108 11z" />
    <glyph glyph-name="uni01A4" unicode="&#x1a4;" horiz-adv-x="1496" 
d="M982 1409c154 0 276 -34.6641 366 -103.997s135 -164.333 135 -285c0 -146.667 -50.833 -261.834 -152.5 -345.501s-240.5 -125.5 -416.5 -125.5h-424l-106 -549h-191l244 1261h-15c-62.667 0 -109.5 -17 -140.5 -51s-46.5 -81.667 -46.5 -143l4 -50l-148 -17
c-5.33301 19.333 -8 38.666 -8 57.999c0 113.333 30.167 200.166 90.5 260.499s147.833 90.5 262.5 90.5h546zM520 700.003h387.001c254.667 0 382 103.667 382 311c0 79.333 -26.333 140 -79 182s-130.334 63 -233.001 63h-349z" />
    <glyph glyph-name="uni01A5" unicode="&#x1a5;" 
d="M554 -20c-82 0 -148.838 17.333 -200.505 52s-88.167 83.334 -109.5 146.001h-5l-2 -19l-16 -101l-93 -483h-179l319 1646c16.667 88 51.334 156.167 104.001 204.5s119.334 72.5 200.001 72.5c46.667 0 88.334 -7 125.001 -21l-29 -151
c-31.333 13.333 -57.666 20 -78.999 20c-42 0 -75.167 -16 -99.5 -48s-42.833 -80.333 -55.5 -145l-45 -228h2c50 63.333 101.833 108.666 155.5 135.999s118.5 41 194.5 41c104.667 0 186.167 -31.5 244.5 -94.5s87.5 -149.5 87.5 -259.5
c0 -135.333 -20.5 -266.5 -61.5 -393.5s-98.667 -221.167 -173 -282.5s-169.166 -92 -284.499 -92zM688.995 963c-66 0 -122.497 -13.5 -169.497 -40.5s-86.833 -67.667 -119.5 -122s-58.334 -122.333 -77.001 -204s-28 -154.834 -28 -219.501
c0 -83.333 21.167 -148.166 63.5 -194.499s101.166 -69.5 176.499 -69.5c81.333 0 145.666 24.167 192.999 72.5s85.333 127.333 114 237s43 207.5 43 293.5c0 82 -15.667 143.667 -47 185s-81 62 -149 62z" />
    <glyph glyph-name="uni01A6" unicode="&#x1a6;" horiz-adv-x="1366" 
d="M974 -319l-246.001 749.998h-391l-83 -431h-191l273 1409h187l-30 -154h375c140.667 0 253.834 -33.833 339.501 -101.5s128.5 -157.167 128.5 -268.5c0 -125.333 -36 -224.666 -108 -297.999s-178.333 -119.666 -319 -138.999l271 -767h-206zM776.999 581.998
c120.667 0 211.668 25.168 273.001 75.501s92 121.166 92 212.499c0 74.667 -24.833 132 -74.5 172s-123.834 60 -222.501 60h-377l-101 -520h410z" />
    <glyph glyph-name="uni01A7" unicode="&#x1a7;" horiz-adv-x="1366" 
d="M1147 1095c0 62 -26.001 109.335 -78.001 142.002s-126 49 -222 49c-103.333 0 -188.666 -19.833 -255.999 -59.5s-119.666 -102.5 -156.999 -188.5l-180 33c59.333 130 135.833 222.333 229.5 277s220.167 82 379.5 82c146.667 0 261.5 -28.833 344.5 -86.5
s124.5 -138.834 124.5 -243.501c0 -56 -8 -104.5 -24 -145.5s-38.167 -76.333 -66.5 -106s-62 -55 -101 -76s-81.5 -38.833 -127.5 -53.5s-130.667 -34 -254 -58l-107 -21c-136 -26.667 -233.167 -63.834 -291.5 -111.501s-87.5 -109.167 -87.5 -184.5
c0 -69.333 29.667 -122.5 89 -159.5s140 -55.5 242 -55.5c85.333 0 158.666 11 219.999 33s113.333 54.833 156 98.5s81.667 107.167 117 190.5l176 -47c-63.333 -152.667 -149.833 -261.5 -259.5 -326.5s-249.834 -97.5 -420.501 -97.5c-162 0 -287.5 31.5 -376.5 94.5
s-133.5 152.833 -133.5 269.5c0 58 8.83301 109 26.5 153s42 82 73 114s68 59.5 111 82.5s90.333 42.833 142 59.5s140.834 37.667 267.501 63c137.333 27.333 232.5 52.166 285.5 74.499s92.667 49.833 119 82.5s39.5 73.334 39.5 122.001z" />
    <glyph glyph-name="uni01A8" unicode="&#x1a8;" horiz-adv-x="1024" 
d="M579 962c-74 0 -131.332 -11.5 -171.999 -34.5s-71.334 -61.5 -92.001 -115.5l-150 48c52 162 194.667 243 428 243c118.667 0 210.167 -23.667 274.5 -71s96.5 -114 96.5 -200c0 -54 -12 -100 -36 -138s-62 -71.5 -114 -100.5s-134.667 -60.167 -248 -93.5
c-116.667 -34 -193.334 -60.167 -230.001 -78.5s-64 -39 -82 -62s-27 -51.5 -27 -85.5c0 -102 75.667 -153 227 -153c81.333 0 144.666 12.333 189.999 37s78.333 65 99 121l147 -56c-52 -162 -199 -243 -441 -243c-130 0 -230 24.5 -300 73.5s-105 120.833 -105 215.5
c0 59.333 13.833 110.333 41.5 153s69.834 79.667 126.501 111s146 64 268 98c80 21.333 141.833 41.333 185.5 60s74.834 38.5 93.501 59.5s28 48.5 28 82.5c0 42 -18 74 -54 96s-87.333 33 -154 33z" />
    <glyph glyph-name="uni01A9" unicode="&#x1a9;" horiz-adv-x="1228" 
d="M-6 0l33 171l651 581l-423 505l29 152h999l-30 -156h-790l384 -457l-24 -115l-589 -525h867l-31 -156h-1076z" />
    <glyph glyph-name="uni01AA" unicode="&#x1aa;" horiz-adv-x="682" 
d="M176 1279c0 64.667 22.499 116.501 67.499 155.501s103.167 58.5 174.5 58.5c72 0 126.833 -17.833 164.5 -53.5s56.5 -87.5 56.5 -155.5c0 -26.667 -4 -61 -12 -103l-255 -1305c-3.33301 -18.667 -5 -35.334 -5 -50.001c0 -62 31.667 -93 95 -93
c37.333 0 73.333 4.33301 108 13l-30 -158c-46 -8.66699 -90.667 -13 -134 -13c-68.667 0 -122.5 19.667 -161.5 59s-58.5 94 -58.5 164c0 26.667 3 56 9 88l247 1262c-30 -19.333 -65.667 -29 -107 -29c-49.333 0 -88.166 14.667 -116.499 44s-42.5 68 -42.5 116z
M383.999 1415c-36 0 -66.167 -12.667 -90.5 -38s-36.5 -56.333 -36.5 -93c0 -28 7.66699 -49.333 23 -64s37 -22 65 -22c37.333 0 68.5 12.333 93.5 37s37.5 55 37.5 91c0 28 -8 49.833 -24 65.5s-38.667 23.5 -68 23.5z" />
    <glyph glyph-name="uni01AB" unicode="&#x1ab;" horiz-adv-x="569" 
d="M130 -425c-43.333 0 -81.666 7 -114.999 21l29 153c31.333 -13.333 57.666 -20 78.999 -20c42 0 73.5 15.333 94.5 46s37.167 78.667 48.5 144l10 61h-1c-56.667 0 -101.167 17 -133.5 51s-48.5 79 -48.5 135c0 36.667 5 80 15 130l126 655h-125l26 131h127l105 242h120
l-47 -242h200l-26 -131h-200l-125 -645c-8 -40 -12 -71.667 -12 -95c0 -58.667 30 -88 90 -88c28 0 61.333 4.66699 100 14l-44 -294c-27.333 -178.667 -125 -268 -293 -268z" />
    <glyph glyph-name="uni01AC" unicode="&#x1ac;" horiz-adv-x="1251" 
d="M858 1253l-244 -1253h-190l244 1253h-202c-122.667 0 -184 -62 -184 -186l4 -50l-148 -17c-5.33301 19.333 -8 38.666 -8 57.999c0 113.333 30.167 200.166 90.5 260.499s147.833 90.5 262.5 90.5h889l-30 -156h-484z" />
    <glyph glyph-name="uni01AD" unicode="&#x1ad;" horiz-adv-x="569" 
d="M275 -20c-56.667 0 -101.167 17 -133.5 51s-48.5 79 -48.5 135c0 36.667 5 80 15 130l126 655h-125l26 131h126l28 137c17.333 86 51.166 154 101.499 204s117.166 75 200.499 75c46.667 0 88.334 -7 125.001 -21l-29 -151c-31.333 13.333 -57.666 20 -78.999 20
c-42 0 -75 -16.167 -99 -48.5s-42.667 -81.833 -56 -148.5l-13 -67h200l-26 -131h-200l-125 -645c-8 -40 -12 -71.667 -12 -95c0 -58.667 30 -88 90 -88c28 0 61.333 4.66699 100 14l-19 -133c-66 -16 -123.667 -24 -173 -24z" />
    <glyph glyph-name="uni01AE" unicode="&#x1ae;" horiz-adv-x="1251" 
d="M184 1253l29.999 156h1158l-30 -156h-484l-265 -1362c-5.33301 -26.667 -8 -50 -8 -70c0 -58 27 -87 81 -87c38.667 0 75.334 5.33301 110.001 16l-31 -158c-47.333 -11.333 -92.333 -17 -135 -17c-72 0 -126.833 18.5 -164.5 55.5s-56.5 88.5 -56.5 154.5
c0 25.333 4 58 12 98l267 1370h-484z" />
    <glyph glyph-name="Uhorn" unicode="&#x1af;" horiz-adv-x="1625" 
d="M654 -20c-154.667 0 -276.833 40.001 -366.5 120.001s-134.5 190.333 -134.5 331c0 59.333 7.66699 127.333 23 204l150 774h191l-162 -843c-11.333 -58 -17 -105.667 -17 -143c0 -90.667 29.167 -161.334 87.5 -212.001s139.833 -76 244.5 -76
c256 0 409.667 135.333 461 406l168 868h190l-78 -403c164 31.333 259.333 110 286 236h-88l35 167h195l-21 -101c-24 -118 -70 -208 -138 -270s-163.667 -103 -287 -123l-74 -385c-34 -179.333 -107 -315.833 -219 -409.5s-260.667 -140.5 -446 -140.5z" />
    <glyph glyph-name="uhorn" unicode="&#x1b0;" horiz-adv-x="1298" 
d="M415 1082l-125.998 -644.998c-12 -58.667 -18 -108.667 -18 -150c0 -111.333 59.667 -167 179 -167c84 0 158 32 222 96s106.667 150.667 128 260l118 606h180l-80 -410c66.667 18 123 47.833 169 89.5s75.667 92.834 89 153.501h-88l35 167h195l-21 -101
c-23.333 -112.667 -67.333 -201.834 -132 -267.501s-153 -110.5 -265 -134.5l-72 -367c-18 -90.667 -29.667 -161.334 -35 -212.001h-170c0 7.33301 3.5 33.166 10.5 77.499l17.5 107.5h-3c-55.333 -76.667 -110.833 -129.834 -166.5 -159.501
s-121.834 -44.5 -198.501 -44.5c-98.667 0 -172.834 24.333 -222.501 73s-74.5 119 -74.5 211c0 42.667 7 97.334 21 164.001l127 653h181z" />
    <glyph glyph-name="uni01B1" unicode="&#x1b1;" horiz-adv-x="1558" 
d="M720 -21c-120.667 0 -226.329 22.3281 -316.996 66.9951s-160.334 108.834 -209.001 192.501s-73 181.834 -73 294.501c0 181.333 48.833 333.833 146.5 457.5s239.167 214.834 424.5 273.501c-110 -7.33301 -181.667 -11 -215 -11h-254l30 156h589l-43 -224
c-160.667 -51.333 -282.334 -130.833 -365.001 -238.5s-124 -238.5 -124 -392.5c0 -132 36.5 -235.167 109.5 -309.5s175.5 -111.5 307.5 -111.5c101.333 0 192.666 23.333 273.999 70s144.5 113.167 189.5 199.5s67.5 188.166 67.5 305.499
c0 108.667 -21.5 201.5 -64.5 278.5s-112.167 143.167 -207.5 198.5l45 224h547l-30 -156h-203c-35.333 0 -114 3.66699 -236 11c108 -60 191.667 -140.167 251 -240.5s89 -212.166 89 -335.499c0 -137.333 -31 -260.166 -93 -368.499s-148.833 -192.166 -260.5 -251.499
s-236.834 -89 -375.501 -89z" />
    <glyph glyph-name="uni01B2" unicode="&#x1b2;" horiz-adv-x="1479" 
d="M614 -20c-91.333 0 -172.333 17.666 -243 52.999s-125.334 86.166 -164.001 152.499s-58 145.166 -58 236.499c0 50.667 5.66699 104.334 17 161.001l160 826h191l-165 -859c-8.66699 -43.333 -13 -85.333 -13 -126c0 -94 25.667 -165.667 77 -215s126 -74 224 -74
c84 0 160.667 25.833 230 77.5s129.333 128 180 229s92.167 219.5 124.5 355.5s48.5 235.333 48.5 298c0 111.333 -43 167 -129 167c-35.333 0 -70.333 -3.33301 -105 -10l23 157c42.667 7.33301 86.334 11 131.001 11c90 0 157.667 -27.167 203 -81.5
s68 -131.166 68 -230.499c0 -67.333 -16.667 -179.666 -50 -336.999s-83 -297 -149 -419s-150.167 -214.5 -252.5 -277.5s-218.5 -94.5 -348.5 -94.5z" />
    <glyph glyph-name="uni01B3" unicode="&#x1b3;" horiz-adv-x="1469" 
d="M1437 1421c85.333 0 162.997 -32 232.997 -96l-101 -133c-22.667 18 -45 33.5 -67 46.5s-47.333 19.5 -76 19.5c-25.333 0 -47.666 -5.5 -66.999 -16.5s-41 -31.167 -65 -60.5l-509 -597l-113 -584h-190l115 584l-384 825h196l306 -674l442 532
c50.667 60 96.834 100.667 138.501 122s88.834 32 141.501 32z" />
    <glyph glyph-name="uni01B4" unicode="&#x1b4;" horiz-adv-x="1024" 
d="M9 -425c-42 0 -83.666 4.66797 -124.999 14.001l31 134c24 -5.33301 51.333 -8 82 -8c57.333 0 110.166 20.167 158.499 60.5s97.5 104.166 147.5 191.499l26 45l-217 1070h183l112 -597l11 -65c17.333 -104 27.666 -178.333 30.999 -223l60 115l509 937
c44.667 82 92.834 143 144.501 183s115.834 60 192.501 60c83.333 0 156.666 -31 219.999 -93l-98 -128c-37.333 41.333 -79 62 -125 62c-64 0 -122.333 -45.667 -175 -137l-673 -1196c-93.333 -164.667 -175.333 -276.667 -246 -336s-153.667 -89 -249 -89z" />
    <glyph glyph-name="uni01B5" unicode="&#x1b5;" horiz-adv-x="1251" 
d="M114 814h510l417 439h-765l30 156h1002l-27 -139l-432 -456h391l-26 -133h-491l-496 -525h885l-30 -156h-1122l27 143l511 538h-410z" />
    <glyph glyph-name="uni01B6" unicode="&#x1b6;" horiz-adv-x="1024" 
d="M74 617h383l323 326h-601l27 139h824l-27 -137l-326 -328h301l-26 -133h-406l-342 -345h679l-27 -139h-900l27 137l344 347h-279z" />
    <glyph glyph-name="uni01B7" unicode="&#x1b7;" horiz-adv-x="1251" 
d="M1033 1253l-785.002 0.00292969l31 156h1018l-32 -161l-602 -490c148 -16.667 260.5 -67.334 337.5 -152.001s115.5 -197.334 115.5 -338.001c0 -94.667 -15.167 -185.334 -45.5 -272.001s-75.333 -162 -135 -226s-131.5 -112.667 -215.5 -146s-175.333 -50 -274 -50
c-136.667 0 -249.334 30.5 -338.001 91.5s-148.667 150.833 -180 269.5l168 59c29.333 -96 73.333 -165.167 132 -207.5s132.334 -63.5 221.001 -63.5c70 0 134.833 13.5 194.5 40.5s111.334 67.333 155.001 121s75.834 114.667 96.501 183s31 135.5 31 201.5
c0 113.333 -37.167 199.833 -111.5 259.5s-182.5 89.5 -324.5 89.5h-80l27 141z" />
    <glyph glyph-name="uni01B8" unicode="&#x1b8;" horiz-adv-x="1251" 
d="M846 618h-57.001c-191.333 0 -342.333 -50.833 -453 -152.5s-166 -239.5 -166 -413.5c0 -103.333 28.167 -184 84.5 -242s132.166 -87 227.499 -87c186.667 0 337.334 90.333 452.001 271l140 -83c-81.333 -124.667 -169 -212 -263 -262s-208.333 -75 -343 -75
c-148 0 -266.333 42.833 -355 128.5s-133 201.5 -133 347.5c0 130 28.333 246.5 85 349.5s137.334 185.5 242.001 247.5s225 99 361 111l-417 490l32 161h1018l-31 -156h-813l416 -494z" />
    <glyph glyph-name="uni01B9" unicode="&#x1b9;" horiz-adv-x="1024" 
d="M1033 942l-710.999 0.000976562l326 -394l-28 -137h-41c-86.667 0 -165.334 -17.333 -236.001 -52s-125.667 -83.667 -165 -147s-59 -135 -59 -215c0 -85.333 22.667 -153.833 68 -205.5s104.666 -77.5 177.999 -77.5c88 0 160 19.5 216 58.5s100 102.833 132 191.5
l166 -12c-76 -252.667 -251 -379 -525 -379c-84 0 -157.667 17.667 -221 53s-112.166 85 -146.499 149s-51.5 136 -51.5 216c0 143.333 44.833 264.666 134.5 363.999s213.5 161.333 371.5 186l-298 365l34 177h883z" />
    <glyph glyph-name="uni01BA" unicode="&#x1ba;" horiz-adv-x="1024" 
d="M896 -101c-96.667 -216.667 -288.333 -324.997 -575 -324.997c-75.333 0 -144 11.167 -206 33.5s-110.5 54.5 -145.5 96.5s-52.5 91 -52.5 147c0 44 8.33301 83 25 117s39.834 63.833 69.501 89.5s70.5 49.167 122.5 70.5s135.667 45 251 71
c93.333 20 159.5 37.5 198.5 52.5s69.167 32.333 90.5 52s32 43.5 32 71.5c0 34 -12.833 59.667 -38.5 77s-66.834 30.5 -123.501 39.5s-130 13.5 -220 13.5l27 139l414 298h-606l27 140h868l-23 -119l-465 -326c103.333 -10 182 -35.5 236 -76.5s81 -95.5 81 -163.5
c0 -100 -43.333 -176.667 -130 -230c-40 -24.667 -88.167 -44.334 -144.5 -59.001s-116.833 -29.667 -181.5 -45l-111.5 -27c-38.333 -9.33301 -73.333 -21.333 -105 -36s-57.5 -33.334 -77.5 -56.001s-30 -51.334 -30 -86.001c0 -44 20.5 -78.5 61.5 -103.5
s102.833 -37.5 185.5 -37.5c182.667 0 309 67 379 201z" />
    </font>
</defs>
</svg>
