<?xml version="1.0" standalone="no"?>
<!DOCTYPE svg PUBLIC "-//W3C//DTD SVG 1.1//EN" "http://www.w3.org/Graphics/SVG/1.1/DTD/svg11.dtd" >
<svg>
<metadata>
Created by FontForge 20090914 at Wed Nov 21 08:51:30 2012
 By www-data
Digitized data copyright (c) 2010 Google Corporation.
Copyright (c) 2012 Red Hat, Inc.
</metadata>
<defs>
<font id="LiberationMono" horiz-adv-x="1229" >
  <font-face 
    font-family="Liberation Mono"
    font-weight="400"
    font-stretch="normal"
    units-per-em="2048"
    panose-1="2 7 4 9 2 2 5 2 4 4"
    ascent="1638"
    descent="-410"
    x-height="1082"
    cap-height="1349"
    bbox="-987 -615.001 1521 2009"
    underline-thickness="84"
    underline-position="-435"
    unicode-range="U+0020-U+FE23"
  />
<missing-glyph 
d="M127 0v750h770v-750h-770zM768 621h-512v-492h512v492z" />
    <glyph glyph-name=".notdef" 
d="M127 0v750h770v-750h-770zM768 621h-512v-492h512v492z" />
    <glyph glyph-name="space" unicode=" " 
 />
    <glyph glyph-name="exclam" unicode="!" 
d="M689 397h-148l-24 951h196zM515 0v201h194v-201h-194z" />
    <glyph glyph-name="quotedbl" unicode="&#x22;" 
d="M908 845h-142l-40 639h224zM459 845h-141l-41 639h224z" />
    <glyph glyph-name="numbersign" unicode="#" 
d="M930 833l-67 -317h260v-108h-283l-88 -408h-110l86 408h-363l-84 -408h-110l84 408h-201v108h225l67 317h-241v108h263l89 408h110l-88 -408h363l88 408h110l-88 -408h211v-108h-233zM459 833l-69 -317h362l67 317h-360z" />
    <glyph glyph-name="dollar" unicode="$" 
d="M1150 380c0 -108 -39.998 -193.499 -119.998 -256.499s-194.667 -97.5 -344 -103.5v-161h-128v161c-281.333 9.33301 -445.333 129 -492 359l170 37c17.333 -84 52.666 -146.833 105.999 -188.5s125.333 -64.834 216 -69.501v489l-30 8
c-112 27.333 -194.167 57.166 -246.5 89.499s-90.666 71.166 -114.999 116.499s-36.5 99.333 -36.5 162c0 99.333 36.5 176.833 109.5 232.5s179.167 85.834 318.5 90.501v130h128v-130c124 -4.66699 219.667 -31.167 287 -79.5s116 -128.833 146 -241.5l-174 -33
c-14.667 70.667 -43.334 124 -86.001 160s-100.334 56.333 -173.001 61v-426c114.667 -28 197.667 -54 249 -78s92.333 -51.333 123 -82s53.667 -66.167 69 -106.5s23 -87.166 23 -140.499zM302.002 1018c0 -38 7.83301 -69.832 23.5 -95.499s38.5 -47 68.5 -64
s84.667 -35.833 164 -56.5v413c-84 -3.33301 -147.667 -21.833 -191 -55.5s-65 -80.834 -65 -141.501zM978.002 383.002c0 44 -9.16895 80.333 -27.502 109s-44.166 52.5 -77.499 71.5s-95.666 40.167 -186.999 63.5v-471c96 6 168.667 28.5 218 67.5s74 92.167 74 159.5z
" />
    <glyph glyph-name="percent" unicode="%" 
d="M221 0h-145l932 1353h147zM291 1361c188.667 0 282.999 -111.999 282.999 -335.999c0 -111.333 -24.333 -196 -73 -254s-120 -87 -214 -87s-165.333 28.667 -214 86s-73 142.333 -73 255c0 111.333 23.333 195.166 70 251.499s120.334 84.5 221.001 84.5zM426.999 1025
c0 79.333 -10.499 137.165 -31.499 173.498s-56.167 54.5 -105.5 54.5c-51.333 0 -88 -17.667 -110 -53s-33 -93.666 -33 -174.999c0 -77.333 11 -134.666 33 -171.999s58.333 -56 109 -56c47.333 0 82.166 18.5 104.499 55.5s33.5 94.5 33.5 172.5zM947 665
c188.667 0 282.999 -111.999 282.999 -335.999c0 -111.333 -24.333 -196 -73 -254s-120 -87 -214 -87s-165.333 28.667 -214 86s-73 142.333 -73 255c0 111.333 23.333 195.166 70 251.499s120.334 84.5 221.001 84.5zM1083 329.001
c0 79.333 -10.499 137.165 -31.499 173.498s-56.167 54.5 -105.5 54.5c-51.333 0 -88 -17.667 -110 -53s-33 -93.666 -33 -174.999c0 -77.333 11 -134.666 33 -171.999s58.333 -56 109 -56c47.333 0 82.166 18.5 104.499 55.5s33.5 94.5 33.5 172.5z" />
    <glyph glyph-name="ampersand" unicode="&#x26;" 
d="M1072 -12c-48.667 0 -96.5029 11.667 -143.503 35s-87.167 54.666 -120.5 93.999c-102 -91.333 -217.667 -137 -347 -137c-132.667 0 -235.5 33.333 -308.5 100s-109.5 159.334 -109.5 278.001c0 178.667 97.333 318.334 292 419.001
c-21.333 40 -39.166 85.5 -53.499 136.5s-21.5 99.5 -21.5 145.5c0 90.667 30.833 163 92.5 217s147.834 81 258.501 81c97.333 0 175.166 -24 233.499 -72s87.5 -113 87.5 -195c0 -50 -13.167 -94.5 -39.5 -133.5s-64.333 -75.333 -114 -109s-134.167 -75.5 -253.5 -125.5
c88 -154 180.333 -283.667 277 -389c58.667 121.333 100.334 256.666 125.001 405.999l145 -43c-29.333 -157.333 -83.333 -311.333 -162 -462c28.667 -36 59.167 -62.5 91.5 -79.5s61.833 -25.5 88.5 -25.5c38.667 0 70.334 5.33301 95.001 16v-135
c-32 -14.667 -69.667 -22 -113 -22zM779.997 1085c0 46.667 -16 83.501 -48 110.501s-73.333 40.5 -124 40.5c-59.333 0 -107.5 -16.333 -144.5 -49s-55.5 -76.334 -55.5 -131.001c0 -73.333 20.333 -148 61 -224c107.333 45.333 177.333 78.5 210 99.5s57.667 44 75 69
s26 53.167 26 84.5zM705.997 217.001c-120 135.333 -225.334 282.334 -316.001 441.001c-119.333 -64.667 -179 -163.334 -179 -296.001c0 -76.667 23 -137.667 69 -183s109 -68 189 -68c42.667 0 84.834 9.16699 126.501 27.5s78.5 44.5 110.5 78.5z" />
    <glyph glyph-name="quotesingle" unicode="'" 
d="M684 845h-141l-41 639h224z" />
    <glyph glyph-name="parenleft" unicode="(" 
d="M529 530c0 -183.333 28.333 -349.001 85 -497.001s149 -300.667 277 -458h-190c-128 157.333 -219.833 309.833 -275.5 457.5s-83.5 314.167 -83.5 499.5c0 182 27.333 346.167 82 492.5s147 299.5 277 459.5h190c-128 -157.333 -220.333 -310.166 -277 -458.499
s-85 -313.5 -85 -495.5z" />
    <glyph glyph-name="parenright" unicode=")" 
d="M885 532c0 -186.667 -27.5 -353.499 -82.5 -500.499s-146.5 -299.167 -274.5 -456.5h-192c130.667 160.667 224 315.167 280 463.5s84 312.166 84 491.499c0 178.667 -28 342.167 -84 490.5s-149.333 302.833 -280 463.5h192c130 -160 222 -312.667 276 -458
s81 -310 81 -494z" />
    <glyph glyph-name="asterisk" unicode="*" 
d="M671 1188l264 103l45 -132l-282 -73l185 -250l-119 -72l-150 258l-156 -256l-119 72l189 248l-280 73l45 134l267 -107l-12 297h136z" />
    <glyph glyph-name="plus" unicode="+" 
d="M687 608v-428h-147v428h-424v146h424v428h147v-428h424v-146h-424z" />
    <glyph glyph-name="comma" unicode="," 
d="M259 -363l169 662h265l-311 -662h-123z" />
    <glyph glyph-name="hyphen" unicode="-" 
d="M334 464v160h560v-160h-560z" />
    <glyph glyph-name="period" unicode="." 
d="M496 0v299h235v-299h-235z" />
    <glyph glyph-name="slash" unicode="/" 
d="M114 -20l821 1504h178l-817 -1504h-182z" />
    <glyph glyph-name="zero" unicode="0" 
d="M1103 675c0 -225.333 -41.5 -397.5 -124.5 -516.5s-205.5 -178.5 -367.5 -178.5s-283.667 59.167 -365 177.5s-122 290.833 -122 517.5c0 232.667 39.667 406.667 119 522s204 173 374 173c166 0 288.5 -58.167 367.5 -174.5s118.5 -289.833 118.5 -520.5zM920 675
c0 193.333 -23.5 333.166 -70.5 419.499s-124.5 129.5 -232.5 129.5c-110.667 0 -190.167 -42.667 -238.5 -128s-72.5 -225.666 -72.5 -420.999c0 -190 24.5 -328.833 73.5 -416.5s126.833 -131.5 233.5 -131.5c106 0 183.667 45 233 135s74 227.667 74 413zM496 555v249
h235v-249h-235z" />
    <glyph glyph-name="one" unicode="1" 
d="M157 0l-0.00292969 145h439v1021c-24.667 -52 -83.167 -97.333 -175.5 -136s-183.166 -58 -272.499 -58v148c98.667 0 191.834 21.667 279.501 65s148.834 98 183.501 164h166v-1204h353v-145h-973z" />
    <glyph glyph-name="two" unicode="2" 
d="M144 0l0.00292969 116.999c32.667 72.667 83.5 145.834 152.5 219.501s162.833 157.834 281.5 252.501c106 84.667 182.333 158.334 229 221.001s70 123 70 181c0 74 -23 131 -69 171s-111.667 60 -197 60c-76 0 -137.5 -20.833 -184.5 -62.5
s-74.833 -100.167 -83.5 -175.5l-184 17c13.333 113.333 59.666 203.166 138.999 269.499s183.666 99.5 312.999 99.5c142 0 252.667 -32 332 -96s119 -154.667 119 -272c0 -76.667 -25.333 -153.167 -76 -229.5s-126.334 -154.5 -227.001 -234.5
c-137.333 -109.333 -232.5 -189.833 -285.5 -241.5s-90.5 -101.834 -112.5 -150.501h723v-146h-940z" />
    <glyph glyph-name="three" unicode="3" 
d="M1099 370c0 -124 -42 -220.001 -126 -288.001s-201.333 -102 -352 -102c-142.667 0 -256.667 32.333 -342 97s-135.666 159.667 -150.999 285l186 17c24 -166.667 126.333 -250 307 -250c90.667 0 161.834 21 213.501 63s77.5 103.333 77.5 184
c0 50 -15.167 92.167 -45.5 126.5s-71.5 60.666 -123.5 78.999s-110.333 27.5 -175 27.5h-102v156h98c57.333 0 109.833 9.5 157.5 28.5s85.167 45.833 112.5 80.5s41 75.667 41 123c0 70.667 -22.167 125.834 -66.5 165.501s-110.166 59.5 -197.499 59.5
c-79.333 0 -143.5 -20.333 -192.5 -61s-77.5 -98 -85.5 -172l-181 14c13.333 115.333 61.166 205.333 143.499 270s188.166 97 317.499 97c141.333 0 251.166 -31.167 329.499 -93.5s117.5 -149.166 117.5 -260.499c0 -79.333 -26.333 -148.333 -79 -207
s-124.667 -97.334 -216 -116.001v-4c100.667 -11.333 181.5 -46.666 242.5 -105.999s91.5 -130.333 91.5 -213z" />
    <glyph glyph-name="four" unicode="4" 
d="M937 319v-319h-180v319h-654v140l635 890h199v-888h188v-142h-188zM757 1154l-500 -693h500v693z" />
    <glyph glyph-name="five" unicode="5" 
d="M1099 444c0 -92.667 -19.667 -174.001 -59 -244.001s-96.833 -124.167 -172.5 -162.5s-165.167 -57.5 -268.5 -57.5c-131.333 0 -237.333 28.667 -318 86s-131.667 140.333 -153 249l182 21c38 -139.333 135.667 -209 293 -209c94 0 169 28 225 84s84 132.333 84 229
c0 82.667 -27.667 150.334 -83 203.001s-129.333 79 -222 79c-48.667 0 -94 -7.66699 -136 -23s-84 -41.333 -126 -78h-176l47 728h801v-145h-635l-29 -425c78 60 175 90 291 90c136 0 245.833 -39.167 329.5 -117.5s125.5 -180.833 125.5 -307.5z" />
    <glyph glyph-name="six" unicode="6" 
d="M1096 446c0 -141.333 -40.501 -254.334 -121.501 -339.001s-192.167 -127 -333.5 -127c-157.333 0 -278.333 57.5 -363 172.5s-127 278.167 -127 489.5c0 232 44 411.333 132 538s212 190 372 190c212.667 0 346.667 -95.667 402 -287l-172 -31
c-35.333 114.667 -112.666 172 -231.999 172c-102 0 -181.333 -46.333 -238 -139s-85 -222.667 -85 -390c32.667 60.667 78.667 106.834 138 138.501s127.333 47.5 204 47.5c128 0 230.667 -39.5 308 -118.5s116 -184.5 116 -316.5zM912.999 437.999
c0 96 -25.5 170.667 -76.5 224s-120.167 80 -207.5 80c-49.333 0 -96 -11.167 -140 -33.5s-78.5 -53.333 -103.5 -93s-37.5 -84.5 -37.5 -134.5c0 -101.333 26.833 -186 80.5 -254s122.5 -102 206.5 -102c84.667 0 152.167 28 202.5 84s75.5 132.333 75.5 229z" />
    <glyph glyph-name="seven" unicode="7" 
d="M1069 1210c-315.333 -453.333 -473 -856.667 -473 -1210h-188c0 175.333 40.833 364.5 122.5 567.5s203.167 415.167 364.5 636.5h-737v145h911v-139z" />
    <glyph glyph-name="eight" unicode="8" 
d="M1094 378c0 -122.667 -41.5 -219.664 -124.5 -290.997s-201.5 -107 -355.5 -107c-150.667 0 -268.5 35 -353.5 105s-127.5 167 -127.5 291c0 86 26.333 159.167 79 219.5s120 97.5 202 111.5v4c-74.667 18 -134.667 56 -180 114s-68 124.333 -68 199
c0 65.333 18.5 124.666 55.5 177.999s89.167 94.666 156.5 123.999s144.666 44 231.999 44c91.333 0 171 -14.833 239 -44.5s120 -70.834 156 -123.501s54 -112.667 54 -180c0 -75.333 -23 -142 -69 -200s-106.333 -94.333 -181 -109v-4
c86.667 -14 155.834 -50.5 207.501 -109.5s77.5 -132.833 77.5 -221.5zM872 1012c0 74 -22.5 129.833 -67.5 167.5s-109.833 56.5 -194.5 56.5c-82 0 -145.833 -19 -191.5 -57s-68.5 -93.667 -68.5 -167c0 -74 23 -131.333 69 -172s110.333 -61 193 -61
c173.333 0 260 77.667 260 233zM907 395.003c0 80 -25.998 141.5 -77.998 184.5s-125 64.5 -219 64.5c-90.667 0 -161.834 -23.167 -213.501 -69.5s-77.5 -107.5 -77.5 -183.5c0 -90 25.167 -158.5 75.5 -205.5s124.166 -70.5 221.499 -70.5c98 0 171 23 219 69
s72 116.333 72 211z" />
    <glyph glyph-name="nine" unicode="9" 
d="M1087 703c0 -230.667 -44.332 -408.831 -132.999 -534.498s-214.334 -188.5 -377.001 -188.5c-110 0 -198.167 23.167 -264.5 69.5s-113.833 121.166 -142.5 224.499l172 27c36 -117.333 115.333 -176 238 -176c102.667 0 182.834 46.5 240.501 139.5
s87.167 221.5 88.5 385.5c-26.667 -60 -72.334 -108.167 -137.001 -144.5s-135.667 -54.5 -213 -54.5c-126 0 -227.167 42.5 -303.5 127.5s-114.5 195.833 -114.5 332.5c0 141.333 41.833 253.166 125.5 335.499s198.167 123.5 343.5 123.5c318 0 477 -222.333 477 -667z
M891.001 862.003c0 107.333 -26.667 194.499 -80 261.499s-122.333 100.5 -207 100.5c-86.667 0 -155 -29 -205 -87s-75 -133.333 -75 -226c0 -95.333 25 -172.166 75 -230.499s117.667 -87.5 203 -87.5c50.667 0 98.5 11.5 143.5 34.5s80.5 55 106.5 96s39 87.167 39 138.5
z" />
    <glyph glyph-name="colon" unicode=":" 
d="M496 0v299h235v-299h-235zM496 783v299h235v-299h-235z" />
    <glyph glyph-name="semicolon" unicode=";" 
d="M496 783v299h235v-299h-235zM352 -363l169 662h265l-311 -662h-123z" />
    <glyph glyph-name="less" unicode="&#x3c;" 
d="M116 571v205l995 418v-154l-858 -366l858 -367v-153z" />
    <glyph glyph-name="equal" unicode="=" 
d="M116 856v148h995v-148h-995zM116 344v148h995v-148h-995z" />
    <glyph glyph-name="greater" unicode="&#x3e;" 
d="M116 154v153l858 367l-858 366v154l995 -418v-205z" />
    <glyph glyph-name="question" unicode="?" 
d="M1073 1002c0 -48.667 -7.32812 -91.998 -21.9951 -129.998s-35.834 -73.167 -63.501 -105.5s-72.167 -70.5 -133.5 -114.5c-73.333 -53.333 -121.833 -92.333 -145.5 -117s-42.334 -51.334 -56.001 -80.001s-20.834 -61.334 -21.501 -98.001h-175
c1.33301 46.667 9.5 88.5 24.5 125.5s35.667 71 62 102s71.166 70.167 134.499 117.5c71.333 52 118.166 90.333 140.499 115s40.166 51.167 53.499 79.5s20 60.833 20 97.5c0 72.667 -26.5 128.5 -79.5 167.5s-124.833 58.5 -215.5 58.5c-90 0 -163.167 -24.333 -219.5 -73
s-89.166 -115 -98.499 -199l-184 12c17.333 131.333 70.5 232.5 159.5 303.5s202.5 106.5 340.5 106.5c148.667 0 265.667 -32.167 351 -96.5s128 -154.833 128 -271.5zM448.005 0.00195312v201h195v-201h-195z" />
    <glyph glyph-name="at" unicode="@" 
d="M1189 755c0 -198.667 -27.4961 -356.836 -82.4961 -474.503s-129.167 -176.5 -222.5 -176.5c-95.333 0 -143 52.333 -143 157v8l2 30h-6c-22.667 -58.667 -54.5 -105.834 -95.5 -141.501s-87.5 -53.5 -139.5 -53.5c-70.667 0 -125.834 33.333 -165.501 100
s-59.5 161.667 -59.5 285c0 107.333 16.167 208.666 48.5 303.999s76.333 170.5 132 225.5s117.834 82.5 186.501 82.5c47.333 0 86.166 -13.833 116.499 -41.5s52.833 -71.5 67.5 -131.5h5l32 151h116l-99 -507c-26.667 -140 -40 -232.667 -40 -278
c0 -58.667 16.333 -88 49 -88c52 0 94.5 49.667 127.5 149s49.5 232 49.5 398c0 182.667 -36.333 330.834 -109 444.501s-169 170.5 -289 170.5c-98.667 0 -186 -35.833 -262 -107.5s-134.667 -172.5 -176 -302.5s-62 -278 -62 -444c0 -206 38.667 -370.667 116 -494
s183.333 -185 318 -185c62.667 0 123 11.667 181 35s120.667 64.333 188 123l71 -87c-76.667 -66 -151 -114 -223 -144s-147.667 -45 -227 -45c-110 0 -206.833 32.333 -290.5 97s-147.834 157.834 -192.501 279.501s-67 261.834 -67 420.501
c0 190.667 25.667 359.834 77 507.501s124.666 261.667 219.999 342s205.666 120.5 330.999 120.5c105.333 0 196.833 -30.167 274.5 -90.5s137.5 -145.666 179.5 -255.999s63 -237.833 63 -382.5zM775.004 783.998c0 70.667 -11.667 124.166 -35 160.499
s-54.666 54.5 -93.999 54.5c-42 0 -80.667 -22.167 -116 -66.5s-63.833 -107 -85.5 -188s-32.5 -165.5 -32.5 -253.5c0 -187.333 38 -281 114 -281c49.333 0 93.666 31.667 132.999 95s68.5 147.333 87.5 252s28.5 180.334 28.5 227.001z" />
    <glyph glyph-name="A" unicode="A" 
d="M1034 0l-138 382h-563l-137 -382h-196l510 1349h217l501 -1349h-194zM616 1205l-12 -39l-69 -212l-151 -423h463l-173 500z" />
    <glyph glyph-name="B" unicode="B" 
d="M1152 380c0 -120 -45.667 -213.332 -137 -279.999s-218.333 -100 -381 -100h-472v1349h412c330.667 0 496 -109 496 -327c0 -81.333 -24 -149.333 -72 -204s-113.333 -90.334 -196 -107.001c111.333 -12 197.5 -47.667 258.5 -107s91.5 -134 91.5 -224zM878 998.001
c0 71.333 -25.167 122.167 -75.5 152.5s-125.833 45.5 -226.5 45.5h-223v-416h225c200 0 300 72.667 300 218zM959 397.002c0 76 -29.668 134 -89.001 174s-147.666 60 -264.999 60h-252v-478h266c116.667 0 202.5 20.167 257.5 60.5s82.5 101.5 82.5 183.5z" />
    <glyph glyph-name="C" unicode="C" 
d="M314 681c0 -182 28.499 -318.501 85.499 -409.501s144.167 -136.5 261.5 -136.5c67.333 0 128.333 22.833 183 68.5s101 116.834 139 213.501l159 -65c-99.333 -248 -260.333 -372 -483 -372c-175.333 0 -310.166 60.333 -404.499 181s-141.5 294 -141.5 520
c0 459.333 178.667 689 536 689c226 0 381.333 -111.667 466 -335l-168 -65c-24.667 75.333 -63.167 134.833 -115.5 178.5s-112.833 65.5 -181.5 65.5c-114 0 -198.5 -43 -253.5 -129s-82.5 -220.667 -82.5 -404z" />
    <glyph glyph-name="D" unicode="D" 
d="M1125 688c0 -220.667 -51.167 -390.5 -153.5 -509.5s-248.833 -178.5 -439.5 -178.5h-370v1349h311c219.333 0 382.833 -54.833 490.5 -164.5s161.5 -275.167 161.5 -496.5zM933 688c0 176 -36.668 304.167 -110.001 384.5s-189.666 120.5 -348.999 120.5h-121v-1037h162
c141.333 0 246.333 44.333 315 133s103 221.667 103 399z" />
    <glyph glyph-name="E" unicode="E" 
d="M162 0v1349h919v-156h-728v-422h668v-154h-668v-461h769v-156h-960z" />
    <glyph glyph-name="F" unicode="F" 
d="M385 1193v-494h676v-158h-676v-541h-191v1349h891v-156h-700z" />
    <glyph glyph-name="G" unicode="G" 
d="M1101 133c-152.667 -102 -306.668 -153 -462.001 -153c-166.667 0 -296 61.833 -388 185.5s-138 295.5 -138 515.5c0 231.333 44 404 132 518s220.333 171 397 171c230.667 0 384.334 -110.333 461.001 -331l-171 -56c-53.333 154 -149.333 231 -288 231
c-112.667 0 -195.834 -42 -249.501 -126s-80.5 -219.667 -80.5 -407c0 -364 113.667 -546 341 -546c45.333 0 92.333 7 141 21s88.334 31.667 119.001 53v336h-293v160h479v-572z" />
    <glyph glyph-name="H" unicode="H" 
d="M875 0v623h-522v-623h-191v1349h191v-566h522v566h191v-1349h-191z" />
    <glyph glyph-name="I" unicode="I" 
d="M202 1349h823v-156h-316v-1037h316v-156h-823v156h316v1037h-316v156z" />
    <glyph glyph-name="J" unicode="J" 
d="M986 420c0 -139.333 -35 -247.499 -105 -324.499s-168.333 -115.5 -295 -115.5c-114 0 -205 29.667 -273 89s-113.667 153 -137 281l187 31c12 -78.667 37.5 -139.334 76.5 -182.001s88.167 -64 147.5 -64c139.333 0 209 93.667 209 281v777h-311v156h501v-929z" />
    <glyph glyph-name="K" unicode="K" 
d="M1003 0l-487 638l-163 -169v-469h-191v1349h191v-673l572 673h225l-504 -572l581 -777h-224z" />
    <glyph glyph-name="L" unicode="L" 
d="M237 0v1349h191v-1193h672v-156h-863z" />
    <glyph glyph-name="M" unicode="M" 
d="M937 0l0.000976562 868c0 90 1 157 3 201l3 100c-42.667 -137.333 -74.334 -234.333 -95.001 -291l-164 -438h-137l-166 438c-12 30.667 -44 127.667 -96 291l4 -301v-868h-160v1349h237l185 -489c14 -35.333 36.667 -112.333 68 -231l26 90l44 140l185 490h225v-1349
h-162z" />
    <glyph glyph-name="N" unicode="N" 
d="M836 0l-520 1130c10.667 -114.667 16 -199.334 16 -254.001v-876h-170v1349h222l528 -1138c-12 96 -18 187.333 -18 274v864h172v-1349h-230z" />
    <glyph glyph-name="O" unicode="O" 
d="M1126 681c0 -224.667 -44.1689 -397.667 -132.502 -519s-215.166 -182 -380.499 -182c-166 0 -292.667 59.667 -380 179s-131 293.333 -131 522c0 224.667 43.333 395.667 130 513s214.334 176 383.001 176c164.667 0 291 -57.833 379 -173.5s132 -287.5 132 -515.5z
M924.998 681c0 355.333 -103.333 533.001 -310 533.001c-208 0 -312 -177.667 -312 -533c0 -180 26.333 -316 79 -408s130 -138 232 -138c108.667 0 187.667 46.667 237 140s74 228.666 74 405.999z" />
    <glyph glyph-name="P" unicode="P" 
d="M1119 945c0 -83.333 -19.8311 -157.667 -59.498 -223s-96.334 -116.333 -170.001 -153s-158.834 -55 -255.501 -55h-281v-514h-191v1349h460c158.667 0 281.167 -35.5 367.5 -106.5s129.5 -170.167 129.5 -297.5zM927.002 941.999c0 169.333 -109.333 254 -328 254h-246
v-531h254c99.333 0 177.5 24.333 234.5 73s85.5 116.667 85.5 204z" />
    <glyph glyph-name="Q" unicode="Q" 
d="M1126 681c0 -193.333 -32.834 -348.499 -98.501 -465.499s-159.5 -190.167 -281.5 -219.5c27.333 -84 63.333 -145 108 -183s100.667 -57 168 -57c36.667 0 75 4.33301 115 13v-134c-62 -14.667 -121.333 -22 -178 -22c-100 0 -182.5 28.167 -247.5 84.5
s-118.5 151.833 -160.5 286.5c-146 14.667 -257.333 81.167 -334 199.5s-115 284.166 -115 497.499c0 224.667 43.333 395.667 130 513s214.334 176 383.001 176c164.667 0 291 -57.833 379 -173.5s132 -287.5 132 -515.5zM924.999 681.001
c0 355.333 -103.333 533.001 -310 533.001c-208 0 -312 -177.667 -312 -533c0 -180 26.333 -316 79 -408s130 -138 232 -138c108.667 0 187.667 46.667 237 140s74 228.666 74 405.999z" />
    <glyph glyph-name="R" unicode="R" 
d="M957 0l-365.999 575h-238v-575h-191v1349h482c155.333 0 273.666 -32.167 354.999 -96.5s122 -156.5 122 -276.5c0 -99.333 -31.167 -183 -93.5 -251s-145.833 -110.667 -250.5 -128l400 -597h-220zM929.001 973c0 148.667 -101.333 223 -304 223h-272v-470h280
c95.333 0 168.5 21.333 219.5 64s76.5 103.667 76.5 183z" />
    <glyph glyph-name="S" unicode="S" 
d="M1128 370c0 -122.667 -44.8369 -218.335 -134.504 -287.002s-217.5 -103 -383.5 -103c-304.667 0 -481.667 119.333 -531 358l185 37c18.667 -86 57.334 -148.5 116.001 -187.5s137 -58.5 235 -58.5c106 0 186.5 20.667 241.5 62s82.5 100 82.5 176
c0 46.667 -10.833 84.667 -32.5 114s-50.167 53.333 -85.5 72s-75.166 33.834 -119.499 45.501l-134.5 34.5c-107.333 28 -183.833 53 -229.5 75s-82.167 47.167 -109.5 75.5s-48 60.833 -62 97.5s-21 79.667 -21 129c0 115.333 40.5 204.166 121.5 266.499
s197.167 93.5 348.5 93.5c141.333 0 249.333 -24.667 324 -74s126.667 -132.666 156 -249.999l-188 -33c-16 74.667 -48 128.834 -96 162.501s-113.667 50.5 -197 50.5c-188.667 0 -283 -71 -283 -213c0 -40 8.83301 -72.5 26.5 -97.5s41.667 -45.667 72 -62
s65.666 -29.833 105.999 -40.5l129.5 -34c92.667 -23.333 159.334 -42.833 200.001 -58.5s76.834 -33.5 108.501 -53.5s58.834 -43.667 81.501 -71s40.5 -59.333 53.5 -96s19.5 -80 19.5 -130z" />
    <glyph glyph-name="T" unicode="T" 
d="M709 1193v-1193h-190v1193h-443v156h1076v-156h-443z" />
    <glyph glyph-name="U" unicode="U" 
d="M1085 490c0 -178 -37.999 -307.499 -113.999 -388.499s-198 -121.5 -366 -121.5c-162.667 0 -280.5 39.167 -353.5 117.5s-109.5 203.166 -109.5 374.499v877h191v-851c0 -136 19.5 -230.5 58.5 -283.5s109.833 -79.5 212.5 -79.5c107.333 0 182.666 27.333 225.999 82
s65 152.667 65 294v838h190v-859z" />
    <glyph glyph-name="V" unicode="V" 
d="M713 0h-198l-505 1349h201l320 -902c20.667 -57.333 48.667 -150.333 84 -279c26.667 99.333 54.667 192.333 84 279l318 902h201z" />
    <glyph glyph-name="W" unicode="W" 
d="M1018 0h-207.999l-112.5 420c-25.667 96 -52.834 208 -81.501 336l-53.5 -226c-16.333 -67.333 -64.166 -244 -143.499 -530h-208l-211 1349h189l109 -835c10.667 -87.333 21.667 -202.666 33 -345.999l53.5 228c14.333 60 62.166 238.333 143.499 535h175l108.5 -398
c26.333 -96.667 55.833 -218.334 88.5 -365.001l35 346l104 835h189z" />
    <glyph glyph-name="X" unicode="X" 
d="M614 836l333 513h205l-435 -644l476 -705h-205l-374 573l-373 -573h-205l476 705l-435 644h205z" />
    <glyph glyph-name="Y" unicode="Y" 
d="M708 584v-584h-188v584l-484 765h205l374 -611l372 611h205z" />
    <glyph glyph-name="Z" unicode="Z" 
d="M1155 0h-1082v143l818 1050h-745v156h962v-139l-818 -1054h865v-156z" />
    <glyph glyph-name="bracketleft" unicode="[" 
d="M410 -425v1909h547v-139h-367v-1631h367v-139h-547z" />
    <glyph glyph-name="backslash" unicode="\" 
d="M932 -20l-817 1504h178l821 -1504h-182z" />
    <glyph glyph-name="bracketright" unicode="]" 
d="M270 -425v139h367v1631h-367v139h547v-1909h-547z" />
    <glyph glyph-name="asciicircum" unicode="^" 
d="M940 442l-329 803l-326 -803h-152l378 907h203l380 -907h-154z" />
    <glyph glyph-name="underscore" unicode="_" 
d="M-5 -220v96h1238v-96h-1238z" />
    <glyph glyph-name="grave" unicode="`" 
d="M702 1201l-300 230v29h197l227 -239v-20h-124z" />
    <glyph glyph-name="a" unicode="a" 
d="M1101 111c17.333 0 36.999 2.33398 58.999 7.00098v-112c-45.333 -10.667 -91.666 -16 -138.999 -16c-66.667 0 -115.167 17.5 -145.5 52.5s-47.5 89.833 -51.5 164.5h-6c-43.333 -80.667 -94.5 -138.667 -153.5 -174s-131.833 -53 -218.5 -53
c-105.333 0 -184.666 28.667 -237.999 86s-80 136 -80 236c0 232.667 151.333 350.667 454 354l236 4v59c0 87.333 -17.667 150.166 -53 188.499s-91.666 57.5 -168.999 57.5c-78.667 0 -135.334 -14 -170.001 -42s-55.334 -71.333 -62.001 -130l-188 17
c30.667 194.667 171.667 292 423 292c133.333 0 233.5 -31.167 300.5 -93.5s100.5 -152.5 100.5 -270.5v-466c0 -53.333 7 -93.5 21 -120.5s40.667 -40.5 80 -40.5zM491.999 117.001c64 0 120.668 15.333 170.001 46s87.666 71.667 114.999 123s41 104.333 41 159v89
l-190 -4c-78.667 -1.33301 -138.667 -10 -180 -26s-73.5 -40.5 -96.5 -73.5s-34.5 -76.833 -34.5 -131.5s14.833 -98.667 44.5 -132s73.167 -50 130.5 -50z" />
    <glyph glyph-name="b" unicode="b" 
d="M1090 546c0 -189.333 -33.834 -331.001 -101.501 -425.001s-164.5 -141 -290.5 -141c-162.667 0 -274 61.333 -334 184h-2c0 -32 -1.16699 -65.333 -3.5 -100s-4.16602 -56 -5.49902 -64h-174c4 36 6 110.333 6 223v1261h180v-423
c0 -43.333 -1.33301 -95.666 -4 -156.999h4c60.667 133.333 172 200 334 200c260.667 0 391 -186 391 -558zM903.999 539.999c0 149.333 -20.501 257.499 -61.501 324.499s-105.167 100.5 -192.5 100.5c-99.333 0 -171.666 -36.5 -216.999 -109.5s-68 -183.5 -68 -331.5
c0 -139.333 22 -242.666 66 -309.999s116.333 -101 217 -101c90 0 155.167 34.833 195.5 104.5s60.5 177.167 60.5 322.5z" />
    <glyph glyph-name="c" unicode="c" 
d="M130 542c0 180 43.002 318.333 129.002 415s210.333 145 373 145c121.333 0 221.333 -29.167 300 -87.5s127.334 -136.833 146.001 -235.5l-192 -14c-10.667 60.667 -37.334 108.5 -80.001 143.5s-103.334 52.5 -182.001 52.5c-105.333 0 -182.5 -32.667 -231.5 -98
s-73.5 -171 -73.5 -317c0 -148 24.5 -256.167 73.5 -324.5s125.833 -102.5 230.5 -102.5c72 0 131.667 17.667 179 53s76.666 89.333 87.999 162l190 -12c-8.66699 -64 -32.834 -122.167 -72.501 -174.5s-92.167 -93.333 -157.5 -123s-138.333 -44.5 -219 -44.5
c-163.333 0 -287.666 48 -372.999 144s-128 235.333 -128 418z" />
    <glyph glyph-name="d" unicode="d" 
d="M862 174c-32.667 -70 -76 -120.835 -130 -152.502s-121.333 -47.5 -202 -47.5c-134.667 0 -233.667 46.333 -297 139s-95 232.334 -95 419.001c0 377.333 130.667 566 392 566c80.667 0 148.167 -14.333 202.5 -43s97.833 -75.667 130.5 -141h2l-2 151v419h180v-1261
c0 -112.667 2 -187 6 -223h-172c-2.66699 10 -5 34.333 -7 73s-3 72.334 -3 101.001h-5zM324 537.998c0 -148 19.833 -255.831 59.5 -323.498s104.167 -101.5 193.5 -101.5c97.333 0 169.333 35.167 216 105.5s70 182.166 70 335.499c0 143.333 -22.5 247.666 -67.5 312.999
s-117.167 98 -216.5 98c-90 0 -155 -34.333 -195 -103s-60 -176.667 -60 -324z" />
    <glyph glyph-name="e" unicode="e" 
d="M322 503c0 -121.333 26.8301 -216.333 80.4971 -285s127.167 -103 220.5 -103c68.667 0 128.834 14.833 180.501 44.5s86.167 70.167 103.5 121.5l158 -45c-29.333 -82.667 -83.166 -146 -161.499 -190s-171.833 -66 -280.5 -66c-157.333 0 -278.333 49 -363 147
s-127 238.333 -127 421c0 178 41.5 314.833 124.5 410.5s202.833 143.5 359.5 143.5s275.334 -47.667 356.001 -143s121 -239.333 121 -432v-24h-772zM618.997 969c-89.333 0 -160 -29.167 -212 -87.5s-79.667 -138.5 -83 -240.5h584c-18.667 218.667 -115 328 -289 328z
" />
    <glyph glyph-name="f" unicode="f" 
d="M580 940l-0.00195312 -940.001h-180v940h-262v142h262v25c0 136.667 32.167 233.667 96.5 291s171.5 86 321.5 86c48 0 99.833 -2.16699 155.5 -6.5s97.5 -9.16602 125.5 -14.499v-145c-20 3.33301 -60.5 7 -121.5 11s-107.167 6 -138.5 6
c-69.333 0 -121.666 -7.66699 -156.999 -23s-61.166 -40.333 -77.499 -75s-24.5 -83 -24.5 -145v-10h491v-142h-491z" />
    <glyph glyph-name="g" unicode="g" 
d="M615 -424c-112 0 -202.001 23 -270.001 69s-111.333 112 -130 198l184 25c11.333 -50 35.833 -88.5 73.5 -115.5s87.167 -40.5 148.5 -40.5c165.333 0 248 105 248 315v194h-2c-32.667 -68.667 -78 -120.667 -136 -156s-127 -53 -207 -53
c-132 0 -228.5 43.167 -289.5 129.5s-91.5 222.166 -91.5 407.499c0 188.667 32.667 327.5 98 416.5s166 133.5 302 133.5c75.333 0 140.833 -17.5 196.5 -52.5s98.5 -84.833 128.5 -149.5h3c0 20 1.33301 53.833 4 101.5s5.33398 75.5 8.00098 83.5h171
c-4 -36 -6 -110.667 -6 -224v-826c0 -151.333 -35.333 -265.166 -106 -341.499s-179.667 -114.5 -327 -114.5zM868.999 551c0 128.667 -25 229.834 -75 303.501s-118.667 110.5 -206 110.5c-91.333 0 -157.333 -31.833 -198 -95.5s-61 -169.834 -61 -318.501
c0 -100.667 8.5 -180.167 25.5 -238.5s43.5 -100.833 79.5 -127.5s86.333 -40 151 -40c56.667 0 106.5 15.833 149.5 47.5s76.167 78 99.5 139s35 134.167 35 219.5z" />
    <glyph glyph-name="h" unicode="h" 
d="M185 1484l181 -0.000976562v-390c0 -39.333 -3 -105 -9 -197h3c70 136.667 183 205 339 205c233.333 0 350 -127 350 -381v-721h-181v695c0 90.667 -17.5 158 -52.5 202s-90.833 66 -167.5 66c-82.667 0 -150.5 -30.167 -203.5 -90.5s-79.5 -142.166 -79.5 -245.499v-627
h-180v1484z" />
    <glyph glyph-name="i" unicode="i" 
d="M745 142h380v-142h-982v142h422v798h-319v142h499v-940zM545 1292v192h200v-192h-200z" />
    <glyph glyph-name="j" unicode="j" 
d="M836 -28c0 -124.667 -37.332 -222 -111.999 -292s-181 -105 -319 -105c-52.667 0 -106.334 4.33301 -161.001 13s-97 18.667 -127 30v140c100 -22.667 191 -34 273 -34c85.333 0 151 22 197 66s69 105.667 69 185v965h-407v142h587v-1110zM636.001 1292v192h200v-192
h-200z" />
    <glyph glyph-name="k" unicode="k" 
d="M914 0l-366 499l-132 -98v-401h-180v1484h180v-927l475 525h211l-439 -465l462 -617h-211z" />
    <glyph glyph-name="l" unicode="l" 
d="M736 142h380v-142h-982v142h422v1200h-289v142h469v-1342z" />
    <glyph glyph-name="m" unicode="m" 
d="M531 0l-0.00292969 685.999c0 102.667 -8.16699 174.5 -24.5 215.5s-46.166 61.5 -89.499 61.5c-42.667 0 -77.167 -32 -103.5 -96s-39.5 -150.667 -39.5 -260v-607h-169v851c0 126 -2 203 -6 231h149l6 -127v-48h2c22.667 68 51.334 117.5 86.001 148.5
s78 46.5 130 46.5c58.667 0 102.5 -16 131.5 -48s49.833 -81.333 62.5 -148h2c26.667 70.667 58.5 121 95.5 151s83.833 45 140.5 45c78.667 0 135 -28.667 169 -86s51 -155.666 51 -294.999v-721h-168v686c0 102.667 -8.16699 174.5 -24.5 215.5s-46.166 61.5 -89.499 61.5
c-44 0 -78.833 -28 -104.5 -84s-38.5 -140 -38.5 -252v-627h-168z" />
    <glyph glyph-name="n" unicode="n" 
d="M868 0l-0.000976562 694.998c0 90.667 -17.5 158 -52.5 202s-90.833 66 -167.5 66c-82.667 0 -150.5 -30.167 -203.5 -90.5s-79.5 -142.166 -79.5 -245.499v-627h-180v851c0 126 -2 203 -6 231h170c0.666992 -3.33301 1.33398 -12.333 2.00098 -27s1.5 -31.5 2.5 -50.5
s2.16699 -54.833 3.5 -107.5h3c70 136.667 185.333 205 346 205c115.333 0 201.333 -31.167 258 -93.5s85 -158.166 85 -287.499v-721h-181z" />
    <glyph glyph-name="o" unicode="o" 
d="M1097 542c0 -182 -41.833 -321.167 -125.5 -417.5s-204.5 -144.5 -362.5 -144.5c-154.667 0 -273.167 48.667 -355.5 146s-123.5 236 -123.5 416c0 186 42.167 325.833 126.5 419.5s203.833 140.5 358.5 140.5c162.667 0 283.667 -46.333 363 -139s119 -233 119 -421z
M908 542c0 143.333 -22.833 250.334 -68.5 321.001s-119.5 106 -221.5 106c-103.333 0 -179 -36 -227 -108s-72 -178.333 -72 -319c0 -140 24 -246.5 72 -319.5s120 -109.5 216 -109.5c106 0 182.667 35.667 230 107s71 178.666 71 321.999z" />
    <glyph glyph-name="p" unicode="p" 
d="M1090 546c0 -377.333 -130.667 -566.001 -392 -566.001c-164 0 -274.333 61.333 -331 184h-5c2.66699 -5.33301 4 -60.666 4 -165.999v-423h-181v1283c0 113.333 -2 188 -6 224h175c0.666992 -2.66699 1.66699 -12.5 3 -29.5s2.83301 -42 4.5 -75s2.5 -57.5 2.5 -73.5h4
c33.333 70 75.833 120.833 127.5 152.5s119.167 47.5 202.5 47.5c132 0 230.333 -45.5 295 -136.5s97 -231.5 97 -421.5zM904 545.999c0 150.667 -20.333 258.167 -61 322.5s-104.667 96.5 -192 96.5c-100.667 0 -173.334 -36.5 -218.001 -109.5s-67 -183.5 -67 -331.5
c0 -142 22.333 -246 67 -312s116.667 -99 216 -99c88.667 0 153.334 33.667 194.001 101s61 178 61 332z" />
    <glyph glyph-name="q" unicode="q" 
d="M529 1098c86 0 154.669 -14.834 206.002 -44.501s93.333 -76.167 126 -139.5h2c0 20 1.16699 51.167 3.5 93.5s5.16602 67.5 8.49902 75.5h175c-4 -36 -6 -130 -6 -282v-1226h-181v439l4 168h-2c-35.333 -71.333 -79.333 -123.833 -132 -157.5
s-120.334 -50.5 -203.001 -50.5c-134.667 0 -233.667 46.833 -297 140.5s-95 232.834 -95 417.501c0 377.333 130.333 566 391 566zM863.002 553.999c0 141.333 -22.668 245.166 -68.001 311.499s-117.333 99.5 -216 99.5c-89.333 0 -154.166 -34 -194.499 -102
s-60.5 -176.333 -60.5 -325c0 -147.333 20.333 -255 61 -323s104.667 -102 192 -102c98 0 170.167 36.333 216.5 109s69.5 183.334 69.5 332.001z" />
    <glyph glyph-name="r" unicode="r" 
d="M1045 918c-74.667 12.667 -145.333 19 -212 19c-107.333 0 -194 -40.333 -260 -121s-99 -183.334 -99 -308.001v-508h-180v701c0 50.667 -4.5 110.334 -13.5 179.001s-21.833 136 -38.5 202h171c26.667 -92 42.667 -175.333 48 -250h5c33.333 74.667 66 129.5 98 164.5
s70 61.333 114 79s97.667 26.5 161 26.5c69.333 0 138 -5.66699 206 -17v-167z" />
    <glyph glyph-name="s" unicode="s" 
d="M1060 309c0 -102.667 -38.8369 -183.168 -116.504 -241.501s-185.167 -87.5 -322.5 -87.5s-241.833 21.5 -313.5 64.5s-118.5 110.833 -140.5 203.5l159 31c12.667 -57.333 39.834 -99.166 81.501 -125.499s112.834 -39.5 213.501 -39.5c180 0 270 57 270 171
c0 42.667 -16.333 77.167 -49 103.5s-82.667 47.833 -150 64.5c-176 43.333 -287.667 77.333 -335 102s-83.666 55.5 -108.999 92.5s-38 83.167 -38 138.5c0 98 35.333 174.667 106 230s173 83 307 83c117.333 0 211 -22.167 281 -66.5s113.667 -108.833 131 -193.5
l-162 -20c-7.33301 48 -31 84.333 -71 109s-99.667 37 -179 37c-163.333 0 -245 -50.333 -245 -151c0 -40 13.833 -72 41.5 -96s72.167 -43.333 133.5 -58l119 -31c108.667 -26.667 186.834 -53 234.501 -79s85.167 -58.5 112.5 -97.5s41 -86.833 41 -143.5z" />
    <glyph glyph-name="t" unicode="t" 
d="M190 940l0.000976562 141.999h170l58 282h120v-282h432v-142h-432v-652c0 -52.667 14.167 -91.667 42.5 -117s74.833 -38 139.5 -38c89.333 0 188.333 11.333 297 34v-137c-112.667 -30.667 -224.334 -46 -335.001 -46c-108 0 -189 22.833 -243 68.5
s-81 117.834 -81 216.501v671h-168z" />
    <glyph glyph-name="u" unicode="u" 
d="M365 1082v-686.001c0 -104 16.333 -176.167 49 -216.5s91 -60.5 175 -60.5c86 0 154 29.333 204 88s75 141.334 75 248.001v627h181v-851c0 -126 2 -203 6 -231h-170c-0.666992 3.33301 -1.33398 12.333 -2.00098 27s-1.5 31.5 -2.5 50.5s-2.16699 54.833 -3.5 107.5h-3
c-41.333 -74.667 -89.166 -127.5 -143.499 -158.5s-121.833 -46.5 -202.5 -46.5c-118.667 0 -205.5 29.5 -260.5 88.5s-82.5 156.5 -82.5 292.5v721h180z" />
    <glyph glyph-name="v" unicode="v" 
d="M715 0h-213l-433 1082h202l268 -704l17 -53l52 -184l35 117l39 118l276 706h201z" />
    <glyph glyph-name="w" unicode="w" 
d="M1018 0l-203.999 -0.000976562l-143 471l-57 202l-39 -139l-168 -534h-203l-183 1082h178l93 -607c22 -176 33 -284.667 33 -326c26 106.667 45.333 178 58 214l135 424h193l130 -425c21.333 -70 39.666 -141 54.999 -213c0 20 1.33301 45 4 75s6 60.833 10 92.5l12 90.5
c4 28.667 7 51.334 9 68.001l101 607h176z" />
    <glyph glyph-name="x" unicode="x" 
d="M932 0l-321 444l-323 -444h-194l415 556l-397 526h199l300 -421l298 421h201l-397 -524l420 -558h-201z" />
    <glyph glyph-name="y" unicode="y" 
d="M292 -425c-49.333 0 -90.667 3.66699 -124 11v135c25.333 -4 53.333 -6 84 -6c52.667 0 102.167 19.667 148.5 59s85.5 102 117.5 188l18 49l-470 1071h192l264 -642c60.667 -149.333 93.334 -234 98.001 -254l41 110l310 786h190l-456 -1082
c-59.333 -156.667 -120.833 -266.667 -184.5 -330s-139.834 -95 -228.501 -95z" />
    <glyph glyph-name="z" unicode="z" 
d="M147 0v137l681 806h-641v139h844v-137l-682 -806h719v-139h-921z" />
    <glyph glyph-name="braceleft" unicode="{" 
d="M796 -425c-86.667 0 -157.332 28.1699 -211.999 84.5029s-82 129.166 -82 218.499v351c0 71.333 -24.333 127 -73 167s-116 61.667 -202 65v137c86.667 3.33301 154.167 25.333 202.5 66s72.5 95.667 72.5 165v352c0 91.333 27 164.666 81 219.999s125 83 213 83h265
v-139h-213c-60.667 0 -104.334 -14.667 -131.001 -44s-40 -79.666 -40 -150.999v-346c0 -65.333 -21.333 -122.833 -64 -172.5s-98.334 -82.834 -167.001 -99.501v-2c68 -16 123.5 -48.5 166.5 -97.5s64.5 -107.833 64.5 -176.5v-347c0 -70.667 13.333 -120.834 40 -150.501
s70.334 -44.5 131.001 -44.5h213v-139h-265z" />
    <glyph glyph-name="bar" unicode="|" 
d="M531 -425v1909h166v-1909h-166z" />
    <glyph glyph-name="braceright" unicode="}" 
d="M167 -425v138.996h213c60.667 0 104.5 14.833 131.5 44.5s40.5 79.834 40.5 150.501v347c0 68 21.333 126.667 64 176s98 82 166 98v2c-68 16.667 -123.333 50 -166 100s-64 107.333 -64 172v346c0 70 -13.333 120 -40 150s-70.667 45 -132 45h-213v139h265
c88.667 0 159.834 -27.667 213.501 -83s80.5 -128.666 80.5 -219.999v-352c0 -70 24.333 -125.167 73 -165.5s116 -62.166 202 -65.499v-137c-86.667 -3.33301 -154.167 -25.166 -202.5 -65.499s-72.5 -95.833 -72.5 -166.5v-351c0 -90 -27.333 -163 -82 -219
s-125.334 -84 -212.001 -84h-265z" />
    <glyph glyph-name="asciitilde" unicode="~" 
d="M371 807c68 0 146.334 -15.333 235.001 -46c98 -34 161.5 -54.333 190.5 -61s55.5 -10 79.5 -10c86.667 0 168 30.667 244 92v-149c-40 -28 -79.167 -48.333 -117.5 -61s-85.833 -19 -142.5 -19c-46 0 -93.167 7.33301 -141.5 22s-96.833 30.667 -145.5 48
c-86 30 -158.333 45 -217 45c-44.667 0 -86.334 -6.83301 -125.001 -20.5s-79.667 -36.167 -123 -67.5v143c74 56 161.667 84 263 84z" />
    <glyph glyph-name="uni00A0" unicode="&#xa0;" 
 />
    <glyph glyph-name="exclamdown" unicode="&#xa1;" 
d="M539 685h148l24 -951h-196zM713 1082v-201h-194v201h194z" />
    <glyph glyph-name="cent" unicode="&#xa2;" 
d="M635 269c75.333 0 137.499 18.6641 186.499 55.9971s79.167 91 90.5 161l182 -12c-14 -94.667 -56.667 -172.667 -128 -234s-160.666 -96.666 -267.999 -105.999v-195h-128v195c-138.667 10 -246.167 60.833 -322.5 152.5s-114.5 214.834 -114.5 369.501
c0 160 38.667 286.833 116 380.5s184.333 146.5 321 158.5v184h128v-184c104.667 -8.66699 191 -41.167 259 -97.5s111.667 -131.166 131 -224.499l-185 -14c-11.333 60.667 -38.833 109 -82.5 145s-106.167 54 -187.5 54c-104 0 -182.833 -33.5 -236.5 -100.5
s-80.5 -163.5 -80.5 -289.5c0 -132 28 -231.5 84 -298.5s134.333 -100.5 235 -100.5z" />
    <glyph glyph-name="sterling" unicode="&#xa3;" 
d="M1171 240c-33.333 -160 -111.333 -240.001 -234 -240.001h-881v154c58 29.333 98.833 57 122.5 83s41.667 57.833 54 95.5s18.5 83.834 18.5 138.501v141h-186v142h186v220c0 129.333 36.167 227.666 108.5 294.999s176.833 101 313.5 101c102 0 187 -20.167 255 -60.5
s113.333 -96.833 136 -169.5l-174 -57c-14.667 42 -41.5 73.667 -80.5 95s-84.5 32 -136.5 32c-81.333 0 -142 -19.167 -182 -57.5s-60 -99.166 -60 -182.499v-216h408v-142h-408v-139c0 -85.333 -12 -151.833 -36 -199.5s-63.667 -86.167 -119 -115.5h600
c39.333 0 68.5 8.83301 87.5 26.5s32.167 44.167 39.5 79.5z" />
    <glyph glyph-name="currency" unicode="&#xa4;" 
d="M182 684c0 92 26 176 78 252l-100 100l104 103l99 -101c76 54.667 160.667 82 254 82c91.333 0 175 -26.667 251 -80l97 97l104 -105l-96 -96c53.333 -78 80 -162 80 -252c0 -92 -27.333 -176 -82 -252l100 -100l-102 -105l-101 101c-76 -52 -159.667 -78 -251 -78
c-95.333 0 -179.333 26.667 -252 80l-105 -105l-102 105l102 102c-52 76 -78 160 -78 252zM336 686c0 -76 27.333 -141.667 82 -197s121 -83 199 -83c76 0 141.667 27 197 81s83 120.333 83 199c0 77.333 -27.5 143.5 -82.5 198.5s-120.833 82.5 -197.5 82.5
c-78 0 -144.333 -27.833 -199 -83.5s-82 -121.5 -82 -197.5z" />
    <glyph glyph-name="yen" unicode="&#xa5;" 
d="M764 679h321v-142h-383v-137h383v-144h-383v-256h-178v256h-381v144h381l2 137h-383v142h320l-411 670h199l361 -617l365 617h199z" />
    <glyph glyph-name="brokenbar" unicode="&#xa6;" 
d="M531 676v778h166v-778h-166zM531 -455v779h166v-779h-166z" />
    <glyph glyph-name="section" unicode="&#xa7;" 
d="M632 1484c115.333 0 208.501 -22.168 279.501 -66.501s115.5 -108.833 133.5 -193.5l-161 -20c-9.33301 52.667 -35.5 92.5 -78.5 119.5s-100.833 40.5 -173.5 40.5c-83.333 0 -146.5 -14.833 -189.5 -44.5s-64.5 -68.167 -64.5 -115.5c0 -32 10 -59.667 30 -83
s48.5 -43.666 85.5 -60.999s98.833 -36.333 185.5 -57c98 -23.333 173 -48.833 225 -76.5s92.333 -61.167 121 -100.5s43 -86 43 -140c0 -66 -19.833 -124 -59.5 -174s-92.834 -83 -159.501 -99c74.667 -32 128.834 -69.5 162.501 -112.5s50.5 -94.833 50.5 -155.5
c0 -98.667 -38.5 -176.167 -115.5 -232.5s-185.5 -84.5 -325.5 -84.5c-139.333 0 -245.5 22.167 -318.5 66.5s-120.833 112.833 -143.5 205.5l161 31c13.333 -62 43.833 -108 91.5 -138s117.5 -45 209.5 -45c87.333 0 156 16 206 48s75 76.333 75 133
c0 37.333 -10.667 69 -32 95s-51.5 48.333 -90.5 67s-111.5 41 -217.5 67c-130 30 -223.333 71 -280 123s-85 115.333 -85 190c0 59.333 20.5 113.666 61.5 162.999s96.5 84 166.5 104c-64 21.333 -114.5 54.333 -151.5 99s-55.5 95.667 -55.5 153
c0 92.667 35.167 164.834 105.5 216.501s173.166 77.5 308.499 77.5zM910.001 662.999c0 48 -23.168 89.332 -69.501 123.999s-128.166 65.667 -245.499 93c-72.667 -4 -130.5 -23.667 -173.5 -59s-64.5 -81 -64.5 -137c0 -32.667 9.83301 -61.167 29.5 -85.5
s48 -45.5 85 -63.5s98.5 -38 184.5 -60c79.333 1.33301 141.5 18.833 186.5 52.5s67.5 78.834 67.5 135.501z" />
    <glyph glyph-name="dieresis" unicode="&#xa8;" 
d="M729 1219v184h163v-184h-163zM335 1219v184h165v-184h-165z" />
    <glyph glyph-name="copyright" unicode="&#xa9;" 
d="M398 763c0 -102 19.665 -181.833 58.998 -239.5s94.333 -86.5 165 -86.5c43.333 0 81 12.333 113 37s59.667 64.334 83 119.001l115 -35c-34.667 -78.667 -77.5 -135.834 -128.5 -171.501s-111.833 -53.5 -182.5 -53.5c-112 0 -198.833 37.833 -260.5 113.5
s-92.5 181.167 -92.5 316.5c0 134.667 29.667 239 89 313s145 111 257 111c144.667 0 245.667 -69.667 303 -209l-114 -33c-17.333 44.667 -42.166 78.667 -74.499 102s-69.833 35 -112.5 35c-71.333 0 -125.666 -26.833 -162.999 -80.5s-56 -133.167 -56 -238.5zM1197 761
c0 -151.333 -23.6621 -281.502 -70.9951 -390.502s-115 -191.667 -203 -248s-191 -84.5 -309 -84.5s-220.833 28.5 -308.5 85.5s-155.334 139.833 -203.001 248.5s-71.5 238.334 -71.5 389.001s23.667 280.334 71 389.001s115.166 191.5 203.499 248.5
s191.166 85.5 308.499 85.5s220.166 -28.333 308.499 -85s156.166 -139.167 203.499 -247.5s71 -238.5 71 -390.5zM1105 760.998c0 200.667 -43.333 355.498 -130 464.498s-207 163.5 -361 163.5c-100.667 0 -187.5 -24.167 -260.5 -72.5s-129.167 -119.666 -168.5 -213.999
s-59 -208.166 -59 -341.499c0 -199.333 42.5 -354 127.5 -464s205.167 -165 360.5 -165s276 54.667 362 164s129 264.333 129 465z" />
    <glyph glyph-name="ordfeminine" unicode="&#xaa;" 
d="M206 870c0 78 30.002 137.501 90.002 178.501s149.333 62.167 268 63.5l191 4v43c0 121.333 -60 182 -180 182c-56 0 -99.333 -11.333 -130 -34s-49.667 -59.667 -57 -111l-149 10c12 70.667 47.333 126 106 166s136.667 60 234 60c102 0 180.667 -22.333 236 -67
s83 -111.334 83 -200.001v-291c0 -38.667 5.16699 -68 15.5 -88s29.833 -30 58.5 -30c16.667 0 33 2.66699 49 8v-94c-33.333 -8.66699 -67.333 -13 -102 -13c-102.667 0 -156 53.333 -160 160h-4c-28.667 -51.333 -67.334 -91.833 -116.001 -121.5s-107 -44.5 -175 -44.5
c-80.667 0 -143.834 19 -189.501 57s-68.5 92 -68.5 162zM353.002 890.001c0 -42.667 13.667 -76.333 41 -101s64.333 -37 111 -37c46 0 88.167 11.333 126.5 34s68.5 52.167 90.5 88.5s33 72.5 33 108.5v51l-154 -4c-86.667 -2 -149.667 -14.167 -189 -36.5
s-59 -56.833 -59 -103.5z" />
    <glyph glyph-name="guillemotleft" unicode="&#xab;" 
d="M940 141l-338 365v63l338 371h178v-31l-338 -372l340 -367v-29h-180zM463 141l-336 365v63l336 371h177v-31l-335 -372l337 -367v-29h-179z" />
    <glyph glyph-name="logicalnot" unicode="&#xac;" 
d="M966 180v428h-850v146h995v-574h-145z" />
    <glyph glyph-name="uni00AD" unicode="&#xad;" 
d="M334 464v160h560v-160h-560z" />
    <glyph glyph-name="registered" unicode="&#xae;" 
d="M1197 761c0 -151.333 -23.6621 -281.502 -70.9951 -390.502s-115 -191.667 -203 -248s-191 -84.5 -309 -84.5s-220.833 28.5 -308.5 85.5s-155.334 139.833 -203.001 248.5s-71.5 238.334 -71.5 389.001s23.667 280.334 71 389.001s115.166 191.5 203.499 248.5
s191.166 85.5 308.499 85.5s220.166 -28.333 308.499 -85s156.166 -139.167 203.499 -247.5s71 -238.5 71 -390.5zM1105 760.998c0 200.667 -43.333 355.498 -130 464.498s-207 163.5 -361 163.5c-100.667 0 -187.5 -24.167 -260.5 -72.5s-129.167 -119.666 -168.5 -213.999
s-59 -208.166 -59 -341.499c0 -199.333 42.5 -354 127.5 -464s205.167 -165 360.5 -165s276 54.667 362 164s129 264.333 129 465zM815.005 342.996l-198.999 336h-161v-336h-127v831h307c94.667 0 167.167 -21 217.5 -63s75.5 -100 75.5 -174
c0 -68 -17.333 -122.5 -52 -163.5s-80.334 -67.833 -137.001 -80.5l221 -350h-145zM801.006 934.996c0 46 -15.833 81 -47.5 105s-74.5 36 -128.5 36h-170v-301h182c53.333 0 94 14.167 122 42.5s42 67.5 42 117.5z" />
    <glyph glyph-name="overscore" unicode="&#xaf;" 
d="M-5 1522v96h1238v-96h-1238z" />
    <glyph glyph-name="degree" unicode="&#xb0;" 
d="M901 1085c0 -79.333 -28.167 -146.668 -84.5 -202.001s-123.833 -83 -202.5 -83s-146.167 28 -202.5 84s-84.5 123 -84.5 201s27.833 145 83.5 201s123.5 84 203.5 84s147.833 -27.667 203.5 -83s83.5 -122.666 83.5 -201.999zM792 1085
c0 50.667 -17.167 93.3311 -51.5 127.998s-76.5 52 -126.5 52s-92.167 -17.667 -126.5 -53s-51.5 -77.666 -51.5 -126.999s17.5 -91.666 52.5 -126.999s76.833 -53 125.5 -53c49.333 0 91.333 17.5 126 52.5s52 77.5 52 127.5z" />
    <glyph glyph-name="plusminus" unicode="&#xb1;" 
d="M687 680v-395h-147v395h-424v145h424v394h147v-394h424v-145h-424zM116 0v145h995v-145h-995z" />
    <glyph glyph-name="twosuperior" unicode="&#xb2;" 
d="M314 563l-2.00293 102.999c20.667 46 52.334 90.333 95.001 133s100 89 172 139c64.667 44 111.667 85 141 123s44 77 44 117c0 41.333 -11.833 74.5 -35.5 99.5s-60.167 37.5 -109.5 37.5c-45.333 0 -82.666 -12.167 -111.999 -36.5s-46.666 -59.166 -51.999 -104.499
l-133 8c8.66699 72 40.334 129.833 95.001 173.5s124 65.5 208 65.5c87.333 0 155.166 -21.167 203.499 -63.5s72.5 -100.833 72.5 -175.5c0 -50 -15.667 -97.333 -47 -142s-79 -89.667 -143 -135c-88 -62 -148.667 -108.333 -182 -139s-58 -62.667 -74 -96h459l2 -107h-602
z" />
    <glyph glyph-name="threesuperior" unicode="&#xb3;" 
d="M921 795c0 -77.333 -25.832 -137.334 -77.499 -180.001s-124.834 -64 -219.501 -64c-190.667 0 -296.667 75.667 -318 227l136 13c12 -90.667 72.667 -136 182 -136c106.667 0 160 49.333 160 148c0 91.333 -63 137 -189 137h-61v109h57c53.333 0 95.333 12 126 36
s46 57.667 46 101c0 40 -12.333 71.5 -37 94.5s-60.667 34.5 -108 34.5c-45.333 0 -82 -11.667 -110 -35s-44 -56.666 -48 -99.999l-135 12c8.66699 72.667 39.167 129 91.5 169s120.833 60 205.5 60c86.667 0 154.667 -19.833 204 -59.5s74 -92.167 74 -157.5
c0 -50 -14.333 -93.333 -43 -130s-73 -61.667 -133 -75v-2c60.667 -6 108.667 -26.5 144 -61.5s53 -81.833 53 -140.5z" />
    <glyph glyph-name="acute" unicode="&#xb4;" 
d="M402 1201v20l227 239h197v-29l-300 -230h-124z" />
    <glyph glyph-name="mu1" unicode="&#xb5;" 
d="M916 0c-1.33301 7.33301 -3.33203 38.001 -5.99902 92.001s-4 89.667 -4 107h-4c-70.667 -146 -182 -219 -334 -219c-54.667 0 -103.334 10.667 -146.001 32s-74.667 51.333 -96 90h-4c2.66699 -28.667 4 -69.334 4 -122.001v-373h-182v1475h182v-644
c0 -211.333 88 -317 264 -317c87.333 0 160.333 32.167 219 96.5s88 146.833 88 247.5v617h181v-849c0 -127.333 2 -205 6 -233h-168z" />
    <glyph glyph-name="paragraph" unicode="&#xb6;" 
d="M951 1227v-1551h-132v1551h-197v-1551h-133v958c-112 0 -200.333 30.833 -265 92.5s-97 149.167 -97 262.5c0 112.667 32.833 200.834 98.5 264.501s156.167 95.5 271.5 95.5h583v-122h-129z" />
    <glyph glyph-name="middot.001" unicode="&#xb7;" 
d="M496 420v299h235v-299h-235z" />
    <glyph glyph-name="cedilla" unicode="&#xb8;" 
d="M483 -258c0 -124 -91.333 -186 -274 -186c-38 0 -68 1.33301 -90 4v98c33.333 -4 62 -6 86 -6c98 0 147 28.667 147 86c0 26.667 -10.167 47 -30.5 61s-54.5 21 -102.5 21c-28.667 0 -47.667 -0.666992 -57 -2l65 182h107l-39 -100c62.667 -2 109.667 -16.833 141 -44.5
s47 -65.5 47 -113.5z" />
    <glyph glyph-name="onesuperior" unicode="&#xb9;" 
d="M291 563l0.00195312 107h265v610c-16.667 -33.333 -51.334 -60.833 -104.001 -82.5s-108.334 -32.5 -167.001 -32.5v109c66 0 123.833 12.167 173.5 36.5s85.5 57.5 107.5 99.5h121v-740h236v-107h-632z" />
    <glyph glyph-name="ordmasculine" unicode="&#xba;" 
d="M1002 1042c0 -122 -34.167 -217.666 -102.5 -286.999s-164.5 -104 -288.5 -104c-121.333 0 -215.833 35.667 -283.5 107s-101.5 166 -101.5 284c0 121.333 34.333 216.666 103 285.999s164 104 286 104c126 0 222 -33.5 288 -100.5s99 -163.5 99 -289.5zM853 1042
c0 100.667 -19.999 173.333 -59.999 218s-98 67 -174 67c-160.667 0 -241 -95 -241 -285c0 -93.333 19.667 -164.333 59 -213s96.666 -73 171.999 -73c78 0 138.167 22.167 180.5 66.5s63.5 117.5 63.5 219.5z" />
    <glyph glyph-name="guillemotright" unicode="&#xbb;" 
d="M762 141h-178v29l338 367l-336 372v31h176l338 -371v-63zM287 141h-180v29l338 367l-336 372v31h178l335 -371v-63z" />
    <glyph glyph-name="onequarter" unicode="&#xbc;" 
d="M63 589l-0.000976562 107h135v513c-13.333 -26 -37.666 -48.333 -72.999 -67s-68 -28 -98 -28v119c33.333 0 67.333 10.5 102 31.5s61 49.167 79 84.5h121v-653h116v-107h-382zM321.999 0h-118l703 1349h115zM1107 162v-161h-127v161h-375v99l361 502h141v-500h122v-101
h-122zM980.999 635c-22.667 -34 -111.333 -158 -266 -372h265v321z" />
    <glyph glyph-name="onehalf" unicode="&#xbd;" 
d="M53 589l-0.000976562 107h135v513c-13.333 -26 -37.666 -48.333 -72.999 -67s-68 -28 -98 -28v119c33.333 0 67.333 10.5 102 31.5s61 49.167 79 84.5h121v-653h116v-107h-382zM305.999 0h-118l703 1349h115zM677.999 1l0.000976562 97.001c18 41.333 44.833 81 80.5 119
s83.5 79.667 143.5 125c54.667 40.667 93.667 77 117 109s35 65.667 35 101c0 80.667 -37 121 -111 121c-40.667 0 -70.834 -10.333 -90.501 -31s-32.167 -51.334 -37.5 -92.001l-130 5c8.66699 68 36.167 121.333 82.5 160s106.5 58 180.5 58
c80 0 140.167 -18.667 180.5 -56s60.5 -90.333 60.5 -159c0 -87.333 -53.333 -171 -160 -251c-78 -59.333 -129.5 -100.833 -154.5 -124.5s-43.167 -48.5 -54.5 -74.5h380v-107h-522z" />
    <glyph glyph-name="threequarters" unicode="&#xbe;" 
d="M526 794c0 -67.333 -23.001 -121.335 -69.001 -162.002s-108.667 -61 -188 -61c-71.333 0 -129.666 18.667 -174.999 56s-73 89.333 -83 156l136 13c6 -40 19.833 -70.167 41.5 -90.5s48.5 -30.5 80.5 -30.5c36 0 65 10 87 30s33 51.667 33 95c0 80 -49.667 120 -149 120
h-41v109h37c45.333 0 78.666 9.5 99.999 28.5s32 50.5 32 94.5c0 35.333 -9 61.333 -27 78s-40.667 25 -68 25c-30 0 -56 -10.5 -78 -31.5s-35 -50.5 -39 -88.5l-135 12c8.66699 66.667 35.334 119 80.001 157s102 57 172 57c72.667 0 129.5 -18.333 170.5 -55
s61.5 -85.667 61.5 -147c0 -44 -11.167 -80.167 -33.5 -108.5s-56.5 -51.166 -102.5 -68.499v-2c54.667 -12 94.5 -34.667 119.5 -68s37.5 -72.666 37.5 -117.999zM346.999 -0.00195312h-118l703 1349h115zM1107 161.998v-161h-127v161h-375v99l361 502h141v-500h122v-101
h-122zM980.999 634.998c-22.667 -34 -111.333 -158 -266 -372h265v321z" />
    <glyph glyph-name="questiondown" unicode="&#xbf;" 
d="M153 79c0 48.667 7.32812 91.998 21.9951 129.998s35.834 73.167 63.501 105.5s72.167 70.833 133.5 115.5c73.333 52.667 121.833 91.334 145.5 116.001s42.334 51.334 56.001 80.001s20.834 61.334 21.501 98.001h175c-1.33301 -46.667 -9.5 -88.5 -24.5 -125.5
s-35.667 -71 -62 -102s-71.166 -69.833 -134.499 -116.5c-71.333 -52.667 -118.166 -91.334 -140.499 -116.001s-40.166 -51.167 -53.499 -79.5s-20 -60.833 -20 -97.5c0 -72.667 26.5 -128.5 79.5 -167.5s124.833 -58.5 215.5 -58.5c90 0 163.167 24.333 219.5 73
s89.166 115 98.499 199l184 -12c-17.333 -131.333 -70.5 -232.5 -159.5 -303.5s-202.5 -106.5 -340.5 -106.5c-148.667 0 -265.667 32.167 -351 96.5s-128 154.833 -128 271.5zM777.995 1081v-201h-195v201h195z" />
    <glyph glyph-name="Agrave" unicode="&#xc0;" 
d="M1034 0l-138 382h-563l-137 -382h-196l510 1349h217l501 -1349h-194zM616 1205l-12 -39l-69 -212l-151 -423h463l-173 500zM609 1444l-300 230v29h197l227 -239v-20h-124z" />
    <glyph glyph-name="Aacute" unicode="&#xc1;" 
d="M1034 0l-138 382h-563l-137 -382h-196l510 1349h217l501 -1349h-194zM616 1205l-12 -39l-69 -212l-151 -423h463l-173 500zM495 1445v20l227 239h197v-29l-300 -230h-124z" />
    <glyph glyph-name="Acircumflex" unicode="&#xc2;" 
d="M1034 0l-138 382h-563l-137 -382h-196l510 1349h217l501 -1349h-194zM616 1205l-12 -39l-69 -212l-151 -423h463l-173 500zM945 1465v-20h-105l-219 138h-2l-232 -138h-104v20l254 239h164z" />
    <glyph glyph-name="Atilde" unicode="&#xc3;" 
d="M1034 0l-138 382h-563l-137 -382h-196l510 1349h217l501 -1349h-194zM616 1205l-12 -39l-69 -212l-151 -423h463l-173 500zM770 1445c-28 0 -56 6.16699 -84 18.5s-55.333 26 -82 41s-52.834 28.667 -78.501 41s-50.167 18.5 -73.5 18.5c-16.667 0 -30 -3.16699 -40 -9.5
s-18.333 -15.5 -25 -27.5s-13.667 -39.333 -21 -82h-111c7.33301 64 18.833 112.333 34.5 145s37.167 58 64.5 76s62 27 104 27c29.333 0 58 -6.16699 86 -18.5s55.333 -26 82 -41s52.334 -28.667 77.001 -41s48 -18.5 70 -18.5c24.667 0 43.667 7.83301 57 23.5
s23.333 47.5 30 95.5h112c-10.667 -92 -32.5 -156.333 -65.5 -193s-78.5 -55 -136.5 -55z" />
    <glyph glyph-name="Adieresis" unicode="&#xc4;" 
d="M1034 0l-138 382h-563l-137 -382h-196l510 1349h217l501 -1349h-194zM616 1205l-12 -39l-69 -212l-151 -423h463l-173 500zM729 1445v184h163v-184h-163zM335 1445v184h165v-184h-165z" />
    <glyph glyph-name="Aring" unicode="&#xc5;" 
d="M1034 0l-138 382h-563l-137 -382h-196l510 1349h217l501 -1349h-194zM616 1205l-12 -39l-69 -212l-151 -423h463l-173 500zM859 1433c0 -58 -21.833 -105.833 -65.5 -143.5s-102.5 -56.5 -176.5 -56.5c-74.667 0 -133.667 18.833 -177 56.5s-65 85.5 -65 143.5
c0 59.333 22.167 107.333 66.5 144s102.833 55 175.5 55c74 0 132.833 -18.5 176.5 -55.5s65.5 -84.833 65.5 -143.5zM738 1433c0 24.667 -10.833 44.667 -32.5 60s-51.167 23 -88.5 23c-36.667 0 -66.167 -7.66699 -88.5 -23s-33.5 -35.333 -33.5 -60
c0 -25.333 11.167 -45.666 33.5 -60.999s51.833 -23 88.5 -23c37.333 0 66.833 7.66699 88.5 23s32.5 35.666 32.5 60.999z" />
    <glyph glyph-name="AE" unicode="&#xc6;" 
d="M646 412h-335l-142 -412h-168l486 1349h667v-152h-337v-430h327v-150h-327v-465h378v-152h-549v412zM646 1202l-72.998 0.000976562c-2.66699 -10.667 -16.834 -59.334 -42.501 -146.001s-81.834 -251.667 -168.501 -495h284v641z" />
    <glyph glyph-name="Ccedilla" unicode="&#xc7;" 
d="M314 681c0 -182 28.499 -318.501 85.499 -409.501s144.167 -136.5 261.5 -136.5c67.333 0 128.333 22.833 183 68.5s101 116.834 139 213.501l159 -65c-99.333 -248 -260.333 -372 -483 -372c-175.333 0 -310.166 60.333 -404.499 181s-141.5 294 -141.5 520
c0 459.333 178.667 689 536 689c226 0 381.333 -111.667 466 -335l-168 -65c-24.667 75.333 -63.167 134.833 -115.5 178.5s-112.833 65.5 -181.5 65.5c-114 0 -198.5 -43 -253.5 -129s-82.5 -220.667 -82.5 -404zM836.999 -258.001c0 -124 -91.333 -186 -274 -186
c-38 0 -68 1.33301 -90 4v98c33.333 -4 62 -6 86 -6c98 0 147 28.667 147 86c0 26.667 -10.167 47 -30.5 61s-54.5 21 -102.5 21c-28.667 0 -47.667 -0.666992 -57 -2l65 182h107l-39 -100c62.667 -2 109.667 -16.833 141 -44.5s47 -65.5 47 -113.5z" />
    <glyph glyph-name="Egrave" unicode="&#xc8;" 
d="M162 0v1349h919v-156h-728v-422h668v-154h-668v-461h769v-156h-960zM631 1445l-300 230v29h197l227 -239v-20h-124z" />
    <glyph glyph-name="Eacute" unicode="&#xc9;" 
d="M162 0v1349h919v-156h-728v-422h668v-154h-668v-461h769v-156h-960zM493 1445v20l227 239h197v-29l-300 -230h-124z" />
    <glyph glyph-name="Ecircumflex" unicode="&#xca;" 
d="M162 0v1349h919v-156h-728v-422h668v-154h-668v-461h769v-156h-960zM945 1465v-20h-105l-219 138h-2l-232 -138h-104v20l254 239h164z" />
    <glyph glyph-name="Edieresis" unicode="&#xcb;" 
d="M162 0v1349h919v-156h-728v-422h668v-154h-668v-461h769v-156h-960zM749 1445v184h163v-184h-163zM355 1445v184h165v-184h-165z" />
    <glyph glyph-name="Igrave" unicode="&#xcc;" 
d="M202 1349h823v-156h-316v-1037h316v-156h-823v156h316v1037h-316v156zM621 1445l-300 230v29h197l227 -239v-20h-124z" />
    <glyph glyph-name="Iacute" unicode="&#xcd;" 
d="M202 1349h823v-156h-316v-1037h316v-156h-823v156h316v1037h-316v156zM505 1445v20l227 239h197v-29l-300 -230h-124z" />
    <glyph glyph-name="Icircumflex" unicode="&#xce;" 
d="M202 1349h823v-156h-316v-1037h316v-156h-823v156h316v1037h-316v156zM945 1465v-20h-105l-219 138h-2l-232 -138h-104v20l254 239h164z" />
    <glyph glyph-name="Idieresis" unicode="&#xcf;" 
d="M202 1349h823v-156h-316v-1037h316v-156h-823v156h316v1037h-316v156zM729 1445v184h163v-184h-163zM335 1445v184h165v-184h-165z" />
    <glyph glyph-name="Eth" unicode="&#xd0;" 
d="M1125 688c0 -220.667 -51.167 -390.5 -153.5 -509.5s-248.833 -178.5 -439.5 -178.5h-370v597h-135v149h135v603h311c219.333 0 382.833 -54.833 490.5 -164.5s161.5 -275.167 161.5 -496.5zM642 597h-289.001v-441h162c141.333 0 246.333 44.333 315 133
s103 221.667 103 399c0 176 -36.667 304.167 -110 384.5s-189.666 120.5 -348.999 120.5h-121v-447h289v-149z" />
    <glyph glyph-name="Ntilde" unicode="&#xd1;" 
d="M836 0l-520 1130c10.667 -114.667 16 -199.334 16 -254.001v-876h-170v1349h222l528 -1138c-12 96 -18 187.333 -18 274v864h172v-1349h-230zM770 1446c-28 0 -56 6.16699 -84 18.5s-55.333 26 -82 41s-52.834 28.667 -78.501 41s-50.167 18.5 -73.5 18.5
c-16.667 0 -30 -3.16699 -40 -9.5s-18.333 -15.5 -25 -27.5s-13.667 -39.333 -21 -82h-111c7.33301 64 18.833 112.333 34.5 145s37.167 58 64.5 76s62 27 104 27c29.333 0 58 -6.16699 86 -18.5s55.333 -26 82 -41s52.334 -28.667 77.001 -41s48 -18.5 70 -18.5
c24.667 0 43.667 7.83301 57 23.5s23.333 47.5 30 95.5h112c-10.667 -92 -32.5 -156.333 -65.5 -193s-78.5 -55 -136.5 -55z" />
    <glyph glyph-name="Ograve" unicode="&#xd2;" 
d="M1126 681c0 -224.667 -44.1689 -397.667 -132.502 -519s-215.166 -182 -380.499 -182c-166 0 -292.667 59.667 -380 179s-131 293.333 -131 522c0 224.667 43.333 395.667 130 513s214.334 176 383.001 176c164.667 0 291 -57.833 379 -173.5s132 -287.5 132 -515.5z
M924.998 681c0 355.333 -103.333 533.001 -310 533.001c-208 0 -312 -177.667 -312 -533c0 -180 26.333 -316 79 -408s130 -138 232 -138c108.667 0 187.667 46.667 237 140s74 228.666 74 405.999zM615.998 1445l-300 230v29h197l227 -239v-20h-124z" />
    <glyph glyph-name="Oacute" unicode="&#xd3;" 
d="M1126 681c0 -224.667 -44.1689 -397.667 -132.502 -519s-215.166 -182 -380.499 -182c-166 0 -292.667 59.667 -380 179s-131 293.333 -131 522c0 224.667 43.333 395.667 130 513s214.334 176 383.001 176c164.667 0 291 -57.833 379 -173.5s132 -287.5 132 -515.5z
M924.998 681c0 355.333 -103.333 533.001 -310 533.001c-208 0 -312 -177.667 -312 -533c0 -180 26.333 -316 79 -408s130 -138 232 -138c108.667 0 187.667 46.667 237 140s74 228.666 74 405.999zM499.998 1445v20l227 239h197v-29l-300 -230h-124z" />
    <glyph glyph-name="Ocircumflex" unicode="&#xd4;" 
d="M1126 681c0 -224.667 -44.1689 -397.667 -132.502 -519s-215.166 -182 -380.499 -182c-166 0 -292.667 59.667 -380 179s-131 293.333 -131 522c0 224.667 43.333 395.667 130 513s214.334 176 383.001 176c164.667 0 291 -57.833 379 -173.5s132 -287.5 132 -515.5z
M924.998 681c0 355.333 -103.333 533.001 -310 533.001c-208 0 -312 -177.667 -312 -533c0 -180 26.333 -316 79 -408s130 -138 232 -138c108.667 0 187.667 46.667 237 140s74 228.666 74 405.999zM944.998 1465v-20h-105l-219 138h-2l-232 -138h-104v20l254 239h164z" />
    <glyph glyph-name="Otilde" unicode="&#xd5;" 
d="M1126 681c0 -224.667 -44.1689 -397.667 -132.502 -519s-215.166 -182 -380.499 -182c-166 0 -292.667 59.667 -380 179s-131 293.333 -131 522c0 224.667 43.333 395.667 130 513s214.334 176 383.001 176c164.667 0 291 -57.833 379 -173.5s132 -287.5 132 -515.5z
M924.998 681c0 355.333 -103.333 533.001 -310 533.001c-208 0 -312 -177.667 -312 -533c0 -180 26.333 -316 79 -408s130 -138 232 -138c108.667 0 187.667 46.667 237 140s74 228.666 74 405.999zM769.998 1445c-28 0 -56 6.16699 -84 18.5s-55.333 26 -82 41
s-52.834 28.667 -78.501 41s-50.167 18.5 -73.5 18.5c-16.667 0 -30 -3.16699 -40 -9.5s-18.333 -15.5 -25 -27.5s-13.667 -39.333 -21 -82h-111c7.33301 64 18.833 112.333 34.5 145s37.167 58 64.5 76s62 27 104 27c29.333 0 58 -6.16699 86 -18.5s55.333 -26 82 -41
s52.334 -28.667 77.001 -41s48 -18.5 70 -18.5c24.667 0 43.667 7.83301 57 23.5s23.333 47.5 30 95.5h112c-10.667 -92 -32.5 -156.333 -65.5 -193s-78.5 -55 -136.5 -55z" />
    <glyph glyph-name="Odieresis" unicode="&#xd6;" 
d="M1126 681c0 -224.667 -44.1689 -397.667 -132.502 -519s-215.166 -182 -380.499 -182c-166 0 -292.667 59.667 -380 179s-131 293.333 -131 522c0 224.667 43.333 395.667 130 513s214.334 176 383.001 176c164.667 0 291 -57.833 379 -173.5s132 -287.5 132 -515.5z
M924.998 681c0 355.333 -103.333 533.001 -310 533.001c-208 0 -312 -177.667 -312 -533c0 -180 26.333 -316 79 -408s130 -138 232 -138c108.667 0 187.667 46.667 237 140s74 228.666 74 405.999zM731.998 1445v184h163v-184h-163zM337.998 1445v184h165v-184h-165z" />
    <glyph glyph-name="multiply" unicode="&#xd7;" 
d="M157 330l354 354l-352 352l104 103l350 -353l350 351l105 -105l-350 -348l352 -352l-102 -105l-353 353l-356 -355z" />
    <glyph glyph-name="Oslash" unicode="&#xd8;" 
d="M1126 681c0 -224.667 -44.1699 -397.667 -132.503 -519s-215.166 -182 -380.499 -182c-145.333 0 -260.666 46 -345.999 138l-117 -156l-94 65l141 189c-63.333 116 -95 271 -95 465c0 224.667 43.333 395.667 130 513s214.334 176 383.001 176
c144.667 0 259.667 -44.667 345 -134l116 156l94 -65l-140 -187c64 -113.333 96 -266.333 96 -459zM924.997 681c0 109.333 -10 202.001 -30 278.001l-512 -686c52.667 -92 129.667 -138 231 -138c108.667 0 187.667 46.667 237 140s74 228.666 74 405.999zM302.997 681.001
c0 -110.667 10 -204.667 30 -282l512 684c-51.333 87.333 -128 131 -230 131c-208 0 -312 -177.667 -312 -533z" />
    <glyph glyph-name="Ugrave" unicode="&#xd9;" 
d="M1085 490c0 -178 -37.999 -307.499 -113.999 -388.499s-198 -121.5 -366 -121.5c-162.667 0 -280.5 39.167 -353.5 117.5s-109.5 203.166 -109.5 374.499v877h191v-851c0 -136 19.5 -230.5 58.5 -283.5s109.833 -79.5 212.5 -79.5c107.333 0 182.666 27.333 225.999 82
s65 152.667 65 294v838h190v-859zM605.001 1445l-300 230v29h197l227 -239v-20h-124z" />
    <glyph glyph-name="Uacute" unicode="&#xda;" 
d="M1085 490c0 -178 -37.999 -307.499 -113.999 -388.499s-198 -121.5 -366 -121.5c-162.667 0 -280.5 39.167 -353.5 117.5s-109.5 203.166 -109.5 374.499v877h191v-851c0 -136 19.5 -230.5 58.5 -283.5s109.833 -79.5 212.5 -79.5c107.333 0 182.666 27.333 225.999 82
s65 152.667 65 294v838h190v-859zM488.001 1445v20l227 239h197v-29l-300 -230h-124z" />
    <glyph glyph-name="Ucircumflex" unicode="&#xdb;" 
d="M1085 490c0 -178 -37.999 -307.499 -113.999 -388.499s-198 -121.5 -366 -121.5c-162.667 0 -280.5 39.167 -353.5 117.5s-109.5 203.166 -109.5 374.499v877h191v-851c0 -136 19.5 -230.5 58.5 -283.5s109.833 -79.5 212.5 -79.5c107.333 0 182.666 27.333 225.999 82
s65 152.667 65 294v838h190v-859zM945.001 1465v-20h-105l-219 138h-2l-232 -138h-104v20l254 239h164z" />
    <glyph glyph-name="Udieresis" unicode="&#xdc;" 
d="M1085 490c0 -178 -37.999 -307.499 -113.999 -388.499s-198 -121.5 -366 -121.5c-162.667 0 -280.5 39.167 -353.5 117.5s-109.5 203.166 -109.5 374.499v877h191v-851c0 -136 19.5 -230.5 58.5 -283.5s109.833 -79.5 212.5 -79.5c107.333 0 182.666 27.333 225.999 82
s65 152.667 65 294v838h190v-859zM729.001 1445v184h163v-184h-163zM335.001 1445v184h165v-184h-165z" />
    <glyph glyph-name="Yacute" unicode="&#xdd;" 
d="M708 584v-584h-188v584l-484 765h205l374 -611l372 611h205zM503 1445v20l227 239h197v-29l-300 -230h-124z" />
    <glyph glyph-name="Thorn" unicode="&#xde;" 
d="M1119 692c0 -85.333 -19.333 -161.167 -58 -227.5s-94.5 -118 -167.5 -155s-159.5 -55.5 -259.5 -55.5h-281v-254h-191v1349h191v-235h269c159.333 0 282 -37 368 -111s129 -177.667 129 -311zM927 687.999c0 89.333 -27.333 158.833 -82 208.5s-136.667 74.5 -246 74.5
h-246v-576h254c102 0 180.833 25.833 236.5 77.5s83.5 123.5 83.5 215.5z" />
    <glyph glyph-name="germandbls" unicode="&#xdf;" 
d="M1167 295c0 -101.333 -31.668 -180.667 -95.001 -238s-151 -86 -263 -86c-114 0 -208.333 16.333 -283 49l-2 164c38.667 -22 83.667 -39 135 -51s100 -18 146 -18c61.333 0 108.333 15.833 141 47.5s49 73.834 49 126.501c0 44.667 -13.667 84.5 -41 119.5
s-74.333 72.833 -141 113.5c-61.333 36.667 -107.166 76 -137.499 118s-45.5 90.333 -45.5 145c0 40.667 9.5 77.667 28.5 111s46.5 65 82.5 95c38.667 32 66.834 62 84.501 90s26.5 58.667 26.5 92c0 51.333 -22.333 92.5 -67 123.5s-103.334 46.5 -176.001 46.5
c-98.667 0 -171.167 -26.667 -217.5 -80s-69.5 -134 -69.5 -242v-1021h-180v1027c0 151.333 39.167 265.333 117.5 342s194.833 115 349.5 115c126.667 0 227.5 -26.833 302.5 -80.5s112.5 -125.834 112.5 -216.501c0 -92 -37.667 -171.667 -113 -239
c-47.333 -42 -78 -73 -92 -93s-21 -41.333 -21 -64c0 -28 11 -53.5 33 -76.5s72.667 -61.167 152 -114.5c59.333 -40 104.833 -85 136.5 -135s47.5 -106.667 47.5 -170z" />
    <glyph glyph-name="agrave" unicode="&#xe0;" 
d="M1101 111c17.333 0 36.999 2.33398 58.999 7.00098v-112c-45.333 -10.667 -91.666 -16 -138.999 -16c-66.667 0 -115.167 17.5 -145.5 52.5s-47.5 89.833 -51.5 164.5h-6c-43.333 -80.667 -94.5 -138.667 -153.5 -174s-131.833 -53 -218.5 -53
c-105.333 0 -184.666 28.667 -237.999 86s-80 136 -80 236c0 232.667 151.333 350.667 454 354l236 4v59c0 87.333 -17.667 150.166 -53 188.499s-91.666 57.5 -168.999 57.5c-78.667 0 -135.334 -14 -170.001 -42s-55.334 -71.333 -62.001 -130l-188 17
c30.667 194.667 171.667 292 423 292c133.333 0 233.5 -31.167 300.5 -93.5s100.5 -152.5 100.5 -270.5v-466c0 -53.333 7 -93.5 21 -120.5s40.667 -40.5 80 -40.5zM491.999 117.001c64 0 120.668 15.333 170.001 46s87.666 71.667 114.999 123s41 104.333 41 159v89
l-190 -4c-78.667 -1.33301 -138.667 -10 -180 -26s-73.5 -40.5 -96.5 -73.5s-34.5 -76.833 -34.5 -131.5s14.833 -98.667 44.5 -132s73.167 -50 130.5 -50zM588 1201l-300 230v29h197l227 -239v-20h-124z" />
    <glyph glyph-name="aacute" unicode="&#xe1;" 
d="M1101 111c17.333 0 36.999 2.33398 58.999 7.00098v-112c-45.333 -10.667 -91.666 -16 -138.999 -16c-66.667 0 -115.167 17.5 -145.5 52.5s-47.5 89.833 -51.5 164.5h-6c-43.333 -80.667 -94.5 -138.667 -153.5 -174s-131.833 -53 -218.5 -53
c-105.333 0 -184.666 28.667 -237.999 86s-80 136 -80 236c0 232.667 151.333 350.667 454 354l236 4v59c0 87.333 -17.667 150.166 -53 188.499s-91.666 57.5 -168.999 57.5c-78.667 0 -135.334 -14 -170.001 -42s-55.334 -71.333 -62.001 -130l-188 17
c30.667 194.667 171.667 292 423 292c133.333 0 233.5 -31.167 300.5 -93.5s100.5 -152.5 100.5 -270.5v-466c0 -53.333 7 -93.5 21 -120.5s40.667 -40.5 80 -40.5zM491.999 117.001c64 0 120.668 15.333 170.001 46s87.666 71.667 114.999 123s41 104.333 41 159v89
l-190 -4c-78.667 -1.33301 -138.667 -10 -180 -26s-73.5 -40.5 -96.5 -73.5s-34.5 -76.833 -34.5 -131.5s14.833 -98.667 44.5 -132s73.167 -50 130.5 -50zM479 1201v20l227 239h197v-29l-300 -230h-124z" />
    <glyph glyph-name="acircumflex" unicode="&#xe2;" 
d="M1101 111c17.333 0 36.999 2.33398 58.999 7.00098v-112c-45.333 -10.667 -91.666 -16 -138.999 -16c-66.667 0 -115.167 17.5 -145.5 52.5s-47.5 89.833 -51.5 164.5h-6c-43.333 -80.667 -94.5 -138.667 -153.5 -174s-131.833 -53 -218.5 -53
c-105.333 0 -184.666 28.667 -237.999 86s-80 136 -80 236c0 232.667 151.333 350.667 454 354l236 4v59c0 87.333 -17.667 150.166 -53 188.499s-91.666 57.5 -168.999 57.5c-78.667 0 -135.334 -14 -170.001 -42s-55.334 -71.333 -62.001 -130l-188 17
c30.667 194.667 171.667 292 423 292c133.333 0 233.5 -31.167 300.5 -93.5s100.5 -152.5 100.5 -270.5v-466c0 -53.333 7 -93.5 21 -120.5s40.667 -40.5 80 -40.5zM491.999 117.001c64 0 120.668 15.333 170.001 46s87.666 71.667 114.999 123s41 104.333 41 159v89
l-190 -4c-78.667 -1.33301 -138.667 -10 -180 -26s-73.5 -40.5 -96.5 -73.5s-34.5 -76.833 -34.5 -131.5s14.833 -98.667 44.5 -132s73.167 -50 130.5 -50zM927 1221v-20h-105l-219 138h-2l-232 -138h-104v20l254 239h164z" />
    <glyph glyph-name="atilde" unicode="&#xe3;" 
d="M1101 111c17.333 0 36.999 2.33398 58.999 7.00098v-112c-45.333 -10.667 -91.666 -16 -138.999 -16c-66.667 0 -115.167 17.5 -145.5 52.5s-47.5 89.833 -51.5 164.5h-6c-43.333 -80.667 -94.5 -138.667 -153.5 -174s-131.833 -53 -218.5 -53
c-105.333 0 -184.666 28.667 -237.999 86s-80 136 -80 236c0 232.667 151.333 350.667 454 354l236 4v59c0 87.333 -17.667 150.166 -53 188.499s-91.666 57.5 -168.999 57.5c-78.667 0 -135.334 -14 -170.001 -42s-55.334 -71.333 -62.001 -130l-188 17
c30.667 194.667 171.667 292 423 292c133.333 0 233.5 -31.167 300.5 -93.5s100.5 -152.5 100.5 -270.5v-466c0 -53.333 7 -93.5 21 -120.5s40.667 -40.5 80 -40.5zM491.999 117.001c64 0 120.668 15.333 170.001 46s87.666 71.667 114.999 123s41 104.333 41 159v89
l-190 -4c-78.667 -1.33301 -138.667 -10 -180 -26s-73.5 -40.5 -96.5 -73.5s-34.5 -76.833 -34.5 -131.5s14.833 -98.667 44.5 -132s73.167 -50 130.5 -50zM762 1201c-28 0 -56 6.16699 -84 18.5s-55.333 26 -82 41s-52.834 28.667 -78.501 41s-50.167 18.5 -73.5 18.5
c-16.667 0 -30 -3.16699 -40 -9.5s-18.333 -15.5 -25 -27.5s-13.667 -39.333 -21 -82h-111c7.33301 64 18.833 112.333 34.5 145s37.167 58 64.5 76s62 27 104 27c29.333 0 58 -6.16699 86 -18.5s55.333 -26 82 -41s52.334 -28.667 77.001 -41s48 -18.5 70 -18.5
c24.667 0 43.667 7.83301 57 23.5s23.333 47.5 30 95.5h112c-10.667 -92 -32.5 -156.333 -65.5 -193s-78.5 -55 -136.5 -55z" />
    <glyph glyph-name="adieresis" unicode="&#xe4;" 
d="M1101 111c17.333 0 36.999 2.33398 58.999 7.00098v-112c-45.333 -10.667 -91.666 -16 -138.999 -16c-66.667 0 -115.167 17.5 -145.5 52.5s-47.5 89.833 -51.5 164.5h-6c-43.333 -80.667 -94.5 -138.667 -153.5 -174s-131.833 -53 -218.5 -53
c-105.333 0 -184.666 28.667 -237.999 86s-80 136 -80 236c0 232.667 151.333 350.667 454 354l236 4v59c0 87.333 -17.667 150.166 -53 188.499s-91.666 57.5 -168.999 57.5c-78.667 0 -135.334 -14 -170.001 -42s-55.334 -71.333 -62.001 -130l-188 17
c30.667 194.667 171.667 292 423 292c133.333 0 233.5 -31.167 300.5 -93.5s100.5 -152.5 100.5 -270.5v-466c0 -53.333 7 -93.5 21 -120.5s40.667 -40.5 80 -40.5zM491.999 117.001c64 0 120.668 15.333 170.001 46s87.666 71.667 114.999 123s41 104.333 41 159v89
l-190 -4c-78.667 -1.33301 -138.667 -10 -180 -26s-73.5 -40.5 -96.5 -73.5s-34.5 -76.833 -34.5 -131.5s14.833 -98.667 44.5 -132s73.167 -50 130.5 -50zM713 1219v184h163v-184h-163zM319 1219v184h165v-184h-165z" />
    <glyph glyph-name="aring" unicode="&#xe5;" 
d="M1101 111c17.333 0 36.999 2.33398 58.999 7.00098v-112c-45.333 -10.667 -91.666 -16 -138.999 -16c-66.667 0 -115.167 17.5 -145.5 52.5s-47.5 89.833 -51.5 164.5h-6c-43.333 -80.667 -94.5 -138.667 -153.5 -174s-131.833 -53 -218.5 -53
c-105.333 0 -184.666 28.667 -237.999 86s-80 136 -80 236c0 232.667 151.333 350.667 454 354l236 4v59c0 87.333 -17.667 150.166 -53 188.499s-91.666 57.5 -168.999 57.5c-78.667 0 -135.334 -14 -170.001 -42s-55.334 -71.333 -62.001 -130l-188 17
c30.667 194.667 171.667 292 423 292c133.333 0 233.5 -31.167 300.5 -93.5s100.5 -152.5 100.5 -270.5v-466c0 -53.333 7 -93.5 21 -120.5s40.667 -40.5 80 -40.5zM491.999 117.001c64 0 120.668 15.333 170.001 46s87.666 71.667 114.999 123s41 104.333 41 159v89
l-190 -4c-78.667 -1.33301 -138.667 -10 -180 -26s-73.5 -40.5 -96.5 -73.5s-34.5 -76.833 -34.5 -131.5s14.833 -98.667 44.5 -132s73.167 -50 130.5 -50zM848 1348c0 -58 -21.833 -105.833 -65.5 -143.5s-102.5 -56.5 -176.5 -56.5c-74.667 0 -133.667 18.833 -177 56.5
s-65 85.5 -65 143.5c0 59.333 22.167 107.333 66.5 144s102.833 55 175.5 55c74 0 132.833 -18.5 176.5 -55.5s65.5 -84.833 65.5 -143.5zM727 1348c0 24.667 -10.833 44.667 -32.5 60s-51.167 23 -88.5 23c-36.667 0 -66.167 -7.66699 -88.5 -23s-33.5 -35.333 -33.5 -60
c0 -25.333 11.167 -45.666 33.5 -60.999s51.833 -23 88.5 -23c37.333 0 66.833 7.66699 88.5 23s32.5 35.666 32.5 60.999z" />
    <glyph glyph-name="ae" unicode="&#xe6;" 
d="M679 503l0.00195312 -17c3.33301 -247.333 65 -371 185 -371c50 0 89.833 15.667 119.5 47s49.834 71 60.501 119l138 -45c-45.333 -170.667 -150 -256 -314 -256c-80.667 0 -143.834 18.333 -189.501 55s-79.834 95.667 -102.501 177
c-34.667 -81.333 -76.834 -140.333 -126.501 -177s-106.834 -55 -171.501 -55c-86 0 -150.5 27.333 -193.5 82s-64.5 134.667 -64.5 240c0 232.667 110 350.667 330 354l167 4v59c0 90 -10.667 153.5 -32 190.5s-56 55.5 -104 55.5c-49.333 0 -85.166 -13.5 -107.499 -40.5
s-35.833 -70.833 -40.5 -131.5l-168 17c12.667 100.667 44.834 174.5 96.501 221.5s124.5 70.5 218.5 70.5c117.333 0 199.666 -46.333 246.999 -139c56.667 92.667 138.667 139 246 139c110.667 0 194.167 -47.167 250.5 -141.5s84.5 -238.833 84.5 -433.5v-24h-529z
M189.002 299c0 -54.667 9.5 -98.667 28.5 -132s47.5 -50 85.5 -50c42.667 0 80 14.833 112 44.5s57 69.667 75 120s27 104.833 27 163.5v89l-122 -4c-52.667 -1.33301 -92.5 -10 -119.5 -26s-48.167 -40.667 -63.5 -74s-23 -77 -23 -131zM859.002 969
c-54.667 0 -97.501 -29 -128.501 -87s-47.5 -138.333 -49.5 -241h361c-6 114 -23.667 197.167 -53 249.5s-72.666 78.5 -129.999 78.5z" />
    <glyph glyph-name="ccedilla" unicode="&#xe7;" 
d="M130 542c0 180 43.002 318.333 129.002 415s210.333 145 373 145c121.333 0 221.333 -29.167 300 -87.5s127.334 -136.833 146.001 -235.5l-192 -14c-10.667 60.667 -37.334 108.5 -80.001 143.5s-103.334 52.5 -182.001 52.5c-105.333 0 -182.5 -32.667 -231.5 -98
s-73.5 -171 -73.5 -317c0 -148 24.5 -256.167 73.5 -324.5s125.833 -102.5 230.5 -102.5c72 0 131.667 17.667 179 53s76.666 89.333 87.999 162l190 -12c-8.66699 -64 -32.834 -122.167 -72.501 -174.5s-92.167 -93.333 -157.5 -123s-138.333 -44.5 -219 -44.5
c-163.333 0 -287.666 48 -372.999 144s-128 235.333 -128 418zM820.002 -258c0 -124 -91.333 -186 -274 -186c-38 0 -68 1.33301 -90 4v98c33.333 -4 62 -6 86 -6c98 0 147 28.667 147 86c0 26.667 -10.167 47 -30.5 61s-54.5 21 -102.5 21
c-28.667 0 -47.667 -0.666992 -57 -2l65 182h107l-39 -100c62.667 -2 109.667 -16.833 141 -44.5s47 -65.5 47 -113.5z" />
    <glyph glyph-name="egrave" unicode="&#xe8;" 
d="M322 503c0 -121.333 26.8301 -216.333 80.4971 -285s127.167 -103 220.5 -103c68.667 0 128.834 14.833 180.501 44.5s86.167 70.167 103.5 121.5l158 -45c-29.333 -82.667 -83.166 -146 -161.499 -190s-171.833 -66 -280.5 -66c-157.333 0 -278.333 49 -363 147
s-127 238.333 -127 421c0 178 41.5 314.833 124.5 410.5s202.833 143.5 359.5 143.5s275.334 -47.667 356.001 -143s121 -239.333 121 -432v-24h-772zM618.997 969c-89.333 0 -160 -29.167 -212 -87.5s-79.667 -138.5 -83 -240.5h584c-18.667 218.667 -115 328 -289 328z
M622.997 1201l-300 230v29h197l227 -239v-20h-124z" />
    <glyph glyph-name="eacute" unicode="&#xe9;" 
d="M322 503c0 -121.333 26.8301 -216.333 80.4971 -285s127.167 -103 220.5 -103c68.667 0 128.834 14.833 180.501 44.5s86.167 70.167 103.5 121.5l158 -45c-29.333 -82.667 -83.166 -146 -161.499 -190s-171.833 -66 -280.5 -66c-157.333 0 -278.333 49 -363 147
s-127 238.333 -127 421c0 178 41.5 314.833 124.5 410.5s202.833 143.5 359.5 143.5s275.334 -47.667 356.001 -143s121 -239.333 121 -432v-24h-772zM618.997 969c-89.333 0 -160 -29.167 -212 -87.5s-79.667 -138.5 -83 -240.5h584c-18.667 218.667 -115 328 -289 328z
M512.997 1201v20l227 239h197v-29l-300 -230h-124z" />
    <glyph glyph-name="ecircumflex" unicode="&#xea;" 
d="M322 503c0 -121.333 26.8301 -216.333 80.4971 -285s127.167 -103 220.5 -103c68.667 0 128.834 14.833 180.501 44.5s86.167 70.167 103.5 121.5l158 -45c-29.333 -82.667 -83.166 -146 -161.499 -190s-171.833 -66 -280.5 -66c-157.333 0 -278.333 49 -363 147
s-127 238.333 -127 421c0 178 41.5 314.833 124.5 410.5s202.833 143.5 359.5 143.5s275.334 -47.667 356.001 -143s121 -239.333 121 -432v-24h-772zM618.997 969c-89.333 0 -160 -29.167 -212 -87.5s-79.667 -138.5 -83 -240.5h584c-18.667 218.667 -115 328 -289 328z
M951.997 1221v-20h-105l-219 138h-2l-232 -138h-104v20l254 239h164z" />
    <glyph glyph-name="edieresis" unicode="&#xeb;" 
d="M322 503c0 -121.333 26.8301 -216.333 80.4971 -285s127.167 -103 220.5 -103c68.667 0 128.834 14.833 180.501 44.5s86.167 70.167 103.5 121.5l158 -45c-29.333 -82.667 -83.166 -146 -161.499 -190s-171.833 -66 -280.5 -66c-157.333 0 -278.333 49 -363 147
s-127 238.333 -127 421c0 178 41.5 314.833 124.5 410.5s202.833 143.5 359.5 143.5s275.334 -47.667 356.001 -143s121 -239.333 121 -432v-24h-772zM618.997 969c-89.333 0 -160 -29.167 -212 -87.5s-79.667 -138.5 -83 -240.5h584c-18.667 218.667 -115 328 -289 328z
M736.997 1219v184h163v-184h-163zM342.997 1219v184h165v-184h-165z" />
    <glyph glyph-name="igrave" unicode="&#xec;" 
d="M745 142h380v-142h-982v142h422v798h-319v142h499v-940zM635 1201l-300 230v29h197l227 -239v-20h-124z" />
    <glyph glyph-name="iacute" unicode="&#xed;" 
d="M745 142h380v-142h-982v142h422v798h-319v142h499v-940zM506 1201v20l227 239h197v-29l-300 -230h-124z" />
    <glyph glyph-name="icircumflex" unicode="&#xee;" 
d="M745 142h380v-142h-982v142h422v798h-319v142h499v-940zM955 1221v-20h-105l-219 138h-2l-232 -138h-104v20l254 239h164z" />
    <glyph glyph-name="idieresis" unicode="&#xef;" 
d="M745 142h380v-142h-982v142h422v798h-319v142h499v-940zM770 1219v184h163v-184h-163zM376 1219v184h165v-184h-165z" />
    <glyph glyph-name="eth" unicode="&#xf0;" 
d="M612 979c91.333 0 168.335 -19.668 231.002 -59.001c-56.667 130 -130 235.667 -220 317l-260 -115l-55 110l218 94c-72.667 58 -153.334 110.667 -242.001 158h209c53.333 -24 110 -58 170 -102l264 114l55 -108l-211 -92c220.667 -200.667 331 -460.667 331 -780v-6
c0 -174 -41.833 -305.833 -125.5 -395.5s-207.5 -134.5 -371.5 -134.5c-154.667 0 -273.334 43 -356.001 129s-124 210 -124 372c0 162.667 41.333 286.334 124 371.001s203.667 127 363 127zM913.002 480.999c0 128 -23.5 220.833 -70.5 278.5s-122.5 86.5 -226.5 86.5
c-104.667 0 -181.167 -29 -229.5 -87s-72.5 -150.667 -72.5 -278c0 -126.667 24 -219.667 72 -279s120.333 -89 217 -89c107.333 0 185.833 29.167 235.5 87.5s74.5 151.833 74.5 280.5z" />
    <glyph glyph-name="ntilde" unicode="&#xf1;" 
d="M868 0l-0.000976562 694.998c0 90.667 -17.5 158 -52.5 202s-90.833 66 -167.5 66c-82.667 0 -150.5 -30.167 -203.5 -90.5s-79.5 -142.166 -79.5 -245.499v-627h-180v851c0 126 -2 203 -6 231h170c0.666992 -3.33301 1.33398 -12.333 2.00098 -27s1.5 -31.5 2.5 -50.5
s2.16699 -54.833 3.5 -107.5h3c70 136.667 185.333 205 346 205c115.333 0 201.333 -31.167 258 -93.5s85 -158.166 85 -287.499v-721h-181zM779.999 1201c-28 0 -56 6.16699 -84 18.5s-55.333 26 -82 41s-52.834 28.667 -78.501 41s-50.167 18.5 -73.5 18.5
c-16.667 0 -30 -3.16699 -40 -9.5s-18.333 -15.5 -25 -27.5s-13.667 -39.333 -21 -82h-111c7.33301 64 18.833 112.333 34.5 145s37.167 58 64.5 76s62 27 104 27c29.333 0 58 -6.16699 86 -18.5s55.333 -26 82 -41s52.334 -28.667 77.001 -41s48 -18.5 70 -18.5
c24.667 0 43.667 7.83301 57 23.5s23.333 47.5 30 95.5h112c-10.667 -92 -32.5 -156.333 -65.5 -193s-78.5 -55 -136.5 -55z" />
    <glyph glyph-name="ograve" unicode="&#xf2;" 
d="M1097 542c0 -182 -41.833 -321.167 -125.5 -417.5s-204.5 -144.5 -362.5 -144.5c-154.667 0 -273.167 48.667 -355.5 146s-123.5 236 -123.5 416c0 186 42.167 325.833 126.5 419.5s203.833 140.5 358.5 140.5c162.667 0 283.667 -46.333 363 -139s119 -233 119 -421z
M908 542c0 143.333 -22.833 250.334 -68.5 321.001s-119.5 106 -221.5 106c-103.333 0 -179 -36 -227 -108s-72 -178.333 -72 -319c0 -140 24 -246.5 72 -319.5s120 -109.5 216 -109.5c106 0 182.667 35.667 230 107s71 178.666 71 321.999zM632 1201l-300 230v29h197
l227 -239v-20h-124z" />
    <glyph glyph-name="oacute" unicode="&#xf3;" 
d="M1097 542c0 -182 -41.833 -321.167 -125.5 -417.5s-204.5 -144.5 -362.5 -144.5c-154.667 0 -273.167 48.667 -355.5 146s-123.5 236 -123.5 416c0 186 42.167 325.833 126.5 419.5s203.833 140.5 358.5 140.5c162.667 0 283.667 -46.333 363 -139s119 -233 119 -421z
M908 542c0 143.333 -22.833 250.334 -68.5 321.001s-119.5 106 -221.5 106c-103.333 0 -179 -36 -227 -108s-72 -178.333 -72 -319c0 -140 24 -246.5 72 -319.5s120 -109.5 216 -109.5c106 0 182.667 35.667 230 107s71 178.666 71 321.999zM503 1201v20l227 239h197v-29
l-300 -230h-124z" />
    <glyph glyph-name="ocircumflex" unicode="&#xf4;" 
d="M1097 542c0 -182 -41.833 -321.167 -125.5 -417.5s-204.5 -144.5 -362.5 -144.5c-154.667 0 -273.167 48.667 -355.5 146s-123.5 236 -123.5 416c0 186 42.167 325.833 126.5 419.5s203.833 140.5 358.5 140.5c162.667 0 283.667 -46.333 363 -139s119 -233 119 -421z
M908 542c0 143.333 -22.833 250.334 -68.5 321.001s-119.5 106 -221.5 106c-103.333 0 -179 -36 -227 -108s-72 -178.333 -72 -319c0 -140 24 -246.5 72 -319.5s120 -109.5 216 -109.5c106 0 182.667 35.667 230 107s71 178.666 71 321.999zM945 1221v-20h-105l-219 138h-2
l-232 -138h-104v20l254 239h164z" />
    <glyph glyph-name="otilde" unicode="&#xf5;" 
d="M1097 542c0 -182 -41.833 -321.167 -125.5 -417.5s-204.5 -144.5 -362.5 -144.5c-154.667 0 -273.167 48.667 -355.5 146s-123.5 236 -123.5 416c0 186 42.167 325.833 126.5 419.5s203.833 140.5 358.5 140.5c162.667 0 283.667 -46.333 363 -139s119 -233 119 -421z
M908 542c0 143.333 -22.833 250.334 -68.5 321.001s-119.5 106 -221.5 106c-103.333 0 -179 -36 -227 -108s-72 -178.333 -72 -319c0 -140 24 -246.5 72 -319.5s120 -109.5 216 -109.5c106 0 182.667 35.667 230 107s71 178.666 71 321.999zM770 1201
c-28 0 -56 6.16699 -84 18.5s-55.333 26 -82 41s-52.834 28.667 -78.501 41s-50.167 18.5 -73.5 18.5c-16.667 0 -30 -3.16699 -40 -9.5s-18.333 -15.5 -25 -27.5s-13.667 -39.333 -21 -82h-111c7.33301 64 18.833 112.333 34.5 145s37.167 58 64.5 76s62 27 104 27
c29.333 0 58 -6.16699 86 -18.5s55.333 -26 82 -41s52.334 -28.667 77.001 -41s48 -18.5 70 -18.5c24.667 0 43.667 7.83301 57 23.5s23.333 47.5 30 95.5h112c-10.667 -92 -32.5 -156.333 -65.5 -193s-78.5 -55 -136.5 -55z" />
    <glyph glyph-name="odieresis" unicode="&#xf6;" 
d="M1097 542c0 -182 -41.833 -321.167 -125.5 -417.5s-204.5 -144.5 -362.5 -144.5c-154.667 0 -273.167 48.667 -355.5 146s-123.5 236 -123.5 416c0 186 42.167 325.833 126.5 419.5s203.833 140.5 358.5 140.5c162.667 0 283.667 -46.333 363 -139s119 -233 119 -421z
M908 542c0 143.333 -22.833 250.334 -68.5 321.001s-119.5 106 -221.5 106c-103.333 0 -179 -36 -227 -108s-72 -178.333 -72 -319c0 -140 24 -246.5 72 -319.5s120 -109.5 216 -109.5c106 0 182.667 35.667 230 107s71 178.666 71 321.999zM729 1219v184h163v-184h-163z
M335 1219v184h165v-184h-165z" />
    <glyph glyph-name="divide" unicode="&#xf7;" 
d="M529 958v183h168v-183h-168zM116 608v146h995v-146h-995zM529 223v183h168v-183h-168z" />
    <glyph glyph-name="oslash" unicode="&#xf8;" 
d="M1117 542c0 -181.333 -43.333 -320.333 -130 -417s-212.667 -145 -378 -145c-136 0 -246.333 35.667 -331 107l-77 -87l-76 68l84 95c-66 94.667 -99 221 -99 379c0 181.333 42.833 320 128.5 416s211.167 144 376.5 144c142 0 253.667 -33.333 335 -100l72 82l78 -68
l-80 -90c64.667 -91.333 97 -219.333 97 -384zM928 542c0 98 -11 178.667 -33 242l-509 -576c51.333 -63.333 125 -95 221 -95c112 0 193.5 35.5 244.5 106.5s76.5 178.5 76.5 322.5zM299 542c0 -97.333 11.333 -176.667 34 -238l509 576c-50 59.333 -124.667 89 -224 89
c-109.333 0 -189.833 -35.833 -241.5 -107.5s-77.5 -178.167 -77.5 -319.5z" />
    <glyph glyph-name="ugrave" unicode="&#xf9;" 
d="M365 1082v-686.001c0 -104 16.333 -176.167 49 -216.5s91 -60.5 175 -60.5c86 0 154 29.333 204 88s75 141.334 75 248.001v627h181v-851c0 -126 2 -203 6 -231h-170c-0.666992 3.33301 -1.33398 12.333 -2.00098 27s-1.5 31.5 -2.5 50.5s-2.16699 54.833 -3.5 107.5h-3
c-41.333 -74.667 -89.166 -127.5 -143.499 -158.5s-121.833 -46.5 -202.5 -46.5c-118.667 0 -205.5 29.5 -260.5 88.5s-82.5 156.5 -82.5 292.5v721h180zM608 1201l-300 230v29h197l227 -239v-20h-124z" />
    <glyph glyph-name="uacute" unicode="&#xfa;" 
d="M365 1082v-686.001c0 -104 16.333 -176.167 49 -216.5s91 -60.5 175 -60.5c86 0 154 29.333 204 88s75 141.334 75 248.001v627h181v-851c0 -126 2 -203 6 -231h-170c-0.666992 3.33301 -1.33398 12.333 -2.00098 27s-1.5 31.5 -2.5 50.5s-2.16699 54.833 -3.5 107.5h-3
c-41.333 -74.667 -89.166 -127.5 -143.499 -158.5s-121.833 -46.5 -202.5 -46.5c-118.667 0 -205.5 29.5 -260.5 88.5s-82.5 156.5 -82.5 292.5v721h180zM492 1201v20l227 239h197v-29l-300 -230h-124z" />
    <glyph glyph-name="ucircumflex" unicode="&#xfb;" 
d="M365 1082v-686.001c0 -104 16.333 -176.167 49 -216.5s91 -60.5 175 -60.5c86 0 154 29.333 204 88s75 141.334 75 248.001v627h181v-851c0 -126 2 -203 6 -231h-170c-0.666992 3.33301 -1.33398 12.333 -2.00098 27s-1.5 31.5 -2.5 50.5s-2.16699 54.833 -3.5 107.5h-3
c-41.333 -74.667 -89.166 -127.5 -143.499 -158.5s-121.833 -46.5 -202.5 -46.5c-118.667 0 -205.5 29.5 -260.5 88.5s-82.5 156.5 -82.5 292.5v721h180zM945 1221v-20h-105l-219 138h-2l-232 -138h-104v20l254 239h164z" />
    <glyph glyph-name="udieresis" unicode="&#xfc;" 
d="M365 1082v-686.001c0 -104 16.333 -176.167 49 -216.5s91 -60.5 175 -60.5c86 0 154 29.333 204 88s75 141.334 75 248.001v627h181v-851c0 -126 2 -203 6 -231h-170c-0.666992 3.33301 -1.33398 12.333 -2.00098 27s-1.5 31.5 -2.5 50.5s-2.16699 54.833 -3.5 107.5h-3
c-41.333 -74.667 -89.166 -127.5 -143.499 -158.5s-121.833 -46.5 -202.5 -46.5c-118.667 0 -205.5 29.5 -260.5 88.5s-82.5 156.5 -82.5 292.5v721h180zM729 1219v184h163v-184h-163zM335 1219v184h165v-184h-165z" />
    <glyph glyph-name="yacute" unicode="&#xfd;" 
d="M292 -425c-49.333 0 -90.667 3.66699 -124 11v135c25.333 -4 53.333 -6 84 -6c52.667 0 102.167 19.667 148.5 59s85.5 102 117.5 188l18 49l-470 1071h192l264 -642c60.667 -149.333 93.334 -234 98.001 -254l41 110l310 786h190l-456 -1082
c-59.333 -156.667 -120.833 -266.667 -184.5 -330s-139.834 -95 -228.501 -95zM508.999 1201v20l227 239h197v-29l-300 -230h-124z" />
    <glyph glyph-name="thorn" unicode="&#xfe;" 
d="M904 546c0 150.667 -20.333 258.167 -61 322.5s-104.667 96.5 -192 96.5c-100.667 0 -173.334 -36.5 -218.001 -109.5s-67 -183.5 -67 -331.5c0 -142 22.333 -246 67 -312s116.667 -99 216 -99c88.667 0 153.334 33.667 194.001 101s61 178 61 332zM368 904
c33.333 70 75.833 120.831 127.5 152.498s119.167 47.5 202.5 47.5c132 0 230.333 -45.5 295 -136.5s97 -231.5 97 -421.5c0 -377.333 -130.667 -566 -392 -566c-164 0 -274.333 61.333 -331 184h-5c2.66699 -5.33301 4 -60.666 4 -165.999v-423h-181v1909h180v-423
c0 -43.333 -1.33301 -95.666 -4 -156.999h7z" />
    <glyph glyph-name="ydieresis" unicode="&#xff;" 
d="M292 -425c-49.333 0 -90.667 3.66699 -124 11v135c25.333 -4 53.333 -6 84 -6c52.667 0 102.167 19.667 148.5 59s85.5 102 117.5 188l18 49l-470 1071h192l264 -642c60.667 -149.333 93.334 -234 98.001 -254l41 110l310 786h190l-456 -1082
c-59.333 -156.667 -120.833 -266.667 -184.5 -330s-139.834 -95 -228.501 -95zM733.999 1219v184h163v-184h-163zM339.999 1219v184h165v-184h-165z" />
    <glyph glyph-name="Amacron" unicode="&#x100;" 
d="M1034 0l-138 382h-563l-137 -382h-196l510 1349h217l501 -1349h-194zM616 1205l-12 -39l-69 -212l-151 -423h463l-173 500zM890 1503h-551v127h551v-127z" />
    <glyph glyph-name="amacron" unicode="&#x101;" 
d="M1101 111c17.333 0 36.999 2.33398 58.999 7.00098v-112c-45.333 -10.667 -91.666 -16 -138.999 -16c-66.667 0 -115.167 17.5 -145.5 52.5s-47.5 89.833 -51.5 164.5h-6c-43.333 -80.667 -94.5 -138.667 -153.5 -174s-131.833 -53 -218.5 -53
c-105.333 0 -184.666 28.667 -237.999 86s-80 136 -80 236c0 232.667 151.333 350.667 454 354l236 4v59c0 87.333 -17.667 150.166 -53 188.499s-91.666 57.5 -168.999 57.5c-78.667 0 -135.334 -14 -170.001 -42s-55.334 -71.333 -62.001 -130l-188 17
c30.667 194.667 171.667 292 423 292c133.333 0 233.5 -31.167 300.5 -93.5s100.5 -152.5 100.5 -270.5v-466c0 -53.333 7 -93.5 21 -120.5s40.667 -40.5 80 -40.5zM491.999 117.001c64 0 120.668 15.333 170.001 46s87.666 71.667 114.999 123s41 104.333 41 159v89
l-190 -4c-78.667 -1.33301 -138.667 -10 -180 -26s-73.5 -40.5 -96.5 -73.5s-34.5 -76.833 -34.5 -131.5s14.833 -98.667 44.5 -132s73.167 -50 130.5 -50zM851 1236h-551v127h551v-127z" />
    <glyph glyph-name="Abreve" unicode="&#x102;" 
d="M1034 0l-138 382h-563l-137 -382h-196l510 1349h217l501 -1349h-194zM616 1205l-12 -39l-69 -212l-151 -423h463l-173 500zM613 1446c-82.667 0 -151.833 23.667 -207.5 71s-90.5 110 -104.5 188h127c11.333 -42 31.333 -74.667 60 -98s70.334 -35 125.001 -35
c56.667 0 99.167 11.667 127.5 35s48.166 56 59.499 98h127c-16 -79.333 -51.5 -142.333 -106.5 -189s-124.167 -70 -207.5 -70z" />
    <glyph glyph-name="abreve" unicode="&#x103;" 
d="M1101 111c17.333 0 36.999 2.33398 58.999 7.00098v-112c-45.333 -10.667 -91.666 -16 -138.999 -16c-66.667 0 -115.167 17.5 -145.5 52.5s-47.5 89.833 -51.5 164.5h-6c-43.333 -80.667 -94.5 -138.667 -153.5 -174s-131.833 -53 -218.5 -53
c-105.333 0 -184.666 28.667 -237.999 86s-80 136 -80 236c0 232.667 151.333 350.667 454 354l236 4v59c0 87.333 -17.667 150.166 -53 188.499s-91.666 57.5 -168.999 57.5c-78.667 0 -135.334 -14 -170.001 -42s-55.334 -71.333 -62.001 -130l-188 17
c30.667 194.667 171.667 292 423 292c133.333 0 233.5 -31.167 300.5 -93.5s100.5 -152.5 100.5 -270.5v-466c0 -53.333 7 -93.5 21 -120.5s40.667 -40.5 80 -40.5zM491.999 117.001c64 0 120.668 15.333 170.001 46s87.666 71.667 114.999 123s41 104.333 41 159v89
l-190 -4c-78.667 -1.33301 -138.667 -10 -180 -26s-73.5 -40.5 -96.5 -73.5s-34.5 -76.833 -34.5 -131.5s14.833 -98.667 44.5 -132s73.167 -50 130.5 -50zM594 1201c-82.667 0 -151.833 23.667 -207.5 71s-90.5 110 -104.5 188h127c11.333 -42 31.333 -74.667 60 -98
s70.334 -35 125.001 -35c56.667 0 99.167 11.667 127.5 35s48.166 56 59.499 98h127c-16 -79.333 -51.5 -142.333 -106.5 -189s-124.167 -70 -207.5 -70z" />
    <glyph glyph-name="Aogonek" unicode="&#x104;" 
d="M1034 0l-138 382h-563l-137 -382h-196l510 1349h217l501 -1349h-194zM616 1205l-12 -39l-69 -212l-151 -423h463l-173 500zM1247 -389c-42 -18 -88.332 -27 -138.999 -27c-70 0 -122.667 17 -158 51s-53 79.333 -53 136c0 45.333 13.833 89.833 41.5 133.5
s65.5 79.167 113.5 106.5h133c-42.667 -24 -77.834 -56.833 -105.501 -98.5s-41.5 -84.5 -41.5 -128.5c0 -28 8.16699 -50 24.5 -66s39.5 -24 69.5 -24c36 0 74.333 8 115 24v-107z" />
    <glyph glyph-name="aogonek" unicode="&#x105;" 
d="M1101 111c17.333 0 36.999 2.33398 58.999 7.00098v-112c-45.333 -10.667 -91.666 -16 -138.999 -16c-66.667 0 -115.167 17.5 -145.5 52.5s-47.5 89.833 -51.5 164.5h-6c-43.333 -80.667 -94.5 -138.667 -153.5 -174s-131.833 -53 -218.5 -53
c-105.333 0 -184.666 28.667 -237.999 86s-80 136 -80 236c0 232.667 151.333 350.667 454 354l236 4v59c0 87.333 -17.667 150.166 -53 188.499s-91.666 57.5 -168.999 57.5c-78.667 0 -135.334 -14 -170.001 -42s-55.334 -71.333 -62.001 -130l-188 17
c30.667 194.667 171.667 292 423 292c133.333 0 233.5 -31.167 300.5 -93.5s100.5 -152.5 100.5 -270.5v-466c0 -53.333 7 -93.5 21 -120.5s40.667 -40.5 80 -40.5zM491.999 117.001c64 0 120.668 15.333 170.001 46s87.666 71.667 114.999 123s41 104.333 41 159v89
l-190 -4c-78.667 -1.33301 -138.667 -10 -180 -26s-73.5 -40.5 -96.5 -73.5s-34.5 -76.833 -34.5 -131.5s14.833 -98.667 44.5 -132s73.167 -50 130.5 -50zM1160 -399.999c-42 -18 -88.332 -27 -138.999 -27c-70 0 -122.667 17 -158 51s-53 79.333 -53 136
c0 45.333 13.833 89.833 41.5 133.5s65.5 79.167 113.5 106.5h133c-42.667 -24 -77.834 -56.833 -105.501 -98.5s-41.5 -84.5 -41.5 -128.5c0 -28 8.16699 -50 24.5 -66s39.5 -24 69.5 -24c36 0 74.333 8 115 24v-107z" />
    <glyph glyph-name="Cacute" unicode="&#x106;" 
d="M314 681c0 -182 28.499 -318.501 85.499 -409.501s144.167 -136.5 261.5 -136.5c67.333 0 128.333 22.833 183 68.5s101 116.834 139 213.501l159 -65c-99.333 -248 -260.333 -372 -483 -372c-175.333 0 -310.166 60.333 -404.499 181s-141.5 294 -141.5 520
c0 459.333 178.667 689 536 689c226 0 381.333 -111.667 466 -335l-168 -65c-24.667 75.333 -63.167 134.833 -115.5 178.5s-112.833 65.5 -181.5 65.5c-114 0 -198.5 -43 -253.5 -129s-82.5 -220.667 -82.5 -404zM533.999 1445v20l227 239h197v-29l-300 -230h-124z" />
    <glyph glyph-name="cacute" unicode="&#x107;" 
d="M130 542c0 180 43.002 318.333 129.002 415s210.333 145 373 145c121.333 0 221.333 -29.167 300 -87.5s127.334 -136.833 146.001 -235.5l-192 -14c-10.667 60.667 -37.334 108.5 -80.001 143.5s-103.334 52.5 -182.001 52.5c-105.333 0 -182.5 -32.667 -231.5 -98
s-73.5 -171 -73.5 -317c0 -148 24.5 -256.167 73.5 -324.5s125.833 -102.5 230.5 -102.5c72 0 131.667 17.667 179 53s76.666 89.333 87.999 162l190 -12c-8.66699 -64 -32.834 -122.167 -72.501 -174.5s-92.167 -93.333 -157.5 -123s-138.333 -44.5 -219 -44.5
c-163.333 0 -287.666 48 -372.999 144s-128 235.333 -128 418zM504.002 1201v20l227 239h197v-29l-300 -230h-124z" />
    <glyph glyph-name="Ccircumflex" unicode="&#x108;" 
d="M314 681c0 -182 28.499 -318.501 85.499 -409.501s144.167 -136.5 261.5 -136.5c67.333 0 128.333 22.833 183 68.5s101 116.834 139 213.501l159 -65c-99.333 -248 -260.333 -372 -483 -372c-175.333 0 -310.166 60.333 -404.499 181s-141.5 294 -141.5 520
c0 459.333 178.667 689 536 689c226 0 381.333 -111.667 466 -335l-168 -65c-24.667 75.333 -63.167 134.833 -115.5 178.5s-112.833 65.5 -181.5 65.5c-114 0 -198.5 -43 -253.5 -129s-82.5 -220.667 -82.5 -404zM964.999 1466v-20h-105l-219 138h-2l-232 -138h-104v20
l254 239h164z" />
    <glyph glyph-name="ccircumflex" unicode="&#x109;" 
d="M130 542c0 180 43.002 318.333 129.002 415s210.333 145 373 145c121.333 0 221.333 -29.167 300 -87.5s127.334 -136.833 146.001 -235.5l-192 -14c-10.667 60.667 -37.334 108.5 -80.001 143.5s-103.334 52.5 -182.001 52.5c-105.333 0 -182.5 -32.667 -231.5 -98
s-73.5 -171 -73.5 -317c0 -148 24.5 -256.167 73.5 -324.5s125.833 -102.5 230.5 -102.5c72 0 131.667 17.667 179 53s76.666 89.333 87.999 162l190 -12c-8.66699 -64 -32.834 -122.167 -72.501 -174.5s-92.167 -93.333 -157.5 -123s-138.333 -44.5 -219 -44.5
c-163.333 0 -287.666 48 -372.999 144s-128 235.333 -128 418zM945.002 1221v-20h-105l-219 138h-2l-232 -138h-104v20l254 239h164z" />
    <glyph glyph-name="Cdotaccent" unicode="&#x10a;" 
d="M314 681c0 -182 28.499 -318.501 85.499 -409.501s144.167 -136.5 261.5 -136.5c67.333 0 128.333 22.833 183 68.5s101 116.834 139 213.501l159 -65c-99.333 -248 -260.333 -372 -483 -372c-175.333 0 -310.166 60.333 -404.499 181s-141.5 294 -141.5 520
c0 459.333 178.667 689 536 689c226 0 381.333 -111.667 466 -335l-168 -65c-24.667 75.333 -63.167 134.833 -115.5 178.5s-112.833 65.5 -181.5 65.5c-114 0 -198.5 -43 -253.5 -129s-82.5 -220.667 -82.5 -404zM544.999 1446v192h200v-192h-200z" />
    <glyph glyph-name="cdotaccent" unicode="&#x10b;" 
d="M130 542c0 180 43.002 318.333 129.002 415s210.333 145 373 145c121.333 0 221.333 -29.167 300 -87.5s127.334 -136.833 146.001 -235.5l-192 -14c-10.667 60.667 -37.334 108.5 -80.001 143.5s-103.334 52.5 -182.001 52.5c-105.333 0 -182.5 -32.667 -231.5 -98
s-73.5 -171 -73.5 -317c0 -148 24.5 -256.167 73.5 -324.5s125.833 -102.5 230.5 -102.5c72 0 131.667 17.667 179 53s76.666 89.333 87.999 162l190 -12c-8.66699 -64 -32.834 -122.167 -72.501 -174.5s-92.167 -93.333 -157.5 -123s-138.333 -44.5 -219 -44.5
c-163.333 0 -287.666 48 -372.999 144s-128 235.333 -128 418zM535.002 1292v192h200v-192h-200z" />
    <glyph glyph-name="Ccaron" unicode="&#x10c;" 
d="M314 681c0 -182 28.499 -318.501 85.499 -409.501s144.167 -136.5 261.5 -136.5c67.333 0 128.333 22.833 183 68.5s101 116.834 139 213.501l159 -65c-99.333 -248 -260.333 -372 -483 -372c-175.333 0 -310.166 60.333 -404.499 181s-141.5 294 -141.5 520
c0 459.333 178.667 689 536 689c226 0 381.333 -111.667 466 -335l-168 -65c-24.667 75.333 -63.167 134.833 -115.5 178.5s-112.833 65.5 -181.5 65.5c-114 0 -198.5 -43 -253.5 -129s-82.5 -220.667 -82.5 -404zM717.999 1446h-164l-254 239v20h104l232 -138h2l219 138
h105v-20z" />
    <glyph glyph-name="ccaron" unicode="&#x10d;" 
d="M130 542c0 180 43.002 318.333 129.002 415s210.333 145 373 145c121.333 0 221.333 -29.167 300 -87.5s127.334 -136.833 146.001 -235.5l-192 -14c-10.667 60.667 -37.334 108.5 -80.001 143.5s-103.334 52.5 -182.001 52.5c-105.333 0 -182.5 -32.667 -231.5 -98
s-73.5 -171 -73.5 -317c0 -148 24.5 -256.167 73.5 -324.5s125.833 -102.5 230.5 -102.5c72 0 131.667 17.667 179 53s76.666 89.333 87.999 162l190 -12c-8.66699 -64 -32.834 -122.167 -72.501 -174.5s-92.167 -93.333 -157.5 -123s-138.333 -44.5 -219 -44.5
c-163.333 0 -287.666 48 -372.999 144s-128 235.333 -128 418zM697.002 1201h-164l-254 239v20h104l232 -138h2l219 138h105v-20z" />
    <glyph glyph-name="Dcaron" unicode="&#x10e;" 
d="M1125 688c0 -220.667 -51.167 -390.5 -153.5 -509.5s-248.833 -178.5 -439.5 -178.5h-370v1349h311c219.333 0 382.833 -54.833 490.5 -164.5s161.5 -275.167 161.5 -496.5zM933 688c0 176 -36.668 304.167 -110.001 384.5s-189.666 120.5 -348.999 120.5h-121v-1037h162
c141.333 0 246.333 44.333 315 133s103 221.667 103 399zM671.999 1446h-164l-254 239v20h104l232 -138h2l219 138h105v-20z" />
    <glyph glyph-name="dcaron" unicode="&#x10f;" 
d="M663 174c-32.667 -70 -71.167 -120.834 -115.5 -152.501s-98.833 -47.5 -163.5 -47.5c-113.333 0 -200.5 48.5 -261.5 145.5s-91.5 234.5 -91.5 412.5c0 179.333 31.333 318.5 94 417.5s149 148.5 259 148.5c65.333 0 120 -14.333 164 -43s82.333 -75.667 115 -141h2
l-2 151v419h180v-1261c0 -112.667 2 -187 6 -223h-172c-2.66699 10 -5 34.333 -7 73s-3 72.334 -3 101.001h-4zM217 537.999c0 -144.667 15.5 -251.667 46.5 -321s81.5 -104 151.5 -104c74 0 133.833 40 179.5 120s68.5 187 68.5 321c0 126 -22.167 226 -66.5 300
s-104.5 111 -180.5 111c-68.667 0 -119 -34.667 -151 -104s-48 -177 -48 -323zM955 1159v33l79 292h197v-37l-171 -288h-105z" />
    <glyph glyph-name="Dcroat" unicode="&#x110;" 
d="M1125 688c0 -220.667 -51.167 -390.5 -153.5 -509.5s-248.833 -178.5 -439.5 -178.5h-370v597h-135v149h135v603h311c219.333 0 382.833 -54.833 490.5 -164.5s161.5 -275.167 161.5 -496.5zM642 597h-289.001v-441h162c141.333 0 246.333 44.333 315 133
s103 221.667 103 399c0 176 -36.667 304.167 -110 384.5s-189.666 120.5 -348.999 120.5h-121v-447h289v-149z" />
    <glyph glyph-name="dcroat" unicode="&#x111;" 
d="M1043 1196v-973c0 -112.667 2 -187 6 -223h-172c-2.66699 10 -5 34.333 -7 73s-3 72.334 -3 101.001h-5c-32.667 -70 -76 -120.833 -130 -152.5s-121.333 -47.5 -202 -47.5c-134.667 0 -233.667 45.167 -297 135.5s-95 226.166 -95 407.499c0 370 130.667 555 392 555
c80.667 0 148.167 -14.333 202.5 -43s97.833 -75.667 130.5 -141h2l-2 151v157h-300v131h300v157h180v-157h131v-131h-131zM324 523c0 -143.333 19.666 -247.5 58.999 -312.5s104 -97.5 194 -97.5c98 0 170.167 34.333 216.5 103s69.5 176 69.5 322
c0 138 -22.167 239.333 -66.5 304s-116.833 97 -217.5 97c-89.333 0 -154.166 -33.833 -194.499 -101.5s-60.5 -172.5 -60.5 -314.5z" />
    <glyph glyph-name="Emacron" unicode="&#x112;" 
d="M162 0v1349h919v-156h-728v-422h668v-154h-668v-461h769v-156h-960zM906 1503h-551v127h551v-127z" />
    <glyph glyph-name="emacron" unicode="&#x113;" 
d="M322 503c0 -121.333 26.8301 -216.333 80.4971 -285s127.167 -103 220.5 -103c68.667 0 128.834 14.833 180.501 44.5s86.167 70.167 103.5 121.5l158 -45c-29.333 -82.667 -83.166 -146 -161.499 -190s-171.833 -66 -280.5 -66c-157.333 0 -278.333 49 -363 147
s-127 238.333 -127 421c0 178 41.5 314.833 124.5 410.5s202.833 143.5 359.5 143.5s275.334 -47.667 356.001 -143s121 -239.333 121 -432v-24h-772zM618.997 969c-89.333 0 -160 -29.167 -212 -87.5s-79.667 -138.5 -83 -240.5h584c-18.667 218.667 -115 328 -289 328z
M889.997 1236h-551v127h551v-127z" />
    <glyph glyph-name="Ebreve" unicode="&#x114;" 
d="M162 0v1349h919v-156h-728v-422h668v-154h-668v-461h769v-156h-960zM613 1446c-82.667 0 -151.833 23.667 -207.5 71s-90.5 110 -104.5 188h127c11.333 -42 31.333 -74.667 60 -98s70.334 -35 125.001 -35c56.667 0 99.167 11.667 127.5 35s48.166 56 59.499 98h127
c-16 -79.333 -51.5 -142.333 -106.5 -189s-124.167 -70 -207.5 -70z" />
    <glyph glyph-name="ebreve" unicode="&#x115;" 
d="M322 503c0 -121.333 26.8301 -216.333 80.4971 -285s127.167 -103 220.5 -103c68.667 0 128.834 14.833 180.501 44.5s86.167 70.167 103.5 121.5l158 -45c-29.333 -82.667 -83.166 -146 -161.499 -190s-171.833 -66 -280.5 -66c-157.333 0 -278.333 49 -363 147
s-127 238.333 -127 421c0 178 41.5 314.833 124.5 410.5s202.833 143.5 359.5 143.5s275.334 -47.667 356.001 -143s121 -239.333 121 -432v-24h-772zM618.997 969c-89.333 0 -160 -29.167 -212 -87.5s-79.667 -138.5 -83 -240.5h584c-18.667 218.667 -115 328 -289 328z
M616.997 1201c-82.667 0 -151.833 23.667 -207.5 71s-90.5 110 -104.5 188h127c11.333 -42 31.333 -74.667 60 -98s70.334 -35 125.001 -35c56.667 0 99.167 11.667 127.5 35s48.166 56 59.499 98h127c-16 -79.333 -51.5 -142.333 -106.5 -189s-124.167 -70 -207.5 -70z" />
    <glyph glyph-name="Edotaccent" unicode="&#x116;" 
d="M162 0v1349h919v-156h-728v-422h668v-154h-668v-461h769v-156h-960zM515 1446v192h200v-192h-200z" />
    <glyph glyph-name="edotaccent" unicode="&#x117;" 
d="M322 503c0 -121.333 26.8301 -216.333 80.4971 -285s127.167 -103 220.5 -103c68.667 0 128.834 14.833 180.501 44.5s86.167 70.167 103.5 121.5l158 -45c-29.333 -82.667 -83.166 -146 -161.499 -190s-171.833 -66 -280.5 -66c-157.333 0 -278.333 49 -363 147
s-127 238.333 -127 421c0 178 41.5 314.833 124.5 410.5s202.833 143.5 359.5 143.5s275.334 -47.667 356.001 -143s121 -239.333 121 -432v-24h-772zM618.997 969c-89.333 0 -160 -29.167 -212 -87.5s-79.667 -138.5 -83 -240.5h584c-18.667 218.667 -115 328 -289 328z
M516.997 1298v192h200v-192h-200z" />
    <glyph glyph-name="Eogonek" unicode="&#x118;" 
d="M162 0v1349h919v-156h-728v-422h668v-154h-668v-461h769v-156h-960zM1122 -400c-42 -18 -88.332 -27 -138.999 -27c-70 0 -122.667 17 -158 51s-53 79.333 -53 136c0 45.333 13.833 89.833 41.5 133.5s65.5 79.167 113.5 106.5h133
c-42.667 -24 -77.834 -56.833 -105.501 -98.5s-41.5 -84.5 -41.5 -128.5c0 -28 8.16699 -50 24.5 -66s39.5 -24 69.5 -24c36 0 74.333 8 115 24v-107z" />
    <glyph glyph-name="eogonek" unicode="&#x119;" 
d="M322 503c0 -121.333 26.8301 -216.333 80.4971 -285s127.167 -103 220.5 -103c68.667 0 128.834 14.833 180.501 44.5s86.167 70.167 103.5 121.5l158 -45c-29.333 -82.667 -83.166 -146 -161.499 -190s-171.833 -66 -280.5 -66c-157.333 0 -278.333 49 -363 147
s-127 238.333 -127 421c0 178 41.5 314.833 124.5 410.5s202.833 143.5 359.5 143.5s275.334 -47.667 356.001 -143s121 -239.333 121 -432v-24h-772zM618.997 969c-89.333 0 -160 -29.167 -212 -87.5s-79.667 -138.5 -83 -240.5h584c-18.667 218.667 -115 328 -289 328z
M852.997 -400c-42 -18 -88.332 -27 -138.999 -27c-70 0 -122.667 17 -158 51s-53 79.333 -53 136c0 45.333 13.833 89.833 41.5 133.5s65.5 79.167 113.5 106.5h133c-42.667 -24 -77.834 -56.833 -105.501 -98.5s-41.5 -84.5 -41.5 -128.5c0 -28 8.16699 -50 24.5 -66
s39.5 -24 69.5 -24c36 0 74.333 8 115 24v-107z" />
    <glyph glyph-name="Ecaron" unicode="&#x11a;" 
d="M162 0v1349h919v-156h-728v-422h668v-154h-668v-461h769v-156h-960zM701 1446h-164l-254 239v20h104l232 -138h2l219 138h105v-20z" />
    <glyph glyph-name="ecaron" unicode="&#x11b;" 
d="M322 503c0 -121.333 26.8301 -216.333 80.4971 -285s127.167 -103 220.5 -103c68.667 0 128.834 14.833 180.501 44.5s86.167 70.167 103.5 121.5l158 -45c-29.333 -82.667 -83.166 -146 -161.499 -190s-171.833 -66 -280.5 -66c-157.333 0 -278.333 49 -363 147
s-127 238.333 -127 421c0 178 41.5 314.833 124.5 410.5s202.833 143.5 359.5 143.5s275.334 -47.667 356.001 -143s121 -239.333 121 -432v-24h-772zM618.997 969c-89.333 0 -160 -29.167 -212 -87.5s-79.667 -138.5 -83 -240.5h584c-18.667 218.667 -115 328 -289 328z
M693.997 1201h-164l-254 239v20h104l232 -138h2l219 138h105v-20z" />
    <glyph glyph-name="Gcircumflex" unicode="&#x11c;" 
d="M1101 133c-152.667 -102 -306.668 -153 -462.001 -153c-166.667 0 -296 61.833 -388 185.5s-138 295.5 -138 515.5c0 231.333 44 404 132 518s220.333 171 397 171c230.667 0 384.334 -110.333 461.001 -331l-171 -56c-53.333 154 -149.333 231 -288 231
c-112.667 0 -195.834 -42 -249.501 -126s-80.5 -219.667 -80.5 -407c0 -364 113.667 -546 341 -546c45.333 0 92.333 7 141 21s88.334 31.667 119.001 53v336h-293v160h479v-572zM944.999 1466v-20h-105l-219 138h-2l-232 -138h-104v20l254 239h164z" />
    <glyph glyph-name="gcircumflex" unicode="&#x11d;" 
d="M615 -424c-112 0 -202.001 23 -270.001 69s-111.333 112 -130 198l184 25c11.333 -50 35.833 -88.5 73.5 -115.5s87.167 -40.5 148.5 -40.5c165.333 0 248 105 248 315v194h-2c-32.667 -68.667 -78 -120.667 -136 -156s-127 -53 -207 -53
c-132 0 -228.5 43.167 -289.5 129.5s-91.5 222.166 -91.5 407.499c0 188.667 32.667 327.5 98 416.5s166 133.5 302 133.5c75.333 0 140.833 -17.5 196.5 -52.5s98.5 -84.833 128.5 -149.5h3c0 20 1.33301 53.833 4 101.5s5.33398 75.5 8.00098 83.5h171
c-4 -36 -6 -110.667 -6 -224v-826c0 -151.333 -35.333 -265.166 -106 -341.499s-179.667 -114.5 -327 -114.5zM868.999 551c0 128.667 -25 229.834 -75 303.501s-118.667 110.5 -206 110.5c-91.333 0 -157.333 -31.833 -198 -95.5s-61 -169.834 -61 -318.501
c0 -100.667 8.5 -180.167 25.5 -238.5s43.5 -100.833 79.5 -127.5s86.333 -40 151 -40c56.667 0 106.5 15.833 149.5 47.5s76.167 78 99.5 139s35 134.167 35 219.5zM935.999 1221v-20h-105l-219 138h-2l-232 -138h-104v20l254 239h164z" />
    <glyph glyph-name="Gbreve" unicode="&#x11e;" 
d="M1101 133c-152.667 -102 -306.668 -153 -462.001 -153c-166.667 0 -296 61.833 -388 185.5s-138 295.5 -138 515.5c0 231.333 44 404 132 518s220.333 171 397 171c230.667 0 384.334 -110.333 461.001 -331l-171 -56c-53.333 154 -149.333 231 -288 231
c-112.667 0 -195.834 -42 -249.501 -126s-80.5 -219.667 -80.5 -407c0 -364 113.667 -546 341 -546c45.333 0 92.333 7 141 21s88.334 31.667 119.001 53v336h-293v160h479v-572zM615.999 1446c-82.667 0 -151.833 23.667 -207.5 71s-90.5 110 -104.5 188h127
c11.333 -42 31.333 -74.667 60 -98s70.334 -35 125.001 -35c56.667 0 99.167 11.667 127.5 35s48.166 56 59.499 98h127c-16 -79.333 -51.5 -142.333 -106.5 -189s-124.167 -70 -207.5 -70z" />
    <glyph glyph-name="gbreve" unicode="&#x11f;" 
d="M615 -424c-112 0 -202.001 23 -270.001 69s-111.333 112 -130 198l184 25c11.333 -50 35.833 -88.5 73.5 -115.5s87.167 -40.5 148.5 -40.5c165.333 0 248 105 248 315v194h-2c-32.667 -68.667 -78 -120.667 -136 -156s-127 -53 -207 -53
c-132 0 -228.5 43.167 -289.5 129.5s-91.5 222.166 -91.5 407.499c0 188.667 32.667 327.5 98 416.5s166 133.5 302 133.5c75.333 0 140.833 -17.5 196.5 -52.5s98.5 -84.833 128.5 -149.5h3c0 20 1.33301 53.833 4 101.5s5.33398 75.5 8.00098 83.5h171
c-4 -36 -6 -110.667 -6 -224v-826c0 -151.333 -35.333 -265.166 -106 -341.499s-179.667 -114.5 -327 -114.5zM868.999 551c0 128.667 -25 229.834 -75 303.501s-118.667 110.5 -206 110.5c-91.333 0 -157.333 -31.833 -198 -95.5s-61 -169.834 -61 -318.501
c0 -100.667 8.5 -180.167 25.5 -238.5s43.5 -100.833 79.5 -127.5s86.333 -40 151 -40c56.667 0 106.5 15.833 149.5 47.5s76.167 78 99.5 139s35 134.167 35 219.5zM603.999 1201c-82.667 0 -151.833 23.667 -207.5 71s-90.5 110 -104.5 188h127
c11.333 -42 31.333 -74.667 60 -98s70.334 -35 125.001 -35c56.667 0 99.167 11.667 127.5 35s48.166 56 59.499 98h127c-16 -79.333 -51.5 -142.333 -106.5 -189s-124.167 -70 -207.5 -70z" />
    <glyph glyph-name="Gdotaccent" unicode="&#x120;" 
d="M1101 133c-152.667 -102 -306.668 -153 -462.001 -153c-166.667 0 -296 61.833 -388 185.5s-138 295.5 -138 515.5c0 231.333 44 404 132 518s220.333 171 397 171c230.667 0 384.334 -110.333 461.001 -331l-171 -56c-53.333 154 -149.333 231 -288 231
c-112.667 0 -195.834 -42 -249.501 -126s-80.5 -219.667 -80.5 -407c0 -364 113.667 -546 341 -546c45.333 0 92.333 7 141 21s88.334 31.667 119.001 53v336h-293v160h479v-572zM524.999 1446v192h200v-192h-200z" />
    <glyph glyph-name="gdotaccent" unicode="&#x121;" 
d="M615 -424c-112 0 -202.001 23 -270.001 69s-111.333 112 -130 198l184 25c11.333 -50 35.833 -88.5 73.5 -115.5s87.167 -40.5 148.5 -40.5c165.333 0 248 105 248 315v194h-2c-32.667 -68.667 -78 -120.667 -136 -156s-127 -53 -207 -53
c-132 0 -228.5 43.167 -289.5 129.5s-91.5 222.166 -91.5 407.499c0 188.667 32.667 327.5 98 416.5s166 133.5 302 133.5c75.333 0 140.833 -17.5 196.5 -52.5s98.5 -84.833 128.5 -149.5h3c0 20 1.33301 53.833 4 101.5s5.33398 75.5 8.00098 83.5h171
c-4 -36 -6 -110.667 -6 -224v-826c0 -151.333 -35.333 -265.166 -106 -341.499s-179.667 -114.5 -327 -114.5zM868.999 551c0 128.667 -25 229.834 -75 303.501s-118.667 110.5 -206 110.5c-91.333 0 -157.333 -31.833 -198 -95.5s-61 -169.834 -61 -318.501
c0 -100.667 8.5 -180.167 25.5 -238.5s43.5 -100.833 79.5 -127.5s86.333 -40 151 -40c56.667 0 106.5 15.833 149.5 47.5s76.167 78 99.5 139s35 134.167 35 219.5zM505.999 1292v192h200v-192h-200z" />
    <glyph glyph-name="Gcommaaccent" unicode="&#x122;" 
d="M1101 133c-152.667 -102 -306.668 -153 -462.001 -153c-166.667 0 -296 61.833 -388 185.5s-138 295.5 -138 515.5c0 231.333 44 404 132 518s220.333 171 397 171c230.667 0 384.334 -110.333 461.001 -331l-171 -56c-53.333 154 -149.333 231 -288 231
c-112.667 0 -195.834 -42 -249.501 -126s-80.5 -219.667 -80.5 -407c0 -364 113.667 -546 341 -546c45.333 0 92.333 7 141 21s88.334 31.667 119.001 53v336h-293v160h479v-572zM474.999 -423v33l79 292h197v-37l-171 -288h-105z" />
    <glyph glyph-name="gcommaaccent" unicode="&#x123;" 
d="M615 -424c-112 0 -202.001 23 -270.001 69s-111.333 112 -130 198l184 25c11.333 -50 35.833 -88.5 73.5 -115.5s87.167 -40.5 148.5 -40.5c165.333 0 248 105 248 315v194h-2c-32.667 -68.667 -78 -120.667 -136 -156s-127 -53 -207 -53
c-132 0 -228.5 43.167 -289.5 129.5s-91.5 222.166 -91.5 407.499c0 188.667 32.667 327.5 98 416.5s166 133.5 302 133.5c75.333 0 140.833 -17.5 196.5 -52.5s98.5 -84.833 128.5 -149.5h3c0 20 1.33301 53.833 4 101.5s5.33398 75.5 8.00098 83.5h171
c-4 -36 -6 -110.667 -6 -224v-826c0 -151.333 -35.333 -265.166 -106 -341.499s-179.667 -114.5 -327 -114.5zM868.999 551c0 128.667 -25 229.834 -75 303.501s-118.667 110.5 -206 110.5c-91.333 0 -157.333 -31.833 -198 -95.5s-61 -169.834 -61 -318.501
c0 -100.667 8.5 -180.167 25.5 -238.5s43.5 -100.833 79.5 -127.5s86.333 -40 151 -40c56.667 0 106.5 15.833 149.5 47.5s76.167 78 99.5 139s35 134.167 35 219.5zM749.999 1536v-33l-79 -292h-197v37l171 288h105z" />
    <glyph glyph-name="Hcircumflex" unicode="&#x124;" 
d="M875 0v623h-522v-623h-191v1349h191v-566h522v566h191v-1349h-191zM945 1466v-20h-105l-219 138h-2l-232 -138h-104v20l254 239h164z" />
    <glyph glyph-name="hcircumflex" unicode="&#x125;" 
d="M185 1349l181 -0.000976562v-315c0 -39.333 -3 -105 -9 -197h3c70 136.667 183 205 339 205c233.333 0 350 -127 350 -381v-661h-181v635c0 90.667 -17.5 158 -52.5 202s-90.833 66 -167.5 66c-82.667 0 -150.5 -30.167 -203.5 -90.5s-79.5 -142.166 -79.5 -245.499v-567
h-180v1349zM945 1465v-20h-105l-219 139h-2l-232 -139h-104v20l254 240h164z" />
    <glyph glyph-name="Hbar" unicode="&#x126;" 
d="M162 1153v196h191v-196h522v196h191v-196h160v-148h-160v-1005h-191v623h-522v-623h-191v1005h-160v148h160zM875 783v222h-522v-222h522z" />
    <glyph glyph-name="hbar" unicode="&#x127;" 
d="M185 1484l181 -0.000976562v-157h299v-131h-299v-132c0 -39.333 -3 -105 -9 -197h3c70 136.667 183 205 339 205c233.333 0 350 -127 350 -381v-691h-181v665c0 90.667 -17.5 158 -52.5 202s-90.833 66 -167.5 66c-82.667 0 -150.5 -30.167 -203.5 -90.5
s-79.5 -142.166 -79.5 -245.499v-597h-180v1196h-132v131h132v157z" />
    <glyph glyph-name="Itilde" unicode="&#x128;" 
d="M202 1349h823v-156h-316v-1037h316v-156h-823v156h316v1037h-316v156zM771 1446c-28 0 -56 6.16699 -84 18.5s-55.333 26 -82 41s-52.834 28.667 -78.501 41s-50.167 18.5 -73.5 18.5c-16.667 0 -30 -3.16699 -40 -9.5s-18.333 -15.5 -25 -27.5s-13.667 -39.333 -21 -82
h-111c7.33301 64 18.833 112.333 34.5 145s37.167 58 64.5 76s62 27 104 27c29.333 0 58 -6.16699 86 -18.5s55.333 -26 82 -41s52.334 -28.667 77.001 -41s48 -18.5 70 -18.5c24.667 0 43.667 7.83301 57 23.5s23.333 47.5 30 95.5h112
c-10.667 -92 -32.5 -156.333 -65.5 -193s-78.5 -55 -136.5 -55z" />
    <glyph glyph-name="itilde" unicode="&#x129;" 
d="M745 142h380v-142h-982v142h422v798h-319v142h499v-940zM770 1201c-28 0 -56 6.16699 -84 18.5s-55.333 26 -82 41s-52.834 28.667 -78.501 41s-50.167 18.5 -73.5 18.5c-16.667 0 -30 -3.16699 -40 -9.5s-18.333 -15.5 -25 -27.5s-13.667 -39.333 -21 -82h-111
c7.33301 64 18.833 112.333 34.5 145s37.167 58 64.5 76s62 27 104 27c29.333 0 58 -6.16699 86 -18.5s55.333 -26 82 -41s52.334 -28.667 77.001 -41s48 -18.5 70 -18.5c24.667 0 43.667 7.83301 57 23.5s23.333 47.5 30 95.5h112c-10.667 -92 -32.5 -156.333 -65.5 -193
s-78.5 -55 -136.5 -55z" />
    <glyph glyph-name="Imacron" unicode="&#x12a;" 
d="M202 1349h823v-156h-316v-1037h316v-156h-823v156h316v1037h-316v156zM890 1503h-551v127h551v-127z" />
    <glyph glyph-name="imacron" unicode="&#x12b;" 
d="M745 142h380v-142h-982v142h422v798h-319v142h499v-940zM896 1236h-551v127h551v-127z" />
    <glyph glyph-name="Ibreve" unicode="&#x12c;" 
d="M202 1349h823v-156h-316v-1037h316v-156h-823v156h316v1037h-316v156zM613 1445c-82.667 0 -151.833 23.667 -207.5 71s-90.5 110 -104.5 188h127c11.333 -42 31.333 -74.667 60 -98s70.334 -35 125.001 -35c56.667 0 99.167 11.667 127.5 35s48.166 56 59.499 98h127
c-16 -79.333 -51.5 -142.333 -106.5 -189s-124.167 -70 -207.5 -70z" />
    <glyph glyph-name="ibreve" unicode="&#x12d;" 
d="M745 142h380v-142h-982v142h422v798h-319v142h499v-940zM633 1201c-82.667 0 -151.833 23.667 -207.5 71s-90.5 110 -104.5 188h127c11.333 -42 31.333 -74.667 60 -98s70.334 -35 125.001 -35c56.667 0 99.167 11.667 127.5 35s48.166 56 59.499 98h127
c-16 -79.333 -51.5 -142.333 -106.5 -189s-124.167 -70 -207.5 -70z" />
    <glyph glyph-name="Iogonek" unicode="&#x12e;" 
d="M202 1349h823v-156h-316v-1037h316v-156h-823v156h316v1037h-316v156zM804 -400c-42 -18 -88.332 -27 -138.999 -27c-70 0 -122.667 17 -158 51s-53 79.333 -53 136c0 45.333 13.833 89.833 41.5 133.5s65.5 79.167 113.5 106.5h133
c-42.667 -24 -77.834 -56.833 -105.501 -98.5s-41.5 -84.5 -41.5 -128.5c0 -28 8.16699 -50 24.5 -66s39.5 -24 69.5 -24c36 0 74.333 8 115 24v-107z" />
    <glyph glyph-name="iogonek" unicode="&#x12f;" 
d="M745 142h380v-142h-982v142h422v798h-319v142h499v-940zM545 1292v192h200v-192h-200zM847 -400c-42 -18 -88.332 -27 -138.999 -27c-70 0 -122.667 17 -158 51s-53 79.333 -53 136c0 45.333 13.833 89.833 41.5 133.5s65.5 79.167 113.5 106.5h133
c-42.667 -24 -77.834 -56.833 -105.501 -98.5s-41.5 -84.5 -41.5 -128.5c0 -28 8.16699 -50 24.5 -66s39.5 -24 69.5 -24c36 0 74.333 8 115 24v-107z" />
    <glyph glyph-name="Idotaccent" unicode="&#x130;" 
d="M202 1349h823v-156h-316v-1037h316v-156h-823v156h316v1037h-316v156zM515 1446v192h200v-192h-200z" />
    <glyph glyph-name="dotlessi" unicode="&#x131;" 
d="M745 142h380v-142h-982v142h422v798h-319v142h499v-940z" />
    <glyph glyph-name="IJ" unicode="&#x132;" 
d="M98 1349h191v-1349h-191v1349zM768 135c69.333 0 119.834 23.833 151.501 71.5s47.5 117.5 47.5 209.5v777h-271v156h461v-929c0 -140.667 -33.667 -249.167 -101 -325.5s-163.666 -114.5 -288.999 -114.5c-112 0 -198.833 28.833 -260.5 86.5
s-104.834 152.167 -129.501 283.5l186 31c13.333 -86 37.166 -148.5 71.499 -187.5s78.833 -58.5 133.5 -58.5z" />
    <glyph glyph-name="ij" unicode="&#x133;" 
d="M237 1082h179v-1082h-180zM216 1292v192h200v-192h-200zM881 1082h180.001v-1110c0 -124.667 -37.333 -222 -112 -292s-181 -105 -319 -105c-52.667 0 -106.334 4.33301 -161.001 13s-97 18.667 -127 30v140c100 -22.667 191 -34 273 -34c85.333 0 151 22 197 66
s69 105.667 69 185v1107zM861.001 1292v192h200v-192h-200z" />
    <glyph glyph-name="Jcircumflex" unicode="&#x134;" 
d="M986 420c0 -139.333 -35 -247.499 -105 -324.499s-168.333 -115.5 -295 -115.5c-114 0 -205 29.667 -273 89s-113.667 153 -137 281l187 31c12 -78.667 37.5 -139.334 76.5 -182.001s88.167 -64 147.5 -64c139.333 0 209 93.667 209 281v777h-311v156h501v-929z
M1065 1466v-20h-105l-219 138h-2l-232 -138h-104v20l254 239h164z" />
    <glyph glyph-name="jcircumflex" unicode="&#x135;" 
d="M836 -28c0 -124.667 -37.332 -222 -111.999 -292s-181 -105 -319 -105c-52.667 0 -106.334 4.33301 -161.001 13s-97 18.667 -127 30v140c100 -22.667 191 -34 273 -34c85.333 0 151 22 197 66s69 105.667 69 185v965h-407v142h587v-1110zM1048 1221v-20h-105l-219 138
h-2l-232 -138h-104v20l254 239h164z" />
    <glyph glyph-name="Kcommaaccent" unicode="&#x136;" 
d="M1003 0l-487 638l-163 -169v-469h-191v1349h191v-673l572 673h225l-504 -572l581 -777h-224zM475 -423v33l79 292h197v-37l-171 -288h-105z" />
    <glyph glyph-name="kcommaaccent" unicode="&#x137;" 
d="M914 0l-366 499l-132 -98v-401h-180v1484h180v-927l475 525h211l-439 -465l462 -617h-211zM475 -423v33l79 292h197v-37l-171 -288h-105z" />
    <glyph glyph-name="kgreenlandic" unicode="&#x138;" 
d="M914 0l-366 494l-132 -98v-396h-180v1082h180v-538l475 538h211l-439 -465l462 -617h-211z" />
    <glyph glyph-name="Lacute" unicode="&#x139;" 
d="M237 0v1349h191v-1193h672v-156h-863zM304 1446v20l227 239h197v-29l-300 -230h-124z" />
    <glyph glyph-name="lacute" unicode="&#x13a;" 
d="M736 142h380v-142h-982v142h422v1065h-289v142h469v-1207zM531 1445v20l227 240h197v-29l-300 -231h-124z" />
    <glyph glyph-name="Lcommaaccent" unicode="&#x13b;" 
d="M237 0v1349h191v-1193h672v-156h-863zM485 -423v33l79 292h197v-37l-171 -288h-105z" />
    <glyph glyph-name="lcommaaccent" unicode="&#x13c;" 
d="M736 142h380v-142h-982v142h422v1200h-289v142h469v-1342zM475 -423v33l79 292h197v-37l-171 -288h-105z" />
    <glyph glyph-name="Lcaron" unicode="&#x13d;" 
d="M237 0v1349h191v-1193h672v-156h-863zM775 1024v33l79 292h197v-37l-171 -288h-105z" />
    <glyph glyph-name="lcaron" unicode="&#x13e;" 
d="M687 142h380v-142h-982v142h422v1200h-289v142h469v-1342zM895 1159v33l79 292h197v-37l-171 -288h-105z" />
    <glyph glyph-name="Ldot" unicode="&#x13f;" 
d="M237 0v1349h191v-1193h672v-156h-863zM671 608v192h200v-192h-200z" />
    <glyph glyph-name="ldot" unicode="&#x140;" 
d="M736 142h380v-142h-982v142h422v1200h-289v142h469v-1342zM931 608v192h200v-192h-200z" />
    <glyph glyph-name="Lslash" unicode="&#x141;" 
d="M237 0v458l-117 -61l-66 121l183 96v735h191v-636l292 151l61 -121l-353 -185v-402h672v-156h-863z" />
    <glyph glyph-name="lslash" unicode="&#x142;" 
d="M736 884l225 129l62 -113l-287 -164v-594h380v-142h-982v142h422v493l-218 -123l-64 112l282 159v559h-339v142h519v-600z" />
    <glyph glyph-name="Nacute" unicode="&#x143;" 
d="M836 0l-520 1130c10.667 -114.667 16 -199.334 16 -254.001v-876h-170v1349h222l528 -1138c-12 96 -18 187.333 -18 274v864h172v-1349h-230zM524 1446v20l227 239h197v-29l-300 -230h-124z" />
    <glyph glyph-name="nacute" unicode="&#x144;" 
d="M868 0l-0.000976562 694.998c0 90.667 -17.5 158 -52.5 202s-90.833 66 -167.5 66c-82.667 0 -150.5 -30.167 -203.5 -90.5s-79.5 -142.166 -79.5 -245.499v-627h-180v851c0 126 -2 203 -6 231h170c0.666992 -3.33301 1.33398 -12.333 2.00098 -27s1.5 -31.5 2.5 -50.5
s2.16699 -54.833 3.5 -107.5h3c70 136.667 185.333 205 346 205c115.333 0 201.333 -31.167 258 -93.5s85 -158.166 85 -287.499v-721h-181zM538.999 1201v20l227 239h197v-29l-300 -230h-124z" />
    <glyph glyph-name="Ncommaaccent" unicode="&#x145;" 
d="M836 0l-520 1130c10.667 -114.667 16 -199.334 16 -254.001v-876h-170v1349h222l528 -1138c-12 96 -18 187.333 -18 274v864h172v-1349h-230zM444 -422.999v33l79 292h197v-37l-171 -288h-105z" />
    <glyph glyph-name="ncommaaccent" unicode="&#x146;" 
d="M868 0l-0.000976562 694.998c0 90.667 -17.5 158 -52.5 202s-90.833 66 -167.5 66c-82.667 0 -150.5 -30.167 -203.5 -90.5s-79.5 -142.166 -79.5 -245.499v-627h-180v851c0 126 -2 203 -6 231h170c0.666992 -3.33301 1.33398 -12.333 2.00098 -27s1.5 -31.5 2.5 -50.5
s2.16699 -54.833 3.5 -107.5h3c70 136.667 185.333 205 346 205c115.333 0 201.333 -31.167 258 -93.5s85 -158.166 85 -287.499v-721h-181zM447.999 -423.002v33l79 292h197v-37l-171 -288h-105z" />
    <glyph glyph-name="Ncaron" unicode="&#x147;" 
d="M836 0l-520 1130c10.667 -114.667 16 -199.334 16 -254.001v-876h-170v1349h222l528 -1138c-12 96 -18 187.333 -18 274v864h172v-1349h-230zM707 1446h-164l-254 239v20h104l232 -138h2l219 138h105v-20z" />
    <glyph glyph-name="ncaron" unicode="&#x148;" 
d="M868 0l-0.000976562 694.998c0 90.667 -17.5 158 -52.5 202s-90.833 66 -167.5 66c-82.667 0 -150.5 -30.167 -203.5 -90.5s-79.5 -142.166 -79.5 -245.499v-627h-180v851c0 126 -2 203 -6 231h170c0.666992 -3.33301 1.33398 -12.333 2.00098 -27s1.5 -31.5 2.5 -50.5
s2.16699 -54.833 3.5 -107.5h3c70 136.667 185.333 205 346 205c115.333 0 201.333 -31.167 258 -93.5s85 -158.166 85 -287.499v-721h-181zM700.999 1201h-164l-254 239v20h104l232 -138h2l219 138h105v-20z" />
    <glyph glyph-name="napostrophe" unicode="&#x149;" 
d="M973 0l-0.000976562 694.998c0 90.667 -17.5 158 -52.5 202s-90.833 66 -167.5 66c-82.667 0 -150.5 -30.167 -203.5 -90.5s-79.5 -142.166 -79.5 -245.499v-627h-180v851c0 126 -2 203 -6 231h170c0.666992 -3.33301 1.33398 -12.333 2.00098 -27s1.5 -31.5 2.5 -50.5
s2.16699 -54.833 3.5 -107.5h3c70 136.667 185.333 205 346 205c115.333 0 201.333 -31.167 258 -93.5s85 -158.166 85 -287.499v-721h-181zM4.99902 1025v33l79 292h197v-37l-171 -288h-105z" />
    <glyph glyph-name="Eng" unicode="&#x14a;" 
d="M1109 542c0 -200.667 -27.002 -344.5 -81.002 -431.5s-140 -130.5 -258 -130.5c-61.333 0 -113.833 10.5 -157.5 31.5s-86.167 61.167 -127.5 120.5l131 100c28.667 -40 54.667 -66.5 78 -79.5s50.333 -19.5 81 -19.5c52.667 0 91.334 31.333 116.001 94s37 169 37 319
v417c0 91.333 -19.333 158.833 -58 202.5s-99.334 65.5 -182.001 65.5c-94 0 -171.333 -30.5 -232 -91.5s-91 -142.5 -91 -244.5v-895h-180v1119c0 126 -2 203 -6 231h170c0.666992 -3.33301 1.33398 -12.333 2.00098 -27s1.5 -31.5 2.5 -50.5s2.16699 -54.833 3.5 -107.5h3
c70.667 136.667 199.334 205 386.001 205c242 0 363 -127 363 -381v-447z" />
    <glyph glyph-name="eng" unicode="&#x14b;" 
d="M648 963c-82.667 0 -150.502 -30.168 -203.502 -90.501s-79.5 -142.166 -79.5 -245.499v-627h-180v851c0 126 -2 203 -6 231h170c0.666992 -3.33301 1.33398 -12.333 2.00098 -27s1.5 -31.5 2.5 -50.5s2.16699 -54.833 3.5 -107.5h3c70 136.667 185.333 205 346 205
c115.333 0 201.333 -31.167 258 -93.5s85 -158.166 85 -287.499v-855c0 -100.667 -20 -174.334 -60 -221.001s-100.333 -70 -181 -70c-51.333 0 -93.666 3 -126.999 9v139l62 -6c46 0 78.333 12 97 36s28 70.667 28 140v802c0 90.667 -17.5 158 -52.5 202
s-90.833 66 -167.5 66z" />
    <glyph glyph-name="Omacron" unicode="&#x14c;" 
d="M1126 681c0 -224.667 -44.1689 -397.667 -132.502 -519s-215.166 -182 -380.499 -182c-166 0 -292.667 59.667 -380 179s-131 293.333 -131 522c0 224.667 43.333 395.667 130 513s214.334 176 383.001 176c164.667 0 291 -57.833 379 -173.5s132 -287.5 132 -515.5z
M924.998 681c0 355.333 -103.333 533.001 -310 533.001c-208 0 -312 -177.667 -312 -533c0 -180 26.333 -316 79 -408s130 -138 232 -138c108.667 0 187.667 46.667 237 140s74 228.666 74 405.999zM889.998 1503h-551v127h551v-127z" />
    <glyph glyph-name="omacron" unicode="&#x14d;" 
d="M1097 542c0 -182 -41.833 -321.167 -125.5 -417.5s-204.5 -144.5 -362.5 -144.5c-154.667 0 -273.167 48.667 -355.5 146s-123.5 236 -123.5 416c0 186 42.167 325.833 126.5 419.5s203.833 140.5 358.5 140.5c162.667 0 283.667 -46.333 363 -139s119 -233 119 -421z
M908 542c0 143.333 -22.833 250.334 -68.5 321.001s-119.5 106 -221.5 106c-103.333 0 -179 -36 -227 -108s-72 -178.333 -72 -319c0 -140 24 -246.5 72 -319.5s120 -109.5 216 -109.5c106 0 182.667 35.667 230 107s71 178.666 71 321.999zM890 1236h-551v127h551v-127z
" />
    <glyph glyph-name="Obreve" unicode="&#x14e;" 
d="M1126 681c0 -224.667 -44.1689 -397.667 -132.502 -519s-215.166 -182 -380.499 -182c-166 0 -292.667 59.667 -380 179s-131 293.333 -131 522c0 224.667 43.333 395.667 130 513s214.334 176 383.001 176c164.667 0 291 -57.833 379 -173.5s132 -287.5 132 -515.5z
M924.998 681c0 355.333 -103.333 533.001 -310 533.001c-208 0 -312 -177.667 -312 -533c0 -180 26.333 -316 79 -408s130 -138 232 -138c108.667 0 187.667 46.667 237 140s74 228.666 74 405.999zM612.998 1446c-82.667 0 -151.833 23.667 -207.5 71s-90.5 110 -104.5 188
h127c11.333 -42 31.333 -74.667 60 -98s70.334 -35 125.001 -35c56.667 0 99.167 11.667 127.5 35s48.166 56 59.499 98h127c-16 -79.333 -51.5 -142.333 -106.5 -189s-124.167 -70 -207.5 -70z" />
    <glyph glyph-name="obreve" unicode="&#x14f;" 
d="M1097 542c0 -182 -41.833 -321.167 -125.5 -417.5s-204.5 -144.5 -362.5 -144.5c-154.667 0 -273.167 48.667 -355.5 146s-123.5 236 -123.5 416c0 186 42.167 325.833 126.5 419.5s203.833 140.5 358.5 140.5c162.667 0 283.667 -46.333 363 -139s119 -233 119 -421z
M908 542c0 143.333 -22.833 250.334 -68.5 321.001s-119.5 106 -221.5 106c-103.333 0 -179 -36 -227 -108s-72 -178.333 -72 -319c0 -140 24 -246.5 72 -319.5s120 -109.5 216 -109.5c106 0 182.667 35.667 230 107s71 178.666 71 321.999zM613 1201
c-82.667 0 -151.833 23.667 -207.5 71s-90.5 110 -104.5 188h127c11.333 -42 31.333 -74.667 60 -98s70.334 -35 125.001 -35c56.667 0 99.167 11.667 127.5 35s48.166 56 59.499 98h127c-16 -79.333 -51.5 -142.333 -106.5 -189s-124.167 -70 -207.5 -70z" />
    <glyph glyph-name="Ohungarumlaut" unicode="&#x150;" 
d="M1126 681c0 -224.667 -44.1689 -397.667 -132.502 -519s-215.166 -182 -380.499 -182c-166 0 -292.667 59.667 -380 179s-131 293.333 -131 522c0 224.667 43.333 395.667 130 513s214.334 176 383.001 176c164.667 0 291 -57.833 379 -173.5s132 -287.5 132 -515.5z
M924.998 681c0 355.333 -103.333 533.001 -310 533.001c-208 0 -312 -177.667 -312 -533c0 -180 26.333 -316 79 -408s130 -138 232 -138c108.667 0 187.667 46.667 237 140s74 228.666 74 405.999zM693.998 1445v20l207 239h187v-29l-300 -230h-94zM329.998 1445v20
l207 239h187v-29l-300 -230h-94z" />
    <glyph glyph-name="ohungarumlaut" unicode="&#x151;" 
d="M1097 542c0 -182 -41.833 -321.167 -125.5 -417.5s-204.5 -144.5 -362.5 -144.5c-154.667 0 -273.167 48.667 -355.5 146s-123.5 236 -123.5 416c0 186 42.167 325.833 126.5 419.5s203.833 140.5 358.5 140.5c162.667 0 283.667 -46.333 363 -139s119 -233 119 -421z
M908 542c0 143.333 -22.833 250.334 -68.5 321.001s-119.5 106 -221.5 106c-103.333 0 -179 -36 -227 -108s-72 -178.333 -72 -319c0 -140 24 -246.5 72 -319.5s120 -109.5 216 -109.5c106 0 182.667 35.667 230 107s71 178.666 71 321.999zM713 1201v20l207 239h187v-29
l-300 -230h-94zM349 1201v20l207 239h187v-29l-300 -230h-94z" />
    <glyph glyph-name="OE" unicode="&#x152;" 
d="M609 0c-38 -3.33301 -70.667 -5 -98 -5c-170 0 -294.333 56.333 -373 169s-118 285 -118 517c0 233.333 39.5 404 118.5 512s203.833 162 374.5 162c38.667 0 75 -2 109 -6h558v-152h-398v-440h367v-150h-367v-455h439v-152h-612zM512 140
c48 0 81.334 1.99902 100.001 5.99902v1057c-25.333 4 -58.333 6 -99 6c-108.667 0 -187.834 -42.667 -237.501 -128s-74.5 -218.666 -74.5 -399.999c0 -183.333 25.667 -319.333 77 -408s129.333 -133 234 -133z" />
    <glyph glyph-name="oe" unicode="&#x153;" 
d="M712 503c0 -126 14.499 -222.167 43.499 -288.5s70.5 -99.5 124.5 -99.5c43.333 0 78 15.667 104 47s43.667 71 53 119l138 -45c-42 -170.667 -139.667 -256 -293 -256c-121.333 0 -209 61 -263 183c-55.333 -122 -144 -183 -266 -183c-104.667 0 -185 48.167 -241 144.5
s-84 235.5 -84 417.5c0 186 28.333 325.833 85 419.5s139 140.5 247 140.5c124.667 0 213.334 -59 266.001 -177c56.667 118 143 177 259 177c212.667 0 319 -191.667 319 -575v-24h-492zM542.999 542c0 146 -13.167 253.666 -39.5 322.999s-69.833 104 -130.5 104
s-105.167 -34.667 -133.5 -104s-42.5 -177 -42.5 -323c0 -286 56.667 -429 170 -429c62.667 0 107.667 34.833 135 104.5s41 177.834 41 324.501zM874.999 968.999c-48 0 -86.333 -28.833 -115 -86.5s-44 -138.167 -46 -241.5h324c-5.33301 114 -21.333 197.167 -48 249.5
s-65 78.5 -115 78.5z" />
    <glyph glyph-name="Racute" unicode="&#x154;" 
d="M957 0l-365.999 575h-238v-575h-191v1349h482c155.333 0 273.666 -32.167 354.999 -96.5s122 -156.5 122 -276.5c0 -99.333 -31.167 -183 -93.5 -251s-145.833 -110.667 -250.5 -128l400 -597h-220zM929.001 973c0 148.667 -101.333 223 -304 223h-272v-470h280
c95.333 0 168.5 21.333 219.5 64s76.5 103.667 76.5 183zM474.001 1446v20l227 239h197v-29l-300 -230h-124z" />
    <glyph glyph-name="racute" unicode="&#x155;" 
d="M1045 918c-74.667 12.667 -145.333 19 -212 19c-107.333 0 -194 -40.333 -260 -121s-99 -183.334 -99 -308.001v-508h-180v701c0 50.667 -4.5 110.334 -13.5 179.001s-21.833 136 -38.5 202h171c26.667 -92 42.667 -175.333 48 -250h5c33.333 74.667 66 129.5 98 164.5
s70 61.333 114 79s97.667 26.5 161 26.5c69.333 0 138 -5.66699 206 -17v-167zM491.001 1201v20l227 239h197v-29l-300 -230h-124z" />
    <glyph glyph-name="Rcommaaccent" unicode="&#x156;" 
d="M957 0l-365.999 575h-238v-575h-191v1349h482c155.333 0 273.666 -32.167 354.999 -96.5s122 -156.5 122 -276.5c0 -99.333 -31.167 -183 -93.5 -251s-145.833 -110.667 -250.5 -128l400 -597h-220zM929.001 973c0 148.667 -101.333 223 -304 223h-272v-470h280
c95.333 0 168.5 21.333 219.5 64s76.5 103.667 76.5 183zM472.001 -423v33l79 292h197v-37l-171 -288h-105z" />
    <glyph glyph-name="rcommaaccent" unicode="&#x157;" 
d="M1045 918c-74.667 12.667 -145.333 19 -212 19c-107.333 0 -194 -40.333 -260 -121s-99 -183.334 -99 -308.001v-508h-180v701c0 50.667 -4.5 110.334 -13.5 179.001s-21.833 136 -38.5 202h171c26.667 -92 42.667 -175.333 48 -250h5c33.333 74.667 66 129.5 98 164.5
s70 61.333 114 79s97.667 26.5 161 26.5c69.333 0 138 -5.66699 206 -17v-167zM203.001 -423v33l79 292h197v-37l-171 -288h-105z" />
    <glyph glyph-name="Rcaron" unicode="&#x158;" 
d="M957 0l-365.999 575h-238v-575h-191v1349h482c155.333 0 273.666 -32.167 354.999 -96.5s122 -156.5 122 -276.5c0 -99.333 -31.167 -183 -93.5 -251s-145.833 -110.667 -250.5 -128l400 -597h-220zM929.001 973c0 148.667 -101.333 223 -304 223h-272v-470h280
c95.333 0 168.5 21.333 219.5 64s76.5 103.667 76.5 183zM682.001 1446h-164l-254 239v20h104l232 -138h2l219 138h105v-20z" />
    <glyph glyph-name="rcaron" unicode="&#x159;" 
d="M1045 918c-74.667 12.667 -145.333 19 -212 19c-107.333 0 -194 -40.333 -260 -121s-99 -183.334 -99 -308.001v-508h-180v701c0 50.667 -4.5 110.334 -13.5 179.001s-21.833 136 -38.5 202h171c26.667 -92 42.667 -175.333 48 -250h5c33.333 74.667 66 129.5 98 164.5
s70 61.333 114 79s97.667 26.5 161 26.5c69.333 0 138 -5.66699 206 -17v-167zM721.001 1201h-164l-254 239v20h104l232 -138h2l219 138h105v-20z" />
    <glyph glyph-name="Sacute" unicode="&#x15a;" 
d="M1128 370c0 -122.667 -44.8369 -218.335 -134.504 -287.002s-217.5 -103 -383.5 -103c-304.667 0 -481.667 119.333 -531 358l185 37c18.667 -86 57.334 -148.5 116.001 -187.5s137 -58.5 235 -58.5c106 0 186.5 20.667 241.5 62s82.5 100 82.5 176
c0 46.667 -10.833 84.667 -32.5 114s-50.167 53.333 -85.5 72s-75.166 33.834 -119.499 45.501l-134.5 34.5c-107.333 28 -183.833 53 -229.5 75s-82.167 47.167 -109.5 75.5s-48 60.833 -62 97.5s-21 79.667 -21 129c0 115.333 40.5 204.166 121.5 266.499
s197.167 93.5 348.5 93.5c141.333 0 249.333 -24.667 324 -74s126.667 -132.666 156 -249.999l-188 -33c-16 74.667 -48 128.834 -96 162.501s-113.667 50.5 -197 50.5c-188.667 0 -283 -71 -283 -213c0 -40 8.83301 -72.5 26.5 -97.5s41.667 -45.667 72 -62
s65.666 -29.833 105.999 -40.5l129.5 -34c92.667 -23.333 159.334 -42.833 200.001 -58.5s76.834 -33.5 108.501 -53.5s58.834 -43.667 81.501 -71s40.5 -59.333 53.5 -96s19.5 -80 19.5 -130zM521.996 1446v20l227 239h197v-29l-300 -230h-124z" />
    <glyph glyph-name="sacute" unicode="&#x15b;" 
d="M1060 309c0 -102.667 -38.8369 -183.168 -116.504 -241.501s-185.167 -87.5 -322.5 -87.5s-241.833 21.5 -313.5 64.5s-118.5 110.833 -140.5 203.5l159 31c12.667 -57.333 39.834 -99.166 81.501 -125.499s112.834 -39.5 213.501 -39.5c180 0 270 57 270 171
c0 42.667 -16.333 77.167 -49 103.5s-82.667 47.833 -150 64.5c-176 43.333 -287.667 77.333 -335 102s-83.666 55.5 -108.999 92.5s-38 83.167 -38 138.5c0 98 35.333 174.667 106 230s173 83 307 83c117.333 0 211 -22.167 281 -66.5s113.667 -108.833 131 -193.5
l-162 -20c-7.33301 48 -31 84.333 -71 109s-99.667 37 -179 37c-163.333 0 -245 -50.333 -245 -151c0 -40 13.833 -72 41.5 -96s72.167 -43.333 133.5 -58l119 -31c108.667 -26.667 186.834 -53 234.501 -79s85.167 -58.5 112.5 -97.5s41 -86.833 41 -143.5zM487.996 1201
v20l227 239h197v-29l-300 -230h-124z" />
    <glyph glyph-name="Scircumflex" unicode="&#x15c;" 
d="M1128 370c0 -122.667 -44.8369 -218.335 -134.504 -287.002s-217.5 -103 -383.5 -103c-304.667 0 -481.667 119.333 -531 358l185 37c18.667 -86 57.334 -148.5 116.001 -187.5s137 -58.5 235 -58.5c106 0 186.5 20.667 241.5 62s82.5 100 82.5 176
c0 46.667 -10.833 84.667 -32.5 114s-50.167 53.333 -85.5 72s-75.166 33.834 -119.499 45.501l-134.5 34.5c-107.333 28 -183.833 53 -229.5 75s-82.167 47.167 -109.5 75.5s-48 60.833 -62 97.5s-21 79.667 -21 129c0 115.333 40.5 204.166 121.5 266.499
s197.167 93.5 348.5 93.5c141.333 0 249.333 -24.667 324 -74s126.667 -132.666 156 -249.999l-188 -33c-16 74.667 -48 128.834 -96 162.501s-113.667 50.5 -197 50.5c-188.667 0 -283 -71 -283 -213c0 -40 8.83301 -72.5 26.5 -97.5s41.667 -45.667 72 -62
s65.666 -29.833 105.999 -40.5l129.5 -34c92.667 -23.333 159.334 -42.833 200.001 -58.5s76.834 -33.5 108.501 -53.5s58.834 -43.667 81.501 -71s40.5 -59.333 53.5 -96s19.5 -80 19.5 -130zM948.996 1466v-20h-105l-219 138h-2l-232 -138h-104v20l254 239h164z" />
    <glyph glyph-name="scircumflex" unicode="&#x15d;" 
d="M1060 309c0 -102.667 -38.8369 -183.168 -116.504 -241.501s-185.167 -87.5 -322.5 -87.5s-241.833 21.5 -313.5 64.5s-118.5 110.833 -140.5 203.5l159 31c12.667 -57.333 39.834 -99.166 81.501 -125.499s112.834 -39.5 213.501 -39.5c180 0 270 57 270 171
c0 42.667 -16.333 77.167 -49 103.5s-82.667 47.833 -150 64.5c-176 43.333 -287.667 77.333 -335 102s-83.666 55.5 -108.999 92.5s-38 83.167 -38 138.5c0 98 35.333 174.667 106 230s173 83 307 83c117.333 0 211 -22.167 281 -66.5s113.667 -108.833 131 -193.5
l-162 -20c-7.33301 48 -31 84.333 -71 109s-99.667 37 -179 37c-163.333 0 -245 -50.333 -245 -151c0 -40 13.833 -72 41.5 -96s72.167 -43.333 133.5 -58l119 -31c108.667 -26.667 186.834 -53 234.501 -79s85.167 -58.5 112.5 -97.5s41 -86.833 41 -143.5zM959.996 1221
v-20h-105l-219 138h-2l-232 -138h-104v20l254 239h164z" />
    <glyph glyph-name="Scedilla" unicode="&#x15e;" 
d="M1128 370c0 -122.667 -44.8369 -218.335 -134.504 -287.002s-217.5 -103 -383.5 -103c-304.667 0 -481.667 119.333 -531 358l185 37c18.667 -86 57.334 -148.5 116.001 -187.5s137 -58.5 235 -58.5c106 0 186.5 20.667 241.5 62s82.5 100 82.5 176
c0 46.667 -10.833 84.667 -32.5 114s-50.167 53.333 -85.5 72s-75.166 33.834 -119.499 45.501l-134.5 34.5c-107.333 28 -183.833 53 -229.5 75s-82.167 47.167 -109.5 75.5s-48 60.833 -62 97.5s-21 79.667 -21 129c0 115.333 40.5 204.166 121.5 266.499
s197.167 93.5 348.5 93.5c141.333 0 249.333 -24.667 324 -74s126.667 -132.666 156 -249.999l-188 -33c-16 74.667 -48 128.834 -96 162.501s-113.667 50.5 -197 50.5c-188.667 0 -283 -71 -283 -213c0 -40 8.83301 -72.5 26.5 -97.5s41.667 -45.667 72 -62
s65.666 -29.833 105.999 -40.5l129.5 -34c92.667 -23.333 159.334 -42.833 200.001 -58.5s76.834 -33.5 108.501 -53.5s58.834 -43.667 81.501 -71s40.5 -59.333 53.5 -96s19.5 -80 19.5 -130zM814.996 -258.001c0 -124 -91.333 -186 -274 -186c-38 0 -68 1.33301 -90 4v98
c33.333 -4 62 -6 86 -6c98 0 147 28.667 147 86c0 26.667 -10.167 47 -30.5 61s-54.5 21 -102.5 21c-28.667 0 -47.667 -0.666992 -57 -2l65 182h107l-39 -100c62.667 -2 109.667 -16.833 141 -44.5s47 -65.5 47 -113.5z" />
    <glyph glyph-name="scedilla" unicode="&#x15f;" 
d="M1060 309c0 -102.667 -38.8369 -183.168 -116.504 -241.501s-185.167 -87.5 -322.5 -87.5s-241.833 21.5 -313.5 64.5s-118.5 110.833 -140.5 203.5l159 31c12.667 -57.333 39.834 -99.166 81.501 -125.499s112.834 -39.5 213.501 -39.5c180 0 270 57 270 171
c0 42.667 -16.333 77.167 -49 103.5s-82.667 47.833 -150 64.5c-176 43.333 -287.667 77.333 -335 102s-83.666 55.5 -108.999 92.5s-38 83.167 -38 138.5c0 98 35.333 174.667 106 230s173 83 307 83c117.333 0 211 -22.167 281 -66.5s113.667 -108.833 131 -193.5
l-162 -20c-7.33301 48 -31 84.333 -71 109s-99.667 37 -179 37c-163.333 0 -245 -50.333 -245 -151c0 -40 13.833 -72 41.5 -96s72.167 -43.333 133.5 -58l119 -31c108.667 -26.667 186.834 -53 234.501 -79s85.167 -58.5 112.5 -97.5s41 -86.833 41 -143.5z
M824.996 -258.001c0 -124 -91.333 -186 -274 -186c-38 0 -68 1.33301 -90 4v98c33.333 -4 62 -6 86 -6c98 0 147 28.667 147 86c0 26.667 -10.167 47 -30.5 61s-54.5 21 -102.5 21c-28.667 0 -47.667 -0.666992 -57 -2l65 182h107l-39 -100
c62.667 -2 109.667 -16.833 141 -44.5s47 -65.5 47 -113.5z" />
    <glyph glyph-name="Scaron" unicode="&#x160;" 
d="M1128 370c0 -122.667 -44.8369 -218.335 -134.504 -287.002s-217.5 -103 -383.5 -103c-304.667 0 -481.667 119.333 -531 358l185 37c18.667 -86 57.334 -148.5 116.001 -187.5s137 -58.5 235 -58.5c106 0 186.5 20.667 241.5 62s82.5 100 82.5 176
c0 46.667 -10.833 84.667 -32.5 114s-50.167 53.333 -85.5 72s-75.166 33.834 -119.499 45.501l-134.5 34.5c-107.333 28 -183.833 53 -229.5 75s-82.167 47.167 -109.5 75.5s-48 60.833 -62 97.5s-21 79.667 -21 129c0 115.333 40.5 204.166 121.5 266.499
s197.167 93.5 348.5 93.5c141.333 0 249.333 -24.667 324 -74s126.667 -132.666 156 -249.999l-188 -33c-16 74.667 -48 128.834 -96 162.501s-113.667 50.5 -197 50.5c-188.667 0 -283 -71 -283 -213c0 -40 8.83301 -72.5 26.5 -97.5s41.667 -45.667 72 -62
s65.666 -29.833 105.999 -40.5l129.5 -34c92.667 -23.333 159.334 -42.833 200.001 -58.5s76.834 -33.5 108.501 -53.5s58.834 -43.667 81.501 -71s40.5 -59.333 53.5 -96s19.5 -80 19.5 -130zM700.996 1445h-164l-254 239v20h104l232 -138h2l219 138h105v-20z" />
    <glyph glyph-name="scaron" unicode="&#x161;" 
d="M1060 309c0 -102.667 -38.8369 -183.168 -116.504 -241.501s-185.167 -87.5 -322.5 -87.5s-241.833 21.5 -313.5 64.5s-118.5 110.833 -140.5 203.5l159 31c12.667 -57.333 39.834 -99.166 81.501 -125.499s112.834 -39.5 213.501 -39.5c180 0 270 57 270 171
c0 42.667 -16.333 77.167 -49 103.5s-82.667 47.833 -150 64.5c-176 43.333 -287.667 77.333 -335 102s-83.666 55.5 -108.999 92.5s-38 83.167 -38 138.5c0 98 35.333 174.667 106 230s173 83 307 83c117.333 0 211 -22.167 281 -66.5s113.667 -108.833 131 -193.5
l-162 -20c-7.33301 48 -31 84.333 -71 109s-99.667 37 -179 37c-163.333 0 -245 -50.333 -245 -151c0 -40 13.833 -72 41.5 -96s72.167 -43.333 133.5 -58l119 -31c108.667 -26.667 186.834 -53 234.501 -79s85.167 -58.5 112.5 -97.5s41 -86.833 41 -143.5zM705.996 1201
h-164l-254 239v20h104l232 -138h2l219 138h105v-20z" />
    <glyph glyph-name="Tcommaaccent" unicode="&#x162;" 
d="M709 1193v-1193h-190v1193h-443v156h1076v-156h-443zM446 -423v33l79 292h197v-37l-171 -288h-105z" />
    <glyph glyph-name="tcommaaccent" unicode="&#x163;" 
d="M190 940l0.000976562 141.999h170l58 282h120v-282h432v-142h-432v-652c0 -52.667 14.167 -91.667 42.5 -117s74.833 -38 139.5 -38c89.333 0 188.333 11.333 297 34v-137c-112.667 -30.667 -224.334 -46 -335.001 -46c-108 0 -189 22.833 -243 68.5
s-81 117.834 -81 216.501v671h-168zM480.001 -423.001v33l79 292h197v-37l-171 -288h-105z" />
    <glyph glyph-name="Tcaron" unicode="&#x164;" 
d="M709 1193v-1193h-190v1193h-443v156h1076v-156h-443zM701 1446h-164l-254 239v20h104l232 -138h2l219 138h105v-20z" />
    <glyph glyph-name="tcaron" unicode="&#x165;" 
d="M101 940l0.000976562 141.999h170l58 282h120v-282h432v-142h-432v-652c0 -52.667 14.167 -91.667 42.5 -117s74.833 -38 139.5 -38c89.333 0 188.333 11.333 297 34v-137c-112.667 -30.667 -224.334 -46 -335.001 -46c-108 0 -189 22.833 -243 68.5
s-81 117.834 -81 216.501v671h-168zM945.001 1159v33l79 292h197v-37l-171 -288h-105z" />
    <glyph glyph-name="Tbar" unicode="&#x166;" 
d="M709 1193v-424h240v-149h-240v-620h-190v620h-240v149h240v424h-443v156h1076v-156h-443z" />
    <glyph glyph-name="tbar" unicode="&#x167;" 
d="M980 647l0.000976562 -132.001h-432v-227c0 -52.667 14.167 -91.667 42.5 -117s74.833 -38 139.5 -38c89.333 0 188.333 11.333 297 34v-137c-112.667 -30.667 -224.334 -46 -335.001 -46c-108 0 -189 22.833 -243 68.5s-81 117.834 -81 216.501v246h-168v132h168v293
h-168v142h170l58 282h120v-282h432v-142h-432v-293h432z" />
    <glyph glyph-name="Utilde" unicode="&#x168;" 
d="M1085 490c0 -178 -37.999 -307.499 -113.999 -388.499s-198 -121.5 -366 -121.5c-162.667 0 -280.5 39.167 -353.5 117.5s-109.5 203.166 -109.5 374.499v877h191v-851c0 -136 19.5 -230.5 58.5 -283.5s109.833 -79.5 212.5 -79.5c107.333 0 182.666 27.333 225.999 82
s65 152.667 65 294v838h190v-859zM771.001 1446c-28 0 -56 6.16699 -84 18.5s-55.333 26 -82 41s-52.834 28.667 -78.501 41s-50.167 18.5 -73.5 18.5c-16.667 0 -30 -3.16699 -40 -9.5s-18.333 -15.5 -25 -27.5s-13.667 -39.333 -21 -82h-111
c7.33301 64 18.833 112.333 34.5 145s37.167 58 64.5 76s62 27 104 27c29.333 0 58 -6.16699 86 -18.5s55.333 -26 82 -41s52.334 -28.667 77.001 -41s48 -18.5 70 -18.5c24.667 0 43.667 7.83301 57 23.5s23.333 47.5 30 95.5h112c-10.667 -92 -32.5 -156.333 -65.5 -193
s-78.5 -55 -136.5 -55z" />
    <glyph glyph-name="utilde" unicode="&#x169;" 
d="M365 1082v-686.001c0 -104 16.333 -176.167 49 -216.5s91 -60.5 175 -60.5c86 0 154 29.333 204 88s75 141.334 75 248.001v627h181v-851c0 -126 2 -203 6 -231h-170c-0.666992 3.33301 -1.33398 12.333 -2.00098 27s-1.5 31.5 -2.5 50.5s-2.16699 54.833 -3.5 107.5h-3
c-41.333 -74.667 -89.166 -127.5 -143.499 -158.5s-121.833 -46.5 -202.5 -46.5c-118.667 0 -205.5 29.5 -260.5 88.5s-82.5 156.5 -82.5 292.5v721h180zM771 1201c-28 0 -56 6.16699 -84 18.5s-55.333 26 -82 41s-52.834 28.667 -78.501 41s-50.167 18.5 -73.5 18.5
c-16.667 0 -30 -3.16699 -40 -9.5s-18.333 -15.5 -25 -27.5s-13.667 -39.333 -21 -82h-111c7.33301 64 18.833 112.333 34.5 145s37.167 58 64.5 76s62 27 104 27c29.333 0 58 -6.16699 86 -18.5s55.333 -26 82 -41s52.334 -28.667 77.001 -41s48 -18.5 70 -18.5
c24.667 0 43.667 7.83301 57 23.5s23.333 47.5 30 95.5h112c-10.667 -92 -32.5 -156.333 -65.5 -193s-78.5 -55 -136.5 -55z" />
    <glyph glyph-name="Umacron" unicode="&#x16a;" 
d="M1085 490c0 -178 -37.999 -307.499 -113.999 -388.499s-198 -121.5 -366 -121.5c-162.667 0 -280.5 39.167 -353.5 117.5s-109.5 203.166 -109.5 374.499v877h191v-851c0 -136 19.5 -230.5 58.5 -283.5s109.833 -79.5 212.5 -79.5c107.333 0 182.666 27.333 225.999 82
s65 152.667 65 294v838h190v-859zM890.001 1503h-551v127h551v-127z" />
    <glyph glyph-name="umacron" unicode="&#x16b;" 
d="M365 1082v-686.001c0 -104 16.333 -176.167 49 -216.5s91 -60.5 175 -60.5c86 0 154 29.333 204 88s75 141.334 75 248.001v627h181v-851c0 -126 2 -203 6 -231h-170c-0.666992 3.33301 -1.33398 12.333 -2.00098 27s-1.5 31.5 -2.5 50.5s-2.16699 54.833 -3.5 107.5h-3
c-41.333 -74.667 -89.166 -127.5 -143.499 -158.5s-121.833 -46.5 -202.5 -46.5c-118.667 0 -205.5 29.5 -260.5 88.5s-82.5 156.5 -82.5 292.5v721h180zM890 1236h-551v127h551v-127z" />
    <glyph glyph-name="Ubreve" unicode="&#x16c;" 
d="M1085 490c0 -178 -37.999 -307.499 -113.999 -388.499s-198 -121.5 -366 -121.5c-162.667 0 -280.5 39.167 -353.5 117.5s-109.5 203.166 -109.5 374.499v877h191v-851c0 -136 19.5 -230.5 58.5 -283.5s109.833 -79.5 212.5 -79.5c107.333 0 182.666 27.333 225.999 82
s65 152.667 65 294v838h190v-859zM613.001 1446c-82.667 0 -151.833 23.667 -207.5 71s-90.5 110 -104.5 188h127c11.333 -42 31.333 -74.667 60 -98s70.334 -35 125.001 -35c56.667 0 99.167 11.667 127.5 35s48.166 56 59.499 98h127
c-16 -79.333 -51.5 -142.333 -106.5 -189s-124.167 -70 -207.5 -70z" />
    <glyph glyph-name="ubreve" unicode="&#x16d;" 
d="M365 1082v-686.001c0 -104 16.333 -176.167 49 -216.5s91 -60.5 175 -60.5c86 0 154 29.333 204 88s75 141.334 75 248.001v627h181v-851c0 -126 2 -203 6 -231h-170c-0.666992 3.33301 -1.33398 12.333 -2.00098 27s-1.5 31.5 -2.5 50.5s-2.16699 54.833 -3.5 107.5h-3
c-41.333 -74.667 -89.166 -127.5 -143.499 -158.5s-121.833 -46.5 -202.5 -46.5c-118.667 0 -205.5 29.5 -260.5 88.5s-82.5 156.5 -82.5 292.5v721h180zM613 1201c-82.667 0 -151.833 23.667 -207.5 71s-90.5 110 -104.5 188h127c11.333 -42 31.333 -74.667 60 -98
s70.334 -35 125.001 -35c56.667 0 99.167 11.667 127.5 35s48.166 56 59.499 98h127c-16 -79.333 -51.5 -142.333 -106.5 -189s-124.167 -70 -207.5 -70z" />
    <glyph glyph-name="Uring" unicode="&#x16e;" 
d="M1085 490c0 -178 -37.999 -307.499 -113.999 -388.499s-198 -121.5 -366 -121.5c-162.667 0 -280.5 39.167 -353.5 117.5s-109.5 203.166 -109.5 374.499v877h191v-851c0 -136 19.5 -230.5 58.5 -283.5s109.833 -79.5 212.5 -79.5c107.333 0 182.666 27.333 225.999 82
s65 152.667 65 294v838h190v-859zM856.001 1506c0 -58 -21.833 -105.833 -65.5 -143.5s-102.5 -56.5 -176.5 -56.5c-74.667 0 -133.667 18.833 -177 56.5s-65 85.5 -65 143.5c0 59.333 22.167 107.333 66.5 144s102.833 55 175.5 55c74 0 132.833 -18.5 176.5 -55.5
s65.5 -84.833 65.5 -143.5zM735.001 1506c0 24.667 -10.833 44.667 -32.5 60s-51.167 23 -88.5 23c-36.667 0 -66.167 -7.66699 -88.5 -23s-33.5 -35.333 -33.5 -60c0 -25.333 11.167 -45.666 33.5 -60.999s51.833 -23 88.5 -23c37.333 0 66.833 7.66699 88.5 23
s32.5 35.666 32.5 60.999z" />
    <glyph glyph-name="uring" unicode="&#x16f;" 
d="M365 1082v-686.001c0 -104 16.333 -176.167 49 -216.5s91 -60.5 175 -60.5c86 0 154 29.333 204 88s75 141.334 75 248.001v627h181v-851c0 -126 2 -203 6 -231h-170c-0.666992 3.33301 -1.33398 12.333 -2.00098 27s-1.5 31.5 -2.5 50.5s-2.16699 54.833 -3.5 107.5h-3
c-41.333 -74.667 -89.166 -127.5 -143.499 -158.5s-121.833 -46.5 -202.5 -46.5c-118.667 0 -205.5 29.5 -260.5 88.5s-82.5 156.5 -82.5 292.5v721h180zM856 1348c0 -58 -21.833 -105.833 -65.5 -143.5s-102.5 -56.5 -176.5 -56.5c-74.667 0 -133.667 18.833 -177 56.5
s-65 85.5 -65 143.5c0 59.333 22.167 107.333 66.5 144s102.833 55 175.5 55c74 0 132.833 -18.5 176.5 -55.5s65.5 -84.833 65.5 -143.5zM735 1348c0 24.667 -10.833 44.667 -32.5 60s-51.167 23 -88.5 23c-36.667 0 -66.167 -7.66699 -88.5 -23s-33.5 -35.333 -33.5 -60
c0 -25.333 11.167 -45.666 33.5 -60.999s51.833 -23 88.5 -23c37.333 0 66.833 7.66699 88.5 23s32.5 35.666 32.5 60.999z" />
    <glyph glyph-name="Uhungarumlaut" unicode="&#x170;" 
d="M1085 490c0 -178 -37.999 -307.499 -113.999 -388.499s-198 -121.5 -366 -121.5c-162.667 0 -280.5 39.167 -353.5 117.5s-109.5 203.166 -109.5 374.499v877h191v-851c0 -136 19.5 -230.5 58.5 -283.5s109.833 -79.5 212.5 -79.5c107.333 0 182.666 27.333 225.999 82
s65 152.667 65 294v838h190v-859zM705.001 1446v20l207 239h187v-29l-300 -230h-94zM341.001 1446v20l207 239h187v-29l-300 -230h-94z" />
    <glyph glyph-name="uhungarumlaut" unicode="&#x171;" 
d="M365 1082v-686.001c0 -104 16.333 -176.167 49 -216.5s91 -60.5 175 -60.5c86 0 154 29.333 204 88s75 141.334 75 248.001v627h181v-851c0 -126 2 -203 6 -231h-170c-0.666992 3.33301 -1.33398 12.333 -2.00098 27s-1.5 31.5 -2.5 50.5s-2.16699 54.833 -3.5 107.5h-3
c-41.333 -74.667 -89.166 -127.5 -143.499 -158.5s-121.833 -46.5 -202.5 -46.5c-118.667 0 -205.5 29.5 -260.5 88.5s-82.5 156.5 -82.5 292.5v721h180zM711 1201v20l207 239h187v-29l-300 -230h-94zM347 1201v20l207 239h187v-29l-300 -230h-94z" />
    <glyph glyph-name="Uogonek" unicode="&#x172;" 
d="M1085 490c0 -178 -37.999 -307.499 -113.999 -388.499s-198 -121.5 -366 -121.5c-162.667 0 -280.5 39.167 -353.5 117.5s-109.5 203.166 -109.5 374.499v877h191v-851c0 -136 19.5 -230.5 58.5 -283.5s109.833 -79.5 212.5 -79.5c107.333 0 182.666 27.333 225.999 82
s65 152.667 65 294v838h190v-859zM850.001 -399.999c-42 -18 -88.332 -27 -138.999 -27c-70 0 -122.667 17 -158 51s-53 79.333 -53 136c0 45.333 13.833 89.833 41.5 133.5s65.5 79.167 113.5 106.5h133c-42.667 -24 -77.834 -56.833 -105.501 -98.5
s-41.5 -84.5 -41.5 -128.5c0 -28 8.16699 -50 24.5 -66s39.5 -24 69.5 -24c36 0 74.333 8 115 24v-107z" />
    <glyph glyph-name="uogonek" unicode="&#x173;" 
d="M365 1082v-686.001c0 -104 16.333 -176.167 49 -216.5s91 -60.5 175 -60.5c86 0 154 29.333 204 88s75 141.334 75 248.001v627h181v-851c0 -126 2 -203 6 -231h-170c-0.666992 3.33301 -1.33398 12.333 -2.00098 27s-1.5 31.5 -2.5 50.5s-2.16699 54.833 -3.5 107.5h-3
c-41.333 -74.667 -89.166 -127.5 -143.499 -158.5s-121.833 -46.5 -202.5 -46.5c-118.667 0 -205.5 29.5 -260.5 88.5s-82.5 156.5 -82.5 292.5v721h180zM1080 -400.001c-42 -18 -88.332 -27 -138.999 -27c-70 0 -122.667 17 -158 51s-53 79.333 -53 136
c0 45.333 13.833 89.833 41.5 133.5s65.5 79.167 113.5 106.5h133c-42.667 -24 -77.834 -56.833 -105.501 -98.5s-41.5 -84.5 -41.5 -128.5c0 -28 8.16699 -50 24.5 -66s39.5 -24 69.5 -24c36 0 74.333 8 115 24v-107z" />
    <glyph glyph-name="Wcircumflex" unicode="&#x174;" 
d="M1018 0h-207.999l-112.5 420c-25.667 96 -52.834 208 -81.501 336l-53.5 -226c-16.333 -67.333 -64.166 -244 -143.499 -530h-208l-211 1349h189l109 -835c10.667 -87.333 21.667 -202.666 33 -345.999l53.5 228c14.333 60 62.166 238.333 143.499 535h175l108.5 -398
c26.333 -96.667 55.833 -218.334 88.5 -365.001l35 346l104 835h189zM941.001 1466v-20h-105l-219 138h-2l-232 -138h-104v20l254 239h164z" />
    <glyph glyph-name="wcircumflex" unicode="&#x175;" 
d="M1018 0l-203.999 -0.000976562l-143 471l-57 202l-39 -139l-168 -534h-203l-183 1082h178l93 -607c22 -176 33 -284.667 33 -326c26 106.667 45.333 178 58 214l135 424h193l130 -425c21.333 -70 39.666 -141 54.999 -213c0 20 1.33301 45 4 75s6 60.833 10 92.5l12 90.5
c4 28.667 7 51.334 9 68.001l101 607h176zM941.001 1221v-20h-105l-219 138h-2l-232 -138h-104v20l254 239h164z" />
    <glyph glyph-name="Ycircumflex" unicode="&#x176;" 
d="M708 584v-584h-188v584l-484 765h205l374 -611l372 611h205zM941 1466v-20h-105l-219 138h-2l-232 -138h-104v20l254 239h164z" />
    <glyph glyph-name="ycircumflex" unicode="&#x177;" 
d="M292 -425c-49.333 0 -90.667 3.66699 -124 11v135c25.333 -4 53.333 -6 84 -6c52.667 0 102.167 19.667 148.5 59s85.5 102 117.5 188l18 49l-470 1071h192l264 -642c60.667 -149.333 93.334 -234 98.001 -254l41 110l310 786h190l-456 -1082
c-59.333 -156.667 -120.833 -266.667 -184.5 -330s-139.834 -95 -228.501 -95zM940.999 1221v-20h-105l-219 138h-2l-232 -138h-104v20l254 239h164z" />
    <glyph glyph-name="Ydieresis" unicode="&#x178;" 
d="M708 584v-584h-188v584l-484 765h205l374 -611l372 611h205zM730 1445v184h163v-184h-163zM336 1445v184h165v-184h-165z" />
    <glyph glyph-name="Zacute" unicode="&#x179;" 
d="M1155 0h-1082v143l818 1050h-745v156h962v-139l-818 -1054h865v-156zM504 1446v20l227 239h197v-29l-300 -230h-124z" />
    <glyph glyph-name="zacute" unicode="&#x17a;" 
d="M147 0v137l681 806h-641v139h844v-137l-682 -806h719v-139h-921zM487 1201v20l227 239h197v-29l-300 -230h-124z" />
    <glyph glyph-name="Zdotaccent" unicode="&#x17b;" 
d="M1155 0h-1082v143l818 1050h-745v156h962v-139l-818 -1054h865v-156zM528 1446v192h200v-192h-200z" />
    <glyph glyph-name="zdotaccent" unicode="&#x17c;" 
d="M147 0v137l681 806h-641v139h844v-137l-682 -806h719v-139h-921zM512 1292v192h200v-192h-200z" />
    <glyph glyph-name="Zcaron" unicode="&#x17d;" 
d="M1155 0h-1082v143l818 1050h-745v156h962v-139l-818 -1054h865v-156zM711 1445h-164l-254 239v20h104l232 -138h2l219 138h105v-20z" />
    <glyph glyph-name="zcaron" unicode="&#x17e;" 
d="M147 0v137l681 806h-641v139h844v-137l-682 -806h719v-139h-921zM702 1201h-164l-254 239v20h104l232 -138h2l219 138h105v-20z" />
    <glyph glyph-name="longs" unicode="&#x17f;" 
d="M580 0l-180.002 -0.000976562v1107c0 136.667 32.167 233.667 96.5 291s171.5 86 321.5 86c48 0 99.833 -2.16699 155.5 -6.5s97.5 -9.16602 125.5 -14.499v-145c-20 3.33301 -60.5 7 -121.5 11s-107.167 6 -138.5 6c-69.333 0 -121.666 -7.66699 -156.999 -23
s-61.166 -40.333 -77.499 -75s-24.5 -83 -24.5 -145v-1092z" />
    <glyph glyph-name="uni0180" unicode="&#x180;" 
d="M58 1337l126.999 -0.000976562v147h180v-147h305v-131h-305v-145c0 -43.333 -1.33301 -95.666 -4 -156.999h4c60.667 133.333 172 200 334 200c260.667 0 391 -186 391 -558c0 -189.333 -33.833 -331 -101.5 -425s-164.5 -141 -290.5 -141
c-162.667 0 -274 61.333 -334 184h-2c0 -32 -1.16699 -65.333 -3.5 -100s-4.16602 -56 -5.49902 -64h-174c4 36 6 110.333 6 223v983h-127v131zM903.999 539.999c0 148 -20.334 255.832 -61.001 323.499s-105 101.5 -193 101.5c-99.333 0 -171.666 -36.667 -216.999 -110
s-68 -183.666 -68 -330.999c0 -140 22.167 -243.5 66.5 -310.5s116.5 -100.5 216.5 -100.5c90 0 155.167 34.833 195.5 104.5s60.5 177.167 60.5 322.5z" />
    <glyph glyph-name="uni0181" unicode="&#x181;" 
d="M1152 380c0 -120 -45.668 -213.335 -137.001 -280.002s-218.333 -100 -381 -100h-372v1201c-51.333 0 -88 -11.333 -110 -34s-33 -57.667 -33 -105c0 -32.667 6 -67.667 18 -105l-155 -17c-11.333 43.333 -17 85 -17 125c0 88.667 25.833 158.167 77.5 208.5
s124.834 75.5 219.501 75.5h312c330.667 0 496 -109 496 -327c0 -81.333 -23.833 -149.166 -71.5 -203.499s-113.167 -90.166 -196.5 -107.499c111.333 -12 197.5 -47.667 258.5 -107s91.5 -134 91.5 -224zM958.999 396.998c0 76 -29.668 134 -89.001 174
s-147.666 60 -264.999 60h-152v-478h166c116.667 0 202.5 20.167 257.5 60.5s82.5 101.5 82.5 183.5zM877.998 997.998c0 71.333 -25.167 122.167 -75.5 152.5s-125.833 45.5 -226.5 45.5h-123v-416h125c200 0 300 72.667 300 218z" />
    <glyph glyph-name="uni0182" unicode="&#x182;" 
d="M1172 393c0 -122 -42.5 -218 -127.5 -288s-204.167 -105 -357.5 -105h-525v1349h918v-156h-727v-410h322c161.333 0 284.5 -34 369.5 -102s127.5 -164 127.5 -288zM980 387c0 80.667 -27.333 140.167 -82 178.5s-136.667 57.5 -246 57.5h-299v-472h307
c109.333 0 190 18.667 242 56s78 97.333 78 180z" />
    <glyph glyph-name="uni0183" unicode="&#x183;" 
d="M1090 546c0 -189.333 -33.834 -331.001 -101.501 -425.001s-164.5 -141 -290.5 -141c-162.667 0 -274 61.333 -334 184h-2c0 -32 -1.16699 -65.333 -3.5 -100s-4.16602 -56 -5.49902 -64h-174c4 36 6 110.333 6 223v1261h734v-159h-554v-264
c0 -43.333 -1.33301 -95.666 -4 -156.999h4c60.667 133.333 172 200 334 200c260.667 0 391 -186 391 -558zM903.999 539.999c0 148 -20.334 255.832 -61.001 323.499s-105 101.5 -193 101.5c-99.333 0 -171.666 -36.667 -216.999 -110s-68 -183.666 -68 -330.999
c0 -140 22.167 -243.5 66.5 -310.5s116.5 -100.5 216.5 -100.5c90 0 155.167 34.833 195.5 104.5s60.5 177.167 60.5 322.5z" />
    <glyph glyph-name="uni0184" unicode="&#x184;" 
d="M1172 393c0 -122 -42.5 -218 -127.5 -288s-204.167 -105 -357.5 -105h-525v951l-158 165v33l293 200h56v-566h322c161.333 0 284.5 -34 369.5 -102s127.5 -164 127.5 -288zM980 387c0 80.667 -27.333 140.167 -82 178.5s-136.667 57.5 -246 57.5h-299v-472h307
c109.333 0 190 18.667 242 56s78 97.333 78 180z" />
    <glyph glyph-name="uni0185" unicode="&#x185;" 
d="M1090 546c0 -189.333 -33.834 -331.001 -101.501 -425.001s-164.5 -141 -290.5 -141c-162.667 0 -274 61.333 -334 184h-2c0 -32 -1.16699 -65.333 -3.5 -100s-4.16602 -56 -5.49902 -64h-174c4 36 6 110.333 6 223v863l-128 180v33l257 185h51v-423
c0 -43.333 -1.33301 -95.666 -4 -156.999h4c60.667 133.333 172 200 334 200c260.667 0 391 -186 391 -558zM903.999 539.999c0 148 -20.334 255.832 -61.001 323.499s-105 101.5 -193 101.5c-99.333 0 -171.666 -36.667 -216.999 -110s-68 -183.666 -68 -330.999
c0 -140 22.167 -243.5 66.5 -310.5s116.5 -100.5 216.5 -100.5c90 0 155.167 34.833 195.5 104.5s60.5 177.167 60.5 322.5z" />
    <glyph glyph-name="uni0186" unicode="&#x186;" 
d="M915 681c0 182 -27.333 316.333 -82 403s-139.334 130 -254.001 130c-68.667 0 -129.167 -21.833 -181.5 -65.5s-90.833 -103.167 -115.5 -178.5l-168 65c84.667 223.333 240 335 466 335c357.333 0 536 -229.667 536 -689c0 -226 -47.167 -399.333 -141.5 -520
s-229.166 -181 -404.499 -181c-222.667 0 -383.667 124 -483 372l159 65c37.333 -96 83.5 -167 138.5 -213s116.167 -69 183.5 -69c117.333 0 204.5 45.5 261.5 136.5s85.5 227.5 85.5 409.5z" />
    <glyph glyph-name="uni0187" unicode="&#x187;" 
d="M303 681c0 -182 28.499 -318.5 85.499 -409.5s144.167 -136.5 261.5 -136.5c67.333 0 128.333 22.833 183 68.5s101 116.834 139 213.501l159 -65c-53.333 -128.667 -120.333 -222.834 -201 -282.501s-174.667 -89.5 -282 -89.5c-175.333 0 -310.166 60.333 -404.499 181
s-141.5 294 -141.5 520c0 459.333 178.667 689 536 689c124 0 226.667 -35 308 -105v9c0 92 22.833 164.333 68.5 217s109.167 79 190.5 79c36 0 76 -5 120 -15v-157c-30 12 -59.333 18 -88 18c-47.333 0 -81.333 -11.833 -102 -35.5s-31 -61.167 -31 -112.5v-233l-168 -65
c-24.667 75.333 -63.167 134.833 -115.5 178.5s-112.833 65.5 -181.5 65.5c-114 0 -198.5 -43 -253.5 -129s-82.5 -220.667 -82.5 -404z" />
    <glyph glyph-name="uni0188" unicode="&#x188;" 
d="M130 542c0 180 43.001 318.333 129.001 415s210.333 145 373 145c116 0 213 -27 291 -81c4.66699 84 29.334 148.667 74.001 194s105.334 68 182.001 68c31.333 0 64.333 -4 99 -12v-150c-24 10.667 -50.333 16 -79 16c-44 0 -75.167 -11.833 -93.5 -35.5
s-27.5 -61.167 -27.5 -112.5v-210l-192 -14c-10.667 60.667 -37.334 108.5 -80.001 143.5s-103.334 52.5 -182.001 52.5c-105.333 0 -182.5 -32.667 -231.5 -98s-73.5 -171 -73.5 -317c0 -148 24.5 -256.167 73.5 -324.5s125.833 -102.5 230.5 -102.5
c72 0 131.667 17.667 179 53s76.666 89.333 87.999 162l190 -12c-8.66699 -64 -32.834 -122.167 -72.501 -174.5s-92.167 -93.333 -157.5 -123s-138.333 -44.5 -219 -44.5c-163.333 0 -287.666 48 -372.999 144s-128 235.333 -128 418z" />
    <glyph glyph-name="uni0189" unicode="&#x189;" 
d="M1125 688c0 -220.667 -51.167 -390.5 -153.5 -509.5s-248.833 -178.5 -439.5 -178.5h-370v597h-135v149h135v603h311c219.333 0 382.833 -54.833 490.5 -164.5s161.5 -275.167 161.5 -496.5zM642 597h-289.001v-441h162c141.333 0 246.333 44.333 315 133
s103 221.667 103 399c0 176 -36.667 304.167 -110 384.5s-189.666 120.5 -348.999 120.5h-121v-447h289v-149z" />
    <glyph glyph-name="uni018A" unicode="&#x18a;" 
d="M1125 688c0 -220.667 -51.168 -390.5 -153.501 -509.5s-248.833 -178.5 -439.5 -178.5h-270v1201c-51.333 0 -88 -11.333 -110 -34s-33 -57.667 -33 -105c0 -32.667 6 -67.667 18 -105l-155 -17c-11.333 43.333 -17 85 -17 125c0 88.667 25.833 158.167 77.5 208.5
s124.834 75.5 219.501 75.5h211c219.333 0 382.833 -54.833 490.5 -164.5s161.5 -275.167 161.5 -496.5zM932.999 688c0 176 -36.668 304.167 -110.001 384.5s-189.666 120.5 -348.999 120.5h-21v-1037h62c141.333 0 246.333 44.333 315 133s103 221.667 103 399z" />
    <glyph glyph-name="uni018B" unicode="&#x18b;" 
d="M57 393c0 124 42.5 219.999 127.5 287.999s208.167 102 369.5 102h322v410h-727v156h918v-1349h-525c-152.667 0 -271.667 34.833 -357 104.5s-128 165.834 -128 288.501zM249 386.999c0 -82.667 26 -142.667 78 -180s132.667 -56 242 -56h307v472h-299
c-109.333 0 -191.333 -19.167 -246 -57.5s-82 -97.833 -82 -178.5z" />
    <glyph glyph-name="uni018C" unicode="&#x18c;" 
d="M862 174c-32.667 -70 -76 -120.834 -130 -152.501s-121.333 -47.5 -202 -47.5c-134.667 0 -233.667 46.333 -297 139s-95 232.334 -95 419.001c0 377.333 130.667 566 392 566c80.667 0 148.167 -14.333 202.5 -43s97.833 -75.667 130.5 -141h2l-2 151v260h-554v159h734
v-1261c0 -112.667 2 -187 6 -223h-172c-2 4 -4.16699 27 -6.5 69s-3.5 77 -3.5 105h-5zM324 537.999c0 -149.333 19.833 -257.5 59.5 -324.5s104.167 -100.5 193.5 -100.5c97.333 0 169.333 35.167 216 105.5s70 182.166 70 335.499c0 142.667 -22.333 246.834 -67 312.501
s-117 98.5 -217 98.5c-90 0 -155 -34.333 -195 -103s-60 -176.667 -60 -324z" />
    <glyph glyph-name="uni018D" unicode="&#x18d;" 
d="M1097 542c0 -341.333 -146.332 -521.999 -438.999 -541.999l351 -293v-132h-776v145h519c-66.667 59.333 -137 118.166 -211 176.499l-216 175.5c-72.667 60.667 -123.334 126.167 -152.001 196.5s-43 161.5 -43 273.5c0 186 42.167 325.833 126.5 419.5
s203.833 140.5 358.5 140.5c162.667 0 283.667 -46.333 363 -139s119 -233 119 -421zM908.001 542.001c0 143.333 -22.834 250.333 -68.501 321s-119.5 106 -221.5 106s-177.333 -35 -226 -105s-73 -177.333 -73 -322c0 -133.333 24.333 -235 73 -305
s120.334 -105 215.001 -105c103.333 0 179.333 33.833 228 101.5s73 170.5 73 308.5z" />
    <glyph glyph-name="uni018E" unicode="&#x18e;" 
d="M107 0v156h769v461h-668v154h668v422h-728v156h919v-1349h-960z" />
    <glyph glyph-name="uni018F" unicode="&#x18f;" 
d="M155 1134c50.667 78 112.167 136.833 184.5 176.5s160.166 59.5 263.499 59.5c348 0 522 -229.667 522 -689c0 -224.667 -44.167 -397.667 -132.5 -519s-215.166 -182 -380.499 -182s-291.5 59 -378.5 177s-130.5 291.333 -130.5 520v80h821
c-13.333 304.667 -122 457 -326 457c-132 0 -231.333 -56.667 -298 -170zM613 135c194 0 297.667 156.001 311 468.001h-623c7.33301 -154.667 37.5 -271.334 90.5 -350.001s126.833 -118 221.5 -118z" />
    <glyph glyph-name="uni0190" unicode="&#x190;" 
d="M608 -20c-158.667 0 -284.166 34.8301 -376.499 104.497s-138.5 165.167 -138.5 286.5c0 88.667 30.167 163.667 90.5 225s137.5 98 231.5 110c-186.667 44.667 -280 142.667 -280 294c0 108.667 43.667 197.334 131 266.001s203.333 103 348 103
c130 0 236.333 -26 319 -78s148 -137.333 196 -256l-168 -65c-35.333 87.333 -82 149.833 -140 187.5s-128 56.5 -210 56.5c-88 0 -157.5 -20.167 -208.5 -60.5s-76.5 -94.833 -76.5 -163.5c0 -145.333 118 -218 354 -218h71v-148h-71c-134.667 0 -234 -20.167 -298 -60.5
s-96 -102.166 -96 -185.499c0 -74.667 29.5 -134.167 88.5 -178.5s139.167 -66.5 240.5 -66.5c175.333 0 302.666 90.667 381.999 272l155 -77c-58 -125.333 -131.167 -214.666 -219.5 -267.999s-196.5 -80 -324.5 -80z" />
    <glyph glyph-name="uni0191" unicode="&#x191;" 
d="M385 1193l0.000976562 -494h676v-158h-676v-671c0 -95.333 -23.833 -168.333 -71.5 -219s-115.167 -76 -202.5 -76c-40.667 0 -88.334 6.66699 -143.001 20l35 156c34 -11.333 63 -17 87 -17c69.333 0 104 52.333 104 157v1458h891v-156h-700z" />
    <glyph glyph-name="florin" unicode="&#x192;" 
d="M909 1369c52.667 0 105.999 -7.66797 159.999 -23.001l-40 -136c-36 12.667 -79.333 19 -130 19c-56 0 -96.667 -10.167 -122 -30.5s-44.666 -62.166 -57.999 -125.499l-27 -137h302l-25 -131h-303l-243 -1230h-180l243 1230h-252l27 131h251l29 152
c24 102.667 65.833 175.167 125.5 217.5s140.5 63.5 242.5 63.5z" />
    <glyph glyph-name="uni0193" unicode="&#x193;" 
d="M1101 133c-152.667 -102 -306.667 -153 -462 -153c-166.667 0 -296 61.833 -388 185.5s-138 295.5 -138 515.5c0 231.333 44 404 132 518s220.333 171 397 171c124.667 0 225.667 -33.667 303 -101v9c0 92 22.833 164.333 68.5 217s109.167 79 190.5 79
c36 0 76 -5 120 -15v-157c-37.333 12 -66.666 18 -87.999 18c-47.333 0 -81.333 -11.833 -102 -35.5s-31 -61.167 -31 -112.5v-233l-171 -56c-54 154 -150 231 -288 231c-112.667 0 -195.834 -42 -249.501 -126s-80.5 -219.667 -80.5 -407c0 -364 113.667 -546 341 -546
c44 0 89.333 6.5 136 19.5s88 31.167 124 54.5v336h-293v160h479v-572z" />
    <glyph glyph-name="uni0194" unicode="&#x194;" 
d="M616 -425c-77.333 0 -138.166 22.665 -182.499 67.998s-66.5 106 -66.5 182c0 66.667 25.667 147.334 77 242.001l70 132l-509 1150h201l410 -969l406 969h201l-509 -1149l72 -131c52.667 -95.333 79 -176.666 79 -243.999c0 -76 -22.333 -136.667 -67 -182
s-105.334 -68 -182.001 -68zM702 -173.002c0 27.333 -4.5 56.835 -13.5 88.502s-33.167 87.834 -72.5 168.501c-38.667 -80.667 -62.667 -136.834 -72 -168.501s-14 -61.167 -14 -88.5c0 -32.667 7.66699 -57.834 23 -75.501s36.333 -26.5 63 -26.5s47.667 8.66699 63 26
s23 42.666 23 75.999z" />
    <glyph glyph-name="uni0195" unicode="&#x195;" 
d="M841 -20c-66.667 0 -120.501 12.8311 -161.501 38.498s-71.333 64.334 -91 116.001s-29.5 127.167 -29.5 226.5v345c0 99.333 -10 167 -30 203s-53.333 54 -100 54c-46 0 -83.333 -29 -112 -87s-43 -137.333 -43 -238v-638h-169v1484h169v-386
c0 -81.333 -2.33301 -138.333 -7 -171h3c52 116.667 126.667 175 224 175c80.667 0 139.834 -28.667 177.501 -86s56.5 -149 56.5 -275v-357c0 -101.333 8.66699 -171.166 26 -209.499s46 -57.5 86 -57.5c41.333 0 70.833 20 88.5 60s26.5 109 26.5 207v698h169v-717
c0 -256.667 -94.333 -385 -283 -385z" />
    <glyph glyph-name="uni0196" unicode="&#x196;" 
d="M736 142h380v-142h-982v142h422v1200h-289v142h469v-1342z" />
    <glyph glyph-name="uni0197" unicode="&#x197;" 
d="M202 1349h823v-156h-316v-410h207v-141h-207v-486h316v-156h-823v156h316v486h-207v141h207v410h-316v156z" />
    <glyph glyph-name="uni0198" unicode="&#x198;" 
d="M1003 0l-479 627l-171 -178v-449h-191v1074c0 95.333 25.333 168.5 76 219.5s122.667 76.5 216 76.5c44 0 88 -5 132 -15v-165c-33.333 12 -69 18 -107 18c-84 0 -126 -49.333 -126 -148v-404l572 693h225l-496 -587l573 -762h-224z" />
    <glyph glyph-name="uni0199" unicode="&#x199;" 
d="M914 0l-366 499l-132 -98v-401h-180v1188c0 95.333 25.333 168.5 76 219.5s122.667 76.5 216 76.5c44 0 88 -5 132 -15v-165c-33.333 12 -72 18 -116 18c-85.333 0 -128 -49.333 -128 -148v-617l475 525h211l-439 -465l462 -617h-211z" />
    <glyph glyph-name="uni019A" unicode="&#x19a;" 
d="M736 813h209v-141h-209v-530h380v-142h-982v142h422v530h-226v141h226v529h-289v142h469v-671z" />
    <glyph glyph-name="uni019B" unicode="&#x19b;" 
d="M814 1275l-160 -60l452 -1215h-190l-207 579c-27.333 74.667 -49 146 -65 214c-10 -30.667 -22 -63.5 -36 -98.5s-116.333 -266.5 -307 -694.5h-187l449 970l-69 190l-183 -68l-46 118l188 69l-73 205h177l54 -147l157 57z" />
    <glyph glyph-name="uni019C" unicode="&#x19c;" 
d="M799 -20c-90.667 0 -156.667 55.667 -198 167c-21.333 -50.667 -51.5 -91.167 -90.5 -121.5s-84.167 -45.5 -135.5 -45.5c-101.333 0 -175 35.5 -221 106.5s-69 179.5 -69 325.5v937h163v-921c0 -103.333 10.5 -178 31.5 -224s58.167 -69 111.5 -69
c48.667 0 84 21.667 106 65s33 110 33 200v949h162v-933c0 -97.333 10.167 -168.5 30.5 -213.5s54.5 -67.5 102.5 -67.5c99.333 0 149 94.333 149 283v931h162v-1118c0 -80 3 -157 9 -231h-138l-8 134c-41.333 -102.667 -108 -154 -200 -154z" />
    <glyph glyph-name="uni019D" unicode="&#x19d;" 
d="M836 0l-520.001 1130c10.667 -117.333 16 -202 16 -254v-1006c0 -97.333 -22.667 -170.833 -68 -220.5s-110.666 -74.5 -195.999 -74.5c-47.333 0 -87.666 3.66699 -120.999 11v162c29.333 -9.33301 62.666 -14 99.999 -14c76.667 0 115 52.333 115 157v1458h222
l528 -1138c-12 96 -18 187.333 -18 274v864h172v-1349h-230z" />
    <glyph glyph-name="uni019E" unicode="&#x19e;" 
d="M868 -425l-0.000976562 1120c0 90.667 -17.5 158 -52.5 202s-90.833 66 -167.5 66c-82.667 0 -150.5 -30.167 -203.5 -90.5s-79.5 -142.166 -79.5 -245.499v-627h-180v851c0 126 -2 203 -6 231h170c0.666992 -3.33301 1.33398 -12.333 2.00098 -27s1.5 -31.5 2.5 -50.5
s2.16699 -54.833 3.5 -107.5h3c70 136.667 185.333 205 346 205c115.333 0 201.333 -31.167 258 -93.5s85 -158.166 85 -287.499v-1146h-181z" />
    <glyph glyph-name="uni019F" unicode="&#x19f;" 
d="M1126 681c0 -224.667 -44.167 -397.667 -132.5 -519s-215.166 -182 -380.499 -182c-166 0 -292.667 59.667 -380 179s-131 293.333 -131 522c0 230 44.167 402.333 132.5 517s215.166 172 380.499 172c164.667 0 291 -57.833 379 -173.5s132 -287.5 132 -515.5zM614 135
c194 0 297.666 156.001 310.999 468.001h-622c7.33301 -154.667 37.333 -271.334 90 -350.001s126.334 -118 221.001 -118zM614.999 1214c-97.333 0 -171.833 -37.5 -223.5 -112.5s-81.167 -189.833 -88.5 -344.5h622c-14.667 304.667 -118 457 -310 457z" />
    <glyph glyph-name="Ohorn" unicode="&#x1a0;" 
d="M1126 681c0 -224.667 -44.167 -397.668 -132.5 -519.001s-215.166 -182 -380.499 -182c-166 0 -292.667 59.667 -380 179s-131 293.333 -131 522c0 230 44.167 402.333 132.5 517s215.166 172 380.499 172c221.333 0 371.333 -101.667 450 -305c54.667 42 82 101 82 177
h-88v167h195v-106c0 -141.333 -54 -248.666 -162 -321.999c22.667 -84.667 34 -184.667 34 -300zM925 680.999c0 355.333 -103.333 533.001 -310 533.001c-208 0 -312 -177.667 -312 -533c0 -180 26.333 -316 79 -408s130 -138 232 -138c108.667 0 187.667 46.667 237 140
s74 228.666 74 405.999z" />
    <glyph glyph-name="ohorn" unicode="&#x1a1;" 
d="M1097 542c0 -182 -41.833 -321.166 -125.5 -417.499s-204.5 -144.5 -362.5 -144.5c-154.667 0 -273.167 48.667 -355.5 146s-123.5 236 -123.5 416c0 186 42.167 325.833 126.5 419.5s203.833 140.5 358.5 140.5c264.667 0 420 -125.667 466 -377
c63.333 44.667 95 110 95 196h-88v167h195v-106c0 -76 -16 -143.833 -48 -203.5s-79.333 -107.834 -142 -144.501c2.66699 -29.333 4 -60 4 -92zM908 542.001c0 143.333 -22.833 250.334 -68.5 321.001s-119.5 106 -221.5 106s-177.333 -35 -226 -105s-73 -177.333 -73 -322
c0 -140 24 -246.5 72 -319.5s120 -109.5 216 -109.5c106 0 182.667 35.667 230 107s71 178.666 71 321.999z" />
    <glyph glyph-name="uni01A2" unicode="&#x1a2;" 
d="M791 75c-88.667 -63.333 -181.999 -95 -279.999 -95c-150.667 0 -265.167 59.667 -343.5 179s-117.5 293.333 -117.5 522c0 216 40.333 384.833 121 506.5s190.667 182.5 330 182.5c83.333 0 162.666 -23.667 237.999 -71l355 64h43v-1787h-180v1587h-166v-1088z
M611.001 1171c-28.667 28.667 -66.666 43.001 -113.999 43.001c-78.667 0 -140.5 -47 -185.5 -141s-67.5 -224.667 -67.5 -392c0 -168.667 23.5 -301.834 70.5 -399.501s112.5 -146.5 196.5 -146.5c41.333 0 74.666 10.667 99.999 32v1004z" />
    <glyph glyph-name="uni01A3" unicode="&#x1a3;" 
d="M987 -425l-0.000976562 1343h-179v-855c-38 -26 -82.5 -46.333 -133.5 -61s-103.5 -22 -157.5 -22c-158 0 -277.333 48.167 -358 144.5s-121 235.5 -121 417.5c0 373.333 161.667 560 485 560c54.667 0 106.834 -7.16699 156.501 -21.5s91.5 -31.833 125.5 -52.5l314 65
h42v-1518h-174zM525.999 969c-105.333 0 -181.499 -34.499 -228.499 -103.499s-70.5 -176.833 -70.5 -323.5c0 -142.667 23.167 -249.834 69.5 -321.501s119.166 -107.5 218.499 -107.5c42.667 0 82.667 7.33301 120 22l-1 814c-34.667 13.333 -70.667 20 -108 20z" />
    <glyph glyph-name="uni01A4" unicode="&#x1a4;" 
d="M1129 945c0 -83.333 -19.832 -157.667 -59.499 -223s-96.334 -116.333 -170.001 -153s-158.834 -55 -255.501 -55h-191v-514h-191v1201c-51.333 0 -88 -11.333 -110 -34s-33 -57.667 -33 -105c0 -32.667 6 -67.667 18 -105l-155 -17c-11.333 43.333 -17 85 -17 125
c0 88.667 25.833 158.167 77.5 208.5s124.834 75.5 219.501 75.5h370c158.667 0 281.167 -35.5 367.5 -106.5s129.5 -170.167 129.5 -297.5zM937.001 941.999c0 169.333 -109.333 254 -328 254h-156v-531h164c99.333 0 177.5 24.333 234.5 73s85.5 116.667 85.5 204z" />
    <glyph glyph-name="uni01A5" unicode="&#x1a5;" 
d="M1090 546c0 -377.333 -130.667 -566.001 -392 -566.001c-82 0 -151.167 15.667 -207.5 47s-97.5 77 -123.5 137h-5c2.66699 -5.33301 4 -60.666 4 -165.999v-423h-181v1613c0 96.667 24.333 170.167 73 220.5s120.667 75.5 216 75.5c36 0 67 -2.66699 93 -8l37 -8v-166
c-37.333 13.333 -76 20 -116 20c-83.333 0 -125 -49.333 -125 -148v-270h4c33.333 68.667 75.833 119.167 127.5 151.5s119.5 48.5 203.5 48.5c132 0 230.333 -45.5 295 -136.5s97 -231.5 97 -421.5zM904 545.999c0 147.333 -20 254 -60 320s-104.333 99 -193 99
c-100.667 0 -173.334 -36.5 -218.001 -109.5s-67 -183.5 -67 -331.5c0 -142 22.333 -246 67 -312s116.667 -99 216 -99c88.667 0 153.334 33.667 194.001 101s61 178 61 332z" />
    <glyph glyph-name="uni01A6" unicode="&#x1a6;" 
d="M969 -319l-381.998 741h-234v-422h-191v1349h191v-153h291c155.333 0 273.666 -32.167 354.999 -96.5s122 -156.5 122 -276.5c0 -98 -31.333 -181.333 -94 -250s-147.334 -111.667 -254.001 -129l416 -763h-220zM929.002 820c0 148.667 -101.333 223 -304 223h-272v-470
h280c97.333 0 171 21.333 221 64s75 103.667 75 183z" />
    <glyph glyph-name="uni01A7" unicode="&#x1a7;" 
d="M100 365c0 54 8.49805 102.165 25.498 144.498s41.333 79.166 73 110.499s74.334 59.333 128.001 84s134.167 49.667 241.5 75l132.5 32c42.333 10.667 80 24.334 113 41.001s59.333 37.667 79 63s29.5 58 29.5 98c0 142 -94.333 213 -283 213
c-178.667 0 -283 -71 -313 -213l-183 33c31.333 114.667 86.5 197.334 165.5 248.001s190.833 76 335.5 76c150 0 264.833 -31.167 344.5 -93.5s119.5 -151.166 119.5 -266.499c0 -64.667 -14.167 -121 -42.5 -169s-72.833 -88.333 -133.5 -121
s-149.334 -61.667 -266.001 -87c-115.333 -25.333 -194.666 -48.333 -237.999 -69s-77.333 -46.667 -102 -78s-37 -71 -37 -119c0 -76.667 28.5 -135.5 85.5 -176.5s138.5 -61.5 244.5 -61.5c98 0 175.5 20 232.5 60s94.5 102 112.5 186l180 -37
c-49.333 -238.667 -225.666 -358 -528.999 -358c-164.667 0 -291.667 33 -381 99s-134 161.333 -134 286z" />
    <glyph glyph-name="uni01A8" unicode="&#x1a8;" 
d="M169 284c0 41.333 7.16895 78.499 21.502 111.499s35.666 62.667 63.999 89s64.833 50.166 109.5 71.499s115.667 45 213 71l119 31.5c36 9.66699 67 21.334 93 35.001s46.167 30.334 60.5 50.001s21.5 44.834 21.5 75.501c0 97.333 -81.667 146 -245 146
c-146 0 -229.333 -48.667 -250 -146l-158 22c17.333 84 61 148 131 192s163.667 66 281 66c272.667 0 409 -97.667 409 -293c0 -56.667 -14.833 -105.334 -44.5 -146.001s-71.834 -75.167 -126.501 -103.5s-164.667 -62.833 -330 -103.5
c-69.333 -17.333 -120 -39.166 -152 -65.499s-48 -60.5 -48 -102.5c0 -54 23.667 -96 71 -126s113.666 -45 198.999 -45c88.667 0 156.5 13.667 203.5 41s77.5 68.666 91.5 123.999l155 -34c-22 -90.667 -68.167 -157.5 -138.5 -200.5s-174.166 -64.5 -311.499 -64.5
c-140 0 -248.167 25.333 -324.5 76s-114.5 126.667 -114.5 228z" />
    <glyph glyph-name="uni01A9" unicode="&#x1a9;" 
d="M108 0v162l538 549l-521 477v161h999v-156h-784l458 -415v-124l-490 -498h877v-156h-1077z" />
    <glyph glyph-name="uni01AA" unicode="&#x1aa;" 
d="M223 1302c0 60 18.499 106.834 55.499 140.501s86.833 50.5 149.5 50.5c89.333 0 156 -25.333 200 -76s66 -121.667 66 -213v-1328c0 -45.333 9.83301 -80.5 29.5 -105.5s48.834 -37.5 87.501 -37.5c36 0 71.333 4.33301 106 13v-158c-46 -8.66699 -90.667 -13 -134 -13
c-85.333 0 -151.5 25.5 -198.5 76.5s-70.5 124.167 -70.5 219.5v1277c-10 -7.33301 -25.167 -14 -45.5 -20s-39.5 -9 -57.5 -9c-56 0 -101.333 17.167 -136 51.5s-52 78.166 -52 131.499zM299.999 1307c0 -32.667 10 -59 30 -79s46 -30 78 -30c32.667 0 59 10 79 30
s30 46.333 30 79c0 32 -9.83301 58 -29.5 78s-46.167 30 -79.5 30c-32 0 -58 -10 -78 -30s-30 -46 -30 -78z" />
    <glyph glyph-name="uni01AB" unicode="&#x1ab;" 
d="M190 940l0.00195312 141.999h170l58 282h120v-282h432v-142h-432v-652c0 -52.667 14.167 -91.667 42.5 -117s74.833 -38 139.5 -38c89.333 0 188.333 11.333 297 34v-310c0 -188 -84.333 -282 -253 -282c-44.667 0 -89.667 5.66699 -135 17v160
c37.333 -12 72.666 -18 105.999 -18c40 0 69 11 87 33s27 56.667 27 104v125c-60.667 -8 -116.334 -12 -167.001 -12c-108 0 -189 22.833 -243 68.5s-81 117.834 -81 216.501v671h-168z" />
    <glyph glyph-name="uni01AC" unicode="&#x1ac;" 
d="M709 1193l-0.000976562 -1193h-190v1193h-202c-51.333 0 -88 -10 -110 -30s-33 -53.667 -33 -101c0 -32.667 6 -67.667 18 -105l-155 -17c-11.333 49.333 -17 94.333 -17 135c0 89.333 25.833 157.333 77.5 204s127.834 70 228.501 70h826v-156h-443z" />
    <glyph glyph-name="uni01AD" unicode="&#x1ad;" 
d="M190 940l0.000976562 142h175v110c0 101.333 23.333 177.666 70 228.999s114.667 77 204 77c44 0 84 -4.66699 120 -14v-168c-37.333 13.333 -71.333 20 -102 20c-42 0 -72.333 -12.167 -91 -36.5s-28 -61.5 -28 -111.5v-106h432v-142h-432v-652
c0 -52.667 14.167 -91.667 42.5 -117s74.833 -38 139.5 -38c89.333 0 188.333 11.333 297 34v-137c-112.667 -30.667 -224.334 -46 -335.001 -46c-108 0 -189 22.833 -243 68.5s-81 117.834 -81 216.501v671h-168z" />
    <glyph glyph-name="uni01AE" unicode="&#x1ae;" 
d="M709 1193v-1302c0 -54 8 -93.667 24 -119s41.333 -38 76 -38c40 0 76.667 5.33301 110 16v-158c-46.667 -11.333 -90.667 -17 -132 -17c-86 0 -152.167 24.667 -198.5 74s-69.5 119.333 -69.5 210v1334h-443v156h1076v-156h-443z" />
    <glyph glyph-name="Uhorn" unicode="&#x1af;" 
d="M1025 1019c63.333 19.333 109.833 47.502 139.5 84.502s44.5 83.167 44.5 138.5h-88v167h195v-106c0 -102 -24.333 -185 -73 -249s-121.334 -107 -218.001 -129v-435c0 -176.667 -35.5 -305.834 -106.5 -387.501s-185.5 -122.5 -343.5 -122.5
c-151.333 0 -261.333 39 -330 117s-103 203 -103 375v877h191v-851c0 -138.667 17.5 -233.834 52.5 -285.501s97.833 -77.5 188.5 -77.5c96.667 0 164.334 27 203.001 81s58 152.333 58 295v838h190v-330z" />
    <glyph glyph-name="uhorn" unicode="&#x1b0;" 
d="M360 1082l0.000976562 -685.999c0 -104.667 14.333 -177 43 -217s82.334 -60 161.001 -60c80.667 0 144 29.5 190 88.5s69 141.5 69 247.5v627h181v-396c54.667 23.333 93.667 52.333 117 87s35 82 35 142h-88v167h195v-106c0 -99.333 -20.5 -179.833 -61.5 -241.5
s-106.833 -108.834 -197.5 -141.501v-362c0 -126 2 -203 6 -231h-170c-0.666992 3.33301 -1.33398 12.333 -2.00098 27s-1.5 31.5 -2.5 50.5s-2.16699 54.833 -3.5 107.5h-3c-42.667 -76.667 -89.334 -130 -140.001 -160s-112.667 -45 -186 -45
c-113.333 0 -195.5 29.5 -246.5 88.5s-76.5 156.5 -76.5 292.5v721h180z" />
    <glyph glyph-name="uni01B1" unicode="&#x1b1;" 
d="M614 -21c-163.333 0 -292.832 53.999 -388.499 161.999s-143.5 253.667 -143.5 437c0 126 29 243.833 87 353.5s141.333 200.5 250 272.5c-78 -7.33301 -131.667 -11 -161 -11h-200v156h483v-224c-89.333 -65.333 -155.666 -142 -198.999 -230s-65 -189.333 -65 -304
c0 -149.333 28.667 -262.666 86 -339.999s140.666 -116 249.999 -116c112 0 196.333 39.333 253 118s85 191.334 85 338.001c0 115.333 -21.833 216.833 -65.5 304.5s-109.834 164.167 -198.501 229.5v224h483v-156h-200c-29.333 0 -83 3.66699 -161 11
c108.667 -72.667 192 -163.834 250 -273.501s87 -227.167 87 -352.5c0 -184 -47.833 -329.833 -143.5 -437.5s-225.167 -161.5 -388.5 -161.5z" />
    <glyph glyph-name="uni01B2" unicode="&#x1b2;" 
d="M601 -20c-158.667 0 -274.831 41.5 -348.498 124.5s-110.5 208.833 -110.5 377.5v867h191v-851c0 -126.667 20.667 -218.834 62 -276.501s110.666 -86.5 207.999 -86.5c73.333 0 134.666 25.833 183.999 77.5s86.5 133.334 111.5 245.001s37.5 263.167 37.5 454.5
c0 104.667 -13.167 180.667 -39.5 228s-69.5 71 -129.5 71c-38.667 0 -74.667 -3.33301 -108 -10l-7 157c44.667 8 93 12 145 12c219.333 0 329 -148.333 329 -445c0 -186 -10.5 -335.5 -31.5 -448.5s-52.667 -205.333 -95 -277s-96.333 -126.167 -162 -163.5
s-144.5 -56 -236.5 -56z" />
    <glyph glyph-name="uni01B3" unicode="&#x1b3;" 
d="M1123 1370c42 0 81.3311 -7.5 117.998 -22.5s74.667 -39.5 114 -73.5l-84 -136c-51.333 46 -96.666 69 -135.999 69c-31.333 0 -55.666 -7.66699 -72.999 -23s-33.333 -35 -48 -59l-342 -541v-584h-188v584l-484 765h205l374 -611l288 475c32 52.667 68 92 108 118
s89.333 39 148 39z" />
    <glyph glyph-name="uni01B4" unicode="&#x1b4;" 
d="M298 -425c-46.667 0 -86.666 3.66602 -119.999 10.999v135c25.333 -4 52 -6 80 -6c116.667 0 207 84 271 252l17 44l-470 1071h192l264 -642l96 -248h2c10 42.667 40.333 133.334 91 272.001l273 777c29.333 82 66.333 143 111 183s104 60 178 60
c86.667 0 166 -31 238 -93l-82 -128c-45.333 41.333 -92 62 -140 62c-64.667 0 -114 -45.667 -148 -137l-439 -1188c-58 -158 -118.833 -268.333 -182.5 -331s-140.834 -94 -231.501 -94z" />
    <glyph glyph-name="uni01B5" unicode="&#x1b5;" 
d="M123 757h428l340 436h-745v156h962v-139l-352 -453h349v-133h-452l-363 -468h865v-156h-1082v143l374 481h-324v133z" />
    <glyph glyph-name="uni01B6" unicode="&#x1b6;" 
d="M165 617h387l276 326h-641v139h844v-137l-278 -328h286v-133h-398l-292 -345h719v-139h-921v137l293 347h-275v133z" />
    <glyph glyph-name="uni01B7" unicode="&#x1b7;" 
d="M396 699l500 493.999h-775v156h988v-161l-505 -489c177.333 -11.333 310.833 -62.333 400.5 -153s134.5 -219 134.5 -385c0 -114.667 -23.5 -216.5 -70.5 -305.5s-114 -158.167 -201 -207.5s-185.833 -74 -296.5 -74c-92 0 -172.167 12.167 -240.5 36.5
s-126.5 60 -174.5 107s-92.333 114.5 -133 202.5l162 75c42 -95.333 94 -164.5 156 -207.5s137.667 -64.5 227 -64.5c117.333 0 210.5 38.833 279.5 116.5s103.5 184.834 103.5 321.501c0 131.333 -38.667 230.333 -116 297s-199 100 -365 100h-74v141z" />
    <glyph glyph-name="uni01B8" unicode="&#x1b8;" 
d="M831 558h-74c-158.667 0 -281.5 -37.167 -368.5 -111.5s-130.5 -179.5 -130.5 -315.5c0 -130 33.333 -230.5 100 -301.5s161 -106.5 283 -106.5c88.667 0 164.5 22.167 227.5 66.5s114.833 112.833 155.5 205.5l161 -75c-56 -121.333 -129.5 -209.333 -220.5 -264
s-203.167 -82 -336.5 -82c-173.333 0 -309.666 48.667 -408.999 146s-149 232 -149 404c0 160.667 49.167 291.5 147.5 392.5s233.166 160.5 404.499 178.5l-504 493v161h988v-156h-775l500 -494v-141z" />
    <glyph glyph-name="uni01B9" unicode="&#x1b9;" 
d="M1038 941h-694.001l393 -386v-144h-82c-108 0 -192.667 -31.5 -254 -94.5s-92 -146.833 -92 -251.5c0 -109.333 27 -195.5 81 -258.5s126.667 -94.5 218 -94.5c182 0 285 84 309 252l177 -12c-15.333 -124.667 -65 -218.667 -149 -282s-198.333 -95 -343 -95
c-145.333 0 -260.666 42.5 -345.999 127.5s-128 199.167 -128 342.5c0 138 38 251.5 114 340.5s177.667 141.833 305 158.5l-382 362v176h873v-141z" />
    <glyph glyph-name="uni01BA" unicode="&#x1ba;" 
d="M1128 -101c-26.667 -103.333 -84.8379 -183.334 -174.505 -240.001s-204.5 -85 -344.5 -85c-92 0 -173.833 12.667 -245.5 38s-125 60.833 -160 106.5s-52.5 99.167 -52.5 160.5c0 52.667 14.167 97.334 42.5 134.001s67.333 68 117 94s130.834 53.333 243.501 82
c114 28 190 55.5 228 82.5s57 59.833 57 98.5c0 49.333 -32.5 84.166 -97.5 104.499s-161.833 30.5 -290.5 30.5v139l356 298h-626v140h868v-119l-396 -322c118.667 -8.66699 208.334 -36.167 269.001 -82.5s91 -109.166 91 -188.499c0 -54.667 -13.167 -100 -39.5 -136
s-62.5 -66 -108.5 -90s-127.667 -50.333 -245 -79c-91.333 -22.667 -153.166 -41.667 -185.499 -57s-57.166 -33.833 -74.499 -55.5s-26 -48.5 -26 -80.5c0 -48.667 23.333 -86.667 70 -114s115.334 -41 206.001 -41c182.667 0 296 67 340 201z" />
    <glyph glyph-name="uni01BB" unicode="&#x1bb;" 
d="M123 757l616.999 -0.000976562c91.333 79.333 137 161.666 137 246.999c0 72 -22.667 126.333 -68 163s-111.333 55 -198 55c-76 0 -137.5 -20.833 -184.5 -62.5s-74.833 -100.167 -83.5 -175.5l-184 17c13.333 112.667 59.5 202.334 138.5 269.001s183.5 100 313.5 100
c144 0 255.167 -31.333 333.5 -94s117.5 -151.667 117.5 -267c0 -90.667 -35.333 -174.667 -106 -252h149v-133h-286c-162.667 -127.333 -265 -210.5 -307 -249.5s-77.667 -77.167 -107 -114.5s-51.666 -75.333 -66.999 -114h746v-146h-940v117
c34 84 83.333 164.833 148 242.5s160.667 165.834 288 264.501h-457v133z" />
    <glyph glyph-name="uni01BC" unicode="&#x1bc;" 
d="M1093 448c0 -144.667 -44.332 -258.832 -132.999 -342.499s-211 -125.5 -367 -125.5c-127.333 0 -232.333 32.333 -315 97s-135.334 154 -158.001 268l179 21c23.333 -84 59.833 -145.5 109.5 -184.5s112.167 -58.5 187.5 -58.5c98 0 174.167 28.5 228.5 85.5
s81.5 135.5 81.5 235.5c0 97.333 -29 170.166 -87 218.499s-141 72.5 -249 72.5h-219v458h-182v156h881v-156h-515v-303h68c155.333 0 275.833 -38.833 361.5 -116.5s128.5 -186.167 128.5 -325.5z" />
    <glyph glyph-name="uni01BD" unicode="&#x1bd;" 
d="M876 346c0 69.333 -23.999 120.668 -71.999 154.001s-125 50 -231 50h-197v392h-212v140h860v-140h-486v-254h74c142 0 251.667 -28.833 329 -86.5s116 -142.167 116 -253.5c0 -116 -37.833 -206.333 -113.5 -271s-183.167 -97 -322.5 -97
c-129.333 0 -232.333 26.833 -309 80.5s-127.334 137.167 -152.001 250.5l174 12c12 -64.667 43.333 -115.834 94 -153.501s111 -56.5 181 -56.5c178 0 267 77.667 267 233z" />
    <glyph glyph-name="uni01BE" unicode="&#x1be;" 
d="M460 951v-96.998c0 -55.333 5.66699 -94.333 17 -117s31.166 -41.334 59.499 -56.001s70.833 -28.667 127.5 -42c104.667 -25.333 179 -47.833 223 -67.5s79 -41.834 105 -66.501s46 -53.334 60 -86.001s21 -70.334 21 -113.001c0 -106 -37.833 -186.833 -113.5 -242.5
s-186.834 -83.5 -333.501 -83.5c-147.333 0 -260.666 22.167 -339.999 66.5s-131.333 113.5 -156 207.5l159 31c18 -58 54.667 -100.5 110 -127.5s132 -40.5 230 -40.5c88.667 0 155.667 13.167 201 39.5s68 71.5 68 135.5c0 32.667 -6.5 59.5 -19.5 80.5
s-32.167 38.833 -57.5 53.5s-57.166 27.334 -95.499 38.001s-82.5 22.334 -132.5 35.001c-82 20 -144.167 43.833 -186.5 71.5s-74 63 -95 106s-31.5 96.167 -31.5 159.5v115h-151v131h152v347l179 78v-425h245v-131h-245z" />
    <glyph glyph-name="uni01BF" unicode="&#x1bf;" 
d="M1090 627c0 -108.667 -23.667 -208.502 -71 -299.502s-120.5 -172.167 -219.5 -243.5s-243.5 -141.666 -433.5 -210.999v-298h-181v1507h169c6.66699 -70 10 -129.667 10 -179h4c60.667 134 168 201 322 201c130 0 229.167 -40.667 297.5 -122
s102.5 -199.666 102.5 -354.999zM904 625.998c0 116.667 -21.501 202.332 -64.501 256.999s-105.5 82 -187.5 82c-94.667 0 -166 -34 -214 -102s-72 -174 -72 -318v-525c136.667 51.333 242.334 105.833 317.001 163.5s130.167 122.834 166.5 195.501s54.5 155 54.5 247z
" />
    <glyph glyph-name="uni01C0" unicode="&#x1c0;" 
d="M524 0v1484h180v-1484h-180z" />
    <glyph glyph-name="uni01C1" unicode="&#x1c1;" 
d="M370 0v1484h165v-1484h-165zM693 0v1484h165v-1484h-165z" />
    <glyph glyph-name="uni01C2" unicode="&#x1c2;" 
d="M130 1030h396v454h174v-454h398v-153h-398v-308h398v-153h-398v-416h-174v416h-396v153h396v308h-396v153z" />
    <glyph glyph-name="uni01C3" unicode="&#x1c3;" 
d="M689 397h-148l-24 951h196zM515 0v201h194v-201h-194z" />
    <glyph glyph-name="uni01C4" unicode="&#x1c4;" 
d="M730 1657v20h104l150 -123h2l148 123h104v-20l-171 -212h-166zM656 688c0 -232.667 -33.5 -405.5 -100.5 -518.5s-167.5 -169.5 -301.5 -169.5h-165v1349h122c108.667 0 195.167 -22 259.5 -66s111.333 -112.167 141 -204.5s44.5 -222.5 44.5 -390.5zM489 688
c0 172 -18.5 299.167 -55.5 381.5s-96.5 123.5 -178.5 123.5h-4v-1037h24c66 0 118.167 44.667 156.5 134s57.5 222 57.5 398zM1219 0h-562v142l380 1051h-307v156h489v-138l-385 -1055h385v-156z" />
    <glyph glyph-name="uni01C5" unicode="&#x1c5;" 
d="M695 1413v20h104l150 -123h2l148 123h104v-20l-171 -212h-166zM656 688c0 -232.667 -33.5 -405.5 -100.5 -518.5s-167.5 -169.5 -301.5 -169.5h-165v1349h122c108.667 0 195.167 -22 259.5 -66s111.333 -112.167 141 -204.5s44.5 -222.5 44.5 -390.5zM489 688
c0 172 -18.5 299.167 -55.5 381.5s-96.5 123.5 -178.5 123.5h-4v-1037h24c66 0 118.167 44.667 156.5 134s57.5 222 57.5 398zM657 0v132l352 811h-312v139h485v-132l-357 -811h394v-139h-562z" />
    <glyph glyph-name="uni01C6" unicode="&#x1c6;" 
d="M715 1413v20h104l150 -123h2l148 123h104v-20l-171 -212h-166zM465 124c-21.333 -58 -44.999 -97.498 -70.999 -118.498s-62 -31.5 -108 -31.5c-81.333 0 -141 46.167 -179 138.5s-57 232.166 -57 419.499c0 377.333 79.333 566 238 566
c47.333 0 83.666 -9.83301 108.999 -29.5s48.333 -57.834 69 -114.501h2l-2 131v399h160v-1261c0 -118.667 1.66699 -193 5 -223h-152c-6 16 -9 57.333 -9 124h-5zM218.001 538.002c0 -150.667 9.66797 -259.167 29.001 -325.5s51.666 -99.5 96.999 -99.5
c44 0 75.333 35.833 94 107.5s28 182.834 28 333.501c0 141.333 -9.33301 245.166 -28 311.499s-49.667 99.5 -93 99.5c-44 0 -76.167 -33.167 -96.5 -99.5s-30.5 -175.5 -30.5 -327.5zM677.002 0.00195312v132l352 811h-312v139h485v-132l-357 -811h384v-139h-552z" />
    <glyph glyph-name="uni01C7" unicode="&#x1c7;" 
d="M89 0v1349h162v-1193h312v-156h-474zM682 174c40 -26 83.666 -39 130.999 -39c60.667 0 103.834 22.333 129.501 67s38.5 116 38.5 214v777h-191v156h353v-954c0 -144 -26.167 -249.167 -78.5 -315.5s-133.5 -99.5 -243.5 -99.5c-74 0 -138.333 13.333 -193 40z" />
    <glyph glyph-name="uni01C8" unicode="&#x1c8;" 
d="M1144 -28c0 -125.333 -34.1689 -222.833 -102.502 -292.5s-164.5 -104.5 -288.5 -104.5c-65.333 0 -128.666 7.33301 -189.999 22v145c57.333 -12 116 -18 176 -18c78.667 0 138.834 22.167 180.501 66.5s62.5 105.833 62.5 184.5v965h-301v142h463v-1110zM88.998 0v1349
h162v-1193h412v-156h-574zM962.998 1292v192h181v-192h-181z" />
    <glyph glyph-name="uni01C9" unicode="&#x1c9;" 
d="M1081 -28c0 -125.333 -34.1699 -222.833 -102.503 -292.5s-164.5 -104.5 -288.5 -104.5c-65.333 0 -128.666 7.33301 -189.999 22v145c56.667 -12 115.334 -18 176.001 -18c78.667 0 138.834 22.167 180.501 66.5s62.5 105.833 62.5 184.5v965h-281v142h443v-1110z
M899.997 1292v192h181v-192h-181zM372.997 142h197v-142h-570v142h211v1200h-211v142h373v-1342z" />
    <glyph glyph-name="uni01CA" unicode="&#x1ca;" 
d="M487 1l-249 860.001h-6c2.66699 -20.667 5.66699 -83.834 9 -189.501s5 -177.5 5 -215.5v-455h-157v1348h157l257 -879h6c-2 17.333 -5.33301 79.5 -10 186.5s-7 186.833 -7 239.5v453h160v-1348h-165zM841 -19.999c-37.333 0 -72.668 4.33301 -106.001 13v161
c30.667 -12.667 63.334 -19 98.001 -19c54 0 92.167 23.333 114.5 70s33.5 117 33.5 211v777h-151v156h313v-954c0 -138 -24.167 -241.667 -72.5 -311s-124.833 -104 -229.5 -104z" />
    <glyph glyph-name="uni01CB" unicode="&#x1cb;" 
d="M487 1l-249 860.001h-6c2.66699 -20.667 5.66699 -83.834 9 -189.501s5 -177.5 5 -215.5v-455h-157v1348h157l257 -879h6c-2 17.333 -5.33301 79.5 -10 186.5s-7 186.833 -7 239.5v453h160v-1348h-165zM1143 -27.999c0 -125.333 -34.168 -222.833 -102.501 -292.5
s-164.5 -104.5 -288.5 -104.5c-65.333 0 -128.666 7.33301 -189.999 22v145c57.333 -12 116 -18 176 -18c78 0 138.167 22 180.5 66s63.5 105.667 63.5 185v965h-223v142h384v-1110zM961.999 1292v192h181v-192h-181z" />
    <glyph glyph-name="uni01CC" unicode="&#x1cc;" 
d="M1143 -28c0 -125.333 -34.168 -222.833 -102.501 -292.5s-164.5 -104.5 -288.5 -104.5c-65.333 0 -128.666 7.33301 -189.999 22v145c57.333 -12 116 -18 176 -18c78 0 138.167 22 180.5 66s63.5 105.667 63.5 185v965h-202v142h363v-1110zM961.999 1292v192h181v-192
h-181zM531.999 0l-0.00195312 695.001c0 91.333 -9.16699 158.833 -27.5 202.5s-49.166 65.5 -92.499 65.5c-47.333 0 -86.166 -30 -116.499 -90s-45.5 -142 -45.5 -246v-627h-161v851c0 126 -2 203 -6 231h149l6 -175h2c22 63.333 51.667 111.666 89 144.999
s85.333 50 144 50c74 0 129.333 -30 166 -90s55 -157 55 -291v-721h-162z" />
    <glyph glyph-name="uni01CD" unicode="&#x1cd;" 
d="M1034 0l-138 382h-563l-137 -382h-196l510 1349h217l501 -1349h-194zM616 1205l-12 -39l-69 -212l-151 -423h463l-173 500zM701 1445h-164l-254 239v20h104l232 -138h2l219 138h105v-20z" />
    <glyph glyph-name="uni01CE" unicode="&#x1ce;" 
d="M1101 111c17.333 0 36.999 2.33398 58.999 7.00098v-112c-45.333 -10.667 -91.666 -16 -138.999 -16c-66.667 0 -115.167 17.5 -145.5 52.5s-47.5 89.833 -51.5 164.5h-6c-43.333 -80.667 -94.5 -138.667 -153.5 -174s-131.833 -53 -218.5 -53
c-105.333 0 -184.666 28.667 -237.999 86s-80 136 -80 236c0 232.667 151.333 350.667 454 354l236 4v59c0 87.333 -17.667 150.166 -53 188.499s-91.666 57.5 -168.999 57.5c-78.667 0 -135.334 -14 -170.001 -42s-55.334 -71.333 -62.001 -130l-188 17
c30.667 194.667 171.667 292 423 292c133.333 0 233.5 -31.167 300.5 -93.5s100.5 -152.5 100.5 -270.5v-466c0 -53.333 7 -93.5 21 -120.5s40.667 -40.5 80 -40.5zM491.999 117.001c64 0 120.668 15.333 170.001 46s87.666 71.667 114.999 123s41 104.333 41 159v89
l-190 -4c-78.667 -1.33301 -138.667 -10 -180 -26s-73.5 -40.5 -96.5 -73.5s-34.5 -76.833 -34.5 -131.5s14.833 -98.667 44.5 -132s73.167 -50 130.5 -50zM692 1201h-164l-254 239v20h104l232 -138h2l219 138h105v-20z" />
    <glyph glyph-name="uni01CF" unicode="&#x1cf;" 
d="M202 1349h823v-156h-316v-1037h316v-156h-823v156h316v1037h-316v156zM701 1445h-164l-254 239v20h104l232 -138h2l219 138h105v-20z" />
    <glyph glyph-name="uni01D0" unicode="&#x1d0;" 
d="M745 142h380v-142h-982v142h422v798h-319v142h499v-940zM704 1201h-164l-254 239v20h104l232 -138h2l219 138h105v-20z" />
    <glyph glyph-name="uni01D1" unicode="&#x1d1;" 
d="M1126 681c0 -224.667 -44.1689 -397.667 -132.502 -519s-215.166 -182 -380.499 -182c-166 0 -292.667 59.667 -380 179s-131 293.333 -131 522c0 224.667 43.333 395.667 130 513s214.334 176 383.001 176c164.667 0 291 -57.833 379 -173.5s132 -287.5 132 -515.5z
M924.998 681c0 355.333 -103.333 533.001 -310 533.001c-208 0 -312 -177.667 -312 -533c0 -180 26.333 -316 79 -408s130 -138 232 -138c108.667 0 187.667 46.667 237 140s74 228.666 74 405.999zM700.998 1445h-164l-254 239v20h104l232 -138h2l219 138h105v-20z" />
    <glyph glyph-name="uni01D2" unicode="&#x1d2;" 
d="M1097 542c0 -182 -41.833 -321.167 -125.5 -417.5s-204.5 -144.5 -362.5 -144.5c-154.667 0 -273.167 48.667 -355.5 146s-123.5 236 -123.5 416c0 186 42.167 325.833 126.5 419.5s203.833 140.5 358.5 140.5c162.667 0 283.667 -46.333 363 -139s119 -233 119 -421z
M908 542c0 143.333 -22.833 250.334 -68.5 321.001s-119.5 106 -221.5 106c-103.333 0 -179 -36 -227 -108s-72 -178.333 -72 -319c0 -140 24 -246.5 72 -319.5s120 -109.5 216 -109.5c106 0 182.667 35.667 230 107s71 178.666 71 321.999zM701 1201h-164l-254 239v20h104
l232 -138h2l219 138h105v-20z" />
    <glyph glyph-name="uni01D3" unicode="&#x1d3;" 
d="M1085 490c0 -178 -37.999 -307.499 -113.999 -388.499s-198 -121.5 -366 -121.5c-162.667 0 -280.5 39.167 -353.5 117.5s-109.5 203.166 -109.5 374.499v877h191v-851c0 -136 19.5 -230.5 58.5 -283.5s109.833 -79.5 212.5 -79.5c107.333 0 182.666 27.333 225.999 82
s65 152.667 65 294v838h190v-859zM701.001 1445h-164l-254 239v20h104l232 -138h2l219 138h105v-20z" />
    <glyph glyph-name="uni01D4" unicode="&#x1d4;" 
d="M365 1082v-686.001c0 -104 16.333 -176.167 49 -216.5s91 -60.5 175 -60.5c86 0 154 29.333 204 88s75 141.334 75 248.001v627h181v-851c0 -126 2 -203 6 -231h-170c-0.666992 3.33301 -1.33398 12.333 -2.00098 27s-1.5 31.5 -2.5 50.5s-2.16699 54.833 -3.5 107.5h-3
c-41.333 -74.667 -89.166 -127.5 -143.499 -158.5s-121.833 -46.5 -202.5 -46.5c-118.667 0 -205.5 29.5 -260.5 88.5s-82.5 156.5 -82.5 292.5v721h180zM701 1201h-164l-254 239v20h104l232 -138h2l219 138h105v-20z" />
    <glyph glyph-name="uni01D5" unicode="&#x1d5;" 
d="M1085 490c0 -178 -37.999 -307.499 -113.999 -388.499s-198 -121.5 -366 -121.5c-162.667 0 -280.5 39.167 -353.5 117.5s-109.5 203.166 -109.5 374.499v877h191v-851c0 -136 19.5 -230.5 58.5 -283.5s109.833 -79.5 212.5 -79.5c107.333 0 182.666 27.333 225.999 82
s65 152.667 65 294v838h190v-859zM750.001 1458v184h163v-184h-163zM316.001 1458v184h163v-184h-163zM889.001 1708h-549v127h549v-127z" />
    <glyph glyph-name="uni01D6" unicode="&#x1d6;" 
d="M365 1082v-686.001c0 -104 16.333 -176.167 49 -216.5s91 -60.5 175 -60.5c86 0 154 29.333 204 88s75 141.334 75 248.001v627h181v-851c0 -126 2 -203 6 -231h-170c-0.666992 3.33301 -1.33398 12.333 -2.00098 27s-1.5 31.5 -2.5 50.5s-2.16699 54.833 -3.5 107.5h-3
c-41.333 -74.667 -89.166 -127.5 -143.499 -158.5s-121.833 -46.5 -202.5 -46.5c-118.667 0 -205.5 29.5 -260.5 88.5s-82.5 156.5 -82.5 292.5v721h180zM730 1219v184h163v-184h-163zM336 1219v184h165v-184h-165zM889 1515h-549v127h549v-127z" />
    <glyph glyph-name="uni01D7" unicode="&#x1d7;" 
d="M1085 490c0 -178 -37.999 -307.499 -113.999 -388.499s-198 -121.5 -366 -121.5c-162.667 0 -280.5 39.167 -353.5 117.5s-109.5 203.166 -109.5 374.499v877h191v-851c0 -136 19.5 -230.5 58.5 -283.5s109.833 -79.5 212.5 -79.5c107.333 0 182.666 27.333 225.999 82
s65 152.667 65 294v838h190v-859zM676.001 1835h226v-12l-261 -171h-130v10zM750.001 1448v184h163v-184h-163zM316.001 1448v184h163v-184h-163z" />
    <glyph glyph-name="uni01D8" unicode="&#x1d8;" 
d="M365 1082v-686.001c0 -104 16.333 -176.167 49 -216.5s91 -60.5 175 -60.5c86 0 154 29.333 204 88s75 141.334 75 248.001v627h181v-851c0 -126 2 -203 6 -231h-170c-0.666992 3.33301 -1.33398 12.333 -2.00098 27s-1.5 31.5 -2.5 50.5s-2.16699 54.833 -3.5 107.5h-3
c-41.333 -74.667 -89.166 -127.5 -143.499 -158.5s-121.833 -46.5 -202.5 -46.5c-118.667 0 -205.5 29.5 -260.5 88.5s-82.5 156.5 -82.5 292.5v721h180zM730 1219v184h163v-184h-163zM336 1219v184h165v-184h-165zM532 1481v20l227 239h197v-29l-300 -230h-124z" />
    <glyph glyph-name="uni01D9" unicode="&#x1d9;" 
d="M1085 490c0 -178 -37.999 -307.499 -113.999 -388.499s-198 -121.5 -366 -121.5c-162.667 0 -280.5 39.167 -353.5 117.5s-109.5 203.166 -109.5 374.499v877h191v-851c0 -136 19.5 -230.5 58.5 -283.5s109.833 -79.5 212.5 -79.5c107.333 0 182.666 27.333 225.999 82
s65 152.667 65 294v838h190v-859zM765.001 1835h155v-10l-208 -173h-195l-209 171v12h155l151 -97zM749.001 1448v184h163v-184h-163zM315.001 1448v184h163v-184h-163z" />
    <glyph glyph-name="uni01DA" unicode="&#x1da;" 
d="M365 1082v-686.001c0 -104 16.333 -176.167 49 -216.5s91 -60.5 175 -60.5c86 0 154 29.333 204 88s75 141.334 75 248.001v627h181v-851c0 -126 2 -203 6 -231h-170c-0.666992 3.33301 -1.33398 12.333 -2.00098 27s-1.5 31.5 -2.5 50.5s-2.16699 54.833 -3.5 107.5h-3
c-41.333 -74.667 -89.166 -127.5 -143.499 -158.5s-121.833 -46.5 -202.5 -46.5c-118.667 0 -205.5 29.5 -260.5 88.5s-82.5 156.5 -82.5 292.5v721h180zM730 1219v184h163v-184h-163zM336 1219v184h165v-184h-165zM701 1481h-164l-254 239v20h104l232 -138h2l219 138h105
v-20z" />
    <glyph glyph-name="uni01DB" unicode="&#x1db;" 
d="M1085 490c0 -178 -37.999 -307.499 -113.999 -388.499s-198 -121.5 -366 -121.5c-162.667 0 -280.5 39.167 -353.5 117.5s-109.5 203.166 -109.5 374.499v877h191v-851c0 -136 19.5 -230.5 58.5 -283.5s109.833 -79.5 212.5 -79.5c107.333 0 182.666 27.333 225.999 82
s65 152.667 65 294v838h190v-859zM718.001 1662v-10h-130l-261 171v12h226zM316.001 1448v184h163v-184h-163zM750.001 1448v184h163v-184h-163z" />
    <glyph glyph-name="uni01DC" unicode="&#x1dc;" 
d="M365 1082v-686.001c0 -104 16.333 -176.167 49 -216.5s91 -60.5 175 -60.5c86 0 154 29.333 204 88s75 141.334 75 248.001v627h181v-851c0 -126 2 -203 6 -231h-170c-0.666992 3.33301 -1.33398 12.333 -2.00098 27s-1.5 31.5 -2.5 50.5s-2.16699 54.833 -3.5 107.5h-3
c-41.333 -74.667 -89.166 -127.5 -143.499 -158.5s-121.833 -46.5 -202.5 -46.5c-118.667 0 -205.5 29.5 -260.5 88.5s-82.5 156.5 -82.5 292.5v721h180zM730 1219v184h163v-184h-163zM336 1219v184h165v-184h-165zM594 1481l-300 230v29h197l227 -239v-20h-124z" />
    <glyph glyph-name="uni01DD" unicode="&#x1dd;" 
d="M905 579c0 121.333 -26.8301 216.333 -80.4971 285s-127.167 103 -220.5 103c-68.667 0 -128.834 -14.833 -180.501 -44.5s-86.167 -70.167 -103.5 -121.5l-158 45c29.333 82.667 83.166 146 161.499 190s171.833 66 280.5 66c157.333 0 278.333 -49 363 -147
s127 -238.333 127 -421c0 -178 -41.5 -314.833 -124.5 -410.5s-202.833 -143.5 -359.5 -143.5s-275.334 47.667 -356.001 143s-121 239.333 -121 432v24h772zM608.003 113c89.333 0 160 29.167 212 87.5s79.667 138.5 83 240.5h-584c18.667 -218.667 115 -328 289 -328z" />
    <glyph glyph-name="uni01DE" unicode="&#x1de;" 
d="M1034 0l-138 382h-563l-137 -382h-196l510 1349h217l501 -1349h-194zM616 1205l-12 -39l-69 -212l-151 -423h463l-173 500zM750 1458v184h163v-184h-163zM316 1458v184h163v-184h-163zM889 1708h-549v127h549v-127z" />
    <glyph glyph-name="uni01DF" unicode="&#x1df;" 
d="M1101 111c17.333 0 36.999 2.33398 58.999 7.00098v-112c-45.333 -10.667 -91.666 -16 -138.999 -16c-66.667 0 -115.167 17.5 -145.5 52.5s-47.5 89.833 -51.5 164.5h-6c-43.333 -80.667 -94.5 -138.667 -153.5 -174s-131.833 -53 -218.5 -53
c-105.333 0 -184.666 28.667 -237.999 86s-80 136 -80 236c0 232.667 151.333 350.667 454 354l236 4v59c0 87.333 -17.667 150.166 -53 188.499s-91.666 57.5 -168.999 57.5c-78.667 0 -135.334 -14 -170.001 -42s-55.334 -71.333 -62.001 -130l-188 17
c30.667 194.667 171.667 292 423 292c133.333 0 233.5 -31.167 300.5 -93.5s100.5 -152.5 100.5 -270.5v-466c0 -53.333 7 -93.5 21 -120.5s40.667 -40.5 80 -40.5zM491.999 117.001c64 0 120.668 15.333 170.001 46s87.666 71.667 114.999 123s41 104.333 41 159v89
l-190 -4c-78.667 -1.33301 -138.667 -10 -180 -26s-73.5 -40.5 -96.5 -73.5s-34.5 -76.833 -34.5 -131.5s14.833 -98.667 44.5 -132s73.167 -50 130.5 -50zM711 1200v184h163v-184h-163zM317 1200v184h165v-184h-165zM870 1489h-549v127h549v-127z" />
    <glyph glyph-name="uni01E0" unicode="&#x1e0;" 
d="M1034 0l-138 382h-563l-137 -382h-196l510 1349h217l501 -1349h-194zM616 1205l-12 -39l-69 -212l-151 -423h463l-173 500zM527 1468v184h163v-184h-163zM889 1708h-549v127h549v-127z" />
    <glyph glyph-name="uni01E1" unicode="&#x1e1;" 
d="M1101 111c17.333 0 36.999 2.33398 58.999 7.00098v-112c-45.333 -10.667 -91.666 -16 -138.999 -16c-66.667 0 -115.167 17.5 -145.5 52.5s-47.5 89.833 -51.5 164.5h-6c-43.333 -80.667 -94.5 -138.667 -153.5 -174s-131.833 -53 -218.5 -53
c-105.333 0 -184.666 28.667 -237.999 86s-80 136 -80 236c0 232.667 151.333 350.667 454 354l236 4v59c0 87.333 -17.667 150.166 -53 188.499s-91.666 57.5 -168.999 57.5c-78.667 0 -135.334 -14 -170.001 -42s-55.334 -71.333 -62.001 -130l-188 17
c30.667 194.667 171.667 292 423 292c133.333 0 233.5 -31.167 300.5 -93.5s100.5 -152.5 100.5 -270.5v-466c0 -53.333 7 -93.5 21 -120.5s40.667 -40.5 80 -40.5zM491.999 117.001c64 0 120.668 15.333 170.001 46s87.666 71.667 114.999 123s41 104.333 41 159v89
l-190 -4c-78.667 -1.33301 -138.667 -10 -180 -26s-73.5 -40.5 -96.5 -73.5s-34.5 -76.833 -34.5 -131.5s14.833 -98.667 44.5 -132s73.167 -50 130.5 -50zM515 1273v192h200v-192h-200zM889 1489h-549v127h549v-127z" />
    <glyph glyph-name="uni01E2" unicode="&#x1e2;" 
d="M646 412h-335l-142 -412h-168l486 1349h667v-152h-337v-430h327v-150h-327v-465h378v-152h-549v412zM646 1202l-72.998 0.000976562c-2.66699 -10.667 -16.834 -59.334 -42.501 -146.001s-81.834 -251.667 -168.501 -495h284v641zM1056 1503h-551v127h551v-127z" />
    <glyph glyph-name="uni01E3" unicode="&#x1e3;" 
d="M679 503l0.00195312 -17c3.33301 -247.333 65 -371 185 -371c50 0 89.833 15.667 119.5 47s49.834 71 60.501 119l138 -45c-45.333 -170.667 -150 -256 -314 -256c-80.667 0 -143.834 18.333 -189.501 55s-79.834 95.667 -102.501 177
c-34.667 -81.333 -76.834 -140.333 -126.501 -177s-106.834 -55 -171.501 -55c-86 0 -150.5 27.333 -193.5 82s-64.5 134.667 -64.5 240c0 232.667 110 350.667 330 354l167 4v59c0 90 -10.667 153.5 -32 190.5s-56 55.5 -104 55.5c-49.333 0 -85.166 -13.5 -107.499 -40.5
s-35.833 -70.833 -40.5 -131.5l-168 17c12.667 100.667 44.834 174.5 96.501 221.5s124.5 70.5 218.5 70.5c117.333 0 199.666 -46.333 246.999 -139c56.667 92.667 138.667 139 246 139c110.667 0 194.167 -47.167 250.5 -141.5s84.5 -238.833 84.5 -433.5v-24h-529z
M189.002 299c0 -54.667 9.5 -98.667 28.5 -132s47.5 -50 85.5 -50c42.667 0 80 14.833 112 44.5s57 69.667 75 120s27 104.833 27 163.5v89l-122 -4c-52.667 -1.33301 -92.5 -10 -119.5 -26s-48.167 -40.667 -63.5 -74s-23 -77 -23 -131zM859.002 969
c-54.667 0 -97.501 -29 -128.501 -87s-47.5 -138.333 -49.5 -241h361c-6 114 -23.667 197.167 -53 249.5s-72.666 78.5 -129.999 78.5zM889.001 1235h-549v127h549v-127z" />
    <glyph glyph-name="uni01E4" unicode="&#x1e4;" 
d="M1101 438h128v-130h-128v-175c-152.667 -102 -306.667 -153 -462 -153c-166.667 0 -296 61.833 -388 185.5s-138 295.5 -138 515.5c0 231.333 44 404 132 518s220.333 171 397 171c230.667 0 384.334 -110.333 461.001 -331l-171 -56c-54 154 -150 231 -288 231
c-112.667 0 -195.834 -42 -249.501 -126s-80.5 -219.667 -80.5 -407c0 -364 113.667 -546 341 -546c95.333 0 185.333 25 270 75v98h-303v130h303v107h-303v160h479v-267z" />
    <glyph glyph-name="uni01E5" unicode="&#x1e5;" 
d="M102 0h767.003v261h-2c-64.667 -132.667 -177.334 -199 -338.001 -199c-130 0 -226.833 42.5 -290.5 127.5s-95.5 214.833 -95.5 389.5c0 171.333 33.667 300.833 101 388.5s167 131.5 299 131.5c75.333 0 141 -17.5 197 -52.5s99 -84.833 129 -149.5h2
c0 20 1.33301 54.667 4 104s5.33398 76.333 8.00098 81h171c-4 -36 -6 -110.667 -6 -224v-858h66v-93h-75c-18.667 -110 -62.834 -192.667 -132.501 -248s-168.834 -83 -297.501 -83c-107.333 0 -196.833 20.167 -268.5 60.5s-119.5 98.833 -143.5 175.5l181 30
c31.333 -86.667 108.666 -130 231.999 -130c70 0 125 15 165 45s67.667 80 83 150h-756v93zM869.003 581c0 78 -11.999 146.168 -35.999 204.501s-57.5 102.833 -100.5 133.5s-91.167 46 -144.5 46c-89.333 0 -154.833 -31.333 -196.5 -94s-62.5 -159.334 -62.5 -290.001
c0 -134 20.167 -231.833 60.5 -293.5s107.166 -92.5 200.499 -92.5c54 0 102.167 15.5 144.5 46.5s75.333 75.667 99 134s35.5 126.833 35.5 205.5z" />
    <glyph glyph-name="uni01E6" unicode="&#x1e6;" 
d="M1101 133c-152.667 -102 -306.668 -153 -462.001 -153c-166.667 0 -296 61.833 -388 185.5s-138 295.5 -138 515.5c0 231.333 44 404 132 518s220.333 171 397 171c230.667 0 384.334 -110.333 461.001 -331l-171 -56c-53.333 154 -149.333 231 -288 231
c-112.667 0 -195.834 -42 -249.501 -126s-80.5 -219.667 -80.5 -407c0 -364 113.667 -546 341 -546c45.333 0 92.333 7 141 21s88.334 31.667 119.001 53v336h-293v160h479v-572zM700.999 1445h-164l-254 239v20h104l232 -138h2l219 138h105v-20z" />
    <glyph glyph-name="uni01E7" unicode="&#x1e7;" 
d="M615 -424c-112 0 -202.001 23 -270.001 69s-111.333 112 -130 198l184 25c11.333 -50 35.833 -88.5 73.5 -115.5s87.167 -40.5 148.5 -40.5c165.333 0 248 105 248 315v194h-2c-32.667 -68.667 -78 -120.667 -136 -156s-127 -53 -207 -53
c-132 0 -228.5 43.167 -289.5 129.5s-91.5 222.166 -91.5 407.499c0 188.667 32.667 327.5 98 416.5s166 133.5 302 133.5c75.333 0 140.833 -17.5 196.5 -52.5s98.5 -84.833 128.5 -149.5h3c0 20 1.33301 53.833 4 101.5s5.33398 75.5 8.00098 83.5h171
c-4 -36 -6 -110.667 -6 -224v-826c0 -151.333 -35.333 -265.166 -106 -341.499s-179.667 -114.5 -327 -114.5zM868.999 551c0 128.667 -25 229.834 -75 303.501s-118.667 110.5 -206 110.5c-91.333 0 -157.333 -31.833 -198 -95.5s-61 -169.834 -61 -318.501
c0 -100.667 8.5 -180.167 25.5 -238.5s43.5 -100.833 79.5 -127.5s86.333 -40 151 -40c56.667 0 106.5 15.833 149.5 47.5s76.167 78 99.5 139s35 134.167 35 219.5zM671.999 1201h-164l-254 239v20h104l232 -138h2l219 138h105v-20z" />
    <glyph glyph-name="uni01E8" unicode="&#x1e8;" 
d="M1003 0l-487 638l-163 -169v-469h-191v1349h191v-673l572 673h225l-504 -572l581 -777h-224zM698 1445h-164l-254 239v20h104l232 -138h2l219 138h105v-20z" />
    <glyph glyph-name="uni01E9" unicode="&#x1e9;" 
d="M914 0l-366 499l-132 -98v-401h-180v1349h180v-792l475 525h211l-439 -465l462 -617h-211zM738 1445h-164l-254 239v20h104l232 -138h2l219 138h105v-20z" />
    <glyph glyph-name="uni01EA" unicode="&#x1ea;" 
d="M1126 681c0 -224.667 -44.1689 -397.667 -132.502 -519s-215.166 -182 -380.499 -182c-166 0 -292.667 59.667 -380 179s-131 293.333 -131 522c0 224.667 43.333 395.667 130 513s214.334 176 383.001 176c164.667 0 291 -57.833 379 -173.5s132 -287.5 132 -515.5z
M924.998 681c0 355.333 -103.333 533.001 -310 533.001c-208 0 -312 -177.667 -312 -533c0 -180 26.333 -316 79 -408s130 -138 232 -138c108.667 0 187.667 46.667 237 140s74 228.666 74 405.999zM826.998 -399.999c-42 -18 -88.332 -27 -138.999 -27
c-70 0 -122.667 17 -158 51s-53 79.333 -53 136c0 45.333 13.833 89.833 41.5 133.5s65.5 79.167 113.5 106.5h133c-42.667 -24 -77.834 -56.833 -105.501 -98.5s-41.5 -84.5 -41.5 -128.5c0 -28 8.16699 -50 24.5 -66s39.5 -24 69.5 -24c36 0 74.333 8 115 24v-107z" />
    <glyph glyph-name="uni01EB" unicode="&#x1eb;" 
d="M1097 542c0 -182 -41.833 -321.167 -125.5 -417.5s-204.5 -144.5 -362.5 -144.5c-154.667 0 -273.167 48.667 -355.5 146s-123.5 236 -123.5 416c0 186 42.167 325.833 126.5 419.5s203.833 140.5 358.5 140.5c162.667 0 283.667 -46.333 363 -139s119 -233 119 -421z
M908 542c0 143.333 -22.833 250.334 -68.5 321.001s-119.5 106 -221.5 106c-103.333 0 -179 -36 -227 -108s-72 -178.333 -72 -319c0 -140 24 -246.5 72 -319.5s120 -109.5 216 -109.5c106 0 182.667 35.667 230 107s71 178.666 71 321.999zM830 -399.999
c-42 -18 -88.332 -27 -138.999 -27c-70 0 -122.667 17 -158 51s-53 79.333 -53 136c0 45.333 13.833 89.833 41.5 133.5s65.5 79.167 113.5 106.5h133c-42.667 -24 -77.834 -56.833 -105.501 -98.5s-41.5 -84.5 -41.5 -128.5c0 -28 8.16699 -50 24.5 -66s39.5 -24 69.5 -24
c36 0 74.333 8 115 24v-107z" />
    <glyph glyph-name="uni01EC" unicode="&#x1ec;" 
d="M1126 681c0 -224.667 -44.1689 -397.667 -132.502 -519s-215.166 -182 -380.499 -182c-166 0 -292.667 59.667 -380 179s-131 293.333 -131 522c0 224.667 43.333 395.667 130 513s214.334 176 383.001 176c164.667 0 291 -57.833 379 -173.5s132 -287.5 132 -515.5z
M924.998 681c0 355.333 -103.333 533.001 -310 533.001c-208 0 -312 -177.667 -312 -533c0 -180 26.333 -316 79 -408s130 -138 232 -138c108.667 0 187.667 46.667 237 140s74 228.666 74 405.999zM889.998 1503h-551v127h551v-127zM824.998 -399.999
c-42 -18 -88.332 -27 -138.999 -27c-70 0 -122.667 17 -158 51s-53 79.333 -53 136c0 45.333 13.833 89.833 41.5 133.5s65.5 79.167 113.5 106.5h133c-42.667 -24 -77.834 -56.833 -105.501 -98.5s-41.5 -84.5 -41.5 -128.5c0 -28 8.16699 -50 24.5 -66s39.5 -24 69.5 -24
c36 0 74.333 8 115 24v-107z" />
    <glyph glyph-name="uni01ED" unicode="&#x1ed;" 
d="M1097 542c0 -182 -41.833 -321.167 -125.5 -417.5s-204.5 -144.5 -362.5 -144.5c-154.667 0 -273.167 48.667 -355.5 146s-123.5 236 -123.5 416c0 186 42.167 325.833 126.5 419.5s203.833 140.5 358.5 140.5c162.667 0 283.667 -46.333 363 -139s119 -233 119 -421z
M908 542c0 143.333 -22.833 250.334 -68.5 321.001s-119.5 106 -221.5 106c-103.333 0 -179 -36 -227 -108s-72 -178.333 -72 -319c0 -140 24 -246.5 72 -319.5s120 -109.5 216 -109.5c106 0 182.667 35.667 230 107s71 178.666 71 321.999zM889 1235h-549v127h549v-127z
M836 -399.999c-42 -18 -88.332 -27 -138.999 -27c-70 0 -122.667 17 -158 51s-53 79.333 -53 136c0 45.333 13.833 89.833 41.5 133.5s65.5 79.167 113.5 106.5h133c-42.667 -24 -77.834 -56.833 -105.501 -98.5s-41.5 -84.5 -41.5 -128.5c0 -28 8.16699 -50 24.5 -66
s39.5 -24 69.5 -24c36 0 74.333 8 115 24v-107z" />
    </font>
</defs>
</svg>
