<?xml version="1.0" standalone="no"?>
<!DOCTYPE svg PUBLIC "-//W3C//DTD SVG 1.1//EN" "http://www.w3.org/Graphics/SVG/1.1/DTD/svg11.dtd" >
<svg>
<metadata>
Created by FontForge 20090914 at Wed Nov 21 08:49:50 2012
 By www-data
Digitized data copyright (c) 2010 Google Corporation.
Copyright (c) 2012 Red Hat, Inc.
</metadata>
<defs>
<font id="LiberationMono-Bold" horiz-adv-x="1229" >
  <font-face 
    font-family="Liberation Mono"
    font-weight="700"
    font-stretch="normal"
    units-per-em="2048"
    panose-1="2 7 7 9 2 2 5 2 4 4"
    ascent="1638"
    descent="-410"
    x-height="1082"
    cap-height="1349"
    bbox="-987 -771 1427 2024"
    underline-thickness="205"
    underline-position="-375"
    unicode-range="U+0020-U+FE23"
  />
<missing-glyph 
d="M127 0v752h770v-752h-770zM768 623h-512v-494h512v494z" />
    <glyph glyph-name=".notdef" 
d="M127 0v752h770v-752h-770zM768 623h-512v-494h512v494z" />
    <glyph glyph-name="space" unicode=" " 
 />
    <glyph glyph-name="exclam" unicode="!" 
d="M730 426h-230l-32 923h294zM468 0v270h288v-270h-288z" />
    <glyph glyph-name="quotedbl" unicode="&#x22;" 
d="M942 844h-199l-37 641h275zM486 844h-199l-37 641h273z" />
    <glyph glyph-name="numbersign" unicode="#" 
d="M951 835l-69 -324h237v-149h-270l-78 -362h-155l79 362h-309l-78 -362h-153l78 362h-174v149h206l70 324h-227v148h259l79 366h153l-78 -366h308l79 366h153l-78 -366h185v-148h-217zM488 835l-70 -324h309l70 324h-309z" />
    <glyph glyph-name="dollar" unicode="$" 
d="M1152 393c0 -120.667 -40.499 -214.169 -121.499 -280.502s-200.833 -102.5 -359.5 -108.5v-175h-109v172c-143.333 5.33301 -255 39.166 -335 101.499s-132.667 157.833 -158 286.5l256 47c12.667 -75.333 37.834 -130.5 75.501 -165.5s91.5 -55.833 161.5 -62.5v391
c-2 1.33301 -7 2.83301 -15 4.5s-13.333 2.5 -16 2.5c-107.333 24.667 -188.333 53.834 -243 87.501s-96.834 76.334 -126.501 128.001s-44.5 114.834 -44.5 189.501c0 110.667 37.667 196.167 113 256.5s186 93.5 332 99.5v134h109v-134c130 -4.66699 230 -33.5 300 -86.5
s120.333 -140.833 151 -263.5l-264 -39c-20 114.667 -82.333 179 -187 193v-352l11 -2c19.333 0 78.166 -16 176.499 -48s171.833 -79.167 220.5 -141.5s73 -140.5 73 -234.5zM562.001 1175c-122 -9.33301 -183 -62.667 -183 -160c0 -30 5 -54.5 15 -73.5
s25 -35.167 45 -48.5s61 -30 123 -50v332zM892.001 388.997c0 33.333 -6 60.5 -18 81.5s-29.5 38.167 -52.5 51.5s-73.167 31 -150.5 53v-367c147.333 10 221 70.333 221 181z" />
    <glyph glyph-name="percent" unicode="%" 
d="M236 0h-175l932 1353h177zM291 1361c188.667 0 282.999 -111.999 282.999 -335.999c0 -111.333 -24.333 -196 -73 -254s-120 -87 -214 -87s-165.333 28.667 -214 86s-73 142.333 -73 255c0 111.333 23.333 195.166 70 251.499s120.334 84.5 221.001 84.5zM397.999 1025
c0 71.333 -8.83301 122.666 -26.5 153.999s-45.167 47 -82.5 47s-65.5 -15.167 -84.5 -45.5s-28.5 -82.166 -28.5 -155.499c0 -72 9.66699 -123.5 29 -154.5s47.333 -46.5 84 -46.5c72.667 0 109 67 109 201zM946.999 665.001c188.667 0 282.999 -111.999 282.999 -335.999
c0 -111.333 -24.333 -196 -73 -254s-120 -87 -214 -87s-165.333 28.667 -214 86s-73 142.333 -73 255c0 111.333 23.333 195.166 70 251.499s120.334 84.5 221.001 84.5zM1054 329.002c0 71.333 -8.83301 122.666 -26.5 153.999s-45.167 47 -82.5 47
s-65.5 -15.167 -84.5 -45.5s-28.5 -82.166 -28.5 -155.499c0 -72 9.66699 -123.5 29 -154.5s47.333 -46.5 84 -46.5c72.667 0 109 67 109 201z" />
    <glyph glyph-name="ampersand" unicode="&#x26;" 
d="M24 369c0 84.667 26.834 163.001 80.501 235.001s127.5 130.333 221.5 175c-47.333 94.667 -71 183.667 -71 267c0 98.667 31.167 175.167 93.5 229.5s151.5 81.5 267.5 81.5c102 0 183.667 -25.667 245 -77s92 -120.333 92 -207c0 -68 -26.667 -131 -80 -189
s-148.333 -118.667 -285 -182c63.333 -110.667 134.666 -211.334 213.999 -302.001c50 99.333 86 207.333 108 324l204 -27c-28 -158 -79.667 -303 -155 -435c56.667 -48.667 113 -73 169 -73c38 0 69 5.66699 93 17v-196c-25.333 -14 -57 -21 -95 -21
c-106.667 0 -206.667 38.333 -300 115c-109.333 -82 -229 -123 -359 -123c-141.333 0 -250.5 33.5 -327.5 100.5s-115.5 162.833 -115.5 287.5zM671.001 239.001c-106 117.333 -193.334 237.334 -262.001 360.001c-45.333 -26.667 -80.333 -59.334 -105 -98.001
s-37 -81.334 -37 -128.001c0 -65.333 18.333 -116.666 55 -153.999s88.334 -56 155.001 -56c69.333 0 134 25.333 194 76zM739 1071c0 36.667 -10.335 66.502 -31.002 89.502s-52 34.5 -94 34.5c-49.333 0 -86.833 -13.833 -112.5 -41.5s-38.5 -64.167 -38.5 -109.5
c0 -58.667 17.333 -120.334 52 -185.001c66.667 31.333 113.334 56.666 140.001 75.999s47.334 40 62.001 62s22 46.667 22 74z" />
    <glyph glyph-name="quotesingle" unicode="'" 
d="M714 844h-199l-37 641h273z" />
    <glyph glyph-name="parenleft" unicode="(" 
d="M641 -425c-104.667 150.667 -180.334 301.001 -227.001 451.001s-70 318.333 -70 505c0 186 23.333 353.833 70 503.5s122.334 299.5 227.001 449.5h281c-105.333 -152 -181.833 -303.333 -229.5 -454s-71.5 -317.334 -71.5 -500.001c0 -182 23.667 -347.833 71 -497.5
s124 -302.167 230 -457.5h-281z" />
    <glyph glyph-name="parenright" unicode=")" 
d="M307 -425c106.667 156 183.5 308.5 230.5 457.5s70.5 314.833 70.5 497.5c0 183.333 -24 350.5 -72 501.5s-124.333 301.833 -229 452.5h281c105.333 -151.333 181.166 -302 227.499 -452s69.5 -317 69.5 -501c0 -185.333 -23.167 -353 -69.5 -503
s-122.166 -301 -227.499 -453h-281z" />
    <glyph glyph-name="asterisk" unicode="*" 
d="M706 1209l235 104l68 -197l-250 -61l186 -213l-184 -121l-146 252l-149 -252l-186 123l190 211l-250 61l68 197l239 -104l-18 274h215z" />
    <glyph glyph-name="plus" unicode="+" 
d="M726 569v-408h-226v408h-399v224h399v408h226v-408h402v-224h-402z" />
    <glyph glyph-name="comma" unicode="," 
d="M258 -363l169 662h315l-311 -662h-173z" />
    <glyph glyph-name="hyphen" unicode="-" 
d="M324 409v244h580v-244h-580z" />
    <glyph glyph-name="period" unicode="." 
d="M470 0v305h289v-305h-289z" />
    <glyph glyph-name="slash" unicode="/" 
d="M89 -20l821 1504h228l-817 -1504h-232z" />
    <glyph glyph-name="zero" unicode="0" 
d="M1111 675c0 -226 -42.668 -398.333 -128.001 -517s-209.333 -178 -372 -178c-163.333 0 -286.5 59.167 -369.5 177.5s-124.5 290.833 -124.5 517.5c0 234.667 40.5 409.167 121.5 523.5s207.833 171.5 380.5 171.5c166.667 0 290.334 -58 371.001 -174
s121 -289.667 121 -521zM828.999 675c0 117.333 -6.99805 210.165 -20.998 278.498s-35.667 118.166 -65 149.499s-71.333 47 -126 47c-57.333 0 -101.333 -15.667 -132 -47s-52.834 -81.166 -66.501 -149.499s-20.5 -161.166 -20.5 -278.499
c0 -116 7.16699 -208.333 21.5 -277s36.5 -118.667 66.5 -150s72.333 -47 127 -47c77.333 0 132.666 36.333 165.999 109s50 194.334 50 365.001zM506.001 554.999v249h215v-249h-215z" />
    <glyph glyph-name="one" unicode="1" 
d="M149 0l0.000976562 209h389v891c-26 -54.667 -77.833 -100.667 -155.5 -138s-159.167 -56 -244.5 -56v214c92.667 0 175.667 20.333 249 61s128.666 96.667 165.999 168h266v-1140h323v-209h-993z" />
    <glyph glyph-name="two" unicode="2" 
d="M123 0l-0.000976562 194.998c33.333 73.333 80.833 146.833 142.5 220.5s151.5 158.5 269.5 254.5c92 75.333 151.667 127.333 179 156s48.833 56.5 64.5 83.5s23.5 54.5 23.5 82.5c0 48 -15.667 85.667 -47 113s-77.333 41 -138 41c-60 0 -105.833 -16.167 -137.5 -48.5
s-52.167 -80.833 -61.5 -145.5l-283 16c16 130.667 64.833 230.334 146.5 299.001s192.834 103 333.501 103c145.333 0 260.333 -33.167 345 -99.5s127 -155.166 127 -266.499c0 -72.667 -22.833 -143.5 -68.5 -212.5s-114.167 -139.167 -205.5 -210.5
c-129.333 -100 -216.333 -172 -261 -216s-77 -88.667 -97 -134h654v-231h-986z" />
    <glyph glyph-name="three" unicode="3" 
d="M1125 376c0 -126 -45.1689 -224.001 -135.502 -294.001s-215.166 -105 -374.499 -105c-153.333 0 -274.833 33.5 -364.5 100.5s-142.167 163.833 -157.5 290.5l286 25c16.667 -125.333 95 -188 235 -188c70 0 124.667 16.833 164 50.5s59 79.5 59 137.5
s-24.167 102.333 -72.5 133s-117.5 46 -207.5 46h-98v227h92c81.333 0 143.833 15.5 187.5 46.5s65.5 74.167 65.5 129.5c0 50 -18.167 91 -54.5 123s-84.833 48 -145.5 48c-57.333 0 -104.666 -13.5 -141.999 -40.5s-58.666 -69.833 -63.999 -128.5l-281 20
c14.667 119.333 65.167 211.333 151.5 276s199.833 97 340.5 97c98.667 0 184.167 -15 256.5 -45s127.666 -72.167 165.999 -126.5s57.5 -117.166 57.5 -188.499c0 -82 -26 -150.333 -78 -205s-126.333 -91.334 -223 -110.001v-4c104.667 -12 187 -46.167 247 -102.5
s90 -127.166 90 -212.499z" />
    <glyph glyph-name="four" unicode="4" 
d="M980 287v-287h-268v287h-641v211l595 851h314v-853h188v-209h-188zM712 907c0 36 1.16699 75 3.5 117s4.16602 69 5.49902 81c-17.333 -37.333 -48.666 -91.333 -93.999 -162l-320 -447h405v411z" />
    <glyph glyph-name="five" unicode="5" 
d="M1123 454c0 -93.333 -20.833 -175.834 -62.5 -247.501s-102 -127.334 -181 -167.001s-171.833 -59.5 -278.5 -59.5c-141.333 0 -254.5 31.833 -339.5 95.5s-137.5 155.834 -157.5 276.501l281 23c14.667 -60 40.667 -103.667 78 -131s84.333 -41 141 -41
c72 0 128.333 21.333 169 64s61 103 61 181c0 69.333 -19.667 124.833 -59 166.5s-94.333 62.5 -165 62.5c-78 0 -141.667 -30.333 -191 -91h-274l49 763h847v-209h-592l-23 -326c68 60 153 90 255 90c134 0 241.167 -41.167 321.5 -123.5s120.5 -191.166 120.5 -326.499z
" />
    <glyph glyph-name="six" unicode="6" 
d="M1115 446c0 -144.667 -42.332 -258.5 -126.999 -341.5s-200.334 -124.5 -347.001 -124.5c-163.333 0 -290.166 61.167 -380.499 183.5s-135.5 291.833 -135.5 508.5c0 236 45.167 411.333 135.5 526s219.5 172 387.5 172c119.333 0 213.5 -26.333 282.5 -79
s117.833 -134.334 146.5 -245.001l-265 -37c-25.333 92.667 -82 139 -170 139c-76 0 -135.333 -36.167 -178 -108.5s-64 -178.166 -64 -317.499c30 50 71.667 88.333 125 115s113.666 40 180.999 40c123.333 0 222.333 -38.833 297 -116.5s112 -182.5 112 -314.5z
M833.001 438c0 72.667 -18.5 129.5 -55.5 170.5s-87.833 61.5 -152.5 61.5c-60 0 -109.167 -18.5 -147.5 -55.5s-57.5 -85.833 -57.5 -146.5c0 -75.333 19.667 -139 59 -191s90.333 -78 153 -78c62 0 111 21.333 147 64s54 101 54 175z" />
    <glyph glyph-name="seven" unicode="7" 
d="M1092 1126c-170 -232 -289.668 -434.998 -359.001 -608.998s-104 -346.333 -104 -517h-293c0 173.333 39.833 351.166 119.5 533.499s204.834 377.166 375.501 584.499h-700v231h961v-223z" />
    <glyph glyph-name="eight" unicode="8" 
d="M1120 382c0 -125.333 -44.332 -223.664 -132.999 -294.997s-212.667 -107 -372 -107c-158 0 -281.833 35.333 -371.5 106s-134.5 168.667 -134.5 294c0 85.333 26.5 157.666 79.5 216.999s122.167 96 207.5 110v4c-75.333 16.667 -136.5 52.667 -183.5 108
s-70.5 119.666 -70.5 192.999c0 109.333 41.5 196.333 124.5 261s197.833 97 344.5 97c151.333 0 268.166 -31.333 350.499 -94s123.5 -151.334 123.5 -266.001c0 -70.667 -23.667 -134 -71 -190s-109 -91.667 -185 -107v-4c90 -14.667 161 -51 213 -109
s78 -130.667 78 -218zM796.001 995.002c0 118.667 -61.667 178 -185 178c-121.333 0 -182 -59.333 -182 -178c0 -60.667 15.833 -107 47.5 -139s77.167 -48 136.5 -48c122 0 183 62.333 183 187zM829.001 405.002c0 67.333 -18.5 118.5 -55.5 153.5
s-91.833 52.5 -164.5 52.5c-67.333 0 -119.333 -18.5 -156 -55.5s-55 -88.5 -55 -154.5c0 -148.667 73 -223 219 -223c70.667 0 123.667 18 159 54s53 93.667 53 173z" />
    <glyph glyph-name="nine" unicode="9" 
d="M1106 697c0 -231.333 -45.168 -408.667 -135.501 -532s-220.5 -185 -390.5 -185c-124 0 -221.167 26.5 -291.5 79.5s-120.166 136.833 -149.499 251.5l264 37c26 -98 86 -147 180 -147c76 0 135.833 34.833 179.5 104.5s66.167 174.167 67.5 313.5
c-25.333 -50 -66.833 -89.167 -124.5 -117.5s-119.834 -42.5 -186.501 -42.5c-122 0 -220 41 -294 123s-111 192.333 -111 331c0 142 43.333 253.667 130 335s207.334 122 362.001 122c162.667 0 286.667 -55.333 372 -166s128 -279.667 128 -507zM808.999 878.999
c0 81.333 -19.667 146.833 -59 196.5s-89.666 74.5 -150.999 74.5c-60.667 0 -109.167 -21.5 -145.5 -64.5s-54.5 -101.167 -54.5 -174.5c0 -72 18.167 -130.5 54.5 -175.5s85.166 -67.5 146.499 -67.5c60.667 0 110.667 19.5 150 58.5s59 89.833 59 152.5z" />
    <glyph glyph-name="colon" unicode=":" 
d="M470 0v305h289v-305h-289zM470 780v305h289v-305h-289z" />
    <glyph glyph-name="semicolon" unicode=";" 
d="M479 780v305h289v-305h-289zM326 -363l169 662h315l-311 -662h-173z" />
    <glyph glyph-name="less" unicode="&#x3c;" 
d="M101 516v322l1027 391v-228l-833 -325l833 -324v-227z" />
    <glyph glyph-name="equal" unicode="=" 
d="M101 842v223h1027v-223h-1027zM101 291v221h1027v-221h-1027z" />
    <glyph glyph-name="greater" unicode="&#x3e;" 
d="M101 125v227l832 324l-832 325v228l1027 -391v-322z" />
    <glyph glyph-name="question" unicode="?" 
d="M1113 986c0 -43.333 -7.49902 -83 -22.499 -119s-36.667 -69.833 -65 -101.5s-93.166 -84.167 -194.499 -157.5c-88.667 -64 -134.667 -131.333 -138 -202h-267c4 68.667 23.667 130.167 59 184.5s85.333 103.833 150 148.5c75.333 51.333 126.666 93.5 153.999 126.5
s41 69.167 41 108.5c0 51.333 -20.333 92.5 -61 123.5s-94 46.5 -160 46.5c-67.333 0 -123.833 -19.667 -169.5 -59s-72.5 -91.333 -80.5 -156l-285 12c18 135.333 73.667 240.666 167 315.999s214.666 113 363.999 113c154.667 0 278 -34.667 370 -104
s138 -162.666 138 -279.999zM418.001 0v270h289v-270h-289z" />
    <glyph glyph-name="at" unicode="@" 
d="M1189 755c0 -198.667 -27.4971 -356.839 -82.4971 -474.506s-129.167 -176.5 -222.5 -176.5c-95.333 0 -143 52.333 -143 157v9l2 39h-6c-24 -62.667 -57 -112.5 -99 -149.5s-87.333 -55.5 -136 -55.5c-70.667 0 -125.834 33.333 -165.501 100s-59.5 161.667 -59.5 285
c0 107.333 16.167 208.666 48.5 303.999s76.333 170.5 132 225.5s117.834 82.5 186.501 82.5c44 0 80 -14.5 108 -43.5s46.667 -72.167 56 -129.5h5l33 151h135l-99 -507c-26.667 -140 -40 -232.667 -40 -278c0 -22.667 3.33301 -39.667 10 -51s19.667 -17 39 -17
c49.333 0 89.5 47.833 120.5 143.5s46.5 223.5 46.5 383.5c0 180.667 -35.333 326.667 -106 438s-164.667 167 -282 167c-99.333 0 -186 -36.167 -260 -108.5s-130.833 -173.166 -170.5 -302.499s-59.5 -273.666 -59.5 -432.999c0 -205.333 38.167 -368.166 114.5 -488.499
s179.5 -180.5 309.5 -180.5c62.667 0 123 11.667 181 35s120.667 64.333 188 123l71 -97c-76.667 -66 -151 -114 -223 -144s-147.667 -45 -227 -45c-110 0 -206.833 32.333 -290.5 97s-147.834 157.834 -192.501 279.501s-67 261.834 -67 420.501
c0 190.667 25.667 359.834 77 507.501s124.666 261.667 219.999 342s205.666 120.5 330.999 120.5c105.333 0 196.833 -30.167 274.5 -90.5s137.5 -145.666 179.5 -255.999s63 -237.833 63 -382.5zM755.003 783.995c0 130 -36.332 195.002 -108.999 195.002
c-40 0 -76.333 -22.833 -109 -68.5s-58.334 -106.834 -77.001 -183.501s-28 -155.334 -28 -236.001c0 -174 31.333 -261 94 -261c46.667 0 87.167 28.667 121.5 86s60.833 138.333 79.5 243s28 179.667 28 225z" />
    <glyph glyph-name="A" unicode="A" 
d="M1229 0h-294l-92 330h-456l-92 -330h-295l443 1349h344zM615 1167c-5.33301 -28 -15.167 -69.832 -29.5 -125.499s-59.833 -218.834 -136.5 -489.501h332c-78 274.667 -123.833 439 -137.5 493s-23.167 94.667 -28.5 122z" />
    <glyph glyph-name="B" unicode="B" 
d="M1186 385c0 -120.667 -41.333 -215.002 -124 -283.002s-197 -102 -343 -102h-582v1349h525c145.333 0 255.5 -29.167 330.5 -87.5s112.5 -142.166 112.5 -251.499c0 -76.667 -22 -141.167 -66 -193.5s-111.667 -88.166 -203 -107.499c114 -12 200.833 -46 260.5 -102
s89.5 -130 89.5 -222zM808 969.998c0 106.667 -55.667 160 -167 160h-209v-319h211c110 0 165 53 165 159zM889 409.998c0 58.667 -17.668 103.833 -53.001 135.5s-86.666 47.5 -153.999 47.5h-250v-374h257c133.333 0 200 63.667 200 191z" />
    <glyph glyph-name="C" unicode="C" 
d="M380 681c0 -150 23.3311 -265.667 69.998 -347s116.334 -122 209.001 -122c108 0 188 81.333 240 244l273 -52c-88.667 -282.667 -260.667 -424 -516 -424c-187.333 0 -330.166 59.5 -428.499 178.5s-147.5 293.167 -147.5 522.5c0 459.333 189.333 689 568 689
c124 0 227.833 -32.667 311.5 -98s145.167 -162.333 184.5 -291l-272 -66c-19.333 70.667 -48.333 125.5 -87 164.5s-83 58.5 -133 58.5c-181.333 0 -272 -152.333 -272 -457z" />
    <glyph glyph-name="D" unicode="D" 
d="M1149 685c0 -220 -51.333 -389.167 -154 -507.5s-249 -177.5 -439 -177.5h-421v1349h361c218.667 0 382.167 -54.833 490.5 -164.5s162.5 -276.167 162.5 -499.5zM852 685c0 151.333 -28.5 261.833 -85.5 331.5s-148.833 104.5 -275.5 104.5h-61v-893h102
c213.333 0 320 152.333 320 457z" />
    <glyph glyph-name="E" unicode="E" 
d="M137 0v1349h968v-228h-673v-324h612v-228h-612v-341h714v-228h-1009z" />
    <glyph glyph-name="F" unicode="F" 
d="M462 1121v-384h621v-228h-621v-509h-295v1349h939v-228h-644z" />
    <glyph glyph-name="G" unicode="G" 
d="M1128 185c-162 -136.667 -326.333 -204.999 -493 -204.999c-174 0 -310 61.167 -408 183.5s-147 294.833 -147 517.5c0 459.333 186 689 558 689c120 0 218 -31 294 -93s132 -156 168 -282l-274 -54c-35.333 131.333 -97 197 -185 197c-90 0 -156.167 -36 -198.5 -108
s-63.5 -188.333 -63.5 -349c0 -148.667 22.333 -263.334 67 -344.001s112.667 -121 204 -121c35.333 0 71.833 6.66699 109.5 20s70.5 31.333 98.5 54v235h-274v218h544v-558z" />
    <glyph glyph-name="H" unicode="H" 
d="M796 0v574h-363v-574h-295v1349h295v-531h363v531h295v-1349h-295z" />
    <glyph glyph-name="I" unicode="I" 
d="M157 1349h916v-228h-311v-893h311v-228h-916v228h311v893h-311v228z" />
    <glyph glyph-name="J" unicode="J" 
d="M564 -20c-130.667 0 -235.334 36.335 -314.001 109.002s-128 177 -148 313l291 43c13.333 -78.667 35 -137.334 65 -176.001s66 -58 108 -58c48.667 0 87.334 19.667 116.001 59s43 95.666 43 168.999v679h-301v231h595v-903c0 -145.333 -40.333 -259.333 -121 -342
s-192 -124 -334 -124z" />
    <glyph glyph-name="K" unicode="K" 
d="M881 0l-323 557l-127 -142v-415h-295v1349h295v-599l436 599h343l-460 -579l479 -770h-348z" />
    <glyph glyph-name="L" unicode="L" 
d="M211 0v1349h295v-1121h616v-228h-911z" />
    <glyph glyph-name="M" unicode="M" 
d="M908 0v868c0 70 5.33301 170.333 16 301c-39.333 -193.333 -64.333 -307 -75 -341l-124 -468h-218l-126 468c-19.333 72 -44.666 185.667 -75.999 341l7 -100c4.66699 -70 7 -137 7 -201v-868h-220v1349h347l135 -499c10 -31.333 22.667 -108.333 38 -231
c13.333 103.333 26.666 180 39.999 230l136 500h335v-1349h-222z" />
    <glyph glyph-name="N" unicode="N" 
d="M748 0l-384 1010c18.667 -168 28 -286 28 -354v-656h-257v1349h337l393 -1037c-18.667 156.667 -28 278.334 -28 365.001v672h257v-1349h-346z" />
    <glyph glyph-name="O" unicode="O" 
d="M1157 679c0 -230 -46.667 -404 -140 -522s-227.333 -177 -402 -177s-308.834 59 -402.501 177s-140.5 292 -140.5 522s46.833 402.667 140.5 518s227.834 173 402.501 173s308.667 -57.667 402 -173s140 -288 140 -518zM858 679c0 306 -81.001 459 -243.001 459
c-162.667 0 -244 -153 -244 -459c0 -153.333 20.5 -269.5 61.5 -348.5s101.833 -118.5 182.5 -118.5s141.334 39.5 182.001 118.5s61 195.167 61 348.5z" />
    <glyph glyph-name="P" unicode="P" 
d="M1142 923c0 -89.333 -20.333 -167.833 -61 -235.5s-99.5 -119.834 -176.5 -156.501s-169.167 -55 -276.5 -55h-197v-476h-295v1349h480c171.333 0 301.833 -36.167 391.5 -108.5s134.5 -178.166 134.5 -317.499zM845 918c0 72.667 -21.833 124.5 -65.5 155.5
s-109.167 46.5 -196.5 46.5h-152v-417h160c88 0 152.333 18.167 193 54.5s61 89.833 61 160.5z" />
    <glyph glyph-name="Q" unicode="Q" 
d="M1157 679c0 -192 -32.1699 -344.667 -96.5029 -458s-158.166 -187 -281.499 -221c23.333 -64.667 56 -111.834 98 -141.501s98 -44.5 168 -44.5c30 0 71 4.33301 123 13v-202c-84 -18.667 -164.667 -28 -242 -28c-109.333 0 -199.666 30.833 -270.999 92.5
s-129 162.834 -173 303.501c-133.333 28 -235 99.333 -305 214s-105 272 -105 472c0 230 46.833 402.667 140.5 518s227.834 173 402.501 173s308.667 -57.667 402 -173s140 -288 140 -518zM857.997 679c0 306 -81.001 459 -243.001 459c-162.667 0 -244 -153 -244 -459
c0 -153.333 20.5 -269.5 61.5 -348.5s101.833 -118.5 182.5 -118.5s141.334 39.5 182.001 118.5s61 195.167 61 348.5z" />
    <glyph glyph-name="R" unicode="R" 
d="M895 0l-290.001 515h-173v-515h-295v1349h494c176 0 307.667 -34.333 395 -103s131 -167.667 131 -297c0 -91.333 -24.667 -169 -74 -233s-117.666 -109 -204.999 -135l349 -581h-332zM859.999 937c0 62.667 -20.667 108.833 -62 138.5s-107.333 44.5 -198 44.5h-168
v-376h176c168 0 252 64.333 252 193z" />
    <glyph glyph-name="S" unicode="S" 
d="M1165 391c0 -128 -48.832 -228.499 -146.499 -301.499s-233.5 -109.5 -407.5 -109.5c-156.667 0 -284.334 33 -383.001 99s-162 162 -190 288l285 37c15.333 -62.667 47.333 -112.167 96 -148.5s115.334 -54.5 200.001 -54.5c88 0 153.167 14 195.5 42
s63.5 71.667 63.5 131c0 44 -18.667 81.167 -56 111.5s-91.666 54.166 -162.999 71.499c-143.333 34.667 -244.5 64.834 -303.5 90.501s-106.167 54.5 -141.5 86.5s-62.5 69.5 -81.5 112.5s-28.5 91.167 -28.5 144.5c0 116.667 46.833 209 140.5 277s217.167 102 370.5 102
c149.333 0 266 -29.5 350 -88.5s138.333 -150.5 163 -274.5l-286 -29c-29.333 122 -107 183 -233 183c-70.667 0 -124.667 -13.167 -162 -39.5s-56 -64.166 -56 -113.499c0 -32.667 9 -59.834 27 -81.501s42.5 -40 73.5 -55s94.167 -34.833 189.5 -59.5
c125.333 -30.667 221.666 -64.834 288.999 -102.501s116.666 -83.167 147.999 -136.5s47 -114 47 -182z" />
    <glyph glyph-name="T" unicode="T" 
d="M762 1121v-1121h-295v1121h-406v228h1107v-228h-406z" />
    <glyph glyph-name="U" unicode="U" 
d="M599 -20c-164 0 -283.333 44.668 -358 134.001s-112 227.333 -112 414v821h295v-818c0 -116.667 13.5 -199.167 40.5 -247.5s74.5 -72.5 142.5 -72.5c69.333 0 119.666 25.667 150.999 77s47 135.666 47 252.999v808h295v-806c0 -190.667 -41.167 -332.167 -123.5 -424.5
s-208.166 -138.5 -377.499 -138.5z" />
    <glyph glyph-name="V" unicode="V" 
d="M766 0l-299 0.000976562l-464 1349h308l233 -775c18 -58.667 42.667 -147.334 74 -266.001l21 86l51 180l232 775h305z" />
    <glyph glyph-name="W" unicode="W" 
d="M1018 0h-248l-64 267c-33.333 126 -63.333 249 -90 369l-35 -147l-44 -177l-78 -312h-248l-211 1349h259l89 -695c8 -64 13.333 -152.667 16 -266l15 76l40 168l99 339h195l99 -339c8.66699 -30 16.167 -59.5 22.5 -88.5l32.5 -155.5l2 27c4 107.333 9.33301 187 16 239
l84 695h259z" />
    <glyph glyph-name="X" unicode="X" 
d="M919 0l-303 493l-304 -493h-312l459 711l-418 638h312l263 -430l262 430h310l-428 -638l469 -711h-310z" />
    <glyph glyph-name="Y" unicode="Y" 
d="M761 556v-556h-294v556l-464 793h309l300 -566l304 566h309z" />
    <glyph glyph-name="Z" unicode="Z" 
d="M1138 0h-1051v209l671 909h-595v231h934v-205l-671 -913h712v-231z" />
    <glyph glyph-name="bracketleft" unicode="[" 
d="M373 -425v1909h602v-190h-336v-1528h336v-191h-602z" />
    <glyph glyph-name="backslash" unicode="\" 
d="M908 -20l-817 1504h228l821 -1504h-232z" />
    <glyph glyph-name="bracketright" unicode="]" 
d="M254 -425v191h336v1528h-336v190h602v-1909h-602z" />
    <glyph glyph-name="asciicircum" unicode="^" 
d="M922 514l-326 752l-324 -752h-227l391 895h322l393 -895h-229z" />
    <glyph glyph-name="underscore" unicode="_" 
d="M-5 -220v96h1238v-96h-1238z" />
    <glyph glyph-name="grave" unicode="`" 
d="M687 1184l-340 231v43h258l252 -243v-31h-170z" />
    <glyph glyph-name="a" unicode="a" 
d="M439 -20c-104.667 0 -186.333 28.498 -245 85.498s-88 137.167 -88 240.5c0 112 34.833 197.167 104.5 255.5s173.834 88.5 312.501 90.5l223 4v55c0 68.667 -11.667 120.667 -35 156s-61 53 -113 53c-48.667 0 -84.5 -12.167 -107.5 -36.5
s-37.167 -63.166 -42.5 -116.499l-293 14c36 214 187.667 321 455 321c134.667 0 237.834 -33 309.501 -99s107.5 -163 107.5 -291v-392c0 -60.667 6.83301 -102.5 20.5 -125.5s36.5 -34.5 68.5 -34.5c21.333 0 42 2 62 6v-152l-45 -11
c-13.333 -3.33301 -26.666 -6 -39.999 -8s-27.5 -3.66699 -42.5 -5s-32.5 -2 -52.5 -2c-70.667 0 -122.834 17.333 -156.501 52s-53.834 85.667 -60.501 153h-6c-42 -75.333 -89.833 -129.666 -143.5 -162.999s-117.834 -50 -192.501 -50zM746.001 500.998l-134 -2
c-60 -1.33301 -103.5 -7.5 -130.5 -18.5s-47.5 -28.667 -61.5 -53s-21 -57.5 -21 -99.5c0 -101.333 40 -152 120 -152c64.667 0 118.667 25.5 162 76.5s65 115.5 65 193.5v55z" />
    <glyph glyph-name="b" unicode="b" 
d="M140 0c5.33301 90.667 7.99902 169.333 7.99902 236v1248h281v-394l-2 -178h2c27.333 60.667 68.5 107.667 123.5 141s119.5 50 193.5 50c124 0 219.333 -49 286 -147s100 -236.667 100 -416c0 -169.333 -35.333 -305 -106 -407s-167 -153 -289 -153
c-69.333 0 -130.166 16.5 -182.499 49.5s-93.5 81.833 -123.5 146.5h-4c0 -22 -1.5 -52.5 -4.5 -91.5s-6.5 -67.167 -10.5 -84.5h-272zM424.999 546.999c0 -80 8.83301 -147.667 26.5 -203s42.667 -97.833 75 -127.5s69.5 -44.5 111.5 -44.5c64 0 113.5 30.667 148.5 92
s52.5 153.333 52.5 276c0 122 -17.167 214.5 -51.5 277.5s-84.833 94.5 -151.5 94.5c-65.333 0 -116.833 -32 -154.5 -96s-56.5 -153.667 -56.5 -269z" />
    <glyph glyph-name="c" unicode="c" 
d="M624 -20c-164 0 -290.665 48.8301 -379.998 146.497s-134 233.834 -134 408.501c0 178.667 45 317.834 135 417.501s217.667 149.5 383 149.5c127.333 0 232.666 -32 315.999 -96s135.666 -152.333 156.999 -265l-283 -14c-8 55.333 -28 99.5 -60 132.5
s-77.333 49.5 -136 49.5c-144.667 0 -217 -121 -217 -363c0 -249.333 73.667 -374 221 -374c53.333 0 98 16.833 134 50.5s58.333 83.834 67 150.501l282 -13c-10 -74 -36.5 -140 -79.5 -198s-99.5 -102.833 -169.5 -134.5s-148.667 -47.5 -236 -47.5z" />
    <glyph glyph-name="d" unicode="d" 
d="M817 0c-2.66699 10 -5.83301 35.167 -9.5 75.5s-5.5 73.833 -5.5 100.5h-4c-35.333 -71.333 -79 -121.833 -131 -151.5s-113.667 -44.5 -185 -44.5c-119.333 0 -213.333 50 -282 150s-103 236.333 -103 409c0 176.667 34.5 314.334 103.5 413.001s166.5 148 292.5 148
c71.333 0 133.333 -16.167 186 -48.5s93 -79.833 121 -142.5h2l-2 178v397h281v-1248c0 -66.667 2.66699 -145.334 8 -236.001h-272zM804.001 546c0 115.333 -18.668 204.668 -56.001 268.001s-89 95 -155 95c-66.667 0 -117.167 -31.167 -151.5 -93.5
s-51.5 -154.5 -51.5 -276.5c0 -122.667 17.5 -214.5 52.5 -275.5s84.5 -91.5 148.5 -91.5c41.333 0 78.333 14.833 111 44.5s57.834 72.167 75.501 127.5s26.5 122.666 26.5 201.999z" />
    <glyph glyph-name="e" unicode="e" 
d="M626 -20c-168 0 -297.668 49.499 -389.001 148.499s-137 238.167 -137 417.5c0 120 21.5 221.333 64.5 304s104.167 145.334 183.5 188.001s173.333 64 282 64c158 0 280.667 -52.667 368 -158s131 -255 131 -449v-8h-734c0 -98 21.833 -175.667 65.5 -233
s103.5 -86 179.5 -86c49.333 0 93 10.5 131 31.5s63.667 53.5 77 97.5l265 -23c-36.667 -94 -97.667 -166.5 -183 -217.5s-186.666 -76.5 -303.999 -76.5zM625.999 924.999c-68.667 0 -123.332 -23.167 -163.999 -69.5s-62.334 -110.5 -65.001 -192.5h460
c-4.66699 80 -27.5 143.667 -68.5 191s-95.167 71 -162.5 71z" />
    <glyph glyph-name="f" unicode="f" 
d="M653 892v-892h-280v892h-256v190h256v83c0 116 36.5 203.167 109.5 261.5s177.167 87.5 312.5 87.5c106 0 215 -9.33301 327 -28v-184c-100 12.667 -192.667 19 -278 19c-65.333 0 -113.5 -13.5 -144.5 -40.5s-46.5 -74.167 -46.5 -141.5v-57h443v-190h-443z" />
    <glyph glyph-name="g" unicode="g" 
d="M616 -434c-124 0 -224.999 25.667 -302.999 77s-126 122.666 -144 213.999l281 33c10 -43.333 30.667 -77.666 62 -102.999s68.666 -38 111.999 -38c67.333 0 118.333 24.167 153 72.5s52 120.166 52 215.499v59l2 115h-2c-62 -132.667 -171.333 -199 -328 -199
c-119.333 0 -212 46.5 -278 139.5s-99 225.833 -99 398.5c0 174.667 34.333 309.834 103 405.501s167 143.5 295 143.5c70 0 131.333 -16.167 184 -48.5s93.667 -79.833 123 -142.5h5c0 23.333 1.5 55 4.5 95s6.16699 66.333 9.5 79h266c-4 -72 -6 -155.333 -6 -250v-799
c0 -151.333 -42.5 -267 -127.5 -347s-206.5 -120 -364.5 -120zM831.001 556c0 109.333 -18.667 195 -56 257s-88.333 93 -153 93c-66.667 0 -117.5 -30.167 -152.5 -90.5s-52.5 -148.833 -52.5 -265.5c0 -116 18 -202.167 54 -258.5s85.667 -84.5 149 -84.5
c68 0 120.167 31.333 156.5 94s54.5 147.667 54.5 255z" />
    <glyph glyph-name="h" unicode="h" 
d="M420 866c38 82.667 85.668 142.665 143.001 179.998s125.666 56 204.999 56c112 0 196 -34 252 -102s84 -172.667 84 -314v-686h-280v621c0 100.667 -13.5 170.834 -40.5 210.501s-71.167 59.5 -132.5 59.5c-68 0 -122.833 -29.167 -164.5 -87.5
s-62.5 -133.166 -62.5 -224.499v-579h-281v1484h281v-405c0 -72.667 -2.66699 -143.667 -8 -213h4z" />
    <glyph glyph-name="i" unicode="i" 
d="M794 190h353v-190h-1029v190h395v702h-290v190h571v-892zM513 1277v207h281v-207h-281z" />
    <glyph glyph-name="j" unicode="j" 
d="M864 -13c0 -86 -18.832 -159.833 -56.499 -221.5s-91.334 -108.834 -161.001 -141.501s-150.167 -49 -241.5 -49c-52.667 0 -106.334 4.33301 -161.001 13s-97 18.667 -127 30v210c90.667 -22.667 178.334 -34 263.001 -34c73.333 0 125.333 17.833 156 53.5
s46 89.834 46 162.501v882h-354v190h636v-1095zM583.001 1277v207h281v-207h-281z" />
    <glyph glyph-name="k" unicode="k" 
d="M864 0l-289 490l-121 -84v-406h-281v1484h281v-850l386 448h302l-380 -422l409 -660h-307z" />
    <glyph glyph-name="l" unicode="l" 
d="M794 190h353v-190h-1029v190h395v1104h-290v190h571v-1294z" />
    <glyph glyph-name="m" unicode="m" 
d="M501 0l-0.00292969 657.999c0 99.333 -6.16699 168.333 -18.5 207s-35.166 58 -68.499 58c-34 0 -60.833 -31.333 -80.5 -94s-29.5 -145 -29.5 -247v-582h-229v851c0 126 -2 203 -6 231h209l6 -127v-48h2c22.667 68 51.334 117.5 86.001 148.5s78 46.5 130 46.5
c58.667 0 102.5 -16 131.5 -48s49.833 -81.333 62.5 -148h2c26.667 70.667 58.5 121 95.5 151s83.833 45 140.5 45c78.667 0 135 -28.667 169 -86s51 -155.666 51 -294.999v-721h-228v658c0 99.333 -6.16699 168.333 -18.5 207s-35.166 58 -68.499 58
c-34 0 -60.833 -26.833 -80.5 -80.5s-29.5 -134.167 -29.5 -241.5v-601h-228z" />
    <glyph glyph-name="n" unicode="n" 
d="M824 0l0.00195312 619c0 94 -12.833 163 -38.5 207s-69.834 66 -132.501 66c-69.333 0 -124.833 -29.5 -166.5 -88.5s-62.5 -133.5 -62.5 -223.5v-580h-281v840c0 58 -0.833008 105.5 -2.5 142.5s-3.5 70.167 -5.5 99.5h268c2 -12.667 4.66699 -46.5 8 -101.5
s5 -92.833 5 -113.5h4c38 82.667 85.667 142.667 143 180s125.666 56 204.999 56c224 0 336 -138.667 336 -416v-687h-280z" />
    <glyph glyph-name="o" unicode="o" 
d="M1137 542c0 -179.333 -45.333 -317.833 -136 -415.5s-221 -146.5 -391 -146.5c-164 0 -291.333 48.833 -382 146.5s-136 236.167 -136 415.5c0 178.667 45 316.667 135 414s219.667 146 389 146c347.333 0 521 -186.667 521 -560zM843 542c0 128 -17 221.167 -51 279.5
s-91.333 87.5 -172 87.5c-82.667 0 -142.167 -29.333 -178.5 -88s-54.5 -151.667 -54.5 -279c0 -128.667 18.5 -222.5 55.5 -281.5s91.833 -88.5 164.5 -88.5c82.667 0 142.667 29.167 180 87.5s56 152.5 56 282.5z" />
    <glyph glyph-name="p" unicode="p" 
d="M412 1082c4 -14 7.5 -42.001 10.5 -84.001s4.5 -72.667 4.5 -92h4c32 63.333 74.833 112 128.5 146s116.167 51 187.5 51c120 0 214.167 -50.333 282.5 -151s102.5 -237 102.5 -409c0 -176.667 -34.5 -314.667 -103.5 -414s-166.5 -149 -292.5 -149
c-71.333 0 -133.333 16.167 -186 48.5s-93 79.833 -121 142.5h-2l2 -178v-418h-281v1271c0 66.667 -2.66699 145.334 -8 236.001h272zM425 535.999c0 -79.333 8.66699 -145.832 26 -199.499s41.833 -94.667 73.5 -123s68.834 -42.5 111.501 -42.5
c67.333 0 118 31.667 152 95s51 155.666 51 276.999c0 122.667 -17.5 214.667 -52.5 276s-84.5 92 -148.5 92c-41.333 0 -78.333 -14.833 -111 -44.5s-57.834 -72.167 -75.501 -127.5s-26.5 -123 -26.5 -203z" />
    <glyph glyph-name="q" unicode="q" 
d="M1089 1082c-5.33301 -90.667 -8 -169.334 -8 -236.001v-1271h-281v418l2 178h-2c-27.333 -60.667 -68.5 -107.667 -123.5 -141s-119.5 -50 -193.5 -50c-124 0 -219.333 49 -286 147s-100 236.667 -100 416c0 170 35.667 305.833 107 407.5s167.333 152.5 288 152.5
c138.667 0 240.667 -65.667 306 -197h4c0 29.333 2 63.833 6 103.5s7 63.834 9 72.501h272zM804 536c0 80 -8.83301 147.667 -26.5 203s-42.667 97.833 -75 127.5s-69.5 44.5 -111.5 44.5c-64 0 -113.5 -30.667 -148.5 -92s-52.5 -153.333 -52.5 -276
c0 -122 17.167 -214.5 51.5 -277.5s84.833 -94.5 151.5 -94.5c65.333 0 116.833 32 154.5 96s56.5 153.667 56.5 269z" />
    <glyph glyph-name="r" unicode="r" 
d="M1081 848c-74.667 12.667 -145.334 19 -212.001 19c-104 0 -186.5 -39.333 -247.5 -118s-91.5 -182.334 -91.5 -311.001v-438h-280v701c0 50.667 -4.5 110.334 -13.5 179.001s-21.833 136 -38.5 202h271c24 -86.667 39.333 -162.667 46 -228h4
c33.333 90.667 78.333 154.667 135 192s130.334 56 221.001 56c69.333 0 138 -5.66699 206 -17v-237z" />
    <glyph glyph-name="s" unicode="s" 
d="M1104 316c0 -104.667 -42.835 -186.837 -128.502 -246.504s-204.167 -89.5 -355.5 -89.5c-148.667 0 -262.5 23.5 -341.5 70.5s-131.5 120.167 -157.5 219.5l247 37c14 -51.333 38.167 -87.666 72.5 -108.999s94.166 -32 179.499 -32c78.667 0 136 10 172 30
s54 51.333 54 94c0 34.667 -14.5 62.167 -43.5 82.5s-78.167 37.5 -147.5 51.5c-158.667 31.333 -265.667 60.5 -321 87.5s-97.5 62 -126.5 105s-43.5 95.833 -43.5 158.5c0 103.333 39.833 183.833 119.5 241.5s192.5 86.5 338.5 86.5c128.667 0 232.167 -25 310.5 -75
s127.166 -122.333 146.499 -217l-249 -26c-8 44 -27.667 76.833 -59 98.5s-81 32.5 -149 32.5c-66.667 0 -116.667 -8.5 -150 -25.5s-50 -45.5 -50 -85.5c0 -31.333 12.833 -56.166 38.5 -74.499s68.834 -33.5 129.501 -45.5
c84.667 -17.333 159.834 -35.166 225.501 -53.499s118.334 -40.166 158.001 -65.499s71.334 -57.833 95.001 -97.5s35.5 -90.5 35.5 -152.5z" />
    <glyph glyph-name="t" unicode="t" 
d="M328 892h-167.001v190h181l88 282h176v-282h385v-190h-385v-530c0 -58.667 5.5 -98.167 16.5 -118.5s28.833 -36.333 53.5 -48s59.334 -17.5 104.001 -17.5c82.667 0 167.667 9 255 27v-186c-94.667 -15.333 -161.667 -24.5 -201 -27.5s-80.333 -4.5 -123 -4.5
c-84.667 0 -155.5 11.5 -212.5 34.5s-100 59 -129 108s-43.5 117.833 -43.5 206.5z" />
    <glyph glyph-name="u" unicode="u" 
d="M416 1082l-0.00195312 -607c0 -92 14.833 -162.5 44.5 -211.5s72.167 -73.5 127.5 -73.5c60 0 109.5 29.5 148.5 88.5s58.5 133.5 58.5 223.5v580h281v-840c0 -92 2.66699 -172.667 8 -242h-268c-8 96 -12 167.667 -12 215h-5
c-71.333 -156.667 -180.666 -235 -327.999 -235c-109.333 0 -192.666 34.833 -249.999 104.5s-86 173.167 -86 310.5v687h281z" />
    <glyph glyph-name="v" unicode="v" 
d="M774 0l-335.999 -0.000976562l-407 1082h297l209 -622c10 -33.333 33.667 -116.666 71 -249.999c4 16 16.167 58.5 36.5 127.5s105.166 317.167 254.499 744.5h294z" />
    <glyph glyph-name="w" unicode="w" 
d="M1028 0l-243.999 -0.000976562l-143 471c-16.667 53.333 -25.667 87.333 -27 102c-0.666992 -6 -4.33398 -21.5 -11.001 -46.5s-62 -200.5 -166 -526.5h-243l-183 1082h228l83 -607c12.667 -101.333 19 -176.666 19 -225.999l20 74l157 494h193l140 -455
c10 -33.333 19.667 -71 29 -113c0 41.333 3.33301 89 10 143s40.667 284 102 690h226z" />
    <glyph glyph-name="x" unicode="x" 
d="M874 0l-262 392l-264 -392h-299l406 559l-387 523h303l241 -354l240 354h305l-387 -520l409 -562h-305z" />
    <glyph glyph-name="y" unicode="y" 
d="M325 -425c-70.667 0 -131.335 4.33301 -182.002 13v200l51 -5l51 -3c40 0 73.167 6.33301 99.5 19s50 33.667 71 63s44.5 79 70.5 149l-448 1071h297l190 -527c26.667 -72.667 60.334 -184 101.001 -334l9 37l81 293l180 531h294l-448 -1139
c-53.333 -137.333 -111.666 -233 -174.999 -287s-144 -81 -242 -81z" />
    <glyph glyph-name="z" unicode="z" 
d="M138 0v199l570 680h-529v203h849v-201l-567 -676h616v-205h-939z" />
    <glyph glyph-name="braceleft" unicode="{" 
d="M718 -425c-89.333 0 -160.833 26.168 -214.5 78.501s-80.5 125.833 -80.5 220.5v328c0 76 -18.333 132.833 -55 170.5s-94.667 57.167 -174 58.5v195c80.667 3.33301 139 23.833 175 61.5s54 94.167 54 169.5v328c0 97.333 26.167 171.5 78.5 222.5
s124.5 76.5 216.5 76.5h327v-190h-188c-60.667 0 -104.5 -17.333 -131.5 -52s-40.5 -87 -40.5 -157v-301c0 -63.333 -19.167 -118 -57.5 -164s-88.166 -75.333 -149.499 -88v-4c63.333 -14.667 113.666 -44.834 150.999 -90.501s56 -99.5 56 -161.5v-301
c0 -70.667 13.5 -123.167 40.5 -157.5s70.833 -51.5 131.5 -51.5h188v-191h-327z" />
    <glyph glyph-name="bar" unicode="|" 
d="M483 -455v1939h262v-1939h-262z" />
    <glyph glyph-name="braceright" unicode="}" 
d="M184 -425l0.000976562 190.999h188c60.667 0 104.5 17.167 131.5 51.5s40.5 86.833 40.5 157.5v301c0 62 18.667 115.833 56 161.5s87.666 75.834 150.999 90.501v4c-62 13.333 -112 43 -150 89s-57 100.333 -57 163v301c0 70 -13.5 122.333 -40.5 157
s-70.833 52 -131.5 52h-188v190h327c92 0 164.167 -25.5 216.5 -76.5s78.5 -125.167 78.5 -222.5v-328c0 -75.333 18 -131.833 54 -169.5s94.333 -58.167 175 -61.5v-195c-79.333 -1.33301 -137.333 -20.833 -174 -58.5s-55 -94.5 -55 -170.5v-328
c0 -94 -26.667 -167.333 -80 -220s-125 -79 -215 -79h-327z" />
    <glyph glyph-name="asciitilde" unicode="~" 
d="M866 516c-50 0 -99.166 7 -147.499 21s-97.5 29.667 -147.5 47c-90 31.333 -163.667 47 -221 47c-47.333 0 -90.833 -7.16699 -130.5 -21.5s-81.167 -36.5 -124.5 -66.5v213c75.333 56 165.666 84 270.999 84c70 0 150.667 -15.667 242 -47
c88 -30.667 148.667 -50 182 -58s65 -12 95 -12c89.333 0 172 30.667 248 92v-219c-42.667 -29.333 -83.5 -50 -122.5 -62s-87.167 -18 -144.5 -18z" />
    <glyph glyph-name="uni00A0" unicode="&#xa0;" 
 />
    <glyph glyph-name="exclamdown" unicode="&#xa1;" 
d="M500 653h230l32 -923h-294zM762 1079v-270h-288v270h288z" />
    <glyph glyph-name="cent" unicode="&#xa2;" 
d="M635 311c58.667 0 107.834 18.165 147.501 54.498s64.167 87.833 73.5 154.5l283 -12c-14.667 -102 -59.334 -186.833 -134.001 -254.5s-171.334 -108.5 -290.001 -122.5v-191h-162v189c-143.333 14 -255 66.333 -335 157s-120 214.334 -120 371.001
c0 154.667 39.167 279 117.5 373s190.833 149.333 337.5 166v184h162v-184c112.667 -12.667 205.334 -50.167 278.001 -112.5s118.334 -143.833 137.001 -244.5l-282 -14c-10 60.667 -33.667 107.5 -71 140.5s-85.333 49.5 -144 49.5
c-82.667 0 -145.334 -30.667 -188.001 -92s-64 -146.666 -64 -255.999c0 -116 22.167 -204.333 66.5 -265s106.833 -91 187.5 -91z" />
    <glyph glyph-name="sterling" unicode="&#xa3;" 
d="M1180 363c-20.667 -114.667 -65.999 -203.832 -135.999 -267.499s-155.333 -95.5 -256 -95.5h-704v205c68 38.667 114.5 82 139.5 130s37.5 107 37.5 177v82h-188v170h178v198c0 134 35.667 235.5 107 304.5s177.666 103.5 318.999 103.5
c112.667 0 201.334 -23 266.001 -69s111.667 -120 141 -222l-233 -47c-14 51.333 -34.667 88.666 -62 111.999s-63 35 -107 35c-60.667 0 -104.334 -19.167 -131.001 -57.5s-40 -99.166 -40 -182.499v-175h286v-170h-286v-80c0 -68.667 -13.667 -127.334 -41 -176.001
s-74.333 -91.667 -141 -129h390c69.333 0 121.833 16.5 157.5 49.5s59.167 80.833 70.5 143.5z" />
    <glyph glyph-name="currency" unicode="&#xa4;" 
d="M179 684c0 80 20.001 153.667 60.001 221l-133 133l157 156l131 -133c67.333 39.333 140.666 59 219.999 59c80.667 0 153.667 -19.667 219 -59l135 135l158 -158l-136 -135c40 -66 60 -139 60 -219c0 -78.667 -19.333 -151 -58 -217l134 -133l-158 -160l-133 135
c-66.667 -39.333 -140.334 -59 -221.001 -59c-81.333 0 -154.666 19 -219.999 57l-135 -137l-157 158l135 137c-38.667 66 -58 139 -58 219zM405.001 686c0 -57.333 20.333 -106.5 61 -147.5s90 -61.5 148 -61.5c56.667 0 105.5 20.667 146.5 62s61.5 90.333 61.5 147
c0 57.333 -20.333 106.5 -61 147.5s-89.667 61.5 -147 61.5s-106.5 -20.333 -147.5 -61s-61.5 -90 -61.5 -148z" />
    <glyph glyph-name="yen" unicode="&#xa5;" 
d="M811 691h276v-146h-338v-162h338v-147h-338v-236h-272v236h-336v147h336v162h-336v146h276l-384 658h289l290 -536l294 536h289z" />
    <glyph glyph-name="brokenbar" unicode="&#xa6;" 
d="M483 676v778h262v-778h-262zM483 -455v779h262v-779h-262z" />
    <glyph glyph-name="section" unicode="&#xa7;" 
d="M629 1485c129.333 0 233.166 -23.499 311.499 -70.499s126.5 -114.833 144.5 -203.5l-239 -25c-8.66699 41.333 -32 73.166 -70 95.499s-87 33.5 -147 33.5c-74.667 0 -129.5 -9.83301 -164.5 -29.5s-52.5 -51.167 -52.5 -94.5c0 -27.333 9 -50.5 27 -69.5
s43.5 -35.667 76.5 -50s93.167 -31.166 180.5 -50.499c112 -25.333 194.833 -51.666 248.5 -78.999s94.667 -61.333 123 -102s42.5 -90 42.5 -148c0 -62 -18.333 -116.833 -55 -164.5s-84 -80.5 -142 -98.5c120.667 -52.667 181 -138 181 -256
c0 -111.333 -41.833 -196.5 -125.5 -255.5s-203.167 -88.5 -358.5 -88.5c-148.667 0 -263.167 23.167 -343.5 69.5s-133.5 119.166 -159.5 218.499l237 37c13.333 -53.333 40.5 -92.5 81.5 -117.5s102.5 -37.5 184.5 -37.5c81.333 0 143 10.833 185 32.5s63 59.167 63 112.5
c0 32 -8 58 -24 78s-41.167 37.5 -75.5 52.5s-113.166 37.167 -236.499 66.5c-137.333 32.667 -234.5 75 -291.5 127s-85.5 115.333 -85.5 190c0 62 18.333 114.333 55 157s89.334 75.667 158.001 99c-60 25.333 -106.333 60.666 -139 105.999s-49 96 -49 152
c0 99.333 39.167 176.333 117.5 231s192.166 82 341.499 82zM872 658.001c0 47.333 -19.833 83.666 -59.5 108.999s-117.167 49 -232.5 71c-128.667 -15.333 -193 -66.333 -193 -153c0 -27.333 9 -50.166 27 -68.499s43.667 -34.5 77 -48.5s95.333 -31.333 186 -52
c130 6.66699 195 54 195 142z" />
    <glyph glyph-name="dieresis" unicode="&#xa8;" 
d="M713 1219v219h227v-219h-227zM289 1219v219h224v-219h-224z" />
    <glyph glyph-name="copyright" unicode="&#xa9;" 
d="M628 333c-112 0 -198.833 37.834 -260.5 113.501s-92.5 181.167 -92.5 316.5c0 134.667 29.667 239 89 313s145 111 257 111c144.667 0 245.667 -69.667 303 -209l-138 -43c-32.667 84.667 -87 127 -163 127c-63.333 0 -111.666 -25.5 -144.999 -76.5
s-50 -125.167 -50 -222.5c0 -94.667 17.833 -169.334 53.5 -224.001s84.5 -82 146.5 -82c75.333 0 132.333 51.333 171 154l129 -42c-24.667 -75.333 -62.834 -133.5 -114.501 -174.5s-113.5 -61.5 -185.5 -61.5zM1197 761.001
c0 -151.333 -23.6621 -281.502 -70.9951 -390.502s-115 -191.667 -203 -248s-191 -84.5 -309 -84.5s-220.833 28.5 -308.5 85.5s-155.334 139.833 -203.001 248.5s-71.5 238.334 -71.5 389.001s23.667 280.334 71 389.001s115.166 191.5 203.499 248.5
s191.166 85.5 308.499 85.5s220.166 -28.333 308.499 -85s156.166 -139.167 203.499 -247.5s71 -238.5 71 -390.5zM1071 760.999c0 192 -39.833 341.167 -119.5 447.5s-192.167 159.5 -337.5 159.5c-143.333 0 -254.833 -53.167 -334.5 -159.5s-119.5 -255.5 -119.5 -447.5
c0 -194 40 -343.833 120 -449.5s191.333 -158.5 334 -158.5c144.667 0 257 52.833 337 158.5s120 255.5 120 449.5z" />
    <glyph glyph-name="ordfeminine" unicode="&#xaa;" 
d="M445 643c-74.667 0 -133.834 20.3359 -177.501 61.0029s-65.5 97.667 -65.5 171c0 77.333 27.333 136.833 82 178.5s136 63.167 244 64.5l169 2v48c0 91.333 -39.667 137 -119 137c-40.667 0 -71.167 -8.83301 -91.5 -26.5s-32.833 -44.834 -37.5 -81.501l-219 11
c13.333 74 50.333 131.333 111 172s139 61 235 61c104 0 185 -22.833 243 -68.5s87 -112.834 87 -201.501v-273c0 -36.667 3.5 -64.334 10.5 -83.001s23.167 -28 48.5 -28l56 5v-125c-44.667 -14 -90 -21 -136 -21c-54 0 -96.667 14 -128 42s-49 65.333 -53 112h-3
c-55.333 -104.667 -140.666 -157 -255.999 -157zM527 794.003c46.667 0 86.667 18.167 120 54.5s50 79.833 50 130.5v31l-106 -3c-67.333 -2 -112.833 -12.167 -136.5 -30.5s-35.5 -46.833 -35.5 -85.5c0 -64.667 36 -97 108 -97z" />
    <glyph glyph-name="guillemotleft" unicode="&#xab;" 
d="M857 141l-256 361v71l256 367h238v-37l-254 -366l256 -361v-35h-240zM390 141l-258 361v71l258 367h236v-37l-254 -366l256 -361v-35h-238z" />
    <glyph glyph-name="logicalnot" unicode="&#xac;" 
d="M887 141v428h-803v224h1027v-652h-224z" />
    <glyph glyph-name="uni00AD" unicode="&#xad;" 
d="M324 409v244h580v-244h-580z" />
    <glyph glyph-name="registered" unicode="&#xae;" 
d="M1197 761c0 -151.333 -23.6621 -281.502 -70.9951 -390.502s-115 -191.667 -203 -248s-191 -84.5 -309 -84.5s-220.833 28.5 -308.5 85.5s-155.334 139.833 -203.001 248.5s-71.5 238.334 -71.5 389.001s23.667 280.334 71 389.001s115.166 191.5 203.499 248.5
s191.166 85.5 308.499 85.5s220.166 -28.333 308.499 -85s156.166 -139.167 203.499 -247.5s71 -238.5 71 -390.5zM789.005 342.998l-189.999 329h-116v-329h-151v831h307c94.667 0 167.167 -21 217.5 -63s75.5 -100 75.5 -174c0 -68 -16.833 -123.667 -50.5 -167
s-78.834 -71.333 -135.501 -84l218 -343h-175zM781.006 934.998c0 84.667 -58.667 127 -176 127h-122v-280h134c53.333 0 94 13 122 39s42 64 42 114zM1071.01 760.998c0 192 -39.833 341.167 -119.5 447.5s-192.167 159.5 -337.5 159.5
c-143.333 0 -254.833 -53.167 -334.5 -159.5s-119.5 -255.5 -119.5 -447.5c0 -194 40 -343.833 120 -449.5s191.333 -158.5 334 -158.5c144.667 0 257 52.833 337 158.5s120 255.5 120 449.5z" />
    <glyph glyph-name="overscore" unicode="&#xaf;" 
d="M-5 1452v96h1238v-96h-1238z" />
    <glyph glyph-name="degree" unicode="&#xb0;" 
d="M935 1110c0 -86.667 -31.168 -160.834 -93.501 -222.501s-138.166 -92.5 -227.499 -92.5c-88 0 -163.333 30.333 -226 91s-94 135.334 -94 224.001c0 57.333 14.167 110.333 42.5 159s67 86.834 116 114.501s102.833 41.5 161.5 41.5c90 0 166 -30.833 228 -92.5
s93 -135.834 93 -222.501zM776.999 1110c0 46.667 -15.5 85.999 -46.5 117.999s-69.833 48 -116.5 48c-47.333 0 -86.833 -16.167 -118.5 -48.5s-47.5 -71.5 -47.5 -117.5s16.333 -85.5 49 -118.5s71.667 -49.5 117 -49.5c44.667 0 83 16.333 115 49s48 72.334 48 119.001z
" />
    <glyph glyph-name="plusminus" unicode="&#xb1;" 
d="M726 707v-341h-224v341h-401v223h401v340h224v-340h402v-223h-402zM101 0v223h1027v-223h-1027z" />
    <glyph glyph-name="twosuperior" unicode="&#xb2;" 
d="M277 563l0.00292969 142c42 91.333 130.667 179.333 266 264c63.333 40 108.666 75 135.999 105s41 60.667 41 92c0 71.333 -32 107 -96 107c-66 0 -103 -38.333 -111 -115l-228 6c10 78.667 45.167 141.334 105.5 188.001s138.166 70 233.499 70
c104 0 184.667 -21.667 242 -65s86 -104 86 -182c0 -98 -60 -185.333 -180 -262c-88.667 -56.667 -146.334 -95.834 -173.001 -117.501s-45.667 -45.167 -57 -70.5h425v-162h-690z" />
    <glyph glyph-name="threesuperior" unicode="&#xb3;" 
d="M962 799c0 -77.333 -29.332 -137.999 -87.999 -181.999s-142 -66 -250 -66c-218 0 -338 81.333 -360 244l222 15c8 -73.333 52.667 -110 134 -110c80 0 120 37.667 120 113c0 72 -54.333 108 -163 108h-66v148h60c50 0 87.333 9.33301 112 28s37 44.334 37 77.001
c0 30.667 -9 54.667 -27 72s-44 26 -78 26c-32.667 0 -59.167 -8.83301 -79.5 -26.5s-32.166 -43.834 -35.499 -78.501l-218 14c10 75.333 45.167 134.166 105.5 176.499s138.166 63.5 233.499 63.5c98.667 0 176.5 -20.333 233.5 -61s85.5 -94 85.5 -160
c0 -50 -14.333 -92.667 -43 -128s-74 -59.333 -136 -72v-2c63.333 -7.33301 112.666 -28.333 147.999 -63s53 -80 53 -136z" />
    <glyph glyph-name="acute" unicode="&#xb4;" 
d="M367 1184v31l252 243h258v-43l-340 -231h-170z" />
    <glyph glyph-name="mu1" unicode="&#xb5;" 
d="M834 0c-0.666992 8 -1.83398 19.333 -3.50098 34s-3.16699 30.834 -4.5 48.501s-2.5 35.5 -3.5 53.5s-1.5 34 -1.5 48h-3c-52 -136 -134 -204 -246 -204c-34.667 0 -66.5 8 -95.5 24s-51.167 38 -66.5 66h-4c2.66699 -28.667 4 -67 4 -115v-371h-281v1498h281v-605
c0 -189.333 61.333 -284 184 -284c64.667 0 117.334 27.833 158.001 83.5s61 131.5 61 227.5v578h281v-840c0 -86.667 2.66699 -167.334 8 -242.001h-268z" />
    <glyph glyph-name="paragraph" unicode="&#xb6;" 
d="M984 1206l0.000976562 -1530h-156v1530h-195v-1530h-155v958c-112.667 0 -201.334 30.833 -266.001 92.5s-97 149.167 -97 262.5c0 112.667 32.833 200.834 98.5 264.501s156.5 95.5 272.5 95.5h629v-143h-131z" />
    <glyph glyph-name="middot.001" unicode="&#xb7;" 
d="M470 417v305h288v-305h-288z" />
    <glyph glyph-name="cedilla" unicode="&#xb8;" 
d="M493 -255c0 -62.667 -26.001 -110 -78.001 -142s-127 -48 -225 -48c-30 0 -63.667 2 -101 6v118c23.333 -4.66699 51.333 -7 84 -7c91.333 0 137 23 137 69c0 23.333 -9.33301 40.666 -28 51.999s-50 17 -94 17c-25.333 0 -42.666 -0.666992 -51.999 -2l69 192h143
l-40 -102c62.667 -3.33301 109.167 -18.666 139.5 -45.999s45.5 -63 45.5 -107z" />
    <glyph glyph-name="onesuperior" unicode="&#xb9;" 
d="M275 563v142h236v530c-15.333 -31.333 -47 -58.333 -95 -81s-93.333 -34 -136 -34v154c48 0 95 12.667 141 38s79.333 58 100 98h204v-705h220v-142h-670z" />
    <glyph glyph-name="ordmasculine" unicode="&#xba;" 
d="M1003 1043c0 -124 -34.832 -221.667 -104.499 -293s-165.834 -107 -288.501 -107c-119.333 0 -213 35.833 -281 107.5s-102 169.167 -102 292.5c0 124.667 34.167 222.167 102.5 292.5s163.5 105.5 285.5 105.5c124 0 219.667 -34.333 287 -103s101 -167 101 -295z
M773.001 1043c0 80 -11.667 138.999 -35 176.999s-63.666 57 -120.999 57c-56.667 0 -97.834 -19.167 -123.501 -57.5s-38.5 -97.166 -38.5 -176.499c0 -159.333 51.333 -239 154 -239c58 0 99.833 19.333 125.5 58s38.5 99 38.5 181z" />
    <glyph glyph-name="guillemotright" unicode="&#xbb;" 
d="M132 141v35l256 361l-254 366v37h238l256 -367v-71l-256 -361h-240zM601 141v35l256 361l-254 366v37h236l258 -367v-71l-258 -361h-238z" />
    <glyph glyph-name="onequarter" unicode="&#xbc;" 
d="M202 1159c-12.667 -25.333 -39.835 -46.833 -81.502 -64.5s-81.5 -26.5 -119.5 -26.5v165c38.667 0 79.334 11 122.001 33s72.334 49.667 89.001 83h181v-760h-191v570zM305.999 0h-162l738 1349h161zM1107 162v-160h-191v160h-341v149l321 452h211v-450h82v-151h-82z
M921.999 606l-65.5 -117.001c-16.333 -28 -55.5 -86.667 -117.5 -176h177v198c0 34.667 2 66.334 6 95.001z" />
    <glyph glyph-name="onehalf" unicode="&#xbd;" 
d="M203 1159c-12.667 -25.333 -39.835 -46.833 -81.502 -64.5s-81.5 -26.5 -119.5 -26.5v165c38.667 0 79.334 11 122.001 33s72.334 49.667 89.001 83h181v-760h-191v570zM290.999 0h-162l738 1349h161zM657.999 1v143.001c20.667 48 49.667 91.333 87 130
s83 74.334 137 107.001c52.667 32 89.5 60.667 110.5 86s31.5 53.666 31.5 84.999c0 60.667 -26.333 91 -79 91c-21.333 0 -38.5 -4 -51.5 -12s-23.167 -19 -30.5 -33s-13.333 -38.333 -18 -73l-180 10c21.333 158.667 115.333 238 282 238c87.333 0 152.833 -19 196.5 -57
s65.5 -90.667 65.5 -158c0 -40.667 -7.66699 -76 -23 -106s-34.833 -56.5 -58.5 -79.5s-49.667 -43.5 -78 -61.5l-82.5 -51.5c-26.667 -16.333 -50.667 -32.833 -72 -49.5s-36.333 -35.334 -45 -56.001h350v-153h-542z" />
    <glyph glyph-name="threequarters" unicode="&#xbe;" 
d="M591 793c0 -70 -25.335 -124.834 -76.002 -164.501s-120.667 -59.5 -210 -59.5c-84.667 0 -150.834 17.833 -198.501 53.5s-79.5 95.167 -95.5 178.5l205 26c5.33301 -38.667 15 -68.5 29 -89.5s35.333 -31.5 64 -31.5c54.667 0 82 34.667 82 104
c0 34 -10.833 59 -32.5 75s-56.5 24 -104.5 24h-41v131h37c45.333 0 77 8 95 24s27 42.667 27 80c0 30 -5 52 -15 66s-26.667 21 -50 21c-29.333 0 -49.666 -9.33301 -60.999 -28s-18.666 -46 -21.999 -82l-194 12c10.667 76 38.667 133 84 171s111.333 57 198 57
c82.667 0 146.334 -18.167 191.001 -54.5s67 -85.833 67 -148.5c0 -44 -11.167 -79.667 -33.5 -107s-56.5 -49.666 -102.5 -66.999v-6c54.667 -12 94.5 -34.5 119.5 -67.5s37.5 -72.167 37.5 -117.5zM381.998 -0.000976562h-162l738 1349h161zM1146 161.999v-160h-191v160
h-341v149l321 452h211v-450h82v-151h-82zM960.998 605.999l-65.5 -117.001c-16.333 -28 -55.5 -86.667 -117.5 -176h177v198c0 34.667 2 66.334 6 95.001z" />
    <glyph glyph-name="questiondown" unicode="&#xbf;" 
d="M124 96c0 43.333 7.49902 83.001 22.499 119.001s36.667 69.833 65 101.5s93.5 84.167 195.5 157.5c88 64 133.667 131.333 137 202h267c-4 -68 -23.333 -129 -58 -183s-85 -104 -151 -150c-75.333 -51.333 -126.666 -93.5 -153.999 -126.5s-41 -69.167 -41 -108.5
c0 -51.333 20.333 -92.5 61 -123.5s94 -46.5 160 -46.5c67.333 0 123.833 19.667 169.5 59s72.5 91.333 80.5 156l285 -12c-18.667 -136 -74.667 -241.5 -168 -316.5s-214.333 -112.5 -363 -112.5c-154.667 0 -278 34.667 -370 104s-138 162.666 -138 279.999zM818.999 1082
v-270h-289v270h289z" />
    <glyph glyph-name="Agrave" unicode="&#xc0;" 
d="M1229 0h-294l-92 330h-456l-92 -330h-295l443 1349h344zM615 1167c-5.33301 -28 -15.167 -69.832 -29.5 -125.499s-59.833 -218.834 -136.5 -489.501h332c-78 274.667 -123.833 439 -137.5 493s-23.167 94.667 -28.5 122zM593.999 1427l-340 231v43h258l252 -243v-31
h-170z" />
    <glyph glyph-name="Aacute" unicode="&#xc1;" 
d="M1229 0h-294l-92 330h-456l-92 -330h-295l443 1349h344zM615 1167c-5.33301 -28 -15.167 -69.832 -29.5 -125.499s-59.833 -218.834 -136.5 -489.501h332c-78 274.667 -123.833 439 -137.5 493s-23.167 94.667 -28.5 122zM459.999 1428v31l252 243h258v-43l-340 -231
h-170z" />
    <glyph glyph-name="Acircumflex" unicode="&#xc2;" 
d="M1229 0h-294l-92 330h-456l-92 -330h-295l443 1349h344zM615 1167c-5.33301 -28 -15.167 -69.832 -29.5 -125.499s-59.833 -218.834 -136.5 -489.501h332c-78 274.667 -123.833 439 -137.5 493s-23.167 94.667 -28.5 122zM982.999 1455v-28h-159l-203 134h-4l-211 -134
h-160v28l258 250h229z" />
    <glyph glyph-name="Atilde" unicode="&#xc3;" 
d="M1229 0h-294l-92 330h-456l-92 -330h-295l443 1349h344zM615 1167c-5.33301 -28 -15.167 -69.832 -29.5 -125.499s-59.833 -218.834 -136.5 -489.501h332c-78 274.667 -123.833 439 -137.5 493s-23.167 94.667 -28.5 122zM780.999 1422
c-29.333 0 -58.833 5.83301 -88.5 17.5s-58.5 24.667 -86.5 39l-79.5 39c-25 11.667 -47.5 17.5 -67.5 17.5c-30 0 -52.333 -7.83301 -67 -23.5s-25 -45.5 -31 -89.5h-137c8 104 30.5 177.167 67.5 219.5s89.5 63.5 157.5 63.5c30 0 60 -5.83301 90 -17.5s59 -24.667 87 -39
l78.5 -39c24.333 -11.667 46.166 -17.5 65.499 -17.5c31.333 0 54.333 8.83301 69 26.5s24.667 46.5 30 86.5h135c-5.33301 -74 -16.666 -130 -33.999 -168s-41.833 -66.667 -73.5 -86s-70.167 -29 -115.5 -29z" />
    <glyph glyph-name="Adieresis" unicode="&#xc4;" 
d="M1229 0h-294l-92 330h-456l-92 -330h-295l443 1349h344zM615 1167c-5.33301 -28 -15.167 -69.832 -29.5 -125.499s-59.833 -218.834 -136.5 -489.501h332c-78 274.667 -123.833 439 -137.5 493s-23.167 94.667 -28.5 122zM712.999 1445v219h227v-219h-227zM288.999 1445
v219h224v-219h-224z" />
    <glyph glyph-name="Aring" unicode="&#xc5;" 
d="M1229 0h-294l-92 330h-456l-92 -330h-295l443 1349h344zM615 1167c-5.33301 -28 -15.167 -69.832 -29.5 -125.499s-59.833 -218.834 -136.5 -489.501h332c-78 274.667 -123.833 439 -137.5 493s-23.167 94.667 -28.5 122zM858.999 1479
c0 -58 -21.833 -105.833 -65.5 -143.5s-102.5 -56.5 -176.5 -56.5c-74.667 0 -133.667 18.833 -177 56.5s-65 85.5 -65 143.5c0 59.333 22.167 107.333 66.5 144s102.833 55 175.5 55c74 0 132.833 -18.5 176.5 -55.5s65.5 -84.833 65.5 -143.5zM719.999 1479
c0 21.333 -9.33301 38.5 -28 51.5s-43.667 19.5 -75 19.5c-30.667 0 -55.667 -6.33301 -75 -19s-29 -30 -29 -52s9.66699 -39.333 29 -52s44.333 -19 75 -19s55.5 6.5 74.5 19.5s28.5 30.167 28.5 51.5z" />
    <glyph glyph-name="AE" unicode="&#xc6;" 
d="M616 387h-253l-102 -387h-261l372 1349h804v-202h-309v-355h297v-200h-297v-390h348v-202h-599v387zM616 1152h-58l-46 -200l-98 -366h202v566z" />
    <glyph glyph-name="Ccedilla" unicode="&#xc7;" 
d="M380 681c0 -150 23.3311 -265.667 69.998 -347s116.334 -122 209.001 -122c108 0 188 81.333 240 244l273 -52c-88.667 -282.667 -260.667 -424 -516 -424c-187.333 0 -330.166 59.5 -428.499 178.5s-147.5 293.167 -147.5 522.5c0 459.333 189.333 689 568 689
c124 0 227.833 -32.667 311.5 -98s145.167 -162.333 184.5 -291l-272 -66c-19.333 70.667 -48.333 125.5 -87 164.5s-83 58.5 -133 58.5c-181.333 0 -272 -152.333 -272 -457zM846.998 -255c0 -62.667 -26.001 -110 -78.001 -142s-127 -48 -225 -48c-30 0 -63.667 2 -101 6
v118c23.333 -4.66699 51.333 -7 84 -7c91.333 0 137 23 137 69c0 23.333 -9.33301 40.666 -28 51.999s-50 17 -94 17c-25.333 0 -42.666 -0.666992 -51.999 -2l69 192h143l-40 -102c62.667 -3.33301 109.167 -18.666 139.5 -45.999s45.5 -63 45.5 -107z" />
    <glyph glyph-name="Egrave" unicode="&#xc8;" 
d="M137 0v1349h968v-228h-673v-324h612v-228h-612v-341h714v-228h-1009zM616 1428l-340 231v43h258l252 -243v-31h-170z" />
    <glyph glyph-name="Eacute" unicode="&#xc9;" 
d="M137 0v1349h968v-228h-673v-324h612v-228h-612v-341h714v-228h-1009zM458 1428v31l252 243h258v-43l-340 -231h-170z" />
    <glyph glyph-name="Ecircumflex" unicode="&#xca;" 
d="M137 0v1349h968v-228h-673v-324h612v-228h-612v-341h714v-228h-1009zM983 1455v-28h-159l-203 134h-4l-211 -134h-160v28l258 250h229z" />
    <glyph glyph-name="Edieresis" unicode="&#xcb;" 
d="M137 0v1349h968v-228h-673v-324h612v-228h-612v-341h714v-228h-1009zM733 1445v219h227v-219h-227zM309 1445v219h224v-219h-224z" />
    <glyph glyph-name="Igrave" unicode="&#xcc;" 
d="M157 1349h916v-228h-311v-893h311v-228h-916v228h311v893h-311v228zM606 1428l-340 231v43h258l252 -243v-31h-170z" />
    <glyph glyph-name="Iacute" unicode="&#xcd;" 
d="M157 1349h916v-228h-311v-893h311v-228h-916v228h311v893h-311v228zM470 1428v31l252 243h258v-43l-340 -231h-170z" />
    <glyph glyph-name="Icircumflex" unicode="&#xce;" 
d="M157 1349h916v-228h-311v-893h311v-228h-916v228h311v893h-311v228zM983 1455v-28h-159l-203 134h-4l-211 -134h-160v28l258 250h229z" />
    <glyph glyph-name="Idieresis" unicode="&#xcf;" 
d="M157 1349h916v-228h-311v-893h311v-228h-916v228h311v893h-311v228zM713 1445v219h227v-219h-227zM289 1445v219h224v-219h-224z" />
    <glyph glyph-name="Eth" unicode="&#xd0;" 
d="M1162 685c0 -220 -51.333 -389.167 -154 -507.5s-249 -177.5 -439 -177.5h-421v564h-134v219h134v566h361c218.667 0 382.167 -54.833 490.5 -164.5s162.5 -276.167 162.5 -499.5zM865 685c0 151.333 -28.5 261.833 -85.5 331.5s-148.833 104.5 -275.5 104.5h-61v-338
h207v-219h-207v-336h102c213.333 0 320 152.333 320 457z" />
    <glyph glyph-name="Ntilde" unicode="&#xd1;" 
d="M748 0l-384 1010c18.667 -168 28 -286 28 -354v-656h-257v1349h337l393 -1037c-18.667 156.667 -28 278.334 -28 365.001v672h257v-1349h-346zM781 1422c-29.333 0 -58.833 5.83301 -88.5 17.5s-58.5 24.667 -86.5 39l-79.5 39c-25 11.667 -47.5 17.5 -67.5 17.5
c-30 0 -52.333 -7.83301 -67 -23.5s-25 -45.5 -31 -89.5h-137c8 104 30.5 177.167 67.5 219.5s89.5 63.5 157.5 63.5c30 0 60 -5.83301 90 -17.5s59 -24.667 87 -39l78.5 -39c24.333 -11.667 46.166 -17.5 65.499 -17.5c31.333 0 54.333 8.83301 69 26.5
s24.667 46.5 30 86.5h135c-5.33301 -74 -16.666 -130 -33.999 -168s-41.833 -66.667 -73.5 -86s-70.167 -29 -115.5 -29z" />
    <glyph glyph-name="Ograve" unicode="&#xd2;" 
d="M1157 679c0 -230 -46.667 -404 -140 -522s-227.333 -177 -402 -177s-308.834 59 -402.501 177s-140.5 292 -140.5 522s46.833 402.667 140.5 518s227.834 173 402.501 173s308.667 -57.667 402 -173s140 -288 140 -518zM858 679c0 306 -81.001 459 -243.001 459
c-162.667 0 -244 -153 -244 -459c0 -153.333 20.5 -269.5 61.5 -348.5s101.833 -118.5 182.5 -118.5s141.334 39.5 182.001 118.5s61 195.167 61 348.5zM600.999 1428l-340 231v43h258l252 -243v-31h-170z" />
    <glyph glyph-name="Oacute" unicode="&#xd3;" 
d="M1157 679c0 -230 -46.667 -404 -140 -522s-227.333 -177 -402 -177s-308.834 59 -402.501 177s-140.5 292 -140.5 522s46.833 402.667 140.5 518s227.834 173 402.501 173s308.667 -57.667 402 -173s140 -288 140 -518zM858 679c0 306 -81.001 459 -243.001 459
c-162.667 0 -244 -153 -244 -459c0 -153.333 20.5 -269.5 61.5 -348.5s101.833 -118.5 182.5 -118.5s141.334 39.5 182.001 118.5s61 195.167 61 348.5zM464.999 1428v31l252 243h258v-43l-340 -231h-170z" />
    <glyph glyph-name="Ocircumflex" unicode="&#xd4;" 
d="M1157 679c0 -230 -46.667 -404 -140 -522s-227.333 -177 -402 -177s-308.834 59 -402.501 177s-140.5 292 -140.5 522s46.833 402.667 140.5 518s227.834 173 402.501 173s308.667 -57.667 402 -173s140 -288 140 -518zM858 679c0 306 -81.001 459 -243.001 459
c-162.667 0 -244 -153 -244 -459c0 -153.333 20.5 -269.5 61.5 -348.5s101.833 -118.5 182.5 -118.5s141.334 39.5 182.001 118.5s61 195.167 61 348.5zM982.999 1455v-28h-159l-203 134h-4l-211 -134h-160v28l258 250h229z" />
    <glyph glyph-name="Otilde" unicode="&#xd5;" 
d="M1157 679c0 -230 -46.667 -404 -140 -522s-227.333 -177 -402 -177s-308.834 59 -402.501 177s-140.5 292 -140.5 522s46.833 402.667 140.5 518s227.834 173 402.501 173s308.667 -57.667 402 -173s140 -288 140 -518zM858 679c0 306 -81.001 459 -243.001 459
c-162.667 0 -244 -153 -244 -459c0 -153.333 20.5 -269.5 61.5 -348.5s101.833 -118.5 182.5 -118.5s141.334 39.5 182.001 118.5s61 195.167 61 348.5zM780.999 1422c-29.333 0 -58.833 5.83301 -88.5 17.5s-58.5 24.667 -86.5 39l-79.5 39
c-25 11.667 -47.5 17.5 -67.5 17.5c-30 0 -52.333 -7.83301 -67 -23.5s-25 -45.5 -31 -89.5h-137c8 104 30.5 177.167 67.5 219.5s89.5 63.5 157.5 63.5c30 0 60 -5.83301 90 -17.5s59 -24.667 87 -39l78.5 -39c24.333 -11.667 46.166 -17.5 65.499 -17.5
c31.333 0 54.333 8.83301 69 26.5s24.667 46.5 30 86.5h135c-5.33301 -74 -16.666 -130 -33.999 -168s-41.833 -66.667 -73.5 -86s-70.167 -29 -115.5 -29z" />
    <glyph glyph-name="Odieresis" unicode="&#xd6;" 
d="M1157 679c0 -230 -46.667 -404 -140 -522s-227.333 -177 -402 -177s-308.834 59 -402.501 177s-140.5 292 -140.5 522s46.833 402.667 140.5 518s227.834 173 402.501 173s308.667 -57.667 402 -173s140 -288 140 -518zM858 679c0 306 -81.001 459 -243.001 459
c-162.667 0 -244 -153 -244 -459c0 -153.333 20.5 -269.5 61.5 -348.5s101.833 -118.5 182.5 -118.5s141.334 39.5 182.001 118.5s61 195.167 61 348.5zM715.999 1445v219h227v-219h-227zM291.999 1445v219h224v-219h-224z" />
    <glyph glyph-name="multiply" unicode="&#xd7;" 
d="M102 326l356 358l-352 352l158 156l352 -350l352 352l158 -158l-352 -354l352 -350l-158 -160l-352 354l-356 -358z" />
    <glyph glyph-name="Oslash" unicode="&#xd8;" 
d="M1157 679c0 -230 -46.6689 -404 -140.002 -522s-227.333 -177 -402 -177c-143.333 0 -259.666 39.667 -348.999 119l-106 -142l-114 75l131 176c-70 117.333 -105 274.333 -105 471c0 230 46.833 402.667 140.5 518s227.834 173 402.501 173
c141.333 0 256.333 -38.333 345 -115l106 142l114 -75l-130 -173c71.333 -116 107 -272.667 107 -470zM857.998 679c0 72.667 -4.66797 137 -14.001 193l-408 -546c41.333 -76 101 -114 179 -114c80.667 0 141.334 39.5 182.001 118.5s61 195.167 61 348.5zM370.997 679
c0 -79.333 4.66699 -143.667 14 -193l407 545c-40 71.333 -99 107 -177 107c-162.667 0 -244 -153 -244 -459z" />
    <glyph glyph-name="Ugrave" unicode="&#xd9;" 
d="M599 -20c-164 0 -283.333 44.668 -358 134.001s-112 227.333 -112 414v821h295v-818c0 -116.667 13.5 -199.167 40.5 -247.5s74.5 -72.5 142.5 -72.5c69.333 0 119.666 25.667 150.999 77s47 135.666 47 252.999v808h295v-806c0 -190.667 -41.167 -332.167 -123.5 -424.5
s-208.166 -138.5 -377.499 -138.5zM590 1428l-340 231v43h258l252 -243v-31h-170z" />
    <glyph glyph-name="Uacute" unicode="&#xda;" 
d="M599 -20c-164 0 -283.333 44.668 -358 134.001s-112 227.333 -112 414v821h295v-818c0 -116.667 13.5 -199.167 40.5 -247.5s74.5 -72.5 142.5 -72.5c69.333 0 119.666 25.667 150.999 77s47 135.666 47 252.999v808h295v-806c0 -190.667 -41.167 -332.167 -123.5 -424.5
s-208.166 -138.5 -377.499 -138.5zM453 1428v31l252 243h258v-43l-340 -231h-170z" />
    <glyph glyph-name="Ucircumflex" unicode="&#xdb;" 
d="M599 -20c-164 0 -283.333 44.668 -358 134.001s-112 227.333 -112 414v821h295v-818c0 -116.667 13.5 -199.167 40.5 -247.5s74.5 -72.5 142.5 -72.5c69.333 0 119.666 25.667 150.999 77s47 135.666 47 252.999v808h295v-806c0 -190.667 -41.167 -332.167 -123.5 -424.5
s-208.166 -138.5 -377.499 -138.5zM983 1455v-28h-159l-203 134h-4l-211 -134h-160v28l258 250h229z" />
    <glyph glyph-name="Udieresis" unicode="&#xdc;" 
d="M599 -20c-164 0 -283.333 44.668 -358 134.001s-112 227.333 -112 414v821h295v-818c0 -116.667 13.5 -199.167 40.5 -247.5s74.5 -72.5 142.5 -72.5c69.333 0 119.666 25.667 150.999 77s47 135.666 47 252.999v808h295v-806c0 -190.667 -41.167 -332.167 -123.5 -424.5
s-208.166 -138.5 -377.499 -138.5zM713 1445v219h227v-219h-227zM289 1445v219h224v-219h-224z" />
    <glyph glyph-name="Yacute" unicode="&#xdd;" 
d="M761 556v-556h-294v556l-464 793h309l300 -566l304 566h309zM468 1428v31l252 243h258v-43l-340 -231h-170z" />
    <glyph glyph-name="Thorn" unicode="&#xde;" 
d="M1161 693c0 -84 -20.832 -159.333 -62.499 -226s-101.334 -118.5 -179.001 -155.5s-168.5 -55.5 -272.5 -55.5h-215v-256h-295v1349h295v-235h203c166.667 0 296 -36.833 388 -110.5s138 -177.167 138 -310.5zM864.001 689c0 67.333 -23.167 120.167 -69.5 158.5
s-110.5 57.5 -192.5 57.5h-170v-440h178c76.667 0 138.167 20 184.5 60s69.5 94.667 69.5 164z" />
    <glyph glyph-name="germandbls" unicode="&#xdf;" 
d="M1178 312c0 -108 -33.501 -190.334 -100.501 -247.001s-162.5 -85 -286.5 -85c-97.333 0 -184.666 14.333 -261.999 43v206c33.333 -15.333 72.5 -29 117.5 -41s83.167 -18 114.5 -18c54 0 93.333 11.5 118 34.5s37 53.5 37 91.5c0 34.667 -12.667 66.834 -38 96.501
s-69 64.834 -131 105.501c-112.667 72.667 -169 160 -169 262c0 36 9.16699 69.667 27.5 101s46.5 63.666 84.5 96.999c40.667 36 69.334 67.5 86.001 94.5s25 55.5 25 85.5c0 43.333 -15.5 78 -46.5 104s-75.833 39 -134.5 39c-68.667 0 -121 -21.167 -157 -63.5
s-54 -110.5 -54 -204.5v-1013h-281v1007c0 156 42.5 274.5 127.5 355.5s207.5 121.5 367.5 121.5c137.333 0 245.666 -30 324.999 -90s119 -141.667 119 -245c0 -36 -5.5 -68.167 -16.5 -96.5s-24.833 -53.833 -41.5 -76.5s-34.834 -43 -54.501 -61l-54.5 -49.5
c-16.667 -15 -30.5 -29.333 -41.5 -43s-16.5 -27.167 -16.5 -40.5c0 -16.667 6.83301 -32.5 20.5 -47.5s62.834 -53.833 147.501 -116.5c112 -83.333 168 -185.333 168 -306z" />
    <glyph glyph-name="agrave" unicode="&#xe0;" 
d="M439 -20c-104.667 0 -186.333 28.498 -245 85.498s-88 137.167 -88 240.5c0 112 34.833 197.167 104.5 255.5s173.834 88.5 312.501 90.5l223 4v55c0 68.667 -11.667 120.667 -35 156s-61 53 -113 53c-48.667 0 -84.5 -12.167 -107.5 -36.5
s-37.167 -63.166 -42.5 -116.499l-293 14c36 214 187.667 321 455 321c134.667 0 237.834 -33 309.501 -99s107.5 -163 107.5 -291v-392c0 -60.667 6.83301 -102.5 20.5 -125.5s36.5 -34.5 68.5 -34.5c21.333 0 42 2 62 6v-152l-45 -11
c-13.333 -3.33301 -26.666 -6 -39.999 -8s-27.5 -3.66699 -42.5 -5s-32.5 -2 -52.5 -2c-70.667 0 -122.834 17.333 -156.501 52s-53.834 85.667 -60.501 153h-6c-42 -75.333 -89.833 -129.666 -143.5 -162.999s-117.834 -50 -192.501 -50zM746.001 500.998l-134 -2
c-60 -1.33301 -103.5 -7.5 -130.5 -18.5s-47.5 -28.667 -61.5 -53s-21 -57.5 -21 -99.5c0 -101.333 40 -152 120 -152c64.667 0 118.667 25.5 162 76.5s65 115.5 65 193.5v55zM573.001 1184l-340 231v43h258l252 -243v-31h-170z" />
    <glyph glyph-name="aacute" unicode="&#xe1;" 
d="M439 -20c-104.667 0 -186.333 28.498 -245 85.498s-88 137.167 -88 240.5c0 112 34.833 197.167 104.5 255.5s173.834 88.5 312.501 90.5l223 4v55c0 68.667 -11.667 120.667 -35 156s-61 53 -113 53c-48.667 0 -84.5 -12.167 -107.5 -36.5
s-37.167 -63.166 -42.5 -116.499l-293 14c36 214 187.667 321 455 321c134.667 0 237.834 -33 309.501 -99s107.5 -163 107.5 -291v-392c0 -60.667 6.83301 -102.5 20.5 -125.5s36.5 -34.5 68.5 -34.5c21.333 0 42 2 62 6v-152l-45 -11
c-13.333 -3.33301 -26.666 -6 -39.999 -8s-27.5 -3.66699 -42.5 -5s-32.5 -2 -52.5 -2c-70.667 0 -122.834 17.333 -156.501 52s-53.834 85.667 -60.501 153h-6c-42 -75.333 -89.833 -129.666 -143.5 -162.999s-117.834 -50 -192.501 -50zM746.001 500.998l-134 -2
c-60 -1.33301 -103.5 -7.5 -130.5 -18.5s-47.5 -28.667 -61.5 -53s-21 -57.5 -21 -99.5c0 -101.333 40 -152 120 -152c64.667 0 118.667 25.5 162 76.5s65 115.5 65 193.5v55zM444.001 1184v31l252 243h258v-43l-340 -231h-170z" />
    <glyph glyph-name="acircumflex" unicode="&#xe2;" 
d="M439 -20c-104.667 0 -186.333 28.498 -245 85.498s-88 137.167 -88 240.5c0 112 34.833 197.167 104.5 255.5s173.834 88.5 312.501 90.5l223 4v55c0 68.667 -11.667 120.667 -35 156s-61 53 -113 53c-48.667 0 -84.5 -12.167 -107.5 -36.5
s-37.167 -63.166 -42.5 -116.499l-293 14c36 214 187.667 321 455 321c134.667 0 237.834 -33 309.501 -99s107.5 -163 107.5 -291v-392c0 -60.667 6.83301 -102.5 20.5 -125.5s36.5 -34.5 68.5 -34.5c21.333 0 42 2 62 6v-152l-45 -11
c-13.333 -3.33301 -26.666 -6 -39.999 -8s-27.5 -3.66699 -42.5 -5s-32.5 -2 -52.5 -2c-70.667 0 -122.834 17.333 -156.501 52s-53.834 85.667 -60.501 153h-6c-42 -75.333 -89.833 -129.666 -143.5 -162.999s-117.834 -50 -192.501 -50zM746.001 500.998l-134 -2
c-60 -1.33301 -103.5 -7.5 -130.5 -18.5s-47.5 -28.667 -61.5 -53s-21 -57.5 -21 -99.5c0 -101.333 40 -152 120 -152c64.667 0 118.667 25.5 162 76.5s65 115.5 65 193.5v55zM965.001 1211v-28h-159l-203 134h-4l-211 -134h-160v28l258 250h229z" />
    <glyph glyph-name="atilde" unicode="&#xe3;" 
d="M439 -20c-104.667 0 -186.333 28.498 -245 85.498s-88 137.167 -88 240.5c0 112 34.833 197.167 104.5 255.5s173.834 88.5 312.501 90.5l223 4v55c0 68.667 -11.667 120.667 -35 156s-61 53 -113 53c-48.667 0 -84.5 -12.167 -107.5 -36.5
s-37.167 -63.166 -42.5 -116.499l-293 14c36 214 187.667 321 455 321c134.667 0 237.834 -33 309.501 -99s107.5 -163 107.5 -291v-392c0 -60.667 6.83301 -102.5 20.5 -125.5s36.5 -34.5 68.5 -34.5c21.333 0 42 2 62 6v-152l-45 -11
c-13.333 -3.33301 -26.666 -6 -39.999 -8s-27.5 -3.66699 -42.5 -5s-32.5 -2 -52.5 -2c-70.667 0 -122.834 17.333 -156.501 52s-53.834 85.667 -60.501 153h-6c-42 -75.333 -89.833 -129.666 -143.5 -162.999s-117.834 -50 -192.501 -50zM746.001 500.998l-134 -2
c-60 -1.33301 -103.5 -7.5 -130.5 -18.5s-47.5 -28.667 -61.5 -53s-21 -57.5 -21 -99.5c0 -101.333 40 -152 120 -152c64.667 0 118.667 25.5 162 76.5s65 115.5 65 193.5v55zM773.001 1183c-29.333 0 -58.833 5.83301 -88.5 17.5s-58.5 24.667 -86.5 39l-79.5 39
c-25 11.667 -47.5 17.5 -67.5 17.5c-30 0 -52.333 -7.83301 -67 -23.5s-25 -45.5 -31 -89.5h-137c8 104 30.5 177.167 67.5 219.5s89.5 63.5 157.5 63.5c30 0 60 -5.83301 90 -17.5s59 -24.667 87 -39l78.5 -39c24.333 -11.667 46.166 -17.5 65.499 -17.5
c31.333 0 54.333 8.83301 69 26.5s24.667 46.5 30 86.5h135c-5.33301 -74 -16.666 -130 -33.999 -168s-41.833 -66.667 -73.5 -86s-70.167 -29 -115.5 -29z" />
    <glyph glyph-name="adieresis" unicode="&#xe4;" 
d="M439 -20c-104.667 0 -186.333 28.498 -245 85.498s-88 137.167 -88 240.5c0 112 34.833 197.167 104.5 255.5s173.834 88.5 312.501 90.5l223 4v55c0 68.667 -11.667 120.667 -35 156s-61 53 -113 53c-48.667 0 -84.5 -12.167 -107.5 -36.5
s-37.167 -63.166 -42.5 -116.499l-293 14c36 214 187.667 321 455 321c134.667 0 237.834 -33 309.501 -99s107.5 -163 107.5 -291v-392c0 -60.667 6.83301 -102.5 20.5 -125.5s36.5 -34.5 68.5 -34.5c21.333 0 42 2 62 6v-152l-45 -11
c-13.333 -3.33301 -26.666 -6 -39.999 -8s-27.5 -3.66699 -42.5 -5s-32.5 -2 -52.5 -2c-70.667 0 -122.834 17.333 -156.501 52s-53.834 85.667 -60.501 153h-6c-42 -75.333 -89.833 -129.666 -143.5 -162.999s-117.834 -50 -192.501 -50zM746.001 500.998l-134 -2
c-60 -1.33301 -103.5 -7.5 -130.5 -18.5s-47.5 -28.667 -61.5 -53s-21 -57.5 -21 -99.5c0 -101.333 40 -152 120 -152c64.667 0 118.667 25.5 162 76.5s65 115.5 65 193.5v55zM697.001 1219v219h227v-219h-227zM273.001 1219v219h224v-219h-224z" />
    <glyph glyph-name="aring" unicode="&#xe5;" 
d="M439 -20c-104.667 0 -186.333 28.498 -245 85.498s-88 137.167 -88 240.5c0 112 34.833 197.167 104.5 255.5s173.834 88.5 312.501 90.5l223 4v55c0 68.667 -11.667 120.667 -35 156s-61 53 -113 53c-48.667 0 -84.5 -12.167 -107.5 -36.5
s-37.167 -63.166 -42.5 -116.499l-293 14c36 214 187.667 321 455 321c134.667 0 237.834 -33 309.501 -99s107.5 -163 107.5 -291v-392c0 -60.667 6.83301 -102.5 20.5 -125.5s36.5 -34.5 68.5 -34.5c21.333 0 42 2 62 6v-152l-45 -11
c-13.333 -3.33301 -26.666 -6 -39.999 -8s-27.5 -3.66699 -42.5 -5s-32.5 -2 -52.5 -2c-70.667 0 -122.834 17.333 -156.501 52s-53.834 85.667 -60.501 153h-6c-42 -75.333 -89.833 -129.666 -143.5 -162.999s-117.834 -50 -192.501 -50zM746.001 500.998l-134 -2
c-60 -1.33301 -103.5 -7.5 -130.5 -18.5s-47.5 -28.667 -61.5 -53s-21 -57.5 -21 -99.5c0 -101.333 40 -152 120 -152c64.667 0 118.667 25.5 162 76.5s65 115.5 65 193.5v55zM848.001 1348c0 -58 -21.833 -105.833 -65.5 -143.5s-102.5 -56.5 -176.5 -56.5
c-74.667 0 -133.667 18.833 -177 56.5s-65 85.5 -65 143.5c0 59.333 22.167 107.333 66.5 144s102.833 55 175.5 55c74 0 132.833 -18.5 176.5 -55.5s65.5 -84.833 65.5 -143.5zM709.001 1348c0 21.333 -9.33301 38.5 -28 51.5s-43.667 19.5 -75 19.5
c-30.667 0 -55.667 -6.33301 -75 -19s-29 -30 -29 -52s9.66699 -39.333 29 -52s44.333 -19 75 -19s55.5 6.5 74.5 19.5s28.5 30.167 28.5 51.5z" />
    <glyph glyph-name="ae" unicode="&#xe6;" 
d="M699 484l0.000976562 -1.99902c0 -99.333 14.833 -177.833 44.5 -235.5s69.834 -86.5 120.501 -86.5c40 0 70.667 12.667 92 38s37.333 59.666 48 102.999l178 -45c-24.667 -93.333 -63.834 -162.666 -117.501 -207.999s-119.167 -68 -196.5 -68
c-76.667 0 -137.167 18.333 -181.5 55s-77.833 95.667 -100.5 177c-33.333 -78.667 -76.333 -137 -129 -175s-112.334 -57 -179.001 -57c-82 0 -145.5 28.833 -190.5 86.5s-67.5 136.167 -67.5 235.5c0 114.667 27.333 202.5 82 263.5s137.334 92.5 248.001 94.5l147 4v55
c0 62 -10 111 -30 147s-48.667 54 -86 54c-32.667 0 -57.5 -12.333 -74.5 -37s-28.167 -61.334 -33.5 -110.001l-208 17c26 208 131 312 315 312c117.333 0 199.666 -46.333 246.999 -139c56.667 92.667 138.667 139 246 139c110.667 0 194.167 -47.167 250.5 -141.5
s84.5 -238.833 84.5 -433.5v-43h-509zM229.001 299.001c0 -42.667 6.83301 -76.167 20.5 -100.5s33.167 -36.5 58.5 -36.5c52 0 96.5 28.667 133.5 86s55.5 123 55.5 197v54l-102 -3c-62 -2 -105.167 -18.5 -129.5 -49.5s-36.5 -80.167 -36.5 -147.5zM859.001 924.001
c-26.667 0 -52 -10.834 -76 -32.501s-43.333 -52 -58 -91s-22.667 -85.833 -24 -140.5h301c-5.33301 88.667 -19.5 154.834 -42.5 198.501s-56.5 65.5 -100.5 65.5z" />
    <glyph glyph-name="ccedilla" unicode="&#xe7;" 
d="M624 -20c-164 0 -290.665 48.8301 -379.998 146.497s-134 233.834 -134 408.501c0 178.667 45 317.834 135 417.501s217.667 149.5 383 149.5c127.333 0 232.666 -32 315.999 -96s135.666 -152.333 156.999 -265l-283 -14c-8 55.333 -28 99.5 -60 132.5
s-77.333 49.5 -136 49.5c-144.667 0 -217 -121 -217 -363c0 -249.333 73.667 -374 221 -374c53.333 0 98 16.833 134 50.5s58.333 83.834 67 150.501l282 -13c-10 -74 -36.5 -140 -79.5 -198s-99.5 -102.833 -169.5 -134.5s-148.667 -47.5 -236 -47.5zM830.002 -255.003
c0 -62.667 -26.001 -110 -78.001 -142s-127 -48 -225 -48c-30 0 -63.667 2 -101 6v118c23.333 -4.66699 51.333 -7 84 -7c91.333 0 137 23 137 69c0 23.333 -9.33301 40.666 -28 51.999s-50 17 -94 17c-25.333 0 -42.666 -0.666992 -51.999 -2l69 192h143l-40 -102
c62.667 -3.33301 109.167 -18.666 139.5 -45.999s45.5 -63 45.5 -107z" />
    <glyph glyph-name="egrave" unicode="&#xe8;" 
d="M626 -20c-168 0 -297.668 49.499 -389.001 148.499s-137 238.167 -137 417.5c0 120 21.5 221.333 64.5 304s104.167 145.334 183.5 188.001s173.333 64 282 64c158 0 280.667 -52.667 368 -158s131 -255 131 -449v-8h-734c0 -98 21.833 -175.667 65.5 -233
s103.5 -86 179.5 -86c49.333 0 93 10.5 131 31.5s63.667 53.5 77 97.5l265 -23c-36.667 -94 -97.667 -166.5 -183 -217.5s-186.666 -76.5 -303.999 -76.5zM625.999 924.999c-68.667 0 -123.332 -23.167 -163.999 -69.5s-62.334 -110.5 -65.001 -192.5h460
c-4.66699 80 -27.5 143.667 -68.5 191s-95.167 71 -162.5 71zM608.001 1184l-340 231v43h258l252 -243v-31h-170z" />
    <glyph glyph-name="eacute" unicode="&#xe9;" 
d="M626 -20c-168 0 -297.668 49.499 -389.001 148.499s-137 238.167 -137 417.5c0 120 21.5 221.333 64.5 304s104.167 145.334 183.5 188.001s173.333 64 282 64c158 0 280.667 -52.667 368 -158s131 -255 131 -449v-8h-734c0 -98 21.833 -175.667 65.5 -233
s103.5 -86 179.5 -86c49.333 0 93 10.5 131 31.5s63.667 53.5 77 97.5l265 -23c-36.667 -94 -97.667 -166.5 -183 -217.5s-186.666 -76.5 -303.999 -76.5zM625.999 924.999c-68.667 0 -123.332 -23.167 -163.999 -69.5s-62.334 -110.5 -65.001 -192.5h460
c-4.66699 80 -27.5 143.667 -68.5 191s-95.167 71 -162.5 71zM478.001 1184v31l252 243h258v-43l-340 -231h-170z" />
    <glyph glyph-name="ecircumflex" unicode="&#xea;" 
d="M626 -20c-168 0 -297.668 49.499 -389.001 148.499s-137 238.167 -137 417.5c0 120 21.5 221.333 64.5 304s104.167 145.334 183.5 188.001s173.333 64 282 64c158 0 280.667 -52.667 368 -158s131 -255 131 -449v-8h-734c0 -98 21.833 -175.667 65.5 -233
s103.5 -86 179.5 -86c49.333 0 93 10.5 131 31.5s63.667 53.5 77 97.5l265 -23c-36.667 -94 -97.667 -166.5 -183 -217.5s-186.666 -76.5 -303.999 -76.5zM625.999 924.999c-68.667 0 -123.332 -23.167 -163.999 -69.5s-62.334 -110.5 -65.001 -192.5h460
c-4.66699 80 -27.5 143.667 -68.5 191s-95.167 71 -162.5 71zM990.001 1211v-28h-159l-203 134h-4l-211 -134h-160v28l258 250h229z" />
    <glyph glyph-name="edieresis" unicode="&#xeb;" 
d="M626 -20c-168 0 -297.668 49.499 -389.001 148.499s-137 238.167 -137 417.5c0 120 21.5 221.333 64.5 304s104.167 145.334 183.5 188.001s173.333 64 282 64c158 0 280.667 -52.667 368 -158s131 -255 131 -449v-8h-734c0 -98 21.833 -175.667 65.5 -233
s103.5 -86 179.5 -86c49.333 0 93 10.5 131 31.5s63.667 53.5 77 97.5l265 -23c-36.667 -94 -97.667 -166.5 -183 -217.5s-186.666 -76.5 -303.999 -76.5zM625.999 924.999c-68.667 0 -123.332 -23.167 -163.999 -69.5s-62.334 -110.5 -65.001 -192.5h460
c-4.66699 80 -27.5 143.667 -68.5 191s-95.167 71 -162.5 71zM721.001 1219v219h227v-219h-227zM297.001 1219v219h224v-219h-224z" />
    <glyph glyph-name="igrave" unicode="&#xec;" 
d="M794 190h353v-190h-1029v190h395v702h-290v190h571v-892zM620 1184l-340 231v43h258l252 -243v-31h-170z" />
    <glyph glyph-name="iacute" unicode="&#xed;" 
d="M794 190h353v-190h-1029v190h395v702h-290v190h571v-892zM471 1184v31l252 243h258v-43l-340 -231h-170z" />
    <glyph glyph-name="icircumflex" unicode="&#xee;" 
d="M794 190h353v-190h-1029v190h395v702h-290v190h571v-892zM993 1211v-28h-159l-203 134h-4l-211 -134h-160v28l258 250h229z" />
    <glyph glyph-name="idieresis" unicode="&#xef;" 
d="M794 190h353v-190h-1029v190h395v702h-290v190h571v-892zM754 1219v219h227v-219h-227zM330 1219v219h224v-219h-224z" />
    <glyph glyph-name="eth" unicode="&#xf0;" 
d="M820 1266c210 -213.333 315.001 -454.999 315.001 -724.999v-4c0 -178 -45.333 -315.333 -136 -412s-221.334 -145 -392.001 -145c-164.667 0 -293 44 -385 132s-138 210.333 -138 367c0 158.667 45.833 281.667 137.5 369s221.5 131 389.5 131
c52 0 96.667 -6.66699 134 -20c-38 79.333 -85 151.666 -141 216.999l-235 -102l-77 155l186 79c-58.667 47.333 -144.667 106 -258 176h293c64 -32 117.333 -63.333 160 -94l249 109l83 -154zM841.001 477.001c0 106.667 -17.667 184.832 -53 234.499s-93 74.5 -173 74.5
c-83.333 0 -143.5 -25.167 -180.5 -75.5s-55.5 -128.166 -55.5 -233.499c0 -204.667 74.333 -307 223 -307c84.667 0 145.667 24.667 183 74s56 127 56 233z" />
    <glyph glyph-name="ntilde" unicode="&#xf1;" 
d="M824 0l0.00195312 619c0 94 -12.833 163 -38.5 207s-69.834 66 -132.501 66c-69.333 0 -124.833 -29.5 -166.5 -88.5s-62.5 -133.5 -62.5 -223.5v-580h-281v840c0 58 -0.833008 105.5 -2.5 142.5s-3.5 70.167 -5.5 99.5h268c2 -12.667 4.66699 -46.5 8 -101.5
s5 -92.833 5 -113.5h4c38 82.667 85.667 142.667 143 180s125.666 56 204.999 56c224 0 336 -138.667 336 -416v-687h-280zM791.002 1183c-29.333 0 -58.833 5.83301 -88.5 17.5s-58.5 24.667 -86.5 39l-79.5 39c-25 11.667 -47.5 17.5 -67.5 17.5
c-30 0 -52.333 -7.83301 -67 -23.5s-25 -45.5 -31 -89.5h-137c8 104 30.5 177.167 67.5 219.5s89.5 63.5 157.5 63.5c30 0 60 -5.83301 90 -17.5s59 -24.667 87 -39l78.5 -39c24.333 -11.667 46.166 -17.5 65.499 -17.5c31.333 0 54.333 8.83301 69 26.5
s24.667 46.5 30 86.5h135c-5.33301 -74 -16.666 -130 -33.999 -168s-41.833 -66.667 -73.5 -86s-70.167 -29 -115.5 -29z" />
    <glyph glyph-name="ograve" unicode="&#xf2;" 
d="M1137 542c0 -179.333 -45.333 -317.833 -136 -415.5s-221 -146.5 -391 -146.5c-164 0 -291.333 48.833 -382 146.5s-136 236.167 -136 415.5c0 178.667 45 316.667 135 414s219.667 146 389 146c347.333 0 521 -186.667 521 -560zM843 542c0 128 -17 221.167 -51 279.5
s-91.333 87.5 -172 87.5c-82.667 0 -142.167 -29.333 -178.5 -88s-54.5 -151.667 -54.5 -279c0 -128.667 18.5 -222.5 55.5 -281.5s91.833 -88.5 164.5 -88.5c82.667 0 142.667 29.167 180 87.5s56 152.5 56 282.5zM617 1184l-340 231v43h258l252 -243v-31h-170z" />
    <glyph glyph-name="oacute" unicode="&#xf3;" 
d="M1137 542c0 -179.333 -45.333 -317.833 -136 -415.5s-221 -146.5 -391 -146.5c-164 0 -291.333 48.833 -382 146.5s-136 236.167 -136 415.5c0 178.667 45 316.667 135 414s219.667 146 389 146c347.333 0 521 -186.667 521 -560zM843 542c0 128 -17 221.167 -51 279.5
s-91.333 87.5 -172 87.5c-82.667 0 -142.167 -29.333 -178.5 -88s-54.5 -151.667 -54.5 -279c0 -128.667 18.5 -222.5 55.5 -281.5s91.833 -88.5 164.5 -88.5c82.667 0 142.667 29.167 180 87.5s56 152.5 56 282.5zM468 1184v31l252 243h258v-43l-340 -231h-170z" />
    <glyph glyph-name="ocircumflex" unicode="&#xf4;" 
d="M1137 542c0 -179.333 -45.333 -317.833 -136 -415.5s-221 -146.5 -391 -146.5c-164 0 -291.333 48.833 -382 146.5s-136 236.167 -136 415.5c0 178.667 45 316.667 135 414s219.667 146 389 146c347.333 0 521 -186.667 521 -560zM843 542c0 128 -17 221.167 -51 279.5
s-91.333 87.5 -172 87.5c-82.667 0 -142.167 -29.333 -178.5 -88s-54.5 -151.667 -54.5 -279c0 -128.667 18.5 -222.5 55.5 -281.5s91.833 -88.5 164.5 -88.5c82.667 0 142.667 29.167 180 87.5s56 152.5 56 282.5zM983 1211v-28h-159l-203 134h-4l-211 -134h-160v28
l258 250h229z" />
    <glyph glyph-name="otilde" unicode="&#xf5;" 
d="M1137 542c0 -179.333 -45.333 -317.833 -136 -415.5s-221 -146.5 -391 -146.5c-164 0 -291.333 48.833 -382 146.5s-136 236.167 -136 415.5c0 178.667 45 316.667 135 414s219.667 146 389 146c347.333 0 521 -186.667 521 -560zM843 542c0 128 -17 221.167 -51 279.5
s-91.333 87.5 -172 87.5c-82.667 0 -142.167 -29.333 -178.5 -88s-54.5 -151.667 -54.5 -279c0 -128.667 18.5 -222.5 55.5 -281.5s91.833 -88.5 164.5 -88.5c82.667 0 142.667 29.167 180 87.5s56 152.5 56 282.5zM781 1183c-29.333 0 -58.833 5.83301 -88.5 17.5
s-58.5 24.667 -86.5 39l-79.5 39c-25 11.667 -47.5 17.5 -67.5 17.5c-30 0 -52.333 -7.83301 -67 -23.5s-25 -45.5 -31 -89.5h-137c8 104 30.5 177.167 67.5 219.5s89.5 63.5 157.5 63.5c30 0 60 -5.83301 90 -17.5s59 -24.667 87 -39l78.5 -39
c24.333 -11.667 46.166 -17.5 65.499 -17.5c31.333 0 54.333 8.83301 69 26.5s24.667 46.5 30 86.5h135c-5.33301 -74 -16.666 -130 -33.999 -168s-41.833 -66.667 -73.5 -86s-70.167 -29 -115.5 -29z" />
    <glyph glyph-name="odieresis" unicode="&#xf6;" 
d="M1137 542c0 -179.333 -45.333 -317.833 -136 -415.5s-221 -146.5 -391 -146.5c-164 0 -291.333 48.833 -382 146.5s-136 236.167 -136 415.5c0 178.667 45 316.667 135 414s219.667 146 389 146c347.333 0 521 -186.667 521 -560zM843 542c0 128 -17 221.167 -51 279.5
s-91.333 87.5 -172 87.5c-82.667 0 -142.167 -29.333 -178.5 -88s-54.5 -151.667 -54.5 -279c0 -128.667 18.5 -222.5 55.5 -281.5s91.833 -88.5 164.5 -88.5c82.667 0 142.667 29.167 180 87.5s56 152.5 56 282.5zM713 1219v219h227v-219h-227zM289 1219v219h224v-219h-224
z" />
    <glyph glyph-name="divide" unicode="&#xf7;" 
d="M494 961v233h238v-233h-238zM101 569v224h1027v-224h-1027zM494 170v233h238v-233h-238z" />
    <glyph glyph-name="oslash" unicode="&#xf8;" 
d="M1137 542c0 -179.333 -45.335 -317.833 -136.002 -415.5s-221 -146.5 -391 -146.5c-133.333 0 -242.666 32.333 -327.999 97l-85 -97l-96 78l95 107c-69.333 95.333 -104 221 -104 377c0 178.667 45 316.667 135 414s219.667 146 389 146
c136.667 0 246.334 -29 329.001 -87l79 89l98 -78l-87 -98c68 -93.333 102 -222 102 -386zM842.998 542c0 55.333 -3.66797 107.333 -11.001 156l-389 -439c36.667 -58 91.334 -87 164.001 -87c82.667 0 142.667 29.167 180 87.5s56 152.5 56 282.5zM386.997 542
c0 -56 3.33301 -105.333 10 -148l387 438c-35.333 51.333 -90 77 -164 77c-82.667 0 -142.167 -29.333 -178.5 -88s-54.5 -151.667 -54.5 -279z" />
    <glyph glyph-name="ugrave" unicode="&#xf9;" 
d="M416 1082l-0.00195312 -607c0 -92 14.833 -162.5 44.5 -211.5s72.167 -73.5 127.5 -73.5c60 0 109.5 29.5 148.5 88.5s58.5 133.5 58.5 223.5v580h281v-840c0 -92 2.66699 -172.667 8 -242h-268c-8 96 -12 167.667 -12 215h-5
c-71.333 -156.667 -180.666 -235 -327.999 -235c-109.333 0 -192.666 34.833 -249.999 104.5s-86 173.167 -86 310.5v687h281zM592.998 1184l-340 231v43h258l252 -243v-31h-170z" />
    <glyph glyph-name="uacute" unicode="&#xfa;" 
d="M416 1082l-0.00195312 -607c0 -92 14.833 -162.5 44.5 -211.5s72.167 -73.5 127.5 -73.5c60 0 109.5 29.5 148.5 88.5s58.5 133.5 58.5 223.5v580h281v-840c0 -92 2.66699 -172.667 8 -242h-268c-8 96 -12 167.667 -12 215h-5
c-71.333 -156.667 -180.666 -235 -327.999 -235c-109.333 0 -192.666 34.833 -249.999 104.5s-86 173.167 -86 310.5v687h281zM456.998 1184v31l252 243h258v-43l-340 -231h-170z" />
    <glyph glyph-name="ucircumflex" unicode="&#xfb;" 
d="M416 1082l-0.00195312 -607c0 -92 14.833 -162.5 44.5 -211.5s72.167 -73.5 127.5 -73.5c60 0 109.5 29.5 148.5 88.5s58.5 133.5 58.5 223.5v580h281v-840c0 -92 2.66699 -172.667 8 -242h-268c-8 96 -12 167.667 -12 215h-5
c-71.333 -156.667 -180.666 -235 -327.999 -235c-109.333 0 -192.666 34.833 -249.999 104.5s-86 173.167 -86 310.5v687h281zM982.998 1211v-28h-159l-203 134h-4l-211 -134h-160v28l258 250h229z" />
    <glyph glyph-name="udieresis" unicode="&#xfc;" 
d="M416 1082l-0.00195312 -607c0 -92 14.833 -162.5 44.5 -211.5s72.167 -73.5 127.5 -73.5c60 0 109.5 29.5 148.5 88.5s58.5 133.5 58.5 223.5v580h281v-840c0 -92 2.66699 -172.667 8 -242h-268c-8 96 -12 167.667 -12 215h-5
c-71.333 -156.667 -180.666 -235 -327.999 -235c-109.333 0 -192.666 34.833 -249.999 104.5s-86 173.167 -86 310.5v687h281zM712.998 1219v219h227v-219h-227zM288.998 1219v219h224v-219h-224z" />
    <glyph glyph-name="yacute" unicode="&#xfd;" 
d="M325 -425c-70.667 0 -131.335 4.33301 -182.002 13v200l51 -5l51 -3c40 0 73.167 6.33301 99.5 19s50 33.667 71 63s44.5 79 70.5 149l-448 1071h297l190 -527c26.667 -72.667 60.334 -184 101.001 -334l9 37l81 293l180 531h294l-448 -1139
c-53.333 -137.333 -111.666 -233 -174.999 -287s-144 -81 -242 -81zM473.999 1184v31l252 243h258v-43l-340 -231h-170z" />
    <glyph glyph-name="thorn" unicode="&#xfe;" 
d="M143 1484l281 -0.000976562v-412l-4 -168h4c74 132.667 181 199 321 199c119.333 0 212.833 -49 280.5 -147s101.5 -235 101.5 -411c0 -177.333 -35.167 -315.833 -105.5 -415.5s-168.5 -149.5 -294.5 -149.5c-66 0 -125.5 16.833 -178.5 50.5
s-94.5 80.834 -124.5 141.501h-6c4 -20 6 -80.667 6 -182v-415h-281v1909zM844 544.999c0 242 -69.335 363 -208.002 363c-67.333 0 -120.166 -32.5 -158.499 -97.5s-57.5 -156.167 -57.5 -273.5c0 -116.667 19.167 -206.667 57.5 -270s90.5 -95 156.5 -95
c72.667 0 125.834 31.5 159.501 94.5s50.5 155.833 50.5 278.5z" />
    <glyph glyph-name="ydieresis" unicode="&#xff;" 
d="M325 -425c-70.667 0 -131.335 4.33301 -182.002 13v200l51 -5l51 -3c40 0 73.167 6.33301 99.5 19s50 33.667 71 63s44.5 79 70.5 149l-448 1071h297l190 -527c26.667 -72.667 60.334 -184 101.001 -334l9 37l81 293l180 531h294l-448 -1139
c-53.333 -137.333 -111.666 -233 -174.999 -287s-144 -81 -242 -81zM717.999 1219v219h227v-219h-227zM293.999 1219v219h224v-219h-224z" />
    <glyph glyph-name="Amacron" unicode="&#x100;" 
d="M1229 0h-294l-92 330h-456l-92 -330h-295l443 1349h344zM615 1167c-5.33301 -28 -15.167 -69.832 -29.5 -125.499s-59.833 -218.834 -136.5 -489.501h332c-78 274.667 -123.833 439 -137.5 493s-23.167 94.667 -28.5 122zM309.999 1638h612v-168h-612v168z" />
    <glyph glyph-name="amacron" unicode="&#x101;" 
d="M439 -20c-104.667 0 -186.333 28.498 -245 85.498s-88 137.167 -88 240.5c0 112 34.833 197.167 104.5 255.5s173.834 88.5 312.501 90.5l223 4v55c0 68.667 -11.667 120.667 -35 156s-61 53 -113 53c-48.667 0 -84.5 -12.167 -107.5 -36.5
s-37.167 -63.166 -42.5 -116.499l-293 14c36 214 187.667 321 455 321c134.667 0 237.834 -33 309.501 -99s107.5 -163 107.5 -291v-392c0 -60.667 6.83301 -102.5 20.5 -125.5s36.5 -34.5 68.5 -34.5c21.333 0 42 2 62 6v-152l-45 -11
c-13.333 -3.33301 -26.666 -6 -39.999 -8s-27.5 -3.66699 -42.5 -5s-32.5 -2 -52.5 -2c-70.667 0 -122.834 17.333 -156.501 52s-53.834 85.667 -60.501 153h-6c-42 -75.333 -89.833 -129.666 -143.5 -162.999s-117.834 -50 -192.501 -50zM746.001 500.998l-134 -2
c-60 -1.33301 -103.5 -7.5 -130.5 -18.5s-47.5 -28.667 -61.5 -53s-21 -57.5 -21 -99.5c0 -101.333 40 -152 120 -152c64.667 0 118.667 25.5 162 76.5s65 115.5 65 193.5v55zM301.001 1371h612v-168h-612v168z" />
    <glyph glyph-name="Abreve" unicode="&#x102;" 
d="M1229 0h-294l-92 330h-456l-92 -330h-295l443 1349h344zM615 1167c-5.33301 -28 -15.167 -69.832 -29.5 -125.499s-59.833 -218.834 -136.5 -489.501h332c-78 274.667 -123.833 439 -137.5 493s-23.167 94.667 -28.5 122zM611.999 1427
c-107.333 0 -190.998 24.167 -250.998 72.5s-93.667 116.833 -101 205.5h163c10 -80.667 73.667 -121 191 -121c58.667 0 102.667 9.66699 132 29s48.666 50 57.999 92h164c-22.667 -185.333 -141.334 -278 -356.001 -278z" />
    <glyph glyph-name="abreve" unicode="&#x103;" 
d="M439 -20c-104.667 0 -186.333 28.498 -245 85.498s-88 137.167 -88 240.5c0 112 34.833 197.167 104.5 255.5s173.834 88.5 312.501 90.5l223 4v55c0 68.667 -11.667 120.667 -35 156s-61 53 -113 53c-48.667 0 -84.5 -12.167 -107.5 -36.5
s-37.167 -63.166 -42.5 -116.499l-293 14c36 214 187.667 321 455 321c134.667 0 237.834 -33 309.501 -99s107.5 -163 107.5 -291v-392c0 -60.667 6.83301 -102.5 20.5 -125.5s36.5 -34.5 68.5 -34.5c21.333 0 42 2 62 6v-152l-45 -11
c-13.333 -3.33301 -26.666 -6 -39.999 -8s-27.5 -3.66699 -42.5 -5s-32.5 -2 -52.5 -2c-70.667 0 -122.834 17.333 -156.501 52s-53.834 85.667 -60.501 153h-6c-42 -75.333 -89.833 -129.666 -143.5 -162.999s-117.834 -50 -192.501 -50zM746.001 500.998l-134 -2
c-60 -1.33301 -103.5 -7.5 -130.5 -18.5s-47.5 -28.667 -61.5 -53s-21 -57.5 -21 -99.5c0 -101.333 40 -152 120 -152c64.667 0 118.667 25.5 162 76.5s65 115.5 65 193.5v55zM593.001 1183c-107.333 0 -190.998 24.167 -250.998 72.5s-93.667 116.833 -101 205.5h163
c10 -80.667 73.667 -121 191 -121c58.667 0 102.667 9.66699 132 29s48.666 50 57.999 92h164c-22.667 -185.333 -141.334 -278 -356.001 -278z" />
    <glyph glyph-name="Aogonek" unicode="&#x104;" 
d="M1229 0h-294l-92 330h-456l-92 -330h-295l443 1349h344zM615 1167c-5.33301 -28 -15.167 -69.832 -29.5 -125.499s-59.833 -218.834 -136.5 -489.501h332c-78 274.667 -123.833 439 -137.5 493s-23.167 94.667 -28.5 122zM1077 -413.999c-74 0 -132 17.998 -174 53.998
s-63 84.667 -63 146c0 50 14.5 97.333 43.5 142s67.167 79.334 114.5 104.001h153c-42 -28 -74 -61.167 -96 -99.5s-33 -75.166 -33 -110.499c0 -28 8.16699 -50.5 24.5 -67.5s39.5 -25.5 69.5 -25.5c36 0 73.333 9 112 27v-137c-42 -22 -92.333 -33 -151 -33z" />
    <glyph glyph-name="aogonek" unicode="&#x105;" 
d="M439 -20c-104.667 0 -186.333 28.498 -245 85.498s-88 137.167 -88 240.5c0 112 34.833 197.167 104.5 255.5s173.834 88.5 312.501 90.5l223 4v55c0 68.667 -11.667 120.667 -35 156s-61 53 -113 53c-48.667 0 -84.5 -12.167 -107.5 -36.5
s-37.167 -63.166 -42.5 -116.499l-293 14c36 214 187.667 321 455 321c134.667 0 237.834 -33 309.501 -99s107.5 -163 107.5 -291v-392c0 -60.667 6.83301 -102.5 20.5 -125.5s36.5 -34.5 68.5 -34.5c21.333 0 42 2 62 6v-152l-45 -11
c-13.333 -3.33301 -26.666 -6 -39.999 -8s-27.5 -3.66699 -42.5 -5s-32.5 -2 -52.5 -2c-70.667 0 -122.834 17.333 -156.501 52s-53.834 85.667 -60.501 153h-6c-42 -75.333 -89.833 -129.666 -143.5 -162.999s-117.834 -50 -192.501 -50zM746.001 500.998l-134 -2
c-60 -1.33301 -103.5 -7.5 -130.5 -18.5s-47.5 -28.667 -61.5 -53s-21 -57.5 -21 -99.5c0 -101.333 40 -152 120 -152c64.667 0 118.667 25.5 162 76.5s65 115.5 65 193.5v55zM1020 -425.002c-74 0 -132 17.998 -174 53.998s-63 84.667 -63 146c0 50 14.5 97.333 43.5 142
s67.167 79.334 114.5 104.001h153c-42 -28 -74 -61.167 -96 -99.5s-33 -75.166 -33 -110.499c0 -28 8.16699 -50.5 24.5 -67.5s39.5 -25.5 69.5 -25.5c36 0 73.333 9 112 27v-137c-42 -22 -92.333 -33 -151 -33z" />
    <glyph glyph-name="Cacute" unicode="&#x106;" 
d="M380 681c0 -150 23.3311 -265.667 69.998 -347s116.334 -122 209.001 -122c108 0 188 81.333 240 244l273 -52c-88.667 -282.667 -260.667 -424 -516 -424c-187.333 0 -330.166 59.5 -428.499 178.5s-147.5 293.167 -147.5 522.5c0 459.333 189.333 689 568 689
c124 0 227.833 -32.667 311.5 -98s145.167 -162.333 184.5 -291l-272 -66c-19.333 70.667 -48.333 125.5 -87 164.5s-83 58.5 -133 58.5c-181.333 0 -272 -152.333 -272 -457zM498.998 1428v31l252 243h258v-43l-340 -231h-170z" />
    <glyph glyph-name="cacute" unicode="&#x107;" 
d="M624 -20c-164 0 -290.665 48.8301 -379.998 146.497s-134 233.834 -134 408.501c0 178.667 45 317.834 135 417.501s217.667 149.5 383 149.5c127.333 0 232.666 -32 315.999 -96s135.666 -152.333 156.999 -265l-283 -14c-8 55.333 -28 99.5 -60 132.5
s-77.333 49.5 -136 49.5c-144.667 0 -217 -121 -217 -363c0 -249.333 73.667 -374 221 -374c53.333 0 98 16.833 134 50.5s58.333 83.834 67 150.501l282 -13c-10 -74 -36.5 -140 -79.5 -198s-99.5 -102.833 -169.5 -134.5s-148.667 -47.5 -236 -47.5zM469.002 1184v31
l252 243h258v-43l-340 -231h-170z" />
    <glyph glyph-name="Ccircumflex" unicode="&#x108;" 
d="M380 681c0 -150 23.3311 -265.667 69.998 -347s116.334 -122 209.001 -122c108 0 188 81.333 240 244l273 -52c-88.667 -282.667 -260.667 -424 -516 -424c-187.333 0 -330.166 59.5 -428.499 178.5s-147.5 293.167 -147.5 522.5c0 459.333 189.333 689 568 689
c124 0 227.833 -32.667 311.5 -98s145.167 -162.333 184.5 -291l-272 -66c-19.333 70.667 -48.333 125.5 -87 164.5s-83 58.5 -133 58.5c-181.333 0 -272 -152.333 -272 -457zM1003 1455v-28h-159l-203 134h-4l-211 -134h-160v28l258 250h229z" />
    <glyph glyph-name="ccircumflex" unicode="&#x109;" 
d="M624 -20c-164 0 -290.665 48.8301 -379.998 146.497s-134 233.834 -134 408.501c0 178.667 45 317.834 135 417.501s217.667 149.5 383 149.5c127.333 0 232.666 -32 315.999 -96s135.666 -152.333 156.999 -265l-283 -14c-8 55.333 -28 99.5 -60 132.5
s-77.333 49.5 -136 49.5c-144.667 0 -217 -121 -217 -363c0 -249.333 73.667 -374 221 -374c53.333 0 98 16.833 134 50.5s58.333 83.834 67 150.501l282 -13c-10 -74 -36.5 -140 -79.5 -198s-99.5 -102.833 -169.5 -134.5s-148.667 -47.5 -236 -47.5zM983.002 1211v-28
h-159l-203 134h-4l-211 -134h-160v28l258 250h229z" />
    <glyph glyph-name="Cdotaccent" unicode="&#x10a;" 
d="M380 681c0 -150 23.3311 -265.667 69.998 -347s116.334 -122 209.001 -122c108 0 188 81.333 240 244l273 -52c-88.667 -282.667 -260.667 -424 -516 -424c-187.333 0 -330.166 59.5 -428.499 178.5s-147.5 293.167 -147.5 522.5c0 459.333 189.333 689 568 689
c124 0 227.833 -32.667 311.5 -98s145.167 -162.333 184.5 -291l-272 -66c-19.333 70.667 -48.333 125.5 -87 164.5s-83 58.5 -133 58.5c-181.333 0 -272 -152.333 -272 -457zM503.998 1421v207h281v-207h-281z" />
    <glyph glyph-name="cdotaccent" unicode="&#x10b;" 
d="M624 -20c-164 0 -290.665 48.8301 -379.998 146.497s-134 233.834 -134 408.501c0 178.667 45 317.834 135 417.501s217.667 149.5 383 149.5c127.333 0 232.666 -32 315.999 -96s135.666 -152.333 156.999 -265l-283 -14c-8 55.333 -28 99.5 -60 132.5
s-77.333 49.5 -136 49.5c-144.667 0 -217 -121 -217 -363c0 -249.333 73.667 -374 221 -374c53.333 0 98 16.833 134 50.5s58.333 83.834 67 150.501l282 -13c-10 -74 -36.5 -140 -79.5 -198s-99.5 -102.833 -169.5 -134.5s-148.667 -47.5 -236 -47.5zM494.002 1267v207h281
v-207h-281z" />
    <glyph glyph-name="Ccaron" unicode="&#x10c;" 
d="M380 681c0 -150 23.3311 -265.667 69.998 -347s116.334 -122 209.001 -122c108 0 188 81.333 240 244l273 -52c-88.667 -282.667 -260.667 -424 -516 -424c-187.333 0 -330.166 59.5 -428.499 178.5s-147.5 293.167 -147.5 522.5c0 459.333 189.333 689 568 689
c124 0 227.833 -32.667 311.5 -98s145.167 -162.333 184.5 -291l-272 -66c-19.333 70.667 -48.333 125.5 -87 164.5s-83 58.5 -133 58.5c-181.333 0 -272 -152.333 -272 -457zM749.998 1427h-229l-258 249v29h160l211 -134h4l203 134h159v-29z" />
    <glyph glyph-name="ccaron" unicode="&#x10d;" 
d="M624 -20c-164 0 -290.665 48.8301 -379.998 146.497s-134 233.834 -134 408.501c0 178.667 45 317.834 135 417.501s217.667 149.5 383 149.5c127.333 0 232.666 -32 315.999 -96s135.666 -152.333 156.999 -265l-283 -14c-8 55.333 -28 99.5 -60 132.5
s-77.333 49.5 -136 49.5c-144.667 0 -217 -121 -217 -363c0 -249.333 73.667 -374 221 -374c53.333 0 98 16.833 134 50.5s58.333 83.834 67 150.501l282 -13c-10 -74 -36.5 -140 -79.5 -198s-99.5 -102.833 -169.5 -134.5s-148.667 -47.5 -236 -47.5zM729.002 1183h-229
l-258 249v29h160l211 -134h4l203 134h159v-29z" />
    <glyph glyph-name="Dcaron" unicode="&#x10e;" 
d="M1149 685c0 -220 -51.333 -389.167 -154 -507.5s-249 -177.5 -439 -177.5h-421v1349h361c218.667 0 382.167 -54.833 490.5 -164.5s162.5 -276.167 162.5 -499.5zM852 685c0 151.333 -28.5 261.833 -85.5 331.5s-148.833 104.5 -275.5 104.5h-61v-893h102
c213.333 0 320 152.333 320 457zM704 1427h-229l-258 249v29h160l211 -134h4l203 134h159v-29z" />
    <glyph glyph-name="dcaron" unicode="&#x10f;" 
d="M640 0c-2.66699 10 -5.83203 35.167 -9.49902 75.5s-5.5 73.833 -5.5 100.5h-4c-35.333 -71.333 -74.5 -121.833 -117.5 -151.5s-92.5 -44.5 -148.5 -44.5c-98.667 0 -177.834 51.333 -237.501 154s-89.5 237.667 -89.5 405c0 172.667 30.167 309.334 90.5 410.001
s142.833 151 247.5 151c114 0 199.667 -63.667 257 -191h2l-2 178v397h271v-1248c0 -66.667 2.66699 -145.334 8 -236.001h-262zM627.002 546c0 78.667 -7 144.833 -21 198.5s-33.167 94.5 -57.5 122.5s-51.833 42 -82.5 42c-48 0 -85.5 -32.333 -112.5 -97
s-40.5 -155.667 -40.5 -273c0 -112.667 13.333 -202 40 -268s63.667 -99 111 -99c30 0 57.5 15.333 82.5 46s44.667 73.5 59 128.5s21.5 121.5 21.5 199.5zM971.002 1129v33l29 322h231v-37l-121 -318h-139z" />
    <glyph glyph-name="Dcroat" unicode="&#x110;" 
d="M1162 685c0 -220 -51.333 -389.167 -154 -507.5s-249 -177.5 -439 -177.5h-421v564h-134v219h134v566h361c218.667 0 382.167 -54.833 490.5 -164.5s162.5 -276.167 162.5 -499.5zM865 685c0 151.333 -28.5 261.833 -85.5 331.5s-148.833 104.5 -275.5 104.5h-61v-338
h207v-219h-207v-336h102c213.333 0 320 152.333 320 457z" />
    <glyph glyph-name="dcroat" unicode="&#x111;" 
d="M1209 1180l-132.998 0.00195312v-944c0 -66.667 2.66699 -145.334 8 -236.001h-272c-2.66699 10 -5.83398 35.167 -9.50098 75.5s-5.5 73.833 -5.5 100.5h-4c-35.333 -71.333 -79 -121.833 -131 -151.5s-113.667 -44.5 -185 -44.5c-120.667 0 -215 48.167 -283 144.5
s-102 229.166 -102 398.499c0 174.667 34.167 309.167 102.5 403.5s166.166 141.5 293.499 141.5c71.333 0 133.333 -16.167 186 -48.5s93 -79.833 121 -142.5h2l-2 210v93h-282v169h282v135h281v-135h133v-169zM799.002 530.002c0 112 -17.832 197.832 -53.499 257.499
s-88.167 89.5 -157.5 89.5c-68.667 0 -119.667 -29.167 -153 -87.5s-50 -147.166 -50 -266.499c0 -234 67 -351 201 -351c67.333 0 119.666 31 156.999 93s56 150.333 56 265z" />
    <glyph glyph-name="Emacron" unicode="&#x112;" 
d="M137 0v1349h968v-228h-673v-324h612v-228h-612v-341h714v-228h-1009zM326 1638h612v-168h-612v168z" />
    <glyph glyph-name="emacron" unicode="&#x113;" 
d="M626 -20c-168 0 -297.668 49.499 -389.001 148.499s-137 238.167 -137 417.5c0 120 21.5 221.333 64.5 304s104.167 145.334 183.5 188.001s173.333 64 282 64c158 0 280.667 -52.667 368 -158s131 -255 131 -449v-8h-734c0 -98 21.833 -175.667 65.5 -233
s103.5 -86 179.5 -86c49.333 0 93 10.5 131 31.5s63.667 53.5 77 97.5l265 -23c-36.667 -94 -97.667 -166.5 -183 -217.5s-186.666 -76.5 -303.999 -76.5zM625.999 924.999c-68.667 0 -123.332 -23.167 -163.999 -69.5s-62.334 -110.5 -65.001 -192.5h460
c-4.66699 80 -27.5 143.667 -68.5 191s-95.167 71 -162.5 71zM310.001 1371h612v-168h-612v168z" />
    <glyph glyph-name="Ebreve" unicode="&#x114;" 
d="M137 0v1349h968v-228h-673v-324h612v-228h-612v-341h714v-228h-1009zM612 1427c-107.333 0 -190.998 24.167 -250.998 72.5s-93.667 116.833 -101 205.5h163c10 -80.667 73.667 -121 191 -121c58.667 0 102.667 9.66699 132 29s48.666 50 57.999 92h164
c-22.667 -185.333 -141.334 -278 -356.001 -278z" />
    <glyph glyph-name="ebreve" unicode="&#x115;" 
d="M626 -20c-168 0 -297.668 49.499 -389.001 148.499s-137 238.167 -137 417.5c0 120 21.5 221.333 64.5 304s104.167 145.334 183.5 188.001s173.333 64 282 64c158 0 280.667 -52.667 368 -158s131 -255 131 -449v-8h-734c0 -98 21.833 -175.667 65.5 -233
s103.5 -86 179.5 -86c49.333 0 93 10.5 131 31.5s63.667 53.5 77 97.5l265 -23c-36.667 -94 -97.667 -166.5 -183 -217.5s-186.666 -76.5 -303.999 -76.5zM625.999 924.999c-68.667 0 -123.332 -23.167 -163.999 -69.5s-62.334 -110.5 -65.001 -192.5h460
c-4.66699 80 -27.5 143.667 -68.5 191s-95.167 71 -162.5 71zM616.001 1183c-107.333 0 -190.998 24.167 -250.998 72.5s-93.667 116.833 -101 205.5h163c10 -80.667 73.667 -121 191 -121c58.667 0 102.667 9.66699 132 29s48.666 50 57.999 92h164
c-22.667 -185.333 -141.334 -278 -356.001 -278z" />
    <glyph glyph-name="Edotaccent" unicode="&#x116;" 
d="M137 0v1349h968v-228h-673v-324h612v-228h-612v-341h714v-228h-1009zM474 1421v207h281v-207h-281z" />
    <glyph glyph-name="edotaccent" unicode="&#x117;" 
d="M626 -20c-168 0 -297.668 49.499 -389.001 148.499s-137 238.167 -137 417.5c0 120 21.5 221.333 64.5 304s104.167 145.334 183.5 188.001s173.333 64 282 64c158 0 280.667 -52.667 368 -158s131 -255 131 -449v-8h-734c0 -98 21.833 -175.667 65.5 -233
s103.5 -86 179.5 -86c49.333 0 93 10.5 131 31.5s63.667 53.5 77 97.5l265 -23c-36.667 -94 -97.667 -166.5 -183 -217.5s-186.666 -76.5 -303.999 -76.5zM625.999 924.999c-68.667 0 -123.332 -23.167 -163.999 -69.5s-62.334 -110.5 -65.001 -192.5h460
c-4.66699 80 -27.5 143.667 -68.5 191s-95.167 71 -162.5 71zM476.001 1273v207h281v-207h-281z" />
    <glyph glyph-name="Eogonek" unicode="&#x118;" 
d="M137 0v1349h968v-228h-673v-324h612v-228h-612v-341h714v-228h-1009zM988 -425c-74 0 -132 17.998 -174 53.998s-63 84.667 -63 146c0 50 14.5 97.333 43.5 142s67.167 79.334 114.5 104.001h153c-42 -28 -74 -61.167 -96 -99.5s-33 -75.166 -33 -110.499
c0 -28 8.16699 -50.5 24.5 -67.5s39.5 -25.5 69.5 -25.5c36 0 73.333 9 112 27v-137c-42 -22 -92.333 -33 -151 -33z" />
    <glyph glyph-name="eogonek" unicode="&#x119;" 
d="M626 -20c-168 0 -297.668 49.499 -389.001 148.499s-137 238.167 -137 417.5c0 120 21.5 221.333 64.5 304s104.167 145.334 183.5 188.001s173.333 64 282 64c158 0 280.667 -52.667 368 -158s131 -255 131 -449v-8h-734c0 -98 21.833 -175.667 65.5 -233
s103.5 -86 179.5 -86c49.333 0 93 10.5 131 31.5s63.667 53.5 77 97.5l265 -23c-36.667 -94 -97.667 -166.5 -183 -217.5s-186.666 -76.5 -303.999 -76.5zM625.999 924.999c-68.667 0 -123.332 -23.167 -163.999 -69.5s-62.334 -110.5 -65.001 -192.5h460
c-4.66699 80 -27.5 143.667 -68.5 191s-95.167 71 -162.5 71zM719.001 -425.001c-74 0 -132 17.998 -174 53.998s-63 84.667 -63 146c0 50 14.5 97.333 43.5 142s67.167 79.334 114.5 104.001h153c-42 -28 -74 -61.167 -96 -99.5s-33 -75.166 -33 -110.499
c0 -28 8.16699 -50.5 24.5 -67.5s39.5 -25.5 69.5 -25.5c36 0 73.333 9 112 27v-137c-42 -22 -92.333 -33 -151 -33z" />
    <glyph glyph-name="Ecaron" unicode="&#x11a;" 
d="M137 0v1349h968v-228h-673v-324h612v-228h-612v-341h714v-228h-1009zM744 1427h-229l-258 249v29h160l211 -134h4l203 134h159v-29z" />
    <glyph glyph-name="ecaron" unicode="&#x11b;" 
d="M626 -20c-168 0 -297.668 49.499 -389.001 148.499s-137 238.167 -137 417.5c0 120 21.5 221.333 64.5 304s104.167 145.334 183.5 188.001s173.333 64 282 64c158 0 280.667 -52.667 368 -158s131 -255 131 -449v-8h-734c0 -98 21.833 -175.667 65.5 -233
s103.5 -86 179.5 -86c49.333 0 93 10.5 131 31.5s63.667 53.5 77 97.5l265 -23c-36.667 -94 -97.667 -166.5 -183 -217.5s-186.666 -76.5 -303.999 -76.5zM625.999 924.999c-68.667 0 -123.332 -23.167 -163.999 -69.5s-62.334 -110.5 -65.001 -192.5h460
c-4.66699 80 -27.5 143.667 -68.5 191s-95.167 71 -162.5 71zM726.001 1183h-229l-258 249v29h160l211 -134h4l203 134h159v-29z" />
    <glyph glyph-name="Gcircumflex" unicode="&#x11c;" 
d="M1128 185c-162 -136.667 -326.333 -204.999 -493 -204.999c-174 0 -310 61.167 -408 183.5s-147 294.833 -147 517.5c0 459.333 186 689 558 689c120 0 218 -31 294 -93s132 -156 168 -282l-274 -54c-35.333 131.333 -97 197 -185 197c-90 0 -156.167 -36 -198.5 -108
s-63.5 -188.333 -63.5 -349c0 -148.667 22.333 -263.334 67 -344.001s112.667 -121 204 -121c35.333 0 71.833 6.66699 109.5 20s70.5 31.333 98.5 54v235h-274v218h544v-558zM983 1455v-28h-159l-203 134h-4l-211 -134h-160v28l258 250h229z" />
    <glyph glyph-name="gcircumflex" unicode="&#x11d;" 
d="M616 -434c-124 0 -224.999 25.667 -302.999 77s-126 122.666 -144 213.999l281 33c10 -43.333 30.667 -77.666 62 -102.999s68.666 -38 111.999 -38c67.333 0 118.333 24.167 153 72.5s52 120.166 52 215.499v59l2 115h-2c-62 -132.667 -171.333 -199 -328 -199
c-119.333 0 -212 46.5 -278 139.5s-99 225.833 -99 398.5c0 174.667 34.333 309.834 103 405.501s167 143.5 295 143.5c70 0 131.333 -16.167 184 -48.5s93.667 -79.833 123 -142.5h5c0 23.333 1.5 55 4.5 95s6.16699 66.333 9.5 79h266c-4 -72 -6 -155.333 -6 -250v-799
c0 -151.333 -42.5 -267 -127.5 -347s-206.5 -120 -364.5 -120zM831.001 556c0 109.333 -18.667 195 -56 257s-88.333 93 -153 93c-66.667 0 -117.5 -30.167 -152.5 -90.5s-52.5 -148.833 -52.5 -265.5c0 -116 18 -202.167 54 -258.5s85.667 -84.5 149 -84.5
c68 0 120.167 31.333 156.5 94s54.5 147.667 54.5 255zM974.001 1211v-28h-159l-203 134h-4l-211 -134h-160v28l258 250h229z" />
    <glyph glyph-name="Gbreve" unicode="&#x11e;" 
d="M1128 185c-162 -136.667 -326.333 -204.999 -493 -204.999c-174 0 -310 61.167 -408 183.5s-147 294.833 -147 517.5c0 459.333 186 689 558 689c120 0 218 -31 294 -93s132 -156 168 -282l-274 -54c-35.333 131.333 -97 197 -185 197c-90 0 -156.167 -36 -198.5 -108
s-63.5 -188.333 -63.5 -349c0 -148.667 22.333 -263.334 67 -344.001s112.667 -121 204 -121c35.333 0 71.833 6.66699 109.5 20s70.5 31.333 98.5 54v235h-274v218h544v-558zM615 1427c-107.333 0 -190.998 24.167 -250.998 72.5s-93.667 116.833 -101 205.5h163
c10 -80.667 73.667 -121 191 -121c58.667 0 102.667 9.66699 132 29s48.666 50 57.999 92h164c-22.667 -185.333 -141.334 -278 -356.001 -278z" />
    <glyph glyph-name="gbreve" unicode="&#x11f;" 
d="M616 -434c-124 0 -224.999 25.667 -302.999 77s-126 122.666 -144 213.999l281 33c10 -43.333 30.667 -77.666 62 -102.999s68.666 -38 111.999 -38c67.333 0 118.333 24.167 153 72.5s52 120.166 52 215.499v59l2 115h-2c-62 -132.667 -171.333 -199 -328 -199
c-119.333 0 -212 46.5 -278 139.5s-99 225.833 -99 398.5c0 174.667 34.333 309.834 103 405.501s167 143.5 295 143.5c70 0 131.333 -16.167 184 -48.5s93.667 -79.833 123 -142.5h5c0 23.333 1.5 55 4.5 95s6.16699 66.333 9.5 79h266c-4 -72 -6 -155.333 -6 -250v-799
c0 -151.333 -42.5 -267 -127.5 -347s-206.5 -120 -364.5 -120zM831.001 556c0 109.333 -18.667 195 -56 257s-88.333 93 -153 93c-66.667 0 -117.5 -30.167 -152.5 -90.5s-52.5 -148.833 -52.5 -265.5c0 -116 18 -202.167 54 -258.5s85.667 -84.5 149 -84.5
c68 0 120.167 31.333 156.5 94s54.5 147.667 54.5 255zM603.001 1183c-107.333 0 -190.998 24.167 -250.998 72.5s-93.667 116.833 -101 205.5h163c10 -80.667 73.667 -121 191 -121c58.667 0 102.667 9.66699 132 29s48.666 50 57.999 92h164
c-22.667 -185.333 -141.334 -278 -356.001 -278z" />
    <glyph glyph-name="Gdotaccent" unicode="&#x120;" 
d="M1128 185c-162 -136.667 -326.333 -204.999 -493 -204.999c-174 0 -310 61.167 -408 183.5s-147 294.833 -147 517.5c0 459.333 186 689 558 689c120 0 218 -31 294 -93s132 -156 168 -282l-274 -54c-35.333 131.333 -97 197 -185 197c-90 0 -156.167 -36 -198.5 -108
s-63.5 -188.333 -63.5 -349c0 -148.667 22.333 -263.334 67 -344.001s112.667 -121 204 -121c35.333 0 71.833 6.66699 109.5 20s70.5 31.333 98.5 54v235h-274v218h544v-558zM484 1421v207h281v-207h-281z" />
    <glyph glyph-name="gdotaccent" unicode="&#x121;" 
d="M616 -434c-124 0 -224.999 25.667 -302.999 77s-126 122.666 -144 213.999l281 33c10 -43.333 30.667 -77.666 62 -102.999s68.666 -38 111.999 -38c67.333 0 118.333 24.167 153 72.5s52 120.166 52 215.499v59l2 115h-2c-62 -132.667 -171.333 -199 -328 -199
c-119.333 0 -212 46.5 -278 139.5s-99 225.833 -99 398.5c0 174.667 34.333 309.834 103 405.501s167 143.5 295 143.5c70 0 131.333 -16.167 184 -48.5s93.667 -79.833 123 -142.5h5c0 23.333 1.5 55 4.5 95s6.16699 66.333 9.5 79h266c-4 -72 -6 -155.333 -6 -250v-799
c0 -151.333 -42.5 -267 -127.5 -347s-206.5 -120 -364.5 -120zM831.001 556c0 109.333 -18.667 195 -56 257s-88.333 93 -153 93c-66.667 0 -117.5 -30.167 -152.5 -90.5s-52.5 -148.833 -52.5 -265.5c0 -116 18 -202.167 54 -258.5s85.667 -84.5 149 -84.5
c68 0 120.167 31.333 156.5 94s54.5 147.667 54.5 255zM465.001 1267v207h281v-207h-281z" />
    <glyph glyph-name="Gcommaaccent" unicode="&#x122;" 
d="M1128 185c-162 -136.667 -326.333 -204.999 -493 -204.999c-174 0 -310 61.167 -408 183.5s-147 294.833 -147 517.5c0 459.333 186 689 558 689c120 0 218 -31 294 -93s132 -156 168 -282l-274 -54c-35.333 131.333 -97 197 -185 197c-90 0 -156.167 -36 -198.5 -108
s-63.5 -188.333 -63.5 -349c0 -148.667 22.333 -263.334 67 -344.001s112.667 -121 204 -121c35.333 0 71.833 6.66699 109.5 20s70.5 31.333 98.5 54v235h-274v218h544v-558zM435 -452.999v33l89 322h257v-37l-181 -318h-165z" />
    <glyph glyph-name="gcommaaccent" unicode="&#x123;" 
d="M616 -434c-124 0 -224.999 25.667 -302.999 77s-126 122.666 -144 213.999l281 33c10 -43.333 30.667 -77.666 62 -102.999s68.666 -38 111.999 -38c67.333 0 118.333 24.167 153 72.5s52 120.166 52 215.499v59l2 115h-2c-62 -132.667 -171.333 -199 -328 -199
c-119.333 0 -212 46.5 -278 139.5s-99 225.833 -99 398.5c0 174.667 34.333 309.834 103 405.501s167 143.5 295 143.5c70 0 131.333 -16.167 184 -48.5s93.667 -79.833 123 -142.5h5c0 23.333 1.5 55 4.5 95s6.16699 66.333 9.5 79h266c-4 -72 -6 -155.333 -6 -250v-799
c0 -151.333 -42.5 -267 -127.5 -347s-206.5 -120 -364.5 -120zM831.001 556c0 109.333 -18.667 195 -56 257s-88.333 93 -153 93c-66.667 0 -117.5 -30.167 -152.5 -90.5s-52.5 -148.833 -52.5 -265.5c0 -116 18 -202.167 54 -258.5s85.667 -84.5 149 -84.5
c68 0 120.167 31.333 156.5 94s54.5 147.667 54.5 255zM790.001 1566v-33l-89 -322h-257v37l181 318h165z" />
    <glyph glyph-name="Hcircumflex" unicode="&#x124;" 
d="M796 0v574h-363v-574h-295v1349h295v-531h363v531h295v-1349h-295zM983 1455v-28h-159l-203 134h-4l-211 -134h-160v28l258 250h229z" />
    <glyph glyph-name="hcircumflex" unicode="&#x125;" 
d="M420 866c38 82.667 85.668 142.665 143.001 179.998s125.666 56 204.999 56c112 0 196 -34 252 -102s84 -172.667 84 -314v-686h-280v621c0 100.667 -13.5 170.834 -40.5 210.501s-71.167 59.5 -132.5 59.5c-68 0 -122.833 -29.167 -164.5 -87.5
s-62.5 -133.166 -62.5 -224.499v-579h-281v1349h281v-270c0 -72.667 -2.66699 -143.667 -8 -213h4zM983.001 1455v-28h-159l-203 134h-4l-211 -134h-160v28l258 250h229z" />
    <glyph glyph-name="Hbar" unicode="&#x126;" 
d="M796 0v574h-363v-574h-295v1004h-136v168h136v177h295v-177h363v177h295v-177h135v-168h-135v-1004h-295zM796 818v186h-363v-186h363z" />
    <glyph glyph-name="hbar" unicode="&#x127;" 
d="M420 826c38 82.667 85.668 142.665 143.001 179.998s125.666 56 204.999 56c112 0 196 -34 252 -102s84 -172.667 84 -314v-646h-280v581c0 100.667 -13.5 170.834 -40.5 210.501s-71.167 59.5 -132.5 59.5c-68 0 -122.833 -29.167 -164.5 -87.5
s-62.5 -133.166 -62.5 -224.499v-539h-281v1180h-134v169h134v135h281v-135h300v-169h-300v-141c0 -72.667 -2.66699 -143.667 -8 -213h4z" />
    <glyph glyph-name="Itilde" unicode="&#x128;" 
d="M157 1349h916v-228h-311v-893h311v-228h-916v228h311v893h-311v228zM781 1422c-29.333 0 -58.833 5.83301 -88.5 17.5s-58.5 24.667 -86.5 39l-79.5 39c-25 11.667 -47.5 17.5 -67.5 17.5c-30 0 -52.333 -7.83301 -67 -23.5s-25 -45.5 -31 -89.5h-137
c8 104 30.5 177.167 67.5 219.5s89.5 63.5 157.5 63.5c30 0 60 -5.83301 90 -17.5s59 -24.667 87 -39l78.5 -39c24.333 -11.667 46.166 -17.5 65.499 -17.5c31.333 0 54.333 8.83301 69 26.5s24.667 46.5 30 86.5h135c-5.33301 -74 -16.666 -130 -33.999 -168
s-41.833 -66.667 -73.5 -86s-70.167 -29 -115.5 -29z" />
    <glyph glyph-name="itilde" unicode="&#x129;" 
d="M794 190h353v-190h-1029v190h395v702h-290v190h571v-892zM782 1183c-29.333 0 -58.833 5.83301 -88.5 17.5s-58.5 24.667 -86.5 39l-79.5 39c-25 11.667 -47.5 17.5 -67.5 17.5c-30 0 -52.333 -7.83301 -67 -23.5s-25 -45.5 -31 -89.5h-137
c8 104 30.5 177.167 67.5 219.5s89.5 63.5 157.5 63.5c30 0 60 -5.83301 90 -17.5s59 -24.667 87 -39l78.5 -39c24.333 -11.667 46.166 -17.5 65.499 -17.5c31.333 0 54.333 8.83301 69 26.5s24.667 46.5 30 86.5h135c-5.33301 -74 -16.666 -130 -33.999 -168
s-41.833 -66.667 -73.5 -86s-70.167 -29 -115.5 -29z" />
    <glyph glyph-name="Imacron" unicode="&#x12a;" 
d="M157 1349h916v-228h-311v-893h311v-228h-916v228h311v893h-311v228zM310 1638h612v-168h-612v168z" />
    <glyph glyph-name="imacron" unicode="&#x12b;" 
d="M794 190h353v-190h-1029v190h395v702h-290v190h571v-892zM316 1371h612v-168h-612v168z" />
    <glyph glyph-name="Ibreve" unicode="&#x12c;" 
d="M157 1349h916v-228h-311v-893h311v-228h-916v228h311v893h-311v228zM612 1427c-107.333 0 -190.998 24.167 -250.998 72.5s-93.667 116.833 -101 205.5h163c10 -80.667 73.667 -121 191 -121c58.667 0 102.667 9.66699 132 29s48.666 50 57.999 92h164
c-22.667 -185.333 -141.334 -278 -356.001 -278z" />
    <glyph glyph-name="ibreve" unicode="&#x12d;" 
d="M794 190h353v-190h-1029v190h395v702h-290v190h571v-892zM632 1183c-107.333 0 -190.998 24.167 -250.998 72.5s-93.667 116.833 -101 205.5h163c10 -80.667 73.667 -121 191 -121c58.667 0 102.667 9.66699 132 29s48.666 50 57.999 92h164
c-22.667 -185.333 -141.334 -278 -356.001 -278z" />
    <glyph glyph-name="Iogonek" unicode="&#x12e;" 
d="M157 1349h916v-228h-311v-893h311v-228h-916v228h311v893h-311v228zM670 -425c-74 0 -132 17.998 -174 53.998s-63 84.667 -63 146c0 50 14.5 97.333 43.5 142s67.167 79.334 114.5 104.001h153c-42 -28 -74 -61.167 -96 -99.5s-33 -75.166 -33 -110.499
c0 -28 8.16699 -50.5 24.5 -67.5s39.5 -25.5 69.5 -25.5c36 0 73.333 9 112 27v-137c-42 -22 -92.333 -33 -151 -33z" />
    <glyph glyph-name="iogonek" unicode="&#x12f;" 
d="M794 190h353v-190h-1029v190h395v702h-290v190h571v-892zM513 1277v207h281v-207h-281zM713 -425c-74 0 -132 17.998 -174 53.998s-63 84.667 -63 146c0 50 14.5 97.333 43.5 142s67.167 79.334 114.5 104.001h153c-42 -28 -74 -61.167 -96 -99.5
s-33 -75.166 -33 -110.499c0 -28 8.16699 -50.5 24.5 -67.5s39.5 -25.5 69.5 -25.5c36 0 73.333 9 112 27v-137c-42 -22 -92.333 -33 -151 -33z" />
    <glyph glyph-name="Idotaccent" unicode="&#x130;" 
d="M157 1349h916v-228h-311v-893h311v-228h-916v228h311v893h-311v228zM474 1421v207h281v-207h-281z" />
    <glyph glyph-name="dotlessi" unicode="&#x131;" 
d="M794 190h353v-190h-1029v190h395v702h-290v190h571v-892z" />
    <glyph glyph-name="IJ" unicode="&#x132;" 
d="M73 1349h284v-1349h-284v1349zM784 -20c-115.333 0 -202.501 29.667 -261.501 89s-94.167 156.333 -105.5 291l264 38c7.33301 -68 18.833 -116.167 34.5 -144.5s40.834 -42.5 75.501 -42.5c30.667 0 52 15.667 64 47s18 83.333 18 156v704h-254v231h540v-903
c0 -310.667 -125 -466 -375 -466z" />
    <glyph glyph-name="ij" unicode="&#x133;" 
d="M451 0h-281v1082h281v-1082zM170 1277v207h281v-207h-281zM1053 -13c0 -86 -18.832 -159.833 -56.499 -221.5s-91.334 -108.834 -161.001 -141.501s-150.167 -49 -241.5 -49c-52.667 0 -106.334 4.33301 -161.001 13s-97 18.667 -127 30v210
c90.667 -22.667 178.334 -34 263.001 -34c73.333 0 125.333 17.833 156 53.5s46 89.834 46 162.501v1072h282v-1095zM772.001 1277v207h281v-207h-281z" />
    <glyph glyph-name="Jcircumflex" unicode="&#x134;" 
d="M564 -20c-130.667 0 -235.334 36.335 -314.001 109.002s-128 177 -148 313l291 43c13.333 -78.667 35 -137.334 65 -176.001s66 -58 108 -58c48.667 0 87.334 19.667 116.001 59s43 95.666 43 168.999v679h-301v231h595v-903c0 -145.333 -40.333 -259.333 -121 -342
s-192 -124 -334 -124zM1103 1455v-28h-159l-203 134h-4l-211 -134h-160v28l258 250h229z" />
    <glyph glyph-name="jcircumflex" unicode="&#x135;" 
d="M926 -13c0 -86 -18.832 -159.833 -56.499 -221.5s-91.334 -108.834 -161.001 -141.501s-150.167 -49 -241.5 -49c-52.667 0 -106.334 4.33301 -161.001 13s-97 18.667 -127 30v210c90.667 -22.667 178.334 -34 263.001 -34c73.333 0 125.333 17.833 156 53.5
s46 89.834 46 162.501v882h-354v190h636v-1095zM1086 1211v-28h-159l-203 134h-4l-211 -134h-160v28l258 250h229z" />
    <glyph glyph-name="Kcommaaccent" unicode="&#x136;" 
d="M881 0l-323 557l-127 -142v-415h-295v1349h295v-599l436 599h343l-460 -579l479 -770h-348zM435 -453v33l89 322h257v-37l-181 -318h-165z" />
    <glyph glyph-name="kcommaaccent" unicode="&#x137;" 
d="M864 0l-289 490l-121 -84v-406h-281v1484h281v-850l386 448h302l-380 -422l409 -660h-307zM435 -453v33l89 322h257v-37l-181 -318h-165z" />
    <glyph glyph-name="kgreenlandic" unicode="&#x138;" 
d="M864 0l-289 470l-121 -84v-386h-281v1082h281v-468l386 468h302l-380 -442l409 -640h-307z" />
    <glyph glyph-name="Lacute" unicode="&#x139;" 
d="M211 0v1349h295v-1121h616v-228h-911zM269 1429v31l252 243h258v-43l-340 -231h-170z" />
    <glyph glyph-name="lacute" unicode="&#x13a;" 
d="M794 190h353v-190h-1029v190h395v969h-290v190h571v-1159zM496 1431v31l252 243h258v-43l-340 -231h-170z" />
    <glyph glyph-name="Lcommaaccent" unicode="&#x13b;" 
d="M211 0v1349h295v-1121h616v-228h-911zM445 -453v33l89 322h257v-37l-181 -318h-165z" />
    <glyph glyph-name="lcommaaccent" unicode="&#x13c;" 
d="M794 190h353v-190h-1029v190h395v1104h-290v190h571v-1294zM435 -453v33l89 322h257v-37l-181 -318h-165z" />
    <glyph glyph-name="Lcaron" unicode="&#x13d;" 
d="M211 0v1349h295v-1121h616v-228h-911zM755 994v33l89 322h257v-37l-181 -318h-165z" />
    <glyph glyph-name="lcaron" unicode="&#x13e;" 
d="M745 190h353v-190h-1029v190h395v1104h-290v190h571v-1294zM855 1129v33l89 322h257v-37l-181 -318h-165z" />
    <glyph glyph-name="Ldot" unicode="&#x13f;" 
d="M211 0v1349h295v-1121h616v-228h-911zM660 583v207h281v-207h-281z" />
    <glyph glyph-name="ldot" unicode="&#x140;" 
d="M794 190h353v-190h-1029v190h395v1104h-290v190h571v-1294zM890 583v207h281v-207h-281z" />
    <glyph glyph-name="Lslash" unicode="&#x141;" 
d="M221 657v692h295v-539l246 128l92 -181l-338 -177v-352h616v-228h-911v426l-124 -64l-97 181z" />
    <glyph glyph-name="lslash" unicode="&#x142;" 
d="M794 950l211 121l83 -155l-294 -168v-558h353v-190h-1029v190h395v397l-196 -112l-85 154l281 160v505h-290v190h571v-534z" />
    <glyph glyph-name="Nacute" unicode="&#x143;" 
d="M748 0l-384 1010c18.667 -168 28 -286 28 -354v-656h-257v1349h337l393 -1037c-18.667 156.667 -28 278.334 -28 365.001v672h257v-1349h-346zM489 1429v31l252 243h258v-43l-340 -231h-170z" />
    <glyph glyph-name="nacute" unicode="&#x144;" 
d="M824 0l0.00195312 619c0 94 -12.833 163 -38.5 207s-69.834 66 -132.501 66c-69.333 0 -124.833 -29.5 -166.5 -88.5s-62.5 -133.5 -62.5 -223.5v-580h-281v840c0 58 -0.833008 105.5 -2.5 142.5s-3.5 70.167 -5.5 99.5h268c2 -12.667 4.66699 -46.5 8 -101.5
s5 -92.833 5 -113.5h4c38 82.667 85.667 142.667 143 180s125.666 56 204.999 56c224 0 336 -138.667 336 -416v-687h-280zM504.002 1184v31l252 243h258v-43l-340 -231h-170z" />
    <glyph glyph-name="Ncommaaccent" unicode="&#x145;" 
d="M748 0l-384 1010c18.667 -168 28 -286 28 -354v-656h-257v1349h337l393 -1037c-18.667 156.667 -28 278.334 -28 365.001v672h257v-1349h-346zM404 -453.001v33l89 322h257v-37l-181 -318h-165z" />
    <glyph glyph-name="ncommaaccent" unicode="&#x146;" 
d="M824 0l0.00195312 619c0 94 -12.833 163 -38.5 207s-69.834 66 -132.501 66c-69.333 0 -124.833 -29.5 -166.5 -88.5s-62.5 -133.5 -62.5 -223.5v-580h-281v840c0 58 -0.833008 105.5 -2.5 142.5s-3.5 70.167 -5.5 99.5h268c2 -12.667 4.66699 -46.5 8 -101.5
s5 -92.833 5 -113.5h4c38 82.667 85.667 142.667 143 180s125.666 56 204.999 56c224 0 336 -138.667 336 -416v-687h-280zM408.002 -453v33l89 322h257v-37l-181 -318h-165z" />
    <glyph glyph-name="Ncaron" unicode="&#x147;" 
d="M748 0l-384 1010c18.667 -168 28 -286 28 -354v-656h-257v1349h337l393 -1037c-18.667 156.667 -28 278.334 -28 365.001v672h257v-1349h-346zM729 1427h-229l-258 249v29h160l211 -134h4l203 134h159v-29z" />
    <glyph glyph-name="ncaron" unicode="&#x148;" 
d="M824 0l0.00195312 619c0 94 -12.833 163 -38.5 207s-69.834 66 -132.501 66c-69.333 0 -124.833 -29.5 -166.5 -88.5s-62.5 -133.5 -62.5 -223.5v-580h-281v840c0 58 -0.833008 105.5 -2.5 142.5s-3.5 70.167 -5.5 99.5h268c2 -12.667 4.66699 -46.5 8 -101.5
s5 -92.833 5 -113.5h4c38 82.667 85.667 142.667 143 180s125.666 56 204.999 56c224 0 336 -138.667 336 -416v-687h-280zM733.002 1183h-229l-258 249v29h160l211 -134h4l203 134h159v-29z" />
    <glyph glyph-name="napostrophe" unicode="&#x149;" 
d="M905 0v619c0 94.667 -12 163.834 -36 207.501s-62.333 65.5 -115 65.5c-60 0 -109.833 -29.833 -149.5 -89.5s-59.5 -133.834 -59.5 -222.501v-580h-281v840c0 58 -0.833008 105.5 -2.5 142.5s-3.5 70.167 -5.5 99.5h268c2 -12.667 4.66699 -46.5 8 -101.5
s5 -92.833 5 -113.5h4c72.667 157.333 182 236 328 236c103.333 0 181.833 -35.333 235.5 -106s80.5 -174 80.5 -310v-687h-280zM0 995v33l89 322h257v-37l-181 -318h-165z" />
    <glyph glyph-name="Eng" unicode="&#x14a;" 
d="M774 -20c-81.333 0 -147.333 19.8359 -198 59.5029s-89 104.5 -115 194.5l209 68c10.667 -38.667 22.5 -65 35.5 -79s30.833 -21 53.5 -21c31.333 0 53.5 20.167 66.5 60.5s19.5 111.166 19.5 212.499v373c0 112 -11.667 188.667 -35 230s-65.666 62 -126.999 62
c-42 0 -84.667 -20.667 -128 -62s-78 -95 -104 -161s-39 -135.333 -39 -208v-709h-295v1032l-4 317h288c7.33301 -80.667 11 -164.334 11 -251.001h4c34.667 80.667 86.167 146 154.5 196s139.5 75 213.5 75c119.333 0 207.666 -40.5 264.999 -121.5s86 -207.167 86 -378.5
v-367c0 -176.667 -29.5 -307.834 -88.5 -393.501s-149.833 -128.5 -272.5 -128.5z" />
    <glyph glyph-name="eng" unicode="&#x14b;" 
d="M824 619c0 94 -12.8291 162.998 -38.4961 206.998s-69.834 66 -132.501 66c-69.333 0 -124.833 -29.5 -166.5 -88.5s-62.5 -133.5 -62.5 -223.5v-580h-281v840c0 58 -0.833008 105.5 -2.5 142.5s-3.5 70.167 -5.5 99.5h268c2 -12.667 4.66699 -46.5 8 -101.5
s5 -92.833 5 -113.5h4c38 82.667 85.667 142.667 143 180s125.666 56 204.999 56c224 0 336 -138.667 336 -416v-815c0 -95.333 -24.167 -168.666 -72.5 -219.999s-119.833 -77 -214.5 -77c-66.667 0 -123.334 3 -170.001 9v198l51 -4c49.333 0 82.666 10.833 99.999 32.5
s26 64.834 26 129.501v679z" />
    <glyph glyph-name="Omacron" unicode="&#x14c;" 
d="M1157 679c0 -230 -46.667 -404 -140 -522s-227.333 -177 -402 -177s-308.834 59 -402.501 177s-140.5 292 -140.5 522s46.833 402.667 140.5 518s227.834 173 402.501 173s308.667 -57.667 402 -173s140 -288 140 -518zM858 679c0 306 -81.001 459 -243.001 459
c-162.667 0 -244 -153 -244 -459c0 -153.333 20.5 -269.5 61.5 -348.5s101.833 -118.5 182.5 -118.5s141.334 39.5 182.001 118.5s61 195.167 61 348.5zM309.999 1638h612v-168h-612v168z" />
    <glyph glyph-name="omacron" unicode="&#x14d;" 
d="M1137 542c0 -179.333 -45.333 -317.833 -136 -415.5s-221 -146.5 -391 -146.5c-164 0 -291.333 48.833 -382 146.5s-136 236.167 -136 415.5c0 178.667 45 316.667 135 414s219.667 146 389 146c347.333 0 521 -186.667 521 -560zM843 542c0 128 -17 221.167 -51 279.5
s-91.333 87.5 -172 87.5c-82.667 0 -142.167 -29.333 -178.5 -88s-54.5 -151.667 -54.5 -279c0 -128.667 18.5 -222.5 55.5 -281.5s91.833 -88.5 164.5 -88.5c82.667 0 142.667 29.167 180 87.5s56 152.5 56 282.5zM310 1371h612v-168h-612v168z" />
    <glyph glyph-name="Obreve" unicode="&#x14e;" 
d="M1157 679c0 -230 -46.667 -404 -140 -522s-227.333 -177 -402 -177s-308.834 59 -402.501 177s-140.5 292 -140.5 522s46.833 402.667 140.5 518s227.834 173 402.501 173s308.667 -57.667 402 -173s140 -288 140 -518zM858 679c0 306 -81.001 459 -243.001 459
c-162.667 0 -244 -153 -244 -459c0 -153.333 20.5 -269.5 61.5 -348.5s101.833 -118.5 182.5 -118.5s141.334 39.5 182.001 118.5s61 195.167 61 348.5zM611.999 1427c-107.333 0 -190.998 24.167 -250.998 72.5s-93.667 116.833 -101 205.5h163
c10 -80.667 73.667 -121 191 -121c58.667 0 102.667 9.66699 132 29s48.666 50 57.999 92h164c-22.667 -185.333 -141.334 -278 -356.001 -278z" />
    <glyph glyph-name="obreve" unicode="&#x14f;" 
d="M1137 542c0 -179.333 -45.333 -317.833 -136 -415.5s-221 -146.5 -391 -146.5c-164 0 -291.333 48.833 -382 146.5s-136 236.167 -136 415.5c0 178.667 45 316.667 135 414s219.667 146 389 146c347.333 0 521 -186.667 521 -560zM843 542c0 128 -17 221.167 -51 279.5
s-91.333 87.5 -172 87.5c-82.667 0 -142.167 -29.333 -178.5 -88s-54.5 -151.667 -54.5 -279c0 -128.667 18.5 -222.5 55.5 -281.5s91.833 -88.5 164.5 -88.5c82.667 0 142.667 29.167 180 87.5s56 152.5 56 282.5zM612 1183c-107.333 0 -190.998 24.167 -250.998 72.5
s-93.667 116.833 -101 205.5h163c10 -80.667 73.667 -121 191 -121c58.667 0 102.667 9.66699 132 29s48.666 50 57.999 92h164c-22.667 -185.333 -141.334 -278 -356.001 -278z" />
    <glyph glyph-name="Ohungarumlaut" unicode="&#x150;" 
d="M1157 679c0 -230 -46.667 -404 -140 -522s-227.333 -177 -402 -177s-308.834 59 -402.501 177s-140.5 292 -140.5 522s46.833 402.667 140.5 518s227.834 173 402.501 173s308.667 -57.667 402 -173s140 -288 140 -518zM858 679c0 306 -81.001 459 -243.001 459
c-162.667 0 -244 -153 -244 -459c0 -153.333 20.5 -269.5 61.5 -348.5s101.833 -118.5 182.5 -118.5s141.334 39.5 182.001 118.5s61 195.167 61 348.5zM442.999 1426h-142v34l225 245h235v-43zM848.999 1426h-142v34l225 245h235v-43z" />
    <glyph glyph-name="ohungarumlaut" unicode="&#x151;" 
d="M1137 542c0 -179.333 -45.333 -317.833 -136 -415.5s-221 -146.5 -391 -146.5c-164 0 -291.333 48.833 -382 146.5s-136 236.167 -136 415.5c0 178.667 45 316.667 135 414s219.667 146 389 146c347.333 0 521 -186.667 521 -560zM843 542c0 128 -17 221.167 -51 279.5
s-91.333 87.5 -172 87.5c-82.667 0 -142.167 -29.333 -178.5 -88s-54.5 -151.667 -54.5 -279c0 -128.667 18.5 -222.5 55.5 -281.5s91.833 -88.5 164.5 -88.5c82.667 0 142.667 29.167 180 87.5s56 152.5 56 282.5zM462 1182h-142v34l225 245h235v-43zM868 1182h-142v34
l225 245h235v-43z" />
    <glyph glyph-name="OE" unicode="&#x152;" 
d="M599 0l-78 -5c-170 0 -294.333 56.333 -373 169s-118 285 -118 517c0 233.333 39.5 404 118.5 512s203.833 162 374.5 162c25.333 0 55 -2 89 -6h558v-202h-313v-355h287v-200h-287v-390h354v-202h-612zM522 190c37.333 0 65.334 2 84.001 6v957c-25.333 4 -53 6 -83 6
c-82.667 0 -141.834 -38.333 -177.501 -115s-53.5 -197.667 -53.5 -363c0 -166.667 18.833 -290.167 56.5 -370.5s95.5 -120.5 173.5 -120.5z" />
    <glyph glyph-name="oe" unicode="&#x153;" 
d="M732 484c0 -98 13.001 -174.834 39.001 -230.501s62.333 -83.5 109 -83.5c34 0 59.667 11 77 33s30.666 54.667 39.999 98l178 -45c-22.667 -93.333 -59.334 -162.666 -110.001 -207.999s-111.667 -68 -183 -68c-121.333 0 -209 61 -263 183
c-55.333 -122 -144 -183 -266 -183c-104.667 0 -185 48.167 -241 144.5s-84 235.5 -84 417.5c0 186 28.333 325.833 85 419.5s139 140.5 247 140.5c124.667 0 213.334 -59 266.001 -177c56.667 118 143 177 259 177c212.667 0 319 -191.667 319 -575v-43h-472z
M523.001 541.999c0 126 -12.001 219.501 -36.001 280.501s-62 91.5 -114 91.5c-48.667 0 -83.5 -30.833 -104.5 -92.5s-31.5 -154.834 -31.5 -279.501c0 -125.333 10.5 -219 31.5 -281s53.833 -93 98.5 -93c54.667 0 94.334 32 119.001 96s37 156.667 37 278zM875 914
c-90 0 -137 -84.667 -141 -254h264c-5.33301 93.333 -17 159 -35 197s-47.333 57 -88 57z" />
    <glyph glyph-name="Racute" unicode="&#x154;" 
d="M895 0l-290.001 515h-173v-515h-295v1349h494c176 0 307.667 -34.333 395 -103s131 -167.667 131 -297c0 -91.333 -24.667 -169 -74 -233s-117.666 -109 -204.999 -135l349 -581h-332zM859.999 937c0 62.667 -20.667 108.833 -62 138.5s-107.333 44.5 -198 44.5h-168
v-376h176c168 0 252 64.333 252 193zM438.999 1429v31l252 243h258v-43l-340 -231h-170z" />
    <glyph glyph-name="racute" unicode="&#x155;" 
d="M1081 848c-74.667 12.667 -145.334 19 -212.001 19c-104 0 -186.5 -39.333 -247.5 -118s-91.5 -182.334 -91.5 -311.001v-438h-280v701c0 50.667 -4.5 110.334 -13.5 179.001s-21.833 136 -38.5 202h271c24 -86.667 39.333 -162.667 46 -228h4
c33.333 90.667 78.333 154.667 135 192s130.334 56 221.001 56c69.333 0 138 -5.66699 206 -17v-237zM456 1184v31l252 243h258v-43l-340 -231h-170z" />
    <glyph glyph-name="Rcommaaccent" unicode="&#x156;" 
d="M895 0l-290.001 515h-173v-515h-295v1349h494c176 0 307.667 -34.333 395 -103s131 -167.667 131 -297c0 -91.333 -24.667 -169 -74 -233s-117.666 -109 -204.999 -135l349 -581h-332zM859.999 937c0 62.667 -20.667 108.833 -62 138.5s-107.333 44.5 -198 44.5h-168
v-376h176c168 0 252 64.333 252 193zM431.999 -453.001v33l89 322h257v-37l-181 -318h-165z" />
    <glyph glyph-name="rcommaaccent" unicode="&#x157;" 
d="M1081 848c-74.667 12.667 -145.334 19 -212.001 19c-104 0 -186.5 -39.333 -247.5 -118s-91.5 -182.334 -91.5 -311.001v-438h-280v701c0 50.667 -4.5 110.334 -13.5 179.001s-21.833 136 -38.5 202h271c24 -86.667 39.333 -162.667 46 -228h4
c33.333 90.667 78.333 154.667 135 192s130.334 56 221.001 56c69.333 0 138 -5.66699 206 -17v-237zM163 -453v33l89 322h257v-37l-181 -318h-165z" />
    <glyph glyph-name="Rcaron" unicode="&#x158;" 
d="M895 0l-290.001 515h-173v-515h-295v1349h494c176 0 307.667 -34.333 395 -103s131 -167.667 131 -297c0 -91.333 -24.667 -169 -74 -233s-117.666 -109 -204.999 -135l349 -581h-332zM859.999 937c0 62.667 -20.667 108.833 -62 138.5s-107.333 44.5 -198 44.5h-168
v-376h176c168 0 252 64.333 252 193zM713.999 1427h-229l-258 249v29h160l211 -134h4l203 134h159v-29z" />
    <glyph glyph-name="rcaron" unicode="&#x159;" 
d="M1081 848c-74.667 12.667 -145.334 19 -212.001 19c-104 0 -186.5 -39.333 -247.5 -118s-91.5 -182.334 -91.5 -311.001v-438h-280v701c0 50.667 -4.5 110.334 -13.5 179.001s-21.833 136 -38.5 202h271c24 -86.667 39.333 -162.667 46 -228h4
c33.333 90.667 78.333 154.667 135 192s130.334 56 221.001 56c69.333 0 138 -5.66699 206 -17v-237zM753 1183h-229l-258 249v29h160l211 -134h4l203 134h159v-29z" />
    <glyph glyph-name="Sacute" unicode="&#x15a;" 
d="M1165 391c0 -128 -48.832 -228.499 -146.499 -301.499s-233.5 -109.5 -407.5 -109.5c-156.667 0 -284.334 33 -383.001 99s-162 162 -190 288l285 37c15.333 -62.667 47.333 -112.167 96 -148.5s115.334 -54.5 200.001 -54.5c88 0 153.167 14 195.5 42
s63.5 71.667 63.5 131c0 44 -18.667 81.167 -56 111.5s-91.666 54.166 -162.999 71.499c-143.333 34.667 -244.5 64.834 -303.5 90.501s-106.167 54.5 -141.5 86.5s-62.5 69.5 -81.5 112.5s-28.5 91.167 -28.5 144.5c0 116.667 46.833 209 140.5 277s217.167 102 370.5 102
c149.333 0 266 -29.5 350 -88.5s138.333 -150.5 163 -274.5l-286 -29c-29.333 122 -107 183 -233 183c-70.667 0 -124.667 -13.167 -162 -39.5s-56 -64.166 -56 -113.499c0 -32.667 9 -59.834 27 -81.501s42.5 -40 73.5 -55s94.167 -34.833 189.5 -59.5
c125.333 -30.667 221.666 -64.834 288.999 -102.501s116.666 -83.167 147.999 -136.5s47 -114 47 -182zM487.001 1429v31l252 243h258v-43l-340 -231h-170z" />
    <glyph glyph-name="sacute" unicode="&#x15b;" 
d="M1104 316c0 -104.667 -42.835 -186.837 -128.502 -246.504s-204.167 -89.5 -355.5 -89.5c-148.667 0 -262.5 23.5 -341.5 70.5s-131.5 120.167 -157.5 219.5l247 37c14 -51.333 38.167 -87.666 72.5 -108.999s94.166 -32 179.499 -32c78.667 0 136 10 172 30
s54 51.333 54 94c0 34.667 -14.5 62.167 -43.5 82.5s-78.167 37.5 -147.5 51.5c-158.667 31.333 -265.667 60.5 -321 87.5s-97.5 62 -126.5 105s-43.5 95.833 -43.5 158.5c0 103.333 39.833 183.833 119.5 241.5s192.5 86.5 338.5 86.5c128.667 0 232.167 -25 310.5 -75
s127.166 -122.333 146.499 -217l-249 -26c-8 44 -27.667 76.833 -59 98.5s-81 32.5 -149 32.5c-66.667 0 -116.667 -8.5 -150 -25.5s-50 -45.5 -50 -85.5c0 -31.333 12.833 -56.166 38.5 -74.499s68.834 -33.5 129.501 -45.5
c84.667 -17.333 159.834 -35.166 225.501 -53.499s118.334 -40.166 158.001 -65.499s71.334 -57.833 95.001 -97.5s35.5 -90.5 35.5 -152.5zM452.998 1184v31l252 243h258v-43l-340 -231h-170z" />
    <glyph glyph-name="Scircumflex" unicode="&#x15c;" 
d="M1165 391c0 -128 -48.832 -228.499 -146.499 -301.499s-233.5 -109.5 -407.5 -109.5c-156.667 0 -284.334 33 -383.001 99s-162 162 -190 288l285 37c15.333 -62.667 47.333 -112.167 96 -148.5s115.334 -54.5 200.001 -54.5c88 0 153.167 14 195.5 42
s63.5 71.667 63.5 131c0 44 -18.667 81.167 -56 111.5s-91.666 54.166 -162.999 71.499c-143.333 34.667 -244.5 64.834 -303.5 90.501s-106.167 54.5 -141.5 86.5s-62.5 69.5 -81.5 112.5s-28.5 91.167 -28.5 144.5c0 116.667 46.833 209 140.5 277s217.167 102 370.5 102
c149.333 0 266 -29.5 350 -88.5s138.333 -150.5 163 -274.5l-286 -29c-29.333 122 -107 183 -233 183c-70.667 0 -124.667 -13.167 -162 -39.5s-56 -64.166 -56 -113.499c0 -32.667 9 -59.834 27 -81.501s42.5 -40 73.5 -55s94.167 -34.833 189.5 -59.5
c125.333 -30.667 221.666 -64.834 288.999 -102.501s116.666 -83.167 147.999 -136.5s47 -114 47 -182zM987.001 1455v-28h-159l-203 134h-4l-211 -134h-160v28l258 250h229z" />
    <glyph glyph-name="scircumflex" unicode="&#x15d;" 
d="M1104 316c0 -104.667 -42.835 -186.837 -128.502 -246.504s-204.167 -89.5 -355.5 -89.5c-148.667 0 -262.5 23.5 -341.5 70.5s-131.5 120.167 -157.5 219.5l247 37c14 -51.333 38.167 -87.666 72.5 -108.999s94.166 -32 179.499 -32c78.667 0 136 10 172 30
s54 51.333 54 94c0 34.667 -14.5 62.167 -43.5 82.5s-78.167 37.5 -147.5 51.5c-158.667 31.333 -265.667 60.5 -321 87.5s-97.5 62 -126.5 105s-43.5 95.833 -43.5 158.5c0 103.333 39.833 183.833 119.5 241.5s192.5 86.5 338.5 86.5c128.667 0 232.167 -25 310.5 -75
s127.166 -122.333 146.499 -217l-249 -26c-8 44 -27.667 76.833 -59 98.5s-81 32.5 -149 32.5c-66.667 0 -116.667 -8.5 -150 -25.5s-50 -45.5 -50 -85.5c0 -31.333 12.833 -56.166 38.5 -74.499s68.834 -33.5 129.501 -45.5
c84.667 -17.333 159.834 -35.166 225.501 -53.499s118.334 -40.166 158.001 -65.499s71.334 -57.833 95.001 -97.5s35.5 -90.5 35.5 -152.5zM997.998 1211v-28h-159l-203 134h-4l-211 -134h-160v28l258 250h229z" />
    <glyph glyph-name="Scedilla" unicode="&#x15e;" 
d="M1165 391c0 -128 -48.832 -228.499 -146.499 -301.499s-233.5 -109.5 -407.5 -109.5c-156.667 0 -284.334 33 -383.001 99s-162 162 -190 288l285 37c15.333 -62.667 47.333 -112.167 96 -148.5s115.334 -54.5 200.001 -54.5c88 0 153.167 14 195.5 42
s63.5 71.667 63.5 131c0 44 -18.667 81.167 -56 111.5s-91.666 54.166 -162.999 71.499c-143.333 34.667 -244.5 64.834 -303.5 90.501s-106.167 54.5 -141.5 86.5s-62.5 69.5 -81.5 112.5s-28.5 91.167 -28.5 144.5c0 116.667 46.833 209 140.5 277s217.167 102 370.5 102
c149.333 0 266 -29.5 350 -88.5s138.333 -150.5 163 -274.5l-286 -29c-29.333 122 -107 183 -233 183c-70.667 0 -124.667 -13.167 -162 -39.5s-56 -64.166 -56 -113.499c0 -32.667 9 -59.834 27 -81.501s42.5 -40 73.5 -55s94.167 -34.833 189.5 -59.5
c125.333 -30.667 221.666 -64.834 288.999 -102.501s116.666 -83.167 147.999 -136.5s47 -114 47 -182zM825.001 -254.999c0 -62.667 -26.001 -110 -78.001 -142s-127 -48 -225 -48c-30 0 -63.667 2 -101 6v118c23.333 -4.66699 51.333 -7 84 -7c91.333 0 137 23 137 69
c0 23.333 -9.33301 40.666 -28 51.999s-50 17 -94 17c-25.333 0 -42.666 -0.666992 -51.999 -2l69 192h143l-40 -102c62.667 -3.33301 109.167 -18.666 139.5 -45.999s45.5 -63 45.5 -107z" />
    <glyph glyph-name="scedilla" unicode="&#x15f;" 
d="M1104 316c0 -104.667 -42.835 -186.837 -128.502 -246.504s-204.167 -89.5 -355.5 -89.5c-148.667 0 -262.5 23.5 -341.5 70.5s-131.5 120.167 -157.5 219.5l247 37c14 -51.333 38.167 -87.666 72.5 -108.999s94.166 -32 179.499 -32c78.667 0 136 10 172 30
s54 51.333 54 94c0 34.667 -14.5 62.167 -43.5 82.5s-78.167 37.5 -147.5 51.5c-158.667 31.333 -265.667 60.5 -321 87.5s-97.5 62 -126.5 105s-43.5 95.833 -43.5 158.5c0 103.333 39.833 183.833 119.5 241.5s192.5 86.5 338.5 86.5c128.667 0 232.167 -25 310.5 -75
s127.166 -122.333 146.499 -217l-249 -26c-8 44 -27.667 76.833 -59 98.5s-81 32.5 -149 32.5c-66.667 0 -116.667 -8.5 -150 -25.5s-50 -45.5 -50 -85.5c0 -31.333 12.833 -56.166 38.5 -74.499s68.834 -33.5 129.501 -45.5
c84.667 -17.333 159.834 -35.166 225.501 -53.499s118.334 -40.166 158.001 -65.499s71.334 -57.833 95.001 -97.5s35.5 -90.5 35.5 -152.5zM834.998 -255.003c0 -62.667 -26.001 -110 -78.001 -142s-127 -48 -225 -48c-30 0 -63.667 2 -101 6v118
c23.333 -4.66699 51.333 -7 84 -7c91.333 0 137 23 137 69c0 23.333 -9.33301 40.666 -28 51.999s-50 17 -94 17c-25.333 0 -42.666 -0.666992 -51.999 -2l69 192h143l-40 -102c62.667 -3.33301 109.167 -18.666 139.5 -45.999s45.5 -63 45.5 -107z" />
    <glyph glyph-name="Scaron" unicode="&#x160;" 
d="M1165 391c0 -128 -48.832 -228.499 -146.499 -301.499s-233.5 -109.5 -407.5 -109.5c-156.667 0 -284.334 33 -383.001 99s-162 162 -190 288l285 37c15.333 -62.667 47.333 -112.167 96 -148.5s115.334 -54.5 200.001 -54.5c88 0 153.167 14 195.5 42
s63.5 71.667 63.5 131c0 44 -18.667 81.167 -56 111.5s-91.666 54.166 -162.999 71.499c-143.333 34.667 -244.5 64.834 -303.5 90.501s-106.167 54.5 -141.5 86.5s-62.5 69.5 -81.5 112.5s-28.5 91.167 -28.5 144.5c0 116.667 46.833 209 140.5 277s217.167 102 370.5 102
c149.333 0 266 -29.5 350 -88.5s138.333 -150.5 163 -274.5l-286 -29c-29.333 122 -107 183 -233 183c-70.667 0 -124.667 -13.167 -162 -39.5s-56 -64.166 -56 -113.499c0 -32.667 9 -59.834 27 -81.501s42.5 -40 73.5 -55s94.167 -34.833 189.5 -59.5
c125.333 -30.667 221.666 -64.834 288.999 -102.501s116.666 -83.167 147.999 -136.5s47 -114 47 -182zM733.001 1427h-229l-258 249v29h160l211 -134h4l203 134h159v-29z" />
    <glyph glyph-name="scaron" unicode="&#x161;" 
d="M1104 316c0 -104.667 -42.835 -186.837 -128.502 -246.504s-204.167 -89.5 -355.5 -89.5c-148.667 0 -262.5 23.5 -341.5 70.5s-131.5 120.167 -157.5 219.5l247 37c14 -51.333 38.167 -87.666 72.5 -108.999s94.166 -32 179.499 -32c78.667 0 136 10 172 30
s54 51.333 54 94c0 34.667 -14.5 62.167 -43.5 82.5s-78.167 37.5 -147.5 51.5c-158.667 31.333 -265.667 60.5 -321 87.5s-97.5 62 -126.5 105s-43.5 95.833 -43.5 158.5c0 103.333 39.833 183.833 119.5 241.5s192.5 86.5 338.5 86.5c128.667 0 232.167 -25 310.5 -75
s127.166 -122.333 146.499 -217l-249 -26c-8 44 -27.667 76.833 -59 98.5s-81 32.5 -149 32.5c-66.667 0 -116.667 -8.5 -150 -25.5s-50 -45.5 -50 -85.5c0 -31.333 12.833 -56.166 38.5 -74.499s68.834 -33.5 129.501 -45.5
c84.667 -17.333 159.834 -35.166 225.501 -53.499s118.334 -40.166 158.001 -65.499s71.334 -57.833 95.001 -97.5s35.5 -90.5 35.5 -152.5zM737.998 1183h-229l-258 249v29h160l211 -134h4l203 134h159v-29z" />
    <glyph glyph-name="Tcommaaccent" unicode="&#x162;" 
d="M762 1121v-1121h-295v1121h-406v228h1107v-228h-406zM395 -453v33l89 322h257v-37l-181 -318h-165z" />
    <glyph glyph-name="tcommaaccent" unicode="&#x163;" 
d="M328 892h-167.001v190h181l88 282h176v-282h385v-190h-385v-530c0 -58.667 5.5 -98.167 16.5 -118.5s28.833 -36.333 53.5 -48s59.334 -17.5 104.001 -17.5c82.667 0 167.667 9 255 27v-186c-94.667 -15.333 -161.667 -24.5 -201 -27.5s-80.333 -4.5 -123 -4.5
c-84.667 0 -155.5 11.5 -212.5 34.5s-100 59 -129 108s-43.5 117.833 -43.5 206.5zM439.999 -453v33l89 322h257v-37l-181 -318h-165z" />
    <glyph glyph-name="Tcaron" unicode="&#x164;" 
d="M762 1121v-1121h-295v1121h-406v228h1107v-228h-406zM733 1427h-229l-258 249v29h160l211 -134h4l203 134h159v-29z" />
    <glyph glyph-name="tcaron" unicode="&#x165;" 
d="M219 892h-167.001v190h181l88 282h176v-282h385v-190h-385v-530c0 -58.667 5.5 -98.167 16.5 -118.5s28.833 -36.333 53.5 -48s59.334 -17.5 104.001 -17.5c82.667 0 167.667 9 255 27v-186c-94.667 -15.333 -161.667 -24.5 -201 -27.5s-80.333 -4.5 -123 -4.5
c-84.667 0 -155.5 11.5 -212.5 34.5s-100 59 -129 108s-43.5 117.833 -43.5 206.5zM884.999 1129v33l89 322h257v-37l-181 -318h-165z" />
    <glyph glyph-name="Tbar" unicode="&#x166;" 
d="M762 1121v-345h228v-190h-228v-586h-295v586h-227v190h227v345h-405v228h1106v-228h-406z" />
    <glyph glyph-name="tbar" unicode="&#x167;" 
d="M340 492h-165.001v190h165v210h-165v190h181l88 282h176v-282h385v-190h-385v-210h385v-190h-385v-130c0 -58.667 5.5 -98.167 16.5 -118.5s28.833 -36.333 53.5 -48s59.334 -17.5 104.001 -17.5c82.667 0 167.667 9 255 27v-186
c-94.667 -15.333 -161.667 -24.5 -201 -27.5s-80.333 -4.5 -123 -4.5c-84.667 0 -155.5 11.5 -212.5 34.5s-100 59 -129 108s-43.5 117.833 -43.5 206.5v156z" />
    <glyph glyph-name="Utilde" unicode="&#x168;" 
d="M599 -20c-164 0 -283.333 44.668 -358 134.001s-112 227.333 -112 414v821h295v-818c0 -116.667 13.5 -199.167 40.5 -247.5s74.5 -72.5 142.5 -72.5c69.333 0 119.666 25.667 150.999 77s47 135.666 47 252.999v808h295v-806c0 -190.667 -41.167 -332.167 -123.5 -424.5
s-208.166 -138.5 -377.499 -138.5zM781 1422c-29.333 0 -58.833 5.83301 -88.5 17.5s-58.5 24.667 -86.5 39l-79.5 39c-25 11.667 -47.5 17.5 -67.5 17.5c-30 0 -52.333 -7.83301 -67 -23.5s-25 -45.5 -31 -89.5h-137c8 104 30.5 177.167 67.5 219.5s89.5 63.5 157.5 63.5
c30 0 60 -5.83301 90 -17.5s59 -24.667 87 -39l78.5 -39c24.333 -11.667 46.166 -17.5 65.499 -17.5c31.333 0 54.333 8.83301 69 26.5s24.667 46.5 30 86.5h135c-5.33301 -74 -16.666 -130 -33.999 -168s-41.833 -66.667 -73.5 -86s-70.167 -29 -115.5 -29z" />
    <glyph glyph-name="utilde" unicode="&#x169;" 
d="M416 1082l-0.00195312 -607c0 -92 14.833 -162.5 44.5 -211.5s72.167 -73.5 127.5 -73.5c60 0 109.5 29.5 148.5 88.5s58.5 133.5 58.5 223.5v580h281v-840c0 -92 2.66699 -172.667 8 -242h-268c-8 96 -12 167.667 -12 215h-5
c-71.333 -156.667 -180.666 -235 -327.999 -235c-109.333 0 -192.666 34.833 -249.999 104.5s-86 173.167 -86 310.5v687h281zM781.998 1183c-29.333 0 -58.833 5.83301 -88.5 17.5s-58.5 24.667 -86.5 39l-79.5 39c-25 11.667 -47.5 17.5 -67.5 17.5
c-30 0 -52.333 -7.83301 -67 -23.5s-25 -45.5 -31 -89.5h-137c8 104 30.5 177.167 67.5 219.5s89.5 63.5 157.5 63.5c30 0 60 -5.83301 90 -17.5s59 -24.667 87 -39l78.5 -39c24.333 -11.667 46.166 -17.5 65.499 -17.5c31.333 0 54.333 8.83301 69 26.5
s24.667 46.5 30 86.5h135c-5.33301 -74 -16.666 -130 -33.999 -168s-41.833 -66.667 -73.5 -86s-70.167 -29 -115.5 -29z" />
    <glyph glyph-name="Umacron" unicode="&#x16a;" 
d="M599 -20c-164 0 -283.333 44.668 -358 134.001s-112 227.333 -112 414v821h295v-818c0 -116.667 13.5 -199.167 40.5 -247.5s74.5 -72.5 142.5 -72.5c69.333 0 119.666 25.667 150.999 77s47 135.666 47 252.999v808h295v-806c0 -190.667 -41.167 -332.167 -123.5 -424.5
s-208.166 -138.5 -377.499 -138.5zM310 1638h612v-168h-612v168z" />
    <glyph glyph-name="umacron" unicode="&#x16b;" 
d="M416 1082l-0.00195312 -607c0 -92 14.833 -162.5 44.5 -211.5s72.167 -73.5 127.5 -73.5c60 0 109.5 29.5 148.5 88.5s58.5 133.5 58.5 223.5v580h281v-840c0 -92 2.66699 -172.667 8 -242h-268c-8 96 -12 167.667 -12 215h-5
c-71.333 -156.667 -180.666 -235 -327.999 -235c-109.333 0 -192.666 34.833 -249.999 104.5s-86 173.167 -86 310.5v687h281zM309.998 1371h612v-168h-612v168z" />
    <glyph glyph-name="Ubreve" unicode="&#x16c;" 
d="M599 -20c-164 0 -283.333 44.668 -358 134.001s-112 227.333 -112 414v821h295v-818c0 -116.667 13.5 -199.167 40.5 -247.5s74.5 -72.5 142.5 -72.5c69.333 0 119.666 25.667 150.999 77s47 135.666 47 252.999v808h295v-806c0 -190.667 -41.167 -332.167 -123.5 -424.5
s-208.166 -138.5 -377.499 -138.5zM612 1427c-107.333 0 -190.998 24.167 -250.998 72.5s-93.667 116.833 -101 205.5h163c10 -80.667 73.667 -121 191 -121c58.667 0 102.667 9.66699 132 29s48.666 50 57.999 92h164c-22.667 -185.333 -141.334 -278 -356.001 -278z" />
    <glyph glyph-name="ubreve" unicode="&#x16d;" 
d="M416 1082l-0.00195312 -607c0 -92 14.833 -162.5 44.5 -211.5s72.167 -73.5 127.5 -73.5c60 0 109.5 29.5 148.5 88.5s58.5 133.5 58.5 223.5v580h281v-840c0 -92 2.66699 -172.667 8 -242h-268c-8 96 -12 167.667 -12 215h-5
c-71.333 -156.667 -180.666 -235 -327.999 -235c-109.333 0 -192.666 34.833 -249.999 104.5s-86 173.167 -86 310.5v687h281zM611.998 1183c-107.333 0 -190.998 24.167 -250.998 72.5s-93.667 116.833 -101 205.5h163c10 -80.667 73.667 -121 191 -121
c58.667 0 102.667 9.66699 132 29s48.666 50 57.999 92h164c-22.667 -185.333 -141.334 -278 -356.001 -278z" />
    <glyph glyph-name="Uring" unicode="&#x16e;" 
d="M599 -20c-164 0 -283.333 44.668 -358 134.001s-112 227.333 -112 414v821h295v-818c0 -116.667 13.5 -199.167 40.5 -247.5s74.5 -72.5 142.5 -72.5c69.333 0 119.666 25.667 150.999 77s47 135.666 47 252.999v808h295v-806c0 -190.667 -41.167 -332.167 -123.5 -424.5
s-208.166 -138.5 -377.499 -138.5zM856 1506c0 -58 -21.833 -105.833 -65.5 -143.5s-102.5 -56.5 -176.5 -56.5c-74.667 0 -133.667 18.833 -177 56.5s-65 85.5 -65 143.5c0 59.333 22.167 107.333 66.5 144s102.833 55 175.5 55c74 0 132.833 -18.5 176.5 -55.5
s65.5 -84.833 65.5 -143.5zM717 1506c0 21.333 -9.33301 38.5 -28 51.5s-43.667 19.5 -75 19.5c-30.667 0 -55.667 -6.33301 -75 -19s-29 -30 -29 -52s9.66699 -39.333 29 -52s44.333 -19 75 -19s55.5 6.5 74.5 19.5s28.5 30.167 28.5 51.5z" />
    <glyph glyph-name="uring" unicode="&#x16f;" 
d="M416 1082l-0.00195312 -607c0 -92 14.833 -162.5 44.5 -211.5s72.167 -73.5 127.5 -73.5c60 0 109.5 29.5 148.5 88.5s58.5 133.5 58.5 223.5v580h281v-840c0 -92 2.66699 -172.667 8 -242h-268c-8 96 -12 167.667 -12 215h-5
c-71.333 -156.667 -180.666 -235 -327.999 -235c-109.333 0 -192.666 34.833 -249.999 104.5s-86 173.167 -86 310.5v687h281zM855.998 1348c0 -58 -21.833 -105.833 -65.5 -143.5s-102.5 -56.5 -176.5 -56.5c-74.667 0 -133.667 18.833 -177 56.5s-65 85.5 -65 143.5
c0 59.333 22.167 107.333 66.5 144s102.833 55 175.5 55c74 0 132.833 -18.5 176.5 -55.5s65.5 -84.833 65.5 -143.5zM716.998 1348c0 21.333 -9.33301 38.5 -28 51.5s-43.667 19.5 -75 19.5c-30.667 0 -55.667 -6.33301 -75 -19s-29 -30 -29 -52s9.66699 -39.333 29 -52
s44.333 -19 75 -19s55.5 6.5 74.5 19.5s28.5 30.167 28.5 51.5z" />
    <glyph glyph-name="Uhungarumlaut" unicode="&#x170;" 
d="M599 -20c-164 0 -283.333 44.668 -358 134.001s-112 227.333 -112 414v821h295v-818c0 -116.667 13.5 -199.167 40.5 -247.5s74.5 -72.5 142.5 -72.5c69.333 0 119.666 25.667 150.999 77s47 135.666 47 252.999v808h295v-806c0 -190.667 -41.167 -332.167 -123.5 -424.5
s-208.166 -138.5 -377.499 -138.5zM406 1426h-142v34l225 245h235v-43zM812 1426h-142v34l225 245h235v-43z" />
    <glyph glyph-name="uhungarumlaut" unicode="&#x171;" 
d="M416 1082l-0.00195312 -607c0 -92 14.833 -162.5 44.5 -211.5s72.167 -73.5 127.5 -73.5c60 0 109.5 29.5 148.5 88.5s58.5 133.5 58.5 223.5v580h281v-840c0 -92 2.66699 -172.667 8 -242h-268c-8 96 -12 167.667 -12 215h-5
c-71.333 -156.667 -180.666 -235 -327.999 -235c-109.333 0 -192.666 34.833 -249.999 104.5s-86 173.167 -86 310.5v687h281zM402.998 1182h-142v34l225 245h235v-43zM808.998 1182h-142v34l225 245h235v-43z" />
    <glyph glyph-name="Uogonek" unicode="&#x172;" 
d="M599 -20c-164 0 -283.333 44.668 -358 134.001s-112 227.333 -112 414v821h295v-818c0 -116.667 13.5 -199.167 40.5 -247.5s74.5 -72.5 142.5 -72.5c69.333 0 119.666 25.667 150.999 77s47 135.666 47 252.999v808h295v-806c0 -190.667 -41.167 -332.167 -123.5 -424.5
s-208.166 -138.5 -377.499 -138.5zM716 -424.999c-74 0 -132 17.998 -174 53.998s-63 84.667 -63 146c0 50 14.5 97.333 43.5 142s67.167 79.334 114.5 104.001h153c-42 -28 -74 -61.167 -96 -99.5s-33 -75.166 -33 -110.499c0 -28 8.16699 -50.5 24.5 -67.5
s39.5 -25.5 69.5 -25.5c36 0 73.333 9 112 27v-137c-42 -22 -92.333 -33 -151 -33z" />
    <glyph glyph-name="uogonek" unicode="&#x173;" 
d="M416 1082l-0.00195312 -607c0 -92 14.833 -162.5 44.5 -211.5s72.167 -73.5 127.5 -73.5c60 0 109.5 29.5 148.5 88.5s58.5 133.5 58.5 223.5v580h281v-840c0 -92 2.66699 -172.667 8 -242h-268c-8 96 -12 167.667 -12 215h-5
c-71.333 -156.667 -180.666 -235 -327.999 -235c-109.333 0 -192.666 34.833 -249.999 104.5s-86 173.167 -86 310.5v687h281zM945.998 -425c-74 0 -132 17.998 -174 53.998s-63 84.667 -63 146c0 50 14.5 97.333 43.5 142s67.167 79.334 114.5 104.001h153
c-42 -28 -74 -61.167 -96 -99.5s-33 -75.166 -33 -110.499c0 -28 8.16699 -50.5 24.5 -67.5s39.5 -25.5 69.5 -25.5c36 0 73.333 9 112 27v-137c-42 -22 -92.333 -33 -151 -33z" />
    <glyph glyph-name="Wcircumflex" unicode="&#x174;" 
d="M1018 0h-248l-64 267c-33.333 126 -63.333 249 -90 369l-35 -147l-44 -177l-78 -312h-248l-211 1349h259l89 -695c8 -64 13.333 -152.667 16 -266l15 76l40 168l99 339h195l99 -339c8.66699 -30 16.167 -59.5 22.5 -88.5l32.5 -155.5l2 27c4 107.333 9.33301 187 16 239
l84 695h259zM983 1455v-28h-159l-203 134h-4l-211 -134h-160v28l258 250h229z" />
    <glyph glyph-name="wcircumflex" unicode="&#x175;" 
d="M1028 0l-243.999 -0.000976562l-143 471c-16.667 53.333 -25.667 87.333 -27 102c-0.666992 -6 -4.33398 -21.5 -11.001 -46.5s-62 -200.5 -166 -526.5h-243l-183 1082h228l83 -607c12.667 -101.333 19 -176.666 19 -225.999l20 74l157 494h193l140 -455
c10 -33.333 19.667 -71 29 -113c0 41.333 3.33301 89 10 143s40.667 284 102 690h226zM983.001 1211v-28h-159l-203 134h-4l-211 -134h-160v28l258 250h229z" />
    <glyph glyph-name="Ycircumflex" unicode="&#x176;" 
d="M761 556v-556h-294v556l-464 793h309l300 -566l304 566h309zM983 1455v-28h-159l-203 134h-4l-211 -134h-160v28l258 250h229z" />
    <glyph glyph-name="ycircumflex" unicode="&#x177;" 
d="M325 -425c-70.667 0 -131.335 4.33301 -182.002 13v200l51 -5l51 -3c40 0 73.167 6.33301 99.5 19s50 33.667 71 63s44.5 79 70.5 149l-448 1071h297l190 -527c26.667 -72.667 60.334 -184 101.001 -334l9 37l81 293l180 531h294l-448 -1139
c-53.333 -137.333 -111.666 -233 -174.999 -287s-144 -81 -242 -81zM982.999 1211v-28h-159l-203 134h-4l-211 -134h-160v28l258 250h229z" />
    <glyph glyph-name="Ydieresis" unicode="&#x178;" 
d="M761 556v-556h-294v556l-464 793h309l300 -566l304 566h309zM713 1445v219h227v-219h-227zM289 1445v219h224v-219h-224z" />
    <glyph glyph-name="Zacute" unicode="&#x179;" 
d="M1138 0h-1051v209l671 909h-595v231h934v-205l-671 -913h712v-231zM469 1429v31l252 243h258v-43l-340 -231h-170z" />
    <glyph glyph-name="zacute" unicode="&#x17a;" 
d="M138 0v199l570 680h-529v203h849v-201l-567 -676h616v-205h-939zM452 1184v31l252 243h258v-43l-340 -231h-170z" />
    <glyph glyph-name="Zdotaccent" unicode="&#x17b;" 
d="M1138 0h-1051v209l671 909h-595v231h934v-205l-671 -913h712v-231zM487 1421v207h281v-207h-281z" />
    <glyph glyph-name="zdotaccent" unicode="&#x17c;" 
d="M138 0v199l570 680h-529v203h849v-201l-567 -676h616v-205h-939zM471 1267v207h281v-207h-281z" />
    <glyph glyph-name="Zcaron" unicode="&#x17d;" 
d="M1138 0h-1051v209l671 909h-595v231h934v-205l-671 -913h712v-231zM743 1427h-229l-258 249v29h160l211 -134h4l203 134h159v-29z" />
    <glyph glyph-name="zcaron" unicode="&#x17e;" 
d="M138 0v199l570 680h-529v203h849v-201l-567 -676h616v-205h-939zM734 1183h-229l-258 249v29h160l211 -134h4l203 134h159v-29z" />
    <glyph glyph-name="longs" unicode="&#x17f;" 
d="M373 1165c0 116 36.5 203.167 109.5 261.5s177.167 87.5 312.5 87.5c106 0 215 -9.33301 327 -28v-184c-100 12.667 -192.667 19 -278 19c-65.333 0 -113.5 -13.5 -144.5 -40.5s-46.5 -74.167 -46.5 -141.5v-1139h-280v1165z" />
    <glyph glyph-name="uni0180" unicode="&#x180;" 
d="M15 1345l133 -0.000976562v139h281v-139h305v-170h-305v-145l-4 -176h4c32.667 74.667 76.334 128 131.001 160s119.334 48 194.001 48c123.333 0 217.166 -46.167 281.499 -138.5s96.5 -225.166 96.5 -398.499c0 -175.333 -33.833 -310 -101.5 -404
s-165.5 -141 -293.5 -141c-72.667 0 -134.834 16.833 -186.501 50.5s-91.167 81.5 -118.5 143.5h-5c0 -23.333 -1.5 -55.333 -4.5 -96s-6.16699 -66.667 -9.5 -78h-273c5.33301 62 8 144.333 8 247v928h-133v170zM839 524.999c0 118.667 -16.332 205.332 -48.999 259.999
s-84.334 82 -155.001 82c-73.333 0 -126.833 -29.667 -160.5 -89s-50.5 -146.666 -50.5 -261.999c0 -114.667 17 -200.667 51 -258s86.667 -86 158 -86c72 0 124.333 28.833 157 86.5s49 146.5 49 266.5z" />
    <glyph glyph-name="uni0181" unicode="&#x181;" 
d="M1173 385c0 -120.667 -41.333 -215.002 -124 -283.002s-197 -102 -343 -102h-402v1135h-28c-42 0 -63 -36.667 -63 -110c0 -34 10.333 -78.667 31 -134l-214 -17c-20 70 -30 137 -30 201c0 86 25.5 153.167 76.5 201.5s126.833 72.5 227.5 72.5h345
c145.333 0 255.5 -29.167 330.5 -87.5s112.5 -142.166 112.5 -251.499c0 -76.667 -22 -141.167 -66 -193.5s-111.667 -88.166 -203 -107.499c114 -12 200.833 -46 260.5 -102s89.5 -130 89.5 -222zM876 409.998c0 58.667 -17.668 103.833 -53.001 135.5
s-86.666 47.5 -153.999 47.5h-70v-374h77c133.333 0 200 63.667 200 191zM794.999 969.997c0 106.667 -55.667 160 -167 160h-29v-319h31c110 0 165 53 165 159z" />
    <glyph glyph-name="uni0182" unicode="&#x182;" 
d="M138 3v1346h917v-228h-622v-280h238c158 0 279 -35.833 363 -107.5s126 -172.5 126 -302.5c0 -85.333 -20.5 -160.5 -61.5 -225.5s-101 -115.5 -180 -151.5s-172.167 -54 -279.5 -54h-502zM861 425c0 62 -23 110.5 -69 145.5s-115 52.5 -207 52.5h-152v-404h158
c180 0 270 68.667 270 206z" />
    <glyph glyph-name="uni0183" unicode="&#x183;" 
d="M140 0c5.33301 90.667 7.99902 169.334 7.99902 236.001v1248h837v-213h-556v-181l-2 -178h2c27.333 60.667 68.5 107.667 123.5 141s119.5 50 193.5 50c124 0 219.333 -49 286 -147s100 -236.667 100 -416c0 -170 -35.667 -305.833 -107 -407.5
s-167.333 -152.5 -288 -152.5c-69.333 0 -130.166 16.5 -182.499 49.5s-93.5 81.833 -123.5 146.5h-4c0 -29.333 -2 -63.833 -6 -103.5s-7 -63.834 -9 -72.501h-272zM424.999 547c0 -80 8.83301 -147.667 26.5 -203s42.667 -97.833 75 -127.5s69.5 -44.5 111.5 -44.5
c64 0 113.5 30.667 148.5 92s52.5 153.333 52.5 276c0 122 -17.167 214.5 -51.5 277.5s-84.833 94.5 -151.5 94.5c-65.333 0 -116.833 -32 -154.5 -96s-56.5 -153.667 -56.5 -269z" />
    <glyph glyph-name="uni0184" unicode="&#x184;" 
d="M1160 431c0 -85.333 -20.5 -160.5 -61.5 -225.5s-101 -115.5 -180 -151.5s-172.167 -54 -279.5 -54h-502v943l-137 143v36l357 227h75v-508h239c158 0 279 -35.833 363 -107.5s126 -172.5 126 -302.5zM861 425c0 62 -23 110.5 -69 145.5s-115 52.5 -207 52.5h-153v-404
h159c180 0 270 68.667 270 206z" />
    <glyph glyph-name="uni0185" unicode="&#x185;" 
d="M140 0c5.33301 90.667 7.99902 169.334 7.99902 236.001v861l-143 143v36l349 208h75v-394l-2 -178h2c27.333 60.667 68.5 107.667 123.5 141s119.5 50 193.5 50c124 0 219.333 -49 286 -147s100 -236.667 100 -416c0 -170 -35.667 -305.833 -107 -407.5
s-167.333 -152.5 -288 -152.5c-69.333 0 -130.166 16.5 -182.499 49.5s-93.5 81.833 -123.5 146.5h-4c0 -29.333 -2 -63.833 -6 -103.5s-7 -63.834 -9 -72.501h-272zM424.999 547c0 -80 8.83301 -147.667 26.5 -203s42.667 -97.833 75 -127.5s69.5 -44.5 111.5 -44.5
c64 0 113.5 30.667 148.5 92s52.5 153.333 52.5 276c0 122 -17.167 214.5 -51.5 277.5s-84.833 94.5 -151.5 94.5c-65.333 0 -116.833 -32 -154.5 -96s-56.5 -153.667 -56.5 -269z" />
    <glyph glyph-name="uni0186" unicode="&#x186;" 
d="M872 681c0 304.667 -90.6699 457 -272.003 457c-50.667 0 -95.167 -19.5 -133.5 -58.5s-67.166 -93.833 -86.499 -164.5l-272 66c38.667 127.333 99.834 224 183.501 290s187.834 99 312.501 99c378.667 0 568 -229.667 568 -689c0 -224.667 -48.667 -397.667 -146 -519
s-236.333 -182 -417 -182c-147.333 0 -262.833 34.167 -346.5 102.5s-144.5 175.5 -182.5 321.5l273 52c45.333 -162.667 131.333 -244 258 -244c84 0 148.5 41 193.5 123s67.5 197.333 67.5 346z" />
    <glyph glyph-name="uni0187" unicode="&#x187;" 
d="M380 681c0 -158 20.999 -275.666 62.999 -352.999s107.333 -116 196 -116c32.667 0 61 7.5 85 22.5s45.167 38 63.5 69s38.833 81.833 61.5 152.5l273 -52c-46.667 -148.667 -109 -256.5 -187 -323.5s-177.667 -100.5 -299 -100.5c-370.667 0 -556 233.667 -556 701
c0 232.667 45 405.667 135 519s227.667 170 413 170c39.333 0 73.5 -3.5 102.5 -10.5s61.5 -19.5 97.5 -37.5v34c0 103.333 20.5 177.5 61.5 222.5s107.167 67.5 198.5 67.5c30.667 0 59.5 -2 86.5 -6s45.167 -7.66699 54.5 -11v-204c-20.667 8 -43 12 -67 12
c-26.667 0 -44.667 -9.33301 -54 -28s-14 -56.334 -14 -113.001v-315l-272 -66c-22.667 82.667 -48.667 140.5 -78 173.5s-66.666 49.5 -111.999 49.5c-90 0 -154.5 -38.833 -193.5 -116.5s-58.5 -191.167 -58.5 -340.5z" />
    <glyph glyph-name="uni0188" unicode="&#x188;" 
d="M746 727c-10 68.667 -28.168 116.168 -54.501 142.501s-63.5 39.5 -111.5 39.5c-66 0 -113.667 -26.333 -143 -79s-44 -147.334 -44 -284.001s14.833 -233.167 44.5 -289.5s78.5 -84.5 146.5 -84.5c53.333 0 93 16.833 119 50.5s43.333 83.834 52 150.501l282 -13
c-16 -120.667 -63.667 -214.167 -143 -280.5s-183.333 -99.5 -312 -99.5c-158.667 0 -279 47 -361 141s-123 232 -123 414c0 186 41.667 327 125 423s204.333 144 363 144c26.667 0 57.334 -3.5 92.001 -10.5s65.334 -16.167 92.001 -27.5
c5.33301 87.333 34.166 153.166 86.499 197.499s125.833 66.5 220.5 66.5c50 0 100.667 -5.66699 152 -17v-201c-38.667 8 -68 12 -88 12c-39.333 0 -67.833 -11.5 -85.5 -34.5s-26.5 -58.5 -26.5 -106.5v-240z" />
    <glyph glyph-name="uni0189" unicode="&#x189;" 
d="M1162 685c0 -220 -51.333 -389.167 -154 -507.5s-249 -177.5 -439 -177.5h-421v564h-134v219h134v566h361c218.667 0 382.167 -54.833 490.5 -164.5s162.5 -276.167 162.5 -499.5zM865 685c0 151.333 -28.5 261.833 -85.5 331.5s-148.833 104.5 -275.5 104.5h-61v-338
h207v-219h-207v-336h102c213.333 0 320 152.333 320 457z" />
    <glyph glyph-name="uni018A" unicode="&#x18a;" 
d="M1198 685c0 -220.667 -44.3311 -390 -132.998 -508s-215.334 -177 -380.001 -177h-381v1135h-28c-42 0 -63 -36.667 -63 -110c0 -34 10.333 -78.667 31 -134l-214 -17c-20 70 -30 137 -30 201c0 86 25.5 153.167 76.5 201.5s126.833 72.5 227.5 72.5h321
c191.333 0 334.666 -54.333 429.999 -163s143 -275.667 143 -501zM901.002 685c0 153.333 -22.168 264.333 -66.501 333s-115.833 103 -214.5 103h-21v-893h62c82.667 0 143.334 38.333 182.001 115s58 190.667 58 342z" />
    <glyph glyph-name="uni018B" unicode="&#x18b;" 
d="M1092 0h-501.999c-159.333 0 -286 38.667 -380 116s-141 182.333 -141 315c0 130 42.167 230.833 126.5 302.5s205.166 107.5 362.499 107.5h238v280h-522v228h817v-1346zM368.001 425c0 -137.333 90 -206 270 -206h158v404h-152c-92 0 -161 -17.5 -207 -52.5
s-69 -83.5 -69 -145.5z" />
    <glyph glyph-name="uni018C" unicode="&#x18c;" 
d="M817 0c-4 14 -7.50098 42 -10.501 84s-4.5 72.667 -4.5 92h-4c-35.333 -71.333 -79.166 -121.833 -131.499 -151.5s-113.833 -44.5 -184.5 -44.5c-119.333 0 -213.333 50 -282 150s-103 236.333 -103 409c0 176.667 34.5 314.334 103.5 413.001s166.5 148 292.5 148
c71.333 0 133.333 -16.167 186 -48.5s93 -79.833 121 -142.5h2l-2 178v184h-461v213h742v-1248c0 -66.667 2.66699 -145.334 8 -236.001h-272zM803.999 546c0 114.667 -18.668 203.834 -56.001 267.501s-89 95.5 -155 95.5c-66.667 0 -117.167 -31.167 -151.5 -93.5
s-51.5 -154.5 -51.5 -276.5c0 -122.667 17.5 -214.5 52.5 -275.5s84.5 -91.5 148.5 -91.5c41.333 0 78.333 14.833 111 44.5s57.834 72.167 75.501 127.5s26.5 122.666 26.5 201.999z" />
    <glyph glyph-name="uni018D" unicode="&#x18d;" 
d="M1160 552c0 -148 -37.168 -269.669 -111.501 -365.002s-180.166 -154.666 -317.499 -177.999l347 -253v-180h-923v203h537l-415 299c-64 46 -114.667 108.333 -152 187s-56 174.334 -56 287.001c0 111.333 21.5 208.5 64.5 291.5s105.833 146.833 188.5 191.5
s180.667 67 294 67c176 0 310.667 -47.167 404 -141.5s140 -230.5 140 -408.5zM865.999 551.998c0 238 -81.999 356.999 -245.999 356.999c-170.667 0 -256 -119 -256 -357c0 -117.333 21.167 -206.666 63.5 -267.999s102.166 -92 179.499 -92c172.667 0 259 120 259 360z
" />
    <glyph glyph-name="uni018E" unicode="&#x18e;" 
d="M1092 1349v-1349h-968v228h673v324h-612v228h612v341h-714v228h1009z" />
    <glyph glyph-name="uni018F" unicode="&#x18f;" 
d="M616 212c138.667 0 217.999 114.333 237.999 343h-478c10 -113.333 35.833 -198.833 77.5 -256.5s95.834 -86.5 162.501 -86.5zM601.999 1138c-54.667 0 -99.1689 -16.333 -133.502 -49s-63.166 -83.334 -86.499 -152.001l-264 73
c41.333 125.333 99.333 216.666 174 273.999s176.667 86 306 86c180 0 318.333 -62.167 415 -186.5s145 -301.166 145 -530.499c0 -213.333 -47 -378.833 -141 -496.5s-228.667 -176.5 -404 -176.5c-174 0 -307.667 58.833 -401 176.5s-140 283.167 -140 496.5
c0 52 2.33301 97.667 7 137h776c-8.66699 112.667 -35.667 198.834 -81 258.501s-102.666 89.5 -171.999 89.5z" />
    <glyph glyph-name="uni0190" unicode="&#x190;" 
d="M595 -20c-167.333 0 -296.001 36.002 -386.001 108.002s-135 172.667 -135 302c0 83.333 26 151.166 78 203.499s131.333 86.5 238 102.5c-100.667 25.333 -172.5 62.166 -215.5 110.499s-64.5 112.833 -64.5 193.5c0 112.667 43.5 202.334 130.5 269.001
s207.167 100 360.5 100c142.667 0 256.667 -29.667 342 -89s151.333 -157.333 198 -294l-268 -61c-26 84 -59.667 142.833 -101 176.5s-96.666 50.5 -165.999 50.5c-72 0 -125.167 -14.333 -159.5 -43s-51.5 -73.334 -51.5 -134.001c0 -64.667 20.333 -110.167 61 -136.5
s112 -39.5 214 -39.5h59v-227h-59c-118.667 0 -199.667 -12.333 -243 -37s-65 -69 -65 -133s19.167 -112.333 57.5 -145s100.166 -49 185.499 -49c76.667 0 139.334 19 188.001 57s88.667 100 120 186l264 -93c-46 -134 -115.5 -230.5 -208.5 -289.5
s-217.5 -88.5 -373.5 -88.5z" />
    <glyph glyph-name="uni0191" unicode="&#x191;" 
d="M462 1121v-384.001h621v-228h-621v-541c0 -133.333 -25.167 -232.166 -75.5 -296.499s-130.833 -96.5 -241.5 -96.5c-38 0 -86.333 6.66699 -145 20v220c37.333 -8.66699 62.333 -13 75 -13c37.333 0 62 11.5 74 34.5s18 63.5 18 121.5v1391h939v-228h-644z" />
    <glyph glyph-name="florin" unicode="&#x192;" 
d="M1066 1158c-18 6 -43.002 11.167 -75.002 15.5s-58.667 6.5 -80 6.5c-53.333 0 -91.666 -9 -114.999 -27s-39.666 -51.333 -48.999 -100l-20 -107h302l-36 -190h-303l-232 -1181h-281l232 1181h-208l37 190h208l27 135c18 100 59.667 173.167 125 219.5
s156.333 69.5 273 69.5c48 0 96.167 -4.16699 144.5 -12.5s80.833 -15.833 97.5 -22.5z" />
    <glyph glyph-name="uni0193" unicode="&#x193;" 
d="M1128 185c-162 -136.667 -326.332 -205 -492.999 -205c-174 0 -310 61.167 -408 183.5s-147 294.833 -147 517.5c0 459.333 186 689 558 689c73.333 0 138.666 -11.667 195.999 -35v5c0 104 20 178.333 60 223s105.667 67 197 67c60.667 0 106.667 -5.66699 138 -17v-204
c-20.667 8 -42 12 -64 12c-26 0 -43.333 -8.66699 -52 -26s-13 -55.666 -13 -114.999v-285l-274 -54c-35.333 131.333 -97 197 -185 197c-90.667 0 -157 -36.667 -199 -110s-63 -189 -63 -347c0 -148.667 22.333 -263.334 67 -344.001s112.667 -121 204 -121
c35.333 0 71.833 6.66699 109.5 20s70.5 31.333 98.5 54v235h-274v218h544v-558z" />
    <glyph glyph-name="uni0194" unicode="&#x194;" 
d="M3 1349l308 -0.000976562l309 -816l302 816h305l-459 -1079c68 -123.333 112.833 -214.666 134.5 -273.999s32.5 -108.333 32.5 -147c0 -88.667 -27.5 -156.5 -82.5 -203.5s-132.5 -70.5 -232.5 -70.5c-98.667 0 -175.667 24.167 -231 72.5s-83 115.833 -83 202.5
c0 42 9.83301 91 29.5 147s64.167 147 133.5 273zM698 -121.001c0 24.667 -4.83301 51.833 -14.5 81.5s-30.834 74.5 -63.501 134.5c-30 -54.667 -48.5 -91.5 -55.5 -110.5s-12.333 -36.667 -16 -53s-5.5 -33.5 -5.5 -51.5c0 -32 7.16699 -55.5 21.5 -70.5
s32.833 -22.5 55.5 -22.5s41.334 7.33301 56.001 22s22 38 22 70z" />
    <glyph glyph-name="uni0195" unicode="&#x195;" 
d="M828 -20c-106 0 -186.998 39.834 -242.998 119.501s-84 198.5 -84 356.5v150l3 146c0 52.667 -6.16699 89 -18.5 109s-31.833 30 -58.5 30c-82 0 -123 -104 -123 -312v-579h-229v1484h229v-405l-2 -125l-3 -88h3c28.667 92 58 154.333 88 187s69 49 117 49
c74 0 129.5 -33.5 166.5 -100.5s55.5 -172.167 55.5 -315.5v-238c0 -101.333 7.66699 -169.5 23 -204.5s40.666 -52.5 75.999 -52.5c24 0 43.167 8.16699 57.5 24.5s24.666 40.666 30.999 72.999s9.5 85.5 9.5 159.5v634h228v-626c0 -152 -28 -269.333 -84 -352
s-136.667 -124 -242 -124z" />
    <glyph glyph-name="uni0196" unicode="&#x196;" 
d="M157 1349h916v-228h-311v-893h311v-228h-916v228h311v893h-311v228z" />
    <glyph glyph-name="uni0197" unicode="&#x197;" 
d="M157 1349h916v-228h-316v-324h242v-228h-242v-341h316v-228h-916v228h316v341h-243v228h243v324h-316v228z" />
    <glyph glyph-name="uni0198" unicode="&#x198;" 
d="M881 0l-323 557l-127 -142v-415h-295v980c0 260 110.667 390 332 390c47.333 0 101 -6.66699 161 -20v-220c-45.333 8.66699 -77 13 -95 13c-34 0 -59.667 -8.66699 -77 -26s-26 -50 -26 -98v-269l436 599h343l-460 -579l479 -770h-348z" />
    <glyph glyph-name="uni0199" unicode="&#x199;" 
d="M864 0l-289.001 490l-121 -84v-406h-281v1203c0 92 29.167 163.333 87.5 214s138.833 76 241.5 76c64.667 0 125.334 -5.66699 182.001 -17v-201c-12 3.33301 -30.5 6.16602 -55.5 8.49902s-44.5 3.5 -58.5 3.5c-40.667 0 -70.167 -11.667 -88.5 -35
s-27.5 -58.666 -27.5 -105.999v-512l386 448h302l-380 -422l409 -660h-307z" />
    <glyph glyph-name="uni019A" unicode="&#x19a;" 
d="M794 826h225v-187h-225v-449h353v-190h-1029v190h395v449h-223v187h223v468h-290v190h571v-658z" />
    <glyph glyph-name="uni019B" unicode="&#x19b;" 
d="M107 1159l284 121l-82 204h298l37 -96l181 78l74 -173l-187 -80l469 -1213h-294l-265 797l-256 -797h-297l408 1071l-15 35l-281 -120z" />
    <glyph glyph-name="uni019C" unicode="&#x19c;" 
d="M728 1349l-0.00195312 -924.999c0 -102 5.83301 -171.667 17.5 -209s33.834 -56 66.501 -56c32 0 57.167 29.5 75.5 88.5s27.5 143.167 27.5 252.5v849h236v-1118c0 -126 2 -203 6 -231h-209l-5 127l-1 48h-2c-22.667 -68 -51.334 -117.5 -86.001 -148.5
s-78 -46.5 -130 -46.5c-58.667 0 -103 16 -133 48s-51.333 81.333 -64 148h-2c-27.333 -72 -59.166 -122.667 -95.499 -152s-82.166 -44 -137.499 -44c-78.667 0 -135 28.667 -169 86s-51 155.666 -51 294.999v988h235v-925c0 -104.667 5.66699 -175 17 -211
s32.333 -54 63 -54c34 0 60.333 26.833 79 80.5s28 134.167 28 241.5v868h234z" />
    <glyph glyph-name="uni019D" unicode="&#x19d;" 
d="M748 0l-384 1010c18.667 -168 28 -286 28 -354v-714c0 -139.333 -20.167 -235.333 -60.5 -288s-111.833 -79 -214.5 -79c-49.333 0 -104.333 6.66699 -165 20v230c45.333 -8.66699 77 -13 95 -13c34 0 57.167 10 69.5 30s18.5 62 18.5 126v1381h337l393 -1037
c-18.667 156.667 -28 278.334 -28 365.001v672h257v-1349h-346z" />
    <glyph glyph-name="uni019E" unicode="&#x19e;" 
d="M824 -424l0.00195312 1043c0 94 -12.833 163 -38.5 207s-69.834 66 -132.501 66c-69.333 0 -124.833 -29.5 -166.5 -88.5s-62.5 -133.5 -62.5 -223.5v-580h-281v840c0 92 -2.66699 172.667 -8 242h268c2 -12.667 4.66699 -46.5 8 -101.5s5 -92.833 5 -113.5h4
c38 82.667 85.667 142.667 143 180s125.666 56 204.999 56c224 0 336 -138.667 336 -416v-1111h-280z" />
    <glyph glyph-name="uni019F" unicode="&#x19f;" 
d="M1157 679c0 -230 -46.667 -404 -140 -522s-227.333 -177 -402 -177s-308.834 59 -402.501 177s-140.5 292 -140.5 522s46.833 402.667 140.5 518s227.834 173 402.501 173s308.667 -57.667 402 -173s140 -288 140 -518zM615 212c142 0 221.668 122.667 239.001 368h-480
c17.333 -245.333 97.666 -368 240.999 -368zM615.001 1138c-136.667 0 -216 -108.333 -238 -325h475c-22 216.667 -101 325 -237 325z" />
    <glyph glyph-name="Ohorn" unicode="&#x1a0;" 
d="M1117 679c0 -466 -174 -698.999 -522 -698.999c-174.667 0 -305.5 59 -392.5 177s-130.5 292 -130.5 522c0 460.667 174.333 691 523 691c132.667 0 239 -33.667 319 -101s137 -168.333 171 -303c50 46.667 75 107.667 75 183h-92v260h213v-210
c0 -84 -14.5 -157.833 -43.5 -221.5s-71.5 -115.5 -127.5 -155.5c4.66699 -52.667 7 -100.334 7 -143.001zM818 679.001c0 154.667 -17.167 269.834 -51.5 345.501s-91.5 113.5 -171.5 113.5s-137.333 -38.333 -172 -115s-52 -191.334 -52 -344.001s17.333 -268.667 52 -348
s92 -119 172 -119s137.167 39.667 171.5 119s51.5 195.333 51.5 348z" />
    <glyph glyph-name="ohorn" unicode="&#x1a1;" 
d="M586 1102c308 0 471.001 -165.001 489.001 -495.001c56 42.667 84 114.334 84 215.001h-100v260h212v-210c0 -106 -15.833 -192.167 -47.5 -258.5s-81.5 -114.833 -149.5 -145.5c-11.333 -156 -59.333 -276.333 -144 -361s-201.334 -127 -350.001 -127
c-155.333 0 -275.5 48.667 -360.5 146s-127.5 236 -127.5 416c0 179.333 42.333 317.5 127 414.5s207 145.5 367 145.5zM783.001 541.999c0 127.333 -14.833 220.333 -44.5 279s-79.5 88 -149.5 88c-72 0 -123.667 -29.333 -155 -88s-47 -151.667 -47 -279
c0 -126 15.5 -219.167 46.5 -279.5s79.167 -90.5 144.5 -90.5c74 0 126.667 29.833 158 89.5s47 153.167 47 280.5z" />
    <glyph glyph-name="uni01A2" unicode="&#x1a2;" 
d="M522 -19c-155.333 0 -272.5 60 -351.5 180s-118.5 293.333 -118.5 520c0 212.667 40.667 380.5 122 503.5s194 184.5 338 184.5c83.333 0 161.333 -22 234 -66l328 60h76v-1769h-230v1519h-102v-1015l-9 -19c-90 -65.333 -185.667 -98 -287 -98zM589 1137
c-21.333 16.667 -48.333 25 -81 25c-67.333 0 -119.666 -42.667 -156.999 -128s-56 -203 -56 -353c0 -152.667 20 -273.167 60 -361.5s95.667 -132.5 167 -132.5c25.333 0 47.666 5.33301 66.999 16v934z" />
    <glyph glyph-name="uni01A3" unicode="&#x1a3;" 
d="M941 -403v1272h-112v-796c-42 -28.667 -89.667 -51.167 -143 -67.5s-107 -24.5 -161 -24.5c-157.333 0 -277 47.333 -359 142s-123 234.334 -123 419.001c0 372.667 162.667 559 488 559c100 0 190.667 -22.667 272 -68l287 60h74v-1496h-223zM534 916.999
c-89.333 0 -154.001 -30 -194.001 -90s-60 -155 -60 -285c0 -126 19.5 -220.333 58.5 -283s100.5 -94 184.5 -94c32.667 0 61.334 3.66699 86.001 11l-1 732c-17.333 6 -42 9 -74 9z" />
    <glyph glyph-name="uni01A4" unicode="&#x1a4;" 
d="M1177 923c0 -139.333 -44.167 -248.668 -132.5 -328.001s-212.166 -119 -371.499 -119h-75v-476h-285v1135h-37c-42 0 -63 -36.667 -63 -110c0 -34 10.333 -78.667 31 -134l-214 -17c-20 70 -30 137 -30 201c0 86 27.167 153.167 81.5 201.5s131.833 72.5 232.5 72.5h347
c169.333 0 297.666 -35.667 384.999 -107s131 -177.666 131 -318.999zM880 917.998c0 72.667 -20.168 124.5 -60.501 155.5s-104.166 46.5 -191.499 46.5h-30v-417h38c87.333 0 149.833 18.333 187.5 55s56.5 90 56.5 160z" />
    <glyph glyph-name="uni01A5" unicode="&#x1a5;" 
d="M559 1277c-88 0 -132.001 -43.666 -132.001 -130.999v-240h4c32 63.333 74.833 112 128.5 146s116.167 51 187.5 51c120 0 214.167 -50.333 282.5 -151s102.5 -237 102.5 -409c0 -176.667 -34.5 -314.667 -103.5 -414s-166.5 -149 -292.5 -149
c-71.333 0 -133.333 16.167 -186 48.5s-93 79.833 -121 142.5h-2l2 -178v-418h-281v1628c0 91.333 29.167 162.5 87.5 213.5s139.5 76.5 243.5 76.5c32.667 0 69.334 -2 110.001 -6s68.667 -7.66699 84 -11v-211c-12 3.33301 -30.5 6.16602 -55.5 8.49902
s-44.5 3.5 -58.5 3.5zM424.999 536.001c0 -79.333 8.66699 -145.832 26 -199.499s41.833 -94.667 73.5 -123s68.834 -42.5 111.501 -42.5c67.333 0 118 31.667 152 95s51 155.666 51 276.999c0 122.667 -17.5 214.667 -52.5 276s-84.5 92 -148.5 92
c-41.333 0 -78.333 -14.833 -111 -44.5s-57.834 -72.167 -75.501 -127.5s-26.5 -123 -26.5 -203z" />
    <glyph glyph-name="uni01A6" unicode="&#x1a6;" 
d="M893 -310l-315 659h-146v-349h-295v1349h295v-166h199c176 0 307.667 -34.5 395 -103.5s131 -167.833 131 -296.5c0 -96 -27.167 -176.833 -81.5 -242.5s-130.833 -110.5 -229.5 -134.5l366 -716h-319zM860 771c0 62.667 -20.667 108.833 -62 138.5
s-107.333 44.5 -198 44.5h-168v-376h176c168 0 252 64.333 252 193z" />
    <glyph glyph-name="uni01A7" unicode="&#x1a7;" 
d="M64 391c0 48.667 7.16699 91.8301 21.5 129.497s33.833 70.667 58.5 99s53.834 53 87.501 74s70.834 39.5 111.501 55.5s109 37 205 63c98 25.333 162 45.333 192 60s53.833 32.834 71.5 54.501s26.5 48.834 26.5 81.501c0 49.333 -18.5 87.166 -55.5 113.499
s-91.167 39.5 -162.5 39.5c-126 0 -203.667 -61 -233 -183l-286 29c24.667 124 79 215.5 163 274.5s200.667 88.5 350 88.5c153.333 0 276.833 -34 370.5 -102s140.5 -160.333 140.5 -277c0 -53.333 -9.5 -101.666 -28.5 -144.999s-46.333 -80.833 -82 -112.5
s-83.334 -60.5 -143.001 -86.5s-160.167 -56 -301.5 -90c-72.667 -18 -127.334 -42.167 -164.001 -72.5s-55 -67.166 -55 -110.499c0 -59.333 21.167 -103 63.5 -131s107.5 -42 195.5 -42c84.667 0 151.334 18.167 200.001 54.5s80.667 85.833 96 148.5l285 -37
c-28 -126 -91.333 -222 -190 -288s-226.334 -99 -383.001 -99c-174 0 -309.833 36.5 -407.5 109.5s-146.5 173.5 -146.5 301.5z" />
    <glyph glyph-name="uni01A8" unicode="&#x1a8;" 
d="M125 316c0 64 13.6641 117.334 40.9971 160.001s66 77.834 116 105.501s131.667 53.5 245 77.5l113 26c60 12 102.833 27.167 128.5 45.5s38.5 43.166 38.5 74.499c0 40 -16.667 68.5 -50 85.5s-83.333 25.5 -150 25.5c-68 0 -117.667 -11 -149 -33s-51 -54.667 -59 -98
l-249 26c19.333 94.667 68.166 167 146.499 217s181.833 75 310.5 75c146 0 258.833 -28.833 338.5 -86.5s119.5 -138.167 119.5 -241.5c0 -63.333 -14.667 -116.5 -44 -159.5s-71.666 -77.833 -126.999 -104.5s-161.666 -55.667 -318.999 -87
c-67.333 -14 -116.166 -31.167 -146.499 -51.5s-45.5 -47.833 -45.5 -82.5c0 -43.333 18.167 -74.833 54.5 -94.5s93.5 -29.5 171.5 -29.5c84.667 0 144.334 10.5 179.001 31.5s59 57.5 73 109.5l247 -37c-25.333 -98.667 -77.333 -171.667 -156 -219s-193 -71 -343 -71
c-150.667 0 -269 29.667 -355 89s-129 141.666 -129 246.999z" />
    <glyph glyph-name="uni01A9" unicode="&#x1a9;" 
d="M100 0v234l458 477l-441 405v233h979v-244h-642l361 -327v-134l-394 -400h736v-244h-1057z" />
    <glyph glyph-name="uni01AA" unicode="&#x1aa;" 
d="M186 1286c0 62.667 20.999 112.335 62.999 149.002s98.667 55 170 55c111.333 0 194.833 -32.333 250.5 -97s83.5 -160.334 83.5 -287.001v-1174c0 -94 39.667 -141 119 -141c12.667 0 31.834 1.16699 57.501 3.5s44.5 5.16602 56.5 8.49902v-211
c-45.333 -11.333 -106 -17 -182 -17c-219.333 0 -329 109.667 -329 329v1201c-29.333 -14.667 -61.333 -22 -96 -22c-59.333 0 -106.333 18.667 -141 56s-52 86.333 -52 147zM305.999 1286c0 -26.667 8.5 -47.834 25.5 -63.501s37.5 -23.5 61.5 -23.5
s44.333 7.83301 61 23.5s25 36.834 25 63.501s-8.33301 47.834 -25 63.501s-37 23.5 -61 23.5s-44.5 -7.83301 -61.5 -23.5s-25.5 -36.834 -25.5 -63.501z" />
    <glyph glyph-name="uni01AB" unicode="&#x1ab;" 
d="M328 892h-166.999v190h181l88 282h176v-282h385v-190h-385v-530c0 -58.667 5.33301 -98.334 16 -119.001s28.334 -36.667 53.001 -48s59.667 -17 105 -17c82.667 0 167.667 9 255 27v-312c0 -95.333 -25.333 -169.666 -76 -222.999s-128 -80 -232 -80
c-50.667 0 -106.334 6.66699 -167.001 20v201c48 -10 84.667 -15 110 -15c78.667 0 118 47 118 141v52l-77 -2c-92.667 0 -166.834 13 -222.501 39s-96.667 62.667 -123 110s-39.5 114 -39.5 200z" />
    <glyph glyph-name="uni01AC" unicode="&#x1ac;" 
d="M346 1121c-88.667 0 -133.001 -32 -133.001 -96c0 -34 10.333 -78.667 31 -134l-214 -17c-20 70 -30 137 -30 201c0 84 27.833 150.667 83.5 200s132.834 74 231.501 74h853v-228h-406v-1121h-295v1121h-121z" />
    <glyph glyph-name="uni01AD" unicode="&#x1ad;" 
d="M328 892l-166.999 0.00195312v190h164v71c0 119.333 31.667 205.833 95 259.5s160 80.5 290 80.5c42 0 81.833 -1.33301 119.5 -4s105.834 -12 204.501 -28v-186c-87.333 18 -172.333 27 -255 27c-42.667 0 -76.334 -5.33301 -101.001 -16
s-42.834 -25.834 -54.501 -45.501s-17.5 -51.167 -17.5 -94.5v-64h385v-190h-385v-530c0 -58.667 5.33301 -98.334 16 -119.001s28.334 -36.667 53.001 -48s59.667 -17 105 -17c82.667 0 167.667 9 255 27v-186c-94.667 -15.333 -161.667 -24.5 -201 -27.5
s-80.333 -4.5 -123 -4.5c-92.667 0 -166.834 13 -222.501 39s-96.667 62.667 -123 110s-39.5 114 -39.5 200z" />
    <glyph glyph-name="uni01AE" unicode="&#x1ae;" 
d="M762 1121v-1163c0 -52.667 9 -91.834 27 -117.501s48.333 -38.5 91 -38.5c18 0 49.667 4.33301 95 13v-220c-60.667 -13.333 -115.667 -20 -165 -20c-113.333 0 -198.833 30.667 -256.5 92s-86.5 157.333 -86.5 288v1166h-406v228h1107v-228h-406z" />
    <glyph glyph-name="Uhorn" unicode="&#x1af;" 
d="M569 -20c-156 0 -268.333 42.334 -337 127.001s-103 225 -103 421v821h295v-818c0 -119.333 11.333 -202.5 34 -249.5s62.334 -70.5 119.001 -70.5c59.333 0 102.166 26.167 128.499 78.5s39.5 136.166 39.5 251.499v808h295v-449
c55.333 12.667 96.666 40.667 123.999 84s41 98.333 41 165h-102v260h214v-210c0 -124 -22.333 -222.5 -67 -295.5s-114.667 -119.5 -210 -139.5v-221c0 -194 -37.167 -336.333 -111.5 -427s-194.166 -136 -359.499 -136z" />
    <glyph glyph-name="uhorn" unicode="&#x1b0;" 
d="M416 1082l0.00195312 -607.003c0 -109.333 11.667 -184.166 35 -224.499s59 -60.5 107 -60.5c55.333 0 98.666 27.833 129.999 83.5s47 131.834 47 228.501v580h281v-520c56.667 10.667 101 39 133 85s48 104.333 48 175h-101v260h212v-210
c0 -126 -23.667 -225.667 -71 -299s-121 -119.666 -221 -138.999v-192c0 -58 0.833008 -105.5 2.5 -142.5s3.5 -70.167 5.5 -99.5h-268c-2.66699 16.667 -5.16699 49 -7.5 97s-3.83301 87.333 -4.5 118h-5c-37.333 -82 -79 -141.667 -125 -179s-103.667 -56 -173 -56
c-102.667 0 -179.334 31.667 -230.001 95s-76 170 -76 320v687h281z" />
    <glyph glyph-name="uni01B1" unicode="&#x1b1;" 
d="M614 206c80 0 143.667 34.334 191 103.001s71 164 71 286c0 89.333 -14.5 168.333 -43.5 237s-78.833 139.667 -149.5 213v304h495v-228h-112c-42.667 0 -102 3.66699 -178 11c181.333 -144.667 272 -338.334 272 -581.001c0 -112.667 -23.667 -212.5 -71 -299.5
s-112.833 -154.167 -196.5 -201.5s-176.5 -71 -278.5 -71c-101.333 0 -194 23.667 -278 71s-149.667 114.666 -197 201.999s-71 187 -71 299c0 242.667 90.667 436.334 272 581.001c-73.333 -7.33301 -131.333 -11 -174 -11h-116v228h495v-304
c-70.667 -73.333 -120.5 -144 -149.5 -212s-43.5 -147.333 -43.5 -238c0 -122 23.667 -217.333 71 -286s111 -103 191 -103z" />
    <glyph glyph-name="uni01B2" unicode="&#x1b2;" 
d="M597 211c89.333 0 152.999 19 190.999 57s64.167 102 78.5 192s21.5 229 21.5 417c0 92 -12 159 -36 201s-65 63 -123 63c-28.667 0 -65.667 -4.33301 -111 -13v220c60 13.333 137.333 20 232 20c221.333 0 332 -158.667 332 -476c0 -252 -18.667 -439.333 -56 -562
s-98.333 -211.667 -183 -267s-203 -83 -355 -83c-167.333 0 -290.666 45.167 -369.999 135.5s-119 227.833 -119 412.5v821h295v-818c0 -111.333 16 -192.5 48 -243.5s83.667 -76.5 155 -76.5z" />
    <glyph glyph-name="uni01B3" unicode="&#x1b3;" 
d="M671 506l0.00195312 -506h-294v506l-374 843h309l210 -566l141 369c30 83.333 64.667 140.5 104 171.5s92.666 46.5 159.999 46.5c104.667 0 204 -43 298 -129l-109 -185c-46.667 41.333 -89.334 62 -128.001 62c-28 0 -51.5 -8.66699 -70.5 -26s-35.5 -44.333 -49.5 -81
z" />
    <glyph glyph-name="uni01B4" unicode="&#x1b4;" 
d="M1181 1493c84 0 165.998 -24.6689 245.998 -74.002l-95 -196c-37.333 24 -74 36 -110 36c-29.333 0 -52.5 -9.83301 -69.5 -29.5s-30.833 -45.167 -41.5 -76.5l-411 -1210c-51.333 -136.667 -108.666 -232.167 -171.999 -286.5s-145 -81.5 -245 -81.5
c-67.333 0 -126.333 4.33301 -177 13v200c35.333 -5.33301 67.666 -8 96.999 -8c58.667 0 104.334 13.833 137.001 41.5s61.334 74.834 86.001 141.501l18 48l-428 1071h297l170 -507c8 -22.667 25 -77.167 51 -163.5s42.667 -143.166 50 -170.499l9 37l81 293l210 657
c29.333 93.333 68.833 160.833 118.5 202.5s109.167 62.5 178.5 62.5z" />
    <glyph glyph-name="uni01B5" unicode="&#x1b5;" 
d="M1138 0h-1051v209l294 399h-303v197h449l231 313h-595v231h934v-205l-249 -339h255v-197h-400l-277 -377h712v-231z" />
    <glyph glyph-name="uni01B6" unicode="&#x1b6;" 
d="M138 0v199l215 257h-219v177h368l206 246h-529v203h849v-201l-208 -248h222v-177h-371l-210 -251h616v-205h-939z" />
    <glyph glyph-name="uni01B7" unicode="&#x1b7;" 
d="M593 -414c-143.333 0 -261.169 30.333 -353.502 91s-163.5 155.334 -213.5 284.001l258 101c36 -87.333 77.833 -149.833 125.5 -187.5s105.834 -56.5 174.501 -56.5c107.333 0 185.166 27.833 233.499 83.5s72.5 140.167 72.5 253.5
c0 73.333 -14.167 132.666 -42.5 177.999s-70.166 78.5 -125.499 99.5s-133.666 31.5 -234.999 31.5h-128v231l417 423h-690v231h1050v-205l-474 -467c172.667 -8 302 -55.833 388 -143.5s129 -210.167 129 -367.5c0 -183.333 -51.333 -325.833 -154 -427.5
s-246.667 -152.5 -432 -152.5z" />
    <glyph glyph-name="uni01B8" unicode="&#x1b8;" 
d="M636 -414c-185.333 0 -329.333 50.668 -432 152.001s-154 244 -154 428c0 158.667 43.333 281.5 130 368.5s215.667 134.5 387 142.5l-474 467v205h1050v-231h-690l417 -423v-231h-128c-101.333 0 -179.5 -10.5 -234.5 -31.5s-96.833 -54 -125.5 -99
s-43 -104.5 -43 -178.5c0 -114 24.167 -198.667 72.5 -254s126.166 -83 233.499 -83c68.667 0 127 19 175 57s89.667 100.333 125 187l258 -101c-50 -128.667 -121.167 -223.334 -213.5 -284.001s-210.166 -91 -353.499 -91z" />
    <glyph glyph-name="uni01B9" unicode="&#x1b9;" 
d="M639 -241c58 0 106.167 15.8301 144.5 47.4971s60.833 82.834 67.5 153.501l277 -13c-16 -121.333 -67.167 -215.166 -153.5 -281.499s-198.833 -99.5 -337.5 -99.5c-162.667 0 -291.167 43.667 -385.5 131s-141.5 205.333 -141.5 354c0 133.333 37 240.333 111 321
s178.333 127.667 313 141l-364 374v195h902v-203h-565l336 -356v-189h-102c-122 0 -210 -24.167 -264 -72.5s-81 -124.166 -81 -227.499c0 -183.333 81 -275 243 -275z" />
    <glyph glyph-name="uni01BA" unicode="&#x1ba;" 
d="M1114 -99c-22.667 -104 -81.5 -185.836 -176.5 -245.503s-214.833 -89.5 -359.5 -89.5c-85.333 0 -162.166 12.667 -230.499 38s-121.666 61.833 -159.999 109.5s-57.5 104.834 -57.5 171.501c0 58 16 108.167 48 150.5s77.833 76.833 137.5 103.5s151.5 54 275.5 82
c73.333 16 127.166 34.167 161.499 54.5s51.5 45.166 51.5 74.499c0 30 -8.33301 52.833 -25 68.5s-42.667 26.834 -78 33.501s-108.333 10 -219 10h-102v144l303 273h-538v203h902v-163l-346 -295c138.667 -3.33301 238.167 -27.333 298.5 -72s90.5 -113.334 90.5 -206.001
c0 -54 -14.833 -100.833 -44.5 -140.5s-73.834 -73.5 -132.501 -101.5s-157 -58.667 -295 -92c-78.667 -19.333 -134.834 -39.166 -168.501 -59.499s-50.5 -44.166 -50.5 -71.499c0 -37.333 18.333 -67 55 -89s88.334 -33 155.001 -33c65.333 0 118.333 15.333 159 46
s64.667 75.334 72 134.001z" />
    <glyph glyph-name="uni01BB" unicode="&#x1bb;" 
d="M123 0l0.00195312 194.999c53.333 116.667 141.666 232.667 264.999 348h-266v191h491c57.333 48.667 97.166 85.667 119.499 111s39.5 50.166 51.5 74.499s18 48.5 18 72.5c0 48 -15.667 85.667 -47 113s-77.333 41 -138 41c-60 0 -105.833 -16.167 -137.5 -48.5
s-52.167 -80.833 -61.5 -145.5l-283 16c16 130.667 64.833 230.334 146.5 299.001s192.834 103 333.501 103c145.333 0 260.333 -33.167 345 -99.5s127 -155.166 127 -266.499c0 -93.333 -37.333 -183.333 -112 -270h104v-191h-315
c-100 -79.333 -163.833 -132.166 -191.5 -158.499s-51.334 -51.833 -71.001 -76.5s-35.167 -50.334 -46.5 -77.001h654v-231h-986z" />
    <glyph glyph-name="uni01BC" unicode="&#x1bc;" 
d="M110 1350l980.999 0.000976562v-229h-531v-226h36c172 0 301.833 -36.833 389.5 -110.5s131.5 -181.5 131.5 -323.5c0 -158.667 -43.667 -278.5 -131 -359.5s-217.666 -121.5 -390.999 -121.5c-138.667 0 -251.5 33.667 -338.5 101s-138.833 161.666 -155.5 282.999
l282 13c26.667 -116 100 -174 220 -174c79.333 0 136.833 20 172.5 60s53.5 102 53.5 186c0 80 -20.167 139 -60.5 177s-106.833 57 -199.5 57h-285v450h-174v217z" />
    <glyph glyph-name="uni01BD" unicode="&#x1bd;" 
d="M140 1082l912 -0.00292969v-203h-507v-184h80c161.333 0 283.333 -30.667 366 -92s124 -150.666 124 -267.999c0 -71.333 -19.167 -133.666 -57.5 -186.999s-93.666 -94.666 -165.999 -123.999s-161.166 -44 -266.499 -44c-132 0 -242 29.833 -330 89.5
s-144 141.167 -168 244.5l271 18c23.333 -106.667 102.666 -160 237.999 -160c64 0 114.833 13 152.5 39s56.5 67.333 56.5 124c0 61.333 -21.333 105.833 -64 133.5s-107.334 41.5 -194.001 41.5h-288v369h-159v203z" />
    <glyph glyph-name="uni01BE" unicode="&#x1be;" 
d="M163 892l-136.999 0.000976562v190h151l88 254h176v-254h205v-190h-205v-77c0 -26 6.5 -47.333 19.5 -64s33 -30.834 60 -42.501s87.5 -28.167 181.5 -49.5c116 -26.667 198.667 -53.667 248 -81s87.333 -62 114 -104s40 -94.667 40 -158
c0 -104.667 -42.833 -186.834 -128.5 -246.501s-204.167 -89.5 -355.5 -89.5c-148.667 0 -262.5 23.5 -341.5 70.5s-131.5 120.167 -157.5 219.5l247 37c14 -51.333 38.167 -87.666 72.5 -108.999s94.166 -32 179.499 -32c78 0 135.167 9.83301 171.5 29.5
s54.5 51.167 54.5 94.5c0 34.667 -14.5 62.167 -43.5 82.5s-78.167 37.5 -147.5 51.5c-156.667 30.667 -263 60.5 -319 89.5s-98.833 67.5 -128.5 115.5s-44.5 107.667 -44.5 179v84z" />
    <glyph glyph-name="uni01BF" unicode="&#x1bf;" 
d="M1151 668c0 -210 -58.334 -384.168 -175.001 -522.501s-305 -259.833 -565 -364.5v-206h-281v1507h265c4.66699 -35.333 8.66699 -90 12 -164h4c34 60.667 79.167 107 135.5 139s122.166 48 197.499 48c86.667 0 160.334 -18.333 221.001 -55
s106.834 -88.167 138.501 -154.5s47.5 -142.166 47.5 -227.499zM864.999 638.999c0 180.667 -72.667 271 -218 271c-74.667 0 -132.667 -29.167 -174 -87.5s-62 -134.166 -62 -227.499v-595c156 80 270.667 172.167 344 276.5s110 225.166 110 362.499z" />
    <glyph glyph-name="uni01C0" unicode="&#x1c0;" 
d="M492 0v1484h245v-1484h-245z" />
    <glyph glyph-name="uni01C1" unicode="&#x1c1;" 
d="M279 0v1484h240v-1484h-240zM710 0v1484h240v-1484h-240z" />
    <glyph glyph-name="uni01C2" unicode="&#x1c2;" 
d="M98 1083h394v401h245v-401h394v-209h-394v-266h394v-209h-394v-399h-245v399h-394v209h394v266h-394v209z" />
    <glyph glyph-name="uni01C3" unicode="&#x1c3;" 
d="M730 426h-230l-32 923h294zM468 0v270h288v-270h-288z" />
    <glyph glyph-name="uni01C4" unicode="&#x1c4;" 
d="M1048 1427h-229l-258 249v29h160l211 -134h4l203 134h159v-29zM626 685c0 -219.333 -29.333 -388.333 -88 -507s-142.667 -178 -252 -178h-252v1349h220c124 0 217 -54.5 279 -163.5s93 -275.833 93 -500.5zM401 685c0 160 -10.334 272.667 -31.001 338s-57 98 -109 98
h-1v-893h24c44.667 0 75.334 38.167 92.001 114.5s25 190.5 25 342.5zM1225 0h-612v204l333 914h-293v231h550v-199l-333 -919h355v-231z" />
    <glyph glyph-name="uni01C5" unicode="&#x1c5;" 
d="M1032 1183h-229l-258 249v29h160l211 -134h4l203 134h159v-29zM626 685c0 -224.667 -27.832 -395 -83.499 -511s-137.834 -174 -246.501 -174h-262v1349h231c123.333 0 214.333 -54.167 273 -162.5s88 -275.5 88 -501.5zM400.001 685
c0 164.667 -10.334 278.5 -31.001 341.5s-56.667 94.5 -108 94.5h-1v-893h23c44.667 0 75.334 38.333 92.001 115s25 190.667 25 342zM641 0v194l281 685h-258v203h505v-196l-278 -681h304v-205h-554z" />
    <glyph glyph-name="uni01C6" unicode="&#x1c6;" 
d="M1076 1183h-229l-258 249v29h160l211 -134h4l203 134h159v-29zM400 0l-4.00098 54.002c-34 -49.333 -81.333 -74 -142 -74c-71.333 0 -127.666 49.5 -168.999 148.5s-62 235.833 -62 410.5c0 175.333 20.5 312.666 61.5 411.999s99.5 149 175.5 149
c51.333 0 95.333 -22 132 -66v450h204v-1248c0 -100.667 1.66699 -179.334 5 -236.001h-201zM393.999 546.002c0 115.333 -7.33203 204.667 -21.999 268s-34.334 95 -59.001 95c-53.333 0 -80 -123.333 -80 -370c0 -122.667 6.83301 -214.5 20.5 -275.5
s32.5 -91.5 56.5 -91.5c26 0 46.5 34.167 61.5 102.5s22.5 158.833 22.5 271.5zM653 0.00292969v193l302 686h-281v203h502v-194l-301 -683h327v-205h-549z" />
    <glyph glyph-name="uni01C7" unicode="&#x1c7;" 
d="M80 0v1349h237v-1121h309v-228h-546zM698 228c24 -11.333 51.333 -17 82 -17c56 0 95.833 20.167 119.5 60.5s35.5 96.166 35.5 167.499v910h214v-903c0 -161.333 -27.667 -278.666 -83 -351.999s-142 -110 -260 -110c-54.667 0 -90.667 1.33301 -108 4v240z" />
    <glyph glyph-name="uni01C8" unicode="&#x1c8;" 
d="M1124 -13c0 -133.333 -27.834 -235.333 -83.501 -306s-137.5 -106 -245.5 -106c-73.333 0 -133 10.667 -179 32v218c50 -20.667 103 -31 159 -31c38.667 0 68.334 19 89.001 57s31 91 31 159v882h-212v190h441v-1095zM895.999 1277v207h228v-207h-228zM79.999 0v1349h237
v-1121h309v-228h-546z" />
    <glyph glyph-name="uni01C9" unicode="&#x1c9;" 
d="M472 190h212v-190h-678v190h237v1104h-174v190h403v-1294zM911 1277v207h229v-207h-229zM1139 -13c0 -133.333 -27.834 -235.333 -83.501 -306s-137.5 -106 -245.5 -106c-73.333 0 -133 10.667 -179 32v218c50 -20.667 103 -31 159 -31c38.667 0 68.334 19 89.001 57
s31 91 31 159v882h-212v190h441v-1095z" />
    <glyph glyph-name="uni01CA" unicode="&#x1ca;" 
d="M403 0l-127 738v-738h-196v1349h237l132 -768v768h195v-1349h-241zM698 228c24 -11.333 51.333 -17 82 -17c56 0 95.833 20.167 119.5 60.5s35.5 96.166 35.5 167.499v910h214v-903c0 -161.333 -27.667 -278.666 -83 -351.999s-142 -110 -260 -110
c-54.667 0 -90.667 1.33301 -108 4v240z" />
    <glyph glyph-name="uni01CB" unicode="&#x1cb;" 
d="M1105 -13c0 -127.333 -29.666 -227.832 -88.999 -301.499s-139 -110.5 -239 -110.5c-38 0 -77.333 4.66699 -118 14s-74 21.666 -100 36.999v217c86 -32.667 153 -49 201 -49c37.333 0 63.666 18 78.999 54s23 90 23 162v882h-130v190h373v-1095zM862.001 1277v207h243
v-207h-243zM452.001 0.000976562l-127 738v-738h-196v1349h237l132 -768v768h195v-1349h-241z" />
    <glyph glyph-name="uni01CC" unicode="&#x1cc;" 
d="M505 0v619c0 94.667 -6 163.834 -18 207.501s-33 65.5 -63 65.5c-34.667 0 -63.167 -28.333 -85.5 -85s-33.5 -132.334 -33.5 -227.001v-580h-242v840c0 109.333 -2 190 -6 242h235l6 -91c46.667 74.667 113.667 112 201 112c165.333 0 248 -138.667 248 -416v-687h-242z
M1124 -13c0 -133.333 -27.834 -235.333 -83.501 -306s-137.5 -106 -245.5 -106c-73.333 0 -133 10.667 -179 32v218c50 -20.667 103 -31 159 -31c38.667 0 68.334 19 89.001 57s31 91 31 159v882h-142v190h371v-1095zM895.999 1277v207h228v-207h-228z" />
    <glyph glyph-name="uni01CD" unicode="&#x1cd;" 
d="M1229 0h-294l-92 330h-456l-92 -330h-295l443 1349h344zM615 1167c-5.33301 -28 -15.167 -69.832 -29.5 -125.499s-59.833 -218.834 -136.5 -489.501h332c-78 274.667 -123.833 439 -137.5 493s-23.167 94.667 -28.5 122zM732.999 1427h-229l-258 249v29h160l211 -134h4
l203 134h159v-29z" />
    <glyph glyph-name="uni01CE" unicode="&#x1ce;" 
d="M439 -20c-104.667 0 -186.333 28.498 -245 85.498s-88 137.167 -88 240.5c0 112 34.833 197.167 104.5 255.5s173.834 88.5 312.501 90.5l223 4v55c0 68.667 -11.667 120.667 -35 156s-61 53 -113 53c-48.667 0 -84.5 -12.167 -107.5 -36.5
s-37.167 -63.166 -42.5 -116.499l-293 14c36 214 187.667 321 455 321c134.667 0 237.834 -33 309.501 -99s107.5 -163 107.5 -291v-392c0 -60.667 6.83301 -102.5 20.5 -125.5s36.5 -34.5 68.5 -34.5c21.333 0 42 2 62 6v-152l-45 -11
c-13.333 -3.33301 -26.666 -6 -39.999 -8s-27.5 -3.66699 -42.5 -5s-32.5 -2 -52.5 -2c-70.667 0 -122.834 17.333 -156.501 52s-53.834 85.667 -60.501 153h-6c-42 -75.333 -89.833 -129.666 -143.5 -162.999s-117.834 -50 -192.501 -50zM746.001 500.998l-134 -2
c-60 -1.33301 -103.5 -7.5 -130.5 -18.5s-47.5 -28.667 -61.5 -53s-21 -57.5 -21 -99.5c0 -101.333 40 -152 120 -152c64.667 0 118.667 25.5 162 76.5s65 115.5 65 193.5v55zM733.001 1183h-229l-258 249v29h160l211 -134h4l203 134h159v-29z" />
    <glyph glyph-name="uni01CF" unicode="&#x1cf;" 
d="M157 1349h916v-228h-311v-893h311v-228h-916v228h311v893h-311v228zM733 1427h-229l-258 249v29h160l211 -134h4l203 134h159v-29z" />
    <glyph glyph-name="uni01D0" unicode="&#x1d0;" 
d="M794 190h353v-190h-1029v190h395v702h-290v190h571v-892zM755 1181h-229l-258 249v29h160l211 -134h4l203 134h159v-29z" />
    <glyph glyph-name="uni01D1" unicode="&#x1d1;" 
d="M1157 679c0 -230 -46.667 -404 -140 -522s-227.333 -177 -402 -177s-308.834 59 -402.501 177s-140.5 292 -140.5 522s46.833 402.667 140.5 518s227.834 173 402.501 173s308.667 -57.667 402 -173s140 -288 140 -518zM858 679c0 306 -81.001 459 -243.001 459
c-162.667 0 -244 -153 -244 -459c0 -153.333 20.5 -269.5 61.5 -348.5s101.833 -118.5 182.5 -118.5s141.334 39.5 182.001 118.5s61 195.167 61 348.5zM732.999 1427h-229l-258 249v29h160l211 -134h4l203 134h159v-29z" />
    <glyph glyph-name="uni01D2" unicode="&#x1d2;" 
d="M1137 542c0 -179.333 -45.333 -317.833 -136 -415.5s-221 -146.5 -391 -146.5c-164 0 -291.333 48.833 -382 146.5s-136 236.167 -136 415.5c0 178.667 45 316.667 135 414s219.667 146 389 146c347.333 0 521 -186.667 521 -560zM843 542c0 128 -17 221.167 -51 279.5
s-91.333 87.5 -172 87.5c-82.667 0 -142.167 -29.333 -178.5 -88s-54.5 -151.667 -54.5 -279c0 -128.667 18.5 -222.5 55.5 -281.5s91.833 -88.5 164.5 -88.5c82.667 0 142.667 29.167 180 87.5s56 152.5 56 282.5zM733 1183h-229l-258 249v29h160l211 -134h4l203 134h159
v-29z" />
    <glyph glyph-name="uni01D3" unicode="&#x1d3;" 
d="M599 -20c-164 0 -283.333 44.668 -358 134.001s-112 227.333 -112 414v821h295v-818c0 -116.667 13.5 -199.167 40.5 -247.5s74.5 -72.5 142.5 -72.5c69.333 0 119.666 25.667 150.999 77s47 135.666 47 252.999v808h295v-806c0 -190.667 -41.167 -332.167 -123.5 -424.5
s-208.166 -138.5 -377.499 -138.5zM733 1427h-229l-258 249v29h160l211 -134h4l203 134h159v-29z" />
    <glyph glyph-name="uni01D4" unicode="&#x1d4;" 
d="M416 1082l-0.00195312 -607c0 -92 14.833 -162.5 44.5 -211.5s72.167 -73.5 127.5 -73.5c60 0 109.5 29.5 148.5 88.5s58.5 133.5 58.5 223.5v580h281v-840c0 -92 2.66699 -172.667 8 -242h-268c-8 96 -12 167.667 -12 215h-5
c-71.333 -156.667 -180.666 -235 -327.999 -235c-109.333 0 -192.666 34.833 -249.999 104.5s-86 173.167 -86 310.5v687h281zM723.998 1183h-229l-258 249v29h160l211 -134h4l203 134h159v-29z" />
    <glyph glyph-name="uni01D5" unicode="&#x1d5;" 
d="M599 -20c-164 0 -283.333 44.668 -358 134.001s-112 227.333 -112 414v821h295v-818c0 -116.667 13.5 -199.167 40.5 -247.5s74.5 -72.5 142.5 -72.5c69.333 0 119.666 25.667 150.999 77s47 135.666 47 252.999v808h295v-806c0 -190.667 -41.167 -332.167 -123.5 -424.5
s-208.166 -138.5 -377.499 -138.5zM877 1466h-160v152h160v-152zM511 1466h-160v152h160v-152zM308 1835h612v-138h-612v138z" />
    <glyph glyph-name="uni01D6" unicode="&#x1d6;" 
d="M416 1082l-0.00195312 -607c0 -92 14.833 -162.5 44.5 -211.5s72.167 -73.5 127.5 -73.5c60 0 109.5 29.5 148.5 88.5s58.5 133.5 58.5 223.5v580h281v-840c0 -92 2.66699 -172.667 8 -242h-268c-8 96 -12 167.667 -12 215h-5
c-71.333 -156.667 -180.666 -235 -327.999 -235c-109.333 0 -192.666 34.833 -249.999 104.5s-86 173.167 -86 310.5v687h281zM703.998 1219v219h227v-219h-227zM279.998 1219v219h224v-219h-224zM303.998 1690h612v-168h-612v168z" />
    <glyph glyph-name="uni01D7" unicode="&#x1d7;" 
d="M599 -20c-164 0 -283.333 44.668 -358 134.001s-112 227.333 -112 414v821h295v-818c0 -116.667 13.5 -199.167 40.5 -247.5s74.5 -72.5 142.5 -72.5c69.333 0 119.666 25.667 150.999 77s47 135.666 47 252.999v808h295v-806c0 -190.667 -41.167 -332.167 -123.5 -424.5
s-208.166 -138.5 -377.499 -138.5zM882 1835v-16l-231 -153h-150v14l135 155h246zM872 1466h-160v152h160v-152zM506 1466h-160v152h160v-152z" />
    <glyph glyph-name="uni01D8" unicode="&#x1d8;" 
d="M416 1082l-0.00195312 -607c0 -92 14.833 -162.5 44.5 -211.5s72.167 -73.5 127.5 -73.5c60 0 109.5 29.5 148.5 88.5s58.5 133.5 58.5 223.5v580h281v-840c0 -92 2.66699 -172.667 8 -242h-268c-8 96 -12 167.667 -12 215h-5
c-71.333 -156.667 -180.666 -235 -327.999 -235c-109.333 0 -192.666 34.833 -249.999 104.5s-86 173.167 -86 310.5v687h281zM712.998 1219v219h227v-219h-227zM288.998 1219v219h224v-219h-224zM451.998 1489v31l252 243h258v-43l-340 -231h-170z" />
    <glyph glyph-name="uni01D9" unicode="&#x1d9;" 
d="M599 -20c-164 0 -283.333 44.668 -358 134.001s-112 227.333 -112 414v821h295v-818c0 -116.667 13.5 -199.167 40.5 -247.5s74.5 -72.5 142.5 -72.5c69.333 0 119.666 25.667 150.999 77s47 135.666 47 252.999v808h295v-806c0 -190.667 -41.167 -332.167 -123.5 -424.5
s-208.166 -138.5 -377.499 -138.5zM877 1466h-160v152h160v-152zM511 1466h-160v152h160v-152zM765 1835h155v-10l-208 -143h-195l-209 141v12h155l151 -67z" />
    <glyph glyph-name="uni01DA" unicode="&#x1da;" 
d="M416 1082l-0.00195312 -607c0 -92 14.833 -162.5 44.5 -211.5s72.167 -73.5 127.5 -73.5c60 0 109.5 29.5 148.5 88.5s58.5 133.5 58.5 223.5v580h281v-840c0 -92 2.66699 -172.667 8 -242h-268c-8 96 -12 167.667 -12 215h-5
c-71.333 -156.667 -180.666 -235 -327.999 -235c-109.333 0 -192.666 34.833 -249.999 104.5s-86 173.167 -86 310.5v687h281zM712.998 1219v219h227v-219h-227zM288.998 1219v219h224v-219h-224zM728.998 1477h-229l-258 249v29h160l211 -134h4l203 134h159v-29z" />
    <glyph glyph-name="uni01DB" unicode="&#x1db;" 
d="M599 -20c-164 0 -283.333 44.668 -358 134.001s-112 227.333 -112 414v821h295v-818c0 -116.667 13.5 -199.167 40.5 -247.5s74.5 -72.5 142.5 -72.5c69.333 0 119.666 25.667 150.999 77s47 135.666 47 252.999v808h295v-806c0 -190.667 -41.167 -332.167 -123.5 -424.5
s-208.166 -138.5 -377.499 -138.5zM592 1835l135 -155v-14h-150l-231 153v16h246zM356 1618h160v-152h-160v152zM722 1618h160v-152h-160v152z" />
    <glyph glyph-name="uni01DC" unicode="&#x1dc;" 
d="M416 1082l-0.00195312 -607c0 -92 14.833 -162.5 44.5 -211.5s72.167 -73.5 127.5 -73.5c60 0 109.5 29.5 148.5 88.5s58.5 133.5 58.5 223.5v580h281v-840c0 -92 2.66699 -172.667 8 -242h-268c-8 96 -12 167.667 -12 215h-5
c-71.333 -156.667 -180.666 -235 -327.999 -235c-109.333 0 -192.666 34.833 -249.999 104.5s-86 173.167 -86 310.5v687h281zM712.998 1219v219h227v-219h-227zM288.998 1219v219h224v-219h-224zM615.998 1478l-340 231v43h258l252 -243v-31h-170z" />
    <glyph glyph-name="uni01DD" unicode="&#x1dd;" 
d="M603 1102c168 0 297.668 -49.499 389.001 -148.499s137 -238.167 137 -417.5c0 -120 -21.5 -221.333 -64.5 -304s-104.167 -145.334 -183.5 -188.001s-173.333 -64 -282 -64c-158 0 -280.667 52.667 -368 158s-131 255 -131 449v8h734c0 98 -21.833 175.667 -65.5 233
s-103.5 86 -179.5 86c-49.333 0 -93 -10.5 -131 -31.5s-63.667 -53.5 -77 -97.5l-265 23c36.667 94 97.667 166.5 183 217.5s186.666 76.5 303.999 76.5zM603.001 157.001c68.667 0 123.332 23.167 163.999 69.5s62.334 110.5 65.001 192.5h-460
c4.66699 -80 27.5 -143.667 68.5 -191s95.167 -71 162.5 -71z" />
    <glyph glyph-name="uni01DE" unicode="&#x1de;" 
d="M1229 0h-294l-92 330h-456l-92 -330h-295l443 1349h344zM615 1167c-5.33301 -28 -15.167 -69.832 -29.5 -125.499s-59.833 -218.834 -136.5 -489.501h332c-78 274.667 -123.833 439 -137.5 493s-23.167 94.667 -28.5 122zM876.999 1466h-160v152h160v-152zM510.999 1466
h-160v152h160v-152zM307.999 1835h612v-138h-612v138z" />
    <glyph glyph-name="uni01DF" unicode="&#x1df;" 
d="M439 -20c-104.667 0 -186.333 28.498 -245 85.498s-88 137.167 -88 240.5c0 112 34.833 197.167 104.5 255.5s173.834 88.5 312.501 90.5l223 4v55c0 68.667 -11.667 120.667 -35 156s-61 53 -113 53c-48.667 0 -84.5 -12.167 -107.5 -36.5
s-37.167 -63.166 -42.5 -116.499l-293 14c36 214 187.667 321 455 321c134.667 0 237.834 -33 309.501 -99s107.5 -163 107.5 -291v-392c0 -60.667 6.83301 -102.5 20.5 -125.5s36.5 -34.5 68.5 -34.5c21.333 0 42 2 62 6v-152l-45 -11
c-13.333 -3.33301 -26.666 -6 -39.999 -8s-27.5 -3.66699 -42.5 -5s-32.5 -2 -52.5 -2c-70.667 0 -122.834 17.333 -156.501 52s-53.834 85.667 -60.501 153h-6c-42 -75.333 -89.833 -129.666 -143.5 -162.999s-117.834 -50 -192.501 -50zM746.001 500.998l-134 -2
c-60 -1.33301 -103.5 -7.5 -130.5 -18.5s-47.5 -28.667 -61.5 -53s-21 -57.5 -21 -99.5c0 -101.333 40 -152 120 -152c64.667 0 118.667 25.5 162 76.5s65 115.5 65 193.5v55zM697.001 1219v219h227v-219h-227zM273.001 1219v219h224v-219h-224zM294.001 1690h612v-168h-612
v168z" />
    <glyph glyph-name="uni01E0" unicode="&#x1e0;" 
d="M1229 0h-294l-92 330h-456l-92 -330h-295l443 1349h344zM615 1167c-5.33301 -28 -15.167 -69.832 -29.5 -125.499s-59.833 -218.834 -136.5 -489.501h332c-78 274.667 -123.833 439 -137.5 493s-23.167 94.667 -28.5 122zM692.999 1466h-160v152h160v-152zM307.999 1835
h612v-138h-612v138z" />
    <glyph glyph-name="uni01E1" unicode="&#x1e1;" 
d="M439 -20c-104.667 0 -186.333 28.498 -245 85.498s-88 137.167 -88 240.5c0 112 34.833 197.167 104.5 255.5s173.834 88.5 312.501 90.5l223 4v55c0 68.667 -11.667 120.667 -35 156s-61 53 -113 53c-48.667 0 -84.5 -12.167 -107.5 -36.5
s-37.167 -63.166 -42.5 -116.499l-293 14c36 214 187.667 321 455 321c134.667 0 237.834 -33 309.501 -99s107.5 -163 107.5 -291v-392c0 -60.667 6.83301 -102.5 20.5 -125.5s36.5 -34.5 68.5 -34.5c21.333 0 42 2 62 6v-152l-45 -11
c-13.333 -3.33301 -26.666 -6 -39.999 -8s-27.5 -3.66699 -42.5 -5s-32.5 -2 -52.5 -2c-70.667 0 -122.834 17.333 -156.501 52s-53.834 85.667 -60.501 153h-6c-42 -75.333 -89.833 -129.666 -143.5 -162.999s-117.834 -50 -192.501 -50zM746.001 500.998l-134 -2
c-60 -1.33301 -103.5 -7.5 -130.5 -18.5s-47.5 -28.667 -61.5 -53s-21 -57.5 -21 -99.5c0 -101.333 40 -152 120 -152c64.667 0 118.667 25.5 162 76.5s65 115.5 65 193.5v55zM459.001 1212v207h281v-207h-281zM293.001 1690h612v-168h-612v168z" />
    <glyph glyph-name="uni01E2" unicode="&#x1e2;" 
d="M616 387h-253l-102 -387h-261l372 1349h804v-202h-309v-355h297v-200h-297v-390h348v-202h-599v387zM616 1152h-58l-46 -200l-98 -366h202v566zM459 1645h612v-168h-612v168z" />
    <glyph glyph-name="uni01E3" unicode="&#x1e3;" 
d="M699 484l0.000976562 -1.99902c0 -99.333 14.833 -177.833 44.5 -235.5s69.834 -86.5 120.501 -86.5c40 0 70.667 12.667 92 38s37.333 59.666 48 102.999l178 -45c-24.667 -93.333 -63.834 -162.666 -117.501 -207.999s-119.167 -68 -196.5 -68
c-76.667 0 -137.167 18.333 -181.5 55s-77.833 95.667 -100.5 177c-33.333 -78.667 -76.333 -137 -129 -175s-112.334 -57 -179.001 -57c-82 0 -145.5 28.833 -190.5 86.5s-67.5 136.167 -67.5 235.5c0 114.667 27.333 202.5 82 263.5s137.334 92.5 248.001 94.5l147 4v55
c0 62 -10 111 -30 147s-48.667 54 -86 54c-32.667 0 -57.5 -12.333 -74.5 -37s-28.167 -61.334 -33.5 -110.001l-208 17c26 208 131 312 315 312c117.333 0 199.666 -46.333 246.999 -139c56.667 92.667 138.667 139 246 139c110.667 0 194.167 -47.167 250.5 -141.5
s84.5 -238.833 84.5 -433.5v-43h-509zM229.001 299.001c0 -42.667 6.83301 -76.167 20.5 -100.5s33.167 -36.5 58.5 -36.5c52 0 96.5 28.667 133.5 86s55.5 123 55.5 197v54l-102 -3c-62 -2 -105.167 -18.5 -129.5 -49.5s-36.5 -80.167 -36.5 -147.5zM859.001 924.001
c-26.667 0 -52 -10.834 -76 -32.501s-43.333 -52 -58 -91s-22.667 -85.833 -24 -140.5h301c-5.33301 88.667 -19.5 154.834 -42.5 198.501s-56.5 65.5 -100.5 65.5zM323.001 1382h612v-168h-612v168z" />
    <glyph glyph-name="uni01E4" unicode="&#x1e4;" 
d="M1128 449l91 0.000976562v-148h-91v-116c-162 -136.667 -326.333 -205 -493 -205c-174 0 -310 61.167 -408 183.5s-147 294.833 -147 517.5c0 459.333 186 689 558 689c120 0 218 -31 294 -93s132 -156 168 -282l-274 -54c-35.333 131.333 -97 197 -185 197
c-90.667 0 -157 -36.667 -199 -110s-63 -189 -63 -347c0 -148.667 22.333 -263.334 67 -344.001s112.667 -121 204 -121c35.333 0 71.833 6.66699 109.5 20s70.5 31.333 98.5 54v11h-276v148h276v76h-274v218h544v-294z" />
    <glyph glyph-name="uni01E5" unicode="&#x1e5;" 
d="M37 0h790.997l1 37v59l2 115h-2c-32.667 -50 -77.667 -89 -135 -117s-121.666 -42 -192.999 -42c-118 0 -210.333 44.5 -277 133.5s-100 210.5 -100 364.5c0 174.667 34.333 309.834 103 405.501s167 143.5 295 143.5c70 0 131.333 -16.167 184 -48.5
s93.667 -79.833 123 -142.5h5c0 23.333 1.5 55 4.5 95s6.16699 66.333 9.5 79h266c-4 -72 -6 -155.333 -6 -250v-799l-1 -33h85v-93h-96c-22 -112.667 -74 -197.667 -156 -255s-190 -86 -324 -86c-263.333 0 -412.333 85 -447 255l281 33
c7.33301 -34.667 24.833 -60.834 52.5 -78.501s68.167 -26.5 121.5 -26.5c48.667 0 89.334 13.333 122.001 40s55.334 66 68.001 118h-777v93zM830.997 556c0 109.333 -18.667 195.001 -56 257.001s-88.333 93 -153 93c-66.667 0 -117.5 -30.167 -152.5 -90.5
s-52.5 -148.833 -52.5 -265.5c0 -96.667 17.833 -171.334 53.5 -224.001s85.5 -79 149.5 -79c66 0 117.667 28 155 84s56 131 56 225z" />
    <glyph glyph-name="uni01E6" unicode="&#x1e6;" 
d="M1128 185c-162 -136.667 -326.333 -204.999 -493 -204.999c-174 0 -310 61.167 -408 183.5s-147 294.833 -147 517.5c0 459.333 186 689 558 689c120 0 218 -31 294 -93s132 -156 168 -282l-274 -54c-35.333 131.333 -97 197 -185 197c-90 0 -156.167 -36 -198.5 -108
s-63.5 -188.333 -63.5 -349c0 -148.667 22.333 -263.334 67 -344.001s112.667 -121 204 -121c35.333 0 71.833 6.66699 109.5 20s70.5 31.333 98.5 54v235h-274v218h544v-558zM733 1427h-229l-258 249v29h160l211 -134h4l203 134h159v-29z" />
    <glyph glyph-name="uni01E7" unicode="&#x1e7;" 
d="M616 -434c-124 0 -224.999 25.667 -302.999 77s-126 122.666 -144 213.999l281 33c10 -43.333 30.667 -77.666 62 -102.999s68.666 -38 111.999 -38c67.333 0 118.333 24.167 153 72.5s52 120.166 52 215.499v59l2 115h-2c-62 -132.667 -171.333 -199 -328 -199
c-119.333 0 -212 46.5 -278 139.5s-99 225.833 -99 398.5c0 174.667 34.333 309.834 103 405.501s167 143.5 295 143.5c70 0 131.333 -16.167 184 -48.5s93.667 -79.833 123 -142.5h5c0 23.333 1.5 55 4.5 95s6.16699 66.333 9.5 79h266c-4 -72 -6 -155.333 -6 -250v-799
c0 -151.333 -42.5 -267 -127.5 -347s-206.5 -120 -364.5 -120zM831.001 556c0 109.333 -18.667 195 -56 257s-88.333 93 -153 93c-66.667 0 -117.5 -30.167 -152.5 -90.5s-52.5 -148.833 -52.5 -265.5c0 -116 18 -202.167 54 -258.5s85.667 -84.5 149 -84.5
c68 0 120.167 31.333 156.5 94s54.5 147.667 54.5 255zM724.001 1183h-229l-258 249v29h160l211 -134h4l203 134h159v-29z" />
    <glyph glyph-name="uni01E8" unicode="&#x1e8;" 
d="M881 0l-323 557l-127 -142v-415h-295v1349h295v-599l436 599h343l-460 -579l479 -770h-348zM733 1426h-229l-258 249v29h160l211 -134h4l203 134h159v-29z" />
    <glyph glyph-name="uni01E9" unicode="&#x1e9;" 
d="M864 0l-289 490l-121 -84v-406h-281v1349h281v-715l386 448h302l-380 -422l409 -660h-307zM753 1427h-229l-258 249v29h160l211 -134h4l203 134h159v-29z" />
    <glyph glyph-name="uni01EA" unicode="&#x1ea;" 
d="M1157 679c0 -230 -46.667 -404 -140 -522s-227.333 -177 -402 -177s-308.834 59 -402.501 177s-140.5 292 -140.5 522s46.833 402.667 140.5 518s227.834 173 402.501 173s308.667 -57.667 402 -173s140 -288 140 -518zM858 679c0 306 -81.001 459 -243.001 459
c-162.667 0 -244 -153 -244 -459c0 -153.333 20.5 -269.5 61.5 -348.5s101.833 -118.5 182.5 -118.5s141.334 39.5 182.001 118.5s61 195.167 61 348.5zM756.999 -425c-74 0 -132 17.998 -174 53.998s-63 84.667 -63 146c0 50 14.5 97.333 43.5 142
s67.167 79.334 114.5 104.001h153c-42 -28 -74 -61.167 -96 -99.5s-33 -75.166 -33 -110.499c0 -28 8.16699 -50.5 24.5 -67.5s39.5 -25.5 69.5 -25.5c36 0 73.333 9 112 27v-137c-42 -22 -92.333 -33 -151 -33z" />
    <glyph glyph-name="uni01EB" unicode="&#x1eb;" 
d="M1137 542c0 -179.333 -45.333 -317.833 -136 -415.5s-221 -146.5 -391 -146.5c-164 0 -291.333 48.833 -382 146.5s-136 236.167 -136 415.5c0 178.667 45 316.667 135 414s219.667 146 389 146c347.333 0 521 -186.667 521 -560zM843 542c0 128 -17 221.167 -51 279.5
s-91.333 87.5 -172 87.5c-82.667 0 -142.167 -29.333 -178.5 -88s-54.5 -151.667 -54.5 -279c0 -128.667 18.5 -222.5 55.5 -281.5s91.833 -88.5 164.5 -88.5c82.667 0 142.667 29.167 180 87.5s56 152.5 56 282.5zM757 -425c-74 0 -132 17.998 -174 53.998
s-63 84.667 -63 146c0 50 14.5 97.333 43.5 142s67.167 79.334 114.5 104.001h153c-42 -28 -74 -61.167 -96 -99.5s-33 -75.166 -33 -110.499c0 -28 8.16699 -50.5 24.5 -67.5s39.5 -25.5 69.5 -25.5c36 0 73.333 9 112 27v-137c-42 -22 -92.333 -33 -151 -33z" />
    <glyph glyph-name="uni01EC" unicode="&#x1ec;" 
d="M757 -425c-74 0 -132 17.998 -174 53.998s-63 84.667 -63 146c0 50 14.5 97.333 43.5 142s67.167 79.334 114.5 104.001h153c-42 -28 -74 -61.167 -96 -99.5s-33 -75.166 -33 -110.499c0 -28 8.16699 -50.5 24.5 -67.5s39.5 -25.5 69.5 -25.5c36 0 73.333 9 112 27v-137
c-42 -22 -92.333 -33 -151 -33zM1157 678.998c0 -230 -46.667 -404 -140 -522s-227.333 -177 -402 -177s-308.834 59 -402.501 177s-140.5 292 -140.5 522s46.833 402.667 140.5 518s227.834 173 402.501 173s308.667 -57.667 402 -173s140 -288 140 -518zM858 678.998
c0 306 -81.001 459 -243.001 459c-162.667 0 -244 -153 -244 -459c0 -153.333 20.5 -269.5 61.5 -348.5s101.833 -118.5 182.5 -118.5s141.334 39.5 182.001 118.5s61 195.167 61 348.5zM309.999 1638h612v-168h-612v168z" />
    <glyph glyph-name="uni01ED" unicode="&#x1ed;" 
d="M757 -425c-74 0 -132 17.998 -174 53.998s-63 84.667 -63 146c0 50 14.5 97.333 43.5 142s67.167 79.334 114.5 104.001h153c-42 -28 -74 -61.167 -96 -99.5s-33 -75.166 -33 -110.499c0 -28 8.16699 -50.5 24.5 -67.5s39.5 -25.5 69.5 -25.5c36 0 73.333 9 112 27v-137
c-42 -22 -92.333 -33 -151 -33zM1137 541.998c0 -179.333 -45.333 -317.833 -136 -415.5s-221 -146.5 -391 -146.5c-164 0 -291.333 48.833 -382 146.5s-136 236.167 -136 415.5c0 178.667 45 316.667 135 414s219.667 146 389 146c347.333 0 521 -186.667 521 -560z
M843 541.998c0 128 -17 221.167 -51 279.5s-91.333 87.5 -172 87.5c-82.667 0 -142.167 -29.333 -178.5 -88s-54.5 -151.667 -54.5 -279c0 -128.667 18.5 -222.5 55.5 -281.5s91.833 -88.5 164.5 -88.5c82.667 0 142.667 29.167 180 87.5s56 152.5 56 282.5zM310 1371h612
v-168h-612v168z" />
    <glyph glyph-name="uni01EE" unicode="&#x1ee;" 
d="M593 -414c-143.333 0 -261.169 30.333 -353.502 91s-163.5 155.334 -213.5 284.001l258 101c36 -87.333 77.833 -149.833 125.5 -187.5s105.834 -56.5 174.501 -56.5c107.333 0 185.166 27.833 233.499 83.5s72.5 140.167 72.5 253.5
c0 73.333 -14.167 132.666 -42.5 177.999s-70.166 78.5 -125.499 99.5s-133.666 31.5 -234.999 31.5h-128v231l417 423h-690v231h1050v-205l-474 -467c172.667 -8 302 -55.833 388 -143.5s129 -210.167 129 -367.5c0 -183.333 -51.333 -325.833 -154 -427.5
s-246.667 -152.5 -432 -152.5zM732.997 1427h-229l-258 249v29h160l211 -134h4l203 134h159v-29z" />
    <glyph glyph-name="uni01EF" unicode="&#x1ef;" 
d="M595 -232c86.667 0 147.834 22.834 183.501 68.501s53.5 120.834 53.5 225.501c0 96.667 -27.333 167.667 -82 213s-142.334 68 -263.001 68h-102v189l339 347h-568v203h902v-195l-363 -365c131.333 -12.667 234.666 -58.167 309.999 -136.5s113 -180.833 113 -307.5
c0 -158 -46.5 -281.333 -139.5 -370s-220.167 -133 -381.5 -133c-140 0 -253.833 33.667 -341.5 101s-139.5 160.666 -155.5 279.999l277 13c7.33301 -60.667 30.833 -109.334 70.5 -146.001s88.834 -55 147.501 -55zM738 1183h-229l-258 249v29h160l211 -134h4l203 134h159
v-29z" />
    <glyph glyph-name="uni01F0" unicode="&#x1f0;" 
d="M926 -13c0 -86 -18.832 -159.833 -56.499 -221.5s-91.334 -108.834 -161.001 -141.501s-150.167 -49 -241.5 -49c-52.667 0 -106.334 4.33301 -161.001 13s-97 18.667 -127 30v210c90.667 -22.667 178.334 -34 263.001 -34c73.333 0 125.333 17.833 156 53.5
s46 89.834 46 162.501v882h-354v190h636v-1095zM837.001 1183h-229l-258 249v29h160l211 -134h4l203 134h159v-29z" />
    </font>
</defs>
</svg>
