<?xml version="1.0" standalone="no"?>
<!DOCTYPE svg PUBLIC "-//W3C//DTD SVG 1.1//EN" "http://www.w3.org/Graphics/SVG/1.1/DTD/svg11.dtd" >
<svg>
<metadata>
Created by FontForge 20090914 at Wed Nov 21 08:53:00 2012
 By www-data
Digitized data copyright (c) 2010 Google Corporation. 
Copyright (c) 2012 Red Hat, Inc.
</metadata>
<defs>
<font id="LiberationSans" horiz-adv-x="1139" >
  <font-face 
    font-family="Liberation Sans"
    font-weight="400"
    font-stretch="normal"
    units-per-em="2048"
    panose-1="2 11 6 4 2 2 2 2 2 4"
    ascent="1638"
    descent="-410"
    x-height="1082"
    cap-height="1409"
    bbox="-1114 -621 2666 2007"
    underline-thickness="150"
    underline-position="-142"
    unicode-range="U+0020-U+FFFC"
  />
<missing-glyph horiz-adv-x="1536" 
d="M205 1409h1125v-1409h-1125v1409zM281 1333v-1257h973v1257h-973z" />
    <glyph glyph-name=".notdef" horiz-adv-x="1536" 
d="M205 1409h1125v-1409h-1125v1409zM281 1333v-1257h973v1257h-973z" />
    <glyph glyph-name="space" unicode=" " horiz-adv-x="569" 
 />
    <glyph glyph-name="exclam" unicode="!" horiz-adv-x="569" 
d="M359 397h-148l-24 1012h196zM185 0v201h194v-201h-194z" />
    <glyph glyph-name="quotedbl" unicode="&#x22;" horiz-adv-x="727" 
d="M618 966h-142l-20 443h184zM249 966h-141l-21 443h184z" />
    <glyph glyph-name="numbersign" unicode="#" 
d="M896 885l-78 -369h260v-108h-283l-88 -408h-110l86 408h-363l-84 -408h-110l84 408h-201v108h225l78 369h-252v108h274l89 408h110l-88 -408h363l88 408h110l-88 -408h211v-108h-233zM425 885l-80 -369h362l78 369h-360z" />
    <glyph glyph-name="dollar" unicode="$" 
d="M518 20c-284 12 -449.33 131.668 -495.997 359.001l170 37c16.667 -79.333 51.5 -139 104.5 -179s126.833 -63 221.5 -69v496c-118 29.333 -199.5 55.666 -244.5 78.999s-81.333 50.166 -109 80.499s-47.667 62.833 -60 97.5s-18.5 76.334 -18.5 125.001
c0 103.333 37.5 184.166 112.5 242.499s181.5 90.5 319.5 96.5v131h124v-131c124.667 -6 221 -34.167 289 -84.5s116 -128.833 144 -235.5l-174 -33c-13.333 62.667 -40.333 111.5 -81 146.5s-100 56.167 -178 63.5v-445c119.333 -28 204.166 -53.667 254.499 -77
s90.166 -49.666 119.499 -78.999s51.666 -64 66.999 -104s23 -87 23 -141c0 -110 -40.333 -198.333 -121 -265s-195 -103.667 -343 -111v-162h-124v162zM934.003 394.001c0 43.333 -8.66602 79 -25.999 107s-42.333 51.167 -75 69.5s-96.334 39.833 -191.001 64.5v-468
c94 6 166.167 28.333 216.5 67s75.5 92 75.5 160zM258.004 1048c0 -39.333 8.33301 -72.667 25 -100s41.5 -50.333 74.5 -69s86.5 -37.334 160.5 -56.001v421c-173.333 -9.33301 -260 -74.666 -260 -195.999z" />
    <glyph glyph-name="percent" unicode="%" horiz-adv-x="1821" 
d="M1748 434c0 -143.333 -27 -253.5 -81 -330.5s-133.667 -115.5 -239 -115.5c-104 0 -182.5 37.5 -235.5 112.5s-79.5 186.167 -79.5 333.5c0 152 25.5 265.167 76.5 339.5s131.833 111.5 242.5 111.5c109.333 0 189.333 -38.167 240 -114.5s76 -188.5 76 -336.5zM527 0
h-155l922 1409h157zM394 1421c106 0 184.668 -37.333 236.001 -112s77 -186 77 -334c0 -144.667 -26.5 -256 -79.5 -334s-132.167 -117 -237.5 -117s-184.5 38.667 -237.5 116s-79.5 189 -79.5 335c0 148.667 25.667 260.167 77 334.5s132.666 111.5 243.999 111.5z
M1600 434c0 119.333 -12.832 205.832 -38.499 259.499s-68.834 80.5 -129.501 80.5s-104.5 -26.333 -131.5 -79s-40.5 -139.667 -40.5 -261c0 -114 13.167 -198.5 39.5 -253.5s69.833 -82.5 130.5 -82.5c58.667 0 101.667 27.833 129 83.5s41 139.834 41 252.501z
M560.002 974.999c0 117.333 -12.666 203 -37.999 257s-68 81 -128 81c-62.667 0 -107.334 -26.5 -134.001 -79.5s-40 -139.167 -40 -258.5c0 -115.333 13.333 -200.5 40 -255.5s70.667 -82.5 132 -82.5c58 0 100.5 28 127.5 84s40.5 140.667 40.5 254z" />
    <glyph glyph-name="ampersand" unicode="&#x26;" horiz-adv-x="1366" 
d="M1193 -12c-118 0 -217.334 42.3301 -298.001 126.997c-50 -43.333 -107 -76.666 -171 -99.999s-131 -35 -201 -35c-143.333 0 -254.333 34.5 -333 103.5s-118 164.833 -118 287.5c0 185.333 114.333 328.333 343 429c-22 41.333 -41 90.333 -57 147
s-24 108.334 -24 155.001c0 100 30.5 177.5 91.5 232.5s147.5 82.5 259.5 82.5c100.667 0 181.834 -25.333 243.501 -76s92.5 -120 92.5 -208c0 -78.667 -30.5 -148.667 -91.5 -210s-166.833 -122 -317.5 -182c74 -136.667 171.667 -274 293 -412
c75.333 110.667 132.333 247.334 171 410.001l145 -43c-42 -166 -112.667 -322.333 -212 -469c64 -65.333 133.333 -98 208 -98c47.333 0 86.333 5.33301 117 16v-135c-37.333 -14.667 -84.333 -22 -141 -22zM868.999 1133c0 48 -16.668 87.167 -50.001 117.5
s-78.666 45.5 -135.999 45.5c-64 0 -112.667 -17.167 -146 -51.5s-50 -81.833 -50 -142.5c0 -76 21.667 -157.333 65 -244c87.333 35.333 151.5 66 192.5 92s72 54 93 84s31.5 63 31.5 99zM794.998 216.997c-132 156 -238.331 308.333 -318.998 457
c-157.333 -66.667 -236 -167 -236 -301c0 -80.667 25.833 -144.5 77.5 -191.5s122.167 -70.5 211.5 -70.5c47.333 0 94.666 9.16699 141.999 27.5s88.666 44.5 123.999 78.5z" />
    <glyph glyph-name="quotesingle" unicode="'" horiz-adv-x="391" 
d="M266 966h-141l-21 443h184z" />
    <glyph glyph-name="parenleft" unicode="(" horiz-adv-x="682" 
d="M127 532c0 192.667 30.168 365.668 90.501 519.001s153.166 297.666 278.499 432.999h174c-124.667 -138.667 -216.167 -286 -274.5 -442s-87.5 -326.667 -87.5 -512c0 -184.667 28.833 -354.667 86.5 -510s149.5 -303.333 275.5 -444h-174
c-126 136 -219 280.833 -279 434.5s-90 326.167 -90 517.5v4z" />
    <glyph glyph-name="parenright" unicode=")" horiz-adv-x="682" 
d="M555 528c0 -192.667 -30.168 -365.667 -90.501 -519s-153.166 -297.666 -278.499 -432.999h-174c125.333 140 217 287.5 275 442.5s87 325.5 87 511.5s-29.167 356.667 -87.5 512s-149.833 302.666 -274.5 441.999h174c126 -136 219 -280.833 279 -434.5
s90 -326.167 90 -517.5v-4z" />
    <glyph glyph-name="asterisk" unicode="*" horiz-adv-x="797" 
d="M456 1114l264 103l45 -132l-282 -73l185 -250l-119 -72l-150 258l-156 -256l-119 72l189 248l-280 73l45 134l267 -107l-12 297h136z" />
    <glyph glyph-name="plus" unicode="+" horiz-adv-x="1196" 
d="M671 608v-428h-147v428h-424v146h424v428h147v-428h424v-146h-424z" />
    <glyph glyph-name="comma" unicode="," horiz-adv-x="569" 
d="M385 219l0.000976562 -168.001c0 -70.667 -6.33301 -129.667 -19 -177s-32.334 -92.666 -59.001 -135.999h-123c62.667 90.667 94 178 94 262h-88v219h195z" />
    <glyph glyph-name="hyphen" unicode="-" horiz-adv-x="682" 
d="M91 464v160h500v-160h-500z" />
    <glyph glyph-name="period" unicode="." horiz-adv-x="569" 
d="M187 0v219h195v-219h-195z" />
    <glyph glyph-name="slash" unicode="/" horiz-adv-x="569" 
d="M0 -20l411 1504h158l-407 -1504h-162z" />
    <glyph glyph-name="zero" unicode="0" 
d="M1059 705c0 -235.333 -41.5 -415 -124.5 -539s-205.5 -186 -367.5 -186s-283.667 61.667 -365 185s-122 303.333 -122 540c0 242 39.5 423.333 118.5 544s203.833 181 374.5 181c166 0 288.5 -61 367.5 -183s118.5 -302.667 118.5 -542zM876 705
c0 203.333 -23.5 350.667 -70.5 442s-124.5 137 -232.5 137c-110.667 0 -190.167 -45 -238.5 -135s-72.5 -238 -72.5 -444c0 -200 24.5 -346.333 73.5 -439s126.833 -139 233.5 -139c106 0 183.667 47.333 233 142s74 240 74 436z" />
    <glyph glyph-name="one" unicode="1" 
d="M156 0v153h359v1084l-318 -227v170l333 229h166v-1256h343v-153h-883z" />
    <glyph glyph-name="two" unicode="2" 
d="M103 0l0.00292969 127.003c34 78 75.5 146.833 124.5 206.5s100.5 113.667 154.5 162s107.5 93.166 160.5 134.499s100.833 82.666 143.5 123.999s77.167 84.666 103.5 129.999s39.5 96.666 39.5 153.999c0 77.333 -22.667 137.333 -68 180s-108.333 64 -189 64
c-76.667 0 -139.834 -20.833 -189.501 -62.5s-78.834 -100.167 -87.501 -175.5l-184 17c13.333 112.667 61.166 202.334 143.499 269.001s188.166 100 317.499 100c142 0 251.167 -33.5 327.5 -100.5s114.5 -162.167 114.5 -285.5c0 -54.667 -12.5 -109 -37.5 -163
s-62.167 -108 -111.5 -162s-143.666 -137.667 -282.999 -251c-76.667 -62.667 -137.667 -119.167 -183 -169.5s-78 -98.833 -98 -145.5h735v-153h-933z" />
    <glyph glyph-name="three" unicode="3" 
d="M1049 389c0 -130 -41.332 -230.668 -123.999 -302.001s-200.667 -107 -354 -107c-142.667 0 -256.5 32.167 -341.5 96.5s-135.5 159.5 -151.5 285.5l186 17c24 -166.667 126.333 -250 307 -250c90.667 0 161.834 22.333 213.501 67s77.5 111 77.5 199
c0 76.667 -29.5 136.5 -88.5 179.5s-144.167 64.5 -255.5 64.5h-102v156h98c98.667 0 175.167 21.5 229.5 64.5s81.5 102.5 81.5 178.5c0 75.333 -22.167 134.833 -66.5 178.5s-110.166 65.5 -197.499 65.5c-79.333 0 -143.5 -20.333 -192.5 -61s-77.5 -98 -85.5 -172
l-181 14c13.333 115.333 61.166 205.333 143.499 270s188.166 97 317.499 97c141.333 0 251.166 -32.833 329.499 -98.5s117.5 -157.167 117.5 -274.5c0 -90 -25.167 -163.167 -75.5 -219.5s-123.5 -94.5 -219.5 -114.5v-4c105.333 -11.333 187.333 -46.666 246 -105.999
s88 -134 88 -224z" />
    <glyph glyph-name="four" unicode="4" 
d="M881 319v-319h-170v319h-664v140l645 950h189v-948h198v-142h-198zM711 1206c-1.33301 -4 -10.667 -21.667 -28 -53s-30.333 -53.333 -39 -66l-361 -532l-54 -74l-16 -20h498v745z" />
    <glyph glyph-name="five" unicode="5" 
d="M1053 459c0 -148.667 -44.168 -265.668 -132.501 -351.001s-210.833 -128 -367.5 -128c-131.333 0 -237.333 28.667 -318 86s-131.667 140.333 -153 249l182 21c38 -139.333 135.667 -209 293 -209c96.667 0 172.334 29.167 227.001 87.5s82 138.5 82 240.5
c0 88.667 -27.5 160.334 -82.5 215.001s-129.167 82 -222.5 82c-48.667 0 -94 -7.66699 -136 -23s-84 -41.333 -126 -78h-176l47 758h801v-153h-637l-27 -447c78 60 175 90 291 90c138.667 0 249.167 -40.667 331.5 -122s123.5 -187.333 123.5 -318z" />
    <glyph glyph-name="six" unicode="6" 
d="M1049 461c0 -148.667 -40.333 -266.002 -121 -352.002s-192 -129 -334 -129c-158.667 0 -280 59 -364 177s-126 289.667 -126 515c0 244 43.667 431.333 131 562s211.666 196 372.999 196c212.667 0 346.667 -95.667 402 -287l-172 -31
c-35.333 114.667 -112.666 172 -231.999 172c-102.667 0 -182.167 -47.833 -238.5 -143.5s-84.5 -234.167 -84.5 -415.5c32.667 60.667 78.667 106.834 138 138.501s127.333 47.5 204 47.5c130 0 233.167 -40.667 309.5 -122s114.5 -190.666 114.5 -327.999zM866 452.998
c0 102 -25 180.667 -75 236s-119.667 83 -209 83c-84 0 -151.833 -24.5 -203.5 -73.5s-77.5 -116.5 -77.5 -202.5c0 -108.667 26.833 -197.667 80.5 -267s122.5 -104 206.5 -104c86.667 0 154.667 29.167 204 87.5s74 138.5 74 240.5z" />
    <glyph glyph-name="seven" unicode="7" 
d="M1036 1263c-144 -220 -245.667 -392.333 -305 -517s-103.833 -247.667 -133.5 -369s-44.5 -247 -44.5 -377h-188c0 180 38.167 369.5 114.5 568.5s203.833 428.167 382.5 687.5h-757v153h931v-146z" />
    <glyph glyph-name="eight" unicode="8" 
d="M1050 393c0 -130 -41.3311 -231.331 -123.998 -303.998s-201.334 -109 -356.001 -109c-150.667 0 -268.5 35.667 -353.5 107s-127.5 172.666 -127.5 303.999c0 92 26.333 169.333 79 232s120 100.667 202 114v4c-76.667 18 -137.167 57 -181.5 117
s-66.5 130.333 -66.5 211c0 107.333 40.167 194.333 120.5 261s188.166 100 323.499 100c138.667 0 248.167 -32.667 328.5 -98s120.5 -153.666 120.5 -264.999c0 -80.667 -22.333 -151 -67 -211s-105.667 -97.667 -183 -113v-4c90 -14.667 160 -52.834 210 -114.501
s75 -138.834 75 -231.501zM828.002 1057c0 159.333 -87.333 239 -262 239c-84.667 0 -149.167 -20 -193.5 -60s-66.5 -99.667 -66.5 -179c0 -80.667 22.833 -142.167 68.5 -184.5s110.167 -63.5 193.5 -63.5c84.667 0 149.167 19.5 193.5 58.5s66.5 102.167 66.5 189.5z
M863.002 410.002c0 87.333 -26.001 153.167 -78.001 197.5s-125 66.5 -219 66.5c-91.333 0 -162.666 -23.833 -213.999 -71.5s-77 -113.167 -77 -196.5c0 -194 99 -291 297 -291c98 0 171 23.5 219 70.5s72 121.833 72 224.5z" />
    <glyph glyph-name="nine" unicode="9" 
d="M1042 733c0 -242 -44.1689 -427.998 -132.502 -557.998s-214.166 -195 -377.499 -195c-110 0 -198.167 23.167 -264.5 69.5s-113.833 121.166 -142.5 224.499l172 27c36 -117.333 115.333 -176 238 -176c103.333 0 183.333 48 240 144s86.334 233 89.001 411
c-26.667 -60 -72.334 -108.167 -137.001 -144.5s-135.667 -54.5 -213 -54.5c-126.667 0 -228 43.333 -304 130s-114 201.667 -114 345c0 147.333 41.333 263.166 124 347.499s197.667 126.5 345 126.5c156.667 0 275.334 -58 356.001 -174s121 -290.333 121 -523z
M845.998 907.002c0 113.333 -26.001 204.502 -78.001 273.502s-121.667 103.5 -209 103.5c-86.667 0 -155 -29.5 -205 -88.5s-75 -138.833 -75 -239.5c0 -102.667 25 -183.834 75 -243.501s117.667 -89.5 203 -89.5c52 0 100.333 11.833 145 35.5
s79.834 57.167 105.501 100.5s38.5 92.666 38.5 147.999z" />
    <glyph glyph-name="colon" unicode=":" horiz-adv-x="569" 
d="M187 875v207h195v-207h-195zM187 0v207h195v-207h-195z" />
    <glyph glyph-name="semicolon" unicode=";" horiz-adv-x="569" 
d="M385 207l0.000976562 -156.001c0 -70.667 -6.33301 -129.667 -19 -177s-32.334 -92.666 -59.001 -135.999h-123c62.667 90.667 94 178 94 262h-88v207h195zM190.001 874.999v207h195v-207h-195z" />
    <glyph glyph-name="less" unicode="&#x3c;" horiz-adv-x="1196" 
d="M101 571v205l995 418v-154l-858 -366l858 -367v-153z" />
    <glyph glyph-name="equal" unicode="=" horiz-adv-x="1196" 
d="M100 856v148h995v-148h-995zM100 344v148h995v-148h-995z" />
    <glyph glyph-name="greater" unicode="&#x3e;" horiz-adv-x="1196" 
d="M101 154v153l858 367l-858 366v154l995 -418v-205z" />
    <glyph glyph-name="question" unicode="?" 
d="M1063 1032c0 -50 -7.33398 -94.6689 -22.001 -134.002s-35.667 -75.666 -63 -108.999s-72 -72.666 -134 -117.999l-80 -59c-48 -34.667 -83.667 -71.167 -107 -109.5s-35.333 -80.166 -36 -125.499h-175c1.33301 46 8.5 86.333 21.5 121s29.833 65.334 50.5 92.001
s44 50.5 70 71.5s52.333 41 79 60l78.5 57c25.667 19 48.5 40.167 68.5 63.5s36.167 49.666 48.5 78.999s18.5 63.666 18.5 102.999c0 76 -25.833 136 -77.5 180s-124.167 66 -217.5 66s-167.333 -23.333 -222 -70s-86.667 -110.667 -96 -192l-184 12
c17.333 132 69.333 233.333 156 304s201.334 106 344.001 106c148.667 0 265.667 -35.167 351 -105.5s128 -167.833 128 -292.5zM437.999 -0.00195312v201h195v-201h-195z" />
    <glyph glyph-name="at" unicode="@" horiz-adv-x="2079" 
d="M1902 755c0 -124 -19.1689 -236.17 -57.502 -336.503s-91.666 -177.833 -159.999 -232.5s-144.833 -82 -229.5 -82c-66 0 -117 14.667 -153 44s-54 73.333 -54 132l3 70h-6c-44 -82 -98.5 -143.5 -163.5 -184.5s-135.167 -61.5 -210.5 -61.5
c-104.667 0 -185.834 34 -243.501 102s-86.5 162.333 -86.5 283c0 109.333 21.5 211 64.5 305s103.167 168.667 180.5 224s163 83 257 83c146 0 246.333 -60.667 301 -182h6l39 160h156l-116 -506c-24.667 -109.333 -37 -193.666 -37 -252.999c0 -62.667 27 -94 81 -94
c53.333 0 102.5 23 147.5 69s80.5 109.333 106.5 190s39 170 39 268c0 119.333 -25.667 225.166 -77 317.499s-125.333 163.333 -222 213s-209.667 74.5 -339 74.5c-161.333 0 -304 -35.667 -428 -107s-221.333 -174.166 -292 -308.499s-106 -284.833 -106 -451.5
c0 -128.667 26.167 -242.167 78.5 -340.5s128 -173.833 227 -226.5s214.5 -79 346.5 -79c96.667 0 194.667 12.5 294 37.5s202.333 66.5 309 124.5l55 -112c-96.667 -58 -201.5 -102.167 -314.5 -132.5s-227.5 -45.5 -343.5 -45.5c-160.667 0 -301.167 31.833 -421.5 95.5
s-212.333 154.334 -276 272.001s-95.5 253.167 -95.5 406.5c0 186.667 41.5 356.334 124.5 509.001s198.167 271.5 345.5 356.5s312.333 127.5 495 127.5c160.667 0 299.334 -30.167 416.001 -90.5s205.834 -145.5 267.501 -255.5s92.5 -237.667 92.5 -383zM1296 746.997
c0 68 -22 122.834 -66 164.501s-102.667 62.5 -176 62.5c-67.333 0 -127.166 -21.167 -179.499 -63.5s-93.5 -101 -123.5 -176s-45 -156.167 -45 -243.5c0 -80 15.833 -142.667 47.5 -188s80.5 -68 146.5 -68c83.333 0 159.666 35 228.999 105s117.333 157.333 144 262
c15.333 61.333 23 109.666 23 144.999z" />
    <glyph glyph-name="A" unicode="A" horiz-adv-x="1366" 
d="M1167 0l-161 412h-642l-162 -412h-198l575 1409h217l566 -1409h-195zM685 1265l-8.99805 -28c-16.667 -55.333 -41.334 -126.333 -74.001 -213l-180 -463h527l-181 465c-18.667 46 -37.334 98 -56.001 156z" />
    <glyph glyph-name="B" unicode="B" horiz-adv-x="1366" 
d="M1258 397c0 -125.333 -45.667 -222.833 -137 -292.5s-218.333 -104.5 -381 -104.5h-572v1409h512c330.667 0 496 -114 496 -342c0 -83.333 -23.333 -153.333 -70 -210s-112.667 -94.667 -198 -114c112 -13.333 198.333 -50.833 259 -112.5s91 -139.5 91 -233.5zM984 1044
c0 76 -26 130.334 -78 163.001s-127.333 49 -226 49h-321v-446h321c102 0 178.167 19.167 228.5 57.5s75.5 97.166 75.5 176.499zM1065 412.001c0 166 -116.667 249 -350 249h-356v-508h371c116.667 0 201.667 21.667 255 65s80 108 80 194z" />
    <glyph glyph-name="C" unicode="C" horiz-adv-x="1479" 
d="M792 1274c-156 0 -277.333 -50.168 -364 -150.501s-130 -237.833 -130 -412.5c0 -172.667 45.167 -311.5 135.5 -416.5s212.5 -157.5 366.5 -157.5c197.333 0 345.666 97.667 444.999 293l156 -78c-58 -121.333 -139.5 -213.666 -244.5 -276.999s-226.833 -95 -365.5 -95
c-142 0 -264.833 29.5 -368.5 88.5s-182.667 143.333 -237 253s-81.5 239.5 -81.5 389.5c0 224.667 60.667 400.667 182 528s289.333 191 504 191c150 0 275.333 -29.333 376 -88s174.667 -145.667 222 -261l-181 -60c-32.667 82 -85.167 144.667 -157.5 188
s-158.166 65 -257.499 65z" />
    <glyph glyph-name="D" unicode="D" horiz-adv-x="1479" 
d="M1381 719c0 -145.333 -28.334 -272.499 -85.001 -381.499s-137 -192.5 -241 -250.5s-224 -87 -360 -87h-527v1409h466c238.667 0 422.834 -59.833 552.501 -179.5s194.5 -289.834 194.5 -510.501zM1189 719.001c0 174.667 -47.832 307.834 -143.499 399.501
s-234.167 137.5 -415.5 137.5h-271v-1103h314c103.333 0 194.166 22.667 272.499 68s138.5 110.666 180.5 195.999s63 186 63 302z" />
    <glyph glyph-name="E" unicode="E" horiz-adv-x="1366" 
d="M168 0v1409h1069v-156h-878v-452h818v-154h-818v-491h919v-156h-1110z" />
    <glyph glyph-name="F" unicode="F" horiz-adv-x="1251" 
d="M359 1253v-524h786v-158h-786v-571h-191v1409h1001v-156h-810z" />
    <glyph glyph-name="G" unicode="G" horiz-adv-x="1593" 
d="M103 711c0 228.667 61.334 405.668 184.001 531.001s295 188 517 188c156 0 282.667 -26.333 380 -79s172.333 -137 225 -253l-182 -54c-40 80 -95.167 138.333 -165.5 175s-157.833 55 -262.5 55c-162.667 0 -287 -49.167 -373 -147.5s-129 -236.833 -129 -415.5
c0 -178 45.667 -318.5 137 -421.5s217.666 -154.5 378.999 -154.5c92 0 177.833 14 257.5 42s144.167 66 193.5 114v254h-421v160h597v-486c-74.667 -76 -166.167 -134.833 -274.5 -176.5s-225.833 -62.5 -352.5 -62.5c-147.333 0 -274.333 29.333 -381 88
s-188.167 143.167 -244.5 253.5s-84.5 240.166 -84.5 389.499z" />
    <glyph glyph-name="H" unicode="H" horiz-adv-x="1479" 
d="M1121 0v653h-762v-653h-191v1409h191v-596h762v596h191v-1409h-191z" />
    <glyph glyph-name="I" unicode="I" horiz-adv-x="569" 
d="M189 0v1409h191v-1409h-191z" />
    <glyph glyph-name="J" unicode="J" horiz-adv-x="1024" 
d="M457 -20c-238.667 0 -380.333 123.332 -425 369.999l187 31c12 -77.333 39 -137.666 81 -180.999s94.667 -65 158 -65c69.333 0 124 23.833 164 71.5s60 117.5 60 209.5v837h-271v156h461v-989c0 -136.667 -37 -244.167 -111 -322.5s-175.333 -117.5 -304 -117.5z" />
    <glyph glyph-name="K" unicode="K" horiz-adv-x="1366" 
d="M1106 0l-563 680l-184 -140v-540h-191v1409h191v-706l679 706h225l-600 -612l680 -797h-237z" />
    <glyph glyph-name="L" unicode="L" 
d="M168 0v1409h191v-1253h712v-156h-903z" />
    <glyph glyph-name="M" unicode="M" horiz-adv-x="1706" 
d="M1366 0l0.000976562 939.999c0 104 3 204 9 300c-32.667 -119.333 -62 -212.666 -88 -279.999l-364 -960h-134l-369 960l-56 170l-33 110l3 -111l4 -189v-940h-170v1409h251l375 -977c13.333 -39.333 26.166 -81.5 38.499 -126.5s20.5 -77.5 24.5 -97.5
c5.33301 26.667 16.5 67.167 33.5 121.5s28.5 88.5 34.5 102.5l368 977h245v-1409h-172z" />
    <glyph glyph-name="N" unicode="N" horiz-adv-x="1479" 
d="M1082 0l-754 1200l5 -97l5 -167v-936h-170v1409h222l762 -1208c-8 130.667 -12 225.334 -12 284.001v924h172v-1409h-230z" />
    <glyph glyph-name="O" unicode="O" horiz-adv-x="1593" 
d="M1495 711c0 -147.333 -28.168 -276.333 -84.501 -387s-137.166 -195.667 -242.499 -255s-229.666 -89 -372.999 -89c-144.667 0 -269.5 29.333 -374.5 88s-185.167 143.5 -240.5 254.5s-83 240.5 -83 388.5c0 225.333 61.667 401.5 185 528.5s295 190.5 515 190.5
c143.333 0 267.666 -28.5 372.999 -85.5s185.833 -139.833 241.5 -248.5s83.5 -237 83.5 -385zM1300 711c0 175.333 -43.833 313.002 -131.5 413.002s-211.5 150 -371.5 150c-161.333 0 -286 -49.333 -374 -148s-132 -237 -132 -415
c0 -176.667 44.5 -316.834 133.5 -420.501s212.5 -155.5 370.5 -155.5c162.667 0 287.5 50.167 374.5 150.5s130.5 242.166 130.5 425.499z" />
    <glyph glyph-name="P" unicode="P" horiz-adv-x="1366" 
d="M1258 985c0 -133.333 -43.5 -239.333 -130.5 -318s-205.167 -118 -354.5 -118h-414v-549h-191v1409h593c158 0 280.333 -37 367 -111s130 -178.333 130 -313zM1066 983c0 182 -109.333 273 -328 273h-379v-556h387c213.333 0 320 94.333 320 283z" />
    <glyph glyph-name="Q" unicode="Q" horiz-adv-x="1593" 
d="M1495 711c0 -198.667 -49.998 -362 -149.998 -490s-239 -203.667 -417 -227c27.333 -84 63.166 -144.667 107.499 -182s100.5 -56 168.5 -56c36.667 0 75 4.33301 115 13v-134c-62 -14.667 -121.333 -22 -178 -22c-100.667 0 -183.5 28.5 -248.5 85.5
s-118.167 152.167 -159.5 285.5c-132 6.66699 -245.833 40.167 -341.5 100.5s-168.667 144.333 -219 252s-75.5 232.5 -75.5 374.5c0 225.333 61.667 401.5 185 528.5s295 190.5 515 190.5c143.333 0 267.666 -28.5 372.999 -85.5s185.833 -139.833 241.5 -248.5
s83.5 -237 83.5 -385zM1300 711c0 175.333 -43.833 313.002 -131.5 413.002s-211.5 150 -371.5 150c-161.333 0 -286 -49.333 -374 -148s-132 -237 -132 -415c0 -176.667 44.5 -316.834 133.5 -420.501s212.5 -155.5 370.5 -155.5c162.667 0 287.5 50.167 374.5 150.5
s130.5 242.166 130.5 425.499z" />
    <glyph glyph-name="R" unicode="R" horiz-adv-x="1479" 
d="M1164 0l-366 585h-439v-585h-191v1409h663c158.667 0 281.167 -35.5 367.5 -106.5s129.5 -169.833 129.5 -296.5c0 -104.667 -30.5 -192.667 -91.5 -264s-145.167 -116.333 -252.5 -135l400 -607h-220zM1136 1004c0 82 -27.832 144.5 -83.499 187.5
s-135.834 64.5 -240.501 64.5h-453v-520h461c100.667 0 178.5 23.5 233.5 70.5s82.5 112.833 82.5 197.5z" />
    <glyph glyph-name="S" unicode="S" horiz-adv-x="1366" 
d="M1272 389c0 -130 -50.8262 -230.673 -152.493 -302.006s-244.834 -107 -429.501 -107c-343.333 0 -542.333 119.333 -597 358l185 37c21.333 -84.667 66.666 -146.834 135.999 -186.501s163.666 -59.5 282.999 -59.5c123.333 0 218.5 21.167 285.5 63.5
s100.5 104.5 100.5 186.5c0 46 -10.5 83.333 -31.5 112s-50.5 52.334 -88.5 71.001s-83.333 34.334 -136 47.001l-175 41c-111.333 24.667 -195.833 49.334 -253.5 74.001s-103.167 52.167 -136.5 82.5s-58.833 65.833 -76.5 106.5s-26.5 87.334 -26.5 140.001
c0 120.667 46.167 213.667 138.5 279s224.5 98 396.5 98c160 0 282.333 -24.5 367 -73.5s144 -132.5 178 -250.5l-188 -33c-20.667 74.667 -60 128.834 -118 162.501s-138.333 50.5 -241 50.5c-112.667 0 -198.667 -18.667 -258 -56s-89 -93 -89 -167
c0 -43.333 11.5 -79.166 34.5 -107.499s56.167 -52.333 99.5 -72s129.666 -43.834 258.999 -72.501l129.5 -30.5c43 -10.333 84.167 -22.666 123.5 -36.999s76.166 -31.166 110.499 -50.499s64.166 -43 89.499 -71s45.166 -61 59.499 -99s21.5 -82.667 21.5 -134z" />
    <glyph glyph-name="T" unicode="T" horiz-adv-x="1251" 
d="M720 1253v-1253h-190v1253h-484v156h1158v-156h-484z" />
    <glyph glyph-name="U" unicode="U" horiz-adv-x="1479" 
d="M731 -20c-115.333 0 -216 21.002 -302 63.002s-152.667 103 -200 183s-71 175.333 -71 286v897h191v-881c0 -128.667 32.667 -226.334 98 -293.001s159.666 -100 282.999 -100c126.667 0 225.167 34.5 295.5 103.5s105.5 169.833 105.5 302.5v868h190v-879
c0 -114 -24.167 -212.333 -72.5 -295s-116.666 -145.834 -204.999 -189.501s-192.5 -65.5 -312.5 -65.5z" />
    <glyph glyph-name="V" unicode="V" horiz-adv-x="1366" 
d="M782 0h-198l-575 1409h201l390 -992l84 -249l84 249l388 992h201z" />
    <glyph glyph-name="W" unicode="W" horiz-adv-x="1933" 
d="M1511 0l-227.999 -0.00195312l-244 895c-16 56 -39.333 156.333 -70 301l-44 -194c-12 -52 -103 -386 -273 -1002h-228l-415 1409h199l253 -895c30 -112 57.667 -227.333 83 -346c16 73.333 34.5 153.333 55.5 240s113.5 420.334 277.5 1001h183l245 -877
c37.333 -143.333 66.666 -264.666 87.999 -363.999l9 35l44 187.5c11.333 48.333 105 387.833 281 1018.5h199z" />
    <glyph glyph-name="X" unicode="X" horiz-adv-x="1366" 
d="M1112 0l-423 616l-432 -616h-211l536 732l-495 677h211l392 -553l381 553h211l-482 -670l523 -739h-211z" />
    <glyph glyph-name="Y" unicode="Y" horiz-adv-x="1366" 
d="M777 584v-584h-190v584l-542 825h210l429 -671l427 671h210z" />
    <glyph glyph-name="Z" unicode="Z" horiz-adv-x="1251" 
d="M1187 0h-1122v143l858 1110h-785v156h1002v-139l-858 -1114h905v-156z" />
    <glyph glyph-name="bracketleft" unicode="[" horiz-adv-x="569" 
d="M146 -425v1909h407v-129h-233v-1651h233v-129h-407z" />
    <glyph glyph-name="backslash" unicode="\" horiz-adv-x="569" 
d="M407 -20l-407 1504h158l411 -1504h-162z" />
    <glyph glyph-name="bracketright" unicode="]" horiz-adv-x="569" 
d="M16 -425v129h233v1651h-233v129h407v-1909h-407z" />
    <glyph glyph-name="asciicircum" unicode="^" horiz-adv-x="961" 
d="M787 673l-309 633l-306 -633h-162l368 736h203l370 -736h-164z" />
    <glyph glyph-name="underscore" unicode="_" 
d="M-31 -407v130h1193v-130h-1193z" />
    <glyph glyph-name="grave" unicode="`" horiz-adv-x="682" 
d="M436 1201l-330 278v29h207l217 -287v-20h-94z" />
    <glyph glyph-name="a" unicode="a" 
d="M414 -20c-108.667 0 -190.334 28.667 -245.001 86s-82 136 -82 236c0 112 36.833 198 110.5 258s192.5 92 356.5 96l243 4v59c0 88 -18.667 151 -56 189s-96 57 -176 57c-80.667 0 -139.334 -13.667 -176.001 -41s-58.667 -71 -66 -131l-188 17
c30.667 194.667 175.334 292 434.001 292c136 0 238.333 -31.167 307 -93.5s103 -152.5 103 -270.5v-466c0 -53.333 7 -93.5 21 -120.5s40.667 -40.5 80 -40.5c17.333 0 37 2.33301 59 7v-112c-45.333 -10.667 -91.666 -16 -138.999 -16
c-66.667 0 -115.167 17.5 -145.5 52.5s-47.5 89.833 -51.5 164.5h-6c-46 -82.667 -99.5 -141.167 -160.5 -175.5s-135.167 -51.5 -222.5 -51.5zM455 115c66 0 124.667 15.001 176 45.001s91.833 71.167 121.5 123.5s44.5 106.166 44.5 161.499v89l-197 -4
c-84.667 -1.33301 -148.834 -10 -192.501 -26s-77.167 -40.667 -100.5 -74s-35 -77 -35 -131c0 -58.667 15.833 -104 47.5 -136s76.834 -48 135.501 -48z" />
    <glyph glyph-name="b" unicode="b" 
d="M1053 546c0 -377.333 -132.667 -566 -398 -566c-82 0 -150.167 14.833 -204.5 44.5s-98.5 77.5 -132.5 143.5h-2c0 -20.667 -1.33301 -52.167 -4 -94.5s-4.66699 -66.833 -6 -73.5h-174c4 36 6 110.333 6 223v1261h180v-423c0 -43.333 -1.33301 -94.333 -4 -153h4
c33.333 69.333 77.5 119 132.5 149s123.167 45 204.5 45c136.667 0 237.167 -46 301.5 -138s96.5 -231.333 96.5 -418zM864 540c0 151.333 -20.001 259.667 -60.001 325s-105 98 -195 98c-101.333 0 -175.166 -34.667 -221.499 -104s-69.5 -179.333 -69.5 -330
c0 -142 22.667 -246.833 68 -314.5s119 -101.5 221 -101.5c90.667 0 156.167 33.5 196.5 100.5s60.5 175.833 60.5 326.5z" />
    <glyph glyph-name="c" unicode="c" horiz-adv-x="1024" 
d="M275 546c0 -144 22.6689 -250.667 68.002 -320s113.666 -104 204.999 -104c64 0 117.5 17.333 160.5 52s69.5 88 79.5 160l182 -12c-14 -104 -58.333 -187 -133 -249s-169.334 -93 -284.001 -93c-151.333 0 -266.833 47.833 -346.5 143.5s-119.5 235.167 -119.5 418.5
c0 182 40 320.833 120 416.5s194.667 143.5 344 143.5c110.667 0 202.5 -28.667 275.5 -86s118.833 -136.333 137.5 -237l-185 -14c-9.33301 60 -33 107.667 -71 143s-92 53 -162 53c-95.333 0 -164.333 -31.667 -207 -95s-64 -170 -64 -320z" />
    <glyph glyph-name="d" unicode="d" 
d="M821 174c-33.333 -69.333 -77.5 -119.001 -132.5 -149.001s-123.167 -45 -204.5 -45c-136.667 0 -237.167 46 -301.5 138s-96.5 231.333 -96.5 418c0 377.333 132.667 566 398 566c82 0 150.333 -15 205 -45s98.667 -77.667 132 -143h2l-2 121v449h180v-1261
c0 -112.667 2 -187 6 -223h-172c-2 10.667 -4.16699 35.334 -6.5 74.001s-3.5 72 -3.5 100h-4zM275 541.999c0 -151.333 20 -259.668 60 -325.001s105 -98 195 -98c102 0 176 35.333 222 106s69 180.334 69 329.001c0 143.333 -23 248.333 -69 315s-119.333 100 -220 100
c-90.667 0 -156.167 -33.5 -196.5 -100.5s-60.5 -175.833 -60.5 -326.5z" />
    <glyph glyph-name="e" unicode="e" 
d="M276 503c0 -124 25.667 -219.667 77 -287s126.333 -101 225 -101c78 0 140.5 15.667 187.5 47s78.833 71 95.5 119l158 -45c-64.667 -170.667 -211.667 -256 -441 -256c-160 0 -281.833 47.667 -365.5 143s-125.5 237 -125.5 425c0 178.667 41.833 315.667 125.5 411
s203.167 143 358.5 143c318 0 477 -191.667 477 -575v-24h-772zM862 641c-10 114 -39 197.167 -87 249.5s-117 78.5 -207 78.5c-87.333 0 -156.5 -29.167 -207.5 -87.5s-78.5 -138.5 -82.5 -240.5h584z" />
    <glyph glyph-name="f" unicode="f" horiz-adv-x="569" 
d="M361 951l0.000976562 -951.001h-180v951h-152v131h152v122c0 98.667 21.667 169.667 65 213s109.666 65 198.999 65c50 0 92.333 -4 127 -12v-137c-30 5.33301 -56.667 8 -80 8c-46 0 -79.333 -11.667 -100 -35s-31 -65.666 -31 -126.999v-97h211v-131h-211z" />
    <glyph glyph-name="g" unicode="g" 
d="M548 -425c-118 0 -212.002 23.168 -282.002 69.501s-115 112.166 -135 197.499l181 26c12 -50 38.5 -88.5 79.5 -115.5s94.833 -40.5 161.5 -40.5c179.333 0 269 105 269 315v174h-2c-34 -69.333 -80.667 -121.5 -140 -156.5s-128.666 -52.5 -207.999 -52.5
c-132.667 0 -230.167 44 -292.5 132s-93.5 226.333 -93.5 415c0 191.333 33.5 332.5 100.5 423.5s168.833 136.5 305.5 136.5c76.667 0 143.167 -17.5 199.5 -52.5s99.833 -84.833 130.5 -149.5h2c0 20 1.33301 54.667 4 104s5.33398 76.333 8.00098 81h171
c-4 -36 -6 -110.667 -6 -224v-827c0 -304 -151 -456 -453 -456zM821.998 541.001c0 88 -11.999 163.833 -35.999 227.5s-57.833 112.334 -101.5 146.001s-93.167 50.5 -148.5 50.5c-92 0 -159 -33.333 -201 -100s-63 -174.667 -63 -324c0 -148 19.667 -254.333 59 -319
s106.666 -97 201.999 -97c56.667 0 107 16.667 151 50s78 81.166 102 143.499s36 136.5 36 222.5z" />
    <glyph glyph-name="h" unicode="h" 
d="M317 897c38.667 70.667 85.168 122.499 139.501 155.499s123.166 49.5 206.499 49.5c117.333 0 203.833 -29.167 259.5 -87.5s83.5 -156.166 83.5 -293.499v-721h-181v686c0 76 -7 132.5 -21 169.5s-37 64.167 -69 81.5s-76.333 26 -133 26
c-84.667 0 -152.5 -29.333 -203.5 -88s-76.5 -137.667 -76.5 -237v-638h-180v1484h180v-386c0 -40.667 -1.16699 -82.667 -3.5 -126s-3.83301 -68.333 -4.5 -75h3z" />
    <glyph glyph-name="i" unicode="i" horiz-adv-x="455" 
d="M137 1312v172h180v-172h-180zM137 0v1082h180v-1082h-180z" />
    <glyph glyph-name="j" unicode="j" horiz-adv-x="455" 
d="M137 1312v172h180v-172h-180zM317 -134c0 -102 -20.001 -176 -60.001 -222s-100 -69 -180 -69c-51.333 0 -93.666 3 -126.999 9v139l62 -6c46 0 78.333 12 97 36s28 70.667 28 140v1189h180v-1216z" />
    <glyph glyph-name="k" unicode="k" horiz-adv-x="1024" 
d="M816 0l-366 494l-132 -109v-385h-180v1484h180v-927l475 525h211l-439 -465l462 -617h-211z" />
    <glyph glyph-name="l" unicode="l" horiz-adv-x="455" 
d="M138 0v1484h180v-1484h-180z" />
    <glyph glyph-name="m" unicode="m" horiz-adv-x="1706" 
d="M768 0l0.00195312 685.999c0 104.667 -14.333 177 -43 217s-80.334 60 -155.001 60c-76.667 0 -137.334 -29.333 -182.001 -88s-67 -141.334 -67 -248.001v-627h-179v851c0 126 -2 203 -6 231h170c0.666992 -3.33301 1.33398 -12.333 2.00098 -27s1.5 -31.5 2.5 -50.5
s2.16699 -54.833 3.5 -107.5h3c38.667 76.667 83 130 133 160s111 45 183 45c82 0 146.833 -16.333 194.5 -49s80.834 -84.667 99.501 -156h3c37.333 72.667 82.5 125 135.5 157s117.167 48 192.5 48c109.333 0 188.833 -29.667 238.5 -89s74.5 -156.666 74.5 -291.999v-721
h-178v686c0 104.667 -14.333 177 -43 217s-80.334 60 -155.001 60c-78.667 0 -139.834 -29.167 -183.501 -87.5s-65.5 -141.166 -65.5 -248.499v-627h-178z" />
    <glyph glyph-name="n" unicode="n" 
d="M825 0v686.001c0 71.333 -7 126.666 -21 165.999s-36.333 67.666 -67 84.999s-75.667 26 -135 26c-86.667 0 -155 -29.667 -205 -89s-75 -141.666 -75 -246.999v-627h-180v851c0 126 -2 203 -6 231h170c0.666992 -3.33301 1.33398 -12.333 2.00098 -27
s1.5 -31.5 2.5 -50.5s2.16699 -54.833 3.5 -107.5h3c41.333 74.667 89.166 127.5 143.499 158.5s121.833 46.5 202.5 46.5c118.667 0 205.5 -29.5 260.5 -88.5s82.5 -156.5 82.5 -292.5v-721h-181z" />
    <glyph glyph-name="o" unicode="o" 
d="M1053 542c0 -189.333 -41.667 -330.333 -125 -423s-204.333 -139 -363 -139c-158 0 -277.333 48.167 -358 144.5s-121 235.5 -121 417.5c0 373.333 161.667 560 485 560c165.333 0 287 -45.5 365 -136.5s117 -232.167 117 -423.5zM864 542
c0 149.333 -22.166 257.835 -66.499 325.502s-118.833 101.5 -223.5 101.5c-105.333 0 -181.5 -34.5 -228.5 -103.5s-70.5 -176.833 -70.5 -323.5c0 -142.667 23.167 -249.834 69.5 -321.501s119.166 -107.5 218.499 -107.5c108 0 185.167 34.667 231.5 104
s69.5 177.666 69.5 324.999z" />
    <glyph glyph-name="p" unicode="p" 
d="M1053 546c0 -377.333 -132.667 -566.001 -398 -566.001c-166.667 0 -278.667 62.667 -336 188h-5c2.66699 -5.33301 4 -62 4 -170v-423h-180v1286c0 111.333 -2 185 -6 221h174c0.666992 -2.66699 1.66699 -12.167 3 -28.5s2.83301 -41.5 4.5 -75.5s2.5 -57.333 2.5 -70
h4c32 66.667 74.333 115.5 127 146.5s122 46.5 208 46.5c133.333 0 233 -44.667 299 -134s99 -229.666 99 -420.999zM864 541.999c0 150.667 -20.333 258.332 -61 322.999s-105.334 97 -194.001 97c-71.333 0 -127.166 -15 -167.499 -45s-71 -76.833 -92 -140.5
s-31.5 -146.5 -31.5 -248.5c0 -142 22.667 -246.667 68 -314s119 -101 221 -101c89.333 0 154.5 32.833 195.5 98.5s61.5 175.834 61.5 330.501z" />
    <glyph glyph-name="q" unicode="q" 
d="M484 -20c-137.333 0 -238 46.3311 -302 138.998s-96 231.667 -96 417c0 377.333 132.667 566 398 566c82 0 149.667 -14.5 203 -43.5s98 -77.167 134 -144.5h2c0 20 1.33301 54.5 4 103.5s5.33398 75.167 8.00098 78.5h173c-4.66699 -39.333 -7 -137.666 -7 -294.999
v-1226h-180v439l4 164h-2c-36 -71.333 -80.333 -122.166 -133 -152.499s-121.334 -45.5 -206.001 -45.5zM821 553.998c0 140.667 -22.999 244.998 -68.999 312.998s-119.333 102 -220 102c-91.333 0 -157 -34 -197 -102s-60 -176.333 -60 -325
c0 -151.333 20.167 -259.666 60.5 -324.999s105.166 -98 194.499 -98c102 0 176 36.333 222 109s69 181.334 69 326.001z" />
    <glyph glyph-name="r" unicode="r" horiz-adv-x="682" 
d="M142 0v830.001c0 76 -2 160 -6 252h170c5.33301 -122.667 8 -196.334 8 -221.001h4c28.667 92.667 61.667 156 99 190s90 51 158 51c24 0 48.333 -3.33301 73 -10v-165c-24 6.66699 -56 10 -96 10c-74.667 0 -131.667 -32.167 -171 -96.5s-59 -156.5 -59 -276.5v-564
h-180z" />
    <glyph glyph-name="s" unicode="s" horiz-adv-x="1024" 
d="M950 299c0 -102 -38.4971 -180.672 -115.497 -236.005s-184.833 -83 -323.5 -83c-134.667 0 -238.5 22.167 -311.5 66.5s-120.5 113.5 -142.5 207.5l159 31c15.333 -58 47 -100.5 95 -127.5s114.667 -40.5 200 -40.5c91.333 0 158.166 14 200.499 42s63.5 70 63.5 126
c0 42.667 -14.667 77.334 -44 104.001s-76.666 48.667 -141.999 66l-129 34c-103.333 26.667 -176.833 52.834 -220.5 78.501s-77.834 56.834 -102.501 93.501s-37 81.667 -37 135c0 98.667 35.167 173.834 105.5 225.501s172.833 77.5 307.5 77.5
c119.333 0 214.166 -21 284.499 -63s114.833 -109.333 133.5 -202l-162 -20c-10 48 -36.833 84.833 -80.5 110.5s-102.167 38.5 -175.5 38.5c-81.333 0 -141.333 -12.333 -180 -37s-58 -62 -58 -112c0 -30.667 8 -56 24 -76s39.667 -37 71 -51s97.333 -33.333 198 -58
c95.333 -24 164 -46.167 206 -66.5s75.167 -42.833 99.5 -67.5s43.166 -53.167 56.499 -85.5s20 -69.166 20 -110.499z" />
    <glyph glyph-name="t" unicode="t" horiz-adv-x="569" 
d="M554 8c-59.333 -16 -120 -24 -182 -24c-144 0 -216 81.667 -216 245v722h-125v131h132l53 242h120v-242h200v-131h-200v-683c0 -52 8.5 -88.5 25.5 -109.5s46.5 -31.5 88.5 -31.5c24 0 58.667 4.66699 104 14v-133z" />
    <glyph glyph-name="u" unicode="u" 
d="M314 1082v-686.001c0 -71.333 7 -126.666 21 -165.999s36.333 -67.666 67 -84.999s75.667 -26 135 -26c86.667 0 155 29.667 205 89s75 141.666 75 246.999v627h180v-851c0 -126 2 -203 6 -231h-170c-0.666992 3.33301 -1.33398 12.333 -2.00098 27s-1.5 31.5 -2.5 50.5
s-2.16699 54.833 -3.5 107.5h-3c-41.333 -74.667 -89.166 -127.5 -143.499 -158.5s-121.833 -46.5 -202.5 -46.5c-118.667 0 -205.5 29.5 -260.5 88.5s-82.5 156.5 -82.5 292.5v721h181z" />
    <glyph glyph-name="v" unicode="v" horiz-adv-x="1024" 
d="M613 0h-213l-393 1082h192l238 -704c8.66699 -26.667 31.667 -105.667 69 -237l35 117l39 118l246 706h191z" />
    <glyph glyph-name="w" unicode="w" horiz-adv-x="1479" 
d="M1174 0h-209l-189 765l-36 169c-6 -30 -15.333 -73.167 -28 -129.5s-80.667 -324.5 -204 -804.5h-208l-303 1082h178l183 -735c4.66699 -16 19 -82 43 -198l17 74l226 859h193l189 -743l46 -190l31 139l205 794h176z" />
    <glyph glyph-name="x" unicode="x" horiz-adv-x="1024" 
d="M801 0l-291 444l-293 -444h-194l385 556l-367 526h199l270 -421l268 421h201l-367 -524l390 -558h-201z" />
    <glyph glyph-name="y" unicode="y" horiz-adv-x="1024" 
d="M191 -425c-49.333 0 -90.666 3.66602 -123.999 10.999v135c25.333 -4 53.333 -6 84 -6c112 0 200.667 82.333 266 247l17 43l-429 1077h192l228 -598l12 -33.5l45 -130.5c25.333 -74 39 -115.333 41 -124l70 197l237 689h190l-416 -1082
c-44.667 -115.333 -86.334 -201.166 -125.001 -257.499s-81.5 -98.333 -128.5 -126s-100.167 -41.5 -159.5 -41.5z" />
    <glyph glyph-name="z" unicode="z" horiz-adv-x="1024" 
d="M83 0v137l605 806h-571v139h784v-137l-606 -806h627v-139h-839z" />
    <glyph glyph-name="braceleft" unicode="{" horiz-adv-x="684" 
d="M513 -425c-84.667 0 -149.832 25.6689 -195.499 77.002s-68.5 123.333 -68.5 216v361c0 78 -17.5 136.167 -52.5 174.5s-89.167 59.166 -162.5 62.499v127c72.667 2.66699 126.667 23.167 162 61.5s53 96.5 53 174.5v362c0 94 22.167 166.333 66.5 217
s110.166 76 197.499 76h135v-129h-63c-60.667 0 -103.834 -17.833 -129.501 -53.5s-38.5 -89.5 -38.5 -161.5v-356c0 -62.667 -17.667 -116.834 -53 -162.501s-82.333 -75.5 -141 -89.5v-2c59.333 -14 106.5 -43.667 141.5 -89s52.5 -100.333 52.5 -165v-357
c0 -70.667 12.833 -124.167 38.5 -160.5s68.834 -54.5 129.501 -54.5h63v-129h-135z" />
    <glyph glyph-name="bar" unicode="|" horiz-adv-x="532" 
d="M183 -434v1918h166v-1918h-166z" />
    <glyph glyph-name="braceright" unicode="}" horiz-adv-x="684" 
d="M94 -296c60.667 0 104.169 18.1709 130.502 54.5039s39.5 89.833 39.5 160.5v357c0 65.333 17.333 120.666 52 165.999s81.667 74.666 141 87.999v2c-57.333 13.333 -103.833 42.5 -139.5 87.5s-53.5 99.833 -53.5 164.5v356c0 72 -13.167 125.833 -39.5 161.5
s-69.833 53.5 -130.5 53.5h-60v129h132c87.333 0 153.166 -25.333 197.499 -76s66.5 -123 66.5 -217v-362c0 -77.333 17.667 -135.333 53 -174s90 -59.334 164 -62.001v-127c-74.667 -2.66699 -129.5 -23.334 -164.5 -62.001s-52.5 -97 -52.5 -175v-361
c0 -92 -22.833 -163.833 -68.5 -215.5s-110.834 -77.5 -195.501 -77.5h-132v129h60z" />
    <glyph glyph-name="asciitilde" unicode="~" horiz-adv-x="1196" 
d="M844 553c-46 0 -93.166 7.33398 -141.499 22.001s-96.833 30.667 -145.5 48c-86 30 -158.333 45 -217 45c-44.667 0 -86.334 -6.83301 -125.001 -20.5s-79.667 -36.167 -123 -67.5v143c74 56 161.667 84 263 84c34.667 0 73.167 -4.33301 115.5 -13
s106.833 -28.334 193.5 -59.001c20.667 -8 51 -17.5 91 -28.5s75 -16.5 105 -16.5c86.667 0 168 30.667 244 92v-149c-38.667 -28 -77.5 -48.333 -116.5 -61s-86.833 -19 -143.5 -19z" />
    <glyph glyph-name="uni00A0" unicode="&#xa0;" horiz-adv-x="569" 
 />
    <glyph glyph-name="exclamdown" unicode="&#xa1;" horiz-adv-x="682" 
d="M266 685h148l24 -1012h-196zM440 1082v-201h-194v201h194z" />
    <glyph glyph-name="cent" unicode="&#xa2;" 
d="M596 277c64 0 117.501 17.332 160.501 51.999s69.5 88 79.5 160l182 -12c-12.667 -96 -50.667 -174.333 -114 -235s-144 -95.667 -242 -105v-168h-124v168c-132.667 12 -233 65.5 -301 160.5s-102 228.167 -102 399.5c0 168.667 34 300.834 102 396.501
s168.333 149.167 301 160.5v155h124v-155c95.333 -10 173 -42.667 233 -98s99 -129.333 117 -222l-185 -14c-9.33301 60 -33 107.667 -71 143s-92 53 -162 53c-95.333 0 -164.333 -31.667 -207 -95s-64 -170 -64 -320c0 -144 22.667 -250.667 68 -320
s113.666 -104 204.999 -104z" />
    <glyph glyph-name="sterling" unicode="&#xa3;" 
d="M1104 311c-11.333 -100 -46.335 -176.834 -105.002 -230.501s-136 -80.5 -232 -80.5h-698v154c59.333 30.667 103.333 72.667 132 126s43 120.333 43 201v144h-186v129h186v280c0 130 34.333 228.5 103 295.5s168.334 100.5 299.001 100.5
c98 0 180.333 -20.167 247 -60.5s111.334 -96.833 134.001 -169.5l-174 -57c-14 42.667 -39.5 76.5 -76.5 101.5s-79.167 37.5 -126.5 37.5c-76 0 -132.667 -19.167 -170 -57.5s-56 -99.166 -56 -182.499v-288h408v-129h-408v-126c0 -79.333 -15.333 -150 -46 -212
s-71.667 -106.667 -123 -134h483c116 0 183.667 58.667 203 176z" />
    <glyph glyph-name="currency" unicode="&#xa4;" 
d="M137 684c0 92 26 176 78 252l-100 100l104 103l99 -101c76 54.667 160.667 82 254 82c91.333 0 175 -26.667 251 -80l97 97l104 -105l-96 -96c53.333 -78 80 -162 80 -252c0 -92 -27.333 -176 -82 -252l100 -100l-102 -105l-101 101c-76 -52 -159.667 -78 -251 -78
c-95.333 0 -179.333 26.667 -252 80l-105 -105l-102 105l102 102c-52 76 -78 160 -78 252zM291 686c0 -78 27.667 -144.167 83 -198.5s121.333 -81.5 198 -81.5c76 0 141.667 27 197 81s83 120.333 83 199c0 78 -27.833 144.333 -83.5 199s-121.167 82 -196.5 82
s-141 -27.167 -197 -81.5s-84 -120.833 -84 -199.5z" />
    <glyph glyph-name="yen" unicode="&#xa5;" 
d="M720 709h321v-125h-383v-154h383v-127h-383v-303h-178v303h-381v127h381l2 154h-383v125h320l-421 700h199l371 -647l375 647h199z" />
    <glyph glyph-name="brokenbar" unicode="&#xa6;" horiz-adv-x="532" 
d="M183 706v778h166v-778h-166zM183 -434v779h166v-779h-166z" />
    <glyph glyph-name="section" unicode="&#xa7;" 
d="M588 1484c115.333 0 208.502 -22.1689 279.502 -66.502s115.5 -108.833 133.5 -193.5l-161 -20c-18 100 -102 150 -252 150c-83.333 0 -146.5 -13.167 -189.5 -39.5s-64.5 -63.166 -64.5 -110.499c0 -32 10 -59.667 30 -83s48.5 -43.666 85.5 -60.999
s98.833 -36.333 185.5 -57c98 -23.333 173 -48.833 225 -76.5s92.333 -61.167 121 -100.5s43 -86 43 -140c0 -66 -19.833 -124 -59.5 -174s-92.834 -83 -159.501 -99c74.667 -32 128.834 -69.5 162.501 -112.5s50.5 -94.833 50.5 -155.5
c0 -98.667 -38.5 -176.167 -115.5 -232.5s-185.5 -84.5 -325.5 -84.5c-139.333 0 -245.5 22.167 -318.5 66.5s-120.833 112.833 -143.5 205.5l161 31c13.333 -60 42.666 -103.667 87.999 -131s116.333 -41 213 -41c90.667 0 160.167 14.667 208.5 44s72.5 71.333 72.5 126
c0 38 -11 69.833 -33 95.5s-53.5 48.167 -94.5 67.5s-111.833 41.333 -212.5 66c-129.333 30 -222.5 71 -279.5 123s-85.5 115.333 -85.5 190c0 59.333 20.5 113.666 61.5 162.999s96.5 84 166.5 104c-64 21.333 -114.5 54.333 -151.5 99s-55.5 95.667 -55.5 153
c0 92.667 35.167 164.834 105.5 216.501s173.166 77.5 308.499 77.5zM866.002 662.998c0 48 -23.168 89.332 -69.501 123.999s-128.166 65.667 -245.499 93c-72.667 -4 -130.5 -23.667 -173.5 -59s-64.5 -81 -64.5 -137c0 -32.667 9.83301 -61.167 29.5 -85.5
s48 -45.5 85 -63.5s98.5 -38 184.5 -60c79.333 1.33301 141.5 18.833 186.5 52.5s67.5 78.834 67.5 135.501z" />
    <glyph glyph-name="dieresis" unicode="&#xa8;" horiz-adv-x="682" 
d="M439 1219v184h163v-184h-163zM45 1219v184h165v-184h-165z" />
    <glyph glyph-name="copyright" unicode="&#xa9;" horiz-adv-x="1509" 
d="M1477 707c0 -128.667 -32.167 -249.169 -96.5 -361.502s-152.666 -200.666 -264.999 -264.999s-232.833 -96.5 -361.5 -96.5c-131.333 0 -253.5 33.5 -366.5 100.5s-200.667 156 -263 267s-93.5 229.5 -93.5 355.5c0 128.667 32.333 249 97 361s153 200.333 265 265
s232.333 97 361 97c129.333 0 250.166 -32.5 362.499 -97.5s200.5 -153.167 264.5 -264.5s96 -231.666 96 -360.999zM1385 706.998c0 112.667 -28.001 217.165 -84.001 313.498s-132.833 172.833 -230.5 229.5s-203.167 85 -316.5 85c-112 0 -216.667 -28.167 -314 -84.5
s-174 -133.166 -230 -230.499s-84 -201.666 -84 -312.999c0 -112.667 28.167 -217.667 84.5 -315s132.833 -174 229.5 -230s201.334 -84 314.001 -84s218 28 316 84s175 132.667 231 230s84 202.333 84 315zM497.999 708.996c0 -103.333 23.667 -183.499 71 -240.499
s112.666 -85.5 195.999 -85.5c105.333 0 183 52 233 156l115 -35c-41.333 -80.667 -90.166 -138.334 -146.499 -173.001s-123.5 -52 -201.5 -52c-125.333 0 -222.666 37.667 -291.999 113s-104 181 -104 317c0 135.333 33.333 239.833 100 313.5s163 110.5 289 110.5
c162.667 0 276 -69.667 340 -209l-114 -33c-21.333 46 -51.333 80.333 -90 103s-83.334 34 -134.001 34c-84.667 0 -149.5 -26.833 -194.5 -80.5s-67.5 -133.167 -67.5 -238.5z" />
    <glyph glyph-name="ordfeminine" unicode="&#xaa;" horiz-adv-x="758" 
d="M260 651c-72 0 -128.996 19.3369 -170.996 58.0039s-63 92.334 -63 161.001c0 77.333 26.167 136.666 78.5 177.999s130.166 62.666 233.499 63.999l178 4v60c0 54 -11.667 93.333 -35 118s-62 37 -116 37c-44.667 0 -80.5 -9.83301 -107.5 -29.5
s-43.5 -54.834 -49.5 -105.501l-149 10c10.667 70.667 42.5 126 95.5 166s122.5 60 208.5 60c96.667 0 170.167 -20.833 220.5 -62.5s75.5 -104.167 75.5 -187.5v-308c0 -38.667 4.66699 -66.334 14 -83.001s25.666 -25 48.999 -25c12.667 0 27 2.66699 43 8v-104
c-32.667 -8.66699 -60.334 -13 -83.001 -13c-48.667 0 -86.5 12.667 -113.5 38s-41.833 59.666 -44.5 102.999h-4c-48.667 -98 -135.334 -147 -260.001 -147zM299.004 762.004c60 0 111.167 19.667 153.5 59s63.5 85.333 63.5 138v65l-138 -4c-78.667 -4 -132 -17 -160 -39
s-42 -54.667 -42 -98c0 -80.667 41 -121 123 -121z" />
    <glyph glyph-name="guillemotleft" unicode="&#xab;" 
d="M886 141l-338 365v63l338 371h168v-31l-338 -372l340 -367v-29h-170zM419 141l-336 365v63l336 371h167v-31l-335 -372l337 -367v-29h-169z" />
    <glyph glyph-name="logicalnot" unicode="&#xac;" horiz-adv-x="1196" 
d="M950 180v428h-850v146h995v-574h-145z" />
    <glyph glyph-name="uni00AD" unicode="&#xad;" horiz-adv-x="682" 
d="M91 464v160h500v-160h-500z" />
    <glyph glyph-name="registered" unicode="&#xae;" horiz-adv-x="1509" 
d="M1477 707c0 -128.667 -32.167 -249.169 -96.5 -361.502s-152.666 -200.666 -264.999 -264.999s-232.833 -96.5 -361.5 -96.5c-131.333 0 -253.5 33.5 -366.5 100.5s-200.667 156 -263 267s-93.5 229.5 -93.5 355.5c0 128.667 32.333 249 97 361s153 200.333 265 265
s232.333 97 361 97c129.333 0 250.166 -32.5 362.499 -97.5s200.5 -153.167 264.5 -264.5s96 -231.666 96 -360.999zM1385 706.998c0 112.667 -28.001 217.165 -84.001 313.498s-132.833 172.833 -230.5 229.5s-203.167 85 -316.5 85c-112 0 -216.667 -28.167 -314 -84.5
s-174 -133.166 -230 -230.499s-84 -201.666 -84 -312.999c0 -112.667 28.167 -217.667 84.5 -315s132.833 -174 229.5 -230s201.334 -84 314.001 -84s218 28 316 84s175 132.667 231 230s84 202.333 84 315zM954.999 288.996l-198.999 336h-161v-336h-127v831h307
c94.667 0 167.167 -21 217.5 -63s75.5 -100 75.5 -174c0 -68 -17.333 -122.5 -52 -163.5s-80.334 -67.833 -137.001 -80.5l221 -350h-145zM941 880.996c0 46 -15.833 81 -47.5 105s-74.5 36 -128.5 36h-170v-301h182c53.333 0 94 14.167 122 42.5s42 67.5 42 117.5z" />
    <glyph glyph-name="overscore" unicode="&#xaf;" horiz-adv-x="1131" 
d="M1148 1452h-1165v94h1165v-94z" />
    <glyph glyph-name="degree" unicode="&#xb0;" horiz-adv-x="819" 
d="M696 1145c0 -79.333 -28.167 -146.668 -84.5 -202.001s-123.833 -83 -202.5 -83s-146.167 28 -202.5 84s-84.5 123 -84.5 201s27.833 145 83.5 201s123.5 84 203.5 84s147.833 -27.667 203.5 -83s83.5 -122.666 83.5 -201.999zM587 1145
c0 50.667 -17.167 93.3311 -51.5 127.998s-76.5 52 -126.5 52s-92.167 -17.667 -126.5 -53s-51.5 -77.666 -51.5 -126.999s17.5 -91.666 52.5 -126.999s76.833 -53 125.5 -53c49.333 0 91.333 17.5 126 52.5s52 77.5 52 127.5z" />
    <glyph glyph-name="plusminus" unicode="&#xb1;" horiz-adv-x="1124" 
d="M636 680v-395h-147v395h-424v145h424v394h147v-394h424v-145h-424zM65 0v145h995v-145h-995z" />
    <glyph glyph-name="twosuperior" unicode="&#xb2;" horiz-adv-x="682" 
d="M43 563l-2.00586 103c20.667 46 52.5 90.833 95.5 134.5s100.167 90.167 171.5 139.5c64.667 45.333 111.667 86.666 141 123.999s44 75.333 44 114c0 41.333 -11.833 74.5 -35.5 99.5s-60.167 37.5 -109.5 37.5c-45.333 0 -82.666 -12.167 -111.999 -36.5
s-46.666 -59.166 -51.999 -104.499l-133 8c8.66699 71.333 39.834 129 93.501 173s123.5 66 209.5 66c84.667 0 151.834 -20.5 201.501 -61.5s74.5 -98.167 74.5 -171.5c0 -98 -62.667 -193 -188 -285c-81.333 -60 -138.666 -105.333 -171.999 -136s-56.666 -61 -69.999 -91
h443v-113h-600z" />
    <glyph glyph-name="threesuperior" unicode="&#xb3;" horiz-adv-x="682" 
d="M642 795c0 -77.333 -25.832 -137.334 -77.499 -180.001s-124.834 -64 -219.501 -64c-190.667 0 -296.667 75.667 -318 227l136 13c12 -90.667 72.667 -136 182 -136c106.667 0 160 49.333 160 148c0 91.333 -63 137 -189 137h-61v109h57c53.333 0 95.333 12 126 36
s46 57.667 46 101c0 40 -12.333 71.5 -37 94.5s-60.667 34.5 -108 34.5c-45.333 0 -82 -11.667 -110 -35s-44 -56.666 -48 -99.999l-135 12c8.66699 72.667 39.167 129 91.5 169s120.833 60 205.5 60c86.667 0 154.667 -19.833 204 -59.5s74 -92.167 74 -157.5
c0 -50 -14.333 -93.333 -43 -130s-73 -61.667 -133 -75v-2c60.667 -6 108.667 -26.5 144 -61.5s53 -81.833 53 -140.5z" />
    <glyph glyph-name="acute" unicode="&#xb4;" horiz-adv-x="682" 
d="M72 1201v20l217 287h207v-29l-330 -278h-94z" />
    <glyph glyph-name="mu1" unicode="&#xb5;" horiz-adv-x="1180" 
d="M140 -425l0.00195312 1507h181v-686c0 -92 17.833 -161.167 53.5 -207.5s93.167 -69.5 172.5 -69.5c85.333 0 152.333 29 201 87s73 141 73 249v627h180v-816c0 -50.667 6 -87.5 18 -110.5s32 -34.5 60 -34.5c16.667 0 34.667 2.66699 54 8v-129
c-43.333 -13.333 -81 -20 -113 -20c-60.667 0 -106.834 15.667 -138.501 47s-49.167 80.333 -52.5 147h-3c-70.667 -129.333 -170.334 -194 -299.001 -194c-44.667 0 -85.167 6.83301 -121.5 20.5s-64.833 33.167 -85.5 58.5v-484h-180z" />
    <glyph glyph-name="paragraph" unicode="&#xb6;" horiz-adv-x="1100" 
d="M884 1307v-1571h-112v1571h-217v-1571h-113v958c-112 0 -200.333 30.833 -265 92.5s-97 149.167 -97 262.5c0 112.667 32.833 200.834 98.5 264.501s156.167 95.5 271.5 95.5h563v-102h-129z" />
    <glyph glyph-name="middot" unicode="&#xb7;" horiz-adv-x="682" 
d="M243 446v220h195v-220h-195z" />
    <glyph glyph-name="cedilla" unicode="&#xb8;" horiz-adv-x="682" 
d="M483 -253c0 -120.667 -91.334 -181 -274.001 -181c-38 0 -68 1.33301 -90 4v98c32.667 -4 61.334 -6 86.001 -6c98 0 147 27 147 81c0 51.333 -44.333 77 -133 77c-28.667 0 -47.667 -0.666992 -57 -2l65 182h107l-39 -100c62.667 -2 109.667 -16.5 141 -43.5
s47 -63.5 47 -109.5z" />
    <glyph glyph-name="onesuperior" unicode="&#xb9;" horiz-adv-x="682" 
d="M80 563v107h211v620l-202 -138v120l210 137h123v-739h215v-107h-557z" />
    <glyph glyph-name="ordmasculine" unicode="&#xba;" horiz-adv-x="748" 
d="M723 1042c0 -125.333 -29.332 -221.833 -87.999 -289.5s-146.334 -101.5 -263.001 -101.5c-112 0 -197.5 33.5 -256.5 100.5s-88.5 163.833 -88.5 290.5c0 126 29.667 222.5 89 289.5s146 100.5 260 100.5c231.333 0 347 -130 347 -390zM574.001 1042
c0 102.667 -15.167 175.833 -45.5 219.5s-80.166 65.5 -149.499 65.5c-72 0 -123.333 -22.5 -154 -67.5s-46 -117.5 -46 -217.5c0 -96.667 15.167 -168.5 45.5 -215.5s79.166 -70.5 146.499 -70.5c74 0 126.333 23 157 69s46 118.333 46 217z" />
    <glyph glyph-name="guillemotright" unicode="&#xbb;" 
d="M718 141h-168v29l338 367l-336 372v31h166l338 -371v-63zM253 141h-170v29l338 367l-336 372v31h168l335 -371v-63z" />
    <glyph glyph-name="onequarter" unicode="&#xbc;" horiz-adv-x="1708" 
d="M56 563v107h211v620l-202 -138v120l210 137h123v-739h215v-107h-557zM493 0h-148l881 1409h145zM1503 180v-178h-131v178h-406v111l386 557h151v-555h111v-113h-111zM1374 715c-14 -26.667 -41.333 -71.667 -82 -135l-199 -287h279v360z" />
    <glyph glyph-name="onehalf" unicode="&#xbd;" horiz-adv-x="1708" 
d="M56 563v107h211v620l-202 -138v120l210 137h123v-739h215v-107h-557zM493 0h-148l881 1409h145zM1053 2l-2.00586 103c20.667 46 52.5 90.833 95.5 134.5s100.167 90.167 171.5 139.5c64.667 45.333 111.667 86.666 141 123.999s44 75.333 44 114
c0 41.333 -11.833 74.5 -35.5 99.5s-60.167 37.5 -109.5 37.5c-45.333 0 -82.666 -12.167 -111.999 -36.5s-46.666 -59.166 -51.999 -104.499l-133 8c8.66699 71.333 39.834 129 93.501 173s123.5 66 209.5 66c84.667 0 151.834 -20.5 201.501 -61.5
s74.5 -98.167 74.5 -171.5c0 -98 -62.667 -193 -188 -285c-81.333 -60 -138.666 -105.333 -171.999 -136s-56.666 -61 -69.999 -91h443v-113h-600z" />
    <glyph glyph-name="threequarters" unicode="&#xbe;" horiz-adv-x="1708" 
d="M513 0h-148l881 1409h145zM1503 180v-178h-131v178h-406v111l386 557h151v-555h111v-113h-111zM1374 715c-14 -26.667 -41.333 -71.667 -82 -135l-199 -287h279v360zM688 795c0 -77.333 -25.832 -137.334 -77.499 -180.001s-124.834 -64 -219.501 -64
c-190.667 0 -296.667 75.667 -318 227l136 13c12 -90.667 72.667 -136 182 -136c106.667 0 160 49.333 160 148c0 91.333 -63 137 -189 137h-61v109h57c53.333 0 95.333 12 126 36s46 57.667 46 101c0 40 -12.333 71.5 -37 94.5s-60.667 34.5 -108 34.5
c-45.333 0 -82 -11.667 -110 -35s-44 -56.666 -48 -99.999l-135 12c8.66699 72.667 39.167 129 91.5 169s120.833 60 205.5 60c86.667 0 154.667 -19.833 204 -59.5s74 -92.167 74 -157.5c0 -50 -14.333 -93.333 -43 -130s-73 -61.667 -133 -75v-2
c60.667 -6 108.667 -26.5 144 -61.5s53 -81.833 53 -140.5z" />
    <glyph glyph-name="questiondown" unicode="&#xbf;" horiz-adv-x="1251" 
d="M131 50c0 50 7.33496 94.6689 22.002 134.002s35.667 75.666 63 108.999s72 72.666 134 117.999l81 59c47.333 34.667 82.666 71.167 105.999 109.5s35.333 80.166 36 125.499h175c-1.33301 -46 -8.5 -86.333 -21.5 -121s-29.833 -65.334 -50.5 -92.001
s-44 -50.5 -70 -71.5s-52.333 -41 -79 -60l-78.5 -57c-25.667 -19 -48.5 -40.167 -68.5 -63.5s-36.167 -49.666 -48.5 -78.999s-18.5 -63.666 -18.5 -102.999c0 -76 25.833 -136 77.5 -180s124.167 -66 217.5 -66s167.333 23.333 222 70s86.667 110.667 96 192l184 -12
c-17.333 -132 -69.333 -233.333 -156 -304s-201.334 -106 -344.001 -106c-148.667 0 -265.667 35.167 -351 105.5s-128 167.833 -128 292.5zM756.002 1082v-201h-195v201h195z" />
    <glyph glyph-name="Agrave" unicode="&#xc0;" horiz-adv-x="1366" 
d="M1167 0l-161 412h-642l-162 -412h-198l575 1409h217l566 -1409h-195zM685 1265l-8.99805 -28c-16.667 -55.333 -41.334 -126.333 -74.001 -213l-180 -463h527l-181 465c-18.667 46 -37.334 98 -56.001 156zM750.002 1530l-310 217v29h207l217 -226v-20h-114z" />
    <glyph glyph-name="Aacute" unicode="&#xc1;" horiz-adv-x="1366" 
d="M1167 0l-161 412h-642l-162 -412h-198l575 1409h217l566 -1409h-195zM685 1265l-8.99805 -28c-16.667 -55.333 -41.334 -126.333 -74.001 -213l-180 -463h527l-181 465c-18.667 46 -37.334 98 -56.001 156zM547.002 1530v20l217 226h207v-29l-310 -217h-114z" />
    <glyph glyph-name="Acircumflex" unicode="&#xc2;" horiz-adv-x="1366" 
d="M1167 0l-161 412h-642l-162 -412h-198l575 1409h217l566 -1409h-195zM685 1265l-8.99805 -28c-16.667 -55.333 -41.334 -126.333 -74.001 -213l-180 -463h527l-181 465c-18.667 46 -37.334 98 -56.001 156zM1014 1550v-20h-105l-219 139h-2l-232 -139h-104v20l234 240
h204z" />
    <glyph glyph-name="Atilde" unicode="&#xc3;" horiz-adv-x="1366" 
d="M1167 0l-161 412h-642l-162 -412h-198l575 1409h217l566 -1409h-195zM685 1265l-8.99805 -28c-16.667 -55.333 -41.334 -126.333 -74.001 -213l-180 -463h527l-181 465c-18.667 46 -37.334 98 -56.001 156zM842.002 1530c-28 0 -56 6.16699 -84 18.5s-55 26 -81 41
s-50.833 28.667 -74.5 41s-45.834 18.5 -66.501 18.5c-36.667 0 -64 -10.333 -82 -31s-30 -50 -36 -88h-91c7.33301 68 19 119.5 35 154.5s37.5 62.667 64.5 83s61.5 30.5 103.5 30.5c29.333 0 58 -6.16699 86 -18.5s55 -26 81 -41l73.5 -41
c23 -12.333 44.5 -18.5 64.5 -18.5c66.667 0 105.667 39.667 117 119h92c-11.333 -98.667 -33.666 -168 -66.999 -208s-78.333 -60 -135 -60z" />
    <glyph glyph-name="Adieresis" unicode="&#xc4;" horiz-adv-x="1366" 
d="M1167 0l-161 412h-642l-162 -412h-198l575 1409h217l566 -1409h-195zM685 1265l-8.99805 -28c-16.667 -55.333 -41.334 -126.333 -74.001 -213l-180 -463h527l-181 465c-18.667 46 -37.334 98 -56.001 156zM803.002 1530v184h163v-184h-163zM409.002 1530v184h165v-184
h-165z" />
    <glyph glyph-name="Aring" unicode="&#xc5;" horiz-adv-x="1366" 
d="M1167 0l-161 412h-642l-162 -412h-198l575 1409h217l566 -1409h-195zM685 1265l-8.99805 -28c-16.667 -55.333 -41.334 -126.333 -74.001 -213l-180 -463h527l-181 465c-18.667 46 -37.334 98 -56.001 156zM928.002 1546c0 -66.667 -23.667 -123.667 -71 -171
s-104.333 -71 -171 -71s-123.667 23.667 -171 71s-71 104.333 -71 171c0 67.333 23.667 124.333 71 171s104.333 70 171 70c66 0 122.833 -23.5 170.5 -70.5s71.5 -103.833 71.5 -170.5zM820.002 1546c0 37.333 -12.999 69 -38.999 95s-57.667 39 -95 39
c-38 0 -70 -13 -96 -39s-39 -57.667 -39 -95c0 -36.667 12.667 -68.667 38 -96s57.666 -41 96.999 -41c38.667 0 70.667 13.5 96 40.5s38 59.167 38 96.5z" />
    <glyph glyph-name="AE" unicode="&#xc6;" horiz-adv-x="2048" 
d="M969 0v412h-548l-198 -412h-199l686 1409h1209v-156h-759v-452h699v-154h-699v-491h800v-156h-991zM969 1262h-151l-28 -63l-299 -638h478v701z" />
    <glyph glyph-name="Ccedilla" unicode="&#xc7;" horiz-adv-x="1479" 
d="M792 1274c-156 0 -277.333 -50.168 -364 -150.501s-130 -237.833 -130 -412.5c0 -172.667 45.167 -311.5 135.5 -416.5s212.5 -157.5 366.5 -157.5c197.333 0 345.666 97.667 444.999 293l156 -78c-58 -121.333 -139.5 -213.666 -244.5 -276.999s-226.833 -95 -365.5 -95
c-142 0 -264.833 29.5 -368.5 88.5s-182.667 143.333 -237 253s-81.5 239.5 -81.5 389.5c0 224.667 60.667 400.667 182 528s289.333 191 504 191c150 0 275.333 -29.333 376 -88s174.667 -145.667 222 -261l-181 -60c-32.667 82 -85.167 144.667 -157.5 188
s-158.166 65 -257.499 65zM993 -253.001c0 -120.667 -91.334 -181 -274.001 -181c-38 0 -68 1.33301 -90 4v98c32.667 -4 61.334 -6 86.001 -6c98 0 147 27 147 81c0 51.333 -44.333 77 -133 77c-28.667 0 -47.667 -0.666992 -57 -2l65 182h107l-39 -100
c62.667 -2 109.667 -16.5 141 -43.5s47 -63.5 47 -109.5z" />
    <glyph glyph-name="Egrave" unicode="&#xc8;" horiz-adv-x="1366" 
d="M168 0v1409h1069v-156h-878v-452h818v-154h-818v-491h919v-156h-1110zM735 1530l-310 217v29h207l217 -226v-20h-114z" />
    <glyph glyph-name="Eacute" unicode="&#xc9;" horiz-adv-x="1366" 
d="M168 0v1409h1069v-156h-878v-452h818v-154h-818v-491h919v-156h-1110zM551 1530v20l217 226h207v-29l-310 -217h-114z" />
    <glyph glyph-name="Ecircumflex" unicode="&#xca;" horiz-adv-x="1366" 
d="M168 0v1409h1069v-156h-878v-452h818v-154h-818v-491h919v-156h-1110zM1037 1550v-20h-105l-219 139h-2l-232 -139h-104v20l234 240h204z" />
    <glyph glyph-name="Edieresis" unicode="&#xcb;" horiz-adv-x="1366" 
d="M168 0v1409h1069v-156h-878v-452h818v-154h-818v-491h919v-156h-1110zM816 1530v184h163v-184h-163zM422 1530v184h165v-184h-165z" />
    <glyph glyph-name="Igrave" unicode="&#xcc;" horiz-adv-x="569" 
d="M189 0v1409h191v-1409h-191zM319 1530l-310 217v29h207l217 -226v-20h-114z" />
    <glyph glyph-name="Iacute" unicode="&#xcd;" horiz-adv-x="569" 
d="M189 0v1409h191v-1409h-191zM142 1530v20l217 226h207v-29l-310 -217h-114z" />
    <glyph glyph-name="Icircumflex" unicode="&#xce;" horiz-adv-x="569" 
d="M189 0v1409h191v-1409h-191zM616 1550v-20h-105l-219 139h-2l-232 -139h-104v20l234 240h204z" />
    <glyph glyph-name="Idieresis" unicode="&#xcf;" horiz-adv-x="569" 
d="M189 0v1409h191v-1409h-191zM401 1530v184h163v-184h-163zM7 1530v184h165v-184h-165z" />
    <glyph glyph-name="Eth" unicode="&#xd0;" horiz-adv-x="1479" 
d="M14 801l153.999 0.000976562v608h466c238.667 0 422.834 -59.833 552.501 -179.5s194.5 -289.834 194.5 -510.501c0 -145.333 -28.333 -272.5 -85 -381.5s-137 -192.5 -241 -250.5s-224 -87 -360 -87h-527v647h-154v154zM1189 719.001
c0 174.667 -47.832 307.834 -143.499 399.501s-234.167 137.5 -415.5 137.5h-271v-455h406v-154h-406v-494h314c103.333 0 194.166 22.667 272.499 68s138.5 110.666 180.5 195.999s63 186 63 302z" />
    <glyph glyph-name="Ntilde" unicode="&#xd1;" horiz-adv-x="1479" 
d="M1082 0l-754 1200l5 -97l5 -167v-936h-170v1409h222l762 -1208c-8 130.667 -12 225.334 -12 284.001v924h172v-1409h-230zM909 1530c-28 0 -56 6.16699 -84 18.5s-55 26 -81 41s-50.833 28.667 -74.5 41s-45.834 18.5 -66.501 18.5c-36.667 0 -64 -10.333 -82 -31
s-30 -50 -36 -88h-91c7.33301 68 19 119.5 35 154.5s37.5 62.667 64.5 83s61.5 30.5 103.5 30.5c29.333 0 58 -6.16699 86 -18.5s55 -26 81 -41l73.5 -41c23 -12.333 44.5 -18.5 64.5 -18.5c66.667 0 105.667 39.667 117 119h92c-11.333 -98.667 -33.666 -168 -66.999 -208
s-78.333 -60 -135 -60z" />
    <glyph glyph-name="Ograve" unicode="&#xd2;" horiz-adv-x="1593" 
d="M1495 711c0 -147.333 -28.168 -276.333 -84.501 -387s-137.166 -195.667 -242.499 -255s-229.666 -89 -372.999 -89c-144.667 0 -269.5 29.333 -374.5 88s-185.167 143.5 -240.5 254.5s-83 240.5 -83 388.5c0 225.333 61.667 401.5 185 528.5s295 190.5 515 190.5
c143.333 0 267.666 -28.5 372.999 -85.5s185.833 -139.833 241.5 -248.5s83.5 -237 83.5 -385zM1300 711c0 175.333 -43.833 313.002 -131.5 413.002s-211.5 150 -371.5 150c-161.333 0 -286 -49.333 -374 -148s-132 -237 -132 -415
c0 -176.667 44.5 -316.834 133.5 -420.501s212.5 -155.5 370.5 -155.5c162.667 0 287.5 50.167 374.5 150.5s130.5 242.166 130.5 425.499zM853.999 1530l-310 217v29h207l217 -226v-20h-114z" />
    <glyph glyph-name="Oacute" unicode="&#xd3;" horiz-adv-x="1593" 
d="M1495 711c0 -147.333 -28.168 -276.333 -84.501 -387s-137.166 -195.667 -242.499 -255s-229.666 -89 -372.999 -89c-144.667 0 -269.5 29.333 -374.5 88s-185.167 143.5 -240.5 254.5s-83 240.5 -83 388.5c0 225.333 61.667 401.5 185 528.5s295 190.5 515 190.5
c143.333 0 267.666 -28.5 372.999 -85.5s185.833 -139.833 241.5 -248.5s83.5 -237 83.5 -385zM1300 711c0 175.333 -43.833 313.002 -131.5 413.002s-211.5 150 -371.5 150c-161.333 0 -286 -49.333 -374 -148s-132 -237 -132 -415
c0 -176.667 44.5 -316.834 133.5 -420.501s212.5 -155.5 370.5 -155.5c162.667 0 287.5 50.167 374.5 150.5s130.5 242.166 130.5 425.499zM620.999 1530v20l217 226h207v-29l-310 -217h-114z" />
    <glyph glyph-name="Ocircumflex" unicode="&#xd4;" horiz-adv-x="1593" 
d="M1495 711c0 -147.333 -28.168 -276.333 -84.501 -387s-137.166 -195.667 -242.499 -255s-229.666 -89 -372.999 -89c-144.667 0 -269.5 29.333 -374.5 88s-185.167 143.5 -240.5 254.5s-83 240.5 -83 388.5c0 225.333 61.667 401.5 185 528.5s295 190.5 515 190.5
c143.333 0 267.666 -28.5 372.999 -85.5s185.833 -139.833 241.5 -248.5s83.5 -237 83.5 -385zM1300 711c0 175.333 -43.833 313.002 -131.5 413.002s-211.5 150 -371.5 150c-161.333 0 -286 -49.333 -374 -148s-132 -237 -132 -415
c0 -176.667 44.5 -316.834 133.5 -420.501s212.5 -155.5 370.5 -155.5c162.667 0 287.5 50.167 374.5 150.5s130.5 242.166 130.5 425.499zM1131 1550v-20h-105l-219 139h-2l-232 -139h-104v20l234 240h204z" />
    <glyph glyph-name="Otilde" unicode="&#xd5;" horiz-adv-x="1593" 
d="M1495 711c0 -147.333 -28.168 -276.333 -84.501 -387s-137.166 -195.667 -242.499 -255s-229.666 -89 -372.999 -89c-144.667 0 -269.5 29.333 -374.5 88s-185.167 143.5 -240.5 254.5s-83 240.5 -83 388.5c0 225.333 61.667 401.5 185 528.5s295 190.5 515 190.5
c143.333 0 267.666 -28.5 372.999 -85.5s185.833 -139.833 241.5 -248.5s83.5 -237 83.5 -385zM1300 711c0 175.333 -43.833 313.002 -131.5 413.002s-211.5 150 -371.5 150c-161.333 0 -286 -49.333 -374 -148s-132 -237 -132 -415
c0 -176.667 44.5 -316.834 133.5 -420.501s212.5 -155.5 370.5 -155.5c162.667 0 287.5 50.167 374.5 150.5s130.5 242.166 130.5 425.499zM940.999 1530c-28 0 -56 6.16699 -84 18.5s-55 26 -81 41s-50.833 28.667 -74.5 41s-45.834 18.5 -66.501 18.5
c-36.667 0 -64 -10.333 -82 -31s-30 -50 -36 -88h-91c7.33301 68 19 119.5 35 154.5s37.5 62.667 64.5 83s61.5 30.5 103.5 30.5c29.333 0 58 -6.16699 86 -18.5s55 -26 81 -41l73.5 -41c23 -12.333 44.5 -18.5 64.5 -18.5c66.667 0 105.667 39.667 117 119h92
c-11.333 -98.667 -33.666 -168 -66.999 -208s-78.333 -60 -135 -60z" />
    <glyph glyph-name="Odieresis" unicode="&#xd6;" horiz-adv-x="1593" 
d="M1495 711c0 -147.333 -28.168 -276.333 -84.501 -387s-137.166 -195.667 -242.499 -255s-229.666 -89 -372.999 -89c-144.667 0 -269.5 29.333 -374.5 88s-185.167 143.5 -240.5 254.5s-83 240.5 -83 388.5c0 225.333 61.667 401.5 185 528.5s295 190.5 515 190.5
c143.333 0 267.666 -28.5 372.999 -85.5s185.833 -139.833 241.5 -248.5s83.5 -237 83.5 -385zM1300 711c0 175.333 -43.833 313.002 -131.5 413.002s-211.5 150 -371.5 150c-161.333 0 -286 -49.333 -374 -148s-132 -237 -132 -415
c0 -176.667 44.5 -316.834 133.5 -420.501s212.5 -155.5 370.5 -155.5c162.667 0 287.5 50.167 374.5 150.5s130.5 242.166 130.5 425.499zM909.999 1530v184h163v-184h-163zM515.999 1530v184h165v-184h-165z" />
    <glyph glyph-name="multiply" unicode="&#xd7;" horiz-adv-x="1196" 
d="M142 330l354 354l-352 352l104 103l350 -353l350 351l105 -105l-350 -348l352 -352l-102 -105l-353 353l-356 -355z" />
    <glyph glyph-name="Oslash" unicode="&#xd8;" horiz-adv-x="1593" 
d="M1495 711c0 -147.333 -28.1689 -276.333 -84.502 -387s-137.166 -195.667 -242.499 -255s-229.666 -89 -372.999 -89c-164 0 -302 37.333 -414 112l-120 -145h-190l200 241c-116 128 -174 302.333 -174 523c0 225.333 61.667 401.5 185 528.5s295 190.5 515 190.5
c164.667 0 302.667 -36.667 414 -110l121 146h192l-201 -242c114.667 -126.667 172 -297.667 172 -513zM1300 711c0 149.333 -32.667 272.001 -98 368.001l-709 -853c81.333 -60.667 182 -91 302 -91c162.667 0 287.5 50.167 374.5 150.5s130.5 242.166 130.5 425.499z
M290.998 711.001c0 -152.667 33.668 -278.667 101.001 -378l707 853c-82.667 58.667 -183.334 88 -302.001 88c-161.333 0 -286 -49.333 -374 -148s-132 -237 -132 -415z" />
    <glyph glyph-name="Ugrave" unicode="&#xd9;" horiz-adv-x="1479" 
d="M731 -20c-115.333 0 -216 21.002 -302 63.002s-152.667 103 -200 183s-71 175.333 -71 286v897h191v-881c0 -128.667 32.667 -226.334 98 -293.001s159.666 -100 282.999 -100c126.667 0 225.167 34.5 295.5 103.5s105.5 169.833 105.5 302.5v868h190v-879
c0 -114 -24.167 -212.333 -72.5 -295s-116.666 -145.834 -204.999 -189.501s-192.5 -65.5 -312.5 -65.5zM813 1530l-310 217v29h207l217 -226v-20h-114z" />
    <glyph glyph-name="Uacute" unicode="&#xda;" horiz-adv-x="1479" 
d="M731 -20c-115.333 0 -216 21.002 -302 63.002s-152.667 103 -200 183s-71 175.333 -71 286v897h191v-881c0 -128.667 32.667 -226.334 98 -293.001s159.666 -100 282.999 -100c126.667 0 225.167 34.5 295.5 103.5s105.5 169.833 105.5 302.5v868h190v-879
c0 -114 -24.167 -212.333 -72.5 -295s-116.666 -145.834 -204.999 -189.501s-192.5 -65.5 -312.5 -65.5zM565 1530v20l217 226h207v-29l-310 -217h-114z" />
    <glyph glyph-name="Ucircumflex" unicode="&#xdb;" horiz-adv-x="1479" 
d="M731 -20c-115.333 0 -216 21.002 -302 63.002s-152.667 103 -200 183s-71 175.333 -71 286v897h191v-881c0 -128.667 32.667 -226.334 98 -293.001s159.666 -100 282.999 -100c126.667 0 225.167 34.5 295.5 103.5s105.5 169.833 105.5 302.5v868h190v-879
c0 -114 -24.167 -212.333 -72.5 -295s-116.666 -145.834 -204.999 -189.501s-192.5 -65.5 -312.5 -65.5zM1070 1550v-20h-105l-219 139h-2l-232 -139h-104v20l234 240h204z" />
    <glyph glyph-name="Udieresis" unicode="&#xdc;" horiz-adv-x="1479" 
d="M731 -20c-115.333 0 -216 21.002 -302 63.002s-152.667 103 -200 183s-71 175.333 -71 286v897h191v-881c0 -128.667 32.667 -226.334 98 -293.001s159.666 -100 282.999 -100c126.667 0 225.167 34.5 295.5 103.5s105.5 169.833 105.5 302.5v868h190v-879
c0 -114 -24.167 -212.333 -72.5 -295s-116.666 -145.834 -204.999 -189.501s-192.5 -65.5 -312.5 -65.5zM853 1530v184h163v-184h-163zM459 1530v184h165v-184h-165z" />
    <glyph glyph-name="Yacute" unicode="&#xdd;" horiz-adv-x="1366" 
d="M777 584v-584h-190v584l-542 825h210l429 -671l427 671h210zM536 1530v20l217 226h207v-29l-310 -217h-114z" />
    <glyph glyph-name="Thorn" unicode="&#xde;" horiz-adv-x="1366" 
d="M1258 735c0 -85.333 -19.333 -161.167 -58 -227.5s-94.5 -118 -167.5 -155s-159.5 -55.5 -259.5 -55.5h-414v-297h-191v1409h191v-252h402c159.333 0 282 -37 368 -111s129 -177.667 129 -311zM1066 730.999c0 89.333 -27.333 158.833 -82 208.5s-136.667 74.5 -246 74.5
h-379v-576h387c102 0 180.833 25.833 236.5 77.5s83.5 123.5 83.5 215.5z" />
    <glyph glyph-name="germandbls" unicode="&#xdf;" horiz-adv-x="1251" 
d="M1167 295c0 -100 -31.333 -177.502 -94 -232.502s-150.667 -82.5 -264 -82.5c-114 0 -208.333 16.333 -283 49l-2 164c34.667 -19.333 78.667 -35.666 132 -48.999s103 -20 149 -20c61.333 0 108.333 14.333 141 43s49 69.334 49 122.001c0 42.667 -14.167 81 -42.5 115
s-74.833 70.333 -139.5 109c-61.333 36 -107.166 76 -137.499 120s-45.5 94.667 -45.5 152c0 40.667 9.5 77.667 28.5 111s46.5 65 82.5 95c38.667 32 66.834 62 84.501 90s26.5 58.667 26.5 92c0 51.333 -22.333 92.5 -67 123.5s-103.334 46.5 -176.001 46.5
c-98.667 0 -171.167 -26.667 -217.5 -80s-69.5 -134 -69.5 -242v-1021h-180v1027c0 151.333 39.167 265.333 117.5 342s194.833 115 349.5 115c126.667 0 227.5 -26.833 302.5 -80.5s112.5 -125.834 112.5 -216.501c0 -95.333 -37.667 -177.333 -113 -246
c-52.667 -48 -84.667 -80.167 -96 -96.5s-17 -34.166 -17 -53.499c0 -25.333 9.16699 -47.833 27.5 -67.5s41.166 -39 68.499 -58l89 -60.5c122.667 -82.667 184 -186 184 -310z" />
    <glyph glyph-name="agrave" unicode="&#xe0;" 
d="M414 -20c-108.667 0 -190.334 28.667 -245.001 86s-82 136 -82 236c0 112 36.833 198 110.5 258s192.5 92 356.5 96l243 4v59c0 88 -18.667 151 -56 189s-96 57 -176 57c-80.667 0 -139.334 -13.667 -176.001 -41s-58.667 -71 -66 -131l-188 17
c30.667 194.667 175.334 292 434.001 292c136 0 238.333 -31.167 307 -93.5s103 -152.5 103 -270.5v-466c0 -53.333 7 -93.5 21 -120.5s40.667 -40.5 80 -40.5c17.333 0 37 2.33301 59 7v-112c-45.333 -10.667 -91.666 -16 -138.999 -16
c-66.667 0 -115.167 17.5 -145.5 52.5s-47.5 89.833 -51.5 164.5h-6c-46 -82.667 -99.5 -141.167 -160.5 -175.5s-135.167 -51.5 -222.5 -51.5zM455 115c66 0 124.667 15.001 176 45.001s91.833 71.167 121.5 123.5s44.5 106.166 44.5 161.499v89l-197 -4
c-84.667 -1.33301 -148.834 -10 -192.501 -26s-77.167 -40.667 -100.5 -74s-35 -77 -35 -131c0 -58.667 15.833 -104 47.5 -136s76.834 -48 135.501 -48zM624 1201l-330 278v29h207l217 -287v-20h-94z" />
    <glyph glyph-name="aacute" unicode="&#xe1;" 
d="M414 -20c-108.667 0 -190.334 28.667 -245.001 86s-82 136 -82 236c0 112 36.833 198 110.5 258s192.5 92 356.5 96l243 4v59c0 88 -18.667 151 -56 189s-96 57 -176 57c-80.667 0 -139.334 -13.667 -176.001 -41s-58.667 -71 -66 -131l-188 17
c30.667 194.667 175.334 292 434.001 292c136 0 238.333 -31.167 307 -93.5s103 -152.5 103 -270.5v-466c0 -53.333 7 -93.5 21 -120.5s40.667 -40.5 80 -40.5c17.333 0 37 2.33301 59 7v-112c-45.333 -10.667 -91.666 -16 -138.999 -16
c-66.667 0 -115.167 17.5 -145.5 52.5s-47.5 89.833 -51.5 164.5h-6c-46 -82.667 -99.5 -141.167 -160.5 -175.5s-135.167 -51.5 -222.5 -51.5zM455 115c66 0 124.667 15.001 176 45.001s91.833 71.167 121.5 123.5s44.5 106.166 44.5 161.499v89l-197 -4
c-84.667 -1.33301 -148.834 -10 -192.501 -26s-77.167 -40.667 -100.5 -74s-35 -77 -35 -131c0 -58.667 15.833 -104 47.5 -136s76.834 -48 135.501 -48zM412 1201v20l217 287h207v-29l-330 -278h-94z" />
    <glyph glyph-name="acircumflex" unicode="&#xe2;" 
d="M414 -20c-108.667 0 -190.334 28.667 -245.001 86s-82 136 -82 236c0 112 36.833 198 110.5 258s192.5 92 356.5 96l243 4v59c0 88 -18.667 151 -56 189s-96 57 -176 57c-80.667 0 -139.334 -13.667 -176.001 -41s-58.667 -71 -66 -131l-188 17
c30.667 194.667 175.334 292 434.001 292c136 0 238.333 -31.167 307 -93.5s103 -152.5 103 -270.5v-466c0 -53.333 7 -93.5 21 -120.5s40.667 -40.5 80 -40.5c17.333 0 37 2.33301 59 7v-112c-45.333 -10.667 -91.666 -16 -138.999 -16
c-66.667 0 -115.167 17.5 -145.5 52.5s-47.5 89.833 -51.5 164.5h-6c-46 -82.667 -99.5 -141.167 -160.5 -175.5s-135.167 -51.5 -222.5 -51.5zM455 115c66 0 124.667 15.001 176 45.001s91.833 71.167 121.5 123.5s44.5 106.166 44.5 161.499v89l-197 -4
c-84.667 -1.33301 -148.834 -10 -192.501 -26s-77.167 -40.667 -100.5 -74s-35 -77 -35 -131c0 -58.667 15.833 -104 47.5 -136s76.834 -48 135.501 -48zM880 1221v-20h-105l-219 169h-2l-232 -169h-104v20l234 270h204z" />
    <glyph glyph-name="atilde" unicode="&#xe3;" 
d="M414 -20c-108.667 0 -190.334 28.667 -245.001 86s-82 136 -82 236c0 112 36.833 198 110.5 258s192.5 92 356.5 96l243 4v59c0 88 -18.667 151 -56 189s-96 57 -176 57c-80.667 0 -139.334 -13.667 -176.001 -41s-58.667 -71 -66 -131l-188 17
c30.667 194.667 175.334 292 434.001 292c136 0 238.333 -31.167 307 -93.5s103 -152.5 103 -270.5v-466c0 -53.333 7 -93.5 21 -120.5s40.667 -40.5 80 -40.5c17.333 0 37 2.33301 59 7v-112c-45.333 -10.667 -91.666 -16 -138.999 -16
c-66.667 0 -115.167 17.5 -145.5 52.5s-47.5 89.833 -51.5 164.5h-6c-46 -82.667 -99.5 -141.167 -160.5 -175.5s-135.167 -51.5 -222.5 -51.5zM455 115c66 0 124.667 15.001 176 45.001s91.833 71.167 121.5 123.5s44.5 106.166 44.5 161.499v89l-197 -4
c-84.667 -1.33301 -148.834 -10 -192.501 -26s-77.167 -40.667 -100.5 -74s-35 -77 -35 -131c0 -58.667 15.833 -104 47.5 -136s76.834 -48 135.501 -48zM737 1201c-28 0 -56 6.16699 -84 18.5s-55 26 -81 41s-50.833 28.667 -74.5 41s-45.834 18.5 -66.501 18.5
c-36.667 0 -64 -10.333 -82 -31s-30 -50 -36 -88h-91c7.33301 68 19 119.5 35 154.5s37.5 62.667 64.5 83s61.5 30.5 103.5 30.5c29.333 0 58 -6.16699 86 -18.5s55 -26 81 -41l73.5 -41c23 -12.333 44.5 -18.5 64.5 -18.5c66.667 0 105.667 39.667 117 119h92
c-11.333 -98.667 -33.666 -168 -66.999 -208s-78.333 -60 -135 -60z" />
    <glyph glyph-name="adieresis" unicode="&#xe4;" 
d="M414 -20c-108.667 0 -190.334 28.667 -245.001 86s-82 136 -82 236c0 112 36.833 198 110.5 258s192.5 92 356.5 96l243 4v59c0 88 -18.667 151 -56 189s-96 57 -176 57c-80.667 0 -139.334 -13.667 -176.001 -41s-58.667 -71 -66 -131l-188 17
c30.667 194.667 175.334 292 434.001 292c136 0 238.333 -31.167 307 -93.5s103 -152.5 103 -270.5v-466c0 -53.333 7 -93.5 21 -120.5s40.667 -40.5 80 -40.5c17.333 0 37 2.33301 59 7v-112c-45.333 -10.667 -91.666 -16 -138.999 -16
c-66.667 0 -115.167 17.5 -145.5 52.5s-47.5 89.833 -51.5 164.5h-6c-46 -82.667 -99.5 -141.167 -160.5 -175.5s-135.167 -51.5 -222.5 -51.5zM455 115c66 0 124.667 15.001 176 45.001s91.833 71.167 121.5 123.5s44.5 106.166 44.5 161.499v89l-197 -4
c-84.667 -1.33301 -148.834 -10 -192.501 -26s-77.167 -40.667 -100.5 -74s-35 -77 -35 -131c0 -58.667 15.833 -104 47.5 -136s76.834 -48 135.501 -48zM674 1219v184h163v-184h-163zM280 1219v184h165v-184h-165z" />
    <glyph glyph-name="aring" unicode="&#xe5;" 
d="M414 -20c-108.667 0 -190.334 28.667 -245.001 86s-82 136 -82 236c0 112 36.833 198 110.5 258s192.5 92 356.5 96l243 4v59c0 88 -18.667 151 -56 189s-96 57 -176 57c-80.667 0 -139.334 -13.667 -176.001 -41s-58.667 -71 -66 -131l-188 17
c30.667 194.667 175.334 292 434.001 292c136 0 238.333 -31.167 307 -93.5s103 -152.5 103 -270.5v-466c0 -53.333 7 -93.5 21 -120.5s40.667 -40.5 80 -40.5c17.333 0 37 2.33301 59 7v-112c-45.333 -10.667 -91.666 -16 -138.999 -16
c-66.667 0 -115.167 17.5 -145.5 52.5s-47.5 89.833 -51.5 164.5h-6c-46 -82.667 -99.5 -141.167 -160.5 -175.5s-135.167 -51.5 -222.5 -51.5zM455 115c66 0 124.667 15.001 176 45.001s91.833 71.167 121.5 123.5s44.5 106.166 44.5 161.499v89l-197 -4
c-84.667 -1.33301 -148.834 -10 -192.501 -26s-77.167 -40.667 -100.5 -74s-35 -77 -35 -131c0 -58.667 15.833 -104 47.5 -136s76.834 -48 135.501 -48zM799 1410c0 -66.667 -23.667 -123.667 -71 -171s-104.333 -71 -171 -71s-123.667 23.667 -171 71s-71 104.333 -71 171
c0 67.333 23.667 124.333 71 171s104.333 70 171 70c66 0 122.833 -23.5 170.5 -70.5s71.5 -103.833 71.5 -170.5zM691 1410c0 37.333 -12.999 69 -38.999 95s-57.667 39 -95 39c-38 0 -70 -13 -96 -39s-39 -57.667 -39 -95c0 -36.667 12.667 -68.667 38 -96
s57.666 -41 96.999 -41c38.667 0 70.667 13.5 96 40.5s38 59.167 38 96.5z" />
    <glyph glyph-name="ae" unicode="&#xe6;" horiz-adv-x="1821" 
d="M968 503l0.000976562 -17.001c1.33301 -120.667 27 -212.667 77 -276s121.667 -95 215 -95c78 0 140.5 15.667 187.5 47s78.833 71 95.5 119l158 -45c-64.667 -170.667 -211.667 -256 -441 -256c-214 0 -355 85.667 -423 257c-52.667 -93.333 -114 -159.5 -184 -198.5
s-153.667 -58.5 -251 -58.5c-111.333 0 -195.166 28.667 -251.499 86s-84.5 136 -84.5 236c0 116 39.667 203.333 119 262s199.666 89.334 360.999 92.001l240 4v59c0 90 -18.5 153.5 -55.5 190.5s-95.833 55.5 -176.5 55.5c-84 0 -144.833 -13.333 -182.5 -40
s-60.834 -70.667 -69.501 -132l-188 17c30.667 194.667 178.667 292 444 292c166.667 0 283 -46.333 349 -139c78.667 92.667 194 139 346 139c318 0 477 -191.667 477 -575v-24h-762zM786.001 533.999l-195 -4c-88.667 -2 -156.5 -11.833 -203.5 -29.5
s-81.5 -43.334 -103.5 -77.001s-33 -75.167 -33 -124.5c0 -58 16.667 -103.167 50 -135.5s81 -48.5 143 -48.5c68 0 127.5 14.833 178.5 44.5s91 70.334 120 122.001s43.5 106.167 43.5 163.5v89zM1544 640.999c-10 114 -39 197.167 -87 249.5s-117 78.5 -207 78.5
c-84.667 0 -151.5 -28.5 -200.5 -85.5s-75.5 -137.833 -79.5 -242.5h574z" />
    <glyph glyph-name="ccedilla" unicode="&#xe7;" horiz-adv-x="1024" 
d="M275 546c0 -144 22.6689 -250.667 68.002 -320s113.666 -104 204.999 -104c64 0 117.5 17.333 160.5 52s69.5 88 79.5 160l182 -12c-14 -104 -58.333 -187 -133 -249s-169.334 -93 -284.001 -93c-151.333 0 -266.833 47.833 -346.5 143.5s-119.5 235.167 -119.5 418.5
c0 182 40 320.833 120 416.5s194.667 143.5 344 143.5c110.667 0 202.5 -28.667 275.5 -86s118.833 -136.333 137.5 -237l-185 -14c-9.33301 60 -33 107.667 -71 143s-92 53 -162 53c-95.333 0 -164.333 -31.667 -207 -95s-64 -170 -64 -320zM751.002 -253
c0 -120.667 -91.334 -181 -274.001 -181c-38 0 -68 1.33301 -90 4v98c32.667 -4 61.334 -6 86.001 -6c98 0 147 27 147 81c0 51.333 -44.333 77 -133 77c-28.667 0 -47.667 -0.666992 -57 -2l65 182h107l-39 -100c62.667 -2 109.667 -16.5 141 -43.5s47 -63.5 47 -109.5z
" />
    <glyph glyph-name="egrave" unicode="&#xe8;" 
d="M276 503c0 -124 25.667 -219.667 77 -287s126.333 -101 225 -101c78 0 140.5 15.667 187.5 47s78.833 71 95.5 119l158 -45c-64.667 -170.667 -211.667 -256 -441 -256c-160 0 -281.833 47.667 -365.5 143s-125.5 237 -125.5 425c0 178.667 41.833 315.667 125.5 411
s203.167 143 358.5 143c318 0 477 -191.667 477 -575v-24h-772zM862 641c-10 114 -39 197.167 -87 249.5s-117 78.5 -207 78.5c-87.333 0 -156.5 -29.167 -207.5 -87.5s-78.5 -138.5 -82.5 -240.5h584zM657 1201l-330 278v29h207l217 -287v-20h-94z" />
    <glyph glyph-name="eacute" unicode="&#xe9;" 
d="M276 503c0 -124 25.667 -219.667 77 -287s126.333 -101 225 -101c78 0 140.5 15.667 187.5 47s78.833 71 95.5 119l158 -45c-64.667 -170.667 -211.667 -256 -441 -256c-160 0 -281.833 47.667 -365.5 143s-125.5 237 -125.5 425c0 178.667 41.833 315.667 125.5 411
s203.167 143 358.5 143c318 0 477 -191.667 477 -575v-24h-772zM862 641c-10 114 -39 197.167 -87 249.5s-117 78.5 -207 78.5c-87.333 0 -156.5 -29.167 -207.5 -87.5s-78.5 -138.5 -82.5 -240.5h584zM440 1201v20l217 287h207v-29l-330 -278h-94z" />
    <glyph glyph-name="ecircumflex" unicode="&#xea;" 
d="M276 503c0 -124 25.667 -219.667 77 -287s126.333 -101 225 -101c78 0 140.5 15.667 187.5 47s78.833 71 95.5 119l158 -45c-64.667 -170.667 -211.667 -256 -441 -256c-160 0 -281.833 47.667 -365.5 143s-125.5 237 -125.5 425c0 178.667 41.833 315.667 125.5 411
s203.167 143 358.5 143c318 0 477 -191.667 477 -575v-24h-772zM862 641c-10 114 -39 197.167 -87 249.5s-117 78.5 -207 78.5c-87.333 0 -156.5 -29.167 -207.5 -87.5s-78.5 -138.5 -82.5 -240.5h584zM907 1221v-20h-105l-219 169h-2l-232 -169h-104v20l234 270h204z" />
    <glyph glyph-name="edieresis" unicode="&#xeb;" 
d="M276 503c0 -124 25.667 -219.667 77 -287s126.333 -101 225 -101c78 0 140.5 15.667 187.5 47s78.833 71 95.5 119l158 -45c-64.667 -170.667 -211.667 -256 -441 -256c-160 0 -281.833 47.667 -365.5 143s-125.5 237 -125.5 425c0 178.667 41.833 315.667 125.5 411
s203.167 143 358.5 143c318 0 477 -191.667 477 -575v-24h-772zM862 641c-10 114 -39 197.167 -87 249.5s-117 78.5 -207 78.5c-87.333 0 -156.5 -29.167 -207.5 -87.5s-78.5 -138.5 -82.5 -240.5h584zM687 1219v184h163v-184h-163zM293 1219v184h165v-184h-165z" />
    <glyph glyph-name="igrave" unicode="&#xec;" horiz-adv-x="569" 
d="M194 0v1082h180v-1082h-180zM340 1201l-330 278v29h207l217 -287v-20h-94z" />
    <glyph glyph-name="iacute" unicode="&#xed;" horiz-adv-x="569" 
d="M194 0v1082h180v-1082h-180zM135 1201v20l217 287h207v-29l-330 -278h-94z" />
    <glyph glyph-name="icircumflex" unicode="&#xee;" horiz-adv-x="569" 
d="M194 0v1082h180v-1082h-180zM617 1221v-20h-105l-219 169h-2l-232 -169h-104v20l234 270h204z" />
    <glyph glyph-name="idieresis" unicode="&#xef;" horiz-adv-x="569" 
d="M194 0v1082h180v-1082h-180zM402 1219v184h163v-184h-163zM8 1219v184h165v-184h-165z" />
    <glyph glyph-name="eth" unicode="&#xf0;" 
d="M566 -20c-154.667 0 -273.332 42.999 -355.999 128.999s-124 210 -124 372c0 162.667 41.333 286.334 124 371.001s203.667 127 363 127c91.333 0 168.333 -19.667 231 -59c-72.667 144.667 -150.667 255 -234 331l-301 -133v114l218 94
c-72.667 58 -153.334 110.667 -242.001 158h209c53.333 -24 110 -58 170 -102l306 132l-1 -112l-211 -92c114 -104 200 -223.667 258 -359s87 -280.333 87 -435v-6c0 -174 -41.5 -305.833 -124.5 -395.5s-207.167 -134.5 -372.5 -134.5zM874.002 480.999
c0 128 -23.5 220.833 -70.5 278.5s-122.5 86.5 -226.5 86.5c-104.667 0 -181.167 -29 -229.5 -87s-72.5 -150.667 -72.5 -278c0 -126.667 24 -219.667 72 -279s120.333 -89 217 -89c107.333 0 185.833 29.167 235.5 87.5s74.5 151.833 74.5 280.5z" />
    <glyph glyph-name="ntilde" unicode="&#xf1;" 
d="M829 0v686.001c0 71.333 -7 126.666 -21 165.999s-36.333 67.666 -67 84.999s-75.667 26 -135 26c-86.667 0 -155 -29.667 -205 -89s-75 -141.666 -75 -246.999v-627h-180v851c0 126 -2 203 -6 231h170c0.666992 -3.33301 1.33398 -12.333 2.00098 -27
s1.5 -31.5 2.5 -50.5s2.16699 -54.833 3.5 -107.5h3c41.333 74.667 89.166 127.5 143.499 158.5s121.833 46.5 202.5 46.5c118.667 0 205.5 -29.5 260.5 -88.5s82.5 -156.5 82.5 -292.5v-721h-181zM737 1201c-28 0 -56 6.16699 -84 18.5s-55 26 -81 41
s-50.833 28.667 -74.5 41s-45.834 18.5 -66.501 18.5c-36.667 0 -64 -10.333 -82 -31s-30 -50 -36 -88h-91c7.33301 68 19 119.5 35 154.5s37.5 62.667 64.5 83s61.5 30.5 103.5 30.5c29.333 0 58 -6.16699 86 -18.5s55 -26 81 -41l73.5 -41
c23 -12.333 44.5 -18.5 64.5 -18.5c66.667 0 105.667 39.667 117 119h92c-11.333 -98.667 -33.666 -168 -66.999 -208s-78.333 -60 -135 -60z" />
    <glyph glyph-name="ograve" unicode="&#xf2;" 
d="M1053 542c0 -189.333 -41.667 -330.333 -125 -423s-204.333 -139 -363 -139c-158 0 -277.333 48.167 -358 144.5s-121 235.5 -121 417.5c0 373.333 161.667 560 485 560c165.333 0 287 -45.5 365 -136.5s117 -232.167 117 -423.5zM864 542
c0 149.333 -22.166 257.835 -66.499 325.502s-118.833 101.5 -223.5 101.5c-105.333 0 -181.5 -34.5 -228.5 -103.5s-70.5 -176.833 -70.5 -323.5c0 -142.667 23.167 -249.834 69.5 -321.501s119.166 -107.5 218.499 -107.5c108 0 185.167 34.667 231.5 104
s69.5 177.666 69.5 324.999zM659.001 1201l-330 278v29h207l217 -287v-20h-94z" />
    <glyph glyph-name="oacute" unicode="&#xf3;" 
d="M1053 542c0 -189.333 -41.667 -330.333 -125 -423s-204.333 -139 -363 -139c-158 0 -277.333 48.167 -358 144.5s-121 235.5 -121 417.5c0 373.333 161.667 560 485 560c165.333 0 287 -45.5 365 -136.5s117 -232.167 117 -423.5zM864 542
c0 149.333 -22.166 257.835 -66.499 325.502s-118.833 101.5 -223.5 101.5c-105.333 0 -181.5 -34.5 -228.5 -103.5s-70.5 -176.833 -70.5 -323.5c0 -142.667 23.167 -249.834 69.5 -321.501s119.166 -107.5 218.499 -107.5c108 0 185.167 34.667 231.5 104
s69.5 177.666 69.5 324.999zM431.001 1201v20l217 287h207v-29l-330 -278h-94z" />
    <glyph glyph-name="ocircumflex" unicode="&#xf4;" 
d="M1053 542c0 -189.333 -41.667 -330.333 -125 -423s-204.333 -139 -363 -139c-158 0 -277.333 48.167 -358 144.5s-121 235.5 -121 417.5c0 373.333 161.667 560 485 560c165.333 0 287 -45.5 365 -136.5s117 -232.167 117 -423.5zM864 542
c0 149.333 -22.166 257.835 -66.499 325.502s-118.833 101.5 -223.5 101.5c-105.333 0 -181.5 -34.5 -228.5 -103.5s-70.5 -176.833 -70.5 -323.5c0 -142.667 23.167 -249.834 69.5 -321.501s119.166 -107.5 218.499 -107.5c108 0 185.167 34.667 231.5 104
s69.5 177.666 69.5 324.999zM902.001 1221v-20h-105l-219 169h-2l-232 -169h-104v20l234 270h204z" />
    <glyph glyph-name="otilde" unicode="&#xf5;" 
d="M1053 542c0 -189.333 -41.667 -330.333 -125 -423s-204.333 -139 -363 -139c-158 0 -277.333 48.167 -358 144.5s-121 235.5 -121 417.5c0 373.333 161.667 560 485 560c165.333 0 287 -45.5 365 -136.5s117 -232.167 117 -423.5zM864 542
c0 149.333 -22.166 257.835 -66.499 325.502s-118.833 101.5 -223.5 101.5c-105.333 0 -181.5 -34.5 -228.5 -103.5s-70.5 -176.833 -70.5 -323.5c0 -142.667 23.167 -249.834 69.5 -321.501s119.166 -107.5 218.499 -107.5c108 0 185.167 34.667 231.5 104
s69.5 177.666 69.5 324.999zM739.001 1201c-28 0 -56 6.16699 -84 18.5s-55 26 -81 41s-50.833 28.667 -74.5 41s-45.834 18.5 -66.501 18.5c-36.667 0 -64 -10.333 -82 -31s-30 -50 -36 -88h-91c7.33301 68 19 119.5 35 154.5s37.5 62.667 64.5 83s61.5 30.5 103.5 30.5
c29.333 0 58 -6.16699 86 -18.5s55 -26 81 -41l73.5 -41c23 -12.333 44.5 -18.5 64.5 -18.5c66.667 0 105.667 39.667 117 119h92c-11.333 -98.667 -33.666 -168 -66.999 -208s-78.333 -60 -135 -60z" />
    <glyph glyph-name="odieresis" unicode="&#xf6;" 
d="M1053 542c0 -189.333 -41.667 -330.333 -125 -423s-204.333 -139 -363 -139c-158 0 -277.333 48.167 -358 144.5s-121 235.5 -121 417.5c0 373.333 161.667 560 485 560c165.333 0 287 -45.5 365 -136.5s117 -232.167 117 -423.5zM864 542
c0 149.333 -22.166 257.835 -66.499 325.502s-118.833 101.5 -223.5 101.5c-105.333 0 -181.5 -34.5 -228.5 -103.5s-70.5 -176.833 -70.5 -323.5c0 -142.667 23.167 -249.834 69.5 -321.501s119.166 -107.5 218.499 -107.5c108 0 185.167 34.667 231.5 104
s69.5 177.666 69.5 324.999zM689.001 1219v184h163v-184h-163zM295.001 1219v184h165v-184h-165z" />
    <glyph glyph-name="divide" unicode="&#xf7;" horiz-adv-x="1124" 
d="M478 958v183h168v-183h-168zM65 608v146h995v-146h-995zM478 223v183h168v-183h-168z" />
    <glyph glyph-name="oslash" unicode="&#xf8;" horiz-adv-x="1251" 
d="M1112 542c0 -189.333 -41.667 -330.333 -125 -423s-204.333 -139 -363 -139c-130 0 -234.333 32.667 -313 98l-100 -116h-167l184 214c-55.333 92 -83 214 -83 366c0 373.333 161.667 560 485 560c134 0 239.333 -30.333 316 -91l91 105h167l-173 -201
c54 -88.667 81 -213 81 -373zM923 542c0 86 -7.66602 159.668 -22.999 221.001l-483 -562c45.333 -58.667 113.666 -88 204.999 -88c108 0 185.167 34.667 231.5 104s69.5 177.666 69.5 324.999zM334.001 542.001c0 -86.667 8 -158.333 24 -215l482 561
c-44.667 54 -113.667 81 -207 81c-105.333 0 -181.5 -34.5 -228.5 -103.5s-70.5 -176.833 -70.5 -323.5z" />
    <glyph glyph-name="ugrave" unicode="&#xf9;" 
d="M320 1082v-686.001c0 -71.333 7 -126.666 21 -165.999s36.333 -67.666 67 -84.999s75.667 -26 135 -26c86.667 0 155 29.667 205 89s75 141.666 75 246.999v627h180v-851c0 -126 2 -203 6 -231h-170c-0.666992 3.33301 -1.33398 12.333 -2.00098 27s-1.5 31.5 -2.5 50.5
s-2.16699 54.833 -3.5 107.5h-3c-41.333 -74.667 -89.166 -127.5 -143.499 -158.5s-121.833 -46.5 -202.5 -46.5c-118.667 0 -205.5 29.5 -260.5 88.5s-82.5 156.5 -82.5 292.5v721h181zM672 1201l-330 278v29h207l217 -287v-20h-94z" />
    <glyph glyph-name="uacute" unicode="&#xfa;" 
d="M320 1082v-686.001c0 -71.333 7 -126.666 21 -165.999s36.333 -67.666 67 -84.999s75.667 -26 135 -26c86.667 0 155 29.667 205 89s75 141.666 75 246.999v627h180v-851c0 -126 2 -203 6 -231h-170c-0.666992 3.33301 -1.33398 12.333 -2.00098 27s-1.5 31.5 -2.5 50.5
s-2.16699 54.833 -3.5 107.5h-3c-41.333 -74.667 -89.166 -127.5 -143.499 -158.5s-121.833 -46.5 -202.5 -46.5c-118.667 0 -205.5 29.5 -260.5 88.5s-82.5 156.5 -82.5 292.5v721h181zM415 1201v20l217 287h207v-29l-330 -278h-94z" />
    <glyph glyph-name="ucircumflex" unicode="&#xfb;" 
d="M320 1082v-686.001c0 -71.333 7 -126.666 21 -165.999s36.333 -67.666 67 -84.999s75.667 -26 135 -26c86.667 0 155 29.667 205 89s75 141.666 75 246.999v627h180v-851c0 -126 2 -203 6 -231h-170c-0.666992 3.33301 -1.33398 12.333 -2.00098 27s-1.5 31.5 -2.5 50.5
s-2.16699 54.833 -3.5 107.5h-3c-41.333 -74.667 -89.166 -127.5 -143.499 -158.5s-121.833 -46.5 -202.5 -46.5c-118.667 0 -205.5 29.5 -260.5 88.5s-82.5 156.5 -82.5 292.5v721h181zM901 1221v-20h-105l-219 169h-2l-232 -169h-104v20l234 270h204z" />
    <glyph glyph-name="udieresis" unicode="&#xfc;" 
d="M320 1082v-686.001c0 -71.333 7 -126.666 21 -165.999s36.333 -67.666 67 -84.999s75.667 -26 135 -26c86.667 0 155 29.667 205 89s75 141.666 75 246.999v627h180v-851c0 -126 2 -203 6 -231h-170c-0.666992 3.33301 -1.33398 12.333 -2.00098 27s-1.5 31.5 -2.5 50.5
s-2.16699 54.833 -3.5 107.5h-3c-41.333 -74.667 -89.166 -127.5 -143.499 -158.5s-121.833 -46.5 -202.5 -46.5c-118.667 0 -205.5 29.5 -260.5 88.5s-82.5 156.5 -82.5 292.5v721h181zM676 1219v184h163v-184h-163zM282 1219v184h165v-184h-165z" />
    <glyph glyph-name="yacute" unicode="&#xfd;" horiz-adv-x="1024" 
d="M191 -425c-49.333 0 -90.666 3.66602 -123.999 10.999v135c25.333 -4 53.333 -6 84 -6c112 0 200.667 82.333 266 247l17 43l-429 1077h192l228 -598l12 -33.5l45 -130.5c25.333 -74 39 -115.333 41 -124l70 197l237 689h190l-416 -1082
c-44.667 -115.333 -86.334 -201.166 -125.001 -257.499s-81.5 -98.333 -128.5 -126s-100.167 -41.5 -159.5 -41.5zM355 1201v20l217 287h207v-29l-330 -278h-94z" />
    <glyph glyph-name="thorn" unicode="&#xfe;" 
d="M138 1484l180 -0.000976562v-423c0 -43.333 -1.33301 -94.333 -4 -153h6c32 66.667 74.333 115.5 127 146.5s122 46.5 208 46.5c133.333 0 233 -44.667 299 -134s99 -229.666 99 -420.999c0 -377.333 -132.667 -566 -398 -566c-166.667 0 -278.667 62.667 -336 188h-5
c2.66699 -5.33301 4 -62 4 -170v-423h-180v1909zM864 541.999c0 150.667 -20.333 258.332 -61 322.999s-105.334 97 -194.001 97c-71.333 0 -127.166 -15 -167.499 -45s-71 -76.833 -92 -140.5s-31.5 -146.5 -31.5 -248.5c0 -142 22.667 -246.667 68 -314s119 -101 221 -101
c89.333 0 154.5 32.833 195.5 98.5s61.5 175.834 61.5 330.501z" />
    <glyph glyph-name="ydieresis" unicode="&#xff;" horiz-adv-x="1024" 
d="M191 -425c-49.333 0 -90.666 3.66602 -123.999 10.999v135c25.333 -4 53.333 -6 84 -6c112 0 200.667 82.333 266 247l17 43l-429 1077h192l228 -598l12 -33.5l45 -130.5c25.333 -74 39 -115.333 41 -124l70 197l237 689h190l-416 -1082
c-44.667 -115.333 -86.334 -201.166 -125.001 -257.499s-81.5 -98.333 -128.5 -126s-100.167 -41.5 -159.5 -41.5zM626 1219v184h163v-184h-163zM232 1219v184h165v-184h-165z" />
    <glyph glyph-name="Amacron" unicode="&#x100;" horiz-adv-x="1366" 
d="M1167 0l-161 412h-642l-162 -412h-198l575 1409h217l566 -1409h-195zM685 1265l-8.99805 -28c-16.667 -55.333 -41.334 -126.333 -74.001 -213l-180 -463h527l-181 465c-18.667 46 -37.334 98 -56.001 156zM960.002 1565h-549v127h549v-127z" />
    <glyph glyph-name="amacron" unicode="&#x101;" 
d="M414 -20c-108.667 0 -190.334 28.667 -245.001 86s-82 136 -82 236c0 112 36.833 198 110.5 258s192.5 92 356.5 96l243 4v59c0 88 -18.667 151 -56 189s-96 57 -176 57c-80.667 0 -139.334 -13.667 -176.001 -41s-58.667 -71 -66 -131l-188 17
c30.667 194.667 175.334 292 434.001 292c136 0 238.333 -31.167 307 -93.5s103 -152.5 103 -270.5v-466c0 -53.333 7 -93.5 21 -120.5s40.667 -40.5 80 -40.5c17.333 0 37 2.33301 59 7v-112c-45.333 -10.667 -91.666 -16 -138.999 -16
c-66.667 0 -115.167 17.5 -145.5 52.5s-47.5 89.833 -51.5 164.5h-6c-46 -82.667 -99.5 -141.167 -160.5 -175.5s-135.167 -51.5 -222.5 -51.5zM455 115c66 0 124.667 15.001 176 45.001s91.833 71.167 121.5 123.5s44.5 106.166 44.5 161.499v89l-197 -4
c-84.667 -1.33301 -148.834 -10 -192.501 -26s-77.167 -40.667 -100.5 -74s-35 -77 -35 -131c0 -58.667 15.833 -104 47.5 -136s76.834 -48 135.501 -48zM833 1236h-549v127h549v-127z" />
    <glyph glyph-name="Abreve" unicode="&#x102;" horiz-adv-x="1366" 
d="M1167 0l-161 412h-642l-162 -412h-198l575 1409h217l566 -1409h-195zM685 1265l-8.99805 -28c-16.667 -55.333 -41.334 -126.333 -74.001 -213l-180 -463h527l-181 465c-18.667 46 -37.334 98 -56.001 156zM685.002 1530c-88.667 0 -163.167 23 -223.5 69
s-96.5 106 -108.5 180h117c11.333 -35.333 35.166 -63 71.499 -83s84.833 -30 145.5 -30s108.834 10.167 144.501 30.5s59.167 47.833 70.5 82.5h117c-14 -76 -51 -136.5 -111 -181.5s-134.333 -67.5 -223 -67.5z" />
    <glyph glyph-name="abreve" unicode="&#x103;" 
d="M414 -20c-108.667 0 -190.334 28.667 -245.001 86s-82 136 -82 236c0 112 36.833 198 110.5 258s192.5 92 356.5 96l243 4v59c0 88 -18.667 151 -56 189s-96 57 -176 57c-80.667 0 -139.334 -13.667 -176.001 -41s-58.667 -71 -66 -131l-188 17
c30.667 194.667 175.334 292 434.001 292c136 0 238.333 -31.167 307 -93.5s103 -152.5 103 -270.5v-466c0 -53.333 7 -93.5 21 -120.5s40.667 -40.5 80 -40.5c17.333 0 37 2.33301 59 7v-112c-45.333 -10.667 -91.666 -16 -138.999 -16
c-66.667 0 -115.167 17.5 -145.5 52.5s-47.5 89.833 -51.5 164.5h-6c-46 -82.667 -99.5 -141.167 -160.5 -175.5s-135.167 -51.5 -222.5 -51.5zM455 115c66 0 124.667 15.001 176 45.001s91.833 71.167 121.5 123.5s44.5 106.166 44.5 161.499v89l-197 -4
c-84.667 -1.33301 -148.834 -10 -192.501 -26s-77.167 -40.667 -100.5 -74s-35 -77 -35 -131c0 -58.667 15.833 -104 47.5 -136s76.834 -48 135.501 -48zM560 1201c-88 0 -162.333 28.333 -223 85s-97 131.334 -109 224.001h117c18.667 -102 91 -153 217 -153
c124 0 195.667 51 215 153h117c-14 -94.667 -50.833 -169.834 -110.5 -225.501s-134.167 -83.5 -223.5 -83.5z" />
    <glyph glyph-name="Aogonek" unicode="&#x104;" horiz-adv-x="1366" 
d="M1167 0l-161 412h-642l-162 -412h-198l575 1409h217l566 -1409h-195zM685 1265l-8.99805 -28c-16.667 -55.333 -41.334 -126.333 -74.001 -213l-180 -463h527l-181 465c-18.667 46 -37.334 98 -56.001 156zM1379 -389c-42 -18 -88.334 -27 -139.001 -27
c-70 0 -122.667 17 -158 51s-53 79.333 -53 136c0 46.667 14.5 92 43.5 136s66.167 78.667 111.5 104h133c-16.667 -9.33301 -33.667 -21.5 -51 -36.5s-33.166 -32.333 -47.499 -52s-26 -41.167 -35 -64.5s-13.5 -48 -13.5 -74c0 -28 8.16699 -50 24.5 -66
s39.5 -24 69.5 -24c36 0 74.333 8 115 24v-107z" />
    <glyph glyph-name="aogonek" unicode="&#x105;" 
d="M414 -20c-108.667 0 -190.334 28.667 -245.001 86s-82 136 -82 236c0 112 36.833 198 110.5 258s192.5 92 356.5 96l243 4v59c0 88 -18.667 151 -56 189s-96 57 -176 57c-80.667 0 -139.334 -13.667 -176.001 -41s-58.667 -71 -66 -131l-188 17
c30.667 194.667 175.334 292 434.001 292c136 0 238.333 -31.167 307 -93.5s103 -152.5 103 -270.5v-466c0 -53.333 7 -93.5 21 -120.5s40.667 -40.5 80 -40.5c17.333 0 37 2.33301 59 7v-112c-45.333 -10.667 -91.666 -16 -138.999 -16
c-66.667 0 -115.167 17.5 -145.5 52.5s-47.5 89.833 -51.5 164.5h-6c-46 -82.667 -99.5 -141.167 -160.5 -175.5s-135.167 -51.5 -222.5 -51.5zM455 115c66 0 124.667 15.001 176 45.001s91.833 71.167 121.5 123.5s44.5 106.166 44.5 161.499v89l-197 -4
c-84.667 -1.33301 -148.834 -10 -192.501 -26s-77.167 -40.667 -100.5 -74s-35 -77 -35 -131c0 -58.667 15.833 -104 47.5 -136s76.834 -48 135.501 -48zM1139 -399.999c-42 -18 -88.334 -27 -139.001 -27c-70 0 -122.667 17 -158 51s-53 79.333 -53 136
c0 46.667 14.5 92 43.5 136s66.167 78.667 111.5 104h133c-16.667 -9.33301 -33.667 -21.5 -51 -36.5s-33.166 -32.333 -47.499 -52s-26 -41.167 -35 -64.5s-13.5 -48 -13.5 -74c0 -28 8.16699 -50 24.5 -66s39.5 -24 69.5 -24c36 0 74.333 8 115 24v-107z" />
    <glyph glyph-name="Cacute" unicode="&#x106;" horiz-adv-x="1479" 
d="M792 1274c-156 0 -277.333 -50.168 -364 -150.501s-130 -237.833 -130 -412.5c0 -172.667 45.167 -311.5 135.5 -416.5s212.5 -157.5 366.5 -157.5c197.333 0 345.666 97.667 444.999 293l156 -78c-58 -121.333 -139.5 -213.666 -244.5 -276.999s-226.833 -95 -365.5 -95
c-142 0 -264.833 29.5 -368.5 88.5s-182.667 143.333 -237 253s-81.5 239.5 -81.5 389.5c0 224.667 60.667 400.667 182 528s289.333 191 504 191c150 0 275.333 -29.333 376 -88s174.667 -145.667 222 -261l-181 -60c-32.667 82 -85.167 144.667 -157.5 188
s-158.166 65 -257.499 65zM667 1530v20l217 226h207v-29l-310 -217h-114z" />
    <glyph glyph-name="cacute" unicode="&#x107;" horiz-adv-x="1024" 
d="M275 546c0 -144 22.6689 -250.667 68.002 -320s113.666 -104 204.999 -104c64 0 117.5 17.333 160.5 52s69.5 88 79.5 160l182 -12c-14 -104 -58.333 -187 -133 -249s-169.334 -93 -284.001 -93c-151.333 0 -266.833 47.833 -346.5 143.5s-119.5 235.167 -119.5 418.5
c0 182 40 320.833 120 416.5s194.667 143.5 344 143.5c110.667 0 202.5 -28.667 275.5 -86s118.833 -136.333 137.5 -237l-185 -14c-9.33301 60 -33 107.667 -71 143s-92 53 -162 53c-95.333 0 -164.333 -31.667 -207 -95s-64 -170 -64 -320zM431.002 1201v20l217 287h207
v-29l-330 -278h-94z" />
    <glyph glyph-name="Ccircumflex" unicode="&#x108;" horiz-adv-x="1479" 
d="M792 1274c-156 0 -277.333 -50.168 -364 -150.501s-130 -237.833 -130 -412.5c0 -172.667 45.167 -311.5 135.5 -416.5s212.5 -157.5 366.5 -157.5c197.333 0 345.666 97.667 444.999 293l156 -78c-58 -121.333 -139.5 -213.666 -244.5 -276.999s-226.833 -95 -365.5 -95
c-142 0 -264.833 29.5 -368.5 88.5s-182.667 143.333 -237 253s-81.5 239.5 -81.5 389.5c0 224.667 60.667 400.667 182 528s289.333 191 504 191c150 0 275.333 -29.333 376 -88s174.667 -145.667 222 -261l-181 -60c-32.667 82 -85.167 144.667 -157.5 188
s-158.166 65 -257.499 65zM1122 1550v-20h-105l-219 139h-2l-232 -139h-104v20l234 240h204z" />
    <glyph glyph-name="ccircumflex" unicode="&#x109;" horiz-adv-x="1024" 
d="M275 546c0 -144 22.6689 -250.667 68.002 -320s113.666 -104 204.999 -104c64 0 117.5 17.333 160.5 52s69.5 88 79.5 160l182 -12c-14 -104 -58.333 -187 -133 -249s-169.334 -93 -284.001 -93c-151.333 0 -266.833 47.833 -346.5 143.5s-119.5 235.167 -119.5 418.5
c0 182 40 320.833 120 416.5s194.667 143.5 344 143.5c110.667 0 202.5 -28.667 275.5 -86s118.833 -136.333 137.5 -237l-185 -14c-9.33301 60 -33 107.667 -71 143s-92 53 -162 53c-95.333 0 -164.333 -31.667 -207 -95s-64 -170 -64 -320zM870.002 1221v-20h-105
l-219 169h-2l-232 -169h-104v20l234 270h204z" />
    <glyph glyph-name="Cdotaccent" unicode="&#x10a;" horiz-adv-x="1479" 
d="M792 1274c-156 0 -277.333 -50.168 -364 -150.501s-130 -237.833 -130 -412.5c0 -172.667 45.167 -311.5 135.5 -416.5s212.5 -157.5 366.5 -157.5c197.333 0 345.666 97.667 444.999 293l156 -78c-58 -121.333 -139.5 -213.666 -244.5 -276.999s-226.833 -95 -365.5 -95
c-142 0 -264.833 29.5 -368.5 88.5s-182.667 143.333 -237 253s-81.5 239.5 -81.5 389.5c0 224.667 60.667 400.667 182 528s289.333 191 504 191c150 0 275.333 -29.333 376 -88s174.667 -145.667 222 -261l-181 -60c-32.667 82 -85.167 144.667 -157.5 188
s-158.166 65 -257.499 65zM702 1605v172h180v-172h-180z" />
    <glyph glyph-name="cdotaccent" unicode="&#x10b;" horiz-adv-x="1024" 
d="M275 546c0 -144 22.6689 -250.667 68.002 -320s113.666 -104 204.999 -104c64 0 117.5 17.333 160.5 52s69.5 88 79.5 160l182 -12c-14 -104 -58.333 -187 -133 -249s-169.334 -93 -284.001 -93c-151.333 0 -266.833 47.833 -346.5 143.5s-119.5 235.167 -119.5 418.5
c0 182 40 320.833 120 416.5s194.667 143.5 344 143.5c110.667 0 202.5 -28.667 275.5 -86s118.833 -136.333 137.5 -237l-185 -14c-9.33301 60 -33 107.667 -71 143s-92 53 -162 53c-95.333 0 -164.333 -31.667 -207 -95s-64 -170 -64 -320zM456.002 1312v172h180v-172
h-180z" />
    <glyph glyph-name="Ccaron" unicode="&#x10c;" horiz-adv-x="1479" 
d="M792 1274c-156 0 -277.333 -50.168 -364 -150.501s-130 -237.833 -130 -412.5c0 -172.667 45.167 -311.5 135.5 -416.5s212.5 -157.5 366.5 -157.5c197.333 0 345.666 97.667 444.999 293l156 -78c-58 -121.333 -139.5 -213.666 -244.5 -276.999s-226.833 -95 -365.5 -95
c-142 0 -264.833 29.5 -368.5 88.5s-182.667 143.333 -237 253s-81.5 239.5 -81.5 389.5c0 224.667 60.667 400.667 182 528s289.333 191 504 191c150 0 275.333 -29.333 376 -88s174.667 -145.667 222 -261l-181 -60c-32.667 82 -85.167 144.667 -157.5 188
s-158.166 65 -257.499 65zM898 1530h-204l-234 239v21h104l232 -139h2l219 139h105v-21z" />
    <glyph glyph-name="ccaron" unicode="&#x10d;" horiz-adv-x="1024" 
d="M275 546c0 -144 22.6689 -250.667 68.002 -320s113.666 -104 204.999 -104c64 0 117.5 17.333 160.5 52s69.5 88 79.5 160l182 -12c-14 -104 -58.333 -187 -133 -249s-169.334 -93 -284.001 -93c-151.333 0 -266.833 47.833 -346.5 143.5s-119.5 235.167 -119.5 418.5
c0 182 40 320.833 120 416.5s194.667 143.5 344 143.5c110.667 0 202.5 -28.667 275.5 -86s118.833 -136.333 137.5 -237l-185 -14c-9.33301 60 -33 107.667 -71 143s-92 53 -162 53c-95.333 0 -164.333 -31.667 -207 -95s-64 -170 -64 -320zM652.002 1201h-204l-234 270v20
h104l232 -169h2l219 169h105v-20z" />
    <glyph glyph-name="Dcaron" unicode="&#x10e;" horiz-adv-x="1479" 
d="M1381 719c0 -145.333 -28.334 -272.499 -85.001 -381.499s-137 -192.5 -241 -250.5s-224 -87 -360 -87h-527v1409h466c238.667 0 422.834 -59.833 552.501 -179.5s194.5 -289.834 194.5 -510.501zM1189 719.001c0 174.667 -47.832 307.834 -143.499 399.501
s-234.167 137.5 -415.5 137.5h-271v-1103h314c103.333 0 194.166 22.667 272.499 68s138.5 110.666 180.5 195.999s63 186 63 302zM796 1530h-204l-234 239v21h104l232 -139h2l219 139h105v-21z" />
    <glyph glyph-name="dcaron" unicode="&#x10f;" horiz-adv-x="1259" 
d="M821 174c-33.333 -69.333 -77.5 -119.001 -132.5 -149.001s-123.167 -45 -204.5 -45c-136.667 0 -237.167 46 -301.5 138s-96.5 231.333 -96.5 418c0 377.333 132.667 566 398 566c82 0 150.333 -15 205 -45s98.667 -77.667 132 -143h2l-2 121v449h180v-1261
c0 -112.667 2 -187 6 -223h-172c-2 10.667 -4.16699 35.334 -6.5 74.001s-3.5 72 -3.5 100h-4zM275 541.999c0 -151.333 20 -259.668 60 -325.001s105 -98 195 -98c102 0 176 35.333 222 106s69 180.334 69 329.001c0 143.333 -23 248.333 -69 315s-119.333 100 -220 100
c-90.667 0 -156.167 -33.5 -196.5 -100.5s-60.5 -175.833 -60.5 -326.5zM1279 1378c0 -58 -7.33203 -106.5 -21.999 -145.5s-35.334 -74.167 -62.001 -105.5h-117c62.667 66.667 94 130 94 190h-88v167h195v-106z" />
    <glyph glyph-name="Dcroat" unicode="&#x110;" horiz-adv-x="1479" 
d="M14 801l153.999 0.000976562v608h466c238.667 0 422.834 -59.833 552.501 -179.5s194.5 -289.834 194.5 -510.501c0 -145.333 -28.333 -272.5 -85 -381.5s-137 -192.5 -241 -250.5s-224 -87 -360 -87h-527v647h-154v154zM1189 719.001
c0 174.667 -47.832 307.834 -143.499 399.501s-234.167 137.5 -415.5 137.5h-271v-455h406v-154h-406v-494h314c103.333 0 194.166 22.667 272.499 68s138.5 110.666 180.5 195.999s63 186 63 302z" />
    <glyph glyph-name="dcroat" unicode="&#x111;" 
d="M821 174c-33.333 -69.333 -77.5 -119.001 -132.5 -149.001s-123.167 -45 -204.5 -45c-136.667 0 -237.167 46 -301.5 138s-96.5 231.333 -96.5 418c0 377.333 132.667 566 398 566c82 0 150.333 -15 205 -45s98.667 -77.667 132 -143h2l-2 121v171h-300v131h300v147h180
v-147h132v-131h-132v-983c0 -112.667 2 -187 6 -223h-172c-2 10.667 -4.16699 35.334 -6.5 74.001s-3.5 72 -3.5 100h-4zM275 541.999c0 -151.333 20 -259.668 60 -325.001s105 -98 195 -98c102 0 176 35.333 222 106s69 180.334 69 329.001c0 143.333 -23 248.333 -69 315
s-119.333 100 -220 100c-90.667 0 -156.167 -33.5 -196.5 -100.5s-60.5 -175.833 -60.5 -326.5z" />
    <glyph glyph-name="Emacron" unicode="&#x112;" horiz-adv-x="1366" 
d="M168 0v1409h1069v-156h-878v-452h818v-154h-818v-491h919v-156h-1110zM978 1565h-549v127h549v-127z" />
    <glyph glyph-name="emacron" unicode="&#x113;" 
d="M276 503c0 -124 25.667 -219.667 77 -287s126.333 -101 225 -101c78 0 140.5 15.667 187.5 47s78.833 71 95.5 119l158 -45c-64.667 -170.667 -211.667 -256 -441 -256c-160 0 -281.833 47.667 -365.5 143s-125.5 237 -125.5 425c0 178.667 41.833 315.667 125.5 411
s203.167 143 358.5 143c318 0 477 -191.667 477 -575v-24h-772zM862 641c-10 114 -39 197.167 -87 249.5s-117 78.5 -207 78.5c-87.333 0 -156.5 -29.167 -207.5 -87.5s-78.5 -138.5 -82.5 -240.5h584zM845 1236h-549v127h549v-127z" />
    <glyph glyph-name="Ebreve" unicode="&#x114;" horiz-adv-x="1366" 
d="M168 0v1409h1069v-156h-878v-452h818v-154h-818v-491h919v-156h-1110zM701 1530c-88.667 0 -163.167 23 -223.5 69s-96.5 106 -108.5 180h117c11.333 -35.333 35.166 -63 71.499 -83s84.833 -30 145.5 -30s108.834 10.167 144.501 30.5s59.167 47.833 70.5 82.5h117
c-14 -76 -51 -136.5 -111 -181.5s-134.333 -67.5 -223 -67.5z" />
    <glyph glyph-name="ebreve" unicode="&#x115;" 
d="M276 503c0 -124 25.667 -219.667 77 -287s126.333 -101 225 -101c78 0 140.5 15.667 187.5 47s78.833 71 95.5 119l158 -45c-64.667 -170.667 -211.667 -256 -441 -256c-160 0 -281.833 47.667 -365.5 143s-125.5 237 -125.5 425c0 178.667 41.833 315.667 125.5 411
s203.167 143 358.5 143c318 0 477 -191.667 477 -575v-24h-772zM862 641c-10 114 -39 197.167 -87 249.5s-117 78.5 -207 78.5c-87.333 0 -156.5 -29.167 -207.5 -87.5s-78.5 -138.5 -82.5 -240.5h584zM569 1201c-88 0 -162.333 28.333 -223 85s-97 131.334 -109 224.001
h117c18.667 -102 91 -153 217 -153c124 0 195.667 51 215 153h117c-14 -94.667 -50.833 -169.834 -110.5 -225.501s-134.167 -83.5 -223.5 -83.5z" />
    <glyph glyph-name="Edotaccent" unicode="&#x116;" horiz-adv-x="1366" 
d="M168 0v1409h1069v-156h-878v-452h818v-154h-818v-491h919v-156h-1110zM613 1605v172h180v-172h-180z" />
    <glyph glyph-name="edotaccent" unicode="&#x117;" 
d="M276 503c0 -124 25.667 -219.667 77 -287s126.333 -101 225 -101c78 0 140.5 15.667 187.5 47s78.833 71 95.5 119l158 -45c-64.667 -170.667 -211.667 -256 -441 -256c-160 0 -281.833 47.667 -365.5 143s-125.5 237 -125.5 425c0 178.667 41.833 315.667 125.5 411
s203.167 143 358.5 143c318 0 477 -191.667 477 -575v-24h-772zM862 641c-10 114 -39 197.167 -87 249.5s-117 78.5 -207 78.5c-87.333 0 -156.5 -29.167 -207.5 -87.5s-78.5 -138.5 -82.5 -240.5h584zM480 1312v172h180v-172h-180z" />
    <glyph glyph-name="Eogonek" unicode="&#x118;" horiz-adv-x="1366" 
d="M168 0v1409h1069v-156h-878v-452h818v-154h-818v-491h919v-156h-1110zM1278 -400c-42 -18 -88.334 -27 -139.001 -27c-70 0 -122.667 17 -158 51s-53 79.333 -53 136c0 46.667 14.5 92 43.5 136s66.167 78.667 111.5 104h133c-16.667 -9.33301 -33.667 -21.5 -51 -36.5
s-33.166 -32.333 -47.499 -52s-26 -41.167 -35 -64.5s-13.5 -48 -13.5 -74c0 -28 8.16699 -50 24.5 -66s39.5 -24 69.5 -24c36 0 74.333 8 115 24v-107z" />
    <glyph glyph-name="eogonek" unicode="&#x119;" 
d="M276 503c0 -124 25.667 -219.667 77 -287s126.333 -101 225 -101c78 0 140.5 15.667 187.5 47s78.833 71 95.5 119l158 -45c-64.667 -170.667 -211.667 -256 -441 -256c-160 0 -281.833 47.667 -365.5 143s-125.5 237 -125.5 425c0 178.667 41.833 315.667 125.5 411
s203.167 143 358.5 143c318 0 477 -191.667 477 -575v-24h-772zM862 641c-10 114 -39 197.167 -87 249.5s-117 78.5 -207 78.5c-87.333 0 -156.5 -29.167 -207.5 -87.5s-78.5 -138.5 -82.5 -240.5h584zM811 -400c-42 -18 -88.334 -27 -139.001 -27
c-70 0 -122.667 17 -158 51s-53 79.333 -53 136c0 46.667 14.5 92 43.5 136s66.167 78.667 111.5 104h133c-16.667 -9.33301 -33.667 -21.5 -51 -36.5s-33.166 -32.333 -47.499 -52s-26 -41.167 -35 -64.5s-13.5 -48 -13.5 -74c0 -28 8.16699 -50 24.5 -66
s39.5 -24 69.5 -24c36 0 74.333 8 115 24v-107z" />
    <glyph glyph-name="Ecaron" unicode="&#x11a;" horiz-adv-x="1366" 
d="M168 0v1409h1069v-156h-878v-452h818v-154h-818v-491h919v-156h-1110zM805 1530h-204l-234 239v21h104l232 -139h2l219 139h105v-21z" />
    <glyph glyph-name="ecaron" unicode="&#x11b;" 
d="M276 503c0 -124 25.667 -219.667 77 -287s126.333 -101 225 -101c78 0 140.5 15.667 187.5 47s78.833 71 95.5 119l158 -45c-64.667 -170.667 -211.667 -256 -441 -256c-160 0 -281.833 47.667 -365.5 143s-125.5 237 -125.5 425c0 178.667 41.833 315.667 125.5 411
s203.167 143 358.5 143c318 0 477 -191.667 477 -575v-24h-772zM862 641c-10 114 -39 197.167 -87 249.5s-117 78.5 -207 78.5c-87.333 0 -156.5 -29.167 -207.5 -87.5s-78.5 -138.5 -82.5 -240.5h584zM672 1201h-204l-234 270v20h104l232 -169h2l219 169h105v-20z" />
    <glyph glyph-name="Gcircumflex" unicode="&#x11c;" horiz-adv-x="1593" 
d="M103 711c0 228.667 61.334 405.668 184.001 531.001s295 188 517 188c156 0 282.667 -26.333 380 -79s172.333 -137 225 -253l-182 -54c-40 80 -95.167 138.333 -165.5 175s-157.833 55 -262.5 55c-162.667 0 -287 -49.167 -373 -147.5s-129 -236.833 -129 -415.5
c0 -178 45.667 -318.5 137 -421.5s217.666 -154.5 378.999 -154.5c92 0 177.833 14 257.5 42s144.167 66 193.5 114v254h-421v160h597v-486c-74.667 -76 -166.167 -134.833 -274.5 -176.5s-225.833 -62.5 -352.5 -62.5c-147.333 0 -274.333 29.333 -381 88
s-188.167 143.167 -244.5 253.5s-84.5 240.166 -84.5 389.499zM1137 1550v-20h-105l-219 139h-2l-232 -139h-104v20l234 240h204z" />
    <glyph glyph-name="gcircumflex" unicode="&#x11d;" 
d="M548 -425c-118 0 -212.002 23.168 -282.002 69.501s-115 112.166 -135 197.499l181 26c12 -50 38.5 -88.5 79.5 -115.5s94.833 -40.5 161.5 -40.5c179.333 0 269 105 269 315v174h-2c-34 -69.333 -80.667 -121.5 -140 -156.5s-128.666 -52.5 -207.999 -52.5
c-132.667 0 -230.167 44 -292.5 132s-93.5 226.333 -93.5 415c0 191.333 33.5 332.5 100.5 423.5s168.833 136.5 305.5 136.5c76.667 0 143.167 -17.5 199.5 -52.5s99.833 -84.833 130.5 -149.5h2c0 20 1.33301 54.667 4 104s5.33398 76.333 8.00098 81h171
c-4 -36 -6 -110.667 -6 -224v-827c0 -304 -151 -456 -453 -456zM821.998 541.001c0 88 -11.999 163.833 -35.999 227.5s-57.833 112.334 -101.5 146.001s-93.167 50.5 -148.5 50.5c-92 0 -159 -33.333 -201 -100s-63 -174.667 -63 -324c0 -148 19.667 -254.333 59 -319
s106.666 -97 201.999 -97c56.667 0 107 16.667 151 50s78 81.166 102 143.499s36 136.5 36 222.5zM877.999 1221v-20h-105l-219 169h-2l-232 -169h-104v20l234 270h204z" />
    <glyph glyph-name="Gbreve" unicode="&#x11e;" horiz-adv-x="1593" 
d="M103 711c0 228.667 61.334 405.668 184.001 531.001s295 188 517 188c156 0 282.667 -26.333 380 -79s172.333 -137 225 -253l-182 -54c-40 80 -95.167 138.333 -165.5 175s-157.833 55 -262.5 55c-162.667 0 -287 -49.167 -373 -147.5s-129 -236.833 -129 -415.5
c0 -178 45.667 -318.5 137 -421.5s217.666 -154.5 378.999 -154.5c92 0 177.833 14 257.5 42s144.167 66 193.5 114v254h-421v160h597v-486c-74.667 -76 -166.167 -134.833 -274.5 -176.5s-225.833 -62.5 -352.5 -62.5c-147.333 0 -274.333 29.333 -381 88
s-188.167 143.167 -244.5 253.5s-84.5 240.166 -84.5 389.499zM810.001 1530c-88.667 0 -163.167 23 -223.5 69s-96.5 106 -108.5 180h117c11.333 -35.333 35.166 -63 71.499 -83s84.833 -30 145.5 -30s108.834 10.167 144.501 30.5s59.167 47.833 70.5 82.5h117
c-14 -76 -51 -136.5 -111 -181.5s-134.333 -67.5 -223 -67.5z" />
    <glyph glyph-name="gbreve" unicode="&#x11f;" 
d="M548 -425c-118 0 -212.002 23.168 -282.002 69.501s-115 112.166 -135 197.499l181 26c12 -50 38.5 -88.5 79.5 -115.5s94.833 -40.5 161.5 -40.5c179.333 0 269 105 269 315v174h-2c-34 -69.333 -80.667 -121.5 -140 -156.5s-128.666 -52.5 -207.999 -52.5
c-132.667 0 -230.167 44 -292.5 132s-93.5 226.333 -93.5 415c0 191.333 33.5 332.5 100.5 423.5s168.833 136.5 305.5 136.5c76.667 0 143.167 -17.5 199.5 -52.5s99.833 -84.833 130.5 -149.5h2c0 20 1.33301 54.667 4 104s5.33398 76.333 8.00098 81h171
c-4 -36 -6 -110.667 -6 -224v-827c0 -304 -151 -456 -453 -456zM821.998 541.001c0 88 -11.999 163.833 -35.999 227.5s-57.833 112.334 -101.5 146.001s-93.167 50.5 -148.5 50.5c-92 0 -159 -33.333 -201 -100s-63 -174.667 -63 -324c0 -148 19.667 -254.333 59 -319
s106.666 -97 201.999 -97c56.667 0 107 16.667 151 50s78 81.166 102 143.499s36 136.5 36 222.5zM545.999 1201c-88 0 -162.333 28.333 -223 85s-97 131.334 -109 224.001h117c18.667 -102 91 -153 217 -153c124 0 195.667 51 215 153h117
c-14 -94.667 -50.833 -169.834 -110.5 -225.501s-134.167 -83.5 -223.5 -83.5z" />
    <glyph glyph-name="Gdotaccent" unicode="&#x120;" horiz-adv-x="1593" 
d="M103 711c0 228.667 61.334 405.668 184.001 531.001s295 188 517 188c156 0 282.667 -26.333 380 -79s172.333 -137 225 -253l-182 -54c-40 80 -95.167 138.333 -165.5 175s-157.833 55 -262.5 55c-162.667 0 -287 -49.167 -373 -147.5s-129 -236.833 -129 -415.5
c0 -178 45.667 -318.5 137 -421.5s217.666 -154.5 378.999 -154.5c92 0 177.833 14 257.5 42s144.167 66 193.5 114v254h-421v160h597v-486c-74.667 -76 -166.167 -134.833 -274.5 -176.5s-225.833 -62.5 -352.5 -62.5c-147.333 0 -274.333 29.333 -381 88
s-188.167 143.167 -244.5 253.5s-84.5 240.166 -84.5 389.499zM721.001 1605v172h180v-172h-180z" />
    <glyph glyph-name="gdotaccent" unicode="&#x121;" 
d="M548 -425c-118 0 -212.002 23.168 -282.002 69.501s-115 112.166 -135 197.499l181 26c12 -50 38.5 -88.5 79.5 -115.5s94.833 -40.5 161.5 -40.5c179.333 0 269 105 269 315v174h-2c-34 -69.333 -80.667 -121.5 -140 -156.5s-128.666 -52.5 -207.999 -52.5
c-132.667 0 -230.167 44 -292.5 132s-93.5 226.333 -93.5 415c0 191.333 33.5 332.5 100.5 423.5s168.833 136.5 305.5 136.5c76.667 0 143.167 -17.5 199.5 -52.5s99.833 -84.833 130.5 -149.5h2c0 20 1.33301 54.667 4 104s5.33398 76.333 8.00098 81h171
c-4 -36 -6 -110.667 -6 -224v-827c0 -304 -151 -456 -453 -456zM821.998 541.001c0 88 -11.999 163.833 -35.999 227.5s-57.833 112.334 -101.5 146.001s-93.167 50.5 -148.5 50.5c-92 0 -159 -33.333 -201 -100s-63 -174.667 -63 -324c0 -148 19.667 -254.333 59 -319
s106.666 -97 201.999 -97c56.667 0 107 16.667 151 50s78 81.166 102 143.499s36 136.5 36 222.5zM456.999 1312v172h180v-172h-180z" />
    <glyph glyph-name="Gcommaaccent" unicode="&#x122;" horiz-adv-x="1593" 
d="M103 711c0 228.667 61.334 405.668 184.001 531.001s295 188 517 188c156 0 282.667 -26.333 380 -79s172.333 -137 225 -253l-182 -54c-40 80 -95.167 138.333 -165.5 175s-157.833 55 -262.5 55c-162.667 0 -287 -49.167 -373 -147.5s-129 -236.833 -129 -415.5
c0 -178 45.667 -318.5 137 -421.5s217.666 -154.5 378.999 -154.5c92 0 177.833 14 257.5 42s144.167 66 193.5 114v254h-421v160h597v-486c-74.667 -76 -166.167 -134.833 -274.5 -176.5s-225.833 -62.5 -352.5 -62.5c-147.333 0 -274.333 29.333 -381 88
s-188.167 143.167 -244.5 253.5s-84.5 240.166 -84.5 389.499zM918.001 -192.999c0 -58 -7.33203 -104.834 -21.999 -140.501s-35.334 -69.167 -62.001 -100.5h-117c30 32 53.167 62.333 69.5 91s24.5 58.334 24.5 89.001h-88v156h195v-95z" />
    <glyph glyph-name="gcommaaccent" unicode="&#x123;" 
d="M548 -425c-118 0 -212.002 23.168 -282.002 69.501s-115 112.166 -135 197.499l181 26c12 -50 38.5 -88.5 79.5 -115.5s94.833 -40.5 161.5 -40.5c179.333 0 269 105 269 315v174h-2c-34 -69.333 -80.667 -121.5 -140 -156.5s-128.666 -52.5 -207.999 -52.5
c-132.667 0 -230.167 44 -292.5 132s-93.5 226.333 -93.5 415c0 191.333 33.5 332.5 100.5 423.5s168.833 136.5 305.5 136.5c76.667 0 143.167 -17.5 199.5 -52.5s99.833 -84.833 130.5 -149.5h2c0 20 1.33301 54.667 4 104s5.33398 76.333 8.00098 81h171
c-4 -36 -6 -110.667 -6 -224v-827c0 -304 -151 -456 -453 -456zM821.998 541.001c0 88 -11.999 163.833 -35.999 227.5s-57.833 112.334 -101.5 146.001s-93.167 50.5 -148.5 50.5c-92 0 -159 -33.333 -201 -100s-63 -174.667 -63 -324c0 -148 19.667 -254.333 59 -319
s106.666 -97 201.999 -97c56.667 0 107 16.667 151 50s78 81.166 102 143.499s36 136.5 36 222.5zM441.999 1317c0 58 7.33203 106.5 21.999 145.5s35.334 74.167 62.001 105.5h117c-62.667 -66.667 -94 -130 -94 -190h88v-167h-195v106z" />
    <glyph glyph-name="Hcircumflex" unicode="&#x124;" horiz-adv-x="1479" 
d="M1121 0v653h-762v-653h-191v1409h191v-596h762v596h191v-1409h-191zM1071 1550v-20h-105l-219 139h-2l-232 -139h-104v20l234 240h204z" />
    <glyph glyph-name="hcircumflex" unicode="&#x125;" 
d="M317 897c38.667 70.667 85.168 122.499 139.501 155.499s123.166 49.5 206.499 49.5c117.333 0 203.833 -29.167 259.5 -87.5s83.5 -156.166 83.5 -293.499v-721h-181v686c0 76 -7 132.5 -21 169.5s-37 64.167 -69 81.5s-76.333 26 -133 26
c-84.667 0 -152.5 -29.333 -203.5 -88s-76.5 -137.667 -76.5 -237v-638h-180v1484h180v-386c0 -40.667 -1.16699 -82.667 -3.5 -126s-3.83301 -68.333 -4.5 -75h3zM904.001 1614v-20h-105l-219 139h-2l-232 -139h-104v20l234 240h204z" />
    <glyph glyph-name="Hbar" unicode="&#x126;" horiz-adv-x="1479" 
d="M1126 0v653h-767v-653h-191v1025h-154v154h154v230h191v-230h767v230h186v-230h153v-154h-153v-1025h-186zM1126 813v212h-767v-212h767z" />
    <glyph glyph-name="hbar" unicode="&#x127;" 
d="M317 857c38.667 70.667 85.168 122.499 139.501 155.499s123.166 49.5 206.499 49.5c117.333 0 203.833 -29.167 259.5 -87.5s83.5 -156.166 83.5 -293.499v-681h-181v646c0 76 -7 132.5 -21 169.5s-37 64.167 -69 81.5s-76.333 26 -133 26
c-84.667 0 -152.5 -29.333 -203.5 -88s-76.5 -137.667 -76.5 -237v-598h-180v1206h-132v131h132v147h180v-147h300v-131h-300v-148c0 -40.667 -1.16699 -82.667 -3.5 -126s-3.83301 -68.333 -4.5 -75h3z" />
    <glyph glyph-name="Itilde" unicode="&#x128;" horiz-adv-x="569" 
d="M189 0v1409h191v-1409h-191zM443 1530c-28 0 -56 6.16699 -84 18.5s-55 26 -81 41s-50.833 28.667 -74.5 41s-45.834 18.5 -66.501 18.5c-36.667 0 -64 -10.333 -82 -31s-30 -50 -36 -88h-91c7.33301 68 19 119.5 35 154.5s37.5 62.667 64.5 83s61.5 30.5 103.5 30.5
c29.333 0 58 -6.16699 86 -18.5s55 -26 81 -41l73.5 -41c23 -12.333 44.5 -18.5 64.5 -18.5c66.667 0 105.667 39.667 117 119h92c-11.333 -98.667 -33.666 -168 -66.999 -208s-78.333 -60 -135 -60z" />
    <glyph glyph-name="itilde" unicode="&#x129;" horiz-adv-x="569" 
d="M194 0v1082h180v-1082h-180zM443 1201c-28 0 -56 6.16699 -84 18.5s-55 26 -81 41s-50.833 28.667 -74.5 41s-45.834 18.5 -66.501 18.5c-36.667 0 -64 -10.333 -82 -31s-30 -50 -36 -88h-91c7.33301 68 19 119.5 35 154.5s37.5 62.667 64.5 83s61.5 30.5 103.5 30.5
c29.333 0 58 -6.16699 86 -18.5s55 -26 81 -41l73.5 -41c23 -12.333 44.5 -18.5 64.5 -18.5c66.667 0 105.667 39.667 117 119h92c-11.333 -98.667 -33.666 -168 -66.999 -208s-78.333 -60 -135 -60z" />
    <glyph glyph-name="Imacron" unicode="&#x12a;" horiz-adv-x="569" 
d="M189 0v1409h191v-1409h-191zM561 1565h-549v127h549v-127z" />
    <glyph glyph-name="imacron" unicode="&#x12b;" horiz-adv-x="569" 
d="M194 0v1082h180v-1082h-180zM561 1236h-549v127h549v-127z" />
    <glyph glyph-name="Ibreve" unicode="&#x12c;" horiz-adv-x="569" 
d="M189 0v1409h191v-1409h-191zM286 1530c-88.667 0 -163.167 23 -223.5 69s-96.5 106 -108.5 180h117c11.333 -35.333 35.166 -63 71.499 -83s84.833 -30 145.5 -30s108.834 10.167 144.501 30.5s59.167 47.833 70.5 82.5h117c-14 -76 -51 -136.5 -111 -181.5
s-134.333 -67.5 -223 -67.5z" />
    <glyph glyph-name="ibreve" unicode="&#x12d;" horiz-adv-x="569" 
d="M194 0v1082h180v-1082h-180zM286 1201c-88 0 -162.333 28.333 -223 85s-97 131.334 -109 224.001h117c18.667 -102 91 -153 217 -153c124 0 195.667 51 215 153h117c-14 -94.667 -50.833 -169.834 -110.5 -225.501s-134.167 -83.5 -223.5 -83.5z" />
    <glyph glyph-name="Iogonek" unicode="&#x12e;" horiz-adv-x="569" 
d="M189 0v1409h191v-1409h-191zM442 -400c-42 -18 -88.334 -27 -139.001 -27c-70 0 -122.667 17 -158 51s-53 79.333 -53 136c0 46.667 14.5 92 43.5 136s66.167 78.667 111.5 104h133c-16.667 -9.33301 -33.667 -21.5 -51 -36.5s-33.166 -32.333 -47.499 -52
s-26 -41.167 -35 -64.5s-13.5 -48 -13.5 -74c0 -28 8.16699 -50 24.5 -66s39.5 -24 69.5 -24c36 0 74.333 8 115 24v-107z" />
    <glyph glyph-name="iogonek" unicode="&#x12f;" horiz-adv-x="455" 
d="M137 1312v172h180v-172h-180zM137 0v1082h180v-1082h-180zM381 -400c-42 -18 -88.334 -27 -139.001 -27c-70 0 -122.667 17 -158 51s-53 79.333 -53 136c0 46.667 14.5 92 43.5 136s66.167 78.667 111.5 104h133c-16.667 -9.33301 -33.667 -21.5 -51 -36.5
s-33.166 -32.333 -47.499 -52s-26 -41.167 -35 -64.5s-13.5 -48 -13.5 -74c0 -28 8.16699 -50 24.5 -66s39.5 -24 69.5 -24c36 0 74.333 8 115 24v-107z" />
    <glyph glyph-name="Idotaccent" unicode="&#x130;" horiz-adv-x="569" 
d="M189 0v1409h191v-1409h-191zM195 1605v172h180v-172h-180z" />
    <glyph glyph-name="dotlessi" unicode="&#x131;" horiz-adv-x="569" 
d="M194 0v1082h180v-1082h-180z" />
    <glyph glyph-name="IJ" unicode="&#x132;" horiz-adv-x="1505" 
d="M170 0v1409h191v-1409h-191zM938 -20c-238.667 0 -380.333 123.332 -425 369.999l187 31c12 -77.333 39 -137.666 81 -180.999s94.667 -65 158 -65c69.333 0 124 23.833 164 71.5s60 117.5 60 209.5v837h-271v156h461v-989c0 -136.667 -37 -244.167 -111 -322.5
s-175.333 -117.5 -304 -117.5z" />
    <glyph glyph-name="ij" unicode="&#x133;" horiz-adv-x="909" 
d="M137 1312v172h180v-172h-180zM137 0v1082h180v-1082h-180zM591 1312v172h180v-172h-180zM771 -134c0 -102 -20.001 -176 -60.001 -222s-100 -69 -180 -69c-51.333 0 -93.666 3 -126.999 9v139l62 -6c46 0 78.333 12 97 36s28 70.667 28 140v1189h180v-1216z" />
    <glyph glyph-name="Jcircumflex" unicode="&#x134;" horiz-adv-x="1024" 
d="M457 -20c-238.667 0 -380.333 123.332 -425 369.999l187 31c12 -77.333 39 -137.666 81 -180.999s94.667 -65 158 -65c69.333 0 124 23.833 164 71.5s60 117.5 60 209.5v837h-271v156h461v-989c0 -136.667 -37 -244.167 -111 -322.5s-175.333 -117.5 -304 -117.5z
M973.001 1550v-20h-105l-219 139h-2l-232 -139h-104v20l234 240h204z" />
    <glyph glyph-name="jcircumflex" unicode="&#x135;" horiz-adv-x="455" 
d="M77 -425c-51.333 0 -93.667 3 -127 9v139l62 -6c46 0 78.333 12 97 36s28 70.667 28 140v1189h180v-1216c0 -102 -20 -176 -60 -222s-100 -69 -180 -69zM558.999 1221v-20h-105l-219 169h-2l-232 -169h-104v20l234 270h204z" />
    <glyph glyph-name="Kcommaaccent" unicode="&#x136;" horiz-adv-x="1366" 
d="M1106 0l-563 680l-184 -140v-540h-191v1409h191v-706l679 706h225l-600 -612l680 -797h-237zM805 -193c0 -58 -7.33203 -104.834 -21.999 -140.501s-35.334 -69.167 -62.001 -100.5h-117c30 32 53.167 62.333 69.5 91s24.5 58.334 24.5 89.001h-88v156h195v-95z" />
    <glyph glyph-name="kcommaaccent" unicode="&#x137;" horiz-adv-x="1024" 
d="M816 0l-366 494l-132 -109v-385h-180v1484h180v-927l475 525h211l-439 -465l462 -617h-211zM662 -193c0 -58 -7.33203 -104.834 -21.999 -140.501s-35.334 -69.167 -62.001 -100.5h-117c30 32 53.167 62.333 69.5 91s24.5 58.334 24.5 89.001h-88v156h195v-95z" />
    <glyph glyph-name="kgreenlandic" unicode="&#x138;" horiz-adv-x="1024" 
d="M816 0l-366 494l-132 -108v-386h-180v1082h180v-525l475 525h211l-439 -465l462 -617h-211z" />
    <glyph glyph-name="Lacute" unicode="&#x139;" 
d="M168 0v1409h191v-1253h712v-156h-903zM245 1530v20l217 226h207v-29l-310 -217h-114z" />
    <glyph glyph-name="lacute" unicode="&#x13a;" horiz-adv-x="455" 
d="M138 0v1484h180v-1484h-180zM91 1608v20l217 226h207v-29l-310 -217h-114z" />
    <glyph glyph-name="Lcommaaccent" unicode="&#x13b;" 
d="M168 0v1409h191v-1253h712v-156h-903zM717 -193c0 -58 -7.33203 -104.834 -21.999 -140.501s-35.334 -69.167 -62.001 -100.5h-117c30 32 53.167 62.333 69.5 91s24.5 58.334 24.5 89.001h-88v156h195v-95z" />
    <glyph glyph-name="lcommaaccent" unicode="&#x13c;" horiz-adv-x="455" 
d="M138 0v1484h180v-1484h-180zM327 -193c0 -58 -7.33203 -104.834 -21.999 -140.501s-35.334 -69.167 -62.001 -100.5h-117c30 32 53.167 62.333 69.5 91s24.5 58.334 24.5 89.001h-88v156h195v-95z" />
    <glyph glyph-name="Lcaron" unicode="&#x13d;" 
d="M168 0v1409h191v-1253h712v-156h-903zM858 1303c0 -58 -7.33203 -106.5 -21.999 -145.5s-35.334 -74.167 -62.001 -105.5h-117c62.667 66.667 94 130 94 190h-88v167h195v-106z" />
    <glyph glyph-name="lcaron" unicode="&#x13e;" horiz-adv-x="597" 
d="M138 0v1484h180v-1484h-180zM617 1378c0 -58 -7.33203 -106.5 -21.999 -145.5s-35.334 -74.167 -62.001 -105.5h-117c62.667 66.667 94 130 94 190h-88v167h195v-106z" />
    <glyph glyph-name="Ldot" unicode="&#x13f;" 
d="M168 0v1409h191v-1253h712v-156h-903zM625 687v172h180v-172h-180z" />
    <glyph glyph-name="ldot" unicode="&#x140;" horiz-adv-x="684" 
d="M138 0v1484h180v-1484h-180zM478 687v172h180v-172h-180z" />
    <glyph glyph-name="Lslash" unicode="&#x141;" 
d="M616 797l-257 -149v-492h712v-156h-903v538l-148 -85v158l148 85v713h191v-603l257 148v-157z" />
    <glyph glyph-name="lslash" unicode="&#x142;" horiz-adv-x="455" 
d="M138 0v542l-122 -68v158l122 68v784h180v-680l124 72v-159l-124 -71v-646h-180z" />
    <glyph glyph-name="Nacute" unicode="&#x143;" horiz-adv-x="1479" 
d="M1082 0l-754 1200l5 -97l5 -167v-936h-170v1409h222l762 -1208c-8 130.667 -12 225.334 -12 284.001v924h172v-1409h-230zM601 1530v20l217 226h207v-29l-310 -217h-114z" />
    <glyph glyph-name="nacute" unicode="&#x144;" 
d="M829 0v686.001c0 71.333 -7 126.666 -21 165.999s-36.333 67.666 -67 84.999s-75.667 26 -135 26c-86.667 0 -155 -29.667 -205 -89s-75 -141.666 -75 -246.999v-627h-180v851c0 126 -2 203 -6 231h170c0.666992 -3.33301 1.33398 -12.333 2.00098 -27
s1.5 -31.5 2.5 -50.5s2.16699 -54.833 3.5 -107.5h3c41.333 74.667 89.166 127.5 143.499 158.5s121.833 46.5 202.5 46.5c118.667 0 205.5 -29.5 260.5 -88.5s82.5 -156.5 82.5 -292.5v-721h-181zM460 1201v20l217 287h207v-29l-330 -278h-94z" />
    <glyph glyph-name="Ncommaaccent" unicode="&#x145;" horiz-adv-x="1479" 
d="M1082 0l-754 1200l5 -97l5 -167v-936h-170v1409h222l762 -1208c-8 130.667 -12 225.334 -12 284.001v924h172v-1409h-230zM836 -193.001c0 -58 -7.33203 -104.834 -21.999 -140.501s-35.334 -69.167 -62.001 -100.5h-117c30 32 53.167 62.333 69.5 91
s24.5 58.334 24.5 89.001h-88v156h195v-95z" />
    <glyph glyph-name="ncommaaccent" unicode="&#x146;" 
d="M829 0v686.001c0 71.333 -7 126.666 -21 165.999s-36.333 67.666 -67 84.999s-75.667 26 -135 26c-86.667 0 -155 -29.667 -205 -89s-75 -141.666 -75 -246.999v-627h-180v851c0 126 -2 203 -6 231h170c0.666992 -3.33301 1.33398 -12.333 2.00098 -27
s1.5 -31.5 2.5 -50.5s2.16699 -54.833 3.5 -107.5h3c41.333 74.667 89.166 127.5 143.499 158.5s121.833 46.5 202.5 46.5c118.667 0 205.5 -29.5 260.5 -88.5s82.5 -156.5 82.5 -292.5v-721h-181zM675 -192.999c0 -58 -7.33203 -104.834 -21.999 -140.501
s-35.334 -69.167 -62.001 -100.5h-117c30 32 53.167 62.333 69.5 91s24.5 58.334 24.5 89.001h-88v156h195v-95z" />
    <glyph glyph-name="Ncaron" unicode="&#x147;" horiz-adv-x="1479" 
d="M1082 0l-754 1200l5 -97l5 -167v-936h-170v1409h222l762 -1208c-8 130.667 -12 225.334 -12 284.001v924h172v-1409h-230zM841 1530h-204l-234 239v21h104l232 -139h2l219 139h105v-21z" />
    <glyph glyph-name="ncaron" unicode="&#x148;" 
d="M829 0v686.001c0 71.333 -7 126.666 -21 165.999s-36.333 67.666 -67 84.999s-75.667 26 -135 26c-86.667 0 -155 -29.667 -205 -89s-75 -141.666 -75 -246.999v-627h-180v851c0 126 -2 203 -6 231h170c0.666992 -3.33301 1.33398 -12.333 2.00098 -27
s1.5 -31.5 2.5 -50.5s2.16699 -54.833 3.5 -107.5h3c41.333 74.667 89.166 127.5 143.499 158.5s121.833 46.5 202.5 46.5c118.667 0 205.5 -29.5 260.5 -88.5s82.5 -156.5 82.5 -292.5v-721h-181zM680 1201h-204l-234 270v20h104l232 -169h2l219 169h105v-20z" />
    <glyph glyph-name="napostrophe" unicode="&#x149;" horiz-adv-x="1237" 
d="M923 0v686.001c0 71.333 -7 126.666 -21 165.999s-36.333 67.666 -67 84.999s-75.667 26 -135 26c-86.667 0 -155 -29.667 -205 -89s-75 -141.666 -75 -246.999v-627h-180v851c0 126 -2 203 -6 231h170c0.666992 -3.33301 1.33398 -12.333 2.00098 -27
s1.5 -31.5 2.5 -50.5s2.16699 -54.833 3.5 -107.5h3c41.333 74.667 89.166 127.5 143.499 158.5s121.833 46.5 202.5 46.5c118.667 0 205.5 -29.5 260.5 -88.5s82.5 -156.5 82.5 -292.5v-721h-181zM199 1264c0 -70 -6.33203 -128.833 -18.999 -176.5
s-32.334 -92.834 -59.001 -135.501h-123c62.667 90.667 94 177.334 94 260.001h-88v197h195v-145z" />
    <glyph glyph-name="Eng" unicode="&#x14a;" horiz-adv-x="1481" 
d="M941 -20c-63.333 0 -122.334 12.334 -177.001 37.001s-101.667 61.667 -141 111l127 115c60 -73.333 125.333 -110 196 -110c48.667 0 87.167 13.167 115.5 39.5s48.833 66.5 61.5 120.5s19 138.333 19 253v322c0 142 -26.167 245.167 -78.5 309.5
s-137.5 96.5 -255.5 96.5c-79.333 0 -153.666 -17.333 -222.999 -52s-124.166 -81.667 -164.499 -141s-60.5 -122.666 -60.5 -189.999v-891h-191v1092l-4 317h184c4.66699 -102.667 7 -186.334 7 -251.001h4c48 86 117.167 152.667 207.5 200s189.833 71 298.5 71
c164 0 282.667 -43 356 -129s110 -223 110 -411v-347c0 -148 -12.833 -259.833 -38.5 -335.5s-66.834 -132.334 -123.501 -170.001s-133 -56.5 -229 -56.5z" />
    <glyph glyph-name="eng" unicode="&#x14b;" 
d="M769 -425c-51.333 0 -93.667 3.00195 -127 9.00195v139l62 -6c46 0 78.333 12 97 36s28 70.667 28 140v793c0 71.333 -7 126.666 -21 165.999s-36.333 67.666 -67 84.999s-75.667 26 -135 26c-86.667 0 -155 -29.667 -205 -89s-75 -141.666 -75 -246.999v-627h-180v851
c0 126 -2 203 -6 231h170c0.666992 -3.33301 1.33398 -12.333 2.00098 -27s1.5 -31.5 2.5 -50.5s2.16699 -54.833 3.5 -107.5h3c41.333 74.667 89.166 127.5 143.499 158.5s121.833 46.5 202.5 46.5c118.667 0 205.5 -29.5 260.5 -88.5s82.5 -156.5 82.5 -292.5v-855
c0 -100.667 -20 -174.334 -60 -221.001s-100.333 -70 -181 -70z" />
    <glyph glyph-name="Omacron" unicode="&#x14c;" horiz-adv-x="1593" 
d="M1495 711c0 -147.333 -28.168 -276.333 -84.501 -387s-137.166 -195.667 -242.499 -255s-229.666 -89 -372.999 -89c-144.667 0 -269.5 29.333 -374.5 88s-185.167 143.5 -240.5 254.5s-83 240.5 -83 388.5c0 225.333 61.667 401.5 185 528.5s295 190.5 515 190.5
c143.333 0 267.666 -28.5 372.999 -85.5s185.833 -139.833 241.5 -248.5s83.5 -237 83.5 -385zM1300 711c0 175.333 -43.833 313.002 -131.5 413.002s-211.5 150 -371.5 150c-161.333 0 -286 -49.333 -374 -148s-132 -237 -132 -415
c0 -176.667 44.5 -316.834 133.5 -420.501s212.5 -155.5 370.5 -155.5c162.667 0 287.5 50.167 374.5 150.5s130.5 242.166 130.5 425.499zM1070 1565h-549v127h549v-127z" />
    <glyph glyph-name="omacron" unicode="&#x14d;" 
d="M1053 542c0 -189.333 -41.667 -330.333 -125 -423s-204.333 -139 -363 -139c-158 0 -277.333 48.167 -358 144.5s-121 235.5 -121 417.5c0 373.333 161.667 560 485 560c165.333 0 287 -45.5 365 -136.5s117 -232.167 117 -423.5zM864 542
c0 149.333 -22.166 257.835 -66.499 325.502s-118.833 101.5 -223.5 101.5c-105.333 0 -181.5 -34.5 -228.5 -103.5s-70.5 -176.833 -70.5 -323.5c0 -142.667 23.167 -249.834 69.5 -321.501s119.166 -107.5 218.499 -107.5c108 0 185.167 34.667 231.5 104
s69.5 177.666 69.5 324.999zM844.001 1236h-549v127h549v-127z" />
    <glyph glyph-name="Obreve" unicode="&#x14e;" horiz-adv-x="1593" 
d="M1495 711c0 -147.333 -28.168 -276.333 -84.501 -387s-137.166 -195.667 -242.499 -255s-229.666 -89 -372.999 -89c-144.667 0 -269.5 29.333 -374.5 88s-185.167 143.5 -240.5 254.5s-83 240.5 -83 388.5c0 225.333 61.667 401.5 185 528.5s295 190.5 515 190.5
c143.333 0 267.666 -28.5 372.999 -85.5s185.833 -139.833 241.5 -248.5s83.5 -237 83.5 -385zM1300 711c0 175.333 -43.833 313.002 -131.5 413.002s-211.5 150 -371.5 150c-161.333 0 -286 -49.333 -374 -148s-132 -237 -132 -415
c0 -176.667 44.5 -316.834 133.5 -420.501s212.5 -155.5 370.5 -155.5c162.667 0 287.5 50.167 374.5 150.5s130.5 242.166 130.5 425.499zM794.999 1530c-88.667 0 -163.167 23 -223.5 69s-96.5 106 -108.5 180h117c11.333 -35.333 35.166 -63 71.499 -83
s84.833 -30 145.5 -30s108.834 10.167 144.501 30.5s59.167 47.833 70.5 82.5h117c-14 -76 -51 -136.5 -111 -181.5s-134.333 -67.5 -223 -67.5z" />
    <glyph glyph-name="obreve" unicode="&#x14f;" 
d="M1053 542c0 -189.333 -41.667 -330.333 -125 -423s-204.333 -139 -363 -139c-158 0 -277.333 48.167 -358 144.5s-121 235.5 -121 417.5c0 373.333 161.667 560 485 560c165.333 0 287 -45.5 365 -136.5s117 -232.167 117 -423.5zM864 542
c0 149.333 -22.166 257.835 -66.499 325.502s-118.833 101.5 -223.5 101.5c-105.333 0 -181.5 -34.5 -228.5 -103.5s-70.5 -176.833 -70.5 -323.5c0 -142.667 23.167 -249.834 69.5 -321.501s119.166 -107.5 218.499 -107.5c108 0 185.167 34.667 231.5 104
s69.5 177.666 69.5 324.999zM569.001 1201c-88 0 -162.333 28.333 -223 85s-97 131.334 -109 224.001h117c18.667 -102 91 -153 217 -153c124 0 195.667 51 215 153h117c-14 -94.667 -50.833 -169.834 -110.5 -225.501s-134.167 -83.5 -223.5 -83.5z" />
    <glyph glyph-name="Ohungarumlaut" unicode="&#x150;" horiz-adv-x="1593" 
d="M1495 711c0 -147.333 -28.168 -276.333 -84.501 -387s-137.166 -195.667 -242.499 -255s-229.666 -89 -372.999 -89c-144.667 0 -269.5 29.333 -374.5 88s-185.167 143.5 -240.5 254.5s-83 240.5 -83 388.5c0 225.333 61.667 401.5 185 528.5s295 190.5 515 190.5
c143.333 0 267.666 -28.5 372.999 -85.5s185.833 -139.833 241.5 -248.5s83.5 -237 83.5 -385zM1300 711c0 175.333 -43.833 313.002 -131.5 413.002s-211.5 150 -371.5 150c-161.333 0 -286 -49.333 -374 -148s-132 -237 -132 -415
c0 -176.667 44.5 -316.834 133.5 -420.501s212.5 -155.5 370.5 -155.5c162.667 0 287.5 50.167 374.5 150.5s130.5 242.166 130.5 425.499zM513.999 1530v20l197 227h207v-29l-310 -218h-94zM860.999 1530v20l197 227h207v-29l-310 -218h-94z" />
    <glyph glyph-name="ohungarumlaut" unicode="&#x151;" 
d="M1053 542c0 -189.333 -41.667 -330.333 -125 -423s-204.333 -139 -363 -139c-158 0 -277.333 48.167 -358 144.5s-121 235.5 -121 417.5c0 373.333 161.667 560 485 560c165.333 0 287 -45.5 365 -136.5s117 -232.167 117 -423.5zM864 542
c0 149.333 -22.166 257.835 -66.499 325.502s-118.833 101.5 -223.5 101.5c-105.333 0 -181.5 -34.5 -228.5 -103.5s-70.5 -176.833 -70.5 -323.5c0 -142.667 23.167 -249.834 69.5 -321.501s119.166 -107.5 218.499 -107.5c108 0 185.167 34.667 231.5 104
s69.5 177.666 69.5 324.999zM287.001 1201v20l217 287h207v-29l-330 -278h-94zM634.001 1201v20l217 287h207v-29l-330 -278h-94z" />
    <glyph glyph-name="OE" unicode="&#x152;" horiz-adv-x="2048" 
d="M999 0c-44.667 -6.66699 -114.667 -10 -210 -10c-215.333 0 -384.5 64.333 -507.5 193s-184.5 304.667 -184.5 528c0 221.333 61.333 394.833 184 520.5s292.667 188.5 510 188.5c71.333 0 142 -3.66699 212 -11h914v-156h-803v-452h743v-154h-743v-491h844v-156h-959z
M789 145c54.667 0 99.3311 1.33301 133.998 4v1111c-29.333 2.66699 -56.166 4 -80.499 4h-51.5c-163.333 0 -287.5 -47.667 -372.5 -143s-127.5 -232 -127.5 -410c0 -178.667 43.833 -317.667 131.5 -417s209.834 -149 366.501 -149z" />
    <glyph glyph-name="oe" unicode="&#x153;" horiz-adv-x="1933" 
d="M1070 503c0 -124 25.6699 -219.667 77.0029 -287s126.333 -101 225 -101c78 0 140.5 15.667 187.5 47s78.833 71 95.5 119l158 -45c-64.667 -170.667 -211.667 -256 -441 -256c-183.333 0 -315.333 61 -396 183c-82.667 -122 -216.334 -183 -401.001 -183
c-158.667 0 -279.834 48.167 -363.501 144.5s-125.5 235.5 -125.5 417.5c0 186 42.167 325.833 126.5 419.5s207.166 140.5 368.499 140.5c187.333 0 320 -59 398 -177c84 118 212.667 177 386 177c318 0 477 -191.667 477 -575v-24h-772zM881.003 542
c0 146 -23 253.668 -69 323.001s-122 104 -228 104c-108 0 -186.5 -35.5 -235.5 -106.5s-73.5 -177.833 -73.5 -320.5c0 -286 99.333 -429 298 -429c109.333 0 188 34.667 236 104s72 177.666 72 324.999zM1656 641.001c-10 114 -39 197.167 -87 249.5s-117 78.5 -207 78.5
c-87.333 0 -156.5 -29.167 -207.5 -87.5s-78.5 -138.5 -82.5 -240.5h584z" />
    <glyph glyph-name="Racute" unicode="&#x154;" horiz-adv-x="1479" 
d="M1164 0l-366 585h-439v-585h-191v1409h663c158.667 0 281.167 -35.5 367.5 -106.5s129.5 -169.833 129.5 -296.5c0 -104.667 -30.5 -192.667 -91.5 -264s-145.167 -116.333 -252.5 -135l400 -607h-220zM1136 1004c0 82 -27.832 144.5 -83.499 187.5
s-135.834 64.5 -240.501 64.5h-453v-520h461c100.667 0 178.5 23.5 233.5 70.5s82.5 112.833 82.5 197.5zM553.001 1530v20l217 226h207v-29l-310 -217h-114z" />
    <glyph glyph-name="racute" unicode="&#x155;" horiz-adv-x="682" 
d="M142 0v830.001c0 76 -2 160 -6 252h170c5.33301 -122.667 8 -196.334 8 -221.001h4c28.667 92.667 61.667 156 99 190s90 51 158 51c24 0 48.333 -3.33301 73 -10v-165c-24 6.66699 -56 10 -96 10c-74.667 0 -131.667 -32.167 -171 -96.5s-59 -156.5 -59 -276.5v-564
h-180zM254 1201v20l217 287h207v-29l-330 -278h-94z" />
    <glyph glyph-name="Rcommaaccent" unicode="&#x156;" horiz-adv-x="1479" 
d="M1164 0l-366 585h-439v-585h-191v1409h663c158.667 0 281.167 -35.5 367.5 -106.5s129.5 -169.833 129.5 -296.5c0 -104.667 -30.5 -192.667 -91.5 -264s-145.167 -116.333 -252.5 -135l400 -607h-220zM1136 1004c0 82 -27.832 144.5 -83.499 187.5
s-135.834 64.5 -240.501 64.5h-453v-520h461c100.667 0 178.5 23.5 233.5 70.5s82.5 112.833 82.5 197.5zM845.001 -193c0 -58 -7.33203 -104.834 -21.999 -140.501s-35.334 -69.167 -62.001 -100.5h-117c30 32 53.167 62.333 69.5 91s24.5 58.334 24.5 89.001h-88v156h195
v-95z" />
    <glyph glyph-name="rcommaaccent" unicode="&#x157;" horiz-adv-x="682" 
d="M142 0v830.001c0 76 -2 160 -6 252h170c5.33301 -122.667 8 -196.334 8 -221.001h4c28.667 92.667 61.667 156 99 190s90 51 158 51c24 0 48.333 -3.33301 73 -10v-165c-24 6.66699 -56 10 -96 10c-74.667 0 -131.667 -32.167 -171 -96.5s-59 -156.5 -59 -276.5v-564
h-180zM330 -192.999c0 -58 -7.33203 -104.834 -21.999 -140.501s-35.334 -69.167 -62.001 -100.5h-117c30 32 53.167 62.333 69.5 91s24.5 58.334 24.5 89.001h-88v156h195v-95z" />
    <glyph glyph-name="Rcaron" unicode="&#x158;" horiz-adv-x="1479" 
d="M1164 0l-366 585h-439v-585h-191v1409h663c158.667 0 281.167 -35.5 367.5 -106.5s129.5 -169.833 129.5 -296.5c0 -104.667 -30.5 -192.667 -91.5 -264s-145.167 -116.333 -252.5 -135l400 -607h-220zM1136 1004c0 82 -27.832 144.5 -83.499 187.5
s-135.834 64.5 -240.501 64.5h-453v-520h461c100.667 0 178.5 23.5 233.5 70.5s82.5 112.833 82.5 197.5zM796.001 1530h-204l-234 239v21h104l232 -139h2l219 139h105v-21z" />
    <glyph glyph-name="rcaron" unicode="&#x159;" horiz-adv-x="682" 
d="M142 0v830.001c0 76 -2 160 -6 252h170c5.33301 -122.667 8 -196.334 8 -221.001h4c28.667 92.667 61.667 156 99 190s90 51 158 51c24 0 48.333 -3.33301 73 -10v-165c-24 6.66699 -56 10 -96 10c-74.667 0 -131.667 -32.167 -171 -96.5s-59 -156.5 -59 -276.5v-564
h-180zM494 1201h-204l-234 270v20h104l232 -169h2l219 169h105v-20z" />
    <glyph glyph-name="Sacute" unicode="&#x15a;" horiz-adv-x="1366" 
d="M1272 389c0 -130 -50.8262 -230.673 -152.493 -302.006s-244.834 -107 -429.501 -107c-343.333 0 -542.333 119.333 -597 358l185 37c21.333 -84.667 66.666 -146.834 135.999 -186.501s163.666 -59.5 282.999 -59.5c123.333 0 218.5 21.167 285.5 63.5
s100.5 104.5 100.5 186.5c0 46 -10.5 83.333 -31.5 112s-50.5 52.334 -88.5 71.001s-83.333 34.334 -136 47.001l-175 41c-111.333 24.667 -195.833 49.334 -253.5 74.001s-103.167 52.167 -136.5 82.5s-58.833 65.833 -76.5 106.5s-26.5 87.334 -26.5 140.001
c0 120.667 46.167 213.667 138.5 279s224.5 98 396.5 98c160 0 282.333 -24.5 367 -73.5s144 -132.5 178 -250.5l-188 -33c-20.667 74.667 -60 128.834 -118 162.501s-138.333 50.5 -241 50.5c-112.667 0 -198.667 -18.667 -258 -56s-89 -93 -89 -167
c0 -43.333 11.5 -79.166 34.5 -107.499s56.167 -52.333 99.5 -72s129.666 -43.834 258.999 -72.501l129.5 -30.5c43 -10.333 84.167 -22.666 123.5 -36.999s76.166 -31.166 110.499 -50.499s64.166 -43 89.499 -71s45.166 -61 59.499 -99s21.5 -82.667 21.5 -134z
M562.007 1529.99v20l217 287h207v-29l-330 -278h-94z" />
    <glyph glyph-name="sacute" unicode="&#x15b;" horiz-adv-x="1024" 
d="M950 299c0 -102 -38.4971 -180.672 -115.497 -236.005s-184.833 -83 -323.5 -83c-134.667 0 -238.5 22.167 -311.5 66.5s-120.5 113.5 -142.5 207.5l159 31c15.333 -58 47 -100.5 95 -127.5s114.667 -40.5 200 -40.5c91.333 0 158.166 14 200.499 42s63.5 70 63.5 126
c0 42.667 -14.667 77.334 -44 104.001s-76.666 48.667 -141.999 66l-129 34c-103.333 26.667 -176.833 52.834 -220.5 78.501s-77.834 56.834 -102.501 93.501s-37 81.667 -37 135c0 98.667 35.167 173.834 105.5 225.501s172.833 77.5 307.5 77.5
c119.333 0 214.166 -21 284.499 -63s114.833 -109.333 133.5 -202l-162 -20c-10 48 -36.833 84.833 -80.5 110.5s-102.167 38.5 -175.5 38.5c-81.333 0 -141.333 -12.333 -180 -37s-58 -62 -58 -112c0 -30.667 8 -56 24 -76s39.667 -37 71 -51s97.333 -33.333 198 -58
c95.333 -24 164 -46.167 206 -66.5s75.167 -42.833 99.5 -67.5s43.166 -53.167 56.499 -85.5s20 -69.166 20 -110.499zM385.003 1201v20l217 287h207v-29l-330 -278h-94z" />
    <glyph glyph-name="Scircumflex" unicode="&#x15c;" horiz-adv-x="1366" 
d="M1272 389c0 -130 -50.8262 -230.673 -152.493 -302.006s-244.834 -107 -429.501 -107c-343.333 0 -542.333 119.333 -597 358l185 37c21.333 -84.667 66.666 -146.834 135.999 -186.501s163.666 -59.5 282.999 -59.5c123.333 0 218.5 21.167 285.5 63.5
s100.5 104.5 100.5 186.5c0 46 -10.5 83.333 -31.5 112s-50.5 52.334 -88.5 71.001s-83.333 34.334 -136 47.001l-175 41c-111.333 24.667 -195.833 49.334 -253.5 74.001s-103.167 52.167 -136.5 82.5s-58.833 65.833 -76.5 106.5s-26.5 87.334 -26.5 140.001
c0 120.667 46.167 213.667 138.5 279s224.5 98 396.5 98c160 0 282.333 -24.5 367 -73.5s144 -132.5 178 -250.5l-188 -33c-20.667 74.667 -60 128.834 -118 162.501s-138.333 50.5 -241 50.5c-112.667 0 -198.667 -18.667 -258 -56s-89 -93 -89 -167
c0 -43.333 11.5 -79.166 34.5 -107.499s56.167 -52.333 99.5 -72s129.666 -43.834 258.999 -72.501l129.5 -30.5c43 -10.333 84.167 -22.666 123.5 -36.999s76.166 -31.166 110.499 -50.499s64.166 -43 89.499 -71s45.166 -61 59.499 -99s21.5 -82.667 21.5 -134z
M1032.01 1549.99v-20h-105l-219 139h-2l-232 -139h-104v20l234 240h204z" />
    <glyph glyph-name="scircumflex" unicode="&#x15d;" horiz-adv-x="1024" 
d="M950 299c0 -102 -38.4971 -180.672 -115.497 -236.005s-184.833 -83 -323.5 -83c-134.667 0 -238.5 22.167 -311.5 66.5s-120.5 113.5 -142.5 207.5l159 31c15.333 -58 47 -100.5 95 -127.5s114.667 -40.5 200 -40.5c91.333 0 158.166 14 200.499 42s63.5 70 63.5 126
c0 42.667 -14.667 77.334 -44 104.001s-76.666 48.667 -141.999 66l-129 34c-103.333 26.667 -176.833 52.834 -220.5 78.501s-77.834 56.834 -102.501 93.501s-37 81.667 -37 135c0 98.667 35.167 173.834 105.5 225.501s172.833 77.5 307.5 77.5
c119.333 0 214.166 -21 284.499 -63s114.833 -109.333 133.5 -202l-162 -20c-10 48 -36.833 84.833 -80.5 110.5s-102.167 38.5 -175.5 38.5c-81.333 0 -141.333 -12.333 -180 -37s-58 -62 -58 -112c0 -30.667 8 -56 24 -76s39.667 -37 71 -51s97.333 -33.333 198 -58
c95.333 -24 164 -46.167 206 -66.5s75.167 -42.833 99.5 -67.5s43.166 -53.167 56.499 -85.5s20 -69.166 20 -110.499zM834.003 1221v-20h-105l-219 169h-2l-232 -169h-104v20l234 270h204z" />
    <glyph glyph-name="Scedilla" unicode="&#x15e;" horiz-adv-x="1366" 
d="M1272 389c0 -130 -50.8262 -230.673 -152.493 -302.006s-244.834 -107 -429.501 -107c-343.333 0 -542.333 119.333 -597 358l185 37c21.333 -84.667 66.666 -146.834 135.999 -186.501s163.666 -59.5 282.999 -59.5c123.333 0 218.5 21.167 285.5 63.5
s100.5 104.5 100.5 186.5c0 46 -10.5 83.333 -31.5 112s-50.5 52.334 -88.5 71.001s-83.333 34.334 -136 47.001l-175 41c-111.333 24.667 -195.833 49.334 -253.5 74.001s-103.167 52.167 -136.5 82.5s-58.833 65.833 -76.5 106.5s-26.5 87.334 -26.5 140.001
c0 120.667 46.167 213.667 138.5 279s224.5 98 396.5 98c160 0 282.333 -24.5 367 -73.5s144 -132.5 178 -250.5l-188 -33c-20.667 74.667 -60 128.834 -118 162.501s-138.333 50.5 -241 50.5c-112.667 0 -198.667 -18.667 -258 -56s-89 -93 -89 -167
c0 -43.333 11.5 -79.166 34.5 -107.499s56.167 -52.333 99.5 -72s129.666 -43.834 258.999 -72.501l129.5 -30.5c43 -10.333 84.167 -22.666 123.5 -36.999s76.166 -31.166 110.499 -50.499s64.166 -43 89.499 -71s45.166 -61 59.499 -99s21.5 -82.667 21.5 -134z
M905.007 -253.006c0 -120.667 -91.334 -181 -274.001 -181c-38 0 -68 1.33301 -90 4v98c32.667 -4 61.334 -6 86.001 -6c98 0 147 27 147 81c0 51.333 -44.333 77 -133 77c-28.667 0 -47.667 -0.666992 -57 -2l65 182h107l-39 -100c62.667 -2 109.667 -16.5 141 -43.5
s47 -63.5 47 -109.5z" />
    <glyph glyph-name="scedilla" unicode="&#x15f;" horiz-adv-x="1024" 
d="M950 299c0 -102 -38.4971 -180.672 -115.497 -236.005s-184.833 -83 -323.5 -83c-134.667 0 -238.5 22.167 -311.5 66.5s-120.5 113.5 -142.5 207.5l159 31c15.333 -58 47 -100.5 95 -127.5s114.667 -40.5 200 -40.5c91.333 0 158.166 14 200.499 42s63.5 70 63.5 126
c0 42.667 -14.667 77.334 -44 104.001s-76.666 48.667 -141.999 66l-129 34c-103.333 26.667 -176.833 52.834 -220.5 78.501s-77.834 56.834 -102.501 93.501s-37 81.667 -37 135c0 98.667 35.167 173.834 105.5 225.501s172.833 77.5 307.5 77.5
c119.333 0 214.166 -21 284.499 -63s114.833 -109.333 133.5 -202l-162 -20c-10 48 -36.833 84.833 -80.5 110.5s-102.167 38.5 -175.5 38.5c-81.333 0 -141.333 -12.333 -180 -37s-58 -62 -58 -112c0 -30.667 8 -56 24 -76s39.667 -37 71 -51s97.333 -33.333 198 -58
c95.333 -24 164 -46.167 206 -66.5s75.167 -42.833 99.5 -67.5s43.166 -53.167 56.499 -85.5s20 -69.166 20 -110.499zM701.003 -253.005c0 -120.667 -91.334 -181 -274.001 -181c-38 0 -68 1.33301 -90 4v98c32.667 -4 61.334 -6 86.001 -6c98 0 147 27 147 81
c0 51.333 -44.333 77 -133 77c-28.667 0 -47.667 -0.666992 -57 -2l65 182h107l-39 -100c62.667 -2 109.667 -16.5 141 -43.5s47 -63.5 47 -109.5z" />
    <glyph glyph-name="Scaron" unicode="&#x160;" horiz-adv-x="1366" 
d="M1272 389c0 -130 -50.8262 -230.673 -152.493 -302.006s-244.834 -107 -429.501 -107c-343.333 0 -542.333 119.333 -597 358l185 37c21.333 -84.667 66.666 -146.834 135.999 -186.501s163.666 -59.5 282.999 -59.5c123.333 0 218.5 21.167 285.5 63.5
s100.5 104.5 100.5 186.5c0 46 -10.5 83.333 -31.5 112s-50.5 52.334 -88.5 71.001s-83.333 34.334 -136 47.001l-175 41c-111.333 24.667 -195.833 49.334 -253.5 74.001s-103.167 52.167 -136.5 82.5s-58.833 65.833 -76.5 106.5s-26.5 87.334 -26.5 140.001
c0 120.667 46.167 213.667 138.5 279s224.5 98 396.5 98c160 0 282.333 -24.5 367 -73.5s144 -132.5 178 -250.5l-188 -33c-20.667 74.667 -60 128.834 -118 162.501s-138.333 50.5 -241 50.5c-112.667 0 -198.667 -18.667 -258 -56s-89 -93 -89 -167
c0 -43.333 11.5 -79.166 34.5 -107.499s56.167 -52.333 99.5 -72s129.666 -43.834 258.999 -72.501l129.5 -30.5c43 -10.333 84.167 -22.666 123.5 -36.999s76.166 -31.166 110.499 -50.499s64.166 -43 89.499 -71s45.166 -61 59.499 -99s21.5 -82.667 21.5 -134z
M809.007 1529.99h-204l-234 239v21h104l232 -139h2l219 139h105v-21z" />
    <glyph glyph-name="scaron" unicode="&#x161;" horiz-adv-x="1024" 
d="M950 299c0 -102 -38.4971 -180.672 -115.497 -236.005s-184.833 -83 -323.5 -83c-134.667 0 -238.5 22.167 -311.5 66.5s-120.5 113.5 -142.5 207.5l159 31c15.333 -58 47 -100.5 95 -127.5s114.667 -40.5 200 -40.5c91.333 0 158.166 14 200.499 42s63.5 70 63.5 126
c0 42.667 -14.667 77.334 -44 104.001s-76.666 48.667 -141.999 66l-129 34c-103.333 26.667 -176.833 52.834 -220.5 78.501s-77.834 56.834 -102.501 93.501s-37 81.667 -37 135c0 98.667 35.167 173.834 105.5 225.501s172.833 77.5 307.5 77.5
c119.333 0 214.166 -21 284.499 -63s114.833 -109.333 133.5 -202l-162 -20c-10 48 -36.833 84.833 -80.5 110.5s-102.167 38.5 -175.5 38.5c-81.333 0 -141.333 -12.333 -180 -37s-58 -62 -58 -112c0 -30.667 8 -56 24 -76s39.667 -37 71 -51s97.333 -33.333 198 -58
c95.333 -24 164 -46.167 206 -66.5s75.167 -42.833 99.5 -67.5s43.166 -53.167 56.499 -85.5s20 -69.166 20 -110.499zM611.003 1201h-204l-234 270v20h104l232 -169h2l219 169h105v-20z" />
    <glyph glyph-name="Tcommaaccent" unicode="&#x162;" horiz-adv-x="1251" 
d="M720 1253v-1253h-190v1253h-484v156h1158v-156h-484zM833 -253c0 -120.667 -91.334 -181 -274.001 -181c-38 0 -68 1.33301 -90 4v98c32.667 -4 61.334 -6 86.001 -6c98 0 147 27 147 81c0 51.333 -44.333 77 -133 77c-28.667 0 -47.667 -0.666992 -57 -2l65 182h107
l-39 -100c62.667 -2 109.667 -16.5 141 -43.5s47 -63.5 47 -109.5z" />
    <glyph glyph-name="tcommaaccent" unicode="&#x163;" horiz-adv-x="569" 
d="M554 8c-59.333 -16 -120 -24 -182 -24c-144 0 -216 81.667 -216 245v722h-125v131h132l53 242h120v-242h200v-131h-200v-683c0 -52 8.5 -88.5 25.5 -109.5s46.5 -31.5 88.5 -31.5c24 0 58.667 4.66699 104 14v-133zM563 -253c0 -120.667 -91.334 -181 -274.001 -181
c-38 0 -68 1.33301 -90 4v98c32.667 -4 61.334 -6 86.001 -6c98 0 147 27 147 81c0 51.333 -44.333 77 -133 77c-28.667 0 -47.667 -0.666992 -57 -2l65 182h107l-39 -100c62.667 -2 109.667 -16.5 141 -43.5s47 -63.5 47 -109.5z" />
    <glyph glyph-name="Tcaron" unicode="&#x164;" horiz-adv-x="1251" 
d="M720 1253v-1253h-190v1253h-484v156h1158v-156h-484zM727 1530h-204l-234 239v21h104l232 -139h2l219 139h105v-21z" />
    <glyph glyph-name="tcaron" unicode="&#x165;" horiz-adv-x="768" 
d="M554 8c-59.333 -16 -120 -24 -182 -24c-144 0 -216 81.667 -216 245v722h-125v131h132l53 242h120v-242h200v-131h-200v-683c0 -52 8.5 -88.5 25.5 -109.5s46.5 -31.5 88.5 -31.5c24 0 58.667 4.66699 104 14v-133zM785 1378c0 -58 -7.33203 -106.5 -21.999 -145.5
s-35.334 -74.167 -62.001 -105.5h-117c62.667 66.667 94 130 94 190h-88v167h195v-106z" />
    <glyph glyph-name="Tbar" unicode="&#x166;" horiz-adv-x="1251" 
d="M720 1253v-452h281v-154h-281v-647h-190v647h-279v154h279v452h-484v156h1158v-156h-484z" />
    <glyph glyph-name="tbar" unicode="&#x167;" horiz-adv-x="569" 
d="M336 516v-248c0 -52 8.5 -88.5 25.5 -109.5s46.5 -31.5 88.5 -31.5c24 0 58.667 4.66699 104 14v-133c-59.333 -16 -120 -24 -182 -24c-144 0 -216 81.667 -216 245v287h-125v131h125v304h-125v131h132l53 242h120v-242h200v-131h-200v-304h200v-131h-200z" />
    <glyph glyph-name="Utilde" unicode="&#x168;" horiz-adv-x="1479" 
d="M731 -20c-115.333 0 -216 21.002 -302 63.002s-152.667 103 -200 183s-71 175.333 -71 286v897h191v-881c0 -128.667 32.667 -226.334 98 -293.001s159.666 -100 282.999 -100c126.667 0 225.167 34.5 295.5 103.5s105.5 169.833 105.5 302.5v868h190v-879
c0 -114 -24.167 -212.333 -72.5 -295s-116.666 -145.834 -204.999 -189.501s-192.5 -65.5 -312.5 -65.5zM896 1530c-28 0 -56 6.16699 -84 18.5s-55 26 -81 41s-50.833 28.667 -74.5 41s-45.834 18.5 -66.501 18.5c-36.667 0 -64 -10.333 -82 -31s-30 -50 -36 -88h-91
c7.33301 68 19 119.5 35 154.5s37.5 62.667 64.5 83s61.5 30.5 103.5 30.5c29.333 0 58 -6.16699 86 -18.5s55 -26 81 -41l73.5 -41c23 -12.333 44.5 -18.5 64.5 -18.5c66.667 0 105.667 39.667 117 119h92c-11.333 -98.667 -33.666 -168 -66.999 -208s-78.333 -60 -135 -60
z" />
    <glyph glyph-name="utilde" unicode="&#x169;" 
d="M314 1082v-686.001c0 -71.333 7 -126.666 21 -165.999s36.333 -67.666 67 -84.999s75.667 -26 135 -26c86.667 0 155 29.667 205 89s75 141.666 75 246.999v627h180v-851c0 -126 2 -203 6 -231h-170c-0.666992 3.33301 -1.33398 12.333 -2.00098 27s-1.5 31.5 -2.5 50.5
s-2.16699 54.833 -3.5 107.5h-3c-41.333 -74.667 -89.166 -127.5 -143.499 -158.5s-121.833 -46.5 -202.5 -46.5c-118.667 0 -205.5 29.5 -260.5 88.5s-82.5 156.5 -82.5 292.5v721h181zM738 1201c-28 0 -56 6.16699 -84 18.5s-55 26 -81 41s-50.833 28.667 -74.5 41
s-45.834 18.5 -66.501 18.5c-36.667 0 -64 -10.333 -82 -31s-30 -50 -36 -88h-91c7.33301 68 19 119.5 35 154.5s37.5 62.667 64.5 83s61.5 30.5 103.5 30.5c29.333 0 58 -6.16699 86 -18.5s55 -26 81 -41l73.5 -41c23 -12.333 44.5 -18.5 64.5 -18.5
c66.667 0 105.667 39.667 117 119h92c-11.333 -98.667 -33.666 -168 -66.999 -208s-78.333 -60 -135 -60z" />
    <glyph glyph-name="Umacron" unicode="&#x16a;" horiz-adv-x="1479" 
d="M731 -20c-115.333 0 -216 21.002 -302 63.002s-152.667 103 -200 183s-71 175.333 -71 286v897h191v-881c0 -128.667 32.667 -226.334 98 -293.001s159.666 -100 282.999 -100c126.667 0 225.167 34.5 295.5 103.5s105.5 169.833 105.5 302.5v868h190v-879
c0 -114 -24.167 -212.333 -72.5 -295s-116.666 -145.834 -204.999 -189.501s-192.5 -65.5 -312.5 -65.5zM1015 1565h-549v127h549v-127z" />
    <glyph glyph-name="umacron" unicode="&#x16b;" 
d="M314 1082v-686.001c0 -71.333 7 -126.666 21 -165.999s36.333 -67.666 67 -84.999s75.667 -26 135 -26c86.667 0 155 29.667 205 89s75 141.666 75 246.999v627h180v-851c0 -126 2 -203 6 -231h-170c-0.666992 3.33301 -1.33398 12.333 -2.00098 27s-1.5 31.5 -2.5 50.5
s-2.16699 54.833 -3.5 107.5h-3c-41.333 -74.667 -89.166 -127.5 -143.499 -158.5s-121.833 -46.5 -202.5 -46.5c-118.667 0 -205.5 29.5 -260.5 88.5s-82.5 156.5 -82.5 292.5v721h181zM840 1236h-549v127h549v-127z" />
    <glyph glyph-name="Ubreve" unicode="&#x16c;" horiz-adv-x="1479" 
d="M731 -20c-115.333 0 -216 21.002 -302 63.002s-152.667 103 -200 183s-71 175.333 -71 286v897h191v-881c0 -128.667 32.667 -226.334 98 -293.001s159.666 -100 282.999 -100c126.667 0 225.167 34.5 295.5 103.5s105.5 169.833 105.5 302.5v868h190v-879
c0 -114 -24.167 -212.333 -72.5 -295s-116.666 -145.834 -204.999 -189.501s-192.5 -65.5 -312.5 -65.5zM738 1530c-88.667 0 -163.167 23 -223.5 69s-96.5 106 -108.5 180h117c11.333 -35.333 35.166 -63 71.499 -83s84.833 -30 145.5 -30s108.834 10.167 144.501 30.5
s59.167 47.833 70.5 82.5h117c-14 -76 -51 -136.5 -111 -181.5s-134.333 -67.5 -223 -67.5z" />
    <glyph glyph-name="ubreve" unicode="&#x16d;" 
d="M314 1082v-686.001c0 -71.333 7 -126.666 21 -165.999s36.333 -67.666 67 -84.999s75.667 -26 135 -26c86.667 0 155 29.667 205 89s75 141.666 75 246.999v627h180v-851c0 -126 2 -203 6 -231h-170c-0.666992 3.33301 -1.33398 12.333 -2.00098 27s-1.5 31.5 -2.5 50.5
s-2.16699 54.833 -3.5 107.5h-3c-41.333 -74.667 -89.166 -127.5 -143.499 -158.5s-121.833 -46.5 -202.5 -46.5c-118.667 0 -205.5 29.5 -260.5 88.5s-82.5 156.5 -82.5 292.5v721h181zM564 1201c-88 0 -162.333 28.333 -223 85s-97 131.334 -109 224.001h117
c18.667 -102 91 -153 217 -153c124 0 195.667 51 215 153h117c-14 -94.667 -50.833 -169.834 -110.5 -225.501s-134.167 -83.5 -223.5 -83.5z" />
    <glyph glyph-name="Uring" unicode="&#x16e;" horiz-adv-x="1479" 
d="M731 -20c-115.333 0 -216 21.002 -302 63.002s-152.667 103 -200 183s-71 175.333 -71 286v897h191v-881c0 -128.667 32.667 -226.334 98 -293.001s159.666 -100 282.999 -100c126.667 0 225.167 34.5 295.5 103.5s105.5 169.833 105.5 302.5v868h190v-879
c0 -114 -24.167 -212.333 -72.5 -295s-116.666 -145.834 -204.999 -189.501s-192.5 -65.5 -312.5 -65.5zM982 1613c0 -66.667 -23.667 -123.667 -71 -171s-104.333 -71 -171 -71s-123.667 23.667 -171 71s-71 104.333 -71 171c0 67.333 23.667 124.333 71 171
s104.333 70 171 70c66 0 122.833 -23.5 170.5 -70.5s71.5 -103.833 71.5 -170.5zM874 1613c0 37.333 -12.999 69 -38.999 95s-57.667 39 -95 39c-38 0 -70 -13 -96 -39s-39 -57.667 -39 -95c0 -36.667 12.667 -68.667 38 -96s57.666 -41 96.999 -41
c38.667 0 70.667 13.5 96 40.5s38 59.167 38 96.5z" />
    <glyph glyph-name="uring" unicode="&#x16f;" 
d="M314 1082v-686.001c0 -71.333 7 -126.666 21 -165.999s36.333 -67.666 67 -84.999s75.667 -26 135 -26c86.667 0 155 29.667 205 89s75 141.666 75 246.999v627h180v-851c0 -126 2 -203 6 -231h-170c-0.666992 3.33301 -1.33398 12.333 -2.00098 27s-1.5 31.5 -2.5 50.5
s-2.16699 54.833 -3.5 107.5h-3c-41.333 -74.667 -89.166 -127.5 -143.499 -158.5s-121.833 -46.5 -202.5 -46.5c-118.667 0 -205.5 29.5 -260.5 88.5s-82.5 156.5 -82.5 292.5v721h181zM811 1410c0 -66.667 -23.667 -123.667 -71 -171s-104.333 -71 -171 -71
s-123.667 23.667 -171 71s-71 104.333 -71 171c0 67.333 23.667 124.333 71 171s104.333 70 171 70c66 0 122.833 -23.5 170.5 -70.5s71.5 -103.833 71.5 -170.5zM703 1410c0 37.333 -12.999 69 -38.999 95s-57.667 39 -95 39c-38 0 -70 -13 -96 -39s-39 -57.667 -39 -95
c0 -36.667 12.667 -68.667 38 -96s57.666 -41 96.999 -41c38.667 0 70.667 13.5 96 40.5s38 59.167 38 96.5z" />
    <glyph glyph-name="Uhungarumlaut" unicode="&#x170;" horiz-adv-x="1479" 
d="M731 -20c-115.333 0 -216 21.002 -302 63.002s-152.667 103 -200 183s-71 175.333 -71 286v897h191v-881c0 -128.667 32.667 -226.334 98 -293.001s159.666 -100 282.999 -100c126.667 0 225.167 34.5 295.5 103.5s105.5 169.833 105.5 302.5v868h190v-879
c0 -114 -24.167 -212.333 -72.5 -295s-116.666 -145.834 -204.999 -189.501s-192.5 -65.5 -312.5 -65.5zM445 1530v20l197 227h207v-29l-310 -218h-94zM792 1530v20l197 227h207v-29l-310 -218h-94z" />
    <glyph glyph-name="uhungarumlaut" unicode="&#x171;" 
d="M314 1082v-686.001c0 -71.333 7 -126.666 21 -165.999s36.333 -67.666 67 -84.999s75.667 -26 135 -26c86.667 0 155 29.667 205 89s75 141.666 75 246.999v627h180v-851c0 -126 2 -203 6 -231h-170c-0.666992 3.33301 -1.33398 12.333 -2.00098 27s-1.5 31.5 -2.5 50.5
s-2.16699 54.833 -3.5 107.5h-3c-41.333 -74.667 -89.166 -127.5 -143.499 -158.5s-121.833 -46.5 -202.5 -46.5c-118.667 0 -205.5 29.5 -260.5 88.5s-82.5 156.5 -82.5 292.5v721h181zM283 1201v20l217 287h207v-29l-330 -278h-94zM630 1201v20l217 287h207v-29l-330 -278
h-94z" />
    <glyph glyph-name="Uogonek" unicode="&#x172;" horiz-adv-x="1479" 
d="M731 -20c-115.333 0 -216 21.002 -302 63.002s-152.667 103 -200 183s-71 175.333 -71 286v897h191v-881c0 -128.667 32.667 -226.334 98 -293.001s159.666 -100 282.999 -100c126.667 0 225.167 34.5 295.5 103.5s105.5 169.833 105.5 302.5v868h190v-879
c0 -114 -24.167 -212.333 -72.5 -295s-116.666 -145.834 -204.999 -189.501s-192.5 -65.5 -312.5 -65.5zM974 -399.998c-42 -18 -88.334 -27 -139.001 -27c-70 0 -122.667 17 -158 51s-53 79.333 -53 136c0 46.667 14.5 92 43.5 136s66.167 78.667 111.5 104h133
c-16.667 -9.33301 -33.667 -21.5 -51 -36.5s-33.166 -32.333 -47.499 -52s-26 -41.167 -35 -64.5s-13.5 -48 -13.5 -74c0 -28 8.16699 -50 24.5 -66s39.5 -24 69.5 -24c36 0 74.333 8 115 24v-107z" />
    <glyph glyph-name="uogonek" unicode="&#x173;" 
d="M314 1082v-686.001c0 -71.333 7 -126.666 21 -165.999s36.333 -67.666 67 -84.999s75.667 -26 135 -26c86.667 0 155 29.667 205 89s75 141.666 75 246.999v627h180v-851c0 -126 2 -203 6 -231h-170c-0.666992 3.33301 -1.33398 12.333 -2.00098 27s-1.5 31.5 -2.5 50.5
s-2.16699 54.833 -3.5 107.5h-3c-41.333 -74.667 -89.166 -127.5 -143.499 -158.5s-121.833 -46.5 -202.5 -46.5c-118.667 0 -205.5 29.5 -260.5 88.5s-82.5 156.5 -82.5 292.5v721h181zM1029 -400.001c-42 -18 -88.334 -27 -139.001 -27c-70 0 -122.667 17 -158 51
s-53 79.333 -53 136c0 46.667 14.5 92 43.5 136s66.167 78.667 111.5 104h133c-16.667 -9.33301 -33.667 -21.5 -51 -36.5s-33.166 -32.333 -47.499 -52s-26 -41.167 -35 -64.5s-13.5 -48 -13.5 -74c0 -28 8.16699 -50 24.5 -66s39.5 -24 69.5 -24c36 0 74.333 8 115 24
v-107z" />
    <glyph glyph-name="Wcircumflex" unicode="&#x174;" horiz-adv-x="1933" 
d="M1511 0l-227.999 -0.00195312l-244 895c-16 56 -39.333 156.333 -70 301l-44 -194c-12 -52 -103 -386 -273 -1002h-228l-415 1409h199l253 -895c30 -112 57.667 -227.333 83 -346c16 73.333 34.5 153.333 55.5 240s113.5 420.334 277.5 1001h183l245 -877
c37.333 -143.333 66.666 -264.666 87.999 -363.999l9 35l44 187.5c11.333 48.333 105 387.833 281 1018.5h199zM1295 1550v-20h-105l-219 139h-2l-232 -139h-104v20l234 240h204z" />
    <glyph glyph-name="wcircumflex" unicode="&#x175;" horiz-adv-x="1479" 
d="M1174 0h-209l-189 765l-36 169c-6 -30 -15.333 -73.167 -28 -129.5s-80.667 -324.5 -204 -804.5h-208l-303 1082h178l183 -735c4.66699 -16 19 -82 43 -198l17 74l226 859h193l189 -743l46 -190l31 139l205 794h176zM1066 1221v-20h-105l-219 169h-2l-232 -169h-104v20
l234 270h204z" />
    <glyph glyph-name="Ycircumflex" unicode="&#x176;" horiz-adv-x="1366" 
d="M777 584v-584h-190v584l-542 825h210l429 -671l427 671h210zM1009 1550v-20h-105l-219 139h-2l-232 -139h-104v20l234 240h204z" />
    <glyph glyph-name="ycircumflex" unicode="&#x177;" horiz-adv-x="1024" 
d="M191 -425c-49.333 0 -90.666 3.66602 -123.999 10.999v135c25.333 -4 53.333 -6 84 -6c112 0 200.667 82.333 266 247l17 43l-429 1077h192l228 -598l12 -33.5l45 -130.5c25.333 -74 39 -115.333 41 -124l70 197l237 689h190l-416 -1082
c-44.667 -115.333 -86.334 -201.166 -125.001 -257.499s-81.5 -98.333 -128.5 -126s-100.167 -41.5 -159.5 -41.5zM844 1221v-20h-105l-219 169h-2l-232 -169h-104v20l234 270h204z" />
    <glyph glyph-name="Ydieresis" unicode="&#x178;" horiz-adv-x="1366" 
d="M777 584v-584h-190v584l-542 825h210l429 -671l427 671h210zM799 1530v184h163v-184h-163zM405 1530v184h165v-184h-165z" />
    <glyph glyph-name="Zacute" unicode="&#x179;" horiz-adv-x="1251" 
d="M1187 0h-1122v143l858 1110h-785v156h1002v-139l-858 -1114h905v-156zM488 1530v20l217 226h207v-29l-310 -217h-114z" />
    <glyph glyph-name="zacute" unicode="&#x17a;" horiz-adv-x="1024" 
d="M83 0v137l605 806h-571v139h784v-137l-606 -806h627v-139h-839zM381 1201v20l217 287h207v-29l-330 -278h-94z" />
    <glyph glyph-name="Zdotaccent" unicode="&#x17b;" horiz-adv-x="1251" 
d="M1187 0h-1122v143l858 1110h-785v156h1002v-139l-858 -1114h905v-156zM536 1605v172h180v-172h-180z" />
    <glyph glyph-name="zdotaccent" unicode="&#x17c;" horiz-adv-x="1024" 
d="M83 0v137l605 806h-571v139h784v-137l-606 -806h627v-139h-839zM409 1312v172h180v-172h-180z" />
    <glyph glyph-name="Zcaron" unicode="&#x17d;" horiz-adv-x="1251" 
d="M1187 0h-1122v143l858 1110h-785v156h1002v-139l-858 -1114h905v-156zM750 1530h-204l-234 239v21h104l232 -139h2l219 139h105v-21z" />
    <glyph glyph-name="zcaron" unicode="&#x17e;" horiz-adv-x="1024" 
d="M83 0v137l605 806h-571v139h784v-137l-606 -806h627v-139h-839zM594 1201h-204l-234 270v20h104l232 -169h2l219 169h105v-20z" />
    <glyph glyph-name="longs" unicode="&#x17f;" horiz-adv-x="455" 
d="M318 0l-179.999 -0.000976562v1204c0 98.667 21.667 169.667 65 213s109.666 65 198.999 65c50 0 92.333 -4 127 -12v-137c-30 5.33301 -56.667 8 -80 8c-46 0 -79.333 -11.667 -100 -35s-31 -65.666 -31 -126.999v-1179z" />
    <glyph glyph-name="uni0180" unicode="&#x180;" 
d="M11 1337h127v147h180v-147h305v-131h-305v-145c0 -43.333 -1.33301 -94.333 -4 -153h4c33.333 69.333 77.5 119 132.5 149s123.167 45 204.5 45c136.667 0 237.167 -46 301.5 -138s96.5 -231.333 96.5 -418c0 -377.333 -132.667 -566 -398 -566
c-82 0 -150.167 14.833 -204.5 44.5s-98.5 77.5 -132.5 143.5h-2c0 -20.667 -1.33301 -52.167 -4 -94.5s-4.66699 -66.833 -6 -73.5h-174c4 36 6 110.333 6 223v983h-127v131zM864 540c0 151.333 -20.001 259.667 -60.001 325s-105 98 -195 98
c-101.333 0 -175.166 -34.667 -221.499 -104s-69.5 -179.333 -69.5 -330c0 -142 22.667 -246.833 68 -314.5s119 -101.5 221 -101.5c90.667 0 156.167 33.5 196.5 100.5s60.5 175.833 60.5 326.5z" />
    <glyph glyph-name="uni0181" unicode="&#x181;" horiz-adv-x="1553" 
d="M1436 397c0 -125.333 -45.667 -222.833 -137 -292.5s-218.333 -104.5 -381 -104.5h-572v1261h-29c-51.333 0 -88 -11.333 -110 -34s-33 -57.667 -33 -105c0 -32.667 6 -67.667 18 -105l-155 -17c-11.333 49.333 -17 94.333 -17 135c0 86.667 28.667 154 86 202
s137.333 72 240 72h512c330.667 0 496 -114 496 -342c0 -83.333 -23.333 -153.333 -70 -210s-112.667 -94.667 -198 -114c112 -13.333 198.333 -50.833 259 -112.5s91 -139.5 91 -233.5zM1243 412c0 166 -116.667 249 -350 249h-356v-508h371
c116.667 0 201.667 21.667 255 65s80 108 80 194zM1162 1044c0 76 -26 130.334 -78 163.001s-127.333 49 -226 49h-321v-446h321c102 0 178.167 19.167 228.5 57.5s75.5 97.166 75.5 176.499z" />
    <glyph glyph-name="uni0182" unicode="&#x182;" horiz-adv-x="1344" 
d="M1263 413c0 -124.667 -43 -224.667 -129 -300s-204.667 -113 -356 -113h-610v1409h951v-156h-760v-440h407c157.333 0 279.5 -35 366.5 -105s130.5 -168.333 130.5 -295zM1071 411c0 80.667 -27.333 142.5 -82 185.5s-136.667 64.5 -246 64.5h-384v-510h392
c109.333 0 190 22.667 242 68s78 109.333 78 192z" />
    <glyph glyph-name="uni0183" unicode="&#x183;" 
d="M1053 546c0 -377.333 -132.667 -566 -398 -566c-82 0 -150.167 14.833 -204.5 44.5s-98.5 77.5 -132.5 143.5h-2c0 -20.667 -1.33301 -52.167 -4 -94.5s-4.66699 -66.833 -6 -73.5h-174c4 36 6 110.333 6 223v1261h744v-159h-564v-264
c0 -43.333 -1.33301 -94.333 -4 -153h4c33.333 69.333 77.5 119 132.5 149s123.167 45 204.5 45c136.667 0 237.167 -46 301.5 -138s96.5 -231.333 96.5 -418zM864 540c0 151.333 -20.001 259.667 -60.001 325s-105 98 -195 98c-101.333 0 -175.166 -34.667 -221.499 -104
s-69.5 -179.333 -69.5 -330c0 -142 22.667 -246.833 68 -314.5s119 -101.5 221 -101.5c90.667 0 156.167 33.5 196.5 100.5s60.5 175.833 60.5 326.5z" />
    <glyph glyph-name="uni0184" unicode="&#x184;" horiz-adv-x="1344" 
d="M1263 418c0 -82 -19.5 -154.666 -58.5 -217.999s-95 -112.5 -168 -147.5s-159.167 -52.5 -258.5 -52.5h-610v1011l-158 165v33l293 200h56v-586h407c158 0 280.333 -35.833 367 -107.5s130 -170.834 130 -297.501zM1071 416.001c0 80 -27.5 142.5 -82.5 187.5
s-136.833 67.5 -245.5 67.5h-384v-520h392c109.333 0 190 23.5 242 70.5s78 111.833 78 194.5z" />
    <glyph glyph-name="uni0185" unicode="&#x185;" 
d="M10 1266v33l257 185h51v-423c0 -43.333 -1.33301 -94.333 -4 -153h4c33.333 69.333 77.5 119 132.5 149s123.167 45 204.5 45c136.667 0 237.167 -46 301.5 -138s96.5 -231.333 96.5 -418c0 -377.333 -132.667 -566 -398 -566c-82 0 -150.167 14.833 -204.5 44.5
s-98.5 77.5 -132.5 143.5h-2c0 -20.667 -1.33301 -52.167 -4 -94.5s-4.66699 -66.833 -6 -73.5h-174c4 36 6 110.333 6 223v863zM864 540c0 151.333 -20.001 259.667 -60.001 325s-105 98 -195 98c-101.333 0 -175.166 -34.667 -221.499 -104s-69.5 -179.333 -69.5 -330
c0 -142 22.667 -246.833 68 -314.5s119 -101.5 221 -101.5c90.667 0 156.167 33.5 196.5 100.5s60.5 175.833 60.5 326.5z" />
    <glyph glyph-name="uni0186" unicode="&#x186;" horiz-adv-x="1479" 
d="M697 136c155.333 0 275.996 49.668 361.996 149.001s129 237.333 129 414c0 173.333 -44.833 312.333 -134.5 417s-211.167 157 -364.5 157c-194 0 -341.333 -97.667 -442 -293l-156 78c58.667 121.333 139.834 213.666 243.501 276.999s224.834 95 363.501 95
c214.667 0 382.334 -65.333 503.001 -196s181 -309 181 -535c0 -225.333 -60.333 -401.5 -181 -528.5s-288 -190.5 -502 -190.5c-301.333 0 -499.666 116.333 -594.999 349l181 60c30 -80 81 -142.167 153 -186.5s158.333 -66.5 259 -66.5z" />
    <glyph glyph-name="uni0187" unicode="&#x187;" horiz-adv-x="1479" 
d="M792 1274c-156 0 -277.334 -50.168 -364.001 -150.501s-130 -237.833 -130 -412.5c0 -172.667 45.167 -311.5 135.5 -416.5s212.5 -157.5 366.5 -157.5c197.333 0 345.666 97.667 444.999 293l156 -78c-58 -121.333 -139.5 -213.666 -244.5 -276.999
s-226.833 -95 -365.5 -95c-142 0 -264.833 29.5 -368.5 88.5s-182.667 143.333 -237 253s-81.5 239.5 -81.5 389.5c0 224.667 60.667 400.667 182 528s289.333 191 504 191c183.333 0 330 -44.333 440 -133v23c0 92 22.833 164.333 68.5 217s109.167 79 190.5 79
c36 0 76 -5 120 -15v-157c-37.333 12 -66.666 18 -87.999 18c-47.333 0 -81.333 -11.833 -102 -35.5s-31 -61.167 -31 -112.5v-233l-181 -60c-32.667 82 -85.167 144.667 -157.5 188s-158.166 65 -257.499 65z" />
    <glyph glyph-name="uni0188" unicode="&#x188;" horiz-adv-x="1024" 
d="M275 546c0 -144 22.668 -250.667 68.001 -320s113.666 -104 204.999 -104c64 0 117.5 17.333 160.5 52s69.5 88 79.5 160l182 -12c-14 -104 -58.333 -187 -133 -249s-169.334 -93 -284.001 -93c-151.333 0 -266.833 47.833 -346.5 143.5s-119.5 235.167 -119.5 418.5
c0 182 40 320.833 120 416.5s194.667 143.5 344 143.5c100 0 185.333 -24 256 -72c6 80.667 30.833 143 74.5 187s104.834 66 183.501 66c31.333 0 64.333 -4 99 -12v-150c-24 10.667 -50.333 16 -79 16c-44 0 -75.167 -11.833 -93.5 -35.5s-27.5 -61.167 -27.5 -112.5v-210
l-185 -14c-9.33301 60 -33 107.667 -71 143s-92 53 -162 53c-95.333 0 -164.333 -31.667 -207 -95s-64 -170 -64 -320z" />
    <glyph glyph-name="uni0189" unicode="&#x189;" horiz-adv-x="1479" 
d="M14 801l153.999 0.000976562v608h466c238.667 0 422.834 -59.833 552.501 -179.5s194.5 -289.834 194.5 -510.501c0 -145.333 -28.333 -272.5 -85 -381.5s-137 -192.5 -241 -250.5s-224 -87 -360 -87h-527v647h-154v154zM1189 719.001
c0 174.667 -47.832 307.834 -143.499 399.501s-234.167 137.5 -415.5 137.5h-271v-455h406v-154h-406v-494h314c103.333 0 194.166 22.667 272.499 68s138.5 110.666 180.5 195.999s63 186 63 302z" />
    <glyph glyph-name="uni018A" unicode="&#x18a;" horiz-adv-x="1658" 
d="M1559 719c0 -145.333 -28.334 -272.499 -85.001 -381.499s-137 -192.5 -241 -250.5s-224 -87 -360 -87h-527v1261h-29c-51.333 0 -88 -11.333 -110 -34s-33 -57.667 -33 -105c0 -32.667 6 -67.667 18 -105l-155 -17c-11.333 49.333 -17 94.333 -17 135
c0 86.667 28.667 154 86 202s137.333 72 240 72h466c238.667 0 422.834 -59.833 552.501 -179.5s194.5 -289.834 194.5 -510.501zM1367 719.001c0 174.667 -47.832 307.834 -143.499 399.501s-234.167 137.5 -415.5 137.5h-271v-1103h314
c103.333 0 194.166 22.667 272.499 68s138.5 110.666 180.5 195.999s63 186 63 302z" />
    <glyph glyph-name="uni018B" unicode="&#x18b;" horiz-adv-x="1344" 
d="M81 413c0 126.667 43.5 225 130.5 295s209.167 105 366.5 105h407v440h-760v156h951v-1409h-610c-150.667 0 -269.167 37.667 -355.5 113s-129.5 175.333 -129.5 300zM273 411c0 -82.667 26 -146.667 78 -192s132.667 -68 242 -68h392v510h-384
c-109.333 0 -191.333 -21.5 -246 -64.5s-82 -104.833 -82 -185.5z" />
    <glyph glyph-name="uni018C" unicode="&#x18c;" 
d="M82 546c0 186.667 32.167 325.999 96.5 417.999s164.833 138 301.5 138c81.333 0 149.5 -15 204.5 -45s99.167 -79.667 132.5 -149h4c-2.66699 58.667 -4 109.667 -4 153v264h-564v159h744v-1261c0 -112.667 2 -187 6 -223h-174c-1.33301 6 -3.33301 30.333 -6 73
s-4 74.334 -4 95.001h-2c-34 -66 -78.167 -113.833 -132.5 -143.5s-122.5 -44.5 -204.5 -44.5c-265.333 0 -398 188.667 -398 566zM271 539.999c0 -150 20.167 -258.666 60.5 -325.999s105.833 -101 196.5 -101c100.667 0 174 33.667 220 101s69 172.333 69 315
c0 149.333 -23 259 -69 329s-120 105 -222 105c-90 0 -155 -32.833 -195 -98.5s-60 -173.834 -60 -324.501z" />
    <glyph glyph-name="uni018D" unicode="&#x18d;" horiz-adv-x="1140" 
d="M189 -280l519 -0.000976562c-66.667 59.333 -136.667 118 -210 176l-217 175c-70 58.667 -120 126.334 -150 203.001s-45 171 -45 283c0 186 40.5 323.333 121.5 412s202.167 133 363.5 133c167.333 0 289.5 -43.667 366.5 -131s115.5 -225.333 115.5 -414
c0 -351.333 -148 -535.333 -444 -552l356 -298v-132h-776v145zM864 556.999c0 146.667 -21.668 251.999 -65.001 315.999s-118.333 96 -225 96c-107.333 0 -184 -32.667 -230 -98s-69 -170 -69 -314c0 -141.333 22.833 -246.666 68.5 -315.999s118.834 -104 219.501 -104
c75.333 0 133.833 14.167 175.5 42.5s73 73.333 94 135s31.5 142.5 31.5 242.5z" />
    <glyph glyph-name="uni018E" unicode="&#x18e;" horiz-adv-x="1366" 
d="M89 0v156h919v491h-818v154h818v452h-878v156h1069v-1409h-1110z" />
    <glyph glyph-name="uni018F" unicode="&#x18f;" horiz-adv-x="1541" 
d="M772 126c151.333 0 268.833 45.833 352.5 137.5s129.167 221.167 136.5 388.5h-985c11.333 -164.667 60.333 -293.5 147 -386.5s203 -139.5 349 -139.5zM1254 810c-16.667 145.333 -67.668 259 -153.001 341s-194.333 123 -327 123
c-103.333 0 -190.5 -22.167 -261.5 -66.5s-125.5 -106.833 -163.5 -187.5l-182 57c52 112 129.167 198.833 231.5 260.5s227.5 92.5 375.5 92.5c138.667 0 258.667 -29 360 -87s178.833 -141.5 232.5 -250.5s80.5 -236.167 80.5 -381.5c0 -146 -27.333 -274.5 -82 -385.5
s-133 -196.333 -235 -256s-221.333 -89.5 -358 -89.5c-139.333 0 -260.166 29.667 -362.499 89s-180.5 144.5 -234.5 255.5s-81 239.833 -81 386.5c0 24.667 1.66699 57.667 5 99h1155z" />
    <glyph glyph-name="uni0190" unicode="&#x190;" horiz-adv-x="1237" 
d="M608 -20c-102 0 -192.497 17.166 -271.497 51.499s-140.167 83 -183.5 146s-65 134.167 -65 213.5c0 94.667 27.333 171.834 82 231.501s134.667 97.5 240 113.5c-186.667 36.667 -280 141.667 -280 315c0 113.333 43.167 204.666 129.5 273.999s199.5 104 339.5 104
c132.667 0 243.167 -28 331.5 -84s155.833 -141.667 202.5 -257l-178 -61c-33.333 86 -78.833 148.667 -136.5 188s-128.5 59 -212.5 59c-86.667 0 -155.834 -19.333 -207.501 -58s-77.5 -91.667 -77.5 -159c0 -170 118 -255 354 -255h71v-148h-71
c-134.667 0 -234 -19.667 -298 -59s-96 -103.333 -96 -192c0 -85.333 29.833 -151.666 89.5 -198.999s141.167 -71 244.5 -71c175.333 0 302.666 90.667 381.999 272l165 -77c-56.667 -124 -129.334 -213 -218.001 -267s-200.667 -81 -336 -81z" />
    <glyph glyph-name="uni0191" unicode="&#x191;" horiz-adv-x="1251" 
d="M359 1253l0.000976562 -524h786v-158h-786v-701c0 -95.333 -23.833 -168.333 -71.5 -219s-115.167 -76 -202.5 -76c-40.667 0 -88.334 6.66699 -143.001 20l35 156c34 -11.333 63 -17 87 -17c69.333 0 104 52.333 104 157v1518h1001v-156h-810z" />
    <glyph glyph-name="florin" unicode="&#x192;" 
d="M932 1312c-34 10 -70.6699 15.001 -110.003 15.001c-40 0 -70.667 -12.333 -92 -37s-38.333 -68.334 -51 -131.001l-26 -137h211l-25 -131h-213l-254 -1325h-180l254 1325h-152l27 131h151l29 152c20.667 102 55.834 174.167 105.501 216.5s118.834 63.5 207.501 63.5
c52.667 0 102.334 -6.66699 149.001 -20z" />
    <glyph glyph-name="uni0193" unicode="&#x193;" horiz-adv-x="1593" 
d="M1227 1044c-40 80 -95.167 138.334 -165.5 175.001s-157.833 55 -262.5 55c-162.667 0 -287 -49.167 -373 -147.5s-129 -236.833 -129 -415.5c0 -178 45.667 -318.5 137 -421.5s217.666 -154.5 378.999 -154.5c92 0 177.833 14 257.5 42s144.167 66 193.5 114v254h-421
v160h597v-486c-74.667 -76 -166.167 -134.833 -274.5 -176.5s-225.833 -62.5 -352.5 -62.5c-147.333 0 -274.333 29.333 -381 88s-188.167 143.167 -244.5 253.5s-84.5 240.166 -84.5 389.499c0 228.667 61.333 405.667 184 531s295 188 517 188
c192.667 0 341.667 -41 447 -123v30c0 92 22.833 164.333 68.5 217s109.167 79 190.5 79c36 0 76 -5 120 -15v-157c-37.333 12 -66.666 18 -87.999 18c-47.333 0 -81.333 -11.833 -102 -35.5s-31 -61.167 -31 -112.5v-233z" />
    <glyph glyph-name="uni0194" unicode="&#x194;" horiz-adv-x="1278" 
d="M641 -425c-76.667 0 -137.334 23.833 -182.001 71.5s-67 112.167 -67 193.5c0 30 4.5 62.5 13.5 97.5s20.5 70 34.5 105s47.333 103.167 100 204.5l-530 1162h201l429 -1001l427 1001h201l-530 -1162c59.333 -108 99.5 -192 120.5 -252s31.5 -111.667 31.5 -155
c0 -80.667 -22.167 -145 -66.5 -193s-105.166 -72 -182.499 -72zM727 -163c0 38 -8.66699 84.501 -26 139.501s-37.333 106.167 -60 153.5c-22.667 -47.333 -42.667 -98.333 -60 -153s-26 -101.334 -26 -140.001c0 -35.333 7.66699 -62.833 23 -82.5s36.333 -29.5 63 -29.5
s47.667 9.66699 63 29s23 47 23 83z" />
    <glyph glyph-name="uni0195" unicode="&#x195;" horiz-adv-x="1804" 
d="M1256 -20c-132.667 0 -234.335 33.5 -305.002 100.5s-106 160.5 -106 280.5v325c0 102 -19.167 173.667 -57.5 215s-100.166 62 -185.499 62c-84.667 0 -152.5 -29.333 -203.5 -88s-76.5 -137.667 -76.5 -237v-638h-180v1484h180v-386
c0 -40.667 -1.16699 -82.667 -3.5 -126s-3.83301 -68.333 -4.5 -75h3c66 136.667 181.333 205 346 205c122 0 213 -31 273 -93s90 -158 90 -288v-327c0 -104 18.333 -176.167 55 -216.5s95.334 -60.5 176.001 -60.5c81.333 0 140 20.167 176 60.5s54 112.5 54 216.5v688h181
v-717c0 -120 -35.5 -214.167 -106.5 -282.5s-172.833 -102.5 -305.5 -102.5z" />
    <glyph glyph-name="uni0196" unicode="&#x196;" horiz-adv-x="455" 
d="M138 0v1484h180v-1484h-180z" />
    <glyph glyph-name="uni0197" unicode="&#x197;" horiz-adv-x="569" 
d="M196 0v672h-166v141h166v671h180v-671h169v-141h-169v-672h-180z" />
    <glyph glyph-name="uni0198" unicode="&#x198;" horiz-adv-x="1366" 
d="M1106 0l-563 680l-184 -140v-540h-191v1129c0 95.333 25.333 168.5 76 219.5s122.667 76.5 216 76.5c44 0 88 -5 132 -15v-165c-33.333 12 -69 18 -107 18c-84 0 -126 -49.333 -126 -148v-412l679 706h225l-600 -612l680 -797h-237z" />
    <glyph glyph-name="uni0199" unicode="&#x199;" horiz-adv-x="1024" 
d="M793 1082h211l-439 -465l462 -617h-211l-366 494l-132 -109v-385h-180v1202c0 95.333 25.333 168.5 76 219.5s122.667 76.5 216 76.5c44 0 88 -5 132 -15v-165c-33.333 12 -72 18 -116 18c-85.333 0 -128 -49.333 -128 -148v-631z" />
    <glyph glyph-name="uni019A" unicode="&#x19a;" horiz-adv-x="455" 
d="M132 0v672h-112v141h112v671h180v-671h109v-141h-109v-672h-180z" />
    <glyph glyph-name="uni019B" unicode="&#x19b;" horiz-adv-x="1024" 
d="M714 1275l-159 -57.999l451 -1217h-190l-207 577c-27.333 74.667 -49 146 -65 214c-10 -30.667 -22.167 -63.834 -36.5 -99.501s-116.5 -266.167 -306.5 -691.5h-187l449 970l-68 189l-184 -67l-46 118l188 69l-73 205h177l54 -147l157 57z" />
    <glyph glyph-name="uni019C" unicode="&#x19c;" horiz-adv-x="1824" 
d="M1195 -20c-138.667 0 -238.666 55.667 -299.999 167c-80 -111.333 -188 -167 -324 -167c-275.333 0 -413 164 -413 492v937h188v-921c0 -85.333 8 -153.666 24 -204.999s40.5 -88.833 73.5 -112.5s78.833 -35.5 137.5 -35.5c79.333 0 137.5 25.667 174.5 77
s55.5 127.333 55.5 228v969h189v-953c0 -108.667 16.667 -189.334 50 -242.001s89.666 -79 168.999 -79c164.667 0 247 107.667 247 323v951h189v-1178c0 -97.333 3.33301 -174.333 10 -231h-170l-7 146c-33.333 -54 -75 -95.167 -125 -123.5s-106 -42.5 -168 -42.5z" />
    <glyph glyph-name="uni019D" unicode="&#x19d;" horiz-adv-x="1479" 
d="M168 1409l222.001 -0.000976562l762 -1208c-8 130.667 -12 225.334 -12 284.001v924h172v-1409h-230l-754 1200l5 -97l5 -167v-1066c0 -96 -22.5 -169.167 -67.5 -219.5s-110.833 -75.5 -197.5 -75.5c-48 0 -88.333 3.66699 -121 11v162
c29.333 -9.33301 62.666 -14 99.999 -14c76.667 0 115 52.333 115 157z" />
    <glyph glyph-name="uni019E" unicode="&#x19e;" 
d="M825 -426v1112c0 71.333 -7 126.666 -21 165.999s-36.333 67.666 -67 84.999s-75.667 26 -135 26c-86.667 0 -155 -29.667 -205 -89s-75 -141.666 -75 -246.999v-627h-180v851c0 126 -2 203 -6 231h170c0.666992 -3.33301 1.33398 -12.333 2.00098 -27
s1.5 -31.5 2.5 -50.5s2.16699 -54.833 3.5 -107.5h3c41.333 74.667 89.166 127.5 143.499 158.5s121.833 46.5 202.5 46.5c118.667 0 205.5 -29.5 260.5 -88.5s82.5 -156.5 82.5 -292.5v-1147h-181z" />
    <glyph glyph-name="uni019F" unicode="&#x19f;" horiz-adv-x="1593" 
d="M1495 711c0 -147.333 -28.168 -276.333 -84.501 -387s-137.166 -195.667 -242.499 -255s-229.666 -89 -372.999 -89c-144.667 0 -269.5 29.333 -374.5 88s-185.167 143.5 -240.5 254.5s-83 240.5 -83 388.5c0 225.333 61.667 401.5 185 528.5s295 190.5 515 190.5
c143.333 0 267.666 -28.5 372.999 -85.5s185.833 -139.833 241.5 -248.5s83.5 -237 83.5 -385zM794.999 135c154 0 274.167 45 360.5 135s133.833 217.333 142.5 382h-1005c10 -159.333 58.833 -285.333 146.5 -378s206.167 -139 355.5 -139zM796.999 1274
c-144.667 0 -260.166 -40 -346.499 -120s-137.833 -193.667 -154.5 -341h998c-16.667 146 -68.334 259.333 -155.001 340s-200.667 121 -342 121z" />
    <glyph glyph-name="Ohorn" unicode="&#x1a0;" horiz-adv-x="1756" 
d="M1495 711c0 -147.333 -28.1709 -276.331 -84.5039 -386.998s-137.166 -195.667 -242.499 -255s-229.666 -89 -372.999 -89c-144.667 0 -269.5 29.333 -374.5 88s-185.167 143.5 -240.5 254.5s-83 240.5 -83 388.5c0 225.333 61.667 401.5 185 528.5s295 190.5 515 190.5
c162.667 0 299.334 -35.833 410.001 -107.5s190 -172.834 238 -303.501c58.667 29.333 99.5 61.666 122.5 96.999s34.5 77.333 34.5 126h-88v167h195v-106c0 -82 -19.167 -153.5 -57.5 -214.5s-99.166 -111.833 -182.499 -152.5c17.333 -70.667 26 -145.667 26 -225z
M1300 711.002c0 175.333 -43.833 313.002 -131.5 413.002s-211.5 150 -371.5 150c-161.333 0 -286 -49.333 -374 -148s-132 -237 -132 -415c0 -176.667 44.5 -316.834 133.5 -420.501s212.5 -155.5 370.5 -155.5c162.667 0 287.5 50.167 374.5 150.5
s130.5 242.166 130.5 425.499z" />
    <glyph glyph-name="ohorn" unicode="&#x1a1;" horiz-adv-x="1343" 
d="M1053 542c0 -189.333 -41.666 -330.333 -124.999 -423s-204.333 -139 -363 -139c-158 0 -277.333 48.167 -358 144.5s-121 235.5 -121 417.5c0 373.333 161.667 560 485 560c142 0 251.167 -33.333 327.5 -100s124.166 -166.667 143.499 -300
c89.333 43.333 134 116.333 134 219h-88v167h195v-106c0 -86 -20 -161 -60 -225s-97.333 -112 -172 -144zM864.001 542c0 149.333 -22.166 257.835 -66.499 325.502s-118.833 101.5 -223.5 101.5c-105.333 0 -181.5 -34.5 -228.5 -103.5s-70.5 -176.833 -70.5 -323.5
c0 -142.667 23.167 -249.834 69.5 -321.501s119.166 -107.5 218.499 -107.5c108 0 185.167 34.667 231.5 104s69.5 177.666 69.5 324.999z" />
    <glyph glyph-name="uni01A2" unicode="&#x1a2;" horiz-adv-x="1778" 
d="M1206 85c-72.667 -34.667 -140.833 -60.833 -204.5 -78.5s-135.167 -26.5 -214.5 -26.5c-142 0 -265 29.667 -369 89s-183.5 144.333 -238.5 255s-82.5 239.667 -82.5 387c0 146.667 27.667 274.5 83 383.5s135.333 192.167 240 249.5s227.667 86 369 86
c108.667 0 230.667 -23.667 366 -71l414 64h43v-1847h-180v1645l-226 2v-1138zM1026 1228c-66.667 30.667 -145.668 46 -237.001 46c-157.333 0 -279.666 -50 -366.999 -150s-131 -237.667 -131 -413c0 -176 44.167 -316 132.5 -420s209.5 -156 363.5 -156
c92 0 171.667 15.333 239 46v1047z" />
    <glyph glyph-name="uni01A3" unicode="&#x1a3;" horiz-adv-x="1367" 
d="M1045 -425l-0.000976562 1343h-189v-855c-38 -26 -82.5 -46.333 -133.5 -61s-103.5 -22 -157.5 -22c-158 0 -277.333 48.167 -358 144.5s-121 235.5 -121 417.5c0 373.333 161.667 560 485 560c54.667 0 106.834 -7.16699 156.501 -21.5s91.5 -31.833 125.5 -52.5l324 65
h43v-1518h-175zM573.999 969c-105.333 0 -181.499 -34.499 -228.499 -103.499s-70.5 -176.833 -70.5 -323.5c0 -142.667 23.167 -249.834 69.5 -321.501s119.166 -107.5 218.499 -107.5c42.667 0 82.667 7.33301 120 22l-1 814c-34.667 13.333 -70.667 20 -108 20z" />
    <glyph glyph-name="uni01A4" unicode="&#x1a4;" horiz-adv-x="1545" 
d="M932 1409c158 0 280.333 -37 367 -111s130 -178.333 130 -313c0 -133.333 -43.5 -239.333 -130.5 -318s-205.167 -118 -354.5 -118h-414v-549h-191v1261h-22c-51.333 0 -88 -11.333 -110 -34s-33 -57.667 -33 -105c0 -32.667 6 -67.667 18 -105l-155 -17
c-11.333 49.333 -17 94.333 -17 135c0 86.667 28.667 154 86 202s137.333 72 240 72h586zM1237 983c0 182 -109.333 273 -328 273h-379v-556h387c213.333 0 320 94.333 320 283z" />
    <glyph glyph-name="uni01A5" unicode="&#x1a5;" 
d="M1053 546c0 -377.333 -132.667 -566.001 -398 -566.001c-166.667 0 -278.667 62.667 -336 188h-5c2.66699 -5.33301 4 -62 4 -170v-423h-180v1627c0 96.667 24.333 170.167 73 220.5s120.667 75.5 216 75.5c36 0 67 -2.66699 93 -8l37 -8v-166
c-37.333 13.333 -76 20 -116 20c-83.333 0 -125 -49.333 -125 -148v-280h4c32 66.667 74.333 115.5 127 146.5s122 46.5 208 46.5c133.333 0 233 -44.667 299 -134s99 -229.666 99 -420.999zM864 541.999c0 150.667 -20.333 258.332 -61 322.999s-105.334 97 -194.001 97
c-71.333 0 -127.166 -15 -167.499 -45s-71 -76.833 -92 -140.5s-31.5 -146.5 -31.5 -248.5c0 -142 22.667 -246.667 68 -314s119 -101 221 -101c89.333 0 154.5 32.833 195.5 98.5s61.5 175.834 61.5 330.501z" />
    <glyph glyph-name="uni01A6" unicode="&#x1a6;" horiz-adv-x="1366" 
d="M1127 -319l-387 750h-381v-431h-191v1409h187v-154h418c158.667 0 281.167 -35.5 367.5 -106.5s129.5 -169.833 129.5 -296.5c0 -104.667 -30.5 -192.667 -91.5 -264s-145.167 -116.333 -252.5 -135l421 -772h-220zM1078 850c0 82 -27.832 144.5 -83.499 187.5
s-135.834 64.5 -240.501 64.5h-395v-520h403c100.667 0 178.5 23.5 233.5 70.5s82.5 112.833 82.5 197.5z" />
    <glyph glyph-name="uni01A7" unicode="&#x1a7;" horiz-adv-x="1366" 
d="M98 382c0 60 10.334 113.164 31.001 159.497s51 86.666 91 120.999s91.667 64 155 89s147 47.167 251 66.5c106 20 184.667 40.333 236 61s90.333 45.834 117 75.501s40 65.834 40 108.501c0 148.667 -113.333 223 -340 223c-103.333 0 -184.833 -19.833 -244.5 -59.5
s-99.834 -102.5 -120.501 -188.5l-188 33c34 127.333 93.167 219 177.5 275s208.833 84 373.5 84c172 0 303 -32.667 393 -98s135 -158.333 135 -279c0 -51.333 -8.33301 -96.5 -25 -135.5s-40.667 -72.667 -72 -101s-74.166 -53.833 -128.499 -76.5
s-143.5 -47.334 -267.5 -74.001c-126 -27.333 -215.833 -53.166 -269.5 -77.499s-93 -53.666 -118 -87.999s-37.5 -77.166 -37.5 -128.499c0 -162 124.667 -243 374 -243c85.333 0 156.333 11 213 33s102 54.667 136 98s61 107 81 191l185 -37
c-34.667 -150.667 -102 -260.667 -202 -330s-235.333 -104 -406 -104c-184.667 0 -325.834 34.5 -423.501 103.5s-146.5 168.5 -146.5 298.5z" />
    <glyph glyph-name="uni01A8" unicode="&#x1a8;" horiz-adv-x="1024" 
d="M79 299c0 60.667 13.498 111.503 40.498 152.503s64.833 75 113.5 102s124 52.167 226 75.5c101.333 23.333 167.333 42.166 198 56.499s54.167 31.666 70.5 51.999s24.5 45.833 24.5 76.5c0 99.333 -71.333 149 -214 149c-74 0 -132.667 -14.333 -176 -43
s-71.666 -75 -84.999 -139l-162 20c20.667 100.667 66 175.5 136 224.5s166 73.5 288 73.5s217.167 -26 285.5 -78s102.5 -127 102.5 -225c0 -54.667 -12.667 -100.834 -38 -138.501s-61.166 -69.5 -107.499 -95.5s-117.833 -50.333 -214.5 -73
c-108 -26 -178.667 -46.833 -212 -62.5s-58.5 -34.667 -75.5 -57s-25.5 -50.5 -25.5 -84.5c0 -112 81.333 -168 244 -168c165.333 0 267.333 69.333 306 208l159 -31c-50.667 -209.333 -205.667 -314 -465 -314c-129.333 0 -231.5 27.833 -306.5 83.5
s-112.5 134.167 -112.5 235.5z" />
    <glyph glyph-name="uni01A9" unicode="&#x1a9;" horiz-adv-x="1266" 
d="M108 0v162l538 579l-521 507v161h999v-156h-784l458 -445v-124l-490 -528h877v-156h-1077z" />
    <glyph glyph-name="uni01AA" unicode="&#x1aa;" horiz-adv-x="779" 
d="M67 1302c0 60 18.499 106.834 55.499 140.501s86.833 50.5 149.5 50.5c89.333 0 156 -25.333 200 -76s66 -121.667 66 -213v-1328c0 -45.333 9.83301 -80.5 29.5 -105.5s48.834 -37.5 87.501 -37.5c36 0 71.333 4.33301 106 13v-158c-46 -8.66699 -90.667 -13 -134 -13
c-85.333 0 -151.5 25.5 -198.5 76.5s-70.5 124.167 -70.5 219.5v1277c-10 -7.33301 -25.167 -14 -45.5 -20s-39.5 -9 -57.5 -9c-56 0 -101.333 17.167 -136 51.5s-52 78.166 -52 131.499zM143.999 1307c0 -32.667 10 -59 30 -79s46 -30 78 -30c32.667 0 59 10 79 30
s30 46.333 30 79c0 32 -9.83301 58 -29.5 78s-46.167 30 -79.5 30c-32 0 -58 -10 -78 -30s-30 -46 -30 -78z" />
    <glyph glyph-name="uni01AB" unicode="&#x1ab;" horiz-adv-x="569" 
d="M554 -143c0 -188 -84.332 -282 -252.999 -282c-44.667 0 -89.667 5.66699 -135 17v160c37.333 -12 72.666 -18 105.999 -18c40 0 69 11 87 33s27 56.667 27 104v113h-14c-144 0 -216 81.667 -216 245v722h-125v131h132l53 242h120v-242h200v-131h-200v-683
c0 -52 8.5 -88.5 25.5 -109.5s46.5 -31.5 88.5 -31.5c24 0 58.667 4.66699 104 14v-284z" />
    <glyph glyph-name="uni01AC" unicode="&#x1ac;" horiz-adv-x="1251" 
d="M720 1253l-0.000976562 -1253h-190v1253h-213c-51.333 0 -88 -10 -110 -30s-33 -53.667 -33 -101c0 -32.667 6 -67.667 18 -105l-155 -17c-11.333 49.333 -17 94.333 -17 135c0 89.333 25.833 157.333 77.5 204s127.834 70 228.501 70h878v-156h-484z" />
    <glyph glyph-name="uni01AD" unicode="&#x1ad;" horiz-adv-x="569" 
d="M554 8c-59.333 -16 -120 -23.999 -182 -23.999c-144 0 -216 81.667 -216 245v722h-125v131h132v110c0 101.333 23.333 177.666 70 228.999s114.667 77 204 77c44 0 84 -4.66699 120 -14v-168c-37.333 13.333 -71.333 20 -102 20c-42 0 -72.333 -12.167 -91 -36.5
s-28 -61.5 -28 -111.5v-106h200v-131h-200v-683c0 -52 8.5 -88.5 25.5 -109.5s46.5 -31.5 88.5 -31.5c24 0 58.667 4.66699 104 14v-133z" />
    <glyph glyph-name="uni01AE" unicode="&#x1ae;" horiz-adv-x="1251" 
d="M46 1253v156h1158v-156h-484v-1362c0 -54 8 -93.667 24 -119s41.333 -38 76 -38c40 0 76.667 5.33301 110 16v-158c-46.667 -11.333 -90.667 -17 -132 -17c-86 0 -152.167 24.667 -198.5 74s-69.5 119.333 -69.5 210v1394h-484z" />
    <glyph glyph-name="Uhorn" unicode="&#x1af;" horiz-adv-x="1749" 
d="M731 -20c-115.333 0 -216 21.001 -302 63.001s-152.667 103 -200 183s-71 175.333 -71 286v897h191v-881c0 -128.667 32.667 -226.334 98 -293.001s159.666 -100 282.999 -100c126.667 0 225.167 34.5 295.5 103.5s105.5 169.833 105.5 302.5v868h190v-403
c80.667 16.667 140.167 44.334 178.5 83.001s57.5 89.667 57.5 153h-88v167h195v-106c0 -108 -28.167 -195.333 -84.5 -262s-142.5 -108.667 -258.5 -126v-385c0 -114 -24.167 -212.333 -72.5 -295s-116.666 -145.834 -204.999 -189.501s-192.5 -65.5 -312.5 -65.5z" />
    <glyph glyph-name="uhorn" unicode="&#x1b0;" horiz-adv-x="1371" 
d="M314 1082l-0.000976562 -686.002c0 -71.333 7 -126.666 21 -165.999s36.333 -67.666 67 -84.999s75.667 -26 135 -26c86.667 0 155 29.667 205 89s75 141.666 75 246.999v627h180v-414c76.667 23.333 129.834 53.5 159.501 90.5s44.5 89.167 44.5 156.5h-88v167h195v-106
c0 -106 -24 -191.167 -72 -255.5s-127.667 -112.166 -239 -143.499v-346c0 -126 2 -203 6 -231h-170c-0.666992 3.33301 -1.33398 12.333 -2.00098 27s-1.5 31.5 -2.5 50.5s-2.16699 54.833 -3.5 107.5h-3c-41.333 -74.667 -89.166 -127.5 -143.499 -158.5
s-121.833 -46.5 -202.5 -46.5c-118.667 0 -205.5 29.5 -260.5 88.5s-82.5 156.5 -82.5 292.5v721h181z" />
    <glyph glyph-name="uni01B1" unicode="&#x1b1;" horiz-adv-x="1531" 
d="M765 -21c-202 0 -360.833 55.834 -476.5 167.501s-173.5 265.5 -173.5 461.5c0 134 35.833 257.667 107.5 371s177.167 208.333 316.5 285c-102.667 -7.33301 -172 -11 -208 -11h-244v156h589v-224c-119.333 -63.333 -210.166 -142.5 -272.499 -237.5
s-93.5 -203.833 -93.5 -326.5c0 -154.667 39.667 -274.334 119 -359.001s191 -127 335 -127c145.333 0 257.666 42.333 336.999 127s119 204.334 119 359.001c0 122 -31 230.5 -93 325.5s-153 174.5 -273 238.5v224h589v-156h-244c-36 0 -105.333 3.66699 -208 11
c138.667 -75.333 244 -169.833 316 -283.5s108 -237.834 108 -372.501c0 -196 -57.833 -349.833 -173.5 -461.5s-274.5 -167.5 -476.5 -167.5z" />
    <glyph glyph-name="uni01B2" unicode="&#x1b2;" horiz-adv-x="1479" 
d="M703 -20c-110 0 -205.834 21.833 -287.501 65.5s-145 107.334 -190 191.001s-67.5 185.5 -67.5 305.5v867h191v-851c0 -133.333 32.167 -237.166 96.5 -311.499s155.5 -111.5 273.5 -111.5c133.333 0 234.833 67.333 304.5 202s104.5 338.667 104.5 612
c0 112.667 -13 193 -39 241s-69.333 72 -130 72c-38.667 0 -74.667 -3.33301 -108 -10l-7 157c44.667 8 93 12 145 12c107.333 0 189 -37.333 245 -112s84 -184.334 84 -329.001c0 -250 -22.5 -444.833 -67.5 -584.5s-113.167 -243.834 -204.5 -312.501
s-205.666 -103 -342.999 -103z" />
    <glyph glyph-name="uni01B3" unicode="&#x1b3;" horiz-adv-x="1582" 
d="M1281 1421c40 0 82.166 -7.5 126.499 -22.5s86.166 -39.5 125.499 -73.5l-84 -136c-17.333 16 -41.666 31.5 -72.999 46.5s-59.333 22.5 -84 22.5c-24 0 -44.167 -4.83301 -60.5 -14.5s-35.166 -30.5 -56.499 -62.5l-398 -597v-584h-190v584l-542 825h214l428 -671
l340 526c36.667 57.333 75 97.833 115 121.5s86.333 35.5 139 35.5z" />
    <glyph glyph-name="uni01B4" unicode="&#x1b4;" horiz-adv-x="1024" 
d="M191 -425c-49.333 0 -90.667 3.66797 -124 11.001v135c25.333 -4 53.333 -6 84 -6c112 0 200.667 82.333 266 247l17 43l-429 1077h192l228 -598l12 -33.5l45 -130.5c25.333 -74 39 -115.333 41 -124l70 197l298 856c21.333 59.333 44.833 106.666 70.5 141.999
s55 61 88 77s76.5 24 130.5 24c86.667 0 166 -31 238 -93l-82 -128c-45.333 41.333 -92 62 -140 62c-64.667 0 -114 -45.667 -148 -137l-444 -1196c-62 -159.333 -124.167 -270 -186.5 -332s-137.833 -93 -226.5 -93z" />
    <glyph glyph-name="uni01B5" unicode="&#x1b5;" horiz-adv-x="1251" 
d="M62 814h522l339 439h-785v156h1002v-139l-351 -456h399v-133h-502l-404 -525h905v-156h-1122v143l416 538h-419v133z" />
    <glyph glyph-name="uni01B6" unicode="&#x1b6;" horiz-adv-x="1024" 
d="M47 617h395l268 326h-621v139h824v-137l-270 -328h308v-133h-417l-283 -345h699v-139h-901v137l284 347h-286v133z" />
    <glyph glyph-name="uni01B7" unicode="&#x1b7;" horiz-adv-x="1251" 
d="M418 759l499.997 494.002h-805v156h1018v-161l-505 -490c180 -12 317.5 -67.833 412.5 -167.5s142.5 -239.5 142.5 -419.5c0 -116 -23.833 -219.5 -71.5 -310.5s-115.167 -161.5 -202.5 -211.5s-185.333 -75 -294 -75c-138.667 0 -254.167 27.667 -346.5 83
s-166.166 143.666 -221.499 264.999l162 72c78.667 -180.667 211.667 -271 399 -271c120.667 0 215.334 39.167 284.001 117.5s103 188.5 103 330.5c0 143.333 -43.167 253.666 -129.5 330.999s-211.166 116 -374.499 116h-71v141z" />
    <glyph glyph-name="uni01B8" unicode="&#x1b8;" horiz-adv-x="1251" 
d="M833 618l-70.999 0.000976562c-162.667 0 -287.334 -38.5 -374.001 -115.5s-130 -187.5 -130 -331.5c0 -92.667 16.5 -172.5 49.5 -239.5s78.667 -118.5 137 -154.5s125.166 -54 200.499 -54c187.333 0 320.333 90.333 399 271l162 -72
c-55.333 -121.333 -129.333 -209.666 -222 -264.999s-208 -83 -346 -83c-171.333 0 -308.833 53.5 -412.5 160.5s-155.5 252.5 -155.5 436.5c0 167.333 48.833 302.166 146.5 404.499s233.834 163.166 408.501 182.499l-505 490v161h1018v-156h-805l500 -494v-141z" />
    <glyph glyph-name="uni01B9" unicode="&#x1b9;" horiz-adv-x="1116" 
d="M1012 942l-693.001 -0.000976562l383 -387v-144h-82c-104 0 -187.667 -30.667 -251 -92s-95 -142.666 -95 -243.999c0 -61.333 13.5 -120.5 40.5 -177.5s63.333 -101.833 109 -134.5s95.5 -49 149.5 -49c92.667 0 164.334 20 215.001 60s82 103.333 94 190l178 -12
c-15.333 -124.667 -65.5 -219 -150.5 -283s-199.167 -96 -342.5 -96c-94 0 -177 21.5 -249 64.5s-127.5 102.5 -166.5 178.5s-58.5 160.333 -58.5 253c0 128.667 36 235.167 108 319.5s171 134.833 297 151.5l-369 365v178h883v-141z" />
    <glyph glyph-name="uni01BA" unicode="&#x1ba;" horiz-adv-x="1116" 
d="M1055 -101c-26.667 -103.333 -84.8379 -183.334 -174.505 -240.001s-204.5 -85 -344.5 -85c-92 0 -173.833 12.667 -245.5 38s-125 60.833 -160 106.5s-52.5 99.167 -52.5 160.5c0 52.667 14.167 97.334 42.5 134.001s67.333 68 117 94s130.834 53.333 243.501 82
c114 28 190 55.5 228 82.5s57 59.833 57 98.5c0 49.333 -32.5 84.166 -97.5 104.499s-161.833 30.5 -290.5 30.5v139l356 298h-626v140h868v-119l-396 -322c118.667 -8.66699 208.334 -36.167 269.001 -82.5s91 -109.166 91 -188.499c0 -54.667 -13.167 -100 -39.5 -136
s-62.5 -66 -108.5 -90s-127.667 -50.333 -245 -79c-91.333 -22.667 -153.166 -41.667 -185.499 -57s-57.166 -33.833 -74.499 -55.5s-26 -48.5 -26 -80.5c0 -48.667 23.333 -86.667 70 -114s115.334 -41 206.001 -41c182.667 0 296 67 340 201z" />
    <glyph glyph-name="uni01BB" unicode="&#x1bb;" 
d="M90 750l592.003 -0.00292969c49.333 46 86.166 92.333 110.499 139s36.5 96.334 36.5 149.001c0 77.333 -22.667 137.333 -68 180s-108.333 64 -189 64c-76.667 0 -139.834 -20.833 -189.501 -62.5s-78.834 -100.167 -87.501 -175.5l-184 17
c13.333 112.667 61.166 202.334 143.499 269.001s188.166 100 317.499 100c142 0 251.167 -33.5 327.5 -100.5s114.5 -162.167 114.5 -285.5c0 -97.333 -41 -195.333 -123 -294h141v-136h-276c-43.333 -38.667 -88.166 -76.667 -134.499 -114s-90.333 -74.666 -132 -111.999
s-79.167 -75.333 -112.5 -114s-58.666 -79 -75.999 -121h735v-153h-933v127c24.667 58 55 112 91 162s76.167 97.667 120.5 143s113.5 106 207.5 182h-432v136z" />
    <glyph glyph-name="uni01BC" unicode="&#x1bc;" 
d="M1062 479c0 -157.333 -44.165 -279.833 -132.498 -367.5s-210.833 -131.5 -367.5 -131.5c-127.333 0 -232.333 32.333 -315 97s-135.334 154 -158.001 268l179 21c23.333 -84 59.833 -145.5 109.5 -184.5s112.167 -58.5 187.5 -58.5c98.667 0 175 30 229 90
s81 147.333 81 262c0 106.667 -28.833 186.667 -86.5 240s-140.834 80 -249.501 80h-229v458h-172v156h842v-156h-486v-303h78c154 0 274.167 -42 360.5 -126s129.5 -199 129.5 -345z" />
    <glyph glyph-name="uni01BD" unicode="&#x1bd;" horiz-adv-x="939" 
d="M682 341c0 139.333 -97.666 208.999 -292.999 208.999h-167v392h-172v140h780v-140h-446v-254h54c135.333 0 240 -30.5 314 -91.5s111 -145.5 111 -253.5c0 -115.333 -34.833 -204.666 -104.5 -267.999s-167.167 -95 -292.5 -95c-118 0 -211.833 26.833 -281.5 80.5
s-115.834 137.167 -138.501 250.5l174 12c8.66699 -62 34.5 -112.5 77.5 -151.5s95.167 -58.5 156.5 -58.5c152 0 228 76 228 228z" />
    <glyph glyph-name="uni01BE" unicode="&#x1be;" horiz-adv-x="997" 
d="M347 951l0.000976562 -107.001c0 -56 5.5 -95.333 16.5 -118s30.167 -41.5 57.5 -56.5s66.333 -28.5 117 -40.5c87.333 -22.667 148 -41 182 -55s63 -29.333 87 -46s44.333 -36.167 61 -58.5s29.5 -47.166 38.5 -74.499s13.5 -59.333 13.5 -96
c0 -101.333 -33.333 -179.833 -100 -235.5s-169.667 -83.5 -309 -83.5c-134.667 0 -238.5 22.167 -311.5 66.5s-120.5 113.5 -142.5 207.5l159 31c15.333 -58 47 -100.5 95 -127.5s114.667 -40.5 200 -40.5s145.666 13.333 180.999 40s53 69.334 53 128.001
c0 32.667 -6 59.5 -18 80.5s-30 38.5 -54 52.5s-53.833 26.167 -89.5 36.5l-123.5 34.5c-110 28.667 -186.333 69.167 -229 121.5s-64 124.166 -64 215.499v125h-131v131h132v347l179 78v-425h185v-131h-185z" />
    <glyph glyph-name="uni01BF" unicode="&#x1bf;" 
d="M1051 624c0 -109.333 -24.833 -209.33 -74.5 -299.997s-126.167 -171.834 -229.5 -243.501s-246.333 -140.834 -429 -207.501v-299h-180v1508h168c6.66699 -70 10 -128 10 -174h4c29.333 64.667 71.833 113 127.5 145s120.834 48 195.501 48
c131.333 0 232.166 -40.833 302.499 -122.5s105.5 -199.834 105.5 -354.501zM861 624.003c0 225.333 -85.333 338.001 -256 338.001c-95.333 0 -167 -34.167 -215 -102.5s-72 -173.166 -72 -314.499v-525c133.333 50 238.5 104.667 315.5 164s134.167 125.166 171.5 197.499
s56 153.166 56 242.499z" />
    <glyph glyph-name="uni01C0" unicode="&#x1c0;" horiz-adv-x="532" 
d="M176 0v1484h180v-1484h-180z" />
    <glyph glyph-name="uni01C1" unicode="&#x1c1;" horiz-adv-x="846" 
d="M179 0v1484h165v-1484h-165zM502 0v1484h165v-1484h-165z" />
    <glyph glyph-name="uni01C2" unicode="&#x1c2;" horiz-adv-x="1196" 
d="M114 1030h396v454h174v-454h398v-153h-398v-308h398v-153h-398v-416h-174v416h-396v153h396v308h-396v153z" />
    <glyph glyph-name="uni01C3" unicode="&#x1c3;" horiz-adv-x="569" 
d="M359 397h-148l-24 1012h196zM185 0v201h194v-201h-194z" />
    <glyph glyph-name="uni01C4" unicode="&#x1c4;" horiz-adv-x="2730" 
d="M1381 719c0 -145.333 -28.334 -272.499 -85.001 -381.499s-137 -192.5 -241 -250.5s-224 -87 -360 -87h-527v1409h466c238.667 0 422.834 -59.833 552.501 -179.5s194.5 -289.834 194.5 -510.501zM1189 719.001c0 174.667 -47.832 307.834 -143.499 399.501
s-234.167 137.5 -415.5 137.5h-271v-1103h314c103.333 0 194.166 22.667 272.499 68s138.5 110.666 180.5 195.999s63 186 63 302zM2666 0.000976562h-1122v143l858 1110h-785v156h1002v-139l-858 -1114h905v-156zM2217 1557h-204l-234 270v20h104l232 -169h2l219 169h105
v-20z" />
    <glyph glyph-name="uni01C5" unicode="&#x1c5;" horiz-adv-x="2503" 
d="M1381 719c0 -145.333 -28.334 -272.499 -85.001 -381.499s-137 -192.5 -241 -250.5s-224 -87 -360 -87h-527v1409h466c238.667 0 422.834 -59.833 552.501 -179.5s194.5 -289.834 194.5 -510.501zM1189 719.001c0 174.667 -47.832 307.834 -143.499 399.501
s-234.167 137.5 -415.5 137.5h-271v-1103h314c103.333 0 194.166 22.667 272.499 68s138.5 110.666 180.5 195.999s63 186 63 302zM1562 0.000976562v137l605 806h-571v139h784v-137l-606 -806h627v-139h-839zM2046 1201h-204l-234 270v20h104l232 -169h2l219 169h105v-20z
" />
    <glyph glyph-name="uni01C6" unicode="&#x1c6;" horiz-adv-x="2148" 
d="M821 174c-33.333 -69.333 -77.5 -119.001 -132.5 -149.001s-123.167 -45 -204.5 -45c-136.667 0 -237.167 46 -301.5 138s-96.5 231.333 -96.5 418c0 377.333 132.667 566 398 566c82 0 150.333 -15 205 -45s98.667 -77.667 132 -143h2l-2 121v449h180v-1261
c0 -112.667 2 -187 6 -223h-172c-2 10.667 -4.16699 35.334 -6.5 74.001s-3.5 72 -3.5 100h-4zM275 541.999c0 -151.333 20 -259.668 60 -325.001s105 -98 195 -98c102 0 176 35.333 222 106s69 180.334 69 329.001c0 143.333 -23 248.333 -69 315s-119.333 100 -220 100
c-90.667 0 -156.167 -33.5 -196.5 -100.5s-60.5 -175.833 -60.5 -326.5zM1207 -0.00292969v137l605 806h-571v139h784v-137l-606 -806h627v-139h-839zM1691 1201h-204l-234 270v20h104l232 -169h2l219 169h105v-20z" />
    <glyph glyph-name="uni01C7" unicode="&#x1c7;" horiz-adv-x="2175" 
d="M168 0v1409h191v-1253h712v-156h-903zM1608 -20c-238.667 0 -380.333 123.332 -425 369.999l187 31c12 -77.333 39 -137.666 81 -180.999s94.667 -65 158 -65c69.333 0 124 23.833 164 71.5s60 117.5 60 209.5v837h-271v156h461v-989
c0 -136.667 -37 -244.167 -111 -322.5s-175.333 -117.5 -304 -117.5z" />
    <glyph glyph-name="uni01C8" unicode="&#x1c8;" horiz-adv-x="1706" 
d="M168 0v1409h191v-1253h712v-156h-903zM1388 1312v172h180v-172h-180zM1568 -134c0 -102 -20.001 -176 -60.001 -222s-100 -69 -180 -69c-51.333 0 -93.666 3 -126.999 9v139l62 -6c46 0 78.333 12 97 36s28 70.667 28 140v1189h180v-1216z" />
    <glyph glyph-name="uni01C9" unicode="&#x1c9;" horiz-adv-x="924" 
d="M138 0v1484h180v-1484h-180zM606 1312v172h180v-172h-180zM786 -134c0 -102 -20.001 -176 -60.001 -222s-100 -69 -180 -69c-51.333 0 -93.666 3 -126.999 9v139l62 -6c46 0 78.333 12 97 36s28 70.667 28 140v1189h180v-1216z" />
    <glyph glyph-name="uni01CA" unicode="&#x1ca;" horiz-adv-x="2503" 
d="M1082 0l-754 1200l5 -97l5 -167v-936h-170v1409h222l762 -1208c-8 130.667 -12 225.334 -12 284.001v924h172v-1409h-230zM1936 -20.001c-238.667 0 -380.333 123.332 -425 369.999l187 31c12 -77.333 39 -137.666 81 -180.999s94.667 -65 158 -65
c69.333 0 124 23.833 164 71.5s60 117.5 60 209.5v837h-271v156h461v-989c0 -136.667 -37 -244.167 -111 -322.5s-175.333 -117.5 -304 -117.5z" />
    <glyph glyph-name="uni01CB" unicode="&#x1cb;" horiz-adv-x="1934" 
d="M1082 0l-754 1200l5 -97l5 -167v-936h-170v1409h222l762 -1208c-8 130.667 -12 225.334 -12 284.001v924h172v-1409h-230zM1616 1312v172h180v-172h-180zM1796 -134.001c0 -102 -20.001 -176 -60.001 -222s-100 -69 -180 -69c-51.333 0 -93.666 3 -126.999 9v139l62 -6
c46 0 78.333 12 97 36s28 70.667 28 140v1189h180v-1216z" />
    <glyph glyph-name="uni01CC" unicode="&#x1cc;" horiz-adv-x="1579" 
d="M825 0v686.001c0 71.333 -7 126.666 -21 165.999s-36.333 67.666 -67 84.999s-75.667 26 -135 26c-86.667 0 -155 -29.667 -205 -89s-75 -141.666 -75 -246.999v-627h-180v851c0 126 -2 203 -6 231h170c0.666992 -3.33301 1.33398 -12.333 2.00098 -27
s1.5 -31.5 2.5 -50.5s2.16699 -54.833 3.5 -107.5h3c41.333 74.667 89.166 127.5 143.499 158.5s121.833 46.5 202.5 46.5c118.667 0 205.5 -29.5 260.5 -88.5s82.5 -156.5 82.5 -292.5v-721h-181zM1261 1312v172h180v-172h-180zM1441 -133.999
c0 -102 -20.001 -176 -60.001 -222s-100 -69 -180 -69c-51.333 0 -93.666 3 -126.999 9v139l62 -6c46 0 78.333 12 97 36s28 70.667 28 140v1189h180v-1216z" />
    <glyph glyph-name="uni01CD" unicode="&#x1cd;" horiz-adv-x="1366" 
d="M1167 0l-161 412h-642l-162 -412h-198l575 1409h217l566 -1409h-195zM685 1265l-8.99805 -28c-16.667 -55.333 -41.334 -126.333 -74.001 -213l-180 -463h527l-181 465c-18.667 46 -37.334 98 -56.001 156zM793.002 1530h-204l-234 239v21h104l232 -139h2l219 139h105
v-21z" />
    <glyph glyph-name="uni01CE" unicode="&#x1ce;" 
d="M414 -20c-108.667 0 -190.334 28.667 -245.001 86s-82 136 -82 236c0 112 36.833 198 110.5 258s192.5 92 356.5 96l243 4v59c0 88 -18.667 151 -56 189s-96 57 -176 57c-80.667 0 -139.334 -13.667 -176.001 -41s-58.667 -71 -66 -131l-188 17
c30.667 194.667 175.334 292 434.001 292c136 0 238.333 -31.167 307 -93.5s103 -152.5 103 -270.5v-466c0 -53.333 7 -93.5 21 -120.5s40.667 -40.5 80 -40.5c17.333 0 37 2.33301 59 7v-112c-45.333 -10.667 -91.666 -16 -138.999 -16
c-66.667 0 -115.167 17.5 -145.5 52.5s-47.5 89.833 -51.5 164.5h-6c-46 -82.667 -99.5 -141.167 -160.5 -175.5s-135.167 -51.5 -222.5 -51.5zM455 115c66 0 124.667 15.001 176 45.001s91.833 71.167 121.5 123.5s44.5 106.166 44.5 161.499v89l-197 -4
c-84.667 -1.33301 -148.834 -10 -192.501 -26s-77.167 -40.667 -100.5 -74s-35 -77 -35 -131c0 -58.667 15.833 -104 47.5 -136s76.834 -48 135.501 -48zM683 1201h-204l-234 270v20h104l232 -169h2l219 169h105v-20z" />
    <glyph glyph-name="uni01CF" unicode="&#x1cf;" horiz-adv-x="569" 
d="M189 0v1409h191v-1409h-191zM396 1530h-204l-234 239v21h104l232 -139h2l219 139h105v-21z" />
    <glyph glyph-name="uni01D0" unicode="&#x1d0;" horiz-adv-x="455" 
d="M136 0v1062h180v-1062h-180zM319 1201h-204l-234 270v20h104l232 -169h2l219 169h105v-20z" />
    <glyph glyph-name="uni01D1" unicode="&#x1d1;" horiz-adv-x="1593" 
d="M1495 711c0 -147.333 -28.168 -276.333 -84.501 -387s-137.166 -195.667 -242.499 -255s-229.666 -89 -372.999 -89c-144.667 0 -269.5 29.333 -374.5 88s-185.167 143.5 -240.5 254.5s-83 240.5 -83 388.5c0 225.333 61.667 401.5 185 528.5s295 190.5 515 190.5
c143.333 0 267.666 -28.5 372.999 -85.5s185.833 -139.833 241.5 -248.5s83.5 -237 83.5 -385zM1300 711c0 175.333 -43.833 313.002 -131.5 413.002s-211.5 150 -371.5 150c-161.333 0 -286 -49.333 -374 -148s-132 -237 -132 -415
c0 -176.667 44.5 -316.834 133.5 -420.501s212.5 -155.5 370.5 -155.5c162.667 0 287.5 50.167 374.5 150.5s130.5 242.166 130.5 425.499zM894.999 1530h-204l-234 239v21h104l232 -139h2l219 139h105v-21z" />
    <glyph glyph-name="uni01D2" unicode="&#x1d2;" 
d="M1053 542c0 -189.333 -41.667 -330.333 -125 -423s-204.333 -139 -363 -139c-158 0 -277.333 48.167 -358 144.5s-121 235.5 -121 417.5c0 373.333 161.667 560 485 560c165.333 0 287 -45.5 365 -136.5s117 -232.167 117 -423.5zM864 542
c0 149.333 -22.166 257.835 -66.499 325.502s-118.833 101.5 -223.5 101.5c-105.333 0 -181.5 -34.5 -228.5 -103.5s-70.5 -176.833 -70.5 -323.5c0 -142.667 23.167 -249.834 69.5 -321.501s119.166 -107.5 218.499 -107.5c108 0 185.167 34.667 231.5 104
s69.5 177.666 69.5 324.999zM682.001 1201h-204l-234 270v20h104l232 -169h2l219 169h105v-20z" />
    <glyph glyph-name="uni01D3" unicode="&#x1d3;" horiz-adv-x="1479" 
d="M731 -20c-115.333 0 -216 21.002 -302 63.002s-152.667 103 -200 183s-71 175.333 -71 286v897h191v-881c0 -128.667 32.667 -226.334 98 -293.001s159.666 -100 282.999 -100c126.667 0 225.167 34.5 295.5 103.5s105.5 169.833 105.5 302.5v868h190v-879
c0 -114 -24.167 -212.333 -72.5 -295s-116.666 -145.834 -204.999 -189.501s-192.5 -65.5 -312.5 -65.5zM840 1530h-204l-234 239v21h104l232 -139h2l219 139h105v-21z" />
    <glyph glyph-name="uni01D4" unicode="&#x1d4;" 
d="M314 1082v-686.001c0 -71.333 7 -126.666 21 -165.999s36.333 -67.666 67 -84.999s75.667 -26 135 -26c86.667 0 155 29.667 205 89s75 141.666 75 246.999v627h180v-851c0 -126 2 -203 6 -231h-170c-0.666992 3.33301 -1.33398 12.333 -2.00098 27s-1.5 31.5 -2.5 50.5
s-2.16699 54.833 -3.5 107.5h-3c-41.333 -74.667 -89.166 -127.5 -143.499 -158.5s-121.833 -46.5 -202.5 -46.5c-118.667 0 -205.5 29.5 -260.5 88.5s-82.5 156.5 -82.5 292.5v721h181zM661 1201h-204l-234 270v20h104l232 -169h2l219 169h105v-20z" />
    <glyph glyph-name="uni01D5" unicode="&#x1d5;" horiz-adv-x="1479" 
d="M731 -20c-115.333 0 -216 21.002 -302 63.002s-152.667 103 -200 183s-71 175.333 -71 286v897h191v-881c0 -128.667 32.667 -226.334 98 -293.001s159.666 -100 282.999 -100c126.667 0 225.167 34.5 295.5 103.5s105.5 169.833 105.5 302.5v868h190v-879
c0 -114 -24.167 -212.333 -72.5 -295s-116.666 -145.834 -204.999 -189.501s-192.5 -65.5 -312.5 -65.5zM886 1458v184h163v-184h-163zM452 1458v184h163v-184h-163zM1025 1708h-549v127h549v-127z" />
    <glyph glyph-name="uni01D6" unicode="&#x1d6;" 
d="M314 1082v-686.001c0 -71.333 7 -126.666 21 -165.999s36.333 -67.666 67 -84.999s75.667 -26 135 -26c86.667 0 155 29.667 205 89s75 141.666 75 246.999v627h180v-851c0 -126 2 -203 6 -231h-170c-0.666992 3.33301 -1.33398 12.333 -2.00098 27s-1.5 31.5 -2.5 50.5
s-2.16699 54.833 -3.5 107.5h-3c-41.333 -74.667 -89.166 -127.5 -143.499 -158.5s-121.833 -46.5 -202.5 -46.5c-118.667 0 -205.5 29.5 -260.5 88.5s-82.5 156.5 -82.5 292.5v721h181zM684 1219v184h163v-184h-163zM290 1219v184h165v-184h-165zM845 1516h-549v127h549
v-127z" />
    <glyph glyph-name="uni01D7" unicode="&#x1d7;" horiz-adv-x="1479" 
d="M731 -20c-115.333 0 -216 21.002 -302 63.002s-152.667 103 -200 183s-71 175.333 -71 286v897h191v-881c0 -128.667 32.667 -226.334 98 -293.001s159.666 -100 282.999 -100c126.667 0 225.167 34.5 295.5 103.5s105.5 169.833 105.5 302.5v868h190v-879
c0 -114 -24.167 -212.333 -72.5 -295s-116.666 -145.834 -204.999 -189.501s-192.5 -65.5 -312.5 -65.5zM812 1835h226v-12l-261 -171h-130v10zM886 1448v184h163v-184h-163zM452 1448v184h163v-184h-163z" />
    <glyph glyph-name="uni01D8" unicode="&#x1d8;" 
d="M314 1082v-686.001c0 -71.333 7 -126.666 21 -165.999s36.333 -67.666 67 -84.999s75.667 -26 135 -26c86.667 0 155 29.667 205 89s75 141.666 75 246.999v627h180v-851c0 -126 2 -203 6 -231h-170c-0.666992 3.33301 -1.33398 12.333 -2.00098 27s-1.5 31.5 -2.5 50.5
s-2.16699 54.833 -3.5 107.5h-3c-41.333 -74.667 -89.166 -127.5 -143.499 -158.5s-121.833 -46.5 -202.5 -46.5c-118.667 0 -205.5 29.5 -260.5 88.5s-82.5 156.5 -82.5 292.5v721h181zM684 1219v184h163v-184h-163zM290 1219v184h165v-184h-165zM496 1481v20l217 287h207
v-29l-330 -278h-94z" />
    <glyph glyph-name="uni01D9" unicode="&#x1d9;" horiz-adv-x="1479" 
d="M731 -20c-115.333 0 -216 21.002 -302 63.002s-152.667 103 -200 183s-71 175.333 -71 286v897h191v-881c0 -128.667 32.667 -226.334 98 -293.001s159.666 -100 282.999 -100c126.667 0 225.167 34.5 295.5 103.5s105.5 169.833 105.5 302.5v868h190v-879
c0 -114 -24.167 -212.333 -72.5 -295s-116.666 -145.834 -204.999 -189.501s-192.5 -65.5 -312.5 -65.5zM902 1835h155v-10l-208 -173h-195l-209 171v12h155l151 -97zM886 1448v184h163v-184h-163zM452 1448v184h163v-184h-163z" />
    <glyph glyph-name="uni01DA" unicode="&#x1da;" 
d="M314 1082v-686.001c0 -71.333 7 -126.666 21 -165.999s36.333 -67.666 67 -84.999s75.667 -26 135 -26c86.667 0 155 29.667 205 89s75 141.666 75 246.999v627h180v-851c0 -126 2 -203 6 -231h-170c-0.666992 3.33301 -1.33398 12.333 -2.00098 27s-1.5 31.5 -2.5 50.5
s-2.16699 54.833 -3.5 107.5h-3c-41.333 -74.667 -89.166 -127.5 -143.499 -158.5s-121.833 -46.5 -202.5 -46.5c-118.667 0 -205.5 29.5 -260.5 88.5s-82.5 156.5 -82.5 292.5v721h181zM684 1219v184h163v-184h-163zM290 1219v184h165v-184h-165zM671 1481h-204l-234 270
v20h104l232 -169h2l219 169h105v-20z" />
    <glyph glyph-name="uni01DB" unicode="&#x1db;" horiz-adv-x="1479" 
d="M731 -20c-115.333 0 -216 21.002 -302 63.002s-152.667 103 -200 183s-71 175.333 -71 286v897h191v-881c0 -128.667 32.667 -226.334 98 -293.001s159.666 -100 282.999 -100c126.667 0 225.167 34.5 295.5 103.5s105.5 169.833 105.5 302.5v868h190v-879
c0 -114 -24.167 -212.333 -72.5 -295s-116.666 -145.834 -204.999 -189.501s-192.5 -65.5 -312.5 -65.5zM854 1662v-10h-130l-261 171v12h226zM452 1448v184h163v-184h-163zM886 1448v184h163v-184h-163z" />
    </font>
</defs>
</svg>
