<?xml version="1.0" standalone="no"?>
<!DOCTYPE svg PUBLIC "-//W3C//DTD SVG 1.1//EN" "http://www.w3.org/Graphics/SVG/1.1/DTD/svg11.dtd" >
<svg>
<metadata>
Created by FontForge 20090914 at Wed Nov 21 09:11:19 2012
 By www-data
Digitized data copyright (c) 2010 Google Corporation.
Copyright (c) 2012 Red Hat, Inc.
</metadata>
<defs>
<font id="LiberationSerif-Italic" horiz-adv-x="0" >
  <font-face 
    font-family="Liberation Serif"
    font-weight="400"
    font-style="italic"
    font-stretch="normal"
    units-per-em="2048"
    panose-1="2 2 5 3 5 4 5 9 3 4"
    ascent="1638"
    descent="-410"
    x-height="939.999"
    cap-height="1341"
    bbox="-1114 -621 2635 2009"
    underline-thickness="100"
    underline-position="-173"
    slope="-16.333"
    unicode-range="U+0020-U+FFFC"
  />
<missing-glyph horiz-adv-x="1593" 
 />
    <glyph glyph-name=".notdef" horiz-adv-x="1593" 
 />
    <glyph glyph-name="space" unicode=" " horiz-adv-x="512" 
 />
    <glyph glyph-name="exclam" unicode="!" horiz-adv-x="682" 
d="M400 92c0 -32.667 -11.5 -61 -34.5 -85s-51.833 -36 -86.5 -36s-63.5 12 -86.5 36s-34.5 52.333 -34.5 85c0 34 11.667 62.667 35 86s52 35 86 35s62.667 -11.667 86 -35s35 -52 35 -86zM374 1341h218l-229 -952h-94z" />
    <glyph glyph-name="quotedbl" unicode="&#x22;" horiz-adv-x="860" 
d="M670 1341h197l-147 -481h-74zM285 1341h197l-147 -481h-74z" />
    <glyph glyph-name="numbersign" unicode="#" horiz-adv-x="1024" 
d="M984 524l-18 -103h-260l-153 -421h-104l153 421h-310l-152 -421h-105l153 421h-171l17 103h192l112 307h-250l18 103h268l148 407h104l-147 -407h309l148 407h104l-148 -407h164l-18 -103h-182l-111 -307h239zM331 524h309l111 307h-309z" />
    <glyph glyph-name="dollar" unicode="$" horiz-adv-x="1024" 
d="M76 371l64.999 -0.00390625l1 -191c24.667 -35.333 60.667 -63.666 108 -84.999s98.666 -32.666 153.999 -33.999l102 577c-89.333 44.667 -152.166 82.334 -188.499 113.001s-65 65.167 -86 103.5s-31.5 83.5 -31.5 135.5c0 115.333 36.667 204 110 266
s180.666 95 321.999 99l23 128h82l-23 -128c95.333 -2 187.666 -14.333 276.999 -37l-49 -279h-65l-5 171c-41.333 33.333 -99 53.333 -173 60l-85 -483c96.667 -52 163.834 -94.333 201.501 -127s67.834 -69 90.501 -109s34 -85.667 34 -137
c0 -130 -39.167 -232.167 -117.5 -306.5s-195.166 -116.166 -350.499 -125.499l-24 -138h-82l24 136c-150 2.66699 -272 33.667 -366 93zM761.999 378.996c0 32.667 -5.99902 61.5 -17.999 86.5s-29.833 47.667 -53.5 68s-59.834 42.833 -108.501 67.5l-95 -535
c90 11.333 158.333 43.833 205 97.5s70 125.5 70 215.5zM375 1025c0 -40.667 12.5 -76.832 37.5 -108.499s66.833 -62.834 125.5 -93.501l79 447c-77.333 -6 -137 -30.167 -179 -72.5s-63 -99.833 -63 -172.5z" />
    <glyph glyph-name="percent" unicode="%" horiz-adv-x="1706" 
d="M318 -20h-110l1192 1382h111zM383 623c-177.333 0 -265.999 87.332 -265.999 261.999c0 85.333 15.833 166.833 47.5 244.5s76.667 135.834 135 174.501s131.5 58 219.5 58c180 0 270 -86.333 270 -259c0 -31.333 -3.66699 -67.333 -11 -108
c-44.667 -248 -176.334 -372 -395.001 -372zM635.001 1124c0 53.333 -10.333 93.998 -31 121.998s-55.334 42 -104.001 42c-52 0 -94.333 -17.833 -127 -53.5s-58.5 -93.5 -77.5 -173.5s-28.5 -149 -28.5 -207c0 -50.667 9.66699 -89.667 29 -117s52.333 -41 99 -41
c51.333 0 94.333 17.833 129 53.5s61.834 91.334 81.501 167.001s29.5 144.834 29.5 207.501zM1184 -27.0029c-178 0 -267.001 87 -267.001 261c0 30.667 3.66699 68 11 112c43.333 244.667 174 367 392 367c179.333 0 269 -86.667 269 -260
c0 -84 -16.167 -165.333 -48.5 -244s-77.666 -137.667 -135.999 -177s-131.833 -59 -220.5 -59zM1437 472.997c0 54 -10.5 95.166 -31.5 123.499s-55.833 42.5 -104.5 42.5c-52 0 -94.333 -17.667 -127 -53s-58.334 -93.5 -77.001 -174.5s-28 -149.833 -28 -206.5
c0 -50.667 9.66699 -89.667 29 -117s52.333 -41 99 -41c51.333 0 94.333 17.833 129 53.5s61.834 91.334 81.501 167.001s29.5 144.167 29.5 205.5z" />
    <glyph glyph-name="ampersand" unicode="&#x26;" horiz-adv-x="1593" 
d="M1120 1102c0 -53.333 -12.8311 -98.998 -38.498 -136.998s-61 -71.167 -106 -99.5s-127.833 -64.166 -248.5 -107.499l344 -402c98 132 159.667 255.667 185 371l-137 27l9 53h457l-9 -53l-144 -27c-80.667 -182 -177.334 -333.667 -290.001 -455l168 -194l162 -24
l-10 -54h-344l-113 137c-78 -58 -152.333 -98.667 -223 -122s-148.667 -35 -234 -35c-147.333 0 -261 31 -341 93s-120 151 -120 267c0 61.333 13.167 117.166 39.5 167.499s67.166 95 122.499 134s135.333 77.167 240 114.5c-41.333 59.333 -69.666 110 -84.999 152
s-23 85 -23 129c0 98 34.333 176.667 103 236s163.334 89 284.001 89c73.333 0 136.166 -10.833 188.499 -32.5s92.666 -52.334 120.999 -92.001s42.5 -84.834 42.5 -135.501zM538.002 687.002c-89.333 -38 -153.833 -85.166 -193.5 -141.499s-59.5 -123.833 -59.5 -202.5
c0 -86 24.833 -153.667 74.5 -203s119.167 -74 208.5 -74c66.667 0 131.5 13.167 194.5 39.5s120.833 64.166 173.5 113.499zM561.002 1071c0 -42 10.166 -82.832 30.499 -122.499s47.5 -81.5 81.5 -125.5c86.667 32.667 146.334 60 179.001 82s57.667 47.833 75 77.5
s26 65.5 26 107.5c0 61.333 -16.667 108.666 -50 141.999s-78.333 50 -135 50c-70 0 -122 -19 -156 -57s-51 -89.333 -51 -154z" />
    <glyph glyph-name="quotesingle" unicode="'" horiz-adv-x="438" 
d="M269 1341h197l-147 -481h-74z" />
    <glyph glyph-name="parenleft" unicode="(" horiz-adv-x="682" 
d="M251 131c0 -226 74.666 -387.002 223.999 -483.002l-15 -84c-138 80.667 -237.167 172.334 -297.5 275.001s-90.5 227.334 -90.5 374.001c0 117.333 15.167 243.833 45.5 379.5s73 253.5 128 353.5s124.833 187.5 209.5 262.5s195.334 145.833 332.001 212.5l-15 -84
c-88.667 -46.667 -163 -105.5 -223 -176.5s-109.667 -154.167 -149 -249.5s-74 -225 -104 -389s-45 -294.333 -45 -391z" />
    <glyph glyph-name="parenright" unicode=")" horiz-adv-x="682" 
d="M-97 -436l14.998 84.0029c87.333 46 160.5 104 219.5 174s107.833 150.667 146.5 242s74 218.666 106 381.999s48 299.333 48 408c0 116 -18.5 213.5 -55.5 292.5s-93.167 142.5 -168.5 190.5l15 84c141.333 -84 241.666 -176.667 300.999 -278s89 -225 89 -371
c0 -111.333 -15.167 -235.333 -45.5 -372s-73.166 -255.834 -128.499 -357.501s-125.666 -190.334 -210.999 -266.001s-195.666 -146.5 -330.999 -212.5z" />
    <glyph glyph-name="asterisk" unicode="*" horiz-adv-x="1024" 
d="M197 1065l64 143l315 -194l-43 327h156l-47 -327l317 190l64 -141l-332 -98l332 -97l-64 -141l-317 188l47 -325h-156l43 328l-315 -195l-64 143l328 99z" />
    <glyph glyph-name="plus" unicode="+" horiz-adv-x="1382" 
d="M760 629v-426h-103v426h-424v102h424v426h103v-426h426v-102h-426z" />
    <glyph glyph-name="comma" unicode="," horiz-adv-x="512" 
d="M383 42c0 -87.333 -27.668 -161.5 -83.001 -222.5s-132.666 -105.833 -231.999 -134.5v77c124 39.333 186 95.333 186 168c0 18.667 -6.5 32.667 -19.5 42s-27.333 18.833 -43 28.5s-30 21.667 -43 36s-19.5 35.5 -19.5 63.5c0 36 11.333 63.5 34 82.5
s51.667 28.5 87 28.5c40.667 0 73 -15 97 -45s36 -71.333 36 -124z" />
    <glyph glyph-name="hyphen" unicode="-" horiz-adv-x="682" 
d="M76 406v153h532v-153h-532z" />
    <glyph glyph-name="period" unicode="." horiz-adv-x="512" 
d="M327 92c0 -32.667 -11.5 -61 -34.5 -85s-51.833 -36 -86.5 -36s-63.5 12 -86.5 36s-34.5 52.333 -34.5 85c0 34 11.667 62.667 35 86s52 35 86 35s62.667 -11.667 86 -35s35 -52 35 -86z" />
    <glyph glyph-name="slash" unicode="/" horiz-adv-x="569" 
d="M16 -20h-110l711 1370h108z" />
    <glyph glyph-name="zero" unicode="0" horiz-adv-x="1024" 
d="M419 -20c-226.667 0 -340.001 139.668 -340.001 419.001c0 156.667 24 316.167 72 478.5s113.833 283.666 197.5 363.999s184.834 120.5 303.501 120.5c230.667 0 346 -137 346 -411c0 -151.333 -24.167 -310.5 -72.5 -477.5s-114.333 -291 -198 -372
s-186.5 -121.5 -308.5 -121.5zM822.999 992.001c0 193.333 -62.999 290.003 -188.999 290.003c-57.333 0 -107.333 -19.333 -150 -58s-79.667 -96.834 -111 -174.501s-59.833 -183.834 -85.5 -318.501s-38.5 -263.334 -38.5 -386.001c0 -94 15.833 -165.167 47.5 -213.5
s76.5 -72.5 134.5 -72.5c79.333 0 145.666 36.333 198.999 109s98.833 195.167 136.5 367.5s56.5 324.5 56.5 456.5z" />
    <glyph glyph-name="one" unicode="1" horiz-adv-x="1024" 
d="M534 80l270 -27l-10 -53h-721l10 53l279 27l193 1094l-288 -97l10 53l430 222h52z" />
    <glyph glyph-name="two" unicode="2" horiz-adv-x="1024" 
d="M821 0h-820.002l26 147l212 155c146.667 103.333 259 192.166 337 266.499s135.833 152.333 173.5 234s56.5 169.834 56.5 264.501c0 71.333 -19.333 123.333 -58 156s-95.334 49 -170.001 49c-36.667 0 -75.167 -5.16699 -115.5 -15.5s-74.166 -22.833 -101.499 -37.5
l-64 -164h-66l45 258c127.333 28.667 233 43 317 43c124 0 219.333 -25.333 286 -76s100 -121.667 100 -213c0 -87.333 -20.667 -171.333 -62 -252s-104.166 -159.5 -188.499 -236.5s-201.166 -167.833 -350.499 -272.5l-212 -152h682z" />
    <glyph glyph-name="three" unicode="3" horiz-adv-x="1024" 
d="M357 -20c-59.333 0 -122 5.66797 -188 17.001s-123.333 26 -172 44l37 282h66l12 -188c22 -16.667 58 -32.834 108 -48.501s95.667 -23.5 137 -23.5c123.333 0 214 25.833 272 77.5s87 134.5 87 248.5c0 161.333 -89.667 248.666 -269 261.999l-115 8l14 82l145 9
c94 6 163.5 33.5 208.5 82.5s67.5 121.833 67.5 218.5c0 73.333 -17.333 128.5 -52 165.5s-89 55.5 -163 55.5c-36 0 -73.5 -5 -112.5 -15s-73.167 -22.667 -102.5 -38l-64 -164h-66l45 258c68 18 123 29.667 165 35s89.333 8 142 8c123.333 0 219.833 -25.5 289.5 -76.5
s104.5 -122.5 104.5 -214.5c0 -99.333 -29.167 -180.333 -87.5 -243s-148.5 -102.667 -270.5 -120c96 -14 170.333 -46.667 223 -98s79 -116.666 79 -195.999c0 -132 -49 -236.333 -147 -313s-229 -115 -393 -115z" />
    <glyph glyph-name="four" unicode="4" horiz-adv-x="1024" 
d="M754 308l-55 -308h-162l55 308h-587l20 120l751 920h160l-160 -910h202l-22 -130h-202zM752 1180l-603 -742h465l95 541z" />
    <glyph glyph-name="five" unicode="5" horiz-adv-x="1024" 
d="M490 784c136.667 0 240.166 -28.501 310.499 -85.501s105.5 -138.5 105.5 -244.5c0 -152 -47.167 -269 -141.5 -351s-230.5 -123 -408.5 -123c-115.333 0 -223.333 14.333 -324 43l38 282h66l12 -188c24 -15.333 57.333 -28.166 100 -38.499s83.334 -15.5 122.001 -15.5
c116.667 0 204.667 31 264 93s89 158.333 89 289c0 170 -86.667 255 -260 255c-72 0 -139 -8 -201 -24h-96l117 665h680l-27 -153h-590l-75 -428c76 16 149 24 219 24z" />
    <glyph glyph-name="six" unicode="6" horiz-adv-x="1024" 
d="M477 -20c-124 0 -220.668 40.998 -290.001 122.998s-104 196.333 -104 343c0 166 27.167 318.833 81.5 458.5s131 249.834 230 330.501s208.5 121 328.5 121c91.333 0 188.333 -17.667 291 -53l-41 -231h-66l-11 140c-59.333 40 -119.333 60 -180 60
c-104 0 -193.833 -50 -269.5 -150s-129.5 -238.667 -161.5 -416c50.667 30 104.5 53.667 161.5 71s109.5 26 157.5 26c108.667 0 193.167 -27 253.5 -81s90.5 -128.333 90.5 -223c0 -101.333 -18.667 -191.166 -56 -269.499s-91.666 -139.5 -162.999 -183.5
s-155.333 -66 -252 -66zM259.999 410.998c0 -112 18.668 -198.667 56.001 -260s91.666 -92 162.999 -92c90 0 159.667 38.333 209 115s74 181.667 74 315c0 72.667 -16.167 127.167 -48.5 163.5s-82.833 54.5 -151.5 54.5c-76.667 0 -172 -20.667 -286 -62
c-10.667 -76 -16 -154 -16 -234z" />
    <glyph glyph-name="seven" unicode="7" horiz-adv-x="1024" 
d="M274 1024h-66l56 317h830l-14 -77l-821 -1264h-139l797 1188h-579z" />
    <glyph glyph-name="eight" unicode="8" horiz-adv-x="1024" 
d="M1001 1092c0 -94.667 -23.333 -176.168 -70 -244.501s-109.334 -113.833 -188.001 -136.5c57.333 -20 102.333 -53.167 135 -99.5s49 -103.5 49 -171.5c0 -306.667 -167 -460 -501 -460c-130 0 -226.333 27.167 -289 81.5s-94 131.5 -94 231.5
c0 217.333 102.667 356.666 308 417.999c-42.667 18.667 -78.167 47.834 -106.5 87.501s-42.5 89.834 -42.5 150.501c0 136.667 38.833 239.667 116.5 309s189.834 104 336.501 104c230.667 0 346 -90 346 -270zM438 58.999c105.333 0 183.667 30 235 90s77 159.333 77 298
c0 146 -72 219 -216 219c-209.333 0 -314 -125.667 -314 -377c0 -153.333 72.667 -230 218 -230zM551.001 753.999c87.333 0 154.5 28.833 201.5 86.5s70.5 141.5 70.5 251.5c0 64.667 -14.5 112.5 -43.5 143.5s-74.167 46.5 -135.5 46.5
c-88.667 0 -155.167 -27.167 -199.5 -81.5s-66.5 -139.5 -66.5 -255.5c0 -62 14.5 -109.333 43.5 -142s72.167 -49 129.5 -49z" />
    <glyph glyph-name="nine" unicode="9" horiz-adv-x="1024" 
d="M597 1356c126 0 223.168 -40.332 291.501 -120.999s102.5 -195.667 102.5 -345c0 -170 -27.667 -325.333 -83 -466s-129.833 -249.834 -223.5 -327.501s-196.5 -116.5 -308.5 -116.5c-120.667 0 -226 18 -316 54l39 221h66l11 -140
c22.667 -13.333 51.5 -25.166 86.5 -35.499s71.5 -15.5 109.5 -15.5c107.333 0 197.333 50.667 270 152s122.334 239.666 149.001 414.999c-54.667 -32 -110.334 -56.333 -167.001 -73s-108 -25 -154 -25c-106.667 0 -190.667 30 -252 90s-92 142.667 -92 248
c0 96.667 19 182 57 256s92.667 130.667 164 170s154.666 59 249.999 59zM814.001 925.001c0 112 -18.668 198.667 -56.001 260s-91.666 92 -162.999 92c-90.667 0 -160.5 -35.333 -209.5 -106s-73.5 -169 -73.5 -295c0 -84 18.5 -146.167 55.5 -186.5
s88.167 -60.5 153.5 -60.5c91.333 0 184.333 20.333 279 61c9.33301 76 14 154.333 14 235z" />
    <glyph glyph-name="colon" unicode=":" horiz-adv-x="682" 
d="M379 92c0 -32.667 -11.5 -61 -34.5 -85s-51.833 -36 -86.5 -36s-63.5 12 -86.5 36s-34.5 52.333 -34.5 85c0 34 11.667 62.667 35 86s52 35 86 35s62.667 -11.667 86 -35s35 -52 35 -86zM520 839c0 -32.667 -11.5 -61 -34.5 -85s-51.833 -36 -86.5 -36s-63.5 12 -86.5 36
s-34.5 52.333 -34.5 85c0 34 11.667 62.667 35 86s52 35 86 35s62.667 -11.667 86 -35s35 -52 35 -86z" />
    <glyph glyph-name="semicolon" unicode=";" horiz-adv-x="682" 
d="M546 839c0 -32.667 -11.5 -61 -34.5 -85s-51.833 -36 -86.5 -36s-63.5 12 -86.5 36s-34.5 52.333 -34.5 85c0 34 11.667 62.667 35 86s52 35 86 35s62.667 -11.667 86 -35s35 -52 35 -86zM410 42c0 -87.333 -27.668 -161.5 -83.001 -222.5
s-132.666 -105.833 -231.999 -134.5v77c124 39.333 186 95.333 186 168c0 18.667 -6.5 32.667 -19.5 42s-27.333 18.833 -43 28.5s-30 21.667 -43 36s-19.5 35.5 -19.5 63.5c0 36 11.333 63.5 34 82.5s51.667 28.5 87 28.5c40.667 0 73 -15 97 -45s36 -71.333 36 -124z" />
    <glyph glyph-name="less" unicode="&#x3c;" horiz-adv-x="1382" 
d="M232 655v50l953 469v-103l-809 -391l809 -391v-103z" />
    <glyph glyph-name="equal" unicode="=" horiz-adv-x="1382" 
d="M1186 526v-102h-953v102h953zM1186 936v-102h-953v102h953z" />
    <glyph glyph-name="greater" unicode="&#x3e;" horiz-adv-x="1382" 
d="M232 186v103l809 391l-809 391v103l953 -469v-50z" />
    <glyph glyph-name="question" unicode="?" horiz-adv-x="1024" 
d="M502 350l-80 0.000976562l33 334l148 29c76.667 14.667 133.5 49 170.5 103s55.5 132.333 55.5 235c0 147.333 -66.333 221 -199 221c-40 0 -81.167 -7.33301 -123.5 -22s-75.5 -31.334 -99.5 -50.001l-50 -164h-66l31 254c106 44 212.333 66 319 66
c244 0 366 -97.667 366 -293c0 -238 -129 -384.667 -387 -440l-59 -13zM545 92.001c0 -32.667 -11.499 -61 -34.499 -85s-51.5 -36 -85.5 -36c-34.667 0 -63.5 12 -86.5 36s-34.5 52.333 -34.5 85c0 34 11.667 62.667 35 86s52 35 86 35c33.333 0 61.666 -11.5 84.999 -34.5
s35 -51.833 35 -86.5z" />
    <glyph glyph-name="at" unicode="@" horiz-adv-x="1884" 
d="M1469 -184c-94 -73.333 -188.835 -125.834 -284.502 -157.501s-198.834 -47.5 -309.501 -47.5c-150 0 -282.167 31.5 -396.5 94.5s-202.666 151.833 -264.999 266.5s-93.5 244.667 -93.5 390c0 189.333 41.833 360.666 125.5 513.999s199.334 273 347.001 359
s311.5 129 491.5 129c224 0 397.5 -53.667 520.5 -161s184.5 -257.666 184.5 -450.999c0 -126.667 -32.333 -245.834 -97 -357.501s-152 -201.167 -262 -268.5s-224.667 -101 -344 -101c-43.333 0 -65 17 -65 51c0 33.333 2.66699 75 8 125
c-58 -58 -115 -101.833 -171 -131.5s-106.333 -44.5 -151 -44.5c-48 0 -85.167 18.167 -111.5 54.5s-39.5 84.833 -39.5 145.5c0 79.333 10.167 156.833 30.5 232.5s49 142.834 86 201.501s83.333 108.5 139 149.5s110.167 69 163.5 84s123.333 22.5 210 22.5h36
c25.333 0 54 -2 86 -6l-114 -530c-15.333 -73.333 -23 -131.333 -23 -174c0 -24.667 6.16699 -41.167 18.5 -49.5s30.833 -12.5 55.5 -12.5c77.333 0 148 27.167 212 81.5s114.667 129.833 152 226.5s56 196.334 56 299.001c0 168 -52 298.667 -156 392
s-247.333 140 -430 140c-155.333 0 -295.166 -37.833 -419.499 -113.5s-222.333 -185 -294 -328s-107.5 -301.5 -107.5 -475.5c0 -130 25.833 -245.667 77.5 -347s126.5 -180.5 224.5 -237.5s213.667 -85.5 347 -85.5c98.667 0 189.5 12.833 272.5 38.5
s168.833 70.167 257.5 133.5zM1150 806.999l-49 3.99902c-86.667 0 -159.167 -14.833 -217.5 -44.5s-105 -88.5 -140 -176.5s-52.5 -181.667 -52.5 -281s26.667 -149 80 -149c37.333 0 80.5 10.333 129.5 31s93.833 48.334 134.5 83.001z" />
    <glyph glyph-name="A" unicode="A" horiz-adv-x="1251" 
d="M264 53l-10 -53h-366l10 53l112 27l682 1272h191l250 -1272l125 -27l-11 -53h-475l11 53l143 27l-64 387h-528l-205 -387zM723 1208l-344 -651h467z" />
    <glyph glyph-name="B" unicode="B" horiz-adv-x="1251" 
d="M639 754c129.333 0 221.499 21.668 276.499 65.001s82.5 119.333 82.5 228c0 69.333 -21.667 120.666 -65 153.999s-114.666 50 -213.999 50h-158l-88 -497h166zM614.999 84.001c128 0 222 24.832 282 74.499s90 132.167 90 247.5c0 90.667 -29.5 156.334 -88.5 197.001
s-144.167 61 -255.5 61h-186l-100 -574c102 -4 188 -6 258 -6zM18.999 0l10 53l133 27l209 1182l-168 26l10 53h551c294.667 0 442 -94 442 -282c0 -94 -29.5 -171.667 -88.5 -233s-141.167 -99 -246.5 -113c103.333 -8.66699 183.333 -39.5 240 -92.5
s85 -123.167 85 -210.5c0 -143.333 -48.5 -248.5 -145.5 -315.5s-242.167 -100.5 -435.5 -100.5l-383 6h-213z" />
    <glyph glyph-name="C" unicode="C" horiz-adv-x="1366" 
d="M699 -19c-183.333 0 -326.668 47.999 -430.001 143.999s-155 228.667 -155 398c0 165.333 34.5 311.333 103.5 438s167 224.167 294 292.5s272.167 102.5 435.5 102.5c140.667 0 286.667 -17 438 -51l-45 -293h-65v174c-41.333 28.667 -91.333 50.834 -150 66.501
s-120 23.5 -184 23.5c-120.667 0 -228.834 -32.167 -324.501 -96.5s-170 -155.5 -223 -273.5s-79.5 -252.333 -79.5 -403c0 -143.333 34.833 -252.5 104.5 -327.5s168.834 -112.5 297.501 -112.5c76 0 150.333 11.333 223 34s131.667 51.667 177 87l72 201h65l-61 -315
c-76.667 -28 -159.167 -49.833 -247.5 -65.5s-170.166 -23.5 -245.499 -23.5z" />
    <glyph glyph-name="D" unicode="D" horiz-adv-x="1479" 
d="M1238 785c0 310.667 -171.667 466 -515 466h-162l-204 -1157c106.667 -5.33301 194.667 -8 264 -8c196 0 347.833 60.5 455.5 181.5s161.5 293.5 161.5 517.5zM784 1341c215.333 0 379.833 -47.1699 493.5 -141.503s170.5 -230.166 170.5 -407.499
c0 -159.333 -33.5 -299.666 -100.5 -420.999s-162.5 -214.166 -286.5 -278.499s-268 -96.5 -432 -96.5l-481 4h-171l9 53l176 27l208 1182l-167 26l9 53h572z" />
    <glyph glyph-name="E" unicode="E" horiz-adv-x="1251" 
d="M370 1262l-168.001 26l10 53h1006l-57 -321h-66l6 217c-72.667 9.33301 -179.667 14 -321 14h-219l-93 -524h362l60 160h64l-73 -412h-64l-2 162h-362l-97 -547h264c170.667 0 284.334 5.33301 341.001 16l101 248h66l-82 -354h-1070l10 53l175 27z" />
    <glyph glyph-name="F" unicode="F" horiz-adv-x="1251" 
d="M446 602l-92 -522l219 -27l-10 -53h-574l10 53l162 27l209 1182l-168 26l10 53h1056l-57 -321h-66l6 217c-72 9.33301 -179 14 -321 14h-269l-99 -559h445l59 160h61l-72 -412h-61l-3 162h-445z" />
    <glyph glyph-name="G" unicode="G" horiz-adv-x="1479" 
d="M690 -18c-182 0 -323.666 47.833 -424.999 143.5s-152 228.167 -152 397.5c0 167.333 34.667 314 104 440s167.333 223 294 291s272 102 436 102c154 0 303 -20 447 -60l-51 -288h-67l3 166c-84.667 68 -197.334 102 -338.001 102c-118 0 -225 -31.833 -321 -95.5
s-171 -154.167 -225 -271.5s-81 -252.666 -81 -405.999c0 -138.667 34.167 -246.834 102.5 -324.501s163.833 -116.5 286.5 -116.5c59.333 0 119 8.5 179 25.5s111 38.833 153 65.5l63 353l-167 26l9 54h495l-9 -54l-136 -26l-75 -420
c-100.667 -38.667 -191.667 -65.667 -273 -81s-165.333 -23 -252 -23z" />
    <glyph glyph-name="H" unicode="H" horiz-adv-x="1479" 
d="M-22 0l8 53l176 27l207 1182l-166 26l8 53h537l-8 -53l-179 -26l-92 -527h631l92 527l-166 26l8 53h537l-8 -53l-178 -26l-207 -1182l166 -27l-9 -53h-536l8 53l178 27l99 565h-631l-99 -565l166 -27l-8 -53h-534z" />
    <glyph glyph-name="I" unicode="I" horiz-adv-x="682" 
d="M369 80l166 -27l-8 -53h-535l8 53l176 27l207 1182l-166 26l8 53h537l-8 -53l-178 -26z" />
    <glyph glyph-name="J" unicode="J" horiz-adv-x="909" 
d="M631 1262l-167.001 26l9 53h516l-9 -53l-157 -26l-146 -830c-53.333 -301.333 -190 -452 -410 -452c-46 0 -90 4.5 -132 13.5s-76.667 19.833 -104 32.5l42 232h65l5 -139c8.66699 -14.667 26.834 -27.167 54.501 -37.5s55.5 -15.5 83.5 -15.5
c93.333 0 151 63.333 173 190z" />
    <glyph glyph-name="K" unicode="K" horiz-adv-x="1366" 
d="M1454 1341l-10 -53l-156 -26l-556 -455l447 -727l134 -27l-10 -53h-307l-411 686l-143 -117l-88 -489l188 -27l-10 -53h-556l10 53l175 27l209 1182l-168 26l10 53h537l-10 -53l-176 -26l-98 -558l678 558l-119 26l10 53h420z" />
    <glyph glyph-name="L" unicode="L" horiz-adv-x="1139" 
d="M355 86h214c126.667 0 225.667 6.66699 297 20l111 279h65l-86 -385h-980l10 53l175 27l209 1182l-168 26l10 53h572l-10 -53l-211 -26z" />
    <glyph glyph-name="M" unicode="M" horiz-adv-x="1706" 
d="M721 0h-35l-231 1153l-189 -1073l176 -27l-10 -53h-456l10 53l175 27l209 1182l-168 26l10 53h382l206 -1023l598 1023h402l-10 -53l-176 -26l-209 -1182l168 -27l-10 -53h-544l10 53l184 27l189 1073z" />
    <glyph glyph-name="N" unicode="N" horiz-adv-x="1366" 
d="M1170 1262l-176 26l10 53h457l-10 -53l-176 -26l-223 -1262h-97l-481 1206l-199 -1126l176 -27l-10 -53h-456l10 53l175 27l209 1182l-168 26l10 53h388l399 -1005z" />
    <glyph glyph-name="O" unicode="O" horiz-adv-x="1479" 
d="M1231 832c0 133.333 -34.166 240.667 -102.499 322s-158.5 122 -270.5 122c-99.333 0 -190.5 -33.833 -273.5 -101.5s-150.667 -164.5 -203 -290.5s-78.5 -253 -78.5 -381c0 -132 33.5 -238 100.5 -318s155.833 -120 266.5 -120c99.333 0 191.166 33.5 275.499 100.5
s153 163.5 206 289.5s79.5 251.667 79.5 377zM663.001 -19.999c-107.333 0 -203.833 22.501 -289.5 67.501s-152.167 108.5 -199.5 190.5s-71 174 -71 276c0 160.667 33.333 306.167 100 436.5s157.667 230.5 273 300.5s247 105 395 105
c107.333 0 203.833 -22.5 289.5 -67.5s152.167 -108.333 199.5 -190s71 -173.834 71 -276.501c0 -158 -33.5 -303.333 -100.5 -436s-158 -233.5 -273 -302.5s-246.5 -103.5 -394.5 -103.5z" />
    <glyph glyph-name="P" unicode="P" horiz-adv-x="1251" 
d="M612 616c258.667 0 387.999 119 387.999 357c0 95.333 -24.167 165.5 -72.5 210.5s-121.166 67.5 -218.499 67.5h-148l-112 -635h163zM432.999 526l-79 -446l219 -27l-10 -53h-574l10 53l162 27l209 1182l-168 26l10 53h537c144 0 255 -29.833 333 -89.5
s117 -148.167 117 -265.5c0 -149.333 -48.833 -263.333 -146.5 -342s-237.167 -118 -418.5 -118h-201z" />
    <glyph glyph-name="Q" unicode="Q" horiz-adv-x="1479" 
d="M113 514c0 160.667 33.332 306.167 99.999 436.5s157.667 230.5 273 300.5s247 105 395 105c107.333 0 203.833 -22.5 289.5 -67.5s152.167 -108.333 199.5 -190s71 -173.834 71 -276.501c0 -132 -23.667 -256.333 -71 -373s-113.666 -213.334 -198.999 -290.001
s-185 -128.667 -299 -156c56.667 -83.333 97.667 -137.666 123 -162.999s51.5 -43.833 78.5 -55.5s57.167 -17.5 90.5 -17.5l83 4l-12 -66c-16.667 -6.66699 -46.834 -14.5 -90.501 -23.5s-81.167 -13.5 -112.5 -13.5c-68 0 -125 17.5 -171 52.5s-101.333 105.5 -166 211.5
l-30 48c-106.667 0.666992 -202.167 23.834 -286.5 69.501s-149.666 109 -195.999 190s-69.5 172.5 -69.5 274.5zM1241 832c0 133.333 -34.166 240.667 -102.499 322s-158.5 122 -270.5 122c-99.333 0 -190.5 -33.833 -273.5 -101.5s-150.667 -164.5 -203 -290.5
s-78.5 -253 -78.5 -381c0 -132 33.5 -238 100.5 -318s155.833 -120 266.5 -120c99.333 0 191.166 33.5 275.499 100.5s153 163.5 206 289.5s79.5 251.667 79.5 377z" />
    <glyph glyph-name="R" unicode="R" horiz-adv-x="1251" 
d="M444 588l-90 -508l179 -27l-10 -53h-534l10 53l162 27l209 1182l-168 26l10 53h532c146 0 257.333 -27.667 334 -83s115 -136 115 -242c0 -210.667 -116.667 -344 -350 -400l227 -536l147 -27l-10 -53h-308l-246 588h-209zM616 678c121.333 0 214.833 28.833 280.5 86.5
s98.5 139.5 98.5 245.5c0 160.667 -95.333 241 -286 241h-148l-101 -573h156z" />
    <glyph glyph-name="S" unicode="S" horiz-adv-x="1024" 
d="M76 371l65.002 -0.00195312l1 -191c22 -33.333 59.5 -61.5 112.5 -84.5s109.167 -34.5 168.5 -34.5c109.333 0 193.5 25.833 252.5 77.5s88.5 123.834 88.5 216.501c0 36 -8 67.333 -24 94s-37.333 50.667 -64 72s-56.834 41 -90.501 59l-103.5 54.5
c-35.333 18.333 -69.833 38 -103.5 59s-63.834 45.333 -90.501 73s-48 59.5 -64 95.5s-24 78.333 -24 127c0 118.667 40.333 209.5 121 272.5s196 94.5 346 94.5c114.667 0 222.667 -12.667 324 -38l-49 -279h-65l-5 171c-21.333 17.333 -51 32 -89 44s-81.667 18 -131 18
c-88.667 0 -157 -21.667 -205 -65s-72 -104 -72 -182c0 -42 15 -80.333 45 -115s74.667 -67 134 -97c90.667 -47.333 156 -83.333 196 -108s73.5 -51 100.5 -79s48.667 -60 65 -96s24.5 -77.333 24.5 -124c0 -137.333 -44.833 -242.666 -134.5 -315.999
s-219.167 -110 -388.5 -110c-84 0 -159.5 8.5 -226.5 25.5s-122.5 39.5 -166.5 67.5z" />
    <glyph glyph-name="T" unicode="T" horiz-adv-x="1139" 
d="M176 0l10 53l217 27l207 1175h-51c-132.667 0 -230.667 -6.66699 -294 -20l-64 -209h-67l56 315h1070l-56 -315h-68l10 209c-60 12 -158 18 -294 18h-49l-207 -1173l209 -27l-10 -53h-619z" />
    <glyph glyph-name="U" unicode="U" horiz-adv-x="1479" 
d="M1299 1262l-174.998 26l9 53h457l-9 -53l-177 -26l-141 -801c-26.667 -152.667 -91.334 -271 -194.001 -355s-232.667 -126 -390 -126c-155.333 0 -273.666 31.5 -354.999 94.5s-122 154.167 -122 273.5c0 36.667 3.33301 71.667 10 105l143 809l-167 26l9 53h536l-9 -53
l-177 -26l-141 -805c-6.66699 -36 -10 -70 -10 -102c0 -175.333 100 -263 300 -263c127.333 0 231.166 31.667 311.499 95s130.166 152 149.499 266z" />
    <glyph glyph-name="V" unicode="V" horiz-adv-x="1251" 
d="M1448 1341l-10 -53l-131 -26l-727 -1293h-51l-295 1293l-127 26l10 53h493l-10 -53l-169 -26l218 -979l537 979l-152 26l11 53h403z" />
    <glyph glyph-name="W" unicode="W" horiz-adv-x="1706" 
d="M1135 -31h-63l-146 898l-418 -898h-65l-195 1293l-113 26l9 53h467l-9 -53l-161 -26l140 -936l426 921h46l151 -923l419 938l-165 26l9 53h394l-9 -53l-121 -26z" />
    <glyph glyph-name="X" unicode="X" horiz-adv-x="1251" 
d="M751 753l239 -673l148 -27l-10 -53h-513l10 53l164 27l-175 507l-397 -507l162 -27l-10 -53h-437l10 53l151 27l480 606l-204 576l-147 26l10 53h493l-10 -53l-144 -26l140 -409l319 409l-132 26l10 53h409l-10 -53l-152 -26z" />
    <glyph glyph-name="Y" unicode="Y" horiz-adv-x="1139" 
d="M609 80l209 -27l-10 -53h-619l10 53l217 27l78 442l-230 740l-147 26l10 53h547l-10 -53l-194 -26l188 -627l393 627l-176 26l10 53h436l-10 -53l-151 -26l-472 -734z" />
    <glyph glyph-name="Z" unicode="Z" horiz-adv-x="1139" 
d="M907 1255l-199.999 -0.000976562c-165.333 0 -279.666 -6.66699 -342.999 -20l-68 -211h-69l56 317h873l-16 -86l-873 -1171h240c79.333 0 160.166 3.83301 242.499 11.5s138.166 14.834 167.499 21.501l104 256h70l-93 -373h-973l17 94z" />
    <glyph glyph-name="bracketleft" unicode="[" horiz-adv-x="797" 
d="M118 -274l299 1695h456l-8 -47l-305 -41l-268 -1519l290 -41l-8 -47h-456z" />
    <glyph glyph-name="backslash" unicode="\" horiz-adv-x="569" 
d="M158 1350h98l214 -1370h-101z" />
    <glyph glyph-name="bracketright" unicode="]" horiz-adv-x="797" 
d="M-49 -274l8 47l303 41l268 1519l-289 41l8 47h456l-299 -1695h-455z" />
    <glyph glyph-name="asciicircum" unicode="^" horiz-adv-x="864" 
d="M500 1341h49l428 -952h-103l-350 809l-350 -809h-102z" />
    <glyph glyph-name="underscore" unicode="_" horiz-adv-x="1024" 
d="M-16 -264v102h1056v-102h-1056z" />
    <glyph glyph-name="grave" unicode="`" horiz-adv-x="682" 
d="M610 1118l-307 268l6 37h203l158 -272l-5 -33h-55z" />
    <glyph glyph-name="a" unicode="a" horiz-adv-x="1024" 
d="M789 70l113 -25.001l-8 -45h-285l29 156c-112.667 -118 -215.667 -177 -309 -177c-80.667 0 -145.5 29.667 -194.5 89s-73.5 141 -73.5 245c0 116.667 25.5 225.834 76.5 327.501s119.167 181 204.5 238s178 85.5 278 85.5c80.667 0 156.667 -14 228 -42l45 34h54z
M760 836.999c-26 18 -50.3311 30.499 -72.998 37.499s-50.667 10.5 -84 10.5c-66.667 0 -127.834 -25.167 -183.501 -75.5s-99.5 -118.166 -131.5 -203.499s-48 -174.333 -48 -267c0 -71.333 14.667 -128.333 44 -171s69.333 -64 120 -64
c75.333 0 157.666 46.333 246.999 139z" />
    <glyph glyph-name="b" unicode="b" horiz-adv-x="1024" 
d="M305 1352l-132.999 24.001l8 45h300l-74 -441c-11.333 -76 -24.333 -140.333 -39 -193c53.333 54.667 108.166 98 164.499 130s108.166 48 155.499 48c83.333 0 150 -29.833 200 -89.5s75 -141.167 75 -244.5c0 -114.667 -24.833 -222.834 -74.5 -324.501
s-118.167 -181.5 -205.5 -239.5s-182.666 -87 -285.999 -87c-58.667 0 -116.167 7.5 -172.5 22.5s-105.5 35.5 -147.5 61.5zM248.001 107.001c38.667 -32 92.333 -48 161 -48c68 0 130.833 25.167 188.5 75.5s103 118 136 203s49.5 174.167 49.5 267.5
c0 74.667 -15.5 132.5 -46.5 173.5s-72.5 61.5 -124.5 61.5c-39.333 0 -81.833 -13 -127.5 -39s-89.167 -59.333 -130.5 -100z" />
    <glyph glyph-name="c" unicode="c" horiz-adv-x="909" 
d="M774 142c-54 -50 -114.665 -89.5 -181.998 -118.5s-131.333 -43.5 -192 -43.5c-107.333 0 -190.333 31 -249 93s-88 147.667 -88 257c0 116 23.333 221.833 70 317.5s113.167 172.5 199.5 230.5s176.833 87 271.5 87c47.333 0 97.666 -5 150.999 -15
s97.333 -22.333 132 -37l-45 -262h-55l-16 174c-42 42 -98 63 -168 63c-64 0 -123.833 -23.667 -179.5 -71s-100.167 -113.333 -133.5 -198s-50 -177.667 -50 -279c0 -170.667 68.667 -256 206 -256c95.333 0 194.666 33.333 297.999 100z" />
    <glyph glyph-name="d" unicode="d" horiz-adv-x="1024" 
d="M783 941c2.66699 32 25.333 169.001 68 411.001l-154 24l8 45h324l-240 -1351l113 -25l-8 -45h-285l29 156c-112.667 -118 -215.667 -177 -309 -177c-82 0 -147 30.833 -195 92.5s-72 143.5 -72 245.5c0 114 24.5 221.167 73.5 321.5s116.167 179.666 201.5 237.999
s179 87.5 281 87.5c62.667 0 117.667 -7.66699 165 -23zM759.999 837.001c-23.333 15.333 -47.333 27.334 -72 36.001s-54.667 13 -90 13c-62.667 0 -121.334 -24.667 -176.001 -74s-98.667 -117.333 -132 -204s-50 -176.334 -50 -269.001
c0 -71.333 14.667 -128.333 44 -171s69 -64 119 -64c37.333 0 77.833 12.167 121.5 36.5s85.834 58.5 126.501 102.5z" />
    <glyph glyph-name="e" unicode="e" horiz-adv-x="909" 
d="M863 760c0 -90.667 -56.001 -167.999 -168.001 -231.999s-262.333 -102.333 -451 -115l-4 -73c0 -84.667 17.833 -148.5 53.5 -191.5s88.5 -64.5 158.5 -64.5c60 0 115.333 10.167 166 30.5s98 43.5 142 69.5l29 -42c-61.333 -52 -126.166 -92 -194.499 -120
s-133.166 -42 -194.499 -42c-108 0 -191.167 30.167 -249.5 90.5s-87.5 146.833 -87.5 259.5c0 111.333 23.5 215.166 70.5 311.499s112.167 174.333 195.5 234s170.666 89.5 261.999 89.5c82 0 147.833 -18.833 197.5 -56.5s74.5 -87.167 74.5 -148.5zM251.999 476.001
c132 10 237.667 41 317 93s119 115.667 119 191c0 37.333 -10.167 68 -30.5 92s-49.833 36 -88.5 36c-46.667 0 -92 -19 -136 -57s-82 -89 -114 -153s-54.333 -131.333 -67 -202z" />
    <glyph glyph-name="f" unicode="f" horiz-adv-x="569" 
d="M189 -436l-165.999 -0.000976562l225 1292h-162l8 49l170 39l12 66c26.667 148.667 71.5 257.834 134.5 327.501s148.167 104.5 255.5 104.5c51.333 0 97.666 -6.33301 138.999 -19l-35 -196h-49l-19 114c-19.333 14 -47.333 21 -84 21
c-40.667 0 -72.667 -17.5 -96 -52.5s-45 -106.167 -65 -213.5l-29 -156h209l-14 -84h-209z" />
    <glyph glyph-name="g" unicode="g" horiz-adv-x="1024" 
d="M418 104c37.333 0 78.833 12.333 124.5 37s90.167 58.667 133.5 102l110 618l-43 11c-12.667 3.33301 -25.167 6 -37.5 8s-25.5 3.5 -39.5 4.5s-30 1.5 -48 1.5c-66.667 0 -128.667 -25 -186 -75s-102.333 -117.333 -135 -202s-49 -174.667 -49 -270
c0 -72 14.833 -129.167 44.5 -171.5s71.5 -63.5 125.5 -63.5zM662 160c-48 -52.667 -101.497 -95.998 -160.497 -129.998s-112.167 -51 -159.5 -51c-84.667 0 -151.334 29.833 -200.001 89.5s-73 141.167 -73 244.5c0 116.667 25.5 225.167 76.5 325.5
s120 179.666 207 237.999s181.5 87.5 283.5 87.5c40 0 92.167 -3.83301 156.5 -11.5s121.5 -17.5 171.5 -29.5l-168 -958c-24.667 -140.667 -72.834 -242.667 -144.501 -306s-177.5 -95 -317.5 -95c-58.667 0 -119.334 6.83301 -182.001 20.5s-113 30.5 -151 50.5l18 228h45
l36 -126c54 -52.667 131.667 -79 233 -79c81.333 0 146 21.167 194 63.5s80 110.166 96 203.499z" />
    <glyph glyph-name="h" unicode="h" horiz-adv-x="1024" 
d="M311 1352l-118 24l8 45h288l-106 -596l-16 -76c53.333 70 110.5 123.5 171.5 160.5s120.833 55.5 179.5 55.5c67.333 0 118 -18.167 152 -54.5s51 -88.5 51 -156.5c0 -9.33301 -1.33301 -23.666 -4 -42.999s-39 -233.333 -109 -642l131 -24l-8 -45h-301l102 582
c15.333 84.667 23 140 23 166c0 30 -8 54.333 -24 73s-41.333 28 -76 28c-50 0 -104 -20.833 -162 -62.5s-105.667 -92.834 -143 -153.501l-111 -633h-165z" />
    <glyph glyph-name="i" unicode="i" horiz-adv-x="569" 
d="M292 70l157 -25l-8 -45h-327l153 870l-129 25l8 45h299zM507 1247c0 -29.333 -10.667 -54.666 -32 -75.999s-47 -32 -77 -32c-29.333 0 -54.666 10.667 -75.999 32s-32 46.666 -32 75.999c0 30 10.667 55.667 32 77s46.666 32 75.999 32c30 0 55.667 -10.667 77 -32
s32 -47 32 -77z" />
    <glyph glyph-name="j" unicode="j" horiz-adv-x="569" 
d="M-59 -436c-54 0 -107.333 10 -160 30l33 187h47l15 -110c18 -18 41.667 -27 71 -27c43.333 0 77.5 21.333 102.5 64s45.5 110 61.5 202l170 960l-137 25l8 45h307l-174 -979c-24 -134.667 -64.167 -234.5 -120.5 -299.5s-130.833 -97.5 -223.5 -97.5zM519 1247
c0 -29.333 -10.667 -54.666 -32 -75.999s-47 -32 -77 -32c-29.333 0 -54.666 10.667 -75.999 32s-32 46.666 -32 75.999c0 30 10.667 55.667 32 77s46.666 32 75.999 32c30 0 55.667 -10.667 77 -32s32 -47 32 -77z" />
    <glyph glyph-name="k" unicode="k" horiz-adv-x="909" 
d="M299 1352l-135 24l8 45h305l-172 -968l428 415l-94 27l8 45h292l-8 -45l-81 -23l-294 -281l243 -523l98 -23l-8 -45h-236l-218 479l-148 -139l-62 -340h-166z" />
    <glyph glyph-name="l" unicode="l" horiz-adv-x="569" 
d="M287 70l157 -25l-8 -45h-327l237 1352l-129 24l8 45h299z" />
    <glyph glyph-name="m" unicode="m" horiz-adv-x="1479" 
d="M873 746c45.333 64.667 96.668 117.334 154.001 158.001s112.333 61 165 61c56 0 100.167 -17.833 132.5 -53.5s48.5 -87.167 48.5 -154.5c0 -14.667 -1.5 -33.834 -4.5 -57.501s-38.5 -233.5 -106.5 -629.5l131 -25l-9 -45h-301l103 582c15.333 80.667 23 136 23 166
s-7 54.167 -21 72.5s-36 27.5 -66 27.5c-29.333 0 -64.333 -14 -105 -42s-77.5 -63.833 -110.5 -107.5s-52.833 -84.5 -59.5 -122.5l-99 -576h-166l102 582c16.667 87.333 25 142.666 25 165.999c0 30 -7.33301 54.167 -22 72.5s-37.667 27.5 -69 27.5
c-29.333 0 -65.333 -14.833 -108 -44.5s-80.334 -65.667 -113.001 -108s-52 -82.166 -58 -119.499l-99 -576h-166l153 870l-118 25l8 45h278l-28 -194c46.667 66 99 119 157 159s112.667 60 164 60c58.667 0 104.167 -18.5 136.5 -55.5s48.5 -91.5 48.5 -163.5z" />
    <glyph glyph-name="n" unicode="n" horiz-adv-x="1024" 
d="M755 748c0 30 -8.00098 54.332 -24.001 72.999s-41.333 28 -76 28c-49.333 0 -103.166 -21 -161.499 -63s-106.5 -94 -144.5 -156l-110 -630h-166l153 871l-118 25l8 45h278l-27 -192c56 72 114 126 174 162s119 54 177 54c67.333 0 118 -18.167 152 -54.5
s51 -88.5 51 -156.5c0 -9.33301 -1.33301 -23.666 -4 -42.999s-39 -233.333 -109 -642l131 -24l-8 -45h-301l102 582c15.333 84.667 23 140 23 166z" />
    <glyph glyph-name="o" unicode="o" horiz-adv-x="1024" 
d="M237 340c0 -90 17.499 -158.833 52.499 -206.5s83.833 -71.5 146.5 -71.5c60.667 0 118.5 24.333 173.5 73s98.5 115.167 130.5 199.5s48 174.833 48 271.5c0 92 -17.5 161.833 -52.5 209.5s-85.167 71.5 -150.5 71.5c-60.667 0 -118.167 -24.333 -172.5 -73
s-97.166 -115.167 -128.499 -199.5s-47 -175.833 -47 -274.5zM426.999 -20c-110.667 0 -199.334 35.5 -266.001 106.5s-100 166.833 -100 287.5c0 107.333 23 206.666 69 297.999s109.833 163 191.5 215s173.5 78 275.5 78c110.667 0 199.334 -35.5 266.001 -106.5
s100 -166.833 100 -287.5c0 -107.333 -23 -206.666 -69 -297.999s-109.833 -163 -191.5 -215s-173.5 -78 -275.5 -78z" />
    <glyph glyph-name="p" unicode="p" horiz-adv-x="1024" 
d="M233 2l-11 -90l-48 -277l160 -24l-8 -47h-446l8 47l121 24l219 1235l-103 25l8 45h265l-19 -152c116.667 118 221.667 177 315 177c80.667 0 145.5 -29.667 194.5 -89s73.5 -141 73.5 -245c0 -117.333 -25 -226.5 -75 -327.5s-118 -180.167 -204 -237.5
s-179.333 -86 -280 -86c-30.667 0 -62.5 2.16699 -95.5 6.5s-57.833 9.5 -74.5 15.5zM257 107c41.333 -32 97.332 -48.001 167.999 -48.001c66 0 125.833 24.333 179.5 73s96.834 116.834 129.501 204.501s49 177.167 49 268.5c0 74 -14.833 131.667 -44.5 173
s-69.5 62 -119.5 62c-35.333 0 -77 -13 -125 -39s-90.667 -59.333 -128 -100z" />
    <glyph glyph-name="q" unicode="q" horiz-adv-x="1024" 
d="M419 107c48 0 95.168 6.66699 141.501 20s85.166 30.333 116.499 51l121 683c-68 18 -136 27 -204 27c-66 0 -125.833 -24.167 -179.5 -72.5s-95.667 -115 -126 -200s-45.5 -175.833 -45.5 -272.5c0 -77.333 15.167 -136 45.5 -176s73.833 -60 130.5 -60zM671.001 107
c-51.333 -38.667 -105.334 -69.5 -162.001 -92.5s-109.667 -34.5 -159 -34.5c-91.333 0 -161.166 28.333 -209.499 85s-72.5 141 -72.5 253c0 122 24 232.833 72 332.5s115.5 177 202.5 232s185.5 82.5 295.5 82.5c46.667 0 104.167 -4.5 172.5 -13.5
s123.5 -18.5 165.5 -28.5l-233 -1288l121 -24l-8 -47h-291l69 381c10.667 58 23 112 37 162z" />
    <glyph glyph-name="r" unicode="r" horiz-adv-x="797" 
d="M724 965c33.333 0 59.667 -2.66504 79 -7.99805l-44 -246h-43l-38 127c-53.333 0 -108.5 -20.333 -165.5 -61s-109.167 -94.334 -156.5 -161.001l-107 -616h-166l153 870l-118 25l8 45h277l-31 -212c50 75.333 105.833 133.666 167.5 174.999s123.167 62 184.5 62z" />
    <glyph glyph-name="s" unicode="s" horiz-adv-x="797" 
d="M692 276c0 -100.667 -31.9971 -175.167 -95.9971 -223.5s-161 -72.5 -291 -72.5c-92 0 -185.333 20.667 -280 62l41 226h45l17 -137c17.333 -18.667 41.833 -35.334 73.5 -50.001s67.5 -22 107.5 -22c146 0 219 59.667 219 179c0 39.333 -15.5 74.333 -46.5 105
s-81.5 63 -151.5 97c-67.333 32.667 -117.333 68.834 -150 108.501s-49 86.167 -49 139.5c0 88 29.667 156.167 89 204.5s141.666 72.5 246.999 72.5c75.333 0 164.666 -11.667 267.999 -35l-37 -209h-47l-14 108c-42 37.333 -97.333 56 -166 56
c-54.667 0 -98.334 -12.5 -131.001 -37.5s-49 -63.833 -49 -116.5c0 -36 14 -67.667 42 -95s81 -61 159 -101c69.333 -36 120 -74.667 152 -116s48 -89 48 -143z" />
    <glyph glyph-name="t" unicode="t" horiz-adv-x="569" 
d="M264 174c0 -30 7.49902 -52.5 22.499 -67.5s34.167 -22.5 57.5 -22.5c48.667 0 99.334 10 152.001 30l21 -47c-82 -58 -165 -87 -249 -87c-52.667 0 -94.167 16 -124.5 48s-45.5 76.667 -45.5 134c0 19.333 1.83301 42.166 5.5 68.499s40.167 234.833 109.5 625.5h-123
l8 45l133 39l137 213h64l-37 -213h215l-16 -84h-215l-97 -549c-12 -61.333 -18 -105.666 -18 -132.999z" />
    <glyph glyph-name="u" unicode="u" horiz-adv-x="1024" 
d="M268 193c0 -30 8 -54.335 24 -73.002s41.333 -28 76 -28c50 0 104 20.833 162 62.5s105.667 92.834 143 153.501l111 632h166l-153 -870l118 -25l-8 -45h-278l27 193c-55.333 -71.333 -113 -125.333 -173 -162s-119.333 -55 -178 -55c-67.333 0 -118 18.167 -152 54.5
s-51 88.5 -51 156.5c0 10 1.83301 27.833 5.5 53.5s39.5 235.834 107.5 630.501l-111 24l8 45h281l-102 -581c-15.333 -84 -23 -139.333 -23 -166z" />
    <glyph glyph-name="v" unicode="v" horiz-adv-x="909" 
d="M751 807c0 24.667 -7 44.333 -21 59s-29 24.334 -45 29.001l8 45h190c17.333 -15.333 26 -36.333 26 -63c0 -58.667 -27.667 -132 -83 -220l-423 -677h-73l-189 890l-113 25l9 45h256l145 -732l249 406c42.667 69.333 64 133.666 64 192.999z" />
    <glyph glyph-name="w" unicode="w" horiz-adv-x="1366" 
d="M900 -20l-66 -0.00292969l-124 619l-318 -619h-70l-171 890l-102 25l8 45h245l131 -707l309 601h75l122 -605l197 389c38 76 57 139 57 189c0 24.667 -7 44.334 -21 59.001s-29 24.334 -45 29.001l8 45h190c17.333 -15.333 26 -36.333 26 -63
c0 -45.333 -27.667 -118.666 -83 -219.999z" />
    <glyph glyph-name="x" unicode="x" horiz-adv-x="909" 
d="M142 84c0 -18.667 14 -31.667 42 -39l-8 -45h-185c-10.667 8.66699 -16 23 -16 43c0 18.667 10.5 41.667 31.5 69s56.167 63.666 105.5 108.999l273 254l-172 395l-107 25l8 45h248l145 -358l124 118c42.667 40.667 72.667 72.667 90 96s26 43.333 26 60
c0 6.66699 -3 12.5 -9 17.5s-22.667 12.167 -50 21.5l8 45h177c14 -10.667 21 -25 21 -43c0 -39.333 -46 -102.666 -138 -189.999l-214 -201l192 -440l116 -21l-8 -45h-256l-167 400l-171 -164c-36.667 -35.333 -63.5 -64.5 -80.5 -87.5s-25.5 -44.5 -25.5 -64.5z" />
    <glyph glyph-name="y" unicode="y" horiz-adv-x="909" 
d="M52 940l255.999 -0.00195312l145 -732l235 406c42.667 74.667 64 139 64 193c0 24.667 -7 44.334 -21 59.001s-29 24.334 -45 29.001l8 45h190c17.333 -15.333 26 -36.333 26 -63c0 -52.667 -27.667 -126 -83 -220l-396 -667c-76 -129.333 -136.167 -221 -180.5 -275
s-88.166 -93.667 -131.499 -119s-90.333 -38 -141 -38c-54 0 -103.667 6 -149 18l37 203h45l16 -96c16.667 -15.333 44 -23 82 -23c90 0 185 90 285 270l45 82l-183 858l-112 25z" />
    <glyph glyph-name="z" unicode="z" horiz-adv-x="797" 
d="M-23 0l9.00098 45l564 815h-149c-37.333 0 -73.666 -3.16699 -108.999 -9.5s-61 -14.833 -77 -25.5l-55 -135h-47l45 250h612l-8 -49l-562 -811h197c37.333 0 73.666 4.16699 108.999 12.5s64.666 19.833 87.999 34.5l76 147h47l-72 -274h-668z" />
    <glyph glyph-name="braceleft" unicode="{" horiz-adv-x="819" 
d="M367 -274c-72.667 0 -126.996 18.832 -162.996 56.499s-54 89.834 -54 156.501c0 23.333 2.66699 50.333 8 81l52 295c4.66699 23.333 7 47 7 71c0 54 -14.333 94.5 -43 121.5s-74.334 42.167 -137.001 45.5l8 45c143.333 2.66699 228.666 81.334 255.999 236.001l52 294
c16.667 94 51.167 166.333 103.5 217s122.166 76 209.499 76h135l-8 -47h-62c-60.667 0 -107 -18.167 -139 -54.5s-54.333 -89.833 -67 -160.5l-59 -330c-11.333 -62.667 -38.333 -117 -81 -163s-94.334 -75.333 -155.001 -88v-3c46.667 -11.333 83.667 -34 111 -68
s41 -77 41 -129c0 -20.667 -1.66699 -39.334 -5 -56.001l-59 -334c-5.33301 -28 -8 -53.667 -8 -77c0 -92 46 -138 138 -138h62l-8 -47h-135z" />
    <glyph glyph-name="bar" unicode="|" horiz-adv-x="563" 
d="M267 -442v1863h102v-1863h-102z" />
    <glyph glyph-name="braceright" unicode="}" horiz-adv-x="819" 
d="M36 -274l8.00293 46.999h62c60.667 0 107 18.167 139 54.5s54.333 89.833 67 160.5l59 334c11.333 64 38 118.667 80 164s94.333 75 157 89v3c-46 10.667 -82.833 33.334 -110.5 68.001s-41.5 78.334 -41.5 131.001l4 52l59 330c5.33301 29.333 8 55 8 77
c0 46 -10.833 80.5 -32.5 103.5s-56.834 34.5 -105.501 34.5h-62l8 47h136c144 0 216 -69.667 216 -209c0 -25.333 -2.66699 -53.333 -8 -84l-52 -294c-4 -25.333 -6 -48.333 -6 -69c0 -58 15.667 -99.833 47 -125.5s75.666 -39.5 132.999 -41.5l-8 -45
c-74.667 -2.66699 -133 -24 -175 -64s-69.333 -98 -82 -174l-52 -295c-16.667 -92.667 -51.834 -164.834 -105.501 -216.501s-122.5 -77.5 -206.5 -77.5h-136z" />
    <glyph glyph-name="asciitilde" unicode="~" horiz-adv-x="1108" 
d="M807 502c-70.667 0 -152.337 40.333 -245.004 121c-49.333 42 -90.166 72.5 -122.499 91.5s-61.166 28.5 -86.499 28.5c-51.333 0 -90 -18.167 -116 -54.5s-43.333 -98.5 -52 -186.5h-101c12 124.667 40.167 213.167 84.5 265.5s105.833 78.5 184.5 78.5
c37.333 0 75.833 -9.66699 115.5 -29s84.5 -50 134.5 -92c57.333 -48 99.833 -80.167 127.5 -96.5s53.167 -24.5 76.5 -24.5c46 0 82 17.5 108 52.5s45.333 98.167 58 189.5h103c-11.333 -86.667 -27.666 -153 -48.999 -199s-49.666 -81.667 -84.999 -107
s-80.333 -38 -135 -38z" />
    <glyph glyph-name="uni00A0" unicode="&#xa0;" horiz-adv-x="512" 
 />
    <glyph glyph-name="exclamdown" unicode="&#xa1;" horiz-adv-x="797" 
d="M328 840c0 32.667 11.5 61 34.5 85s51.833 36 86.5 36s63.5 -12 86.5 -36s34.5 -52.333 34.5 -85c0 -34 -11.667 -62.667 -35 -86s-52 -35 -86 -35s-62.667 11.667 -86 35s-35 52 -35 86zM354 -409h-218l229 952h94z" />
    <glyph glyph-name="cent" unicode="&#xa2;" horiz-adv-x="1024" 
d="M864 347c-46 -41.333 -96.001 -75.833 -150.001 -103.5s-107.333 -45.5 -160 -53.5l-33 -190h-82l32 185c-101.333 4 -179.666 37 -234.999 99s-83 145.667 -83 251c0 112 21.833 214.167 65.5 306.5s103.5 167 179.5 224s158 90.833 246 101.5l31 174h82l-30 -172
c95.333 -5.33301 178.666 -22.333 249.999 -51l-45 -262h-55l-16 174c-37.333 37.333 -86.666 58 -147.999 62l-141 -802c84.667 6.66699 172 39.667 262 99zM329.999 545c0 -149.333 53.333 -233.333 160 -252l139 791c-87.333 -24 -159 -86.167 -215 -186.5
s-84 -217.833 -84 -352.5z" />
    <glyph glyph-name="sterling" unicode="&#xa3;" horiz-adv-x="1024" 
d="M891 154l-27 -154h-838l20 117l92 71c60.667 45.333 106.167 91.833 136.5 139.5s45.5 97.5 45.5 149.5c0 36 -8 86.667 -24 152h-162l15 82h127c-16.667 63.333 -25 124.333 -25 183c0 148 42.167 262 126.5 342s205.166 120 362.499 120c92 0 187 -14.333 285 -43
l-45 -278h-65l-7 187c-21.333 14 -48.833 25.833 -82.5 35.5s-67.167 14.5 -100.5 14.5c-97.333 0 -172.166 -36.5 -224.499 -109.5s-78.5 -176.833 -78.5 -311.5l4 -140h278l-15 -82h-262c-2 -69.333 -6.66699 -126 -14 -170c-9.33301 -58 -30.5 -111 -63.5 -159
s-82.5 -96.667 -148.5 -146h690z" />
    <glyph glyph-name="currency" unicode="&#xa4;" horiz-adv-x="1024" 
d="M132 676c0 89.333 26.667 168.333 80 237l-107 107l74 74l104 -109c72 54.667 151.333 82 238 82s166 -27.333 238 -82l108 109l72 -72l-109 -109c54.667 -73.333 82 -152.333 82 -237c0 -86.667 -27.333 -166 -82 -238l109 -106l-72 -72l-108 107
c-68.667 -53.333 -148 -80 -238 -80c-88.667 0 -168 26.667 -238 80l-106 -107l-72 72l107 106c-53.333 70 -80 149.333 -80 238zM228 676c0 -51.333 13.168 -99.667 39.501 -145s62.166 -81.333 107.499 -108s94 -40 146 -40c80 0 149.167 28.667 207.5 86
s87.5 126.333 87.5 207s-29 150 -87 208s-127.333 87 -208 87c-51.333 0 -99.5 -13 -144.5 -39s-81 -62 -108 -108s-40.5 -95.333 -40.5 -148z" />
    <glyph glyph-name="yen" unicode="&#xa5;" horiz-adv-x="1024" 
d="M860 393l-15 -82h-279l-40 -231l167 -27l-9 -53h-536l9 53l177 27l40 231h-279l15 82h279l23 129l-6 35h-267l14 82h230l-153 623l-95 26l9 53h430l-9 -53l-136 -26l137 -628l361 628l-118 26l9 53h346l-9 -53l-109 -26l-375 -623h232l-14 -82h-267l-17 -29l-24 -135h279
z" />
    <glyph glyph-name="brokenbar" unicode="&#xa6;" horiz-adv-x="563" 
d="M267 801v620h102v-620h-102zM267 -442v622h102v-622h-102z" />
    <glyph glyph-name="section" unicode="&#xa7;" horiz-adv-x="1024" 
d="M784 69c0 -216.667 -137.333 -325 -412 -325c-51.333 0 -106 5 -164 15s-105.333 23 -142 39l41 230h45l19 -137c20 -20 50 -37 90 -51s80.667 -21 122 -21c78.667 0 138.167 17.5 178.5 52.5s60.5 84.167 60.5 147.5c0 42.667 -16.833 81.834 -50.5 117.501
s-89.5 75.5 -167.5 119.5c-74.667 42 -129.834 85.833 -165.501 131.5s-53.5 97.167 -53.5 154.5c0 81.333 26.333 148.5 79 201.5s130 86.833 232 101.5c-63.333 34.667 -108.5 71.834 -135.5 111.501s-40.5 84.167 -40.5 133.5c0 93.333 29.667 166.5 89 219.5
s144 79.5 254 79.5c77.333 0 168.333 -11.667 273 -35l-36 -209h-45l-14 108c-43.333 37.333 -101.333 56 -174 56c-58 0 -104 -13.5 -138 -40.5s-51 -68.833 -51 -125.5c0 -26.667 6.66699 -50.167 20 -70.5s31.833 -39.333 55.5 -57s72.167 -45.5 145.5 -83.5
c60.667 -32 104.834 -60.833 132.501 -86.5s49.167 -54.334 64.5 -86.001s23 -66.834 23 -105.501c0 -86 -28 -156.333 -84 -211s-135.333 -89 -238 -103c67.333 -42 115.333 -84.667 144 -128s43 -91 43 -143zM757 604c0 36 -11.666 68.3301 -34.999 96.9971
s-64.333 58.334 -123 89.001c-77.333 -4 -139.333 -24.167 -186 -60.5s-70 -84.166 -70 -143.499c0 -42.667 13.5 -78.167 40.5 -106.5s63.5 -53.5 109.5 -75.5c91.333 3.33301 158.166 21.833 200.499 55.5s63.5 81.834 63.5 144.501z" />
    <glyph glyph-name="dieresis" unicode="&#xa8;" horiz-adv-x="682" 
d="M760 1231c0 -28 -9.33301 -51.833 -28 -71.5s-42 -29.5 -70 -29.5s-51.667 10.333 -71 31s-29 44 -29 70c0 28 9.66699 51.667 29 71s43 29 71 29s51.333 -9.66699 70 -29s28 -43 28 -71zM404 1231c0 -28 -9.33301 -51.833 -28 -71.5s-42 -29.5 -70 -29.5
c-27.333 0 -51 10 -71 30s-30 43.667 -30 71c0 28 10.333 51.667 31 71s44 29 70 29c28 0 51.333 -9.66699 70 -29s28 -43 28 -71z" />
    <glyph glyph-name="copyright" unicode="&#xa9;" horiz-adv-x="1556" 
d="M118 670c0 126 31.165 242.5 93.498 349.5s146.333 190.833 252 251.5s220.5 91 344.5 91c124.667 0 240.334 -30.667 347.001 -92s190.834 -145.166 252.501 -251.499s92.5 -222.5 92.5 -348.5c0 -123.333 -30.167 -237.833 -90.5 -343.5s-144 -189.834 -251 -252.501
s-223.833 -94 -350.5 -94c-124 0 -239.333 30.667 -346 92s-190.667 145.333 -252 252s-92 222 -92 346zM187.998 670c0 -111.333 27.8301 -215.168 83.4971 -311.501s131.334 -172 227.001 -227s198.834 -82.5 309.501 -82.5c111.333 0 215 27.5 311 82.5
s172 130.5 228 226.5s84 200 84 312s-28.333 216.333 -85 313s-132.667 172.334 -228 227.001s-198.666 82 -309.999 82s-215 -27.833 -311 -83.5s-171.5 -131.667 -226.5 -228s-82.5 -199.833 -82.5 -310.5zM824.995 257.998c-130 0 -231.832 35.5 -305.499 106.5
s-110.5 170.833 -110.5 299.5c0 139.333 35.167 244.333 105.5 315s174.5 106 312.5 106c76.667 0 166 -10 268 -30l4 -187h-49l-19 105c-54.667 34 -121.334 51 -200.001 51c-98 0 -168.333 -28.333 -211 -85s-64 -147.667 -64 -273c0 -232.667 89.667 -349 269 -349
c94 0 165.667 20 215 60l22 119h49l-4 -199c-82.667 -26 -176.667 -39 -282 -39z" />
    <glyph glyph-name="ordfeminine" unicode="&#xaa;" horiz-adv-x="565" 
d="M549 836l86 -15.001l-9 -39h-200l12 74c-56 -59.333 -118.667 -89 -188 -89c-46.667 0 -84.667 19.833 -114 59.5s-44 91.834 -44 156.501c0 71.333 14.5 135.833 43.5 193.5s70.5 103 124.5 136s116 49.5 186 49.5c43.333 0 87.333 -8.66699 132 -26l6 3l32 18h30z
M508 1278c-29.333 18 -61.999 27 -97.999 27c-56.667 0 -102.834 -29.667 -138.501 -89s-53.5 -134 -53.5 -224c0 -92.667 30 -139 90 -139c40.667 0 84.667 14 132 42z" />
    <glyph glyph-name="guillemotleft" unicode="&#xab;" horiz-adv-x="1024" 
d="M539 852h61l-320 -395l183 -383h-61l-291 356l11 66zM949 852h61l-321 -395l184 -383h-61l-292 356l11 66z" />
    <glyph glyph-name="logicalnot" unicode="&#xac;" horiz-adv-x="1382" 
d="M1178 731v-528h-103v426h-850v102h953z" />
    <glyph glyph-name="uni00AD" unicode="&#xad;" horiz-adv-x="682" 
d="M76 406v153h532v-153h-532z" />
    <glyph glyph-name="registered" unicode="&#xae;" horiz-adv-x="1556" 
d="M118 670c0 126 31.165 242.5 93.498 349.5s146.333 190.833 252 251.5s220.5 91 344.5 91c124.667 0 240.334 -30.667 347.001 -92s190.834 -145.166 252.501 -251.499s92.5 -222.5 92.5 -348.5c0 -123.333 -30.167 -237.833 -90.5 -343.5s-144 -189.834 -251 -252.501
s-223.833 -94 -350.5 -94c-124 0 -239.333 30.667 -346 92s-190.667 145.333 -252 252s-92 222 -92 346zM187.998 670c0 -111.333 27.8301 -215.168 83.4971 -311.501s131.334 -172 227.001 -227s198.834 -82.5 309.501 -82.5c111.333 0 215 27.5 311 82.5
s172 130.5 228 226.5s84 200 84 312s-28.333 216.333 -85 313s-132.667 172.334 -228 227.001s-198.666 82 -309.999 82s-215 -27.833 -311 -83.5s-171.5 -131.667 -226.5 -228s-82.5 -199.833 -82.5 -310.5zM697.995 624.998v-289.001l114 -17v-43h-346v43l96 17v688
l-104 16v41h330c104 0 182.5 -19.167 235.5 -57.5s79.5 -92.833 79.5 -163.5c0 -51.333 -15 -95.666 -45 -132.999s-74.333 -65.333 -133 -84l213 -307l84 -17v-43h-205l-229 349h-90zM961.995 857.997c0 59.333 -14.332 101.167 -42.999 125.5s-81.334 36.5 -158.001 36.5
h-63v-332h67c70.667 0 121.167 12.333 151.5 37s45.5 69 45.5 133z" />
    <glyph glyph-name="overscore" unicode="&#xaf;" horiz-adv-x="1024" 
d="M1205 1452h-1059v94h1059v-94z" />
    <glyph glyph-name="degree" unicode="&#xb0;" horiz-adv-x="819" 
d="M164 1051c0 55.333 13.6689 107 41.002 155s65.166 86 113.499 114s100.166 42 155.499 42s107 -13.833 155 -41.5s86 -65.5 114 -113.5s42 -100 42 -156s-14.167 -108.167 -42.5 -156.5s-66.5 -86 -114.5 -113s-99.333 -40.5 -154 -40.5c-86.667 0 -160 30 -220 90
s-90 133.333 -90 220zM266.002 1051c0 -59.333 20.5 -109.168 61.5 -149.501s89.833 -60.5 146.5 -60.5c58.667 0 108.167 20.333 148.5 61s60.5 90.334 60.5 149.001c0 59.333 -20.167 109.333 -60.5 150s-89.833 61 -148.5 61c-56.667 0 -105.5 -20.167 -146.5 -60.5
s-61.5 -90.5 -61.5 -150.5z" />
    <glyph glyph-name="plusminus" unicode="&#xb1;" horiz-adv-x="1124" 
d="M622 629v-426h-103v426h-424v102h424v426h103v-426h426v-102h-426zM1048 102v-102h-953v102h953z" />
    <glyph glyph-name="twosuperior" unicode="&#xb2;" horiz-adv-x="614" 
d="M547 535l-497.999 0.00195312l15 96c140 102 235 177.667 285 227s87.333 98.5 112 147.5s37 100.833 37 155.5c0 34.667 -9.33301 63.5 -28 86.5s-46.334 34.5 -83.001 34.5c-41.333 0 -81.333 -11 -120 -33l-38 -98h-55l31 172c75.333 18 140 27 194 27
c77.333 0 137 -17 179 -51s63 -80 63 -138c0 -64.667 -22.833 -127.834 -68.5 -189.501s-119.167 -128.834 -220.5 -201.501l-173 -127h387z" />
    <glyph glyph-name="threesuperior" unicode="&#xb3;" horiz-adv-x="614" 
d="M259 522c-74.667 0 -147.333 9 -218 27l26 186h55l7 -112c13.333 -8.66699 32.166 -16.334 56.499 -23.001s48.833 -10 73.5 -10c68.667 0 120.167 15.667 154.5 47s51.5 80.333 51.5 147c0 82 -46.333 126.667 -139 134l-85 6l12 65l87 4c48 2 86.5 17.333 115.5 46
s43.5 73.667 43.5 135c0 72 -40.667 108 -122 108c-43.333 0 -83 -9.66699 -119 -29l-38 -102h-55l31 172c70.667 18 134.667 27 192 27c76.667 0 137.834 -15.667 183.501 -47s68.5 -73.666 68.5 -126.999c0 -60 -19 -108.833 -57 -146.5s-94.667 -62.167 -170 -73.5
c63.333 -7.33301 111.333 -25.5 144 -54.5s49 -66.833 49 -113.5c0 -79.333 -30.833 -143.5 -92.5 -192.5s-146.5 -73.5 -254.5 -73.5z" />
    <glyph glyph-name="acute" unicode="&#xb4;" horiz-adv-x="682" 
d="M248 1118l5 33l244 272h213l-6 -37l-401 -268h-55z" />
    <glyph glyph-name="mu1" unicode="&#xb5;" horiz-adv-x="1180" 
d="M719 124c-96 -96 -182 -143.999 -258 -143.999c-70.667 0 -116 26 -136 78c-32.667 -187.333 -73 -352 -121 -494h-177l8 45c22.667 47.333 46.667 115.166 72 203.499s45.333 173.833 60 256.5l141 801l-135 25l8 45h306l-115 -652l-4 -46
c0 -46 12.667 -81.833 38 -107.5s59.333 -38.5 102 -38.5c32 0 69.5 11 112.5 33s79.833 50 110.5 84l131 727h163l-154 -870l133 -25l-8 -45h-278z" />
    <glyph glyph-name="paragraph" unicode="&#xb6;" horiz-adv-x="1071" 
d="M924 1266l-0.000976562 -1524h-94v1524h-170v-1524h-94l2 823c-139.333 0 -248.666 35.167 -327.999 105.5s-119 167.833 -119 292.5c0 122 37.333 215.5 112 280.5s182 97.5 322 97.5h463v-53z" />
    <glyph glyph-name="middot" unicode="&#xb7;" horiz-adv-x="512" 
d="M407 678c0 -34 -11.667 -62.667 -35 -86s-52 -35 -86 -35s-62.667 11.667 -86 35s-35 52 -35 86c0 32.667 11.5 61 34.5 85s51.833 36 86.5 36s63.5 -12 86.5 -36s34.5 -52.333 34.5 -85z" />
    <glyph glyph-name="cedilla" unicode="&#xb8;" horiz-adv-x="682" 
d="M526 -212c0 -65.333 -23.832 -117.501 -71.499 -156.501s-116.834 -58.5 -207.501 -58.5c-48 0 -92.333 7 -133 21l23 75c32 -10.667 64.333 -16 97 -16c40.667 0 73.667 9.16699 99 27.5s38 46.5 38 84.5c0 29.333 -11.333 53.833 -34 73.5s-55.667 31.5 -99 35.5
l68 153h86l-33 -82c53.333 -5.33301 94.5 -21.666 123.5 -48.999s43.5 -63.333 43.5 -108z" />
    <glyph glyph-name="onesuperior" unicode="&#xb9;" horiz-adv-x="614" 
d="M388 598l164 -14l-9 -49h-474l8 49l167 14l110 625l-171 -58l8 47l257 134h72z" />
    <glyph glyph-name="ordmasculine" unicode="&#xba;" horiz-adv-x="635" 
d="M430 1305c-52 0 -96.499 -29.333 -133.499 -88s-55.5 -131.667 -55.5 -219c0 -54 9.83301 -95.667 29.5 -125s47.167 -44 82.5 -44c53.333 0 98.5 29.667 135.5 89s55.5 131 55.5 215c0 56.667 -9.83301 99.5 -29.5 128.5s-47.834 43.5 -84.501 43.5zM340.001 770
c-67.333 0 -121.833 21.167 -163.5 63.5s-62.5 100.166 -62.5 173.499c0 64.667 14.167 124.5 42.5 179.5s67.833 98 118.5 129s107.667 46.5 171 46.5c67.333 0 121.833 -21.167 163.5 -63.5s62.5 -100.166 62.5 -173.499c0 -100.667 -31.167 -185 -93.5 -253
s-141.833 -102 -238.5 -102z" />
    <glyph glyph-name="guillemotright" unicode="&#xbb;" horiz-adv-x="1024" 
d="M484 74h-61l321 396l-184 382h61l291 -356l-11 -66zM74 74h-61l322 396l-185 382h61l292 -356l-11 -66z" />
    <glyph glyph-name="onequarter" unicode="&#xbc;" horiz-adv-x="1536" 
d="M413 0h-102l964 1341h100zM391 598l164 -14l-9 -49h-474l8 49l167 14l110 625l-171 -58l8 47l257 134h72zM1326 160l-28 -159h-142l28 159h-365l18 97l497 550h107l-96 -544h121l-19 -103h-121zM1270 642h-2l-344 -379h279z" />
    <glyph glyph-name="onehalf" unicode="&#xbd;" horiz-adv-x="1536" 
d="M358 0h-102l964 1341h100zM391 598l164 -14l-9 -49h-474l8 49l167 14l110 625l-171 -58l8 47l257 134h72zM1386 1l-497.999 0.00195312l15 96c140 102 235 177.667 285 227s87.333 98.5 112 147.5s37 100.833 37 155.5c0 34.667 -9.33301 63.5 -28 86.5
s-46.334 34.5 -83.001 34.5c-41.333 0 -81.333 -11 -120 -33l-38 -98h-55l31 172c75.333 18 140 27 194 27c77.333 0 137 -17 179 -51s63 -80 63 -138c0 -64.667 -22.833 -127.834 -68.5 -189.501s-119.167 -128.834 -220.5 -201.501l-173 -127h387z" />
    <glyph glyph-name="threequarters" unicode="&#xbe;" horiz-adv-x="1536" 
d="M413 0h-102l964 1341h100zM337 522c-74.667 0 -147.333 9 -218 27l26 186h55l7 -112c13.333 -8.66699 32.166 -16.334 56.499 -23.001s48.833 -10 73.5 -10c68.667 0 120.167 15.667 154.5 47s51.5 80.333 51.5 147c0 82 -46.333 126.667 -139 134l-85 6l12 65l87 4
c48 2 86.5 17.333 115.5 46s43.5 73.667 43.5 135c0 72 -40.667 108 -122 108c-43.333 0 -83 -9.66699 -119 -29l-38 -102h-55l31 172c70.667 18 134.667 27 192 27c76.667 0 137.834 -15.667 183.501 -47s68.5 -73.666 68.5 -126.999c0 -60 -19 -108.833 -57 -146.5
s-94.667 -62.167 -170 -73.5c63.333 -7.33301 111.333 -25.5 144 -54.5s49 -66.833 49 -113.5c0 -79.333 -30.833 -143.5 -92.5 -192.5s-146.5 -73.5 -254.5 -73.5zM1327 160l-28 -159h-142l28 159h-365l18 97l497 550h107l-96 -544h121l-19 -103h-121zM1271 642h-2
l-344 -379h279z" />
    <glyph glyph-name="questiondown" unicode="&#xbf;" horiz-adv-x="1024" 
d="M593 582h80l-33 -334l-148 -29c-77.333 -15.333 -134.333 -49.833 -171 -103.5s-55 -131.834 -55 -234.501c0 -147.333 66.333 -221 199 -221c39.333 0 79.5 7 120.5 21s75.167 31 102.5 51l50 164h66l-31 -254c-106 -44 -212.333 -66 -319 -66
c-244 0 -366 97.667 -366 293c0 238.667 129 385.334 387 440.001l59 13zM550 840c0 32.667 11.499 61 34.499 85s51.5 36 85.5 36c34.667 0 63.5 -12 86.5 -36s34.5 -52.333 34.5 -85c0 -34 -11.667 -62.667 -35 -86s-52 -35 -86 -35c-33.333 0 -61.666 11.5 -84.999 34.5
s-35 51.833 -35 86.5z" />
    <glyph glyph-name="Agrave" unicode="&#xc0;" horiz-adv-x="1251" 
d="M264 53l-10 -53h-366l10 53l112 27l682 1272h191l250 -1272l125 -27l-11 -53h-475l11 53l143 27l-64 387h-528l-205 -387zM723 1208l-344 -651h467zM871 1452l-307 268l6 37h203l158 -272l-5 -33h-55z" />
    <glyph glyph-name="Aacute" unicode="&#xc1;" horiz-adv-x="1251" 
d="M264 53l-10 -53h-366l10 53l112 27l682 1272h191l250 -1272l125 -27l-11 -53h-475l11 53l143 27l-64 387h-528l-205 -387zM723 1208l-344 -651h467zM691 1452l5 33l244 272h213l-6 -37l-401 -268h-55z" />
    <glyph glyph-name="Acircumflex" unicode="&#xc2;" horiz-adv-x="1251" 
d="M264 53l-10 -53h-366l10 53l112 27l682 1272h191l250 -1272l125 -27l-11 -53h-475l11 53l143 27l-64 387h-528l-205 -387zM723 1208l-344 -651h467zM486 1452l5 33l235 273h213l139 -273l-5 -33h-47l-206 183l-270 -183h-64z" />
    <glyph glyph-name="Atilde" unicode="&#xc3;" horiz-adv-x="1251" 
d="M264 53l-10 -53h-366l10 53l112 27l682 1272h191l250 -1272l125 -27l-11 -53h-475l11 53l143 27l-64 387h-528l-205 -387zM723 1208l-344 -651h467zM922 1479c-32 0 -60.165 7.16602 -84.498 21.499s-47 30.333 -68 48s-41.333 33.667 -61 48s-40.5 21.5 -62.5 21.5
c-21.333 0 -38.833 -3.83301 -52.5 -11.5s-25.334 -18.167 -35.001 -31.5s-20.834 -38.666 -33.501 -75.999h-52c21.333 84.667 51.5 146.167 90.5 184.5s88.167 57.5 147.5 57.5c32 0 60.333 -7.16699 85 -21.5s47.5 -30.333 68.5 -48s41.333 -33.667 61 -48
s40.167 -21.5 61.5 -21.5c28 0 51.333 8 70 24s35.667 47.333 51 94h52c-21.333 -83.333 -51.5 -144.333 -90.5 -183s-88.167 -58 -147.5 -58z" />
    <glyph glyph-name="Adieresis" unicode="&#xc4;" horiz-adv-x="1251" 
d="M264 53l-10 -53h-366l10 53l112 27l682 1272h191l250 -1272l125 -27l-11 -53h-475l11 53l143 27l-64 387h-528l-205 -387zM723 1208l-344 -651h467zM1096 1565c0 -28 -9.33301 -51.833 -28 -71.5s-42 -29.5 -70 -29.5s-51.667 10.333 -71 31s-29 44 -29 70
c0 28 9.66699 51.667 29 71s43 29 71 29s51.333 -9.66699 70 -29s28 -43 28 -71zM740 1565c0 -28 -9.33301 -51.833 -28 -71.5s-42 -29.5 -70 -29.5c-27.333 0 -51 10 -71 30s-30 43.667 -30 71c0 28 10.333 51.667 31 71s44 29 70 29c28 0 51.333 -9.66699 70 -29
s28 -43 28 -71z" />
    <glyph glyph-name="Aring" unicode="&#xc5;" horiz-adv-x="1251" 
d="M993 1475c0 -38 -9.16699 -72.334 -27.5 -103.001s-42.5 -54.667 -72.5 -72l240 -1220l125 -27l-11 -53h-475l11 53l143 27l-64 387h-528l-205 -387l135 -27l-10 -53h-366l10 53l112 27l660 1230c-25.333 18.667 -45.5 42.334 -60.5 71.001s-22.5 60 -22.5 94
c0 56 19.833 103.833 59.5 143.5s87.5 59.5 143.5 59.5s103.833 -19.833 143.5 -59.5s59.5 -87.5 59.5 -143.5zM723 1208l-344 -651h467zM913 1475c0 34 -12 63 -36 87s-53 36 -87 36s-63 -12 -87 -36s-36 -53 -36 -87c0 -33.333 11.5 -62.166 34.5 -86.499
s50.833 -36.5 83.5 -36.5h5c32 0 60.5 11.667 85.5 35s37.5 52.666 37.5 87.999z" />
    <glyph glyph-name="AE" unicode="&#xc6;" horiz-adv-x="1821" 
d="M799 467h-412.001l-275 -387l153 -27l-9 -53h-402l9 53l131 27l856 1190l-160 18l9 53h1089l-57 -321h-66l6 217c-72.667 9.33301 -179.667 14 -321 14h-219l-93 -524h362l60 160h64l-73 -412h-64l-2 162h-362l-97 -547h264c170.667 0 284.334 5.33301 341.001 16
l101 248h66l-82 -354h-1070l10 53l175 27zM451.999 557h363l119 674z" />
    <glyph glyph-name="Ccedilla" unicode="&#xc7;" horiz-adv-x="1366" 
d="M699 -19c-183.333 0 -326.668 47.999 -430.001 143.999s-155 228.667 -155 398c0 165.333 34.5 311.333 103.5 438s167 224.167 294 292.5s272.167 102.5 435.5 102.5c140.667 0 286.667 -17 438 -51l-45 -293h-65v174c-41.333 28.667 -91.333 50.834 -150 66.501
s-120 23.5 -184 23.5c-120.667 0 -228.834 -32.167 -324.501 -96.5s-170 -155.5 -223 -273.5s-79.5 -252.333 -79.5 -403c0 -143.333 34.833 -252.5 104.5 -327.5s168.834 -112.5 297.501 -112.5c76 0 150.333 11.333 223 34s131.667 51.667 177 87l72 201h65l-61 -315
c-76.667 -28 -159.167 -49.833 -247.5 -65.5s-170.166 -23.5 -245.499 -23.5zM874.998 -212.001c0 -65.333 -23.832 -117.501 -71.499 -156.501s-116.834 -58.5 -207.501 -58.5c-48 0 -92.333 7 -133 21l23 75c32 -10.667 64.333 -16 97 -16
c40.667 0 73.667 9.16699 99 27.5s38 46.5 38 84.5c0 29.333 -11.333 53.833 -34 73.5s-55.667 31.5 -99 35.5l68 153h86l-33 -82c53.333 -5.33301 94.5 -21.666 123.5 -48.999s43.5 -63.333 43.5 -108z" />
    <glyph glyph-name="Egrave" unicode="&#xc8;" horiz-adv-x="1251" 
d="M370 1262l-168.001 26l10 53h1006l-57 -321h-66l6 217c-72.667 9.33301 -179.667 14 -321 14h-219l-93 -524h362l60 160h64l-73 -412h-64l-2 162h-362l-97 -547h264c170.667 0 284.334 5.33301 341.001 16l101 248h66l-82 -354h-1070l10 53l175 27zM862.999 1452
l-307 268l6 37h203l158 -272l-5 -33h-55z" />
    <glyph glyph-name="Eacute" unicode="&#xc9;" horiz-adv-x="1251" 
d="M370 1262l-168.001 26l10 53h1006l-57 -321h-66l6 217c-72.667 9.33301 -179.667 14 -321 14h-219l-93 -524h362l60 160h64l-73 -412h-64l-2 162h-362l-97 -547h264c170.667 0 284.334 5.33301 341.001 16l101 248h66l-82 -354h-1070l10 53l175 27zM655.999 1452l5 33
l244 272h213l-6 -37l-401 -268h-55z" />
    <glyph glyph-name="Ecircumflex" unicode="&#xca;" horiz-adv-x="1251" 
d="M370 1262l-168.001 26l10 53h1006l-57 -321h-66l6 217c-72.667 9.33301 -179.667 14 -321 14h-219l-93 -524h362l60 160h64l-73 -412h-64l-2 162h-362l-97 -547h264c170.667 0 284.334 5.33301 341.001 16l101 248h66l-82 -354h-1070l10 53l175 27zM516.999 1452l5 33
l235 273h213l139 -273l-5 -33h-47l-206 183l-270 -183h-64z" />
    <glyph glyph-name="Edieresis" unicode="&#xcb;" horiz-adv-x="1251" 
d="M370 1262l-168.001 26l10 53h1006l-57 -321h-66l6 217c-72.667 9.33301 -179.667 14 -321 14h-219l-93 -524h362l60 160h64l-73 -412h-64l-2 162h-362l-97 -547h264c170.667 0 284.334 5.33301 341.001 16l101 248h66l-82 -354h-1070l10 53l175 27zM1072 1596
c0 -28 -9.33301 -51.833 -28 -71.5s-42 -29.5 -70 -29.5s-51.667 10.333 -71 31s-29 44 -29 70c0 28 9.66699 51.667 29 71s43 29 71 29s51.333 -9.66699 70 -29s28 -43 28 -71zM715.999 1596c0 -28 -9.33301 -51.833 -28 -71.5s-42 -29.5 -70 -29.5
c-27.333 0 -51 10 -71 30s-30 43.667 -30 71c0 28 10.333 51.667 31 71s44 29 70 29c28 0 51.333 -9.66699 70 -29s28 -43 28 -71z" />
    <glyph glyph-name="Igrave" unicode="&#xcc;" horiz-adv-x="682" 
d="M369 80l166 -27l-8 -53h-535l8 53l176 27l207 1182l-166 26l8 53h537l-8 -53l-178 -26zM598 1452l-307 268l6 37h203l158 -272l-5 -33h-55z" />
    <glyph glyph-name="Iacute" unicode="&#xcd;" horiz-adv-x="682" 
d="M369 80l166 -27l-8 -53h-535l8 53l176 27l207 1182l-166 26l8 53h537l-8 -53l-178 -26zM402 1452l5 33l244 272h213l-6 -37l-401 -268h-55z" />
    <glyph glyph-name="Icircumflex" unicode="&#xce;" horiz-adv-x="682" 
d="M369 80l166 -27l-8 -53h-535l8 53l176 27l207 1182l-166 26l8 53h537l-8 -53l-178 -26zM219 1452l5 33l235 273h213l139 -273l-5 -33h-47l-206 183l-270 -183h-64z" />
    <glyph glyph-name="Idieresis" unicode="&#xcf;" horiz-adv-x="682" 
d="M369 80l166 -27l-8 -53h-535l8 53l176 27l207 1182l-166 26l8 53h537l-8 -53l-178 -26zM806 1596c0 -28 -9.33301 -51.833 -28 -71.5s-42 -29.5 -70 -29.5s-51.667 10.333 -71 31s-29 44 -29 70c0 28 9.66699 51.667 29 71s43 29 71 29s51.333 -9.66699 70 -29
s28 -43 28 -71zM450 1596c0 -28 -9.33301 -51.833 -28 -71.5s-42 -29.5 -70 -29.5c-27.333 0 -51 10 -71 30s-30 43.667 -30 71c0 28 10.333 51.667 31 71s44 29 70 29c28 0 51.333 -9.66699 70 -29s28 -43 28 -71z" />
    <glyph glyph-name="Eth" unicode="&#xd0;" horiz-adv-x="1479" 
d="M784 1341c215.333 0 379.833 -47.1699 493.5 -141.503s170.5 -230.166 170.5 -407.499c0 -159.333 -33.5 -299.666 -100.5 -420.999s-162.5 -214.166 -286.5 -278.499s-268 -96.5 -432 -96.5l-481 4h-171l9 53l176 27l96 549h-180l15 82h180l97 551l-167 26l9 53h572z
M1238 784.997c0 310.667 -171.667 466 -515 466h-162l-95 -540h375l-15 -82h-375l-94 -535c106.667 -5.33301 194.667 -8 264 -8c196 0 347.833 60.5 455.5 181.5s161.5 293.5 161.5 517.5z" />
    <glyph glyph-name="Ntilde" unicode="&#xd1;" horiz-adv-x="1366" 
d="M1170 1262l-176 26l10 53h457l-10 -53l-176 -26l-223 -1262h-97l-481 1206l-199 -1126l176 -27l-10 -53h-456l10 53l175 27l209 1182l-168 26l10 53h388l399 -1005zM1012 1479c-32 0 -60.165 7.16602 -84.498 21.499s-47 30.333 -68 48s-41.333 33.667 -61 48
s-40.5 21.5 -62.5 21.5c-21.333 0 -38.833 -3.83301 -52.5 -11.5s-25.334 -18.167 -35.001 -31.5s-20.834 -38.666 -33.501 -75.999h-52c21.333 84.667 51.5 146.167 90.5 184.5s88.167 57.5 147.5 57.5c32 0 60.333 -7.16699 85 -21.5s47.5 -30.333 68.5 -48
s41.333 -33.667 61 -48s40.167 -21.5 61.5 -21.5c28 0 51.333 8 70 24s35.667 47.333 51 94h52c-21.333 -83.333 -51.5 -144.333 -90.5 -183s-88.167 -58 -147.5 -58z" />
    <glyph glyph-name="Ograve" unicode="&#xd2;" horiz-adv-x="1479" 
d="M1231 832c0 133.333 -34.166 240.667 -102.499 322s-158.5 122 -270.5 122c-99.333 0 -190.5 -33.833 -273.5 -101.5s-150.667 -164.5 -203 -290.5s-78.5 -253 -78.5 -381c0 -132 33.5 -238 100.5 -318s155.833 -120 266.5 -120c99.333 0 191.166 33.5 275.499 100.5
s153 163.5 206 289.5s79.5 251.667 79.5 377zM663.001 -19.999c-107.333 0 -203.833 22.501 -289.5 67.501s-152.167 108.5 -199.5 190.5s-71 174 -71 276c0 160.667 33.333 306.167 100 436.5s157.667 230.5 273 300.5s247 105 395 105
c107.333 0 203.833 -22.5 289.5 -67.5s152.167 -108.333 199.5 -190s71 -173.834 71 -276.501c0 -158 -33.5 -303.333 -100.5 -436s-158 -233.5 -273 -302.5s-246.5 -103.5 -394.5 -103.5zM1040 1452l-307 268l6 37h203l158 -272l-5 -33h-55z" />
    <glyph glyph-name="Oacute" unicode="&#xd3;" horiz-adv-x="1479" 
d="M1231 832c0 133.333 -34.166 240.667 -102.499 322s-158.5 122 -270.5 122c-99.333 0 -190.5 -33.833 -273.5 -101.5s-150.667 -164.5 -203 -290.5s-78.5 -253 -78.5 -381c0 -132 33.5 -238 100.5 -318s155.833 -120 266.5 -120c99.333 0 191.166 33.5 275.499 100.5
s153 163.5 206 289.5s79.5 251.667 79.5 377zM663.001 -19.999c-107.333 0 -203.833 22.501 -289.5 67.501s-152.167 108.5 -199.5 190.5s-71 174 -71 276c0 160.667 33.333 306.167 100 436.5s157.667 230.5 273 300.5s247 105 395 105
c107.333 0 203.833 -22.5 289.5 -67.5s152.167 -108.333 199.5 -190s71 -173.834 71 -276.501c0 -158 -33.5 -303.333 -100.5 -436s-158 -233.5 -273 -302.5s-246.5 -103.5 -394.5 -103.5zM836.001 1452l5 33l244 272h213l-6 -37l-401 -268h-55z" />
    <glyph glyph-name="Ocircumflex" unicode="&#xd4;" horiz-adv-x="1479" 
d="M1231 832c0 133.333 -34.166 240.667 -102.499 322s-158.5 122 -270.5 122c-99.333 0 -190.5 -33.833 -273.5 -101.5s-150.667 -164.5 -203 -290.5s-78.5 -253 -78.5 -381c0 -132 33.5 -238 100.5 -318s155.833 -120 266.5 -120c99.333 0 191.166 33.5 275.499 100.5
s153 163.5 206 289.5s79.5 251.667 79.5 377zM663.001 -19.999c-107.333 0 -203.833 22.501 -289.5 67.501s-152.167 108.5 -199.5 190.5s-71 174 -71 276c0 160.667 33.333 306.167 100 436.5s157.667 230.5 273 300.5s247 105 395 105
c107.333 0 203.833 -22.5 289.5 -67.5s152.167 -108.333 199.5 -190s71 -173.834 71 -276.501c0 -158 -33.5 -303.333 -100.5 -436s-158 -233.5 -273 -302.5s-246.5 -103.5 -394.5 -103.5zM626.001 1452l5 33l235 273h213l139 -273l-5 -33h-47l-206 183l-270 -183h-64z" />
    <glyph glyph-name="Otilde" unicode="&#xd5;" horiz-adv-x="1479" 
d="M1231 832c0 133.333 -34.166 240.667 -102.499 322s-158.5 122 -270.5 122c-99.333 0 -190.5 -33.833 -273.5 -101.5s-150.667 -164.5 -203 -290.5s-78.5 -253 -78.5 -381c0 -132 33.5 -238 100.5 -318s155.833 -120 266.5 -120c99.333 0 191.166 33.5 275.499 100.5
s153 163.5 206 289.5s79.5 251.667 79.5 377zM663.001 -19.999c-107.333 0 -203.833 22.501 -289.5 67.501s-152.167 108.5 -199.5 190.5s-71 174 -71 276c0 160.667 33.333 306.167 100 436.5s157.667 230.5 273 300.5s247 105 395 105
c107.333 0 203.833 -22.5 289.5 -67.5s152.167 -108.333 199.5 -190s71 -173.834 71 -276.501c0 -158 -33.5 -303.333 -100.5 -436s-158 -233.5 -273 -302.5s-246.5 -103.5 -394.5 -103.5zM1043 1479c-32 0 -60.165 7.16602 -84.498 21.499s-47 30.333 -68 48
s-41.333 33.667 -61 48s-40.5 21.5 -62.5 21.5c-21.333 0 -38.833 -3.83301 -52.5 -11.5s-25.334 -18.167 -35.001 -31.5s-20.834 -38.666 -33.501 -75.999h-52c21.333 84.667 51.5 146.167 90.5 184.5s88.167 57.5 147.5 57.5c32 0 60.333 -7.16699 85 -21.5
s47.5 -30.333 68.5 -48s41.333 -33.667 61 -48s40.167 -21.5 61.5 -21.5c28 0 51.333 8 70 24s35.667 47.333 51 94h52c-21.333 -83.333 -51.5 -144.333 -90.5 -183s-88.167 -58 -147.5 -58z" />
    <glyph glyph-name="Odieresis" unicode="&#xd6;" horiz-adv-x="1479" 
d="M1231 832c0 133.333 -34.166 240.667 -102.499 322s-158.5 122 -270.5 122c-99.333 0 -190.5 -33.833 -273.5 -101.5s-150.667 -164.5 -203 -290.5s-78.5 -253 -78.5 -381c0 -132 33.5 -238 100.5 -318s155.833 -120 266.5 -120c99.333 0 191.166 33.5 275.499 100.5
s153 163.5 206 289.5s79.5 251.667 79.5 377zM663.001 -19.999c-107.333 0 -203.833 22.501 -289.5 67.501s-152.167 108.5 -199.5 190.5s-71 174 -71 276c0 160.667 33.333 306.167 100 436.5s157.667 230.5 273 300.5s247 105 395 105
c107.333 0 203.833 -22.5 289.5 -67.5s152.167 -108.333 199.5 -190s71 -173.834 71 -276.501c0 -158 -33.5 -303.333 -100.5 -436s-158 -233.5 -273 -302.5s-246.5 -103.5 -394.5 -103.5zM1194 1596c0 -28 -9.33301 -51.833 -28 -71.5s-42 -29.5 -70 -29.5
s-51.667 10.333 -71 31s-29 44 -29 70c0 28 9.66699 51.667 29 71s43 29 71 29s51.333 -9.66699 70 -29s28 -43 28 -71zM838.001 1596c0 -28 -9.33301 -51.833 -28 -71.5s-42 -29.5 -70 -29.5c-27.333 0 -51 10 -71 30s-30 43.667 -30 71c0 28 10.333 51.667 31 71
s44 29 70 29c28 0 51.333 -9.66699 70 -29s28 -43 28 -71z" />
    <glyph glyph-name="multiply" unicode="&#xd7;" horiz-adv-x="1382" 
d="M708 608l-345 -344l-71 72l344 346l-344 342l74 74l342 -344l346 344l71 -72l-344 -344l344 -346l-71 -72z" />
    <glyph glyph-name="Oslash" unicode="&#xd8;" horiz-adv-x="1479" 
d="M663 -20c-157.333 0 -288.333 46.001 -393 138.001l-173 -173h-119l235 235c-73.333 92.667 -110 204 -110 334c0 160.667 33.333 306.167 100 436.5s157.667 230.5 273 300.5s247 105 395 105c154.667 0 283.667 -44.667 387 -134l169 169h115l-228 -228
c78 -94.667 117 -208.334 117 -341.001c0 -158 -33.5 -303.333 -100.5 -436s-158 -233.5 -273 -302.5s-246.5 -103.5 -394.5 -103.5zM1231 832.001c0 78 -12.332 148.333 -36.999 211l-819 -820c32 -50 73 -88.833 123 -116.5s107.333 -41.5 172 -41.5
c99.333 0 191.166 33.5 275.499 100.5s153 163.5 206 289.5s79.5 251.667 79.5 377zM303.001 503.001c0 -76 11 -143 33 -201l818 817c-32.667 50 -74.167 88.667 -124.5 116s-107.5 41 -171.5 41c-99.333 0 -190.5 -33.833 -273.5 -101.5s-150.667 -164.5 -203 -290.5
s-78.5 -253 -78.5 -381z" />
    <glyph glyph-name="Ugrave" unicode="&#xd9;" horiz-adv-x="1479" 
d="M1299 1262l-174.998 26l9 53h457l-9 -53l-177 -26l-141 -801c-26.667 -152.667 -91.334 -271 -194.001 -355s-232.667 -126 -390 -126c-155.333 0 -273.666 31.5 -354.999 94.5s-122 154.167 -122 273.5c0 36.667 3.33301 71.667 10 105l143 809l-167 26l9 53h536l-9 -53
l-177 -26l-141 -805c-6.66699 -36 -10 -70 -10 -102c0 -175.333 100 -263 300 -263c127.333 0 231.166 31.667 311.499 95s130.166 152 149.499 266zM971.002 1452l-307 268l6 37h203l158 -272l-5 -33h-55z" />
    <glyph glyph-name="Uacute" unicode="&#xda;" horiz-adv-x="1479" 
d="M1299 1262l-174.998 26l9 53h457l-9 -53l-177 -26l-141 -801c-26.667 -152.667 -91.334 -271 -194.001 -355s-232.667 -126 -390 -126c-155.333 0 -273.666 31.5 -354.999 94.5s-122 154.167 -122 273.5c0 36.667 3.33301 71.667 10 105l143 809l-167 26l9 53h536l-9 -53
l-177 -26l-141 -805c-6.66699 -36 -10 -70 -10 -102c0 -175.333 100 -263 300 -263c127.333 0 231.166 31.667 311.499 95s130.166 152 149.499 266zM821.002 1452l5 33l244 272h213l-6 -37l-401 -268h-55z" />
    <glyph glyph-name="Ucircumflex" unicode="&#xdb;" horiz-adv-x="1479" 
d="M1299 1262l-174.998 26l9 53h457l-9 -53l-177 -26l-141 -801c-26.667 -152.667 -91.334 -271 -194.001 -355s-232.667 -126 -390 -126c-155.333 0 -273.666 31.5 -354.999 94.5s-122 154.167 -122 273.5c0 36.667 3.33301 71.667 10 105l143 809l-167 26l9 53h536l-9 -53
l-177 -26l-141 -805c-6.66699 -36 -10 -70 -10 -102c0 -175.333 100 -263 300 -263c127.333 0 231.166 31.667 311.499 95s130.166 152 149.499 266zM662.002 1452l5 33l235 273h213l139 -273l-5 -33h-47l-206 183l-270 -183h-64z" />
    <glyph glyph-name="Udieresis" unicode="&#xdc;" horiz-adv-x="1479" 
d="M1299 1262l-174.998 26l9 53h457l-9 -53l-177 -26l-141 -801c-26.667 -152.667 -91.334 -271 -194.001 -355s-232.667 -126 -390 -126c-155.333 0 -273.666 31.5 -354.999 94.5s-122 154.167 -122 273.5c0 36.667 3.33301 71.667 10 105l143 809l-167 26l9 53h536l-9 -53
l-177 -26l-141 -805c-6.66699 -36 -10 -70 -10 -102c0 -175.333 100 -263 300 -263c127.333 0 231.166 31.667 311.499 95s130.166 152 149.499 266zM1260 1596c0 -28 -9.33301 -51.833 -28 -71.5s-42 -29.5 -70 -29.5s-51.667 10.333 -71 31s-29 44 -29 70
c0 28 9.66699 51.667 29 71s43 29 71 29s51.333 -9.66699 70 -29s28 -43 28 -71zM904.002 1596c0 -28 -9.33301 -51.833 -28 -71.5s-42 -29.5 -70 -29.5c-27.333 0 -51 10 -71 30s-30 43.667 -30 71c0 28 10.333 51.667 31 71s44 29 70 29c28 0 51.333 -9.66699 70 -29
s28 -43 28 -71z" />
    <glyph glyph-name="Yacute" unicode="&#xdd;" horiz-adv-x="1139" 
d="M609 80l209 -27l-10 -53h-619l10 53l217 27l78 442l-230 740l-147 26l10 53h547l-10 -53l-194 -26l188 -627l393 627l-176 26l10 53h436l-10 -53l-151 -26l-472 -734zM638 1452l5 33l244 272h213l-6 -37l-401 -268h-55z" />
    <glyph glyph-name="Thorn" unicode="&#xde;" horiz-adv-x="1251" 
d="M566 358c258.667 0 387.999 119 387.999 357c0 95.333 -24.167 165.5 -72.5 210.5s-121.166 67.5 -218.499 67.5h-148l-112 -635h163zM702.999 1083c144 0 255 -29.833 333 -89.5s117 -148.167 117 -265.5c0 -149.333 -48.833 -263.333 -146.5 -342
s-237.167 -118 -418.5 -118h-201l-33 -188l219 -27l-10 -53h-574l10 53l162 27l209 1182l-155 26l10 53h524l-10 -53l-176 -26l-32 -179h172z" />
    <glyph glyph-name="germandbls" unicode="&#xdf;" horiz-adv-x="1024" 
d="M675 775c0 -36.667 9.5 -69.8311 28.5 -99.498s51.5 -63.167 97.5 -100.5c42.667 -34.667 74.334 -71.334 95.001 -110.001s31 -82.667 31 -132c0 -110 -31 -196.333 -93 -259s-150 -94 -264 -94c-41.333 0 -84.166 4.33301 -128.499 13s-76.5 20 -96.5 34l34 192h45
l10 -94c12 -18.667 31.167 -34.334 57.5 -47.001s56.5 -19 90.5 -19c57.333 0 102.333 19.667 135 59s49 92.333 49 159c0 39.333 -10.167 75 -30.5 107s-51.5 65 -93.5 99c-42 33.333 -73.333 68.333 -94 105s-31 78 -31 124c0 186 101 297.667 303 335
c10 56.667 15 105 15 145c0 62.667 -12.667 106.667 -38 132s-63.333 38 -114 38c-130.667 0 -210.334 -84 -239.001 -252l-195 -1110h-306l7 45l145 25l175 991c22.667 125.333 69.667 220.166 141 284.499s166.666 96.5 285.999 96.5c100 0 174 -22.667 222 -68
s72 -117.666 72 -216.999c0 -46.667 -5.33301 -100 -16 -160c-88 -9.33301 -149.667 -21.5 -185 -36.5s-63.333 -37 -84 -66s-31 -68.833 -31 -119.5z" />
    <glyph glyph-name="agrave" unicode="&#xe0;" horiz-adv-x="1024" 
d="M789 70l113 -25.001l-8 -45h-285l29 156c-112.667 -118 -215.667 -177 -309 -177c-80.667 0 -145.5 29.667 -194.5 89s-73.5 141 -73.5 245c0 116.667 25.5 225.834 76.5 327.501s119.167 181 204.5 238s178 85.5 278 85.5c80.667 0 156.667 -14 228 -42l45 34h54z
M760 836.999c-26 18 -50.3311 30.499 -72.998 37.499s-50.667 10.5 -84 10.5c-66.667 0 -127.834 -25.167 -183.501 -75.5s-99.5 -118.166 -131.5 -203.499s-48 -174.333 -48 -267c0 -71.333 14.667 -128.333 44 -171s69.333 -64 120 -64
c75.333 0 157.666 46.333 246.999 139zM720.002 1118l-307 268l6 37h203l158 -272l-5 -33h-55z" />
    <glyph glyph-name="aacute" unicode="&#xe1;" horiz-adv-x="1024" 
d="M789 70l113 -25.001l-8 -45h-285l29 156c-112.667 -118 -215.667 -177 -309 -177c-80.667 0 -145.5 29.667 -194.5 89s-73.5 141 -73.5 245c0 116.667 25.5 225.834 76.5 327.501s119.167 181 204.5 238s178 85.5 278 85.5c80.667 0 156.667 -14 228 -42l45 34h54z
M760 836.999c-26 18 -50.3311 30.499 -72.998 37.499s-50.667 10.5 -84 10.5c-66.667 0 -127.834 -25.167 -183.501 -75.5s-99.5 -118.166 -131.5 -203.499s-48 -174.333 -48 -267c0 -71.333 14.667 -128.333 44 -171s69.333 -64 120 -64
c75.333 0 157.666 46.333 246.999 139zM516.002 1118l5 33l244 272h213l-6 -37l-401 -268h-55z" />
    <glyph glyph-name="acircumflex" unicode="&#xe2;" horiz-adv-x="1024" 
d="M789 70l113 -25.001l-8 -45h-285l29 156c-112.667 -118 -215.667 -177 -309 -177c-80.667 0 -145.5 29.667 -194.5 89s-73.5 141 -73.5 245c0 116.667 25.5 225.834 76.5 327.501s119.167 181 204.5 238s178 85.5 278 85.5c80.667 0 156.667 -14 228 -42l45 34h54z
M760 836.999c-26 18 -50.3311 30.499 -72.998 37.499s-50.667 10.5 -84 10.5c-66.667 0 -127.834 -25.167 -183.501 -75.5s-99.5 -118.166 -131.5 -203.499s-48 -174.333 -48 -267c0 -71.333 14.667 -128.333 44 -171s69.333 -64 120 -64
c75.333 0 157.666 46.333 246.999 139zM345.002 1118l5 33l235 273h213l139 -273l-5 -33h-47l-206 183l-270 -183h-64z" />
    <glyph glyph-name="atilde" unicode="&#xe3;" horiz-adv-x="1024" 
d="M789 70l113 -25.001l-8 -45h-285l29 156c-112.667 -118 -215.667 -177 -309 -177c-80.667 0 -145.5 29.667 -194.5 89s-73.5 141 -73.5 245c0 116.667 25.5 225.834 76.5 327.501s119.167 181 204.5 238s178 85.5 278 85.5c80.667 0 156.667 -14 228 -42l45 34h54z
M760 836.999c-26 18 -50.3311 30.499 -72.998 37.499s-50.667 10.5 -84 10.5c-66.667 0 -127.834 -25.167 -183.501 -75.5s-99.5 -118.166 -131.5 -203.499s-48 -174.333 -48 -267c0 -71.333 14.667 -128.333 44 -171s69.333 -64 120 -64
c75.333 0 157.666 46.333 246.999 139zM780.002 1119c-32 0 -60.165 7.16602 -84.498 21.499s-47 30.333 -68 48s-41.333 33.667 -61 48s-40.5 21.5 -62.5 21.5c-21.333 0 -38.833 -3.83301 -52.5 -11.5s-25.334 -18.167 -35.001 -31.5s-20.834 -38.666 -33.501 -75.999h-52
c21.333 84.667 51.5 146.167 90.5 184.5s88.167 57.5 147.5 57.5c32 0 60.333 -7.16699 85 -21.5s47.5 -30.333 68.5 -48s41.333 -33.667 61 -48s40.167 -21.5 61.5 -21.5c28 0 51.333 8 70 24s35.667 47.333 51 94h52c-21.333 -83.333 -51.5 -144.333 -90.5 -183
s-88.167 -58 -147.5 -58z" />
    <glyph glyph-name="adieresis" unicode="&#xe4;" horiz-adv-x="1024" 
d="M789 70l113 -25.001l-8 -45h-285l29 156c-112.667 -118 -215.667 -177 -309 -177c-80.667 0 -145.5 29.667 -194.5 89s-73.5 141 -73.5 245c0 116.667 25.5 225.834 76.5 327.501s119.167 181 204.5 238s178 85.5 278 85.5c80.667 0 156.667 -14 228 -42l45 34h54z
M760 836.999c-26 18 -50.3311 30.499 -72.998 37.499s-50.667 10.5 -84 10.5c-66.667 0 -127.834 -25.167 -183.501 -75.5s-99.5 -118.166 -131.5 -203.499s-48 -174.333 -48 -267c0 -71.333 14.667 -128.333 44 -171s69.333 -64 120 -64
c75.333 0 157.666 46.333 246.999 139zM937.002 1231c0 -28 -9.33301 -51.833 -28 -71.5s-42 -29.5 -70 -29.5s-51.667 10.333 -71 31s-29 44 -29 70c0 28 9.66699 51.667 29 71s43 29 71 29s51.333 -9.66699 70 -29s28 -43 28 -71zM581.002 1231
c0 -28 -9.33301 -51.833 -28 -71.5s-42 -29.5 -70 -29.5c-27.333 0 -51 10 -71 30s-30 43.667 -30 71c0 28 10.333 51.667 31 71s44 29 70 29c28 0 51.333 -9.66699 70 -29s28 -43 28 -71z" />
    <glyph glyph-name="aring" unicode="&#xe5;" horiz-adv-x="1024" 
d="M789 70l113 -25.001l-8 -45h-285l29 156c-112.667 -118 -215.667 -177 -309 -177c-80.667 0 -145.5 29.667 -194.5 89s-73.5 141 -73.5 245c0 116.667 25.5 225.834 76.5 327.501s119.167 181 204.5 238s178 85.5 278 85.5c80.667 0 156.667 -14 228 -42l45 34h54z
M760 836.999c-26 18 -50.3311 30.499 -72.998 37.499s-50.667 10.5 -84 10.5c-66.667 0 -127.834 -25.167 -183.501 -75.5s-99.5 -118.166 -131.5 -203.499s-48 -174.333 -48 -267c0 -71.333 14.667 -128.333 44 -171s69.333 -64 120 -64
c75.333 0 157.666 46.333 246.999 139zM871.002 1277c0 -56 -19.833 -103.833 -59.5 -143.5s-87.5 -59.5 -143.5 -59.5s-103.833 19.833 -143.5 59.5s-59.5 87.5 -59.5 143.5s19.833 103.833 59.5 143.5s87.5 59.5 143.5 59.5s103.833 -19.833 143.5 -59.5
s59.5 -87.5 59.5 -143.5zM791.002 1277c0 34 -12.001 63.002 -36.001 87.002s-53 36 -87 36s-63 -12 -87 -36s-36 -53 -36 -87c0 -34.667 12.333 -63.834 37 -87.501s53.334 -35.5 86.001 -35.5c32 0 60.5 11.667 85.5 35s37.5 52.666 37.5 87.999z" />
    <glyph glyph-name="ae" unicode="&#xe6;" horiz-adv-x="1366" 
d="M1320 771c0 -60.667 -22.167 -116.667 -66.5 -168s-108.333 -93.833 -192 -127.5s-177.834 -54.5 -282.501 -62.5c-5.33301 -36 -8 -75 -8 -117c0 -141.333 61.667 -212 185 -212c80.667 0 167.667 33.333 261 100l29 -42c-124 -108 -242.667 -162 -356 -162
c-68.667 0 -123.667 13 -165 39s-76 68.667 -104 128c-53.333 -52 -108 -93 -164 -123s-107 -45 -153 -45c-70.667 0 -128.5 31.167 -173.5 93.5s-67.5 143.833 -67.5 244.5c0 114.667 24.667 222.667 74 324s116.5 180.5 201.5 237.5s178.167 85.5 279.5 85.5
c41.333 0 82 -7.16699 122 -21.5s73.667 -31.5 101 -51.5c62 49.333 140.667 74 236 74c76.667 0 136.334 -17.5 179.001 -52.5s64 -82.167 64 -141.5zM391 104c30.667 0 65.0029 10.333 103.003 31s74.333 47.667 109 81c-5.33301 37.333 -8 68.333 -8 93
c0 196.667 57.333 366.667 172 510c-59.333 44 -118 66 -176 66c-60.667 0 -117.834 -26.667 -171.501 -80s-96.834 -123.333 -129.501 -210s-49 -173.334 -49 -260.001c0 -73.333 13.667 -130.166 41 -170.499s63.666 -60.5 108.999 -60.5zM1145 774
c0 35.333 -8.16699 63.167 -24.5 83.5s-40.5 30.5 -72.5 30.5c-60.667 0 -113.5 -36 -158.5 -108s-78.5 -173.333 -100.5 -304c114 11.333 201.833 43.333 263.5 96s92.5 120 92.5 202z" />
    <glyph glyph-name="ccedilla" unicode="&#xe7;" horiz-adv-x="909" 
d="M774 142c-54 -50 -114.665 -89.5 -181.998 -118.5s-131.333 -43.5 -192 -43.5c-107.333 0 -190.333 31 -249 93s-88 147.667 -88 257c0 116 23.333 221.833 70 317.5s113.167 172.5 199.5 230.5s176.833 87 271.5 87c47.333 0 97.666 -5 150.999 -15
s97.333 -22.333 132 -37l-45 -262h-55l-16 174c-42 42 -98 63 -168 63c-64 0 -123.833 -23.667 -179.5 -71s-100.167 -113.333 -133.5 -198s-50 -177.667 -50 -279c0 -170.667 68.667 -256 206 -256c95.333 0 194.666 33.333 297.999 100zM561.002 -212
c0 -65.333 -23.832 -117.501 -71.499 -156.501s-116.834 -58.5 -207.501 -58.5c-48 0 -92.333 7 -133 21l23 75c32 -10.667 64.333 -16 97 -16c40.667 0 73.667 9.16699 99 27.5s38 46.5 38 84.5c0 29.333 -11.333 53.833 -34 73.5s-55.667 31.5 -99 35.5l68 153h86l-33 -82
c53.333 -5.33301 94.5 -21.666 123.5 -48.999s43.5 -63.333 43.5 -108z" />
    <glyph glyph-name="egrave" unicode="&#xe8;" horiz-adv-x="909" 
d="M863 760c0 -90.667 -56.001 -167.999 -168.001 -231.999s-262.333 -102.333 -451 -115l-4 -73c0 -84.667 17.833 -148.5 53.5 -191.5s88.5 -64.5 158.5 -64.5c60 0 115.333 10.167 166 30.5s98 43.5 142 69.5l29 -42c-61.333 -52 -126.166 -92 -194.499 -120
s-133.166 -42 -194.499 -42c-108 0 -191.167 30.167 -249.5 90.5s-87.5 146.833 -87.5 259.5c0 111.333 23.5 215.166 70.5 311.499s112.167 174.333 195.5 234s170.666 89.5 261.999 89.5c82 0 147.833 -18.833 197.5 -56.5s74.5 -87.167 74.5 -148.5zM251.999 476.001
c132 10 237.667 41 317 93s119 115.667 119 191c0 37.333 -10.167 68 -30.5 92s-49.833 36 -88.5 36c-46.667 0 -92 -19 -136 -57s-82 -89 -114 -153s-54.333 -131.333 -67 -202zM672.999 1118l-307 268l6 37h203l158 -272l-5 -33h-55z" />
    <glyph glyph-name="eacute" unicode="&#xe9;" horiz-adv-x="909" 
d="M863 760c0 -90.667 -56.001 -167.999 -168.001 -231.999s-262.333 -102.333 -451 -115l-4 -73c0 -84.667 17.833 -148.5 53.5 -191.5s88.5 -64.5 158.5 -64.5c60 0 115.333 10.167 166 30.5s98 43.5 142 69.5l29 -42c-61.333 -52 -126.166 -92 -194.499 -120
s-133.166 -42 -194.499 -42c-108 0 -191.167 30.167 -249.5 90.5s-87.5 146.833 -87.5 259.5c0 111.333 23.5 215.166 70.5 311.499s112.167 174.333 195.5 234s170.666 89.5 261.999 89.5c82 0 147.833 -18.833 197.5 -56.5s74.5 -87.167 74.5 -148.5zM251.999 476.001
c132 10 237.667 41 317 93s119 115.667 119 191c0 37.333 -10.167 68 -30.5 92s-49.833 36 -88.5 36c-46.667 0 -92 -19 -136 -57s-82 -89 -114 -153s-54.333 -131.333 -67 -202zM520.999 1118l5 33l244 272h213l-6 -37l-401 -268h-55z" />
    <glyph glyph-name="ecircumflex" unicode="&#xea;" horiz-adv-x="909" 
d="M863 760c0 -90.667 -56.001 -167.999 -168.001 -231.999s-262.333 -102.333 -451 -115l-4 -73c0 -84.667 17.833 -148.5 53.5 -191.5s88.5 -64.5 158.5 -64.5c60 0 115.333 10.167 166 30.5s98 43.5 142 69.5l29 -42c-61.333 -52 -126.166 -92 -194.499 -120
s-133.166 -42 -194.499 -42c-108 0 -191.167 30.167 -249.5 90.5s-87.5 146.833 -87.5 259.5c0 111.333 23.5 215.166 70.5 311.499s112.167 174.333 195.5 234s170.666 89.5 261.999 89.5c82 0 147.833 -18.833 197.5 -56.5s74.5 -87.167 74.5 -148.5zM251.999 476.001
c132 10 237.667 41 317 93s119 115.667 119 191c0 37.333 -10.167 68 -30.5 92s-49.833 36 -88.5 36c-46.667 0 -92 -19 -136 -57s-82 -89 -114 -153s-54.333 -131.333 -67 -202zM314.999 1118l5 33l235 273h213l139 -273l-5 -33h-47l-206 183l-270 -183h-64z" />
    <glyph glyph-name="edieresis" unicode="&#xeb;" horiz-adv-x="909" 
d="M863 760c0 -90.667 -56.001 -167.999 -168.001 -231.999s-262.333 -102.333 -451 -115l-4 -73c0 -84.667 17.833 -148.5 53.5 -191.5s88.5 -64.5 158.5 -64.5c60 0 115.333 10.167 166 30.5s98 43.5 142 69.5l29 -42c-61.333 -52 -126.166 -92 -194.499 -120
s-133.166 -42 -194.499 -42c-108 0 -191.167 30.167 -249.5 90.5s-87.5 146.833 -87.5 259.5c0 111.333 23.5 215.166 70.5 311.499s112.167 174.333 195.5 234s170.666 89.5 261.999 89.5c82 0 147.833 -18.833 197.5 -56.5s74.5 -87.167 74.5 -148.5zM251.999 476.001
c132 10 237.667 41 317 93s119 115.667 119 191c0 37.333 -10.167 68 -30.5 92s-49.833 36 -88.5 36c-46.667 0 -92 -19 -136 -57s-82 -89 -114 -153s-54.333 -131.333 -67 -202zM924.999 1231c0 -28 -9.33301 -51.833 -28 -71.5s-42 -29.5 -70 -29.5s-51.667 10.333 -71 31
s-29 44 -29 70c0 28 9.66699 51.667 29 71s43 29 71 29s51.333 -9.66699 70 -29s28 -43 28 -71zM568.999 1231c0 -28 -9.33301 -51.833 -28 -71.5s-42 -29.5 -70 -29.5c-27.333 0 -51 10 -71 30s-30 43.667 -30 71c0 28 10.333 51.667 31 71s44 29 70 29
c28 0 51.333 -9.66699 70 -29s28 -43 28 -71z" />
    <glyph glyph-name="igrave" unicode="&#xec;" horiz-adv-x="569" 
d="M287 70l157 -25l-8 -45h-327l153 870l-129 25l8 45h299zM430 1118l-307 268l6 37h203l158 -272l-5 -33h-55z" />
    <glyph glyph-name="iacute" unicode="&#xed;" horiz-adv-x="569" 
d="M287 70l157 -25l-8 -45h-327l153 870l-129 25l8 45h299zM259 1118l5 33l244 272h213l-6 -37l-401 -268h-55z" />
    <glyph glyph-name="icircumflex" unicode="&#xee;" horiz-adv-x="569" 
d="M287 70l157 -25l-8 -45h-327l153 870l-129 25l8 45h299zM67 1118l5 33l235 273h213l139 -273l-5 -33h-47l-206 183l-270 -183h-64z" />
    <glyph glyph-name="idieresis" unicode="&#xef;" horiz-adv-x="569" 
d="M287 70l157 -25l-8 -45h-327l153 870l-129 25l8 45h299zM653 1231c0 -28 -9.33301 -51.833 -28 -71.5s-42 -29.5 -70 -29.5s-51.667 10.333 -71 31s-29 44 -29 70c0 28 9.66699 51.667 29 71s43 29 71 29s51.333 -9.66699 70 -29s28 -43 28 -71zM297 1231
c0 -28 -9.33301 -51.833 -28 -71.5s-42 -29.5 -70 -29.5c-27.333 0 -51 10 -71 30s-30 43.667 -30 71c0 28 10.333 51.667 31 71s44 29 70 29c28 0 51.333 -9.66699 70 -29s28 -43 28 -71z" />
    <glyph glyph-name="eth" unicode="&#xf0;" horiz-adv-x="1024" 
d="M959 658c0 -218 -46.6709 -386.335 -140.004 -505.002s-225.333 -178 -396 -178c-111.333 0 -200.166 33.667 -266.499 101s-99.5 158 -99.5 272c0 102 23.167 196.5 69.5 283.5s110 154.667 191 203s171.833 72.5 272.5 72.5c68.667 0 132.334 -16 191.001 -48
c-19.333 134.667 -63.666 241 -132.999 319l-326 -172l17 96l251 131c-59.333 49.333 -125.666 86 -198.999 110l14 78c114.667 -29.333 211.667 -73.666 291 -132.999l294 156l-17 -94l-214 -115c63.333 -55.333 112.5 -134.666 147.5 -237.999s52.5 -216.333 52.5 -339z
M566.996 824.998c-58.667 0 -113.335 -21.501 -164.002 -64.501s-91 -103 -121 -180s-45 -160.167 -45 -249.5c0 -87.333 17.833 -154.5 53.5 -201.5s84.834 -70.5 147.501 -70.5c58.667 0 113.834 21.833 165.501 65.5s92.5 103.334 122.5 179.001s45 157.167 45 244.5
c0 90.667 -17.5 159.5 -52.5 206.5s-85.5 70.5 -151.5 70.5z" />
    <glyph glyph-name="ntilde" unicode="&#xf1;" horiz-adv-x="1024" 
d="M755 748c0 30 -8.00098 54.332 -24.001 72.999s-41.333 28 -76 28c-49.333 0 -103.166 -21 -161.499 -63s-106.5 -94 -144.5 -156l-110 -630h-166l153 871l-118 25l8 45h278l-27 -192c56 72 114 126 174 162s119 54 177 54c67.333 0 118 -18.167 152 -54.5
s51 -88.5 51 -156.5c0 -9.33301 -1.33301 -23.666 -4 -42.999s-39 -233.333 -109 -642l131 -24l-8 -45h-301l102 582c15.333 84.667 23 140 23 166zM739.999 1119c-32 0 -60.165 7.16602 -84.498 21.499s-47 30.333 -68 48s-41.333 33.667 -61 48s-40.5 21.5 -62.5 21.5
c-21.333 0 -38.833 -3.83301 -52.5 -11.5s-25.334 -18.167 -35.001 -31.5s-20.834 -38.666 -33.501 -75.999h-52c21.333 84.667 51.5 146.167 90.5 184.5s88.167 57.5 147.5 57.5c32 0 60.333 -7.16699 85 -21.5s47.5 -30.333 68.5 -48s41.333 -33.667 61 -48
s40.167 -21.5 61.5 -21.5c28 0 51.333 8 70 24s35.667 47.333 51 94h52c-21.333 -83.333 -51.5 -144.333 -90.5 -183s-88.167 -58 -147.5 -58z" />
    <glyph glyph-name="ograve" unicode="&#xf2;" horiz-adv-x="1024" 
d="M237 340c0 -90 17.499 -158.833 52.499 -206.5s83.833 -71.5 146.5 -71.5c60.667 0 118.5 24.333 173.5 73s98.5 115.167 130.5 199.5s48 174.833 48 271.5c0 92 -17.5 161.833 -52.5 209.5s-85.167 71.5 -150.5 71.5c-60.667 0 -118.167 -24.333 -172.5 -73
s-97.166 -115.167 -128.499 -199.5s-47 -175.833 -47 -274.5zM426.999 -20c-110.667 0 -199.334 35.5 -266.001 106.5s-100 166.833 -100 287.5c0 107.333 23 206.666 69 297.999s109.833 163 191.5 215s173.5 78 275.5 78c110.667 0 199.334 -35.5 266.001 -106.5
s100 -166.833 100 -287.5c0 -107.333 -23 -206.666 -69 -297.999s-109.833 -163 -191.5 -215s-173.5 -78 -275.5 -78zM692.999 1118l-307 268l6 37h203l158 -272l-5 -33h-55z" />
    <glyph glyph-name="oacute" unicode="&#xf3;" horiz-adv-x="1024" 
d="M237 340c0 -90 17.499 -158.833 52.499 -206.5s83.833 -71.5 146.5 -71.5c60.667 0 118.5 24.333 173.5 73s98.5 115.167 130.5 199.5s48 174.833 48 271.5c0 92 -17.5 161.833 -52.5 209.5s-85.167 71.5 -150.5 71.5c-60.667 0 -118.167 -24.333 -172.5 -73
s-97.166 -115.167 -128.499 -199.5s-47 -175.833 -47 -274.5zM426.999 -20c-110.667 0 -199.334 35.5 -266.001 106.5s-100 166.833 -100 287.5c0 107.333 23 206.666 69 297.999s109.833 163 191.5 215s173.5 78 275.5 78c110.667 0 199.334 -35.5 266.001 -106.5
s100 -166.833 100 -287.5c0 -107.333 -23 -206.666 -69 -297.999s-109.833 -163 -191.5 -215s-173.5 -78 -275.5 -78zM525.999 1118l5 33l244 272h213l-6 -37l-401 -268h-55z" />
    <glyph glyph-name="ocircumflex" unicode="&#xf4;" horiz-adv-x="1024" 
d="M237 340c0 -90 17.499 -158.833 52.499 -206.5s83.833 -71.5 146.5 -71.5c60.667 0 118.5 24.333 173.5 73s98.5 115.167 130.5 199.5s48 174.833 48 271.5c0 92 -17.5 161.833 -52.5 209.5s-85.167 71.5 -150.5 71.5c-60.667 0 -118.167 -24.333 -172.5 -73
s-97.166 -115.167 -128.499 -199.5s-47 -175.833 -47 -274.5zM426.999 -20c-110.667 0 -199.334 35.5 -266.001 106.5s-100 166.833 -100 287.5c0 107.333 23 206.666 69 297.999s109.833 163 191.5 215s173.5 78 275.5 78c110.667 0 199.334 -35.5 266.001 -106.5
s100 -166.833 100 -287.5c0 -107.333 -23 -206.666 -69 -297.999s-109.833 -163 -191.5 -215s-173.5 -78 -275.5 -78zM322.999 1118l5 33l235 273h213l139 -273l-5 -33h-47l-206 183l-270 -183h-64z" />
    <glyph glyph-name="otilde" unicode="&#xf5;" horiz-adv-x="1024" 
d="M237 340c0 -90 17.499 -158.833 52.499 -206.5s83.833 -71.5 146.5 -71.5c60.667 0 118.5 24.333 173.5 73s98.5 115.167 130.5 199.5s48 174.833 48 271.5c0 92 -17.5 161.833 -52.5 209.5s-85.167 71.5 -150.5 71.5c-60.667 0 -118.167 -24.333 -172.5 -73
s-97.166 -115.167 -128.499 -199.5s-47 -175.833 -47 -274.5zM426.999 -20c-110.667 0 -199.334 35.5 -266.001 106.5s-100 166.833 -100 287.5c0 107.333 23 206.666 69 297.999s109.833 163 191.5 215s173.5 78 275.5 78c110.667 0 199.334 -35.5 266.001 -106.5
s100 -166.833 100 -287.5c0 -107.333 -23 -206.666 -69 -297.999s-109.833 -163 -191.5 -215s-173.5 -78 -275.5 -78zM762.999 1119c-32 0 -60.165 7.16602 -84.498 21.499s-47 30.333 -68 48s-41.333 33.667 -61 48s-40.5 21.5 -62.5 21.5
c-21.333 0 -38.833 -3.83301 -52.5 -11.5s-25.334 -18.167 -35.001 -31.5s-20.834 -38.666 -33.501 -75.999h-52c21.333 84.667 51.5 146.167 90.5 184.5s88.167 57.5 147.5 57.5c32 0 60.333 -7.16699 85 -21.5s47.5 -30.333 68.5 -48s41.333 -33.667 61 -48
s40.167 -21.5 61.5 -21.5c28 0 51.333 8 70 24s35.667 47.333 51 94h52c-21.333 -83.333 -51.5 -144.333 -90.5 -183s-88.167 -58 -147.5 -58z" />
    <glyph glyph-name="odieresis" unicode="&#xf6;" horiz-adv-x="1024" 
d="M237 340c0 -90 17.499 -158.833 52.499 -206.5s83.833 -71.5 146.5 -71.5c60.667 0 118.5 24.333 173.5 73s98.5 115.167 130.5 199.5s48 174.833 48 271.5c0 92 -17.5 161.833 -52.5 209.5s-85.167 71.5 -150.5 71.5c-60.667 0 -118.167 -24.333 -172.5 -73
s-97.166 -115.167 -128.499 -199.5s-47 -175.833 -47 -274.5zM426.999 -20c-110.667 0 -199.334 35.5 -266.001 106.5s-100 166.833 -100 287.5c0 107.333 23 206.666 69 297.999s109.833 163 191.5 215s173.5 78 275.5 78c110.667 0 199.334 -35.5 266.001 -106.5
s100 -166.833 100 -287.5c0 -107.333 -23 -206.666 -69 -297.999s-109.833 -163 -191.5 -215s-173.5 -78 -275.5 -78zM925.999 1231c0 -28 -9.33301 -51.833 -28 -71.5s-42 -29.5 -70 -29.5s-51.667 10.333 -71 31s-29 44 -29 70c0 28 9.66699 51.667 29 71s43 29 71 29
s51.333 -9.66699 70 -29s28 -43 28 -71zM569.999 1231c0 -28 -9.33301 -51.833 -28 -71.5s-42 -29.5 -70 -29.5c-27.333 0 -51 10 -71 30s-30 43.667 -30 71c0 28 10.333 51.667 31 71s44 29 70 29c28 0 51.333 -9.66699 70 -29s28 -43 28 -71z" />
    <glyph glyph-name="divide" unicode="&#xf7;" horiz-adv-x="1124" 
d="M688 1063c0 -26.667 -9.33301 -49.334 -28 -68.001s-41.334 -28 -68.001 -28c-27.333 0 -50.333 9.33301 -69 28s-28 41.334 -28 68.001s9.33301 49.334 28 68.001s41.667 28 69 28c26.667 0 49.334 -9.33301 68.001 -28s28 -41.334 28 -68.001zM688 297
c0 -26.667 -9.33301 -49.334 -28 -68.001s-41.334 -28 -68.001 -28c-27.333 0 -50.333 9.33301 -69 28s-28 41.334 -28 68.001s9.33301 49.334 28 68.001s41.667 28 69 28c26.667 0 49.334 -9.33301 68.001 -28s28 -41.334 28 -68.001zM1069 731v-102h-953v102h953z" />
    <glyph glyph-name="oslash" unicode="&#xf8;" horiz-adv-x="1024" 
d="M427 -20c-90.667 0 -166.667 23.998 -228 71.998l-119 -136h-107l169 192c-54 70.667 -81 159.334 -81 266.001c0 107.333 23 206.666 69 297.999s109.833 163 191.5 215s173.5 78 275.5 78c92 0 169 -25 231 -75l117 132h104l-165 -189
c52.667 -69.333 79 -156.666 79 -261.999c0 -107.333 -23 -206.666 -69 -297.999s-109.833 -163 -191.5 -215s-173.5 -78 -275.5 -78zM579 889.998c-60.667 0 -117.167 -23.333 -169.5 -70s-93.5 -111.5 -123.5 -194.5s-45 -173.5 -45 -271.5c0 -45.333 4 -85.333 12 -120
l489 558c-34.667 65.333 -89 98 -163 98zM783 589.998c0 42 -3.66895 80.668 -11.002 116.001l-487 -556c34.667 -60.667 87 -91 157 -91c60.667 0 117.334 23.5 170.001 70.5s94.334 111.167 125.001 192.5s46 170.666 46 267.999z" />
    <glyph glyph-name="ugrave" unicode="&#xf9;" horiz-adv-x="1024" 
d="M268 193c0 -30 8 -54.335 24 -73.002s41.333 -28 76 -28c50 0 104 20.833 162 62.5s105.667 92.834 143 153.501l111 632h166l-153 -870l118 -25l-8 -45h-278l27 193c-55.333 -71.333 -113 -125.333 -173 -162s-119.333 -55 -178 -55c-67.333 0 -118 18.167 -152 54.5
s-51 88.5 -51 156.5c0 10 1.83301 27.833 5.5 53.5s39.5 235.834 107.5 630.501l-111 24l8 45h281l-102 -581c-15.333 -84 -23 -139.333 -23 -166zM666 1118l-307 268l6 37h203l158 -272l-5 -33h-55z" />
    <glyph glyph-name="uacute" unicode="&#xfa;" horiz-adv-x="1024" 
d="M268 193c0 -30 8 -54.335 24 -73.002s41.333 -28 76 -28c50 0 104 20.833 162 62.5s105.667 92.834 143 153.501l111 632h166l-153 -870l118 -25l-8 -45h-278l27 193c-55.333 -71.333 -113 -125.333 -173 -162s-119.333 -55 -178 -55c-67.333 0 -118 18.167 -152 54.5
s-51 88.5 -51 156.5c0 10 1.83301 27.833 5.5 53.5s39.5 235.834 107.5 630.501l-111 24l8 45h281l-102 -581c-15.333 -84 -23 -139.333 -23 -166zM495 1118l5 33l244 272h213l-6 -37l-401 -268h-55z" />
    <glyph glyph-name="ucircumflex" unicode="&#xfb;" horiz-adv-x="1024" 
d="M268 193c0 -30 8 -54.335 24 -73.002s41.333 -28 76 -28c50 0 104 20.833 162 62.5s105.667 92.834 143 153.501l111 632h166l-153 -870l118 -25l-8 -45h-278l27 193c-55.333 -71.333 -113 -125.333 -173 -162s-119.333 -55 -178 -55c-67.333 0 -118 18.167 -152 54.5
s-51 88.5 -51 156.5c0 10 1.83301 27.833 5.5 53.5s39.5 235.834 107.5 630.501l-111 24l8 45h281l-102 -581c-15.333 -84 -23 -139.333 -23 -166zM312 1118l5 33l235 273h213l139 -273l-5 -33h-47l-206 183l-270 -183h-64z" />
    <glyph glyph-name="udieresis" unicode="&#xfc;" horiz-adv-x="1024" 
d="M268 193c0 -30 8 -54.335 24 -73.002s41.333 -28 76 -28c50 0 104 20.833 162 62.5s105.667 92.834 143 153.501l111 632h166l-153 -870l118 -25l-8 -45h-278l27 193c-55.333 -71.333 -113 -125.333 -173 -162s-119.333 -55 -178 -55c-67.333 0 -118 18.167 -152 54.5
s-51 88.5 -51 156.5c0 10 1.83301 27.833 5.5 53.5s39.5 235.834 107.5 630.501l-111 24l8 45h281l-102 -581c-15.333 -84 -23 -139.333 -23 -166zM914 1231c0 -28 -9.33301 -51.833 -28 -71.5s-42 -29.5 -70 -29.5s-51.667 10.333 -71 31s-29 44 -29 70
c0 28 9.66699 51.667 29 71s43 29 71 29s51.333 -9.66699 70 -29s28 -43 28 -71zM558 1231c0 -28 -9.33301 -51.833 -28 -71.5s-42 -29.5 -70 -29.5c-27.333 0 -51 10 -71 30s-30 43.667 -30 71c0 28 10.333 51.667 31 71s44 29 70 29c28 0 51.333 -9.66699 70 -29
s28 -43 28 -71z" />
    <glyph glyph-name="yacute" unicode="&#xfd;" horiz-adv-x="909" 
d="M52 940l255.999 -0.00195312l145 -732l235 406c42.667 74.667 64 139 64 193c0 24.667 -7 44.334 -21 59.001s-29 24.334 -45 29.001l8 45h190c17.333 -15.333 26 -36.333 26 -63c0 -52.667 -27.667 -126 -83 -220l-396 -667c-76 -129.333 -136.167 -221 -180.5 -275
s-88.166 -93.667 -131.499 -119s-90.333 -38 -141 -38c-54 0 -103.667 6 -149 18l37 203h45l16 -96c16.667 -15.333 44 -23 82 -23c90 0 185 90 285 270l45 82l-183 858l-112 25zM431.999 1118l5 33l244 272h213l-6 -37l-401 -268h-55z" />
    <glyph glyph-name="thorn" unicode="&#xfe;" horiz-adv-x="1024" 
d="M355 788c122 118 230.335 177 325.002 177c85.333 0 153.666 -29.833 204.999 -89.5s77 -141.167 77 -244.5c0 -114.667 -25.333 -222.5 -76 -323.5s-120.667 -180.833 -210 -239.5s-187.333 -88 -294 -88c-32 0 -64.333 2.33301 -97 7s-57.334 9.66699 -74.001 15
l-11 -90l-50 -277l160 -24l-8 -47h-446l8 47l123 24l303 1717l-133 24l8 45h303zM233.002 107c40 -32 95.333 -48 166 -48c71.333 0 135.5 24.167 192.5 72.5s103.167 116.5 138.5 204.5s53 177.667 53 269c0 73.333 -15.667 130.833 -47 172.5s-74.333 62.5 -129 62.5
c-36 0 -78.667 -12.667 -128 -38s-95 -59 -137 -101z" />
    <glyph glyph-name="ydieresis" unicode="&#xff;" horiz-adv-x="909" 
d="M52 940l255.999 -0.00195312l145 -732l235 406c42.667 74.667 64 139 64 193c0 24.667 -7 44.334 -21 59.001s-29 24.334 -45 29.001l8 45h190c17.333 -15.333 26 -36.333 26 -63c0 -52.667 -27.667 -126 -83 -220l-396 -667c-76 -129.333 -136.167 -221 -180.5 -275
s-88.166 -93.667 -131.499 -119s-90.333 -38 -141 -38c-54 0 -103.667 6 -149 18l37 203h45l16 -96c16.667 -15.333 44 -23 82 -23c90 0 185 90 285 270l45 82l-183 858l-112 25zM866.999 1231c0 -28 -9.33301 -51.833 -28 -71.5s-42 -29.5 -70 -29.5s-51.667 10.333 -71 31
s-29 44 -29 70c0 28 9.66699 51.667 29 71s43 29 71 29s51.333 -9.66699 70 -29s28 -43 28 -71zM510.999 1231c0 -28 -9.33301 -51.833 -28 -71.5s-42 -29.5 -70 -29.5c-27.333 0 -51 10 -71 30s-30 43.667 -30 71c0 28 10.333 51.667 31 71s44 29 70 29
c28 0 51.333 -9.66699 70 -29s28 -43 28 -71z" />
    <glyph glyph-name="Amacron" unicode="&#x100;" horiz-adv-x="1251" 
d="M264 53l-10 -53h-366l10 53l112 27l682 1272h191l250 -1272l125 -27l-11 -53h-475l11 53l143 27l-64 387h-528l-205 -387zM723 1208l-344 -651h467zM487 1495l19 109h628l-19 -109h-628z" />
    <glyph glyph-name="amacron" unicode="&#x101;" horiz-adv-x="1024" 
d="M789 70l113 -25.001l-8 -45h-285l29 156c-112.667 -118 -215.667 -177 -309 -177c-80.667 0 -145.5 29.667 -194.5 89s-73.5 141 -73.5 245c0 116.667 25.5 225.834 76.5 327.501s119.167 181 204.5 238s178 85.5 278 85.5c80.667 0 156.667 -14 228 -42l45 34h54z
M760 836.999c-26 18 -50.3311 30.499 -72.998 37.499s-50.667 10.5 -84 10.5c-66.667 0 -127.834 -25.167 -183.501 -75.5s-99.5 -118.166 -131.5 -203.499s-48 -174.333 -48 -267c0 -71.333 14.667 -128.333 44 -171s69.333 -64 120 -64
c75.333 0 157.666 46.333 246.999 139zM333.002 1161l19 109h628l-19 -109h-628z" />
    <glyph glyph-name="Abreve" unicode="&#x102;" horiz-adv-x="1251" 
d="M264 53l-10 -53h-366l10 53l112 27l682 1272h191l250 -1272l125 -27l-11 -53h-475l11 53l143 27l-64 387h-528l-205 -387zM723 1208l-344 -651h467zM780 1453c-77.333 0 -137.002 19.667 -179.002 59s-63 94.333 -63 165l4 56h74
c2.66699 -43.333 20.834 -77.333 54.501 -102s78.5 -37 134.5 -37c57.333 0 106.833 12.5 148.5 37.5s71.167 58.833 88.5 101.5h74c-18 -86.667 -56.167 -155 -114.5 -205s-132.166 -75 -221.499 -75z" />
    <glyph glyph-name="abreve" unicode="&#x103;" horiz-adv-x="1024" 
d="M789 70l113 -25.001l-8 -45h-285l29 156c-112.667 -118 -215.667 -177 -309 -177c-80.667 0 -145.5 29.667 -194.5 89s-73.5 141 -73.5 245c0 116.667 25.5 225.834 76.5 327.501s119.167 181 204.5 238s178 85.5 278 85.5c80.667 0 156.667 -14 228 -42l45 34h54z
M760 836.999c-26 18 -50.3311 30.499 -72.998 37.499s-50.667 10.5 -84 10.5c-66.667 0 -127.834 -25.167 -183.501 -75.5s-99.5 -118.166 -131.5 -203.499s-48 -174.333 -48 -267c0 -71.333 14.667 -128.333 44 -171s69.333 -64 120 -64
c75.333 0 157.666 46.333 246.999 139zM620.002 1119c-77.333 0 -137.002 19.667 -179.002 59s-63 94.333 -63 165l4 56h74c2.66699 -43.333 20.834 -77.333 54.501 -102s78.5 -37 134.5 -37c57.333 0 106.833 12.5 148.5 37.5s71.167 58.833 88.5 101.5h74
c-18 -86.667 -56.167 -155 -114.5 -205s-132.166 -75 -221.499 -75z" />
    <glyph glyph-name="Aogonek" unicode="&#x104;" horiz-adv-x="1251" 
d="M264 53l-10 -53h-366l10 53l112 27l682 1272h191l250 -1272l125 -27l-11 -53h-475l11 53l143 27l-64 387h-528l-205 -387zM723 1208l-344 -651h467zM1185 -354c-53.333 -32.667 -112.001 -49 -176.001 -49c-61.333 0 -109.5 16.167 -144.5 48.5s-52.5 76.833 -52.5 133.5
c0 42 11.333 83.5 34 124.5s54.667 78.5 96 112.5h109c-28 -31.333 -50 -66 -66 -104s-24 -76 -24 -114c0 -36 10.333 -63.833 31 -83.5s50 -29.5 88 -29.5c30.667 0 60.334 6 89.001 18z" />
    <glyph glyph-name="aogonek" unicode="&#x105;" horiz-adv-x="1024" 
d="M789 70l113 -25.001l-8 -45h-285l29 156c-112.667 -118 -215.667 -177 -309 -177c-80.667 0 -145.5 29.667 -194.5 89s-73.5 141 -73.5 245c0 116.667 25.5 225.834 76.5 327.501s119.167 181 204.5 238s178 85.5 278 85.5c80.667 0 156.667 -14 228 -42l45 34h54z
M760 836.999c-26 18 -50.3311 30.499 -72.998 37.499s-50.667 10.5 -84 10.5c-66.667 0 -127.834 -25.167 -183.501 -75.5s-99.5 -118.166 -131.5 -203.499s-48 -174.333 -48 -267c0 -71.333 14.667 -128.333 44 -171s69.333 -64 120 -64
c75.333 0 157.666 46.333 246.999 139zM869.002 -354.002c-53.333 -32.667 -112.001 -49 -176.001 -49c-61.333 0 -109.5 16.167 -144.5 48.5s-52.5 76.833 -52.5 133.5c0 42 11.333 83.5 34 124.5s54.667 78.5 96 112.5h109c-28 -31.333 -50 -66 -66 -104s-24 -76 -24 -114
c0 -36 10.333 -63.833 31 -83.5s50 -29.5 88 -29.5c30.667 0 60.334 6 89.001 18z" />
    <glyph glyph-name="Cacute" unicode="&#x106;" horiz-adv-x="1366" 
d="M699 -19c-183.333 0 -326.668 47.999 -430.001 143.999s-155 228.667 -155 398c0 165.333 34.5 311.333 103.5 438s167 224.167 294 292.5s272.167 102.5 435.5 102.5c140.667 0 286.667 -17 438 -51l-45 -293h-65v174c-41.333 28.667 -91.333 50.834 -150 66.501
s-120 23.5 -184 23.5c-120.667 0 -228.834 -32.167 -324.501 -96.5s-170 -155.5 -223 -273.5s-79.5 -252.333 -79.5 -403c0 -143.333 34.833 -252.5 104.5 -327.5s168.834 -112.5 297.501 -112.5c76 0 150.333 11.333 223 34s131.667 51.667 177 87l72 201h65l-61 -315
c-76.667 -28 -159.167 -49.833 -247.5 -65.5s-170.166 -23.5 -245.499 -23.5zM837.998 1452l5 33l244 272h213l-6 -37l-401 -268h-55z" />
    <glyph glyph-name="cacute" unicode="&#x107;" horiz-adv-x="909" 
d="M774 142c-54 -50 -114.665 -89.5 -181.998 -118.5s-131.333 -43.5 -192 -43.5c-107.333 0 -190.333 31 -249 93s-88 147.667 -88 257c0 116 23.333 221.833 70 317.5s113.167 172.5 199.5 230.5s176.833 87 271.5 87c47.333 0 97.666 -5 150.999 -15
s97.333 -22.333 132 -37l-45 -262h-55l-16 174c-42 42 -98 63 -168 63c-64 0 -123.833 -23.667 -179.5 -71s-100.167 -113.333 -133.5 -198s-50 -177.667 -50 -279c0 -170.667 68.667 -256 206 -256c95.333 0 194.666 33.333 297.999 100zM504.002 1118l5 33l244 272h213
l-6 -37l-401 -268h-55z" />
    <glyph glyph-name="Ccircumflex" unicode="&#x108;" horiz-adv-x="1366" 
d="M699 -19c-183.333 0 -326.668 47.999 -430.001 143.999s-155 228.667 -155 398c0 165.333 34.5 311.333 103.5 438s167 224.167 294 292.5s272.167 102.5 435.5 102.5c140.667 0 286.667 -17 438 -51l-45 -293h-65v174c-41.333 28.667 -91.333 50.834 -150 66.501
s-120 23.5 -184 23.5c-120.667 0 -228.834 -32.167 -324.501 -96.5s-170 -155.5 -223 -273.5s-79.5 -252.333 -79.5 -403c0 -143.333 34.833 -252.5 104.5 -327.5s168.834 -112.5 297.501 -112.5c76 0 150.333 11.333 223 34s131.667 51.667 177 87l72 201h65l-61 -315
c-76.667 -28 -159.167 -49.833 -247.5 -65.5s-170.166 -23.5 -245.499 -23.5zM615.998 1452l5 33l235 273h213l139 -273l-5 -33h-47l-206 183l-270 -183h-64z" />
    <glyph glyph-name="ccircumflex" unicode="&#x109;" horiz-adv-x="909" 
d="M774 142c-54 -50 -114.665 -89.5 -181.998 -118.5s-131.333 -43.5 -192 -43.5c-107.333 0 -190.333 31 -249 93s-88 147.667 -88 257c0 116 23.333 221.833 70 317.5s113.167 172.5 199.5 230.5s176.833 87 271.5 87c47.333 0 97.666 -5 150.999 -15
s97.333 -22.333 132 -37l-45 -262h-55l-16 174c-42 42 -98 63 -168 63c-64 0 -123.833 -23.667 -179.5 -71s-100.167 -113.333 -133.5 -198s-50 -177.667 -50 -279c0 -170.667 68.667 -256 206 -256c95.333 0 194.666 33.333 297.999 100zM332.002 1118l5 33l235 273h213
l139 -273l-5 -33h-47l-206 183l-270 -183h-64z" />
    <glyph glyph-name="Cdotaccent" unicode="&#x10a;" horiz-adv-x="1366" 
d="M699 -19c-183.333 0 -326.668 47.999 -430.001 143.999s-155 228.667 -155 398c0 165.333 34.5 311.333 103.5 438s167 224.167 294 292.5s272.167 102.5 435.5 102.5c140.667 0 286.667 -17 438 -51l-45 -293h-65v174c-41.333 28.667 -91.333 50.834 -150 66.501
s-120 23.5 -184 23.5c-120.667 0 -228.834 -32.167 -324.501 -96.5s-170 -155.5 -223 -273.5s-79.5 -252.333 -79.5 -403c0 -143.333 34.833 -252.5 104.5 -327.5s168.834 -112.5 297.501 -112.5c76 0 150.333 11.333 223 34s131.667 51.667 177 87l72 201h65l-61 -315
c-76.667 -28 -159.167 -49.833 -247.5 -65.5s-170.166 -23.5 -245.499 -23.5zM1062 1581c0 -29.333 -10.667 -54.666 -32 -75.999s-47 -32 -77 -32c-29.333 0 -54.666 10.667 -75.999 32s-32 46.666 -32 75.999c0 30 10.667 55.667 32 77s46.666 32 75.999 32
c30 0 55.667 -10.667 77 -32s32 -47 32 -77z" />
    <glyph glyph-name="cdotaccent" unicode="&#x10b;" horiz-adv-x="909" 
d="M774 142c-54 -50 -114.665 -89.5 -181.998 -118.5s-131.333 -43.5 -192 -43.5c-107.333 0 -190.333 31 -249 93s-88 147.667 -88 257c0 116 23.333 221.833 70 317.5s113.167 172.5 199.5 230.5s176.833 87 271.5 87c47.333 0 97.666 -5 150.999 -15
s97.333 -22.333 132 -37l-45 -262h-55l-16 174c-42 42 -98 63 -168 63c-64 0 -123.833 -23.667 -179.5 -71s-100.167 -113.333 -133.5 -198s-50 -177.667 -50 -279c0 -170.667 68.667 -256 206 -256c95.333 0 194.666 33.333 297.999 100zM758.002 1247
c0 -29.333 -10.667 -54.666 -32 -75.999s-47 -32 -77 -32c-29.333 0 -54.666 10.667 -75.999 32s-32 46.666 -32 75.999c0 30 10.667 55.667 32 77s46.666 32 75.999 32c30 0 55.667 -10.667 77 -32s32 -47 32 -77z" />
    <glyph glyph-name="Ccaron" unicode="&#x10c;" horiz-adv-x="1366" 
d="M699 -19c-183.333 0 -326.668 47.999 -430.001 143.999s-155 228.667 -155 398c0 165.333 34.5 311.333 103.5 438s167 224.167 294 292.5s272.167 102.5 435.5 102.5c140.667 0 286.667 -17 438 -51l-45 -293h-65v174c-41.333 28.667 -91.333 50.834 -150 66.501
s-120 23.5 -184 23.5c-120.667 0 -228.834 -32.167 -324.501 -96.5s-170 -155.5 -223 -273.5s-79.5 -252.333 -79.5 -403c0 -143.333 34.833 -252.5 104.5 -327.5s168.834 -112.5 297.501 -112.5c76 0 150.333 11.333 223 34s131.667 51.667 177 87l72 201h65l-61 -315
c-76.667 -28 -159.167 -49.833 -247.5 -65.5s-170.166 -23.5 -245.499 -23.5zM740.998 1758l206 -183l270 183h60l-5 -33l-235 -273h-213l-140 273l5 33h52z" />
    <glyph glyph-name="ccaron" unicode="&#x10d;" horiz-adv-x="909" 
d="M774 142c-54 -50 -114.665 -89.5 -181.998 -118.5s-131.333 -43.5 -192 -43.5c-107.333 0 -190.333 31 -249 93s-88 147.667 -88 257c0 116 23.333 221.833 70 317.5s113.167 172.5 199.5 230.5s176.833 87 271.5 87c47.333 0 97.666 -5 150.999 -15
s97.333 -22.333 132 -37l-45 -262h-55l-16 174c-42 42 -98 63 -168 63c-64 0 -123.833 -23.667 -179.5 -71s-100.167 -113.333 -133.5 -198s-50 -177.667 -50 -279c0 -170.667 68.667 -256 206 -256c95.333 0 194.666 33.333 297.999 100zM447.002 1424l206 -183l270 183h60
l-5 -33l-235 -273h-213l-140 273l5 33h52z" />
    <glyph glyph-name="Dcaron" unicode="&#x10e;" horiz-adv-x="1479" 
d="M1238 785c0 310.667 -171.667 466 -515 466h-162l-204 -1157c106.667 -5.33301 194.667 -8 264 -8c196 0 347.833 60.5 455.5 181.5s161.5 293.5 161.5 517.5zM784 1341c215.333 0 379.833 -47.1699 493.5 -141.503s170.5 -230.166 170.5 -407.499
c0 -159.333 -33.5 -299.666 -100.5 -420.999s-162.5 -214.166 -286.5 -278.499s-268 -96.5 -432 -96.5l-481 4h-171l9 53l176 27l208 1182l-167 26l9 53h572zM671 1758l206 -183l270 183h60l-5 -33l-235 -273h-213l-140 273l5 33h52z" />
    <glyph glyph-name="dcaron" unicode="&#x10f;" horiz-adv-x="1246" 
d="M783 941c2.66699 32 25.333 169.001 68 411.001l-154 24l8 45h324l-240 -1351l113 -25l-8 -45h-285l29 156c-112.667 -118 -215.667 -177 -309 -177c-82 0 -147 30.833 -195 92.5s-72 143.5 -72 245.5c0 114 24.5 221.167 73.5 321.5s116.167 179.666 201.5 237.999
s179 87.5 281 87.5c62.667 0 117.667 -7.66699 165 -23zM759.999 837.001c-23.333 15.333 -47.333 27.334 -72 36.001s-54.667 13 -90 13c-62.667 0 -121.334 -24.667 -176.001 -74s-98.667 -117.333 -132 -204s-50 -176.334 -50 -269.001
c0 -71.333 14.667 -128.333 44 -171s69 -64 119 -64c37.333 0 77.833 12.167 121.5 36.5s85.834 58.5 126.501 102.5zM1375 1278c0 -72.667 -23.833 -131.831 -71.5 -177.498s-125.834 -80.834 -234.501 -105.501v63c44.667 10 80.334 22 107.001 36s46.334 29 59.001 45
s19 37 19 63c0 11.333 -4.83301 21.166 -14.5 29.499l-32 26.5c-11.667 9.33301 -22.334 20.5 -32.001 33.5s-14.5 29.833 -14.5 50.5c0 25.333 9.16699 44.833 27.5 58.5s41.833 20.5 70.5 20.5c33.333 0 61 -13 83 -39s33 -60.667 33 -104z" />
    <glyph glyph-name="Dcroat" unicode="&#x110;" horiz-adv-x="1479" 
d="M784 1341c215.333 0 379.833 -47.1699 493.5 -141.503s170.5 -230.166 170.5 -407.499c0 -159.333 -33.5 -299.666 -100.5 -420.999s-162.5 -214.166 -286.5 -278.499s-268 -96.5 -432 -96.5l-481 4h-171l9 53l176 27l96 549h-180l15 82h180l97 551l-167 26l9 53h572z
M1238 784.997c0 310.667 -171.667 466 -515 466h-162l-95 -540h375l-15 -82h-375l-94 -535c106.667 -5.33301 194.667 -8 264 -8c196 0 347.833 60.5 455.5 181.5s161.5 293.5 161.5 517.5z" />
    <glyph glyph-name="dcroat" unicode="&#x111;" horiz-adv-x="1024" 
d="M783 941l11 82.001l14 85v4h-296l15 84h296l28 156l-154 24l8 45h324l-40 -225h116l-15 -84h-116l-185 -1042l113 -25l-8 -45h-285l29 156c-112.667 -118 -215.667 -177 -309 -177c-82 0 -147 30.833 -195 92.5s-72 143.5 -72 245.5c0 114 24.5 221.167 73.5 321.5
s116.167 179.666 201.5 237.999s179 87.5 281 87.5c62.667 0 117.667 -7.66699 165 -23zM760 837.001c-23.333 15.333 -47.333 27.334 -72 36.001s-54.667 13 -90 13c-62.667 0 -121.334 -24.667 -176.001 -74s-98.667 -117.333 -132 -204s-50 -176.334 -50 -269.001
c0 -71.333 14.667 -128.333 44 -171s69 -64 119 -64c37.333 0 77.833 12.167 121.5 36.5s85.834 58.5 126.501 102.5z" />
    <glyph glyph-name="Emacron" unicode="&#x112;" horiz-adv-x="1251" 
d="M370 1262l-168.001 26l10 53h1006l-57 -321h-66l6 217c-72.667 9.33301 -179.667 14 -321 14h-219l-93 -524h362l60 160h64l-73 -412h-64l-2 162h-362l-97 -547h264c170.667 0 284.334 5.33301 341.001 16l101 248h66l-82 -354h-1070l10 53l175 27zM495.999 1495l19 109
h628l-19 -109h-628z" />
    <glyph glyph-name="emacron" unicode="&#x113;" horiz-adv-x="909" 
d="M863 760c0 -90.667 -56.001 -167.999 -168.001 -231.999s-262.333 -102.333 -451 -115l-4 -73c0 -84.667 17.833 -148.5 53.5 -191.5s88.5 -64.5 158.5 -64.5c60 0 115.333 10.167 166 30.5s98 43.5 142 69.5l29 -42c-61.333 -52 -126.166 -92 -194.499 -120
s-133.166 -42 -194.499 -42c-108 0 -191.167 30.167 -249.5 90.5s-87.5 146.833 -87.5 259.5c0 111.333 23.5 215.166 70.5 311.499s112.167 174.333 195.5 234s170.666 89.5 261.999 89.5c82 0 147.833 -18.833 197.5 -56.5s74.5 -87.167 74.5 -148.5zM251.999 476.001
c132 10 237.667 41 317 93s119 115.667 119 191c0 37.333 -10.167 68 -30.5 92s-49.833 36 -88.5 36c-46.667 0 -92 -19 -136 -57s-82 -89 -114 -153s-54.333 -131.333 -67 -202zM284.999 1161l19 109h628l-19 -109h-628z" />
    <glyph glyph-name="Ebreve" unicode="&#x114;" horiz-adv-x="1251" 
d="M370 1262l-168.001 26l10 53h1006l-57 -321h-66l6 217c-72.667 9.33301 -179.667 14 -321 14h-219l-93 -524h362l60 160h64l-73 -412h-64l-2 162h-362l-97 -547h264c170.667 0 284.334 5.33301 341.001 16l101 248h66l-82 -354h-1070l10 53l175 27zM782.999 1453
c-77.333 0 -137.002 19.667 -179.002 59s-63 94.333 -63 165l4 56h74c2.66699 -43.333 20.834 -77.333 54.501 -102s78.5 -37 134.5 -37c57.333 0 106.833 12.5 148.5 37.5s71.167 58.833 88.5 101.5h74c-18 -86.667 -56.167 -155 -114.5 -205s-132.166 -75 -221.499 -75z
" />
    <glyph glyph-name="ebreve" unicode="&#x115;" horiz-adv-x="909" 
d="M863 760c0 -90.667 -56.001 -167.999 -168.001 -231.999s-262.333 -102.333 -451 -115l-4 -73c0 -84.667 17.833 -148.5 53.5 -191.5s88.5 -64.5 158.5 -64.5c60 0 115.333 10.167 166 30.5s98 43.5 142 69.5l29 -42c-61.333 -52 -126.166 -92 -194.499 -120
s-133.166 -42 -194.499 -42c-108 0 -191.167 30.167 -249.5 90.5s-87.5 146.833 -87.5 259.5c0 111.333 23.5 215.166 70.5 311.499s112.167 174.333 195.5 234s170.666 89.5 261.999 89.5c82 0 147.833 -18.833 197.5 -56.5s74.5 -87.167 74.5 -148.5zM251.999 476.001
c132 10 237.667 41 317 93s119 115.667 119 191c0 37.333 -10.167 68 -30.5 92s-49.833 36 -88.5 36c-46.667 0 -92 -19 -136 -57s-82 -89 -114 -153s-54.333 -131.333 -67 -202zM570.999 1119c-77.333 0 -137.002 19.667 -179.002 59s-63 94.333 -63 165l4 56h74
c2.66699 -43.333 20.834 -77.333 54.501 -102s78.5 -37 134.5 -37c57.333 0 106.833 12.5 148.5 37.5s71.167 58.833 88.5 101.5h74c-18 -86.667 -56.167 -155 -114.5 -205s-132.166 -75 -221.499 -75z" />
    <glyph glyph-name="Edotaccent" unicode="&#x116;" horiz-adv-x="1251" 
d="M370 1262l-168.001 26l10 53h1006l-57 -321h-66l6 217c-72.667 9.33301 -179.667 14 -321 14h-219l-93 -524h362l60 160h64l-73 -412h-64l-2 162h-362l-97 -547h264c170.667 0 284.334 5.33301 341.001 16l101 248h66l-82 -354h-1070l10 53l175 27zM934.999 1581
c0 -29.333 -10.667 -54.666 -32 -75.999s-47 -32 -77 -32c-29.333 0 -54.666 10.667 -75.999 32s-32 46.666 -32 75.999c0 30 10.667 55.667 32 77s46.666 32 75.999 32c30 0 55.667 -10.667 77 -32s32 -47 32 -77z" />
    <glyph glyph-name="edotaccent" unicode="&#x117;" horiz-adv-x="909" 
d="M863 760c0 -90.667 -56.001 -167.999 -168.001 -231.999s-262.333 -102.333 -451 -115l-4 -73c0 -84.667 17.833 -148.5 53.5 -191.5s88.5 -64.5 158.5 -64.5c60 0 115.333 10.167 166 30.5s98 43.5 142 69.5l29 -42c-61.333 -52 -126.166 -92 -194.499 -120
s-133.166 -42 -194.499 -42c-108 0 -191.167 30.167 -249.5 90.5s-87.5 146.833 -87.5 259.5c0 111.333 23.5 215.166 70.5 311.499s112.167 174.333 195.5 234s170.666 89.5 261.999 89.5c82 0 147.833 -18.833 197.5 -56.5s74.5 -87.167 74.5 -148.5zM251.999 476.001
c132 10 237.667 41 317 93s119 115.667 119 191c0 37.333 -10.167 68 -30.5 92s-49.833 36 -88.5 36c-46.667 0 -92 -19 -136 -57s-82 -89 -114 -153s-54.333 -131.333 -67 -202zM731.999 1247c0 -29.333 -10.667 -54.666 -32 -75.999s-47 -32 -77 -32
c-29.333 0 -54.666 10.667 -75.999 32s-32 46.666 -32 75.999c0 30 10.667 55.667 32 77s46.666 32 75.999 32c30 0 55.667 -10.667 77 -32s32 -47 32 -77z" />
    <glyph glyph-name="Eogonek" unicode="&#x118;" horiz-adv-x="1251" 
d="M370 1262l-168.001 26l10 53h1006l-57 -321h-66l6 217c-72.667 9.33301 -179.667 14 -321 14h-219l-93 -524h362l60 160h64l-73 -412h-64l-2 162h-362l-97 -547h264c170.667 0 284.334 5.33301 341.001 16l101 248h66l-82 -354h-1070l10 53l175 27zM1036 -354
c-53.333 -32.667 -112.001 -49 -176.001 -49c-61.333 0 -109.5 16.167 -144.5 48.5s-52.5 76.833 -52.5 133.5c0 42 11.333 83.5 34 124.5s54.667 78.5 96 112.5h109c-28 -31.333 -50 -66 -66 -104s-24 -76 -24 -114c0 -36 10.333 -63.833 31 -83.5s50 -29.5 88 -29.5
c30.667 0 60.334 6 89.001 18z" />
    <glyph glyph-name="eogonek" unicode="&#x119;" horiz-adv-x="909" 
d="M863 760c0 -90.667 -56.001 -167.999 -168.001 -231.999s-262.333 -102.333 -451 -115l-4 -73c0 -84.667 17.833 -148.5 53.5 -191.5s88.5 -64.5 158.5 -64.5c60 0 115.333 10.167 166 30.5s98 43.5 142 69.5l29 -42c-61.333 -52 -126.166 -92 -194.499 -120
s-133.166 -42 -194.499 -42c-108 0 -191.167 30.167 -249.5 90.5s-87.5 146.833 -87.5 259.5c0 111.333 23.5 215.166 70.5 311.499s112.167 174.333 195.5 234s170.666 89.5 261.999 89.5c82 0 147.833 -18.833 197.5 -56.5s74.5 -87.167 74.5 -148.5zM251.999 476.001
c132 10 237.667 41 317 93s119 115.667 119 191c0 37.333 -10.167 68 -30.5 92s-49.833 36 -88.5 36c-46.667 0 -92 -19 -136 -57s-82 -89 -114 -153s-54.333 -131.333 -67 -202zM708.999 -353.999c-53.333 -32.667 -112.001 -49 -176.001 -49
c-61.333 0 -109.5 16.167 -144.5 48.5s-52.5 76.833 -52.5 133.5c0 42 11.333 83.5 34 124.5s54.667 78.5 96 112.5h109c-28 -31.333 -50 -66 -66 -104s-24 -76 -24 -114c0 -36 10.333 -63.833 31 -83.5s50 -29.5 88 -29.5c30.667 0 60.334 6 89.001 18z" />
    <glyph glyph-name="Ecaron" unicode="&#x11a;" horiz-adv-x="1251" 
d="M370 1262l-168.001 26l10 53h1006l-57 -321h-66l6 217c-72.667 9.33301 -179.667 14 -321 14h-219l-93 -524h362l60 160h64l-73 -412h-64l-2 162h-362l-97 -547h264c170.667 0 284.334 5.33301 341.001 16l101 248h66l-82 -354h-1070l10 53l175 27zM588.999 1758
l206 -183l270 183h60l-5 -33l-235 -273h-213l-140 273l5 33h52z" />
    <glyph glyph-name="ecaron" unicode="&#x11b;" horiz-adv-x="909" 
d="M863 760c0 -90.667 -56.001 -167.999 -168.001 -231.999s-262.333 -102.333 -451 -115l-4 -73c0 -84.667 17.833 -148.5 53.5 -191.5s88.5 -64.5 158.5 -64.5c60 0 115.333 10.167 166 30.5s98 43.5 142 69.5l29 -42c-61.333 -52 -126.166 -92 -194.499 -120
s-133.166 -42 -194.499 -42c-108 0 -191.167 30.167 -249.5 90.5s-87.5 146.833 -87.5 259.5c0 111.333 23.5 215.166 70.5 311.499s112.167 174.333 195.5 234s170.666 89.5 261.999 89.5c82 0 147.833 -18.833 197.5 -56.5s74.5 -87.167 74.5 -148.5zM251.999 476.001
c132 10 237.667 41 317 93s119 115.667 119 191c0 37.333 -10.167 68 -30.5 92s-49.833 36 -88.5 36c-46.667 0 -92 -19 -136 -57s-82 -89 -114 -153s-54.333 -131.333 -67 -202zM383.999 1424l206 -183l270 183h60l-5 -33l-235 -273h-213l-140 273l5 33h52z" />
    <glyph glyph-name="Gcircumflex" unicode="&#x11c;" horiz-adv-x="1479" 
d="M690 -18c-182 0 -323.666 47.833 -424.999 143.5s-152 228.167 -152 397.5c0 167.333 34.667 314 104 440s167.333 223 294 291s272 102 436 102c154 0 303 -20 447 -60l-51 -288h-67l3 166c-84.667 68 -197.334 102 -338.001 102c-118 0 -225 -31.833 -321 -95.5
s-171 -154.167 -225 -271.5s-81 -252.666 -81 -405.999c0 -138.667 34.167 -246.834 102.5 -324.501s163.833 -116.5 286.5 -116.5c59.333 0 119 8.5 179 25.5s111 38.833 153 65.5l63 353l-167 26l9 54h495l-9 -54l-136 -26l-75 -420
c-100.667 -38.667 -191.667 -65.667 -273 -81s-165.333 -23 -252 -23zM616.001 1452l5 33l235 273h213l139 -273l-5 -33h-47l-206 183l-270 -183h-64z" />
    <glyph glyph-name="gcircumflex" unicode="&#x11d;" horiz-adv-x="1024" 
d="M418 104c37.333 0 78.833 12.333 124.5 37s90.167 58.667 133.5 102l110 618l-43 11c-12.667 3.33301 -25.167 6 -37.5 8s-25.5 3.5 -39.5 4.5s-30 1.5 -48 1.5c-66.667 0 -128.667 -25 -186 -75s-102.333 -117.333 -135 -202s-49 -174.667 -49 -270
c0 -72 14.833 -129.167 44.5 -171.5s71.5 -63.5 125.5 -63.5zM662 160c-48 -52.667 -101.497 -95.998 -160.497 -129.998s-112.167 -51 -159.5 -51c-84.667 0 -151.334 29.833 -200.001 89.5s-73 141.167 -73 244.5c0 116.667 25.5 225.167 76.5 325.5
s120 179.666 207 237.999s181.5 87.5 283.5 87.5c40 0 92.167 -3.83301 156.5 -11.5s121.5 -17.5 171.5 -29.5l-168 -958c-24.667 -140.667 -72.834 -242.667 -144.501 -306s-177.5 -95 -317.5 -95c-58.667 0 -119.334 6.83301 -182.001 20.5s-113 30.5 -151 50.5l18 228h45
l36 -126c54 -52.667 131.667 -79 233 -79c81.333 0 146 21.167 194 63.5s80 110.166 96 203.499zM336.003 1118l5 33l235 273h213l139 -273l-5 -33h-47l-206 183l-270 -183h-64z" />
    <glyph glyph-name="Gbreve" unicode="&#x11e;" horiz-adv-x="1479" 
d="M690 -18c-182 0 -323.666 47.833 -424.999 143.5s-152 228.167 -152 397.5c0 167.333 34.667 314 104 440s167.333 223 294 291s272 102 436 102c154 0 303 -20 447 -60l-51 -288h-67l3 166c-84.667 68 -197.334 102 -338.001 102c-118 0 -225 -31.833 -321 -95.5
s-171 -154.167 -225 -271.5s-81 -252.666 -81 -405.999c0 -138.667 34.167 -246.834 102.5 -324.501s163.833 -116.5 286.5 -116.5c59.333 0 119 8.5 179 25.5s111 38.833 153 65.5l63 353l-167 26l9 54h495l-9 -54l-136 -26l-75 -420
c-100.667 -38.667 -191.667 -65.667 -273 -81s-165.333 -23 -252 -23zM935.001 1453c-77.333 0 -137.002 19.667 -179.002 59s-63 94.333 -63 165l4 56h74c2.66699 -43.333 20.834 -77.333 54.501 -102s78.5 -37 134.5 -37c57.333 0 106.833 12.5 148.5 37.5
s71.167 58.833 88.5 101.5h74c-18 -86.667 -56.167 -155 -114.5 -205s-132.166 -75 -221.499 -75z" />
    <glyph glyph-name="gbreve" unicode="&#x11f;" horiz-adv-x="1024" 
d="M418 104c37.333 0 78.833 12.333 124.5 37s90.167 58.667 133.5 102l110 618l-43 11c-12.667 3.33301 -25.167 6 -37.5 8s-25.5 3.5 -39.5 4.5s-30 1.5 -48 1.5c-66.667 0 -128.667 -25 -186 -75s-102.333 -117.333 -135 -202s-49 -174.667 -49 -270
c0 -72 14.833 -129.167 44.5 -171.5s71.5 -63.5 125.5 -63.5zM662 160c-48 -52.667 -101.497 -95.998 -160.497 -129.998s-112.167 -51 -159.5 -51c-84.667 0 -151.334 29.833 -200.001 89.5s-73 141.167 -73 244.5c0 116.667 25.5 225.167 76.5 325.5
s120 179.666 207 237.999s181.5 87.5 283.5 87.5c40 0 92.167 -3.83301 156.5 -11.5s121.5 -17.5 171.5 -29.5l-168 -958c-24.667 -140.667 -72.834 -242.667 -144.501 -306s-177.5 -95 -317.5 -95c-58.667 0 -119.334 6.83301 -182.001 20.5s-113 30.5 -151 50.5l18 228h45
l36 -126c54 -52.667 131.667 -79 233 -79c81.333 0 146 21.167 194 63.5s80 110.166 96 203.499zM632.003 1119c-77.333 0 -137.002 19.667 -179.002 59s-63 94.333 -63 165l4 56h74c2.66699 -43.333 20.834 -77.333 54.501 -102s78.5 -37 134.5 -37
c57.333 0 106.833 12.5 148.5 37.5s71.167 58.833 88.5 101.5h74c-18 -86.667 -56.167 -155 -114.5 -205s-132.166 -75 -221.499 -75z" />
    <glyph glyph-name="Gdotaccent" unicode="&#x120;" horiz-adv-x="1479" 
d="M690 -18c-182 0 -323.666 47.833 -424.999 143.5s-152 228.167 -152 397.5c0 167.333 34.667 314 104 440s167.333 223 294 291s272 102 436 102c154 0 303 -20 447 -60l-51 -288h-67l3 166c-84.667 68 -197.334 102 -338.001 102c-118 0 -225 -31.833 -321 -95.5
s-171 -154.167 -225 -271.5s-81 -252.666 -81 -405.999c0 -138.667 34.167 -246.834 102.5 -324.501s163.833 -116.5 286.5 -116.5c59.333 0 119 8.5 179 25.5s111 38.833 153 65.5l63 353l-167 26l9 54h495l-9 -54l-136 -26l-75 -420
c-100.667 -38.667 -191.667 -65.667 -273 -81s-165.333 -23 -252 -23zM1062 1581c0 -29.333 -10.667 -54.666 -32 -75.999s-47 -32 -77 -32c-29.333 0 -54.666 10.667 -75.999 32s-32 46.666 -32 75.999c0 30 10.667 55.667 32 77s46.666 32 75.999 32
c30 0 55.667 -10.667 77 -32s32 -47 32 -77z" />
    <glyph glyph-name="gdotaccent" unicode="&#x121;" horiz-adv-x="1024" 
d="M418 104c37.333 0 78.833 12.333 124.5 37s90.167 58.667 133.5 102l110 618l-43 11c-12.667 3.33301 -25.167 6 -37.5 8s-25.5 3.5 -39.5 4.5s-30 1.5 -48 1.5c-66.667 0 -128.667 -25 -186 -75s-102.333 -117.333 -135 -202s-49 -174.667 -49 -270
c0 -72 14.833 -129.167 44.5 -171.5s71.5 -63.5 125.5 -63.5zM662 160c-48 -52.667 -101.497 -95.998 -160.497 -129.998s-112.167 -51 -159.5 -51c-84.667 0 -151.334 29.833 -200.001 89.5s-73 141.167 -73 244.5c0 116.667 25.5 225.167 76.5 325.5
s120 179.666 207 237.999s181.5 87.5 283.5 87.5c40 0 92.167 -3.83301 156.5 -11.5s121.5 -17.5 171.5 -29.5l-168 -958c-24.667 -140.667 -72.834 -242.667 -144.501 -306s-177.5 -95 -317.5 -95c-58.667 0 -119.334 6.83301 -182.001 20.5s-113 30.5 -151 50.5l18 228h45
l36 -126c54 -52.667 131.667 -79 233 -79c81.333 0 146 21.167 194 63.5s80 110.166 96 203.499zM758.003 1247c0 -29.333 -10.667 -54.666 -32 -75.999s-47 -32 -77 -32c-29.333 0 -54.666 10.667 -75.999 32s-32 46.666 -32 75.999c0 30 10.667 55.667 32 77
s46.666 32 75.999 32c30 0 55.667 -10.667 77 -32s32 -47 32 -77z" />
    <glyph glyph-name="Gcommaaccent" unicode="&#x122;" horiz-adv-x="1479" 
d="M690 -18c-182 0 -323.666 47.833 -424.999 143.5s-152 228.167 -152 397.5c0 167.333 34.667 314 104 440s167.333 223 294 291s272 102 436 102c154 0 303 -20 447 -60l-51 -288h-67l3 166c-84.667 68 -197.334 102 -338.001 102c-118 0 -225 -31.833 -321 -95.5
s-171 -154.167 -225 -271.5s-81 -252.666 -81 -405.999c0 -138.667 34.167 -246.834 102.5 -324.501s163.833 -116.5 286.5 -116.5c59.333 0 119 8.5 179 25.5s111 38.833 153 65.5l63 353l-167 26l9 54h495l-9 -54l-136 -26l-75 -420
c-100.667 -38.667 -191.667 -65.667 -273 -81s-165.333 -23 -252 -23zM793.001 -196c0 -58.667 -19.502 -106.998 -58.502 -144.998s-100.5 -69.667 -184.5 -95v63c84 25.333 126 55 126 89c0 14 -4.66699 24.667 -14 32s-19.666 14.666 -30.999 21.999
s-21.666 16.666 -30.999 27.999s-14 28.333 -14 51c0 25.333 9 45.333 27 60s40 22 66 22c34 0 61.5 -11.167 82.5 -33.5s31.5 -53.5 31.5 -93.5z" />
    <glyph glyph-name="gcommaaccent" unicode="&#x123;" horiz-adv-x="1024" 
d="M418 104c37.333 0 78.833 12.333 124.5 37s90.167 58.667 133.5 102l110 618l-43 11c-12.667 3.33301 -25.167 6 -37.5 8s-25.5 3.5 -39.5 4.5s-30 1.5 -48 1.5c-66.667 0 -128.667 -25 -186 -75s-102.333 -117.333 -135 -202s-49 -174.667 -49 -270
c0 -72 14.833 -129.167 44.5 -171.5s71.5 -63.5 125.5 -63.5zM662 160c-48 -52.667 -101.497 -95.998 -160.497 -129.998s-112.167 -51 -159.5 -51c-84.667 0 -151.334 29.833 -200.001 89.5s-73 141.167 -73 244.5c0 116.667 25.5 225.167 76.5 325.5
s120 179.666 207 237.999s181.5 87.5 283.5 87.5c40 0 92.167 -3.83301 156.5 -11.5s121.5 -17.5 171.5 -29.5l-168 -958c-24.667 -140.667 -72.834 -242.667 -144.501 -306s-177.5 -95 -317.5 -95c-58.667 0 -119.334 6.83301 -182.001 20.5s-113 30.5 -151 50.5l18 228h45
l36 -126c54 -52.667 131.667 -79 233 -79c81.333 0 146 21.167 194 63.5s80 110.166 96 203.499zM574.003 1247c0 58.667 19.502 106.998 58.502 144.998s100.5 69.667 184.5 95v-63c-84 -25.333 -126 -55 -126 -89c0 -14 4.66699 -24.667 14 -32
s19.666 -14.666 30.999 -21.999s21.666 -16.666 30.999 -27.999s14 -28.333 14 -51c0 -25.333 -9 -45.333 -27 -60s-40 -22 -66 -22c-34 0 -61.5 11.167 -82.5 33.5s-31.5 53.5 -31.5 93.5z" />
    <glyph glyph-name="Hcircumflex" unicode="&#x124;" horiz-adv-x="1479" 
d="M-22 0l8 53l176 27l207 1182l-166 26l8 53h537l-8 -53l-179 -26l-92 -527h631l92 527l-166 26l8 53h537l-8 -53l-178 -26l-207 -1182l166 -27l-9 -53h-536l8 53l178 27l99 565h-631l-99 -565l166 -27l-8 -53h-534zM616 1452l5 33l235 273h213l139 -273l-5 -33h-47
l-206 183l-270 -183h-64z" />
    <glyph glyph-name="hcircumflex" unicode="&#x125;" horiz-adv-x="1024" 
d="M357 1352l-118 24l8 45h288l-106 -596l-16 -76c53.333 70 110.5 123.5 171.5 160.5s120.833 55.5 179.5 55.5c67.333 0 118 -18.167 152 -54.5s51 -88.5 51 -156.5c0 -9.33301 -1.33301 -23.666 -4 -42.999s-39 -233.333 -109 -642l131 -24l-8 -45h-301l102 582
c15.333 84.667 23 140 23 166c0 30 -8 54.333 -24 73s-41.333 28 -76 28c-50 0 -104 -20.833 -162 -62.5s-105.667 -92.834 -143 -153.501l-111 -633h-165zM437 1502l5 33l235 273h213l139 -273l-5 -33h-47l-206 183l-270 -183h-64z" />
    <glyph glyph-name="Hbar" unicode="&#x126;" horiz-adv-x="1479" 
d="M-22 0l8 53l176 27l153 877h-172l14 82h173l39 223l-166 26l8 53h537l-8 -53l-179 -26l-39 -223h631l39 223l-166 26l8 53h537l-8 -53l-178 -26l-39 -223h171l-14 -82h-172l-153 -877l166 -27l-9 -53h-536l8 53l178 27l99 565h-631l-99 -565l166 -27l-8 -53h-534z
M1100 735l39 222h-631l-39 -222h631z" />
    <glyph glyph-name="hbar" unicode="&#x127;" horiz-adv-x="1024" 
d="M269 1114h-123l14 82h124l27 156l-118 24l8 45h288l-41 -225h217l-15 -82h-216l-51 -289l-16 -76c53.333 70 110.5 123.5 171.5 160.5s120.833 55.5 179.5 55.5c67.333 0 118 -18.167 152 -54.5s51 -88.5 51 -156.5c0 -9.33301 -1.33301 -23.666 -4 -42.999
s-39 -233.333 -109 -642l131 -24l-8 -45h-301l102 582c15.333 84.667 23 140 23 166c0 30 -8 54.333 -24 73s-41.333 28 -76 28c-50 0 -104 -20.833 -162 -62.5s-105.667 -92.834 -143 -153.501l-111 -633h-165z" />
    <glyph glyph-name="Itilde" unicode="&#x128;" horiz-adv-x="682" 
d="M369 80l166 -27l-8 -53h-535l8 53l176 27l207 1182l-166 26l8 53h537l-8 -53l-178 -26zM632 1453c-32 0 -60.165 7.16602 -84.498 21.499s-47 30.333 -68 48s-41.333 33.667 -61 48s-40.5 21.5 -62.5 21.5c-21.333 0 -38.833 -3.83301 -52.5 -11.5
s-25.334 -18.167 -35.001 -31.5s-20.834 -38.666 -33.501 -75.999h-52c21.333 84.667 51.5 146.167 90.5 184.5s88.167 57.5 147.5 57.5c32 0 60.333 -7.16699 85 -21.5s47.5 -30.333 68.5 -48s41.333 -33.667 61 -48s40.167 -21.5 61.5 -21.5c28 0 51.333 8 70 24
s35.667 47.333 51 94h52c-21.333 -83.333 -51.5 -144.333 -90.5 -183s-88.167 -58 -147.5 -58z" />
    <glyph glyph-name="itilde" unicode="&#x129;" horiz-adv-x="569" 
d="M287 70l157 -25l-8 -45h-327l153 870l-129 25l8 45h299zM516 1119c-32 0 -60.165 7.16602 -84.498 21.499s-47 30.333 -68 48s-41.333 33.667 -61 48s-40.5 21.5 -62.5 21.5c-21.333 0 -38.833 -3.83301 -52.5 -11.5s-25.334 -18.167 -35.001 -31.5
s-20.834 -38.666 -33.501 -75.999h-52c21.333 84.667 51.5 146.167 90.5 184.5s88.167 57.5 147.5 57.5c32 0 60.333 -7.16699 85 -21.5s47.5 -30.333 68.5 -48s41.333 -33.667 61 -48s40.167 -21.5 61.5 -21.5c28 0 51.333 8 70 24s35.667 47.333 51 94h52
c-21.333 -83.333 -51.5 -144.333 -90.5 -183s-88.167 -58 -147.5 -58z" />
    <glyph glyph-name="Imacron" unicode="&#x12a;" horiz-adv-x="682" 
d="M369 80l166 -27l-8 -53h-535l8 53l176 27l207 1182l-166 26l8 53h537l-8 -53l-178 -26zM204 1495l19 109h628l-19 -109h-628z" />
    <glyph glyph-name="imacron" unicode="&#x12b;" horiz-adv-x="569" 
d="M287 70l157 -25l-8 -45h-327l153 870l-129 25l8 45h299zM80 1161l19 109h628l-19 -109h-628z" />
    <glyph glyph-name="Ibreve" unicode="&#x12c;" horiz-adv-x="682" 
d="M369 80l166 -27l-8 -53h-535l8 53l176 27l207 1182l-166 26l8 53h537l-8 -53l-178 -26zM515 1453c-77.333 0 -137.002 19.667 -179.002 59s-63 94.333 -63 165l4 56h74c2.66699 -43.333 20.834 -77.333 54.501 -102s78.5 -37 134.5 -37c57.333 0 106.833 12.5 148.5 37.5
s71.167 58.833 88.5 101.5h74c-18 -86.667 -56.167 -155 -114.5 -205s-132.166 -75 -221.499 -75z" />
    <glyph glyph-name="ibreve" unicode="&#x12d;" horiz-adv-x="569" 
d="M287 70l157 -25l-8 -45h-327l153 870l-129 25l8 45h299zM385 1119c-77.333 0 -137.002 19.667 -179.002 59s-63 94.333 -63 165l4 56h74c2.66699 -43.333 20.834 -77.333 54.501 -102s78.5 -37 134.5 -37c57.333 0 106.833 12.5 148.5 37.5s71.167 58.833 88.5 101.5h74
c-18 -86.667 -56.167 -155 -114.5 -205s-132.166 -75 -221.499 -75z" />
    <glyph glyph-name="Iogonek" unicode="&#x12e;" horiz-adv-x="682" 
d="M369 80l166 -27l-8 -53h-535l8 53l176 27l207 1182l-166 26l8 53h537l-8 -53l-178 -26zM460 -354c-53.333 -32.667 -112.001 -49 -176.001 -49c-61.333 0 -109.5 16.167 -144.5 48.5s-52.5 76.833 -52.5 133.5c0 42 11.333 83.5 34 124.5s54.667 78.5 96 112.5h109
c-28 -31.333 -50 -66 -66 -104s-24 -76 -24 -114c0 -36 10.333 -63.833 31 -83.5s50 -29.5 88 -29.5c30.667 0 60.334 6 89.001 18z" />
    <glyph glyph-name="iogonek" unicode="&#x12f;" horiz-adv-x="569" 
d="M292 70l157 -25l-8 -45h-327l153 870l-129 25l8 45h299zM507 1247c0 -29.333 -10.667 -54.666 -32 -75.999s-47 -32 -77 -32c-29.333 0 -54.666 10.667 -75.999 32s-32 46.666 -32 75.999c0 30 10.667 55.667 32 77s46.666 32 75.999 32c30 0 55.667 -10.667 77 -32
s32 -47 32 -77zM376 -354c-53.333 -32.667 -112.001 -49 -176.001 -49c-61.333 0 -109.5 16.167 -144.5 48.5s-52.5 76.833 -52.5 133.5c0 42 11.333 83.5 34 124.5s54.667 78.5 96 112.5h109c-28 -31.333 -50 -66 -66 -104s-24 -76 -24 -114c0 -36 10.333 -63.833 31 -83.5
s50 -29.5 88 -29.5c30.667 0 60.334 6 89.001 18z" />
    <glyph glyph-name="Idotaccent" unicode="&#x130;" horiz-adv-x="682" 
d="M369 80l166 -27l-8 -53h-535l8 53l176 27l207 1182l-166 26l8 53h537l-8 -53l-178 -26zM645 1581c0 -29.333 -10.667 -54.666 -32 -75.999s-47 -32 -77 -32c-29.333 0 -54.666 10.667 -75.999 32s-32 46.666 -32 75.999c0 30 10.667 55.667 32 77s46.666 32 75.999 32
c30 0 55.667 -10.667 77 -32s32 -47 32 -77z" />
    <glyph glyph-name="dotlessi" unicode="&#x131;" horiz-adv-x="569" 
d="M287 70l157 -25l-8 -45h-327l153 870l-129 25l8 45h299z" />
    <glyph glyph-name="IJ" unicode="&#x132;" horiz-adv-x="1536" 
d="M369 80l166 -27l-8 -53h-535l8 53l176 27l207 1182l-166 26l8 53h537l-8 -53l-178 -26zM1258 1262l-167.001 26l9 53h516l-9 -53l-157 -26l-146 -830c-53.333 -301.333 -190 -452 -410 -452c-46 0 -90 4.5 -132 13.5s-76.667 19.833 -104 32.5l42 232h65l5 -139
c8.66699 -14.667 26.834 -27.167 54.501 -37.5s55.5 -15.5 83.5 -15.5c93.333 0 151 63.333 173 190z" />
    <glyph glyph-name="ij" unicode="&#x133;" horiz-adv-x="1025" 
d="M292 70l157 -25l-8 -45h-327l153 870l-129 25l8 45h299zM507 1247c0 -29.333 -10.667 -54.666 -32 -75.999s-47 -32 -77 -32c-29.333 0 -54.666 10.667 -75.999 32s-32 46.666 -32 75.999c0 30 10.667 55.667 32 77s46.666 32 75.999 32c30 0 55.667 -10.667 77 -32
s32 -47 32 -77zM397 -436c-54 0 -107.333 10 -160 30l33 187h47l15 -110c18 -18 41.667 -27 71 -27c43.333 0 77.5 21.333 102.5 64s45.5 110 61.5 202l170 960l-137 25l8 45h307l-174 -979c-24 -134.667 -64.167 -234.5 -120.5 -299.5s-130.833 -97.5 -223.5 -97.5z
M975 1247c0 -29.333 -10.667 -54.666 -32 -75.999s-47 -32 -77 -32c-29.333 0 -54.666 10.667 -75.999 32s-32 46.666 -32 75.999c0 30 10.667 55.667 32 77s46.666 32 75.999 32c30 0 55.667 -10.667 77 -32s32 -47 32 -77z" />
    <glyph glyph-name="Jcircumflex" unicode="&#x134;" horiz-adv-x="909" 
d="M631 1262l-167.001 26l9 53h516l-9 -53l-157 -26l-146 -830c-53.333 -301.333 -190 -452 -410 -452c-46 0 -90 4.5 -132 13.5s-76.667 19.833 -104 32.5l42 232h65l5 -139c8.66699 -14.667 26.834 -27.167 54.501 -37.5s55.5 -15.5 83.5 -15.5
c93.333 0 151 63.333 173 190zM457.999 1452l5 33l235 273h213l139 -273l-5 -33h-47l-206 183l-270 -183h-64z" />
    <glyph glyph-name="jcircumflex" unicode="&#x135;" horiz-adv-x="569" 
d="M79 1118l5 33l235 273h213l139 -273l-5 -33h-47l-206 183l-270 -183h-64zM-59 -436c-54 0 -107.333 10 -160 30l33 187h47l15 -110c18 -18 41.667 -27 71 -27c43.333 0 77.5 21.333 102.5 64s45.5 110 61.5 202l170 960l-137 25l8 45h307l-174 -979
c-24 -134.667 -64.167 -234.5 -120.5 -299.5s-130.833 -97.5 -223.5 -97.5z" />
    <glyph glyph-name="Kcommaaccent" unicode="&#x136;" horiz-adv-x="1366" 
d="M1454 1341l-10 -53l-156 -26l-556 -455l447 -727l134 -27l-10 -53h-307l-411 686l-143 -117l-88 -489l188 -27l-10 -53h-556l10 53l175 27l209 1182l-168 26l10 53h537l-10 -53l-176 -26l-98 -558l678 558l-119 26l10 53h420zM785 -196
c0 -58.667 -19.502 -106.998 -58.502 -144.998s-100.5 -69.667 -184.5 -95v63c84 25.333 126 55 126 89c0 14 -4.66699 24.667 -14 32s-19.666 14.666 -30.999 21.999s-21.666 16.666 -30.999 27.999s-14 28.333 -14 51c0 25.333 9 45.333 27 60s40 22 66 22
c34 0 61.5 -11.167 82.5 -33.5s31.5 -53.5 31.5 -93.5z" />
    <glyph glyph-name="kcommaaccent" unicode="&#x137;" horiz-adv-x="909" 
d="M299 1352l-135 24l8 45h305l-172 -968l428 415l-94 27l8 45h292l-8 -45l-81 -23l-294 -281l243 -523l98 -23l-8 -45h-236l-218 479l-148 -139l-62 -340h-166zM520 -196c0 -58.667 -19.502 -106.998 -58.502 -144.998s-100.5 -69.667 -184.5 -95v63
c84 25.333 126 55 126 89c0 14 -4.66699 24.667 -14 32s-19.666 14.666 -30.999 21.999s-21.666 16.666 -30.999 27.999s-14 28.333 -14 51c0 25.333 9 45.333 27 60s40 22 66 22c34 0 61.5 -11.167 82.5 -33.5s31.5 -53.5 31.5 -93.5z" />
    <glyph glyph-name="kgreenlandic" unicode="&#x138;" horiz-adv-x="909" 
d="M214 871l-135 24l8 45h305l-87 -487l428 415l-94 27l8 45h292l-8 -45l-81 -23l-294 -281l243 -523l98 -23l-8 -45h-236l-218 479l-148 -139l-62 -340h-166z" />
    <glyph glyph-name="Lacute" unicode="&#x139;" horiz-adv-x="1139" 
d="M355 86h214c126.667 0 225.667 6.66699 297 20l111 279h65l-86 -385h-980l10 53l175 27l209 1182l-168 26l10 53h572l-10 -53l-211 -26zM424 1452l5 33l244 272h213l-6 -37l-401 -268h-55z" />
    <glyph glyph-name="lacute" unicode="&#x13a;" horiz-adv-x="569" 
d="M287 70l157 -25l-8 -45h-327l237 1352l-129 24l8 45h299zM323 1502l5 33l244 272h213l-6 -37l-401 -268h-55z" />
    <glyph glyph-name="Lcommaaccent" unicode="&#x13b;" horiz-adv-x="1139" 
d="M355 86h214c126.667 0 225.667 6.66699 297 20l111 279h65l-86 -385h-980l10 53l175 27l209 1182l-168 26l10 53h572l-10 -53l-211 -26zM634 -196c0 -58.667 -19.502 -106.998 -58.502 -144.998s-100.5 -69.667 -184.5 -95v63c84 25.333 126 55 126 89
c0 14 -4.66699 24.667 -14 32s-19.666 14.666 -30.999 21.999s-21.666 16.666 -30.999 27.999s-14 28.333 -14 51c0 25.333 9 45.333 27 60s40 22 66 22c34 0 61.5 -11.167 82.5 -33.5s31.5 -53.5 31.5 -93.5z" />
    <glyph glyph-name="lcommaaccent" unicode="&#x13c;" horiz-adv-x="569" 
d="M287 70l157 -25l-8 -45h-327l237 1352l-129 24l8 45h299zM307 -196c0 -58.667 -19.502 -106.998 -58.502 -144.998s-100.5 -69.667 -184.5 -95v63c84 25.333 126 55 126 89c0 14 -4.66699 24.667 -14 32s-19.666 14.666 -30.999 21.999s-21.666 16.666 -30.999 27.999
s-14 28.333 -14 51c0 25.333 9 45.333 27 60s40 22 66 22c34 0 61.5 -11.167 82.5 -33.5s31.5 -53.5 31.5 -93.5z" />
    <glyph glyph-name="Lcaron" unicode="&#x13d;" horiz-adv-x="1139" 
d="M355 86h214c126.667 0 225.667 6.66699 297 20l111 279h65l-86 -385h-980l10 53l175 27l209 1182l-168 26l10 53h572l-10 -53l-211 -26zM1171 1198c0 -72.667 -23.833 -131.831 -71.5 -177.498s-125.834 -80.834 -234.501 -105.501v63c44.667 10 80.334 22 107.001 36
s46.334 29 59.001 45s19 37 19 63c0 11.333 -4.83301 21.166 -14.5 29.499l-32 26.5c-11.667 9.33301 -22.334 20.5 -32.001 33.5s-14.5 29.833 -14.5 50.5c0 25.333 9.16699 44.833 27.5 58.5s41.833 20.5 70.5 20.5c33.333 0 61 -13 83 -39s33 -60.667 33 -104z" />
    <glyph glyph-name="lcaron" unicode="&#x13e;" horiz-adv-x="745" 
d="M287 70l157 -25l-8 -45h-327l237 1352l-129 24l8 45h299zM874 1278c0 -72.667 -23.833 -131.831 -71.5 -177.498s-125.834 -80.834 -234.501 -105.501v63c44.667 10 80.334 22 107.001 36s46.334 29 59.001 45s19 37 19 63c0 11.333 -4.83301 21.166 -14.5 29.499
l-32 26.5c-11.667 9.33301 -22.334 20.5 -32.001 33.5s-14.5 29.833 -14.5 50.5c0 25.333 9.16699 44.833 27.5 58.5s41.833 20.5 70.5 20.5c33.333 0 61 -13 83 -39s33 -60.667 33 -104z" />
    <glyph glyph-name="Ldot" unicode="&#x13f;" horiz-adv-x="1139" 
d="M355 86h214c126.667 0 225.667 6.66699 297 20l111 279h65l-86 -385h-980l10 53l175 27l209 1182l-168 26l10 53h572l-10 -53l-211 -26zM958 670c0 -29.333 -10.667 -54.666 -32 -75.999s-47 -32 -77 -32c-29.333 0 -54.666 10.667 -75.999 32s-32 46.666 -32 75.999
c0 30 10.667 55.667 32 77s46.666 32 75.999 32c30 0 55.667 -10.667 77 -32s32 -47 32 -77z" />
    <glyph glyph-name="ldot" unicode="&#x140;" horiz-adv-x="661" 
d="M253 70l157 -25l-8 -45h-327l237 1352l-129 24l8 45h299zM741 670c0 -29.333 -10.667 -54.666 -32 -75.999s-47 -32 -77 -32c-29.333 0 -54.666 10.667 -75.999 32s-32 46.666 -32 75.999c0 30 10.667 55.667 32 77s46.666 32 75.999 32c30 0 55.667 -10.667 77 -32
s32 -47 32 -77z" />
    <glyph glyph-name="Lslash" unicode="&#x141;" horiz-adv-x="1139" 
d="M470 736l340 179l-17 -94l-340 -179l-98 -556h214c126.667 0 225.667 6.66699 297 20l111 279h65l-86 -385h-980l10 53l175 27l79 450l-204 -108l16 96l205 107l113 637l-168 26l10 53h572l-10 -53l-211 -26z" />
    <glyph glyph-name="lslash" unicode="&#x142;" horiz-adv-x="569" 
d="M400 716l212 113l-16 -94l-212 -113l-97 -552l157 -25l-8 -45h-327l92 526l-198 -104l16 96l198 103l129 731l-129 24l8 45h299z" />
    <glyph glyph-name="Nacute" unicode="&#x143;" horiz-adv-x="1366" 
d="M1170 1262l-176 26l10 53h457l-10 -53l-176 -26l-223 -1262h-97l-481 1206l-199 -1126l176 -27l-10 -53h-456l10 53l175 27l209 1182l-168 26l10 53h388l399 -1005zM743 1452l5 33l244 272h213l-6 -37l-401 -268h-55z" />
    <glyph glyph-name="nacute" unicode="&#x144;" horiz-adv-x="1024" 
d="M755 748c0 30 -8.00098 54.332 -24.001 72.999s-41.333 28 -76 28c-49.333 0 -103.166 -21 -161.499 -63s-106.5 -94 -144.5 -156l-110 -630h-166l153 871l-118 25l8 45h278l-27 -192c56 72 114 126 174 162s119 54 177 54c67.333 0 118 -18.167 152 -54.5
s51 -88.5 51 -156.5c0 -9.33301 -1.33301 -23.666 -4 -42.999s-39 -233.333 -109 -642l131 -24l-8 -45h-301l102 582c15.333 84.667 23 140 23 166zM498.999 1118l5 33l244 272h213l-6 -37l-401 -268h-55z" />
    <glyph glyph-name="Ncommaaccent" unicode="&#x145;" horiz-adv-x="1366" 
d="M1170 1262l-176 26l10 53h457l-10 -53l-176 -26l-223 -1262h-97l-481 1206l-199 -1126l176 -27l-10 -53h-456l10 53l175 27l209 1182l-168 26l10 53h388l399 -1005zM702 -196c0 -58.667 -19.502 -106.998 -58.502 -144.998s-100.5 -69.667 -184.5 -95v63
c84 25.333 126 55 126 89c0 14 -4.66699 24.667 -14 32s-19.666 14.666 -30.999 21.999s-21.666 16.666 -30.999 27.999s-14 28.333 -14 51c0 25.333 9 45.333 27 60s40 22 66 22c34 0 61.5 -11.167 82.5 -33.5s31.5 -53.5 31.5 -93.5z" />
    <glyph glyph-name="ncommaaccent" unicode="&#x146;" horiz-adv-x="1024" 
d="M755 748c0 30 -8.00098 54.332 -24.001 72.999s-41.333 28 -76 28c-49.333 0 -103.166 -21 -161.499 -63s-106.5 -94 -144.5 -156l-110 -630h-166l153 871l-118 25l8 45h278l-27 -192c56 72 114 126 174 162s119 54 177 54c67.333 0 118 -18.167 152 -54.5
s51 -88.5 51 -156.5c0 -9.33301 -1.33301 -23.666 -4 -42.999s-39 -233.333 -109 -642l131 -24l-8 -45h-301l102 582c15.333 84.667 23 140 23 166zM530.999 -196.001c0 -58.667 -19.502 -106.998 -58.502 -144.998s-100.5 -69.667 -184.5 -95v63c84 25.333 126 55 126 89
c0 14 -4.66699 24.667 -14 32s-19.666 14.666 -30.999 21.999s-21.666 16.666 -30.999 27.999s-14 28.333 -14 51c0 25.333 9 45.333 27 60s40 22 66 22c34 0 61.5 -11.167 82.5 -33.5s31.5 -53.5 31.5 -93.5z" />
    <glyph glyph-name="Ncaron" unicode="&#x147;" horiz-adv-x="1366" 
d="M1170 1262l-176 26l10 53h457l-10 -53l-176 -26l-223 -1262h-97l-481 1206l-199 -1126l176 -27l-10 -53h-456l10 53l175 27l209 1182l-168 26l10 53h388l399 -1005zM662 1758l206 -183l270 183h60l-5 -33l-235 -273h-213l-140 273l5 33h52z" />
    <glyph glyph-name="ncaron" unicode="&#x148;" horiz-adv-x="1024" 
d="M755 748c0 30 -8.00098 54.332 -24.001 72.999s-41.333 28 -76 28c-49.333 0 -103.166 -21 -161.499 -63s-106.5 -94 -144.5 -156l-110 -630h-166l153 871l-118 25l8 45h278l-27 -192c56 72 114 126 174 162s119 54 177 54c67.333 0 118 -18.167 152 -54.5
s51 -88.5 51 -156.5c0 -9.33301 -1.33301 -23.666 -4 -42.999s-39 -233.333 -109 -642l131 -24l-8 -45h-301l102 582c15.333 84.667 23 140 23 166zM446.999 1424l206 -183l270 183h60l-5 -33l-235 -273h-213l-140 273l5 33h52z" />
    <glyph glyph-name="napostrophe" unicode="&#x149;" horiz-adv-x="1182" 
d="M913 748c0 30 -8.00098 54.332 -24.001 72.999s-41.333 28 -76 28c-49.333 0 -103.166 -21 -161.499 -63s-106.5 -94 -144.5 -156l-110 -630h-166l153 871l-118 25l8 45h278l-27 -192c56 72 114 126 174 162s119 54 177 54c67.333 0 118 -18.167 152 -54.5
s51 -88.5 51 -156.5c0 -9.33301 -1.33301 -23.666 -4 -42.999s-39 -233.333 -109 -642l131 -24l-8 -45h-301l102 582c15.333 84.667 23 140 23 166zM322.999 1193c0 -87.333 -27.668 -161.5 -83.001 -222.5s-132.666 -105.833 -231.999 -134.5v77
c124 39.333 186 95.333 186 168c0 18.667 -6.5 32.667 -19.5 42s-27.333 18.833 -43 28.5s-30 21.667 -43 36s-19.5 35.5 -19.5 63.5c0 36 11.333 63.5 34 82.5s51.667 28.5 87 28.5c40.667 0 73 -15 97 -45s36 -71.333 36 -124z" />
    <glyph glyph-name="Eng" unicode="&#x14a;" horiz-adv-x="1426" 
d="M830 -20c-46 0 -90.002 4.5 -132.002 13.5s-76.667 19.833 -104 32.5l42 232h65l5 -139c8.66699 -14.667 26.834 -27.167 54.501 -37.5s55.5 -15.5 83.5 -15.5c93.333 0 151 63.333 173 190l112 623c2 12.667 4.33301 26.5 7 41.5s5 30.333 7 46s3.66699 30.667 5 45
s2 27.166 2 38.499c0 59.333 -17.167 104.333 -51.5 135s-84.5 46 -150.5 46c-55.333 0 -119 -10.167 -191 -30.5s-145.333 -49.166 -220 -86.499l-182 -1034l137 -27l-9 -53h-506l9 53l176 27l209 1182l-168 26l10 53h363l-23 -140c186.667 100 343.334 150 470.001 150
c210.667 0 316 -93.333 316 -280c0 -48 -6.66699 -112 -20 -192l-79 -447c-53.333 -301.333 -190 -452 -410 -452z" />
    <glyph glyph-name="eng" unicode="&#x14b;" horiz-adv-x="987" 
d="M921 754c0 -24 -8.33301 -82 -25 -174l-109 -619c-44.667 -264.667 -159.334 -397 -344.001 -397c-54 0 -107.333 10 -160 30l33 187h47l15 -110c18 -18 41.667 -27 71 -27c43.333 0 77.5 21.333 102.5 64s45.5 110 61.5 202l119 672c15.333 92 23 147.333 23 166
c0 30 -8 54.333 -24 73s-41.333 28 -76 28c-49.333 0 -103.166 -21 -161.499 -63s-106.5 -94 -144.5 -156l-110 -630h-166l153 871l-118 25l8 45h278l-27 -192c56 72 114 126 174 162s119 54 177 54c67.333 0 118 -18.167 152 -54.5s51 -88.5 51 -156.5z" />
    <glyph glyph-name="Omacron" unicode="&#x14c;" horiz-adv-x="1479" 
d="M1231 832c0 133.333 -34.166 240.667 -102.499 322s-158.5 122 -270.5 122c-99.333 0 -190.5 -33.833 -273.5 -101.5s-150.667 -164.5 -203 -290.5s-78.5 -253 -78.5 -381c0 -132 33.5 -238 100.5 -318s155.833 -120 266.5 -120c99.333 0 191.166 33.5 275.499 100.5
s153 163.5 206 289.5s79.5 251.667 79.5 377zM663.001 -19.999c-107.333 0 -203.833 22.501 -289.5 67.501s-152.167 108.5 -199.5 190.5s-71 174 -71 276c0 160.667 33.333 306.167 100 436.5s157.667 230.5 273 300.5s247 105 395 105
c107.333 0 203.833 -22.5 289.5 -67.5s152.167 -108.333 199.5 -190s71 -173.834 71 -276.501c0 -158 -33.5 -303.333 -100.5 -436s-158 -233.5 -273 -302.5s-246.5 -103.5 -394.5 -103.5zM591.001 1495l19 109h628l-19 -109h-628z" />
    <glyph glyph-name="omacron" unicode="&#x14d;" horiz-adv-x="1024" 
d="M237 340c0 -90 17.499 -158.833 52.499 -206.5s83.833 -71.5 146.5 -71.5c60.667 0 118.5 24.333 173.5 73s98.5 115.167 130.5 199.5s48 174.833 48 271.5c0 92 -17.5 161.833 -52.5 209.5s-85.167 71.5 -150.5 71.5c-60.667 0 -118.167 -24.333 -172.5 -73
s-97.166 -115.167 -128.499 -199.5s-47 -175.833 -47 -274.5zM426.999 -20c-110.667 0 -199.334 35.5 -266.001 106.5s-100 166.833 -100 287.5c0 107.333 23 206.666 69 297.999s109.833 163 191.5 215s173.5 78 275.5 78c110.667 0 199.334 -35.5 266.001 -106.5
s100 -166.833 100 -287.5c0 -107.333 -23 -206.666 -69 -297.999s-109.833 -163 -191.5 -215s-173.5 -78 -275.5 -78zM323.999 1161l19 109h628l-19 -109h-628z" />
    <glyph glyph-name="Obreve" unicode="&#x14e;" horiz-adv-x="1479" 
d="M1231 832c0 133.333 -34.166 240.667 -102.499 322s-158.5 122 -270.5 122c-99.333 0 -190.5 -33.833 -273.5 -101.5s-150.667 -164.5 -203 -290.5s-78.5 -253 -78.5 -381c0 -132 33.5 -238 100.5 -318s155.833 -120 266.5 -120c99.333 0 191.166 33.5 275.499 100.5
s153 163.5 206 289.5s79.5 251.667 79.5 377zM663.001 -19.999c-107.333 0 -203.833 22.501 -289.5 67.501s-152.167 108.5 -199.5 190.5s-71 174 -71 276c0 160.667 33.333 306.167 100 436.5s157.667 230.5 273 300.5s247 105 395 105
c107.333 0 203.833 -22.5 289.5 -67.5s152.167 -108.333 199.5 -190s71 -173.834 71 -276.501c0 -158 -33.5 -303.333 -100.5 -436s-158 -233.5 -273 -302.5s-246.5 -103.5 -394.5 -103.5zM894.001 1453c-77.333 0 -137.002 19.667 -179.002 59s-63 94.333 -63 165l4 56h74
c2.66699 -43.333 20.834 -77.333 54.501 -102s78.5 -37 134.5 -37c57.333 0 106.833 12.5 148.5 37.5s71.167 58.833 88.5 101.5h74c-18 -86.667 -56.167 -155 -114.5 -205s-132.166 -75 -221.499 -75z" />
    <glyph glyph-name="obreve" unicode="&#x14f;" horiz-adv-x="1024" 
d="M237 340c0 -90 17.499 -158.833 52.499 -206.5s83.833 -71.5 146.5 -71.5c60.667 0 118.5 24.333 173.5 73s98.5 115.167 130.5 199.5s48 174.833 48 271.5c0 92 -17.5 161.833 -52.5 209.5s-85.167 71.5 -150.5 71.5c-60.667 0 -118.167 -24.333 -172.5 -73
s-97.166 -115.167 -128.499 -199.5s-47 -175.833 -47 -274.5zM426.999 -20c-110.667 0 -199.334 35.5 -266.001 106.5s-100 166.833 -100 287.5c0 107.333 23 206.666 69 297.999s109.833 163 191.5 215s173.5 78 275.5 78c110.667 0 199.334 -35.5 266.001 -106.5
s100 -166.833 100 -287.5c0 -107.333 -23 -206.666 -69 -297.999s-109.833 -163 -191.5 -215s-173.5 -78 -275.5 -78zM625.999 1119c-77.333 0 -137.002 19.667 -179.002 59s-63 94.333 -63 165l4 56h74c2.66699 -43.333 20.834 -77.333 54.501 -102s78.5 -37 134.5 -37
c57.333 0 106.833 12.5 148.5 37.5s71.167 58.833 88.5 101.5h74c-18 -86.667 -56.167 -155 -114.5 -205s-132.166 -75 -221.499 -75z" />
    <glyph glyph-name="Ohungarumlaut" unicode="&#x150;" horiz-adv-x="1479" 
d="M1231 832c0 133.333 -34.166 240.667 -102.499 322s-158.5 122 -270.5 122c-99.333 0 -190.5 -33.833 -273.5 -101.5s-150.667 -164.5 -203 -290.5s-78.5 -253 -78.5 -381c0 -132 33.5 -238 100.5 -318s155.833 -120 266.5 -120c99.333 0 191.166 33.5 275.499 100.5
s153 163.5 206 289.5s79.5 251.667 79.5 377zM663.001 -19.999c-107.333 0 -203.833 22.501 -289.5 67.501s-152.167 108.5 -199.5 190.5s-71 174 -71 276c0 160.667 33.333 306.167 100 436.5s157.667 230.5 273 300.5s247 105 395 105
c107.333 0 203.833 -22.5 289.5 -67.5s152.167 -108.333 199.5 -190s71 -173.834 71 -276.501c0 -158 -33.5 -303.333 -100.5 -436s-158 -233.5 -273 -302.5s-246.5 -103.5 -394.5 -103.5zM594.001 1452l6 33l227 293h192l-6 -37l-344 -289h-75zM944.001 1452l6 33l227 293
h192l-6 -37l-343 -289h-76z" />
    <glyph glyph-name="ohungarumlaut" unicode="&#x151;" horiz-adv-x="1024" 
d="M237 340c0 -90 17.499 -158.833 52.499 -206.5s83.833 -71.5 146.5 -71.5c60.667 0 118.5 24.333 173.5 73s98.5 115.167 130.5 199.5s48 174.833 48 271.5c0 92 -17.5 161.833 -52.5 209.5s-85.167 71.5 -150.5 71.5c-60.667 0 -118.167 -24.333 -172.5 -73
s-97.166 -115.167 -128.499 -199.5s-47 -175.833 -47 -274.5zM426.999 -20c-110.667 0 -199.334 35.5 -266.001 106.5s-100 166.833 -100 287.5c0 107.333 23 206.666 69 297.999s109.833 163 191.5 215s173.5 78 275.5 78c110.667 0 199.334 -35.5 266.001 -106.5
s100 -166.833 100 -287.5c0 -107.333 -23 -206.666 -69 -297.999s-109.833 -163 -191.5 -215s-173.5 -78 -275.5 -78zM318.999 1118l6 33l227 293h192l-6 -37l-344 -289h-75zM668.999 1118l6 33l227 293h192l-6 -37l-343 -289h-76z" />
    <glyph glyph-name="OE" unicode="&#x152;" horiz-adv-x="1933" 
d="M642 -6c-168.667 0 -300.668 45.667 -396.001 137s-143 219 -143 383c0 156.667 32 299 96 427s154.5 227.833 271.5 299.5s250.5 107.5 400.5 107.5l265 -7h764l-57 -321h-66l6 217c-72.667 9.33301 -179.667 14 -321 14h-219l-93 -524h362l60 160h64l-73 -412h-64
l-2 162h-362l-97 -547h264c170.667 0 284.334 5.33301 341.001 16l101 248h66l-82 -354h-811c-52 -4 -143.667 -6 -275 -6zM654.999 65c75.333 0 138.333 7.33203 189 21.999l204 1165c-44 16 -107.333 24 -190 24c-99.333 0 -190.5 -33.833 -273.5 -101.5
s-150.667 -164.5 -203 -290.5s-78.5 -253 -78.5 -381c0 -139.333 30.667 -247.166 92 -323.499s148 -114.5 260 -114.5z" />
    <glyph glyph-name="oe" unicode="&#x153;" horiz-adv-x="1366" 
d="M341 -20c-88.667 0 -157.5 30.3311 -206.5 90.998s-73.5 146.334 -73.5 257.001c0 117.333 21 225 63 323s100.833 174.833 176.5 230.5s161.167 83.5 256.5 83.5c107.333 0 185.666 -48.333 234.999 -145c32 44 74.167 79.167 126.5 105.5s110.166 39.5 173.499 39.5
c70.667 0 126.334 -16.333 167.001 -49s61 -79 61 -139c0 -63.333 -20.5 -121.166 -61.5 -173.499s-100 -95 -177 -128s-168.167 -53.833 -273.5 -62.5c-0.666992 -4.66699 -3 -23 -7 -55s-6 -61.333 -6 -88c0 -68 13.667 -116 41 -144s67.333 -42 120 -42
c80.667 0 167.667 33.333 261 100l29 -42c-120 -108 -236 -162 -348 -162c-121.333 0 -199.666 50.333 -234.999 151c-84.667 -100.667 -192 -151 -322 -151zM360 61.998c49.333 0 97.332 27.999 143.999 83.999s84.834 130.833 114.501 224.5s44.5 192.5 44.5 296.5
c0 70 -11.5 124.167 -34.5 162.5s-55.167 57.5 -96.5 57.5c-50 0 -98.167 -28.833 -144.5 -86.5s-83.333 -134.167 -111 -229.5s-41.5 -192.666 -41.5 -291.999c0 -68.667 10.667 -122 32 -160s52.333 -57 93 -57zM817.999 475.997c108.667 10.667 190.999 41 246.999 91
s84 116.667 84 200c0 40 -7.66699 70.167 -23 90.5s-34.666 30.5 -57.999 30.5c-54 0 -104.167 -38 -150.5 -114s-79.5 -175.333 -99.5 -298z" />
    <glyph glyph-name="Racute" unicode="&#x154;" horiz-adv-x="1251" 
d="M444 588l-90 -508l179 -27l-10 -53h-534l10 53l162 27l209 1182l-168 26l10 53h532c146 0 257.333 -27.667 334 -83s115 -136 115 -242c0 -210.667 -116.667 -344 -350 -400l227 -536l147 -27l-10 -53h-308l-246 588h-209zM616 678c121.333 0 214.833 28.833 280.5 86.5
s98.5 139.5 98.5 245.5c0 160.667 -95.333 241 -286 241h-148l-101 -573h156zM680 1452l5 33l244 272h213l-6 -37l-401 -268h-55z" />
    <glyph glyph-name="racute" unicode="&#x155;" horiz-adv-x="797" 
d="M724 965c33.333 0 59.667 -2.66504 79 -7.99805l-44 -246h-43l-38 127c-53.333 0 -108.5 -20.333 -165.5 -61s-109.167 -94.334 -156.5 -161.001l-107 -616h-166l153 870l-118 25l8 45h277l-31 -212c50 75.333 105.833 133.666 167.5 174.999s123.167 62 184.5 62z
M437.001 1118l5 33l244 272h213l-6 -37l-401 -268h-55z" />
    <glyph glyph-name="Rcommaaccent" unicode="&#x156;" horiz-adv-x="1251" 
d="M444 588l-90 -508l179 -27l-10 -53h-534l10 53l162 27l209 1182l-168 26l10 53h532c146 0 257.333 -27.667 334 -83s115 -136 115 -242c0 -210.667 -116.667 -344 -350 -400l227 -536l147 -27l-10 -53h-308l-246 588h-209zM616 678c121.333 0 214.833 28.833 280.5 86.5
s98.5 139.5 98.5 245.5c0 160.667 -95.333 241 -286 241h-148l-101 -573h156zM708 -196c0 -58.667 -19.502 -106.998 -58.502 -144.998s-100.5 -69.667 -184.5 -95v63c84 25.333 126 55 126 89c0 14 -4.66699 24.667 -14 32s-19.666 14.666 -30.999 21.999
s-21.666 16.666 -30.999 27.999s-14 28.333 -14 51c0 25.333 9 45.333 27 60s40 22 66 22c34 0 61.5 -11.167 82.5 -33.5s31.5 -53.5 31.5 -93.5z" />
    <glyph glyph-name="rcommaaccent" unicode="&#x157;" horiz-adv-x="797" 
d="M724 965c33.333 0 59.667 -2.66504 79 -7.99805l-44 -246h-43l-38 127c-53.333 0 -108.5 -20.333 -165.5 -61s-109.167 -94.334 -156.5 -161.001l-107 -616h-166l153 870l-118 25l8 45h277l-31 -212c50 75.333 105.833 133.666 167.5 174.999s123.167 62 184.5 62z
M275.001 -195.998c0 -58.667 -19.502 -106.998 -58.502 -144.998s-100.5 -69.667 -184.5 -95v63c84 25.333 126 55 126 89c0 14 -4.66699 24.667 -14 32s-19.666 14.666 -30.999 21.999s-21.666 16.666 -30.999 27.999s-14 28.333 -14 51c0 25.333 9 45.333 27 60
s40 22 66 22c34 0 61.5 -11.167 82.5 -33.5s31.5 -53.5 31.5 -93.5z" />
    <glyph glyph-name="Rcaron" unicode="&#x158;" horiz-adv-x="1251" 
d="M444 588l-90 -508l179 -27l-10 -53h-534l10 53l162 27l209 1182l-168 26l10 53h532c146 0 257.333 -27.667 334 -83s115 -136 115 -242c0 -210.667 -116.667 -344 -350 -400l227 -536l147 -27l-10 -53h-308l-246 588h-209zM616 678c121.333 0 214.833 28.833 280.5 86.5
s98.5 139.5 98.5 245.5c0 160.667 -95.333 241 -286 241h-148l-101 -573h156zM571 1758l206 -183l270 183h60l-5 -33l-235 -273h-213l-140 273l5 33h52z" />
    <glyph glyph-name="rcaron" unicode="&#x159;" horiz-adv-x="797" 
d="M724 965c33.333 0 59.667 -2.66504 79 -7.99805l-44 -246h-43l-38 127c-53.333 0 -108.5 -20.333 -165.5 -61s-109.167 -94.334 -156.5 -161.001l-107 -616h-166l153 870l-118 25l8 45h277l-31 -212c50 75.333 105.833 133.666 167.5 174.999s123.167 62 184.5 62z
M319.001 1424l206 -183l270 183h60l-5 -33l-235 -273h-213l-140 273l5 33h52z" />
    <glyph glyph-name="Sacute" unicode="&#x15a;" horiz-adv-x="1024" 
d="M76 371l65.002 -0.00195312l1 -191c22 -33.333 59.5 -61.5 112.5 -84.5s109.167 -34.5 168.5 -34.5c109.333 0 193.5 25.833 252.5 77.5s88.5 123.834 88.5 216.501c0 36 -8 67.333 -24 94s-37.333 50.667 -64 72s-56.834 41 -90.501 59l-103.5 54.5
c-35.333 18.333 -69.833 38 -103.5 59s-63.834 45.333 -90.501 73s-48 59.5 -64 95.5s-24 78.333 -24 127c0 118.667 40.333 209.5 121 272.5s196 94.5 346 94.5c114.667 0 222.667 -12.667 324 -38l-49 -279h-65l-5 171c-21.333 17.333 -51 32 -89 44s-81.667 18 -131 18
c-88.667 0 -157 -21.667 -205 -65s-72 -104 -72 -182c0 -42 15 -80.333 45 -115s74.667 -67 134 -97c90.667 -47.333 156 -83.333 196 -108s73.5 -51 100.5 -79s48.667 -60 65 -96s24.5 -77.333 24.5 -124c0 -137.333 -44.833 -242.666 -134.5 -315.999
s-219.167 -110 -388.5 -110c-84 0 -159.5 8.5 -226.5 25.5s-122.5 39.5 -166.5 67.5zM557.002 1452l5 33l244 272h213l-6 -37l-401 -268h-55z" />
    <glyph glyph-name="sacute" unicode="&#x15b;" horiz-adv-x="797" 
d="M692 276c0 -100.667 -31.9971 -175.167 -95.9971 -223.5s-161 -72.5 -291 -72.5c-92 0 -185.333 20.667 -280 62l41 226h45l17 -137c17.333 -18.667 41.833 -35.334 73.5 -50.001s67.5 -22 107.5 -22c146 0 219 59.667 219 179c0 39.333 -15.5 74.333 -46.5 105
s-81.5 63 -151.5 97c-67.333 32.667 -117.333 68.834 -150 108.501s-49 86.167 -49 139.5c0 88 29.667 156.167 89 204.5s141.666 72.5 246.999 72.5c75.333 0 164.666 -11.667 267.999 -35l-37 -209h-47l-14 108c-42 37.333 -97.333 56 -166 56
c-54.667 0 -98.334 -12.5 -131.001 -37.5s-49 -63.833 -49 -116.5c0 -36 14 -67.667 42 -95s81 -61 159 -101c69.333 -36 120 -74.667 152 -116s48 -89 48 -143zM385.003 1118l5 33l244 272h213l-6 -37l-401 -268h-55z" />
    <glyph glyph-name="Scircumflex" unicode="&#x15c;" horiz-adv-x="1024" 
d="M76 371l65.002 -0.00195312l1 -191c22 -33.333 59.5 -61.5 112.5 -84.5s109.167 -34.5 168.5 -34.5c109.333 0 193.5 25.833 252.5 77.5s88.5 123.834 88.5 216.501c0 36 -8 67.333 -24 94s-37.333 50.667 -64 72s-56.834 41 -90.501 59l-103.5 54.5
c-35.333 18.333 -69.833 38 -103.5 59s-63.834 45.333 -90.501 73s-48 59.5 -64 95.5s-24 78.333 -24 127c0 118.667 40.333 209.5 121 272.5s196 94.5 346 94.5c114.667 0 222.667 -12.667 324 -38l-49 -279h-65l-5 171c-21.333 17.333 -51 32 -89 44s-81.667 18 -131 18
c-88.667 0 -157 -21.667 -205 -65s-72 -104 -72 -182c0 -42 15 -80.333 45 -115s74.667 -67 134 -97c90.667 -47.333 156 -83.333 196 -108s73.5 -51 100.5 -79s48.667 -60 65 -96s24.5 -77.333 24.5 -124c0 -137.333 -44.833 -242.666 -134.5 -315.999
s-219.167 -110 -388.5 -110c-84 0 -159.5 8.5 -226.5 25.5s-122.5 39.5 -166.5 67.5zM386.002 1452l5 33l235 273h213l139 -273l-5 -33h-47l-206 183l-270 -183h-64z" />
    <glyph glyph-name="scircumflex" unicode="&#x15d;" horiz-adv-x="797" 
d="M692 276c0 -100.667 -31.9971 -175.167 -95.9971 -223.5s-161 -72.5 -291 -72.5c-92 0 -185.333 20.667 -280 62l41 226h45l17 -137c17.333 -18.667 41.833 -35.334 73.5 -50.001s67.5 -22 107.5 -22c146 0 219 59.667 219 179c0 39.333 -15.5 74.333 -46.5 105
s-81.5 63 -151.5 97c-67.333 32.667 -117.333 68.834 -150 108.501s-49 86.167 -49 139.5c0 88 29.667 156.167 89 204.5s141.666 72.5 246.999 72.5c75.333 0 164.666 -11.667 267.999 -35l-37 -209h-47l-14 108c-42 37.333 -97.333 56 -166 56
c-54.667 0 -98.334 -12.5 -131.001 -37.5s-49 -63.833 -49 -116.5c0 -36 14 -67.667 42 -95s81 -61 159 -101c69.333 -36 120 -74.667 152 -116s48 -89 48 -143zM222.003 1118l5 33l235 273h213l139 -273l-5 -33h-47l-206 183l-270 -183h-64z" />
    <glyph glyph-name="Scedilla" unicode="&#x15e;" horiz-adv-x="1024" 
d="M76 371l65.002 -0.00195312l1 -191c22 -33.333 59.5 -61.5 112.5 -84.5s109.167 -34.5 168.5 -34.5c109.333 0 193.5 25.833 252.5 77.5s88.5 123.834 88.5 216.501c0 36 -8 67.333 -24 94s-37.333 50.667 -64 72s-56.834 41 -90.501 59l-103.5 54.5
c-35.333 18.333 -69.833 38 -103.5 59s-63.834 45.333 -90.501 73s-48 59.5 -64 95.5s-24 78.333 -24 127c0 118.667 40.333 209.5 121 272.5s196 94.5 346 94.5c114.667 0 222.667 -12.667 324 -38l-49 -279h-65l-5 171c-21.333 17.333 -51 32 -89 44s-81.667 18 -131 18
c-88.667 0 -157 -21.667 -205 -65s-72 -104 -72 -182c0 -42 15 -80.333 45 -115s74.667 -67 134 -97c90.667 -47.333 156 -83.333 196 -108s73.5 -51 100.5 -79s48.667 -60 65 -96s24.5 -77.333 24.5 -124c0 -137.333 -44.833 -242.666 -134.5 -315.999
s-219.167 -110 -388.5 -110c-84 0 -159.5 8.5 -226.5 25.5s-122.5 39.5 -166.5 67.5zM592.002 -212.002c0 -65.333 -23.832 -117.501 -71.499 -156.501s-116.834 -58.5 -207.501 -58.5c-48 0 -92.333 7 -133 21l23 75c32 -10.667 64.333 -16 97 -16
c40.667 0 73.667 9.16699 99 27.5s38 46.5 38 84.5c0 29.333 -11.333 53.833 -34 73.5s-55.667 31.5 -99 35.5l68 153h86l-33 -82c53.333 -5.33301 94.5 -21.666 123.5 -48.999s43.5 -63.333 43.5 -108z" />
    <glyph glyph-name="scedilla" unicode="&#x15f;" horiz-adv-x="797" 
d="M692 276c0 -100.667 -31.9971 -175.167 -95.9971 -223.5s-161 -72.5 -291 -72.5c-92 0 -185.333 20.667 -280 62l41 226h45l17 -137c17.333 -18.667 41.833 -35.334 73.5 -50.001s67.5 -22 107.5 -22c146 0 219 59.667 219 179c0 39.333 -15.5 74.333 -46.5 105
s-81.5 63 -151.5 97c-67.333 32.667 -117.333 68.834 -150 108.501s-49 86.167 -49 139.5c0 88 29.667 156.167 89 204.5s141.666 72.5 246.999 72.5c75.333 0 164.666 -11.667 267.999 -35l-37 -209h-47l-14 108c-42 37.333 -97.333 56 -166 56
c-54.667 0 -98.334 -12.5 -131.001 -37.5s-49 -63.833 -49 -116.5c0 -36 14 -67.667 42 -95s81 -61 159 -101c69.333 -36 120 -74.667 152 -116s48 -89 48 -143zM498.003 -212c0 -65.333 -23.832 -117.501 -71.499 -156.501s-116.834 -58.5 -207.501 -58.5
c-48 0 -92.333 7 -133 21l23 75c32 -10.667 64.333 -16 97 -16c40.667 0 73.667 9.16699 99 27.5s38 46.5 38 84.5c0 29.333 -11.333 53.833 -34 73.5s-55.667 31.5 -99 35.5l68 153h86l-33 -82c53.333 -5.33301 94.5 -21.666 123.5 -48.999s43.5 -63.333 43.5 -108z" />
    <glyph glyph-name="Scaron" unicode="&#x160;" horiz-adv-x="1024" 
d="M76 371l65.002 -0.00195312l1 -191c22 -33.333 59.5 -61.5 112.5 -84.5s109.167 -34.5 168.5 -34.5c109.333 0 193.5 25.833 252.5 77.5s88.5 123.834 88.5 216.501c0 36 -8 67.333 -24 94s-37.333 50.667 -64 72s-56.834 41 -90.501 59l-103.5 54.5
c-35.333 18.333 -69.833 38 -103.5 59s-63.834 45.333 -90.501 73s-48 59.5 -64 95.5s-24 78.333 -24 127c0 118.667 40.333 209.5 121 272.5s196 94.5 346 94.5c114.667 0 222.667 -12.667 324 -38l-49 -279h-65l-5 171c-21.333 17.333 -51 32 -89 44s-81.667 18 -131 18
c-88.667 0 -157 -21.667 -205 -65s-72 -104 -72 -182c0 -42 15 -80.333 45 -115s74.667 -67 134 -97c90.667 -47.333 156 -83.333 196 -108s73.5 -51 100.5 -79s48.667 -60 65 -96s24.5 -77.333 24.5 -124c0 -137.333 -44.833 -242.666 -134.5 -315.999
s-219.167 -110 -388.5 -110c-84 0 -159.5 8.5 -226.5 25.5s-122.5 39.5 -166.5 67.5zM487.002 1758l206 -183l270 183h60l-5 -33l-235 -273h-213l-140 273l5 33h52z" />
    <glyph glyph-name="scaron" unicode="&#x161;" horiz-adv-x="797" 
d="M692 276c0 -100.667 -31.9971 -175.167 -95.9971 -223.5s-161 -72.5 -291 -72.5c-92 0 -185.333 20.667 -280 62l41 226h45l17 -137c17.333 -18.667 41.833 -35.334 73.5 -50.001s67.5 -22 107.5 -22c146 0 219 59.667 219 179c0 39.333 -15.5 74.333 -46.5 105
s-81.5 63 -151.5 97c-67.333 32.667 -117.333 68.834 -150 108.501s-49 86.167 -49 139.5c0 88 29.667 156.167 89 204.5s141.666 72.5 246.999 72.5c75.333 0 164.666 -11.667 267.999 -35l-37 -209h-47l-14 108c-42 37.333 -97.333 56 -166 56
c-54.667 0 -98.334 -12.5 -131.001 -37.5s-49 -63.833 -49 -116.5c0 -36 14 -67.667 42 -95s81 -61 159 -101c69.333 -36 120 -74.667 152 -116s48 -89 48 -143zM329.003 1424l206 -183l270 183h60l-5 -33l-235 -273h-213l-140 273l5 33h52z" />
    <glyph glyph-name="Tcommaaccent" unicode="&#x162;" horiz-adv-x="1139" 
d="M176 0l10 53l217 27l207 1175h-51c-132.667 0 -230.667 -6.66699 -294 -20l-64 -209h-67l56 315h1070l-56 -315h-68l10 209c-60 12 -158 18 -294 18h-49l-207 -1173l209 -27l-10 -53h-619zM656 -212c0 -65.333 -23.832 -117.501 -71.499 -156.501
s-116.834 -58.5 -207.501 -58.5c-48 0 -92.333 7 -133 21l23 75c32 -10.667 64.333 -16 97 -16c40.667 0 73.667 9.16699 99 27.5s38 46.5 38 84.5c0 29.333 -11.333 53.833 -34 73.5s-55.667 31.5 -99 35.5l68 153h86l-33 -82c53.333 -5.33301 94.5 -21.666 123.5 -48.999
s43.5 -63.333 43.5 -108z" />
    <glyph glyph-name="tcommaaccent" unicode="&#x163;" horiz-adv-x="569" 
d="M264 174c0 -30 7.49902 -52.5 22.499 -67.5s34.167 -22.5 57.5 -22.5c48.667 0 99.334 10 152.001 30l21 -47c-82 -58 -165 -87 -249 -87c-52.667 0 -94.167 16 -124.5 48s-45.5 76.667 -45.5 134c0 19.333 1.83301 42.166 5.5 68.499s40.167 234.833 109.5 625.5h-123
l8 45l133 39l137 213h64l-37 -213h215l-16 -84h-215l-97 -549c-12 -61.333 -18 -105.666 -18 -132.999zM411.999 -212c0 -65.333 -23.832 -117.501 -71.499 -156.501s-116.834 -58.5 -207.501 -58.5c-48 0 -92.333 7 -133 21l23 75c32 -10.667 64.333 -16 97 -16
c40.667 0 73.667 9.16699 99 27.5s38 46.5 38 84.5c0 29.333 -11.333 53.833 -34 73.5s-55.667 31.5 -99 35.5l68 153h86l-33 -82c53.333 -5.33301 94.5 -21.666 123.5 -48.999s43.5 -63.333 43.5 -108z" />
    <glyph glyph-name="Tcaron" unicode="&#x164;" horiz-adv-x="1139" 
d="M176 0l10 53l217 27l207 1175h-51c-132.667 0 -230.667 -6.66699 -294 -20l-64 -209h-67l56 315h1070l-56 -315h-68l10 209c-60 12 -158 18 -294 18h-49l-207 -1173l209 -27l-10 -53h-619zM552 1758l206 -183l270 183h60l-5 -33l-235 -273h-213l-140 273l5 33h52z" />
    <glyph glyph-name="tcaron" unicode="&#x165;" horiz-adv-x="745" 
d="M253 174c0 -30 7.49902 -52.5 22.499 -67.5s34.167 -22.5 57.5 -22.5c48.667 0 99.334 10 152.001 30l21 -47c-82 -58 -165 -87 -249 -87c-52.667 0 -94.167 16 -124.5 48s-45.5 76.667 -45.5 134c0 19.333 1.83301 42.166 5.5 68.499s40.167 234.833 109.5 625.5h-123
l8 45l133 39l137 213h64l-37 -213h215l-16 -84h-215l-97 -549c-12 -61.333 -18 -105.666 -18 -132.999zM913.999 1278c0 -72.667 -23.833 -131.831 -71.5 -177.498s-125.834 -80.834 -234.501 -105.501v63c44.667 10 80.334 22 107.001 36s46.334 29 59.001 45s19 37 19 63
c0 11.333 -4.83301 21.166 -14.5 29.499l-32 26.5c-11.667 9.33301 -22.334 20.5 -32.001 33.5s-14.5 29.833 -14.5 50.5c0 25.333 9.16699 44.833 27.5 58.5s41.833 20.5 70.5 20.5c33.333 0 61 -13 83 -39s33 -60.667 33 -104z" />
    <glyph glyph-name="Tbar" unicode="&#x166;" horiz-adv-x="1139" 
d="M176 0l10 53l217 27l96 549h-321l15 82h321l96 544h-51c-132.667 0 -230.667 -6.66699 -294 -20l-64 -209h-67l56 315h1070l-56 -315h-68l10 209c-60 12 -158 18 -294 18h-49l-96 -542h324l-15 -82h-323l-97 -549l209 -27l-10 -53h-619z" />
    <glyph glyph-name="tbar" unicode="&#x167;" horiz-adv-x="570" 
d="M265 174c0 -30 7.33203 -52.5 21.999 -67.5s33.667 -22.5 57 -22.5c48.667 0 99.334 10 152.001 30l21 -47c-82 -58 -165 -87 -249 -87c-52.667 0 -94.167 16 -124.5 48s-45.5 76.667 -45.5 134c0 41.333 17 153 51 335h-119l15 84h119l49 275h-123l8 45l133 39l137 213
h64l-37 -213h215l-16 -84h-215l-49 -275h207l-15 -84h-207c-33.333 -185.333 -50 -293 -50 -323z" />
    <glyph glyph-name="Utilde" unicode="&#x168;" horiz-adv-x="1479" 
d="M1299 1262l-174.998 26l9 53h457l-9 -53l-177 -26l-141 -801c-26.667 -152.667 -91.334 -271 -194.001 -355s-232.667 -126 -390 -126c-155.333 0 -273.666 31.5 -354.999 94.5s-122 154.167 -122 273.5c0 36.667 3.33301 71.667 10 105l143 809l-167 26l9 53h536l-9 -53
l-177 -26l-141 -805c-6.66699 -36 -10 -70 -10 -102c0 -175.333 100 -263 300 -263c127.333 0 231.166 31.667 311.499 95s130.166 152 149.499 266zM1052 1453c-32 0 -60.165 7.16602 -84.498 21.499s-47 30.333 -68 48s-41.333 33.667 -61 48s-40.5 21.5 -62.5 21.5
c-21.333 0 -38.833 -3.83301 -52.5 -11.5s-25.334 -18.167 -35.001 -31.5s-20.834 -38.666 -33.501 -75.999h-52c21.333 84.667 51.5 146.167 90.5 184.5s88.167 57.5 147.5 57.5c32 0 60.333 -7.16699 85 -21.5s47.5 -30.333 68.5 -48s41.333 -33.667 61 -48
s40.167 -21.5 61.5 -21.5c28 0 51.333 8 70 24s35.667 47.333 51 94h52c-21.333 -83.333 -51.5 -144.333 -90.5 -183s-88.167 -58 -147.5 -58z" />
    <glyph glyph-name="utilde" unicode="&#x169;" horiz-adv-x="1024" 
d="M268 193c0 -30 8 -54.335 24 -73.002s41.333 -28 76 -28c50 0 104 20.833 162 62.5s105.667 92.834 143 153.501l111 632h166l-153 -870l118 -25l-8 -45h-278l27 193c-55.333 -71.333 -113 -125.333 -173 -162s-119.333 -55 -178 -55c-67.333 0 -118 18.167 -152 54.5
s-51 88.5 -51 156.5c0 10 1.83301 27.833 5.5 53.5s39.5 235.834 107.5 630.501l-111 24l8 45h281l-102 -581c-15.333 -84 -23 -139.333 -23 -166zM748 1119c-32 0 -60.165 7.16602 -84.498 21.499s-47 30.333 -68 48s-41.333 33.667 -61 48s-40.5 21.5 -62.5 21.5
c-21.333 0 -38.833 -3.83301 -52.5 -11.5s-25.334 -18.167 -35.001 -31.5s-20.834 -38.666 -33.501 -75.999h-52c21.333 84.667 51.5 146.167 90.5 184.5s88.167 57.5 147.5 57.5c32 0 60.333 -7.16699 85 -21.5s47.5 -30.333 68.5 -48s41.333 -33.667 61 -48
s40.167 -21.5 61.5 -21.5c28 0 51.333 8 70 24s35.667 47.333 51 94h52c-21.333 -83.333 -51.5 -144.333 -90.5 -183s-88.167 -58 -147.5 -58z" />
    <glyph glyph-name="Umacron" unicode="&#x16a;" horiz-adv-x="1479" 
d="M1299 1262l-174.998 26l9 53h457l-9 -53l-177 -26l-141 -801c-26.667 -152.667 -91.334 -271 -194.001 -355s-232.667 -126 -390 -126c-155.333 0 -273.666 31.5 -354.999 94.5s-122 154.167 -122 273.5c0 36.667 3.33301 71.667 10 105l143 809l-167 26l9 53h536l-9 -53
l-177 -26l-141 -805c-6.66699 -36 -10 -70 -10 -102c0 -175.333 100 -263 300 -263c127.333 0 231.166 31.667 311.499 95s130.166 152 149.499 266zM636.002 1495l19 109h628l-19 -109h-628z" />
    <glyph glyph-name="umacron" unicode="&#x16b;" horiz-adv-x="1024" 
d="M268 193c0 -30 8 -54.335 24 -73.002s41.333 -28 76 -28c50 0 104 20.833 162 62.5s105.667 92.834 143 153.501l111 632h166l-153 -870l118 -25l-8 -45h-278l27 193c-55.333 -71.333 -113 -125.333 -173 -162s-119.333 -55 -178 -55c-67.333 0 -118 18.167 -152 54.5
s-51 88.5 -51 156.5c0 10 1.83301 27.833 5.5 53.5s39.5 235.834 107.5 630.501l-111 24l8 45h281l-102 -581c-15.333 -84 -23 -139.333 -23 -166zM303 1161l19 109h628l-19 -109h-628z" />
    <glyph glyph-name="Ubreve" unicode="&#x16c;" horiz-adv-x="1479" 
d="M1299 1262l-174.998 26l9 53h457l-9 -53l-177 -26l-141 -801c-26.667 -152.667 -91.334 -271 -194.001 -355s-232.667 -126 -390 -126c-155.333 0 -273.666 31.5 -354.999 94.5s-122 154.167 -122 273.5c0 36.667 3.33301 71.667 10 105l143 809l-167 26l9 53h536l-9 -53
l-177 -26l-141 -805c-6.66699 -36 -10 -70 -10 -102c0 -175.333 100 -263 300 -263c127.333 0 231.166 31.667 311.499 95s130.166 152 149.499 266zM927.002 1453c-77.333 0 -137.002 19.667 -179.002 59s-63 94.333 -63 165l4 56h74
c2.66699 -43.333 20.834 -77.333 54.501 -102s78.5 -37 134.5 -37c57.333 0 106.833 12.5 148.5 37.5s71.167 58.833 88.5 101.5h74c-18 -86.667 -56.167 -155 -114.5 -205s-132.166 -75 -221.499 -75z" />
    <glyph glyph-name="ubreve" unicode="&#x16d;" horiz-adv-x="1024" 
d="M268 193c0 -30 8 -54.335 24 -73.002s41.333 -28 76 -28c50 0 104 20.833 162 62.5s105.667 92.834 143 153.501l111 632h166l-153 -870l118 -25l-8 -45h-278l27 193c-55.333 -71.333 -113 -125.333 -173 -162s-119.333 -55 -178 -55c-67.333 0 -118 18.167 -152 54.5
s-51 88.5 -51 156.5c0 10 1.83301 27.833 5.5 53.5s39.5 235.834 107.5 630.501l-111 24l8 45h281l-102 -581c-15.333 -84 -23 -139.333 -23 -166zM595 1119c-77.333 0 -137.002 19.667 -179.002 59s-63 94.333 -63 165l4 56h74c2.66699 -43.333 20.834 -77.333 54.501 -102
s78.5 -37 134.5 -37c57.333 0 106.833 12.5 148.5 37.5s71.167 58.833 88.5 101.5h74c-18 -86.667 -56.167 -155 -114.5 -205s-132.166 -75 -221.499 -75z" />
    <glyph glyph-name="Uring" unicode="&#x16e;" horiz-adv-x="1479" 
d="M1299 1262l-174.998 26l9 53h457l-9 -53l-177 -26l-141 -801c-26.667 -152.667 -91.334 -271 -194.001 -355s-232.667 -126 -390 -126c-155.333 0 -273.666 31.5 -354.999 94.5s-122 154.167 -122 273.5c0 36.667 3.33301 71.667 10 105l143 809l-167 26l9 53h536l-9 -53
l-177 -26l-141 -805c-6.66699 -36 -10 -70 -10 -102c0 -175.333 100 -263 300 -263c127.333 0 231.166 31.667 311.499 95s130.166 152 149.499 266zM1149 1611c0 -56 -19.833 -103.833 -59.5 -143.5s-87.5 -59.5 -143.5 -59.5s-103.833 19.833 -143.5 59.5
s-59.5 87.5 -59.5 143.5s19.833 103.833 59.5 143.5s87.5 59.5 143.5 59.5s103.833 -19.833 143.5 -59.5s59.5 -87.5 59.5 -143.5zM1069 1611c0 34 -12.001 63.002 -36.001 87.002s-53 36 -87 36s-63 -12 -87 -36s-36 -53 -36 -87c0 -34.667 12.333 -63.834 37 -87.501
s53.334 -35.5 86.001 -35.5c32 0 60.5 11.667 85.5 35s37.5 52.666 37.5 87.999z" />
    <glyph glyph-name="uring" unicode="&#x16f;" horiz-adv-x="1024" 
d="M268 193c0 -30 8 -54.335 24 -73.002s41.333 -28 76 -28c50 0 104 20.833 162 62.5s105.667 92.834 143 153.501l111 632h166l-153 -870l118 -25l-8 -45h-278l27 193c-55.333 -71.333 -113 -125.333 -173 -162s-119.333 -55 -178 -55c-67.333 0 -118 18.167 -152 54.5
s-51 88.5 -51 156.5c0 10 1.83301 27.833 5.5 53.5s39.5 235.834 107.5 630.501l-111 24l8 45h281l-102 -581c-15.333 -84 -23 -139.333 -23 -166zM816 1277c0 -56 -19.833 -103.833 -59.5 -143.5s-87.5 -59.5 -143.5 -59.5s-103.833 19.833 -143.5 59.5
s-59.5 87.5 -59.5 143.5s19.833 103.833 59.5 143.5s87.5 59.5 143.5 59.5s103.833 -19.833 143.5 -59.5s59.5 -87.5 59.5 -143.5zM736 1277c0 34 -12.001 63.002 -36.001 87.002s-53 36 -87 36s-63 -12 -87 -36s-36 -53 -36 -87c0 -34.667 12.333 -63.834 37 -87.501
s53.334 -35.5 86.001 -35.5c32 0 60.5 11.667 85.5 35s37.5 52.666 37.5 87.999z" />
    <glyph glyph-name="Uhungarumlaut" unicode="&#x170;" horiz-adv-x="1479" 
d="M1299 1262l-174.998 26l9 53h457l-9 -53l-177 -26l-141 -801c-26.667 -152.667 -91.334 -271 -194.001 -355s-232.667 -126 -390 -126c-155.333 0 -273.666 31.5 -354.999 94.5s-122 154.167 -122 273.5c0 36.667 3.33301 71.667 10 105l143 809l-167 26l9 53h536l-9 -53
l-177 -26l-141 -805c-6.66699 -36 -10 -70 -10 -102c0 -175.333 100 -263 300 -263c127.333 0 231.166 31.667 311.499 95s130.166 152 149.499 266zM659.002 1452l6 33l227 293h192l-6 -37l-344 -289h-75zM1009 1452l6 33l227 293h192l-6 -37l-343 -289h-76z" />
    <glyph glyph-name="uhungarumlaut" unicode="&#x171;" horiz-adv-x="1024" 
d="M268 193c0 -30 8 -54.335 24 -73.002s41.333 -28 76 -28c50 0 104 20.833 162 62.5s105.667 92.834 143 153.501l111 632h166l-153 -870l118 -25l-8 -45h-278l27 193c-55.333 -71.333 -113 -125.333 -173 -162s-119.333 -55 -178 -55c-67.333 0 -118 18.167 -152 54.5
s-51 88.5 -51 156.5c0 10 1.83301 27.833 5.5 53.5s39.5 235.834 107.5 630.501l-111 24l8 45h281l-102 -581c-15.333 -84 -23 -139.333 -23 -166zM334 1118l6 33l227 293h192l-6 -37l-344 -289h-75zM684 1118l6 33l227 293h192l-6 -37l-343 -289h-76z" />
    <glyph glyph-name="Uogonek" unicode="&#x172;" horiz-adv-x="1479" 
d="M1299 1262l-174.998 26l9 53h457l-9 -53l-177 -26l-141 -801c-26.667 -152.667 -91.334 -271 -194.001 -355s-232.667 -126 -390 -126c-155.333 0 -273.666 31.5 -354.999 94.5s-122 154.167 -122 273.5c0 36.667 3.33301 71.667 10 105l143 809l-167 26l9 53h536l-9 -53
l-177 -26l-141 -805c-6.66699 -36 -10 -70 -10 -102c0 -175.333 100 -263 300 -263c127.333 0 231.166 31.667 311.499 95s130.166 152 149.499 266zM929.002 -354c-53.333 -32.667 -112.001 -49 -176.001 -49c-61.333 0 -109.5 16.167 -144.5 48.5
s-52.5 76.833 -52.5 133.5c0 42 11.333 83.5 34 124.5s54.667 78.5 96 112.5h109c-28 -31.333 -50 -66 -66 -104s-24 -76 -24 -114c0 -36 10.333 -63.833 31 -83.5s50 -29.5 88 -29.5c30.667 0 60.334 6 89.001 18z" />
    <glyph glyph-name="uogonek" unicode="&#x173;" horiz-adv-x="1024" 
d="M268 193c0 -30 8 -54.335 24 -73.002s41.333 -28 76 -28c50 0 104 20.833 162 62.5s105.667 92.834 143 153.501l111 632h166l-153 -870l118 -25l-8 -45h-278l27 193c-55.333 -71.333 -113 -125.333 -173 -162s-119.333 -55 -178 -55c-67.333 0 -118 18.167 -152 54.5
s-51 88.5 -51 156.5c0 10 1.83301 27.833 5.5 53.5s39.5 235.834 107.5 630.501l-111 24l8 45h281l-102 -581c-15.333 -84 -23 -139.333 -23 -166zM888 -354.002c-53.333 -32.667 -112.001 -49 -176.001 -49c-61.333 0 -109.5 16.167 -144.5 48.5s-52.5 76.833 -52.5 133.5
c0 42 11.333 83.5 34 124.5s54.667 78.5 96 112.5h109c-28 -31.333 -50 -66 -66 -104s-24 -76 -24 -114c0 -36 10.333 -63.833 31 -83.5s50 -29.5 88 -29.5c30.667 0 60.334 6 89.001 18z" />
    <glyph glyph-name="Wcircumflex" unicode="&#x174;" horiz-adv-x="1706" 
d="M1135 -31h-63l-146 898l-418 -898h-65l-195 1293l-113 26l9 53h467l-9 -53l-161 -26l140 -936l426 921h46l151 -923l419 938l-165 26l9 53h394l-9 -53l-121 -26zM761 1452l5 33l235 273h213l139 -273l-5 -33h-47l-206 183l-270 -183h-64z" />
    <glyph glyph-name="wcircumflex" unicode="&#x175;" horiz-adv-x="1366" 
d="M900 -20l-66 -0.00292969l-124 619l-318 -619h-70l-171 890l-102 25l8 45h245l131 -707l309 601h75l122 -605l197 389c38 76 57 139 57 189c0 24.667 -7 44.334 -21 59.001s-29 24.334 -45 29.001l8 45h190c17.333 -15.333 26 -36.333 26 -63
c0 -45.333 -27.667 -118.666 -83 -219.999zM530 1118l5 33l235 273h213l139 -273l-5 -33h-47l-206 183l-270 -183h-64z" />
    <glyph glyph-name="Ycircumflex" unicode="&#x176;" horiz-adv-x="1139" 
d="M609 80l209 -27l-10 -53h-619l10 53l217 27l78 442l-230 740l-147 26l10 53h547l-10 -53l-194 -26l188 -627l393 627l-176 26l10 53h436l-10 -53l-151 -26l-472 -734zM500 1452l5 33l235 273h213l139 -273l-5 -33h-47l-206 183l-270 -183h-64z" />
    <glyph glyph-name="ycircumflex" unicode="&#x177;" horiz-adv-x="909" 
d="M52 940l255.999 -0.00195312l145 -732l235 406c42.667 74.667 64 139 64 193c0 24.667 -7 44.334 -21 59.001s-29 24.334 -45 29.001l8 45h190c17.333 -15.333 26 -36.333 26 -63c0 -52.667 -27.667 -126 -83 -220l-396 -667c-76 -129.333 -136.167 -221 -180.5 -275
s-88.166 -93.667 -131.499 -119s-90.333 -38 -141 -38c-54 0 -103.667 6 -149 18l37 203h45l16 -96c16.667 -15.333 44 -23 82 -23c90 0 185 90 285 270l45 82l-183 858l-112 25zM261.999 1118l5 33l235 273h213l139 -273l-5 -33h-47l-206 183l-270 -183h-64z" />
    <glyph glyph-name="Ydieresis" unicode="&#x178;" horiz-adv-x="1139" 
d="M609 80l209 -27l-10 -53h-619l10 53l217 27l78 442l-230 740l-147 26l10 53h547l-10 -53l-194 -26l188 -627l393 627l-176 26l10 53h436l-10 -53l-151 -26l-472 -734zM1059 1596c0 -28 -9.33301 -51.833 -28 -71.5s-42 -29.5 -70 -29.5s-51.667 10.333 -71 31
s-29 44 -29 70c0 28 9.66699 51.667 29 71s43 29 71 29s51.333 -9.66699 70 -29s28 -43 28 -71zM703 1596c0 -28 -9.33301 -51.833 -28 -71.5s-42 -29.5 -70 -29.5c-27.333 0 -51 10 -71 30s-30 43.667 -30 71c0 28 10.333 51.667 31 71s44 29 70 29
c28 0 51.333 -9.66699 70 -29s28 -43 28 -71z" />
    <glyph glyph-name="Zacute" unicode="&#x179;" horiz-adv-x="1139" 
d="M907 1255l-199.999 -0.000976562c-165.333 0 -279.666 -6.66699 -342.999 -20l-68 -211h-69l56 317h873l-16 -86l-873 -1171h240c79.333 0 160.166 3.83301 242.499 11.5s138.166 14.834 167.499 21.501l104 256h70l-93 -373h-973l17 94zM580.001 1452l5 33l244 272h213
l-6 -37l-401 -268h-55z" />
    <glyph glyph-name="zacute" unicode="&#x17a;" horiz-adv-x="797" 
d="M-23 0l9.00098 45l564 815h-149c-37.333 0 -73.666 -3.16699 -108.999 -9.5s-61 -14.833 -77 -25.5l-55 -135h-47l45 250h612l-8 -49l-562 -811h197c37.333 0 73.666 4.16699 108.999 12.5s64.666 19.833 87.999 34.5l76 147h47l-72 -274h-668zM381.001 1118l5 33
l244 272h213l-6 -37l-401 -268h-55z" />
    <glyph glyph-name="Zdotaccent" unicode="&#x17b;" horiz-adv-x="1139" 
d="M907 1255l-199.999 -0.000976562c-165.333 0 -279.666 -6.66699 -342.999 -20l-68 -211h-69l56 317h873l-16 -86l-873 -1171h240c79.333 0 160.166 3.83301 242.499 11.5s138.166 14.834 167.499 21.501l104 256h70l-93 -373h-973l17 94zM859.001 1581
c0 -29.333 -10.667 -54.666 -32 -75.999s-47 -32 -77 -32c-29.333 0 -54.666 10.667 -75.999 32s-32 46.666 -32 75.999c0 30 10.667 55.667 32 77s46.666 32 75.999 32c30 0 55.667 -10.667 77 -32s32 -47 32 -77z" />
    <glyph glyph-name="zdotaccent" unicode="&#x17c;" horiz-adv-x="797" 
d="M-23 0l9.00098 45l564 815h-149c-37.333 0 -73.666 -3.16699 -108.999 -9.5s-61 -14.833 -77 -25.5l-55 -135h-47l45 250h612l-8 -49l-562 -811h197c37.333 0 73.666 4.16699 108.999 12.5s64.666 19.833 87.999 34.5l76 147h47l-72 -274h-668zM591.001 1247
c0 -29.333 -10.667 -54.666 -32 -75.999s-47 -32 -77 -32c-29.333 0 -54.666 10.667 -75.999 32s-32 46.666 -32 75.999c0 30 10.667 55.667 32 77s46.666 32 75.999 32c30 0 55.667 -10.667 77 -32s32 -47 32 -77z" />
    <glyph glyph-name="Zcaron" unicode="&#x17d;" horiz-adv-x="1139" 
d="M907 1255l-199.999 -0.000976562c-165.333 0 -279.666 -6.66699 -342.999 -20l-68 -211h-69l56 317h873l-16 -86l-873 -1171h240c79.333 0 160.166 3.83301 242.499 11.5s138.166 14.834 167.499 21.501l104 256h70l-93 -373h-973l17 94zM536.001 1758l206 -183l270 183
h60l-5 -33l-235 -273h-213l-140 273l5 33h52z" />
    <glyph glyph-name="zcaron" unicode="&#x17e;" horiz-adv-x="797" 
d="M-23 0l9.00098 45l564 815h-149c-37.333 0 -73.666 -3.16699 -108.999 -9.5s-61 -14.833 -77 -25.5l-55 -135h-47l45 250h612l-8 -49l-562 -811h197c37.333 0 73.666 4.16699 108.999 12.5s64.666 19.833 87.999 34.5l76 147h47l-72 -274h-668zM289.001 1424l206 -183
l270 183h60l-5 -33l-235 -273h-213l-140 273l5 33h52z" />
    <glyph glyph-name="longs" unicode="&#x17f;" horiz-adv-x="569" 
d="M618 1362c-41.333 0 -73.9971 -18.666 -97.9971 -55.999s-45 -107.333 -63 -210l-268 -1532h-166l251 1446c25.333 147.333 70.166 256.166 134.499 326.499s150.166 105.5 257.499 105.5c51.333 0 97.666 -6.33301 138.999 -19l-35 -196h-49l-19 114
c-19.333 14 -47.333 21 -84 21z" />
    <glyph glyph-name="uni0180" unicode="&#x180;" horiz-adv-x="1024" 
d="M305 1352l-132.997 24.001l8 45h300l-38 -225h304l-15 -84h-303c-22.667 -134.667 -37.334 -218 -44.001 -250s-12.334 -57 -17.001 -75c53.333 54.667 108.166 98 164.499 130s108.166 48 155.499 48c83.333 0 150 -29.833 200 -89.5s75 -141.167 75 -244.5
c0 -114.667 -24.833 -222.834 -74.5 -324.501s-118.167 -181.5 -205.5 -239.5s-182.666 -87 -285.999 -87c-58.667 0 -116.167 7.5 -172.5 22.5s-105.5 35.5 -147.5 61.5l186 1048h-144l14 84h145zM248.003 107.001c38.667 -32 92.333 -47.999 161 -47.999
c67.333 0 129.833 25 187.5 75s103.167 117.667 136.5 203s50 174.666 50 267.999c0 74.667 -15.5 132.5 -46.5 173.5s-72.5 61.5 -124.5 61.5c-39.333 0 -81.833 -13 -127.5 -39s-89.167 -59.333 -130.5 -100z" />
    <glyph glyph-name="uni0181" unicode="&#x181;" horiz-adv-x="1355" 
d="M123 0l10 53l133 27l207 1171h-54c-52.667 0 -96.667 -7.66699 -132 -23s-64.333 -42.333 -87 -81l-71 -121h-67l54 266c70 32.667 137 49 201 49h551c294.667 0 442 -94 442 -282c0 -94 -29.5 -171.667 -88.5 -233s-141.167 -99 -246.5 -113
c103.333 -8.66699 183.333 -39.5 240 -92.5s85 -123.167 85 -210.5c0 -143.333 -48.5 -248.5 -145.5 -315.5s-242.167 -100.5 -435.5 -100.5l-383 6h-213zM719 84c128 0 222 24.832 282 74.499s90 132.167 90 247.5c0 90.667 -29.5 156.334 -88.5 197.001
s-144.167 61 -255.5 61h-186l-100 -574c132 -4 218 -6 258 -6zM743 753.999c129.333 0 221.499 21.668 276.499 65.001s82.5 119.333 82.5 228c0 69.333 -21.667 120.666 -65 153.999s-114.666 50 -213.999 50h-158l-88 -497h166z" />
    <glyph glyph-name="uni0182" unicode="&#x182;" horiz-adv-x="1208" 
d="M472 745h211.001c133.333 0 237.166 -29.5 311.499 -88.5s111.5 -141.5 111.5 -247.5c0 -137.333 -46.5 -239.833 -139.5 -307.5s-234.833 -101.5 -425.5 -101.5h-565l10 53l175 26l209 1182l-155 27l10 53h941l-42 -309h-65l-21 203c-27.333 5.33301 -67.333 10 -120 14
s-106 6 -160 6h-197zM456.001 655l-100 -565.001h158c144 0 245.5 24.333 304.5 73s88.5 131.334 88.5 248.001c0 162.667 -95.667 244 -287 244h-164z" />
    <glyph glyph-name="uni0183" unicode="&#x183;" horiz-adv-x="1024" 
d="M1009 1341l-31.999 -258.999h-65l-30 153c-27.333 5.33301 -67.333 10 -120 14s-106 6 -160 6h-150l-46 -275c-11.333 -76 -24.333 -140.333 -39 -193c53.333 54.667 108.166 98 164.499 130s108.166 48 155.499 48c83.333 0 150 -29.833 200 -89.5
s75 -141.167 75 -244.5c0 -114.667 -24.833 -222.834 -74.5 -324.501s-118.167 -181.5 -205.5 -239.5s-182.666 -87 -285.999 -87c-58.667 0 -116.167 7.5 -172.5 22.5s-105.5 35.5 -147.5 61.5l227 1277h706zM409.001 59.001c67.333 0 129.832 25.001 187.499 75.001
s103.167 117.667 136.5 203s50 174.666 50 267.999c0 74.667 -15.5 132.5 -46.5 173.5s-72.5 61.5 -124.5 61.5c-39.333 0 -81.833 -13 -127.5 -39s-89.167 -59.333 -130.5 -100l-106 -594c38.667 -32 92.334 -48 161.001 -48z" />
    <glyph glyph-name="uni0184" unicode="&#x184;" horiz-adv-x="1208" 
d="M578 1341l-102.999 -596h211c133.333 0 237.166 -29.5 311.499 -88.5s111.5 -141.5 111.5 -247.5c0 -137.333 -46.5 -239.833 -139.5 -307.5s-234.833 -101.5 -425.5 -101.5h-565l10 53l175 46l150 831l-167 167l12 63l356 181h63zM459.001 655l-100 -565.001h158
c144 0 245.5 24.333 304.5 73s88.5 131.334 88.5 248.001c0 162.667 -95.667 244 -287 244h-164z" />
    <glyph glyph-name="uni0185" unicode="&#x185;" horiz-adv-x="1024" 
d="M409 59c67.333 0 129.832 25.001 187.499 75.001s103.167 117.667 136.5 203s50 174.666 50 267.999c0 74.667 -15.5 132.5 -46.5 173.5s-72.5 61.5 -124.5 61.5c-39.333 0 -81.833 -13 -127.5 -39s-89.167 -59.333 -130.5 -100l-106 -594
c38.667 -32 92.334 -48 161.001 -48zM395.999 -19.999c-58.667 0 -116.166 7.50098 -172.499 22.501s-105.5 35.5 -147.5 61.5l166 934l-109 178l9 49l288 196h50l-74 -441c-11.333 -76 -24.333 -140.333 -39 -193c53.333 54.667 108.166 98 164.499 130
s108.166 48 155.499 48c83.333 0 150 -29.833 200 -89.5s75 -141.167 75 -244.5c0 -114.667 -24.833 -222.834 -74.5 -324.501s-118.167 -181.5 -205.5 -239.5s-182.666 -87 -285.999 -87z" />
    <glyph glyph-name="uni0186" unicode="&#x186;" horiz-adv-x="1366" 
d="M485 -19c-140.667 0 -286.665 17.001 -437.998 51.001l45 293h65v-174c42 -28.667 92 -50.834 150 -66.501s119.333 -23.5 184 -23.5c120.667 0 228.834 32.167 324.501 96.5s170 155.5 223 273.5s79.5 252.333 79.5 403c0 143.333 -34.833 252.5 -104.5 327.5
s-168.834 112.5 -297.501 112.5c-76 0 -150.333 -11.333 -223 -34s-131.667 -51.667 -177 -87l-72 -201h-65l61 315c76.667 28 159.167 49.833 247.5 65.5s170.166 23.5 245.499 23.5c183.333 0 326.666 -48 429.999 -144s155 -228.667 155 -398
c0 -165.333 -34.5 -311.333 -103.5 -438s-167 -224.167 -294 -292.5s-272.167 -102.5 -435.5 -102.5z" />
    <glyph glyph-name="uni0187" unicode="&#x187;" horiz-adv-x="1366" 
d="M1762 1368l-66.001 -0.000976562l-5 139c-10 15.333 -26 27.333 -48 36s-47 13 -75 13c-46 0 -84 -16 -114 -48s-49.667 -79.333 -59 -142l-55 -354h-65v174c-42 28.667 -92 50.834 -150 66.501s-119.333 23.5 -184 23.5c-120.667 0 -228.834 -32.167 -324.501 -96.5
s-170 -155.5 -223 -273.5s-79.5 -252.333 -79.5 -403c0 -143.333 34.833 -252.5 104.5 -327.5s168.834 -112.5 297.501 -112.5c76 0 150.333 11.333 223 34s131.667 51.667 177 87l72 201h65l-61 -315c-76.667 -28 -159.167 -49.833 -247.5 -65.5
s-170.166 -23.5 -245.499 -23.5c-183.333 0 -326.666 48 -429.999 144s-155 228.667 -155 398c0 165.333 34.5 311.333 103.5 438s167 224.167 294 292.5s272.167 102.5 435.5 102.5c120 0 234 -10.333 342 -31c21.333 101.333 59.666 179.5 114.999 234.5
s122 82.5 200 82.5c84 0 151 -10 201 -30z" />
    <glyph glyph-name="uni0188" unicode="&#x188;" horiz-adv-x="909" 
d="M1195 993h-49.001l-23 123c-19.333 14 -45.666 21 -78.999 21c-42 0 -75.5 -19.333 -100.5 -58s-46.167 -108 -63.5 -208l-38 -220h-55l-16 174c-42 42 -98 63 -168 63c-64 0 -123.833 -23.667 -179.5 -71s-100.167 -113.333 -133.5 -198s-50 -177.667 -50 -279
c0 -170.667 68.667 -256 206 -256c94 0 193.333 33.333 298 100l30 -42c-54 -50 -114.167 -89.5 -180.5 -118.5s-130.833 -43.5 -193.5 -43.5c-107.333 0 -190.333 31 -249 93s-88 147.667 -88 257c0 116 23.333 221.833 70 317.5s113.167 172.5 199.5 230.5
s176.833 87 271.5 87c58.667 0 124.334 -8.33301 197.001 -25c25.333 93.333 61 162.833 107 208.5s107.333 68.5 184 68.5c51.333 0 97.666 -6.33301 138.999 -19z" />
    <glyph glyph-name="uni0189" unicode="&#x189;" horiz-adv-x="1479" 
d="M784 1341c215.333 0 379.833 -47.1699 493.5 -141.503s170.5 -230.166 170.5 -407.499c0 -159.333 -33.5 -299.666 -100.5 -420.999s-162.5 -214.166 -286.5 -278.499s-268 -96.5 -432 -96.5l-481 4h-171l9 53l176 27l96 549h-180l15 82h180l97 551l-167 26l9 53h572z
M1238 784.997c0 310.667 -171.667 466 -515 466h-162l-95 -540h375l-15 -82h-375l-94 -535c106.667 -5.33301 194.667 -8 264 -8c196 0 347.833 60.5 455.5 181.5s161.5 293.5 161.5 517.5z" />
    <glyph glyph-name="uni018A" unicode="&#x18a;" horiz-adv-x="1597" 
d="M1343 785c0 310.667 -171.667 466 -515 466h-162l-204 -1157c106.667 -5.33301 194.667 -8 264 -8c196 0 347.833 60.5 455.5 181.5s161.5 293.5 161.5 517.5zM473 1251l-54 -0.00292969c-52.667 0 -96.667 -7.66699 -132 -23s-64.333 -42.333 -87 -81l-71 -121h-67
l54 266c70 32.667 137 49 201 49h572c215.333 0 379.833 -47.167 493.5 -141.5s170.5 -230.166 170.5 -407.499c0 -159.333 -33.5 -299.666 -100.5 -420.999s-162.5 -214.166 -286.5 -278.499s-268 -96.5 -432 -96.5l-481 4h-171l9 53l176 27z" />
    <glyph glyph-name="uni018B" unicode="&#x18b;" horiz-adv-x="1208" 
d="M263 296c0 -72 24.002 -124.334 72.002 -157.001s122.667 -49 224 -49h148l99 565h-154c-92.667 0 -167.334 -12.833 -224.001 -38.5s-98.334 -62.667 -125.001 -111s-40 -118.166 -40 -209.499zM1279 1341l-9 -53l-164 -27l-208 -1182l167 -26l-9 -53h-556
c-141.333 0 -249.333 25.667 -324 77s-112 126 -112 224c0 140 47.167 249 141.5 327s232.833 117 415.5 117h201l90 510h-207c-54 0 -109.333 -2.16699 -166 -6.5s-96.667 -8.83301 -120 -13.5l-93 -203h-65l67 309h951z" />
    <glyph glyph-name="uni018C" unicode="&#x18c;" horiz-adv-x="1024" 
d="M760 837c-23.333 15.333 -47.332 27.334 -71.999 36.001s-54.667 13 -90 13c-62.667 0 -121.334 -24.667 -176.001 -74s-98.667 -117.333 -132 -204s-50 -176.334 -50 -269.001c0 -71.333 14.667 -128.333 44 -171s69 -64 119 -64c38 0 78.667 12.167 122 36.5
s85.333 58.5 126 102.5zM1015 1341l-226.001 -1271l113 -25l-8 -45h-285l29 156c-112.667 -118 -215.667 -177 -309 -177c-82 0 -147 30.833 -195 92.5s-72 143.5 -72 245.5c0 114 24.5 221.167 73.5 321.5s116.167 179.666 201.5 237.999s179 87.5 281 87.5
c62.667 0 117.667 -7.66699 165 -23c2.66699 32.667 19.667 137.334 51 314.001h-121c-169.333 0 -285.666 -6.66699 -348.999 -20l-54 -153h-67l45 259h727z" />
    <glyph glyph-name="uni018D" unicode="&#x18d;" horiz-adv-x="952" 
d="M325 -441c-38.667 0 -83.334 4.66699 -134.001 14s-97.334 22 -140.001 38l45 262h55l16 -173c20.667 -22.667 45.834 -39 75.501 -49s58.834 -15 87.501 -15c67.333 0 118.833 15 154.5 45s53.5 70 53.5 120c0 22.667 -5.16699 43.834 -15.5 63.501
s-25.833 40.167 -46.5 61.5s-67.667 61 -141 119c-136.667 106.667 -205 235.667 -205 387c0 102.667 21 194.667 63 276s101.667 144.666 179 189.999s165.333 68 264 68c100 0 179.333 -30.167 238 -90.5s88 -143.5 88 -249.5c0 -133.333 -35.333 -246.5 -106 -339.5
s-176 -160.833 -316 -203.5c58 -51.333 97.667 -95 119 -131s32 -73.333 32 -112c0 -56.667 -16 -106 -48 -148s-76 -74.667 -132 -98s-118 -35 -186 -35zM602 886c-56.667 0 -106.831 -17.502 -150.498 -52.502s-78.334 -87.833 -104.001 -158.5s-38.5 -146.667 -38.5 -228
c0 -62 11.5 -115.667 34.5 -161s58.5 -87.666 106.5 -126.999l34 -28c108.667 40.667 186.5 100.5 233.5 179.5s70.5 184.833 70.5 317.5c0 80.667 -16.333 143.834 -49 189.501s-78.334 68.5 -137.001 68.5z" />
    <glyph glyph-name="uni018E" unicode="&#x18e;" horiz-adv-x="1251" 
d="M1107 0h-1071l43 354h66l14 -248c53.333 -10.667 165 -16 335 -16h264l96 547h-362l-59 -162h-64l72 412h64l3 -160h362l93 524h-219c-143.333 0 -252.333 -4.66699 -327 -14l-70 -217h-66l56 321h1006l-9 -53l-176 -26l-209 -1182l167 -27z" />
    <glyph glyph-name="uni018F" unicode="&#x18f;" horiz-adv-x="1423" 
d="M1169 745l5.00195 87.002c0 140 -30.167 249 -90.5 327s-144.5 117 -252.5 117c-75.333 0 -141.5 -7.83301 -198.5 -23.5s-111.167 -37.834 -162.5 -66.501l-61 -174h-66l58 293c102 21.333 185.167 35.166 249.5 41.499s132.166 9.5 203.499 9.5
c164 0 291.667 -46.667 383 -140s137 -224.666 137 -393.999c0 -160.667 -31.333 -306.834 -94 -438.501s-149.834 -231.834 -261.501 -300.501s-241.5 -103 -389.5 -103c-159.333 0 -286.333 48.333 -381 145s-142 226.334 -142 389.001c0 83.333 8.33301 160.333 25 231
h1038zM322.002 655.002c-10.667 -53.333 -16 -104 -16 -152c0 -140 30 -248 90 -324s142.333 -114 247 -114c128 0 236.333 53 325 159s151 249.667 187 431h-833z" />
    <glyph glyph-name="uni0190" unicode="&#x190;" horiz-adv-x="1014" 
d="M54 303c0 233.333 135.996 366.331 407.996 398.998c-78.667 11.333 -140.667 41.5 -186 90.5s-68 109.5 -68 181.5c0 122.667 42.833 217.167 128.5 283.5s207.834 99.5 366.501 99.5c98.667 0 201.334 -14.333 308.001 -43l-46 -258h-66l-4 164
c-21.333 14.667 -51.666 27.167 -90.999 37.5s-76.666 15.5 -111.999 15.5c-95.333 0 -166 -24.167 -212 -72.5s-69 -129.166 -69 -242.499c0 -66 18 -116.167 54 -150.5s86 -53.5 150 -57.5l142 -9l-15 -82l-144 -8c-120 -6.66699 -207 -40.167 -261 -100.5
s-81 -147.833 -81 -262.5c0 -150 82.333 -225 247 -225c37.333 0 80.333 5.33301 129 16s86 23.334 112 38.001l76 188h66l-61 -282c-116 -28.667 -234.667 -43 -356 -43c-126.667 0 -227.5 28.5 -302.5 85.5s-112.5 136.167 -112.5 237.5z" />
    <glyph glyph-name="uni0191" unicode="&#x191;" horiz-adv-x="1251" 
d="M1211 1020h-65.999l6 217c-72 9.33301 -179 14 -321 14h-269l-99 -559h445l59 160h61l-72 -412h-61l-3 162h-445l-105 -593c-53.333 -301.333 -190.333 -452 -411 -452c-88.667 0 -167 15.333 -235 46l42 232h65l5 -139c8 -14 25.667 -26.333 53 -37
s55.666 -16 84.999 -16c93.333 0 151 63.333 173 190l252 1429l-168 26l9 53h1057z" />
    <glyph glyph-name="florin" unicode="&#x192;" horiz-adv-x="1024" 
d="M213 -285l171 986.999h-161l10 50l167 34l40 232c18.667 106.667 58.834 190.667 120.501 252s138.167 92 229.5 92c60.667 0 112 -6.33301 154 -19l-7 -182h-47l-29 96c-20.667 15.333 -49.334 23 -86.001 23c-30 0 -55 -8.16699 -75 -24.5s-36.5 -40.166 -49.5 -71.499
s-27.833 -92.333 -44.5 -183l-38 -215h249l-17 -84h-248l-177 -987h-162z" />
    <glyph glyph-name="uni0193" unicode="&#x193;" horiz-adv-x="1479" 
d="M947 1356c123.333 0 241.336 -12.333 354.003 -37c20.667 102.667 58.667 182.167 114 238.5s122.333 84.5 201 84.5c84 0 151 -10 201 -30l-43 -244h-66l-5 139c-10 15.333 -26 27.333 -48 36s-47 13 -75 13c-92.667 0 -150.334 -63.333 -173.001 -190l-64 -358h-67
l3 166c-84.667 68 -197.334 102 -338.001 102c-118 0 -225 -31.833 -321 -95.5s-171 -154.167 -225 -271.5s-81 -252.666 -81 -405.999c0 -138.667 34.167 -246.834 102.5 -324.501s163.833 -116.5 286.5 -116.5c58 0 116.833 8.33301 176.5 25s111.5 38.667 155.5 66
l63 353l-167 26l9 54h495l-9 -54l-136 -26l-75 -420c-98 -38 -187.333 -64.833 -268 -80.5s-166.334 -23.5 -257.001 -23.5c-182 0 -323.667 47.833 -425 143.5s-152 228.167 -152 397.5c0 167.333 34.667 314 104 440s167.333 223 294 291s272 102 436 102z" />
    <glyph glyph-name="uni0194" unicode="&#x194;" horiz-adv-x="1443" 
d="M1448 1341l-10.001 -53.001l-131 -26l-623 -1109c45.333 -202 68 -366.333 68 -493l-3 -92l-371 -11l-61 29c18 70.667 40.833 138.834 68.5 204.501s69.834 149.167 126.501 250.5l-278 1221l-127 26l10 53h493l-10 -53l-169 -26l218 -979l537 979l-152 26l11 53h403z
M568.999 -337.001l0.000976562 16c0 70.667 -9 145.667 -27 225c-27.333 -46.667 -51.833 -95.167 -73.5 -145.5s-34.834 -87.5 -39.501 -111.5l19 -7l120 7z" />
    <glyph glyph-name="uni0195" unicode="&#x195;" horiz-adv-x="1550" 
d="M829 222c0 -48 13.835 -87.1689 41.502 -117.502s68.167 -45.5 121.5 -45.5c110.667 0 178.334 70 203.001 210l106 601l-137 25l8 45h306l-120 -683c-32.667 -184.667 -159.334 -277 -380.001 -277c-104.667 0 -183.834 18.833 -237.501 56.5
s-80.5 91.834 -80.5 162.501c0 20.667 1.66699 40 5 58l57 325c15.333 84.667 23 140 23 166c0 30 -8 54.333 -24 73s-41.333 28 -76 28c-48.667 0 -100.334 -20.167 -155.001 -60.5s-101.334 -92.166 -140.001 -155.499l-111 -633h-165l237 1352l-118 24l8 45h288l-88 -493
l-34 -179c108.667 144 222.334 216 341.001 216c67.333 0 118 -18.167 152 -54.5s51 -88.5 51 -156.5c0 -28.667 -8 -87 -24 -175l-54 -310z" />
    <glyph glyph-name="uni0196" unicode="&#x196;" horiz-adv-x="569" 
d="M287 70l157 -25l-8 -45h-327l237 1352l-129 24l8 45h299z" />
    <glyph glyph-name="uni0197" unicode="&#x197;" horiz-adv-x="682" 
d="M369 80l166 -27l-8 -53h-535l8 53l176 27l104 595h-208l15 82h207l89 505l-166 26l8 53h537l-8 -53l-178 -26l-89 -505h213l-15 -82h-212z" />
    <glyph glyph-name="uni0198" unicode="&#x198;" horiz-adv-x="1366" 
d="M451 630l768.998 632l-119 26l10 53h409l-10 -53l-145 -26l-556 -455l447 -727l141 -27l-9 -53h-315l-411 686l-233 -189l-75 -417l188 -27l-10 -53h-556l10 53l175 27l146 829c16 90 43.5 168.333 82.5 235s89 119.5 150 158.5s124.5 58.5 190.5 58.5
c71.333 0 135.333 -10 192 -30l-43 -244h-66l-6 139c-9.33301 14.667 -23.666 26.5 -42.999 35.5s-40.666 13.5 -63.999 13.5c-41.333 0 -77 -16 -107 -48s-50.667 -79.333 -62 -142z" />
    <glyph glyph-name="uni0199" unicode="&#x199;" horiz-adv-x="909" 
d="M889 0h-235.999l-218 479l-148 -139l-62 -340h-166l179 1010c25.333 142 72.166 249.5 140.499 322.5s151.5 109.5 249.5 109.5c52 0 98.667 -6.33301 140 -19l-36 -205h-49l-24 123c-19.333 14 -45.333 21 -78 21c-42.667 0 -76.167 -19.667 -100.5 -59
s-44.833 -108.333 -61.5 -207l-114 -643l428 415l-94 27l8 45h292l-8 -45l-81 -23l-294 -281l243 -523l98 -23z" />
    <glyph glyph-name="uni019A" unicode="&#x19a;" horiz-adv-x="569" 
d="M563 673h-170l-106 -603l157 -25l-8 -45h-327l118 673h-167l14 84h167l105 595l-129 24l8 45h299l-117 -664h170z" />
    <glyph glyph-name="uni019B" unicode="&#x19b;" horiz-adv-x="887" 
d="M583 1140l154.998 -993c8.66699 -51.333 41.334 -85.333 98.001 -102l-8 -45h-196l-97 736c-22 -49.333 -61.667 -125 -119 -227l-293 -509h-173l8 43l551 909l-17 113l-396 -328l20 114l363 301c-11.333 71.333 -27.666 121.833 -48.999 151.5s-48.333 44.5 -81 44.5
c-23.333 0 -45.333 -4 -66 -12l-48 -83h-49l21 168c52.667 14 102.667 21 150 21c60.667 0 106.5 -15.667 137.5 -47s55.5 -88 73.5 -170l219 181l-20 -114z" />
    <glyph glyph-name="uni019C" unicode="&#x19c;" horiz-adv-x="1605" 
d="M1640 1340l-223 -1260l124 -27l-9 -53h-310l33 225c-54 -76.667 -115 -138.167 -183 -184.5s-131.333 -69.5 -190 -69.5c-68 0 -120.667 21.333 -158 64s-56 106 -56 190c-52.667 -76 -112.334 -137.333 -179.001 -184s-130.334 -70 -191.001 -70
c-65.333 0 -116.666 20.5 -153.999 61.5s-56 100.833 -56 179.5c0 43.333 9 111.666 27 204.999l149 844l-126 26l9 53h323l-165 -925c-6.66699 -33.333 -12.667 -70.5 -18 -111.5s-8 -67.833 -8 -80.5c0 -77.333 33.333 -116 100 -116c34.667 0 77 17.667 127 53
s92.667 77.333 128 126s56.666 94 63.999 136l160 918h192l-163 -925l-9 -52.5l-9.5 -55c-3 -17.667 -5.5 -34 -7.5 -49s-3 -26.833 -3 -35.5c0 -77.333 35.333 -116 106 -116c36 0 79.333 18.333 130 55s93.834 79.167 129.501 127.5s56.834 92.5 63.501 132.5l161 918h192
z" />
    <glyph glyph-name="uni019D" unicode="&#x19d;" horiz-adv-x="1366" 
d="M1461 1341l-9.99902 -53l-176 -26l-223 -1262h-97l-481 1206l-221 -1252c-23.333 -129.333 -65.833 -227.833 -127.5 -295.5s-141.5 -101.5 -239.5 -101.5c-29.333 0 -63.5 2 -102.5 6s-67.5 8 -85.5 12l41 234h70l36 -151c21.333 -14 52 -21 92 -21
c51.333 0 93.666 21 126.999 63s58.333 109.667 75 203l240 1359l-168 26l10 53h388l399 -1005l162 926l-176 26l10 53h457z" />
    <glyph glyph-name="uni019E" unicode="&#x19e;" horiz-adv-x="1016" 
d="M755 748c0 30 -8.00098 54.334 -24.001 73.001s-41.333 28 -76 28c-50 0 -104.167 -21.333 -162.5 -64s-106.166 -94.334 -143.499 -155.001l-110 -630h-166l153 871l-118 25l8 45h278l-27 -192c56 72 114 126 174 162s119 54 177 54c67.333 0 118 -18.167 152 -54.5
s51 -88.5 51 -156.5c0 -24 -8.33301 -82 -25 -174l-178 -1017h-166l180 1019c15.333 84.667 23 140 23 166z" />
    <glyph glyph-name="uni019F" unicode="&#x19f;" horiz-adv-x="1479" 
d="M663 -20c-107.333 0 -203.833 22.501 -289.5 67.501s-152.167 108.5 -199.5 190.5s-71 174 -71 276c0 160.667 33.333 306.167 100 436.5s157.667 230.5 273 300.5s247 105 395 105c107.333 0 203.833 -22.5 289.5 -67.5s152.167 -108.333 199.5 -190
s71 -173.834 71 -276.501c0 -158 -33.5 -303.333 -100.5 -436s-158 -233.5 -273 -302.5s-246.5 -103.5 -394.5 -103.5zM303 503.001c0 -132 33.499 -238.001 100.499 -318.001s155.833 -120 266.5 -120c84 0 162.167 23.5 234.5 70.5s135.833 116.333 190.5 208
s93.334 193.167 116.001 304.5h-896c-8 -51.333 -12 -99.666 -12 -144.999zM1231 832c0 133.333 -34.166 240.667 -102.499 322s-158.5 122 -270.5 122c-82.667 0 -159.334 -23.333 -230.001 -70s-131 -110.667 -181 -192s-88.333 -175.333 -115 -282h893
c4 34 6 67.333 6 100z" />
    <glyph glyph-name="Ohorn" unicode="&#x1a0;" horiz-adv-x="1479" 
d="M663 -20c-107.333 0 -203.835 22.5039 -289.502 67.5039s-152.167 108.5 -199.5 190.5s-71 174 -71 276c0 160.667 33.333 306.167 100 436.5s157.667 230.5 273 300.5s247 105 395 105c114.667 0 216.834 -25.833 306.501 -77.5s156.5 -123.5 200.5 -215.5
c41.333 20 72.166 41.333 92.499 64s30.5 44 30.5 64c0 14.667 -5.66699 26.667 -17 36s-23.666 18.666 -36.999 27.999s-25.666 20.166 -36.999 32.499s-17 29.166 -17 50.499c0 38 12 68.333 36 91s54.333 34 91 34c38 0 69.833 -11.333 95.5 -34
s38.5 -59.334 38.5 -110.001c0 -57.333 -22.167 -115 -66.5 -173s-105.833 -106.667 -184.5 -146c18.667 -56 28 -115.333 28 -178c0 -158 -33.5 -303.333 -100.5 -436s-158 -233.5 -273 -302.5s-246.5 -103.5 -394.5 -103.5zM1231 832.004
c0 133.333 -34.166 240.667 -102.499 322s-158.5 122 -270.5 122c-99.333 0 -190.5 -33.833 -273.5 -101.5s-150.667 -164.5 -203 -290.5s-78.5 -253 -78.5 -381c0 -132 33.5 -238 100.5 -318s155.833 -120 266.5 -120c99.333 0 191.166 33.5 275.499 100.5
s153 163.5 206 289.5s79.5 251.667 79.5 377z" />
    <glyph glyph-name="ohorn" unicode="&#x1a1;" horiz-adv-x="1093" 
d="M946 705c11.333 -42 16.999 -86.6621 16.999 -133.995c0 -107.333 -23 -206.666 -69 -297.999s-109.833 -163 -191.5 -215s-173.5 -78 -275.5 -78c-110.667 0 -199.334 35.5 -266.001 106.5s-100 166.833 -100 287.5c0 107.333 23 206.666 69 297.999
s109.833 163 191.5 215s173.5 78 275.5 78c74.667 0 140 -16.833 196 -50.5s99 -81.834 129 -144.501c76.667 37.333 115 78.333 115 123c0 14.667 -5.66699 26.667 -17 36s-23.666 18.666 -36.999 27.999s-25.666 20.166 -36.999 32.499s-17 29.166 -17 50.499
c0 38 12 68.333 36 91s54.333 34 91 34c38 0 69.833 -11.333 95.5 -34s38.5 -59.334 38.5 -110.001c0 -59.333 -22 -117.5 -66 -174.5s-103.333 -104.167 -178 -141.5zM236.999 340.005c0 -90.667 17.499 -159.667 52.499 -207s83.833 -71 146.5 -71
c60.667 0 118.5 24.333 173.5 73s98.5 115.167 130.5 199.5s48 174.833 48 271.5c0 92.667 -17.333 162.667 -52 210s-85 71 -151 71c-60.667 0 -118.167 -24.333 -172.5 -73s-97.166 -115.167 -128.499 -199.5s-47 -175.833 -47 -274.5z" />
    <glyph glyph-name="uni01A2" unicode="&#x1a2;" horiz-adv-x="1894" 
d="M1542 -363l167 -27.002l-9 -53h-536l9 53l177 27l285 1614h-244l-209 -1181c-188 -60 -359 -90 -513 -90c-109.333 0 -207.333 22.333 -294 67s-153.667 107.667 -201 189s-71 174 -71 278c0 162.667 33.833 308.334 101.5 437.001s164.667 228.334 291 299.001
s273.166 106 440.499 106c70 0 135.833 -2.5 197.5 -7.5s116.834 -7.5 165.501 -7.5h543zM682 64.998c56 0 115 6.83301 177 20.5s109.333 29.5 142 47.5l198 1118c-120.667 16.667 -214 25 -280 25c-121.333 0 -228.333 -32.833 -321 -98.5s-165 -159 -217 -280
s-78 -254.167 -78 -399.5c0 -136 33.167 -242.167 99.5 -318.5s159.5 -114.5 279.5 -114.5z" />
    <glyph glyph-name="uni01A3" unicode="&#x1a3;" horiz-adv-x="1384" 
d="M917 -437l228.001 1292h-135l-67 -380c-28 -160 -86.333 -282.5 -175 -367.5s-203 -127.5 -343 -127.5c-110 0 -198.167 35.333 -264.5 106s-99.5 166.334 -99.5 287.001c0 105.333 23.667 204 71 296s112.666 164.333 195.999 217s176.333 79 279 79
c30.667 0 85.667 -4 165 -12c79.333 -8.66699 136.333 -13 171 -13h383l-230 -1305l99 -24l-8 -47zM439.001 61.999c168 0 275.999 137.667 323.999 413l67 380c-103.333 20.667 -181.666 31 -234.999 31c-64.667 0 -124.667 -23.333 -180 -70s-98.833 -112 -130.5 -196
s-47.5 -177.667 -47.5 -281c0 -88.667 17 -157 51 -205s84.333 -72 151 -72z" />
    <glyph glyph-name="uni01A4" unicode="&#x1a4;" horiz-adv-x="1357" 
d="M717 616c258.667 0 388 119 388 357c0 96 -24 166.333 -72 211s-121 67 -219 67h-148l-112 -635h163zM1304 986c0 -149.333 -48.833 -263.333 -146.5 -342s-237.167 -118 -418.5 -118h-201l-79 -446l219 -27l-10 -53h-574l10 53l162 27l207 1171h-54
c-52.667 0 -96.667 -7.66699 -132 -23s-64.333 -42.333 -87 -81l-71 -121h-67l54 266c70 32.667 137 49 201 49h537c144 0 255 -29.833 333 -89.5s117 -148.167 117 -265.5z" />
    <glyph glyph-name="uni01A5" unicode="&#x1a5;" horiz-adv-x="1024" 
d="M962 631c0 -117.333 -25 -226.501 -75 -327.501s-118 -180.167 -204 -237.5s-179.333 -86 -280 -86c-30.667 0 -62.5 2.16699 -95.5 6.5s-57.833 9.5 -74.5 15.5l-11 -90l-48 -277l160 -24l-8 -47h-446l8 47l121 24l244 1375c25.333 144.667 69.333 252.834 132 324.501
s148.667 107.5 258 107.5c52 0 98.667 -6.33301 140 -19l-36 -196h-49l-19 114c-19.333 14 -47 21 -83 21c-43.333 0 -77 -19.833 -101 -59.5s-44.333 -108.5 -61 -206.5l-55 -308c115.333 118 220.333 177 315 177c80.667 0 145.5 -29.667 194.5 -89s73.5 -141 73.5 -245z
M257 106.999c41.333 -32 97.332 -48.001 167.999 -48.001c66 0 125.833 24.333 179.5 73s96.834 116.834 129.501 204.501s49 177.167 49 268.5c0 74 -14.833 131.667 -44.5 173s-69.5 62 -119.5 62c-35.333 0 -77 -13 -125 -39s-90.667 -59.333 -128 -100z" />
    <glyph glyph-name="uni01A6" unicode="&#x1a6;" horiz-adv-x="1251" 
d="M995 815c0 161.333 -95.999 242 -287.999 242h-181l-101 -573h192c119.333 0 212.166 28.5 278.499 85.5s99.5 138.833 99.5 245.5zM744.001 1147c145.333 0 256.5 -27.833 333.5 -83.5s115.5 -136.167 115.5 -241.5c0 -210 -116 -343.333 -348 -400l284 -567l141 -27
l-10 -53h-321l-289 619h-241l-55 -314l198 -27l-9 -53h-555l9 53l164 27l209 1182l-168 26l9 53h568l-9 -53l-208 -27l-20 -114h202z" />
    <glyph glyph-name="uni01A7" unicode="&#x1a7;" horiz-adv-x="1024" 
d="M433 -20c-128 0 -226.498 28.333 -295.498 85s-103.5 138.667 -103.5 246c0 118.667 31.5 214.5 94.5 287.5s171.5 132.167 325.5 177.5c142.667 41.333 236.667 74.666 282 99.999s79.5 55.833 102.5 91.5s34.5 78.834 34.5 129.501c0 54.667 -22 97.5 -66 128.5
s-106.333 46.5 -187 46.5c-99.333 0 -187.666 -24.667 -264.999 -74l-63 -164h-65l49 279c131.333 28.667 251 43 359 43c125.333 0 223.166 -25.333 293.499 -76s105.5 -122 105.5 -214c0 -106.667 -30.167 -193 -90.5 -259s-169.5 -122 -327.5 -168
c-120 -35.333 -206.5 -67.166 -259.5 -95.499s-92.833 -64.333 -119.5 -108s-40 -94.834 -40 -153.501c0 -70 22.167 -124.333 66.5 -163s107.166 -58 188.499 -58c59.333 0 120.666 11.833 183.999 35.5s111 51.5 143 83.5l67 181h65l-55 -310
c-60 -22 -128 -39.333 -204 -52s-149 -19 -219 -19z" />
    </font>
</defs>
</svg>
