<?xml version="1.0" standalone="no"?>
<!DOCTYPE svg PUBLIC "-//W3C//DTD SVG 1.1//EN" "http://www.w3.org/Graphics/SVG/1.1/DTD/svg11.dtd" >
<svg>
<metadata>
Created by FontForge 20090914 at Wed Nov 21 08:51:06 2012
 By www-data
Digitized data copyright (c) 2010 Google Corporation.
Copyright (c) 2012 Red Hat, Inc.
</metadata>
<defs>
<font id="LiberationMono-Italic" horiz-adv-x="1229" >
  <font-face 
    font-family="Liberation Mono"
    font-weight="400"
    font-style="italic"
    font-stretch="normal"
    units-per-em="2048"
    panose-1="2 7 4 9 2 2 5 9 4 4"
    ascent="1638"
    descent="-410"
    x-height="1082"
    cap-height="1349"
    bbox="-987 -615.001 1687 2009"
    underline-thickness="84"
    underline-position="-435"
    slope="-12"
    unicode-range="U+0020-U+FE23"
  />
<missing-glyph 
d="M147 0v1349h935v-1349h-935zM963 1230h-697v-1111h697v1111z" />
    <glyph glyph-name=".notdef" 
d="M147 0v1349h935v-1349h-935zM963 1230h-697v-1111h697v1111z" />
    <glyph glyph-name="space" unicode=" " 
 />
    <glyph glyph-name="exclam" unicode="!" 
d="M661 397h-148l161 951h196zM410 0l39 201h194l-39 -201h-194z" />
    <glyph glyph-name="quotedbl" unicode="&#x22;" 
d="M967 845h-142l84 639h224zM518 845h-141l83 639h224z" />
    <glyph glyph-name="numbersign" unicode="#" 
d="M987 833l-129 -317h260l-21 -108h-283l-167 -408h-110l165 408h-363l-163 -408h-110l163 408h-201l21 108h225l129 317h-241l21 108h263l168 408h110l-167 -408h363l167 408h110l-167 -408h211l-21 -108h-233zM516 833l-131 -317h362l129 317h-360z" />
    <glyph glyph-name="dollar" unicode="$" 
d="M554 -141l-127.996 0.00195312l31 161c-280 9.33301 -420.667 129 -422 359l177 37c0 -162.667 90.667 -248.667 272 -258l95 489c-32 7.33301 -74.333 19.5 -127 36.5s-95.334 36.667 -128.001 59s-58.834 49.833 -78.501 82.5s-29.5 73 -29.5 121
c0 54 10.5 105.667 31.5 155s53.5 92.333 97.5 129s97.5 64.667 160.5 84s132.833 30 209.5 32l25 130h128l-25 -130c123.333 -4.66699 214 -31.334 272 -80.001s90.667 -129 98 -241l-180 -33c-1.33301 70 -19.166 123 -53.499 159s-88.5 56.667 -162.5 62l-83 -426
c119.333 -30.667 202.166 -58.834 248.499 -84.501s82.166 -57.5 107.499 -95.5s38 -85.333 38 -142c0 -80 -21 -154 -63 -222s-104.333 -121 -187 -159s-180.334 -59.333 -293.001 -64zM390.004 974.002c0 -40 14.5 -72.833 43.5 -98.5s87.5 -50.167 175.5 -73.5l80 413
c-170.667 -7.33301 -268.667 -73 -294 -197zM952.004 432.002c0 32.667 -7.83301 60.332 -23.5 82.999s-38.167 42 -67.5 58s-82 34 -158 54l-92 -471c110.667 6.66699 195.167 34.834 253.5 84.501s87.5 113.5 87.5 191.5z" />
    <glyph glyph-name="percent" unicode="%" 
d="M116 0h-145l1195 1353h147zM451 1361c152.667 0 229 -73.334 229 -220.001c0 -52.667 -7.83301 -108.834 -23.5 -168.501s-39.5 -111.5 -71.5 -155.5s-70.167 -77.167 -114.5 -99.5s-96.166 -33.5 -155.499 -33.5c-155.333 0 -233 76 -233 228
c0 50.667 8.16699 106.834 24.5 168.501s40.333 113.834 72 156.501s69.667 74 114 94s97.166 30 158.499 30zM534 1134c0 40.667 -8.33301 70.666 -25 89.999s-43.334 29 -80.001 29c-46 0 -82.667 -13.833 -110 -41.5s-49.166 -72 -65.499 -133
s-24.5 -113.167 -24.5 -156.5c0 -46 9.5 -78.333 28.5 -97s46.167 -28 81.5 -28c44 0 79.833 15.667 107.5 47s49.167 76.333 64.5 135s23 110.334 23 155.001zM971 664.998c153.333 0 229.999 -73.668 229.999 -221.001c0 -76 -14.333 -151.333 -43 -226
s-70.167 -131.667 -124.5 -171s-120.166 -59 -197.499 -59c-155.333 0 -233 76 -233 228c0 50.667 8.16699 106.5 24.5 167.5s40 112.833 71 155.5s68.667 74.334 113 95.001s97.5 31 159.5 31zM1054 436.997c0 45.333 -9.16797 76.667 -27.501 94s-44.166 26 -77.499 26
c-46 0 -82.5 -14 -109.5 -42s-48.667 -72.167 -65 -132.5s-24.5 -112.5 -24.5 -156.5c0 -46 9.5 -78.333 28.5 -97s46.167 -28 81.5 -28c43.333 0 79 15.5 107 46.5s49.5 75.5 64.5 133.5s22.5 110 22.5 156z" />
    <glyph glyph-name="ampersand" unicode="&#x26;" 
d="M965 -12c-47.333 0 -92.3291 11.3291 -134.996 33.9961s-77.334 54.334 -104.001 95.001c-120.667 -91.333 -245.334 -137 -374.001 -137c-115.333 0 -203 25.167 -263 75.5s-90 120.833 -90 211.5c0 104.667 31.5 200.667 94.5 288s158.833 161.333 287.5 222
c-19.333 56.667 -29 118.334 -29 185.001c0 122.667 38.167 219.167 114.5 289.5s177.5 105.5 303.5 105.5c85.333 0 152.5 -19 201.5 -57s73.5 -89.667 73.5 -155c0 -55.333 -14.833 -106.166 -44.5 -152.499s-75.834 -89.666 -138.501 -129.999
s-163.334 -87.166 -302.001 -140.499c60 -157.333 127.333 -287 202 -389c81.333 119.333 149.333 254.666 204 405.999l136 -43c-58.667 -156.667 -142.667 -310.667 -252 -462c22 -36 47.5 -62.5 76.5 -79.5s56.833 -25.5 83.5 -25.5c38 0 70.667 5.33301 98 16l-26 -135
c-34.667 -14.667 -73.667 -22 -117 -22zM889.004 1117c0 36.667 -12.834 65.668 -38.501 87.001s-61.5 32 -107.5 32c-70.667 0 -128.667 -21.833 -174 -65.5s-68 -106.834 -68 -189.501c0 -49.333 8.33301 -99 25 -149c112.667 44 185.834 75.333 219.501 94
s61.167 38.167 82.5 58.5s36.833 41.5 46.5 63.5s14.5 45 14.5 69zM643.003 216.997c-92.667 134.667 -169.335 281.667 -230.002 441c-77.333 -38 -137.166 -88.833 -179.499 -152.5s-63.5 -131.5 -63.5 -203.5c0 -60 18.333 -106.833 55 -140.5
s90.334 -50.5 161.001 -50.5c44 0 89.333 9.83301 136 29.5s87 45.167 121 76.5z" />
    <glyph glyph-name="quotesingle" unicode="'" 
d="M743 845h-141l83 639h224z" />
    <glyph glyph-name="parenleft" unicode="(" 
d="M497 240c0 -112.667 15.999 -221.667 47.999 -327s84.667 -218 158 -338h-190c-70 111.333 -121.5 220.666 -154.5 327.999s-49.5 217.666 -49.5 330.999c0 132.667 19.833 273.667 59.5 423s99.334 288.5 179.001 417.5s191.834 265.5 336.501 409.5h190
c-140.667 -139.333 -251.334 -273.166 -332.001 -401.499s-141.667 -267.166 -183 -416.499s-62 -291.333 -62 -426z" />
    <glyph glyph-name="parenright" unicode=")" 
d="M340 -425l-192 -0.00195312c142.667 141.333 254.667 276.5 336 405.5s142.333 267.833 183 416.5s61 288.334 61 419.001c0 116 -17.5 228.667 -52.5 338s-87.167 219.333 -156.5 330h192c71.333 -113.333 123.166 -222.666 155.499 -327.999s48.5 -213.333 48.5 -324
c0 -130.667 -20.167 -272.5 -60.5 -425.5s-100.166 -294 -179.499 -423s-191 -265.167 -335 -408.5z" />
    <glyph glyph-name="asterisk" unicode="*" 
d="M797 1188l284 103l19 -132l-296 -73l137 -250l-133 -72l-100 258l-206 -256l-105 72l237 248l-266 73l71 134l247 -107l45 297h136z" />
    <glyph glyph-name="plus" unicode="+" 
d="M687 608v-428h-147v428h-424v146h424v428h147v-428h424v-146h-424z" />
    <glyph glyph-name="comma" unicode="," 
d="M83 -363l298 662h265l-440 -662h-123z" />
    <glyph glyph-name="hyphen" unicode="-" 
d="M319 464l31 160h560l-31 -160h-560z" />
    <glyph glyph-name="period" unicode="." 
d="M391 0l58 299h235l-58 -299h-235z" />
    <glyph glyph-name="slash" unicode="/" 
d="M5 -20l1113 1504h178l-1109 -1504h-182z" />
    <glyph glyph-name="zero" unicode="0" 
d="M502 -20c-127.333 0 -222.668 36.5 -286.001 109.5s-95 180.167 -95 321.5c0 102 16.167 220 48.5 354s76.333 246.5 132 337.5s122 158.333 199 202s169.5 65.5 277.5 65.5c128.667 0 224.334 -35 287.001 -105s94 -175.333 94 -316
c0 -104.667 -15.667 -222.667 -47 -354s-76 -243.5 -134 -336.5s-126.5 -162.667 -205.5 -209s-169.167 -69.5 -270.5 -69.5zM977.998 947c0 96 -18.332 166.167 -54.999 210.5s-94.334 66.5 -173.001 66.5c-99.333 0 -179.833 -33.833 -241.5 -101.5
s-111.5 -176.167 -149.5 -325.5s-57 -276.666 -57 -381.999c0 -98.667 19 -171.334 57 -218.001s96 -70 174 -70c70 0 130.833 19 182.5 57s96 95.5 133 172.5s67.833 175.333 92.5 295s37 218.167 37 295.5zM497.999 555l49 249h235l-49 -249h-235z" />
    <glyph glyph-name="one" unicode="1" 
d="M52 0l27.999 145h439l199 1021c-35.333 -52.667 -102.833 -98.167 -202.5 -136.5s-194.167 -57.5 -283.5 -57.5l29 148c100 0 197.833 21.667 293.5 65s166.834 98 213.501 164h166l-234 -1204h353l-28 -145h-973z" />
    <glyph glyph-name="two" unicode="2" 
d="M39 0l23 117c38.667 60 90.667 121.167 156 183.5s140.666 124.166 225.999 185.499l143 103c111.333 79.333 191.833 142.5 241.5 189.5s85.834 92 108.501 135s34 87.5 34 133.5c0 55.333 -19.333 98.333 -58 129s-95 46 -169 46
c-72.667 0 -137.167 -19.833 -193.5 -59.5s-96.833 -99.167 -121.5 -178.5l-180 17c36 114.667 100 204.834 192 270.501s202.333 98.5 331 98.5c122.667 0 218 -24.333 286 -73s102 -119.667 102 -213c0 -48 -8 -94.667 -24 -140s-42.333 -92 -79 -140
s-83.667 -96.5 -141 -145.5s-156.333 -121.5 -297 -217.5c-88 -60.667 -159.167 -114.5 -213.5 -161.5s-94.833 -91.5 -121.5 -133.5h723l-28 -146h-940z" />
    <glyph glyph-name="three" unicode="3" 
d="M512 -20c-137.333 0 -241.667 29.334 -313 88.001s-107 144.334 -107 257.001c0 18.667 0.333008 31 1 37l190 17l-1 -21c0 -152.667 86.333 -229 259 -229c68.667 0 128.667 12.167 180 36.5s91.333 60 120 107s43 95.167 43 144.5
c0 59.333 -27.5 106.166 -82.5 140.499s-128.5 51.5 -220.5 51.5h-102l31 156h98c64 0 123.833 11.5 179.5 34.5s99.834 55.333 132.501 97s49 93.167 49 154.5c0 54 -18.5 96 -55.5 126s-93.5 45 -169.5 45c-79.333 0 -147.5 -20.333 -204.5 -61s-96.833 -98 -119.5 -172
l-178 14c36 114.667 101.333 204.5 196 269.5s206.667 97.5 336 97.5c125.333 0 221 -24.333 287 -73s99 -117.334 99 -206.001c0 -98 -33.5 -183.5 -100.5 -256.5s-155.167 -120.167 -264.5 -141.5l-1 -4c86 -10 153.667 -38.833 203 -86.5s74 -106.5 74 -176.5
c0 -52.667 -13.5 -108.667 -40.5 -168s-64.833 -109.5 -113.5 -150.5s-107.334 -72.5 -176.001 -94.5s-145 -33 -229 -33z" />
    <glyph glyph-name="four" unicode="4" 
d="M894 319l-62 -319h-180l62 319h-654l27 140l808 890h199l-172 -888h188l-28 -142h-188zM876 1154l-634 -693h500z" />
    <glyph glyph-name="five" unicode="5" 
d="M490 -20c-132 0 -232.664 29 -301.997 87s-104 140.667 -104 248l186 21c10.667 -139.333 95 -209 253 -209c70.667 0 134.667 16.5 192 49.5s102.333 80.333 135 142s49 121.5 49 179.5c0 68.667 -22.833 123.167 -68.5 163.5s-108.5 60.5 -188.5 60.5
c-48.667 0 -95.167 -7.5 -139.5 -22.5s-91.5 -41.167 -141.5 -78.5h-176l188 728h801l-28 -145h-635l-112 -425c90.667 60 193.667 90 309 90c117.333 0 210.166 -30.167 278.499 -90.5s102.5 -141.5 102.5 -243.5c0 -94 -25.333 -185.833 -76 -275.5
s-121.834 -158.667 -213.501 -207s-194.834 -72.5 -309.501 -72.5z" />
    <glyph glyph-name="six" unicode="6" 
d="M532 -20c-126 0 -221.666 36.998 -286.999 110.998s-98 181.333 -98 322c0 105.333 17.5 222.333 52.5 351s82 238.167 141 328.5s129 159.166 210 206.499s169.5 71 265.5 71c212 0 327.667 -95.667 347 -287l-179 -31c-6.66699 60.667 -27.834 104.5 -63.501 131.5
s-80.5 40.5 -134.5 40.5c-102 0 -190.5 -46.833 -265.5 -140.5s-128.5 -223.167 -160.5 -388.5c44.667 60.667 99.667 106.834 165 138.501s136.333 47.5 213 47.5c110 0 196 -29.5 258 -88.5s93 -139.5 93 -241.5c0 -68.667 -13.667 -139.667 -41 -213
s-65.666 -136.666 -114.999 -189.999s-107.833 -94.666 -175.5 -123.999s-142.834 -44 -225.501 -44zM901.001 519.998c0 70.667 -20.333 125.332 -61 163.999s-98 58 -172 58c-58.667 0 -115.167 -15 -169.5 -45s-96.5 -70.167 -126.5 -120.5s-45 -112.166 -45 -185.499
c0 -81.333 20.667 -146 62 -194s96.333 -72 165 -72c65.333 0 124.333 17.167 177 51.5s94.167 82.833 124.5 145.5s45.5 128.667 45.5 198z" />
    <glyph glyph-name="seven" unicode="7" 
d="M491 0l-187.999 -0.000976562c34.667 175.333 112.167 364.333 232.5 567s283.166 415 488.499 637h-737l28 145h911l-27 -139c-210 -237.333 -372 -454.666 -486 -651.999s-188 -383.333 -222 -558z" />
    <glyph glyph-name="eight" unicode="8" 
d="M505 -20c-130.667 0 -232.167 26.834 -304.5 80.501s-108.5 130.5 -108.5 230.5c0 70 15.667 134.667 47 194s74.333 108.666 129 147.999s114 64 178 74l1 4c-60 14.667 -107.167 44.167 -141.5 88.5s-51.5 98.166 -51.5 161.499c0 72.667 22.333 140.834 67 204.501
s106.5 113.667 185.5 150s167.167 54.5 264.5 54.5c122 0 217.167 -25.5 285.5 -76.5s102.5 -120.167 102.5 -207.5s-30.5 -167 -91.5 -239s-135.833 -116.667 -224.5 -134l-1 -4c70.667 -11.333 126.334 -39.666 167.001 -84.999s61 -102.333 61 -171
c0 -58 -13.333 -117.833 -40 -179.5s-64.334 -114.334 -113.001 -158.001s-107.5 -77.167 -176.5 -100.5s-147.5 -35 -235.5 -35zM970 1068c0 112 -75.001 167.999 -225.001 167.999c-64 0 -119.667 -11.833 -167 -35.5s-82.666 -57.667 -105.999 -102
s-35 -91.166 -35 -140.499c0 -58 18.667 -102.333 56 -133s92.333 -46 165 -46c72 0 132.333 14 181 42s82.667 66.5 102 115.5s29 92.833 29 131.5zM884.999 451c0 63.333 -22 111.334 -66 144.001s-107 49 -189 49c-70 0 -131.833 -14.333 -185.5 -43
s-94.167 -68.5 -121.5 -119.5s-41 -106.167 -41 -165.5c0 -134 83.667 -201 251 -201c78 0 143 14.667 195 44s91.167 72.666 117.5 129.999s39.5 111.333 39.5 162z" />
    <glyph glyph-name="nine" unicode="9" 
d="M468 -20c-110.667 0 -194.503 23.334 -251.503 70.001s-89.833 121.334 -98.5 224.001l178 27c12.667 -117.333 80.334 -176 203.001 -176c100.667 0 189.167 45.667 265.5 137s131.5 220.666 165.5 387.999c-38 -59.333 -92.667 -107.333 -164 -144s-146 -55 -224 -55
c-105.333 0 -188.5 30.667 -249.5 92s-91.5 145.666 -91.5 252.999c0 72 13.5 144.5 40.5 217.5s65.833 136.167 116.5 189.5s111.334 94.5 182.001 123.5s147.667 43.5 231 43.5c250 0 375 -138.333 375 -415c0 -106.667 -16.5 -224.5 -49.5 -353.5
s-80 -240.833 -141 -335.5s-132.667 -166 -215 -214s-173.166 -72 -272.499 -72zM963.997 960.001c0 81.333 -20.168 145.666 -60.501 192.999s-95.833 71 -166.5 71c-66 0 -125.5 -17.333 -178.5 -52s-94.833 -84.167 -125.5 -148.5s-46 -130.166 -46 -197.499
c0 -74 20 -131.333 60 -172s95 -61 165 -61c60 0 118.333 15.833 175 47.5s100.334 73.167 131.001 124.5s46 116.333 46 195z" />
    <glyph glyph-name="colon" unicode=":" 
d="M391 0l58 299h235l-58 -299h-235zM543 783l58 299h235l-58 -299h-235z" />
    <glyph glyph-name="semicolon" unicode=";" 
d="M543 783l58 299h235l-58 -299h-235zM176 -363l298 662h265l-440 -662h-123z" />
    <glyph glyph-name="less" unicode="&#x3c;" 
d="M116 571v205l995 418v-154l-858 -366l858 -367v-153z" />
    <glyph glyph-name="equal" unicode="=" 
d="M116 856v148h995v-148h-995zM116 344v148h995v-148h-995z" />
    <glyph glyph-name="greater" unicode="&#x3e;" 
d="M116 154v153l858 367l-858 366v154l995 -418v-205z" />
    <glyph glyph-name="question" unicode="?" 
d="M595 357l-175 -0.000976562c16 70 47.333 132.5 94 187.5s111.334 107.5 194.001 157.5c99.333 60 170.166 115.333 212.499 166s63.5 108.667 63.5 174c0 58 -22.5 102.167 -67.5 132.5s-107.833 45.5 -188.5 45.5c-89.333 0 -167 -24.167 -233 -72.5
s-112 -114.833 -138 -199.5l-181 12c41.333 129.333 113 230 215 302s223.333 108 364 108c131.333 0 233.5 -25.5 306.5 -76.5s109.5 -122.833 109.5 -215.5c0 -47.333 -9 -96.166 -27 -146.499s-49 -99 -93 -146s-102.333 -91.833 -175 -134.5
c-92 -54.667 -158.833 -103.667 -200.5 -147s-68.5 -92.333 -80.5 -147zM343 -0.000976562l39 201h195l-39 -201h-195z" />
    <glyph glyph-name="at" unicode="@" 
d="M799 104c-78 0 -117.002 35.999 -117.002 107.999c0 17.333 1.66699 33.666 5 48.999l9 38h-6c-32.667 -58 -73.5 -105 -122.5 -141s-99.167 -54 -150.5 -54c-54 0 -95.167 19.833 -123.5 59.5s-42.5 97.167 -42.5 172.5c0 111.333 25.5 229.833 76.5 355.5
s114.833 225.334 191.5 299.001s154.667 110.5 234 110.5c96.667 0 146.667 -57.667 150 -173h5l62 151h116l-198 -507c-40.667 -107.333 -67.167 -181.333 -79.5 -222s-18.5 -72.667 -18.5 -96c0 -32 12 -48 36 -48c46 0 91.833 38.333 137.5 115
s84.834 178.667 117.501 306s49 238.333 49 333c0 128 -26.167 228 -78.5 300s-125.833 108 -220.5 108c-88 0 -172.333 -28 -253 -84s-153.667 -137 -219 -243s-118.166 -231.167 -158.499 -375.5s-60.5 -275.166 -60.5 -392.499c0 -138 28.333 -245.5 85 -322.5
s137.334 -115.5 242.001 -115.5c60.667 0 121.667 11.167 183 33.5s133.666 63.833 216.999 124.5l54 -87c-93.333 -68 -178.5 -116.5 -255.5 -145.5s-154.167 -43.5 -231.5 -43.5c-135.333 0 -239.666 47.333 -312.999 142s-110 224.667 -110 390
c0 130 23.167 276 69.5 438s108.166 302.833 185.499 422.5s166.5 212 267.5 277s208.167 97.5 321.5 97.5c128 0 226.667 -43.833 296 -131.5s104 -209.5 104 -365.5c0 -123.333 -22.333 -259.5 -67 -408.5s-101.5 -265.333 -170.5 -349s-141.833 -125.5 -218.5 -125.5z
M830.998 868.999c0 43.333 -8.49902 75.834 -25.499 97.501s-40.5 32.5 -70.5 32.5c-50.667 0 -102.167 -31.833 -154.5 -95.5s-98 -151.334 -137 -263.001s-58.5 -212.167 -58.5 -301.5c0 -86 25.667 -129 77 -129c34.667 0 70.667 16.5 108 49.5s73.166 80 107.499 141
s68.5 141 102.5 240s51 175.167 51 228.5z" />
    <glyph glyph-name="A" unicode="A" 
d="M929 0l-64 382h-563l-211 -382h-196l772 1349h217l239 -1349h-194zM745 1205l-82.5 -161l-280.5 -513h463l-76 500z" />
    <glyph glyph-name="B" unicode="B" 
d="M529 0h-472l262 1349h412c293.333 0 440 -86 440 -258c0 -58 -13.667 -114.333 -41 -169s-66.5 -100.167 -117.5 -136.5s-110.167 -61.166 -177.5 -74.499c97.333 -11.333 170.5 -40.5 219.5 -87.5s73.5 -106.167 73.5 -177.5c0 -54.667 -12.833 -110.334 -38.5 -167.001
s-65.167 -106.5 -118.5 -149.5s-118 -75.333 -194 -97s-158.667 -32.5 -248 -32.5zM972 1044c0 54 -22.5 92.833 -67.5 116.5s-112.167 35.5 -201.5 35.5h-223l-80 -416h225c198.667 0 312.667 72.667 342 218zM936 446c0 123.333 -104.334 185 -313.001 185h-252l-93 -478
h266c116.667 0 206.334 20.167 269.001 60.5s102 101.5 118 183.5z" />
    <glyph glyph-name="C" unicode="C" 
d="M316 452c0 -211.333 88.666 -317.001 265.999 -317.001c68.667 0 135.334 23.833 200.001 71.5s123.667 117.834 177 210.501l146 -65c-148.667 -248 -333.667 -372 -555 -372c-141.333 0 -249 39.5 -323 118.5s-111 195.167 -111 348.5c0 110 17.333 228.333 52 355
s81.5 231.667 140.5 315s130.5 146.333 214.5 189s179.667 64 287 64c223.333 0 357 -111.667 401 -335l-180 -65c-12 79.333 -40 139.833 -84 181.5s-99.333 62.5 -166 62.5c-72 0 -135.167 -17 -189.5 -51s-101 -85.333 -140 -154s-71.333 -157.5 -97 -266.5
s-38.5 -205.833 -38.5 -290.5z" />
    <glyph glyph-name="D" unicode="D" 
d="M427 0h-370.002l262 1349h311c363.333 0 545 -153 545 -459c0 -105.333 -18 -217 -54 -335s-86.667 -218.5 -152 -301.5s-143.666 -146 -234.999 -189s-193.666 -64.5 -306.999 -64.5zM980.998 865c0 115.333 -31.5 198.834 -94.5 250.501s-158.167 77.5 -285.5 77.5
h-121l-202 -1037h162c85.333 0 160.5 16.167 225.5 48.5s120.5 81.166 166.5 146.499s82.333 147.333 109 246s40 188 40 268z" />
    <glyph glyph-name="E" unicode="E" 
d="M57 0l262 1349h919l-30 -156h-728l-82 -422h668l-30 -154h-668l-90 -461h769l-30 -156h-960z" />
    <glyph glyph-name="F" unicode="F" 
d="M512 1193l-96 -494h676l-31 -158h-676l-105 -541h-191l262 1349h891l-30 -156h-700z" />
    <glyph glyph-name="G" unicode="G" 
d="M530 -20c-132.667 0 -234.832 40.168 -306.499 120.501s-107.5 197.166 -107.5 350.499c0 107.333 17.667 225.166 53 353.499s82 233.833 140 316.5s128 144.834 210 186.501s176.667 62.5 284 62.5c229.333 0 361.666 -110.333 396.999 -331l-182 -56
c-24 154 -105 231 -243 231c-71.333 0 -133.5 -16.5 -186.5 -49.5s-98.5 -82.833 -136.5 -149.5s-70.167 -155.5 -96.5 -266.5s-39.5 -208.833 -39.5 -293.5c0 -213.333 86.667 -320 260 -320c45.333 0 93.5 7 144.5 21s94.5 31.667 130.5 53l65 336h-293l31 160h479
l-111 -572c-170 -102 -334 -153 -492 -153z" />
    <glyph glyph-name="H" unicode="H" 
d="M770 0l121 623h-522l-121 -623h-191l262 1349h191l-110 -566h522l110 566h191l-262 -1349h-191z" />
    <glyph glyph-name="I" unicode="I" 
d="M359 1349h823l-30 -156h-316l-202 -1037h316l-30 -156h-823l30 156h316l202 1037h-316z" />
    <glyph glyph-name="J" unicode="J" 
d="M477 -20c-112.667 0 -197.167 29 -253.5 87s-84.5 149.333 -84.5 274v9l193 31v-19c0 -74.667 15.333 -131.167 46 -169.5s74 -57.5 130 -57.5c139.333 0 227.333 93.667 264 281l151 777h-311l30 156h501l-180 -929c-26 -136.667 -81.5 -244.167 -166.5 -322.5
s-191.5 -117.5 -319.5 -117.5z" />
    <glyph glyph-name="K" unicode="K" 
d="M898 0l-359 641l-200 -172l-91 -469h-191l262 1349h191l-131 -673l703 673h225l-615 -572l430 -777h-224z" />
    <glyph glyph-name="L" unicode="L" 
d="M132 0l262 1349h191l-232 -1193h672l-30 -156h-863z" />
    <glyph glyph-name="M" unicode="M" 
d="M832 0l169 868c16.667 84 38 184.333 64 301l-55 -108l-96 -183l-249 -438h-137l-81 438c-10 48.667 -23.333 145.667 -40 291l-54 -301l-169 -868h-160l262 1349h237l90 -489c8 -38 15.667 -115 23 -231l43 90l72 140l280 490h225l-262 -1349h-162z" />
    <glyph glyph-name="N" unicode="N" 
d="M731 0l-300 1130c-10 -107.333 -21.333 -192 -34 -254l-170 -876h-170l262 1349h222l307 -1138c8 103.333 19.667 194.666 35 273.999l168 864h172l-262 -1349h-230z" />
    <glyph glyph-name="O" unicode="O" 
d="M504 -20c-134.667 0 -235.332 38.833 -301.999 116.5s-100 188.834 -100 333.501c0 106.667 16.5 223.667 49.5 351s78.667 235.166 137 323.499s128.166 154.666 209.499 198.999s174 66.5 278 66.5c132 0 232.333 -36.833 301 -110.5s103 -184.167 103 -331.5
c0 -103.333 -16.333 -218.666 -49 -345.999s-79 -236.5 -139 -327.5s-131.333 -159.5 -214 -205.5s-174 -69 -274 -69zM978.002 913c0 200.667 -77.333 301 -232 301c-90.667 0 -167.834 -33.167 -231.501 -99.5s-114.667 -166.833 -153 -301.5s-57.5 -257 -57.5 -367
c0 -207.333 77 -311 231 -311c66.667 0 125.334 17.333 176.001 52s95.5 89.334 134.5 164.001s70.833 167.167 95.5 277.5s37 205.166 37 284.499z" />
    <glyph glyph-name="P" unicode="P" 
d="M629 514h-281.001l-100 -514h-191l262 1349h460c138.667 0 244.667 -27.167 318 -81.5s110 -131.833 110 -232.5c0 -90.667 -24.833 -177 -74.5 -259s-118.667 -146.167 -207 -192.5s-187.166 -69.5 -296.499 -69.5zM1011 1002
c0 129.333 -94.999 194.002 -284.999 194.002h-246l-103 -531h254c76 0 143.167 14.667 201.5 44s102.666 70.666 132.999 123.999s45.5 109.666 45.5 168.999z" />
    <glyph glyph-name="Q" unicode="Q" 
d="M640 -4c11.333 -84 35.6689 -144.998 73.002 -182.998s89.666 -57 156.999 -57c36.667 0 75.667 4.33301 117 13l-26 -134c-65.333 -14.667 -126 -22 -182 -22c-100.667 0 -178 28.667 -232 86s-88.667 152.333 -104 285c-114 11.333 -199.333 55.333 -256 132
s-85 181.334 -85 314.001c0 106.667 16.5 223.667 49.5 351s78.667 235.166 137 323.499s128.166 154.666 209.499 198.999s174 66.5 278 66.5c132 0 232.333 -36.833 301 -110.5s103 -184.167 103 -331.5c0 -88.667 -13 -190.167 -39 -304.5s-62.667 -215.5 -110 -303.5
s-104 -159.333 -170 -214s-139.667 -91.334 -221 -110.001zM978.003 913.002c0 200.667 -77.333 301 -232 301c-90.667 0 -167.834 -33.167 -231.501 -99.5s-114.667 -166.833 -153 -301.5s-57.5 -257 -57.5 -367c0 -207.333 77 -311 231 -311
c66.667 0 125.334 17.333 176.001 52s95.5 89.334 134.5 164.001s70.833 167.167 95.5 277.5s37 205.166 37 284.499z" />
    <glyph glyph-name="R" unicode="R" 
d="M852 0l-253.999 574.999h-238l-112 -575h-191l262 1349h482c139.333 0 243.166 -25.333 311.499 -76s102.5 -121.667 102.5 -213c0 -69.333 -17.167 -137.666 -51.5 -204.999s-84.5 -123.833 -150.5 -169.5s-141 -75.167 -225 -88.5l284 -597h-220zM1018 1026
c0 113.333 -88.667 170.001 -266 170.001h-272l-91 -470h280c74 0 137.667 13.167 191 39.5s93 63.666 119 111.999s39 97.833 39 148.5z" />
    <glyph glyph-name="S" unicode="S" 
d="M501 -20c-304.667 0 -458.337 119.336 -461.004 358.003l192 37c1.33301 -84.667 27.333 -146.834 78 -186.501s125.667 -59.5 225 -59.5c106 0 190.5 20.5 253.5 61.5s101.833 99.833 116.5 176.5l5 45c0 37.333 -10.167 68.333 -30.5 93s-48.5 45.5 -84.5 62.5
s-106 38.833 -210 65.5c-96.667 26.667 -163.334 49 -200.001 67s-66.167 38 -88.5 60s-39.333 47 -51 75s-17.5 60.333 -17.5 97c0 57.333 12 114.166 36 170.499s59.833 104.833 107.5 145.5s105.834 71.167 174.501 91.5s145.334 30.5 230.001 30.5
c142.667 0 246.334 -25 311.001 -75s100 -133 106 -249l-194 -33c-1.33301 74 -22.333 128 -63 162s-103.667 51 -189 51c-187.333 0 -295.333 -71 -324 -213l-4 -41c0 -31.333 7.83301 -57 23.5 -77s36.834 -36.833 63.501 -50.5s57.667 -25.334 93 -35.001l112 -30.5
c118.667 -32 200.834 -60.667 246.501 -86s81.5 -56.833 107.5 -94.5s39 -85.5 39 -143.5c0 -64 -13.667 -126.5 -41 -187.5s-66.833 -112.667 -118.5 -155s-114.5 -75 -188.5 -98s-159 -34.5 -255 -34.5z" />
    <glyph glyph-name="T" unicode="T" 
d="M836 1193l-232 -1193h-190l232 1193h-443l30 156h1076l-30 -156h-443z" />
    <glyph glyph-name="U" unicode="U" 
d="M496 -20c-134 0 -231.833 25.8311 -293.5 77.498s-92.5 132.834 -92.5 243.501c0 51.333 6.33301 108.333 19 171l170 877h191l-165 -851c-13.333 -68 -20 -124.667 -20 -170c0 -68 16.833 -117.167 50.5 -147.5s90.167 -45.5 169.5 -45.5
c107.333 0 187.833 27.333 241.5 82s94.5 152.667 122.5 294l163 838h190l-167 -859c-34.667 -177.333 -97.667 -306.666 -189 -387.999s-221.333 -122 -390 -122z" />
    <glyph glyph-name="V" unicode="V" 
d="M608 0h-198l-243 1349h201l145 -902c9.33301 -59.333 19.333 -152.333 30 -279l44 93l94 186l493 902h201z" />
    <glyph glyph-name="W" unicode="W" 
d="M913 0h-208.001l-32 432c-3.33301 39.333 -8.33301 147.333 -15 324l-82.5 -191.5l-261.5 -564.5h-208l51 1349h189l-53 -835c-8.66699 -110 -20 -225.333 -34 -346l132.5 307l212.5 456h175l33.5 -425.5c7.66699 -99 12.834 -211.5 15.501 -337.5l102 346l266 835h189z
" />
    <glyph glyph-name="X" unicode="X" 
d="M672 836l432 513h205l-560 -644l339 -705h-205l-263 573l-484 -573h-205l613 705l-310 644h205z" />
    <glyph glyph-name="Y" unicode="Y" 
d="M603 0h-188l114 584l-336 765h205l255 -611l491 611h205l-632 -765z" />
    <glyph glyph-name="Z" unicode="Z" 
d="M1050 0h-1082l28 143l1022 1050h-745l30 156h962l-27 -139l-1023 -1054h865z" />
    <glyph glyph-name="bracketleft" unicode="[" 
d="M222 -425l371 1909h547l-27 -139h-367l-317 -1631h367l-27 -139h-547z" />
    <glyph glyph-name="backslash" unicode="\" 
d="M823 -20l-525 1504h178l529 -1504h-182z" />
    <glyph glyph-name="bracketright" unicode="]" 
d="M82 -425l27 139h367l317 1631h-367l27 139h547l-371 -1909h-547z" />
    <glyph glyph-name="asciicircum" unicode="^" 
d="M921 442l-173 803l-482 -803h-152l554 907h203l204 -907h-154z" />
    <glyph glyph-name="underscore" unicode="_" 
d="M-153 -220l19 96h1238l-19 -96h-1238z" />
    <glyph glyph-name="grave" unicode="`" 
d="M830 1201l-255 230l6 29h197l180 -239l-4 -20h-124z" />
    <glyph glyph-name="a" unicode="a" 
d="M1018 111c18 0 38.001 2.33301 60.001 7l-22 -112c-46.667 -10.667 -94 -16 -142 -16c-58 0 -99.167 12.667 -123.5 38s-36.5 63.333 -36.5 114l5 65h-6c-59.333 -81.333 -122.166 -139.5 -188.499 -174.5s-142.166 -52.5 -227.499 -52.5
c-88.667 0 -154.834 20.667 -198.501 62s-65.5 98.333 -65.5 171c0 27.333 3 57 9 89c45.333 232.667 219.666 350.667 522.999 354l236 4c11.333 54 17.833 88.167 19.5 102.5s2.5 29.5 2.5 45.5c0 56.667 -15.333 97 -46 121s-76.667 36 -138 36
c-77.333 0 -135.833 -13.167 -175.5 -39.5s-69.834 -70.5 -90.501 -132.5l-185 17c36 99.333 93.5 172.833 172.5 220.5s181.5 71.5 307.5 71.5c226.667 0 340 -89 340 -267c0 -30 -3.33301 -62.333 -10 -97l-90 -466c-6 -28.667 -9 -54 -9 -76c0 -28 6 -49.167 18 -63.5
s32.333 -21.5 61 -21.5zM410.001 117c63.333 0 122.669 15.166 178.002 45.499s101.666 71.166 138.999 122.499s61.333 104.666 72 159.999l18 89l-191 -4c-90 -1.33301 -159.833 -13.166 -209.5 -35.499s-87.334 -55.666 -113.001 -99.999s-38.5 -92.166 -38.5 -143.499
c0 -41.333 12.167 -74 36.5 -98s60.5 -36 108.5 -36z" />
    <glyph glyph-name="b" unicode="b" 
d="M589 -20c-162.667 0 -262 61.334 -298 184.001h-2c-5.33301 -29.333 -13 -62.833 -23 -100.5s-16 -58.834 -18 -63.501h-174c3.33301 10 9.83301 37.333 19.5 82l29.5 141l245 1261h180l-82 -423l-34 -157h4c86.667 133.333 211 200 373 200c204 0 306 -114.333 306 -343
c0 -62 -8 -133.667 -24 -215c-36.667 -189.333 -98 -331 -184 -425s-192 -141 -318 -141zM926 736.001c0 80 -15.833 138.166 -47.5 174.499s-80.167 54.5 -145.5 54.5c-84 0 -154 -26.333 -210 -79s-100 -133.167 -132 -241.5s-48 -206.166 -48 -293.499
c0 -82 18 -142.167 54 -180.5s92 -57.5 168 -57.5c80 0 145.5 27.167 196.5 81.5s91.167 137 120.5 248s44 208.833 44 293.5z" />
    <glyph glyph-name="c" unicode="c" 
d="M741 1102c120.667 0 214.667 -28.8359 282 -86.5029s101 -136.5 101 -236.5l-194 -14v6c0 57.333 -17.667 103.333 -53 138s-92.333 52 -171 52c-89.333 0 -163 -23.5 -221 -70.5s-103.167 -122.167 -135.5 -225.5s-48.5 -201 -48.5 -293c0 -87.333 20 -151.333 60 -192
s100 -61 180 -61c72 0 135.167 17.667 189.5 53s94.166 89.333 119.499 162l188 -12c-21.333 -64 -56.833 -122.167 -106.5 -174.5s-110 -93.333 -181 -123s-147.167 -44.5 -228.5 -44.5c-135.333 0 -237.5 33 -306.5 99s-103.5 162.667 -103.5 290
c0 84.667 13.833 174.834 41.5 270.501s69 178.834 124 249.501s121.333 123.834 199 159.501s165.834 53.5 264.501 53.5z" />
    <glyph glyph-name="d" unicode="d" 
d="M791 174c-46 -70 -99.168 -120.836 -159.501 -152.503s-130.833 -47.5 -211.5 -47.5c-105.333 0 -183 27.833 -233 83.5s-75 140.167 -75 253.5c0 64.667 8 138.334 24 221.001c74 377.333 241.333 566 502 566c80.667 0 145.5 -14.333 194.5 -43
s83.5 -75.667 103.5 -141h2l21 120l87 450h180l-245 -1261c-21.333 -119.333 -33.666 -193.666 -36.999 -222.999h-172v4c0 28.667 8 85.334 24 170.001h-5zM300.999 336.997c0 -78 15.498 -134.833 46.498 -170.5s79.833 -53.5 146.5 -53.5
c84.667 0 154.834 26.333 210.501 79s99.834 134.167 132.501 244.5s49 207.5 49 291.5c0 80.667 -18 140.334 -54 179.001s-92.667 58 -170 58c-58 0 -107.667 -13.5 -149 -40.5s-76.833 -69.167 -106.5 -126.5s-54.667 -132.333 -75 -225s-30.5 -171.334 -30.5 -236.001z
" />
    <glyph glyph-name="e" unicode="e" 
d="M315 503c-8.66699 -46 -13 -86.332 -13 -120.999c0 -86 20.833 -152 62.5 -198s100.167 -69 175.5 -69c68 0 130.833 14.667 188.5 44s100.5 70 128.5 122l149 -45c-46 -82.667 -112.167 -146 -198.5 -190s-184.166 -66 -293.499 -66c-129.333 0 -228 33.5 -296 100.5
s-102 163.5 -102 289.5c0 82.667 13.333 172.167 40 268.5s66.667 179.666 120 249.999s117.666 123.5 192.999 159.5s161 54 257 54c257.333 0 386 -126.333 386 -379c0 -60.667 -7 -126 -21 -196l-4 -24h-772zM702 969.001c-88.667 0 -164.5 -29 -227.5 -87
s-106.5 -138.333 -130.5 -241h584l4 72c0 170.667 -76.667 256 -230 256z" />
    <glyph glyph-name="f" unicode="f" 
d="M658 940l-183.004 -940.001h-180l183 940h-262l27 142h262l5 25c26.667 136 77.5 232.833 152.5 290.5s187.833 86.5 338.5 86.5c46.667 0 97.334 -2.16699 152.001 -6.5s96.334 -9.16602 125.001 -14.499l-28 -145c-19.333 3.33301 -59.666 7 -120.999 11
s-106.666 6 -135.999 6c-70 0 -124 -7.66699 -162 -23s-68.5 -40.5 -91.5 -75.5s-41.167 -86.5 -54.5 -154.5h491l-27 -142h-491z" />
    <glyph glyph-name="g" unicode="g" 
d="M428 -424c-112.667 0 -198.334 22.998 -257.001 68.998s-89.334 112 -92.001 198l189 25c1.33301 -50 18.333 -88.5 51 -115.5s79.667 -40.5 141 -40.5c166.667 0 269.667 105 309 315l38 194h-2c-94 -139.333 -222 -209 -384 -209c-104 0 -180.167 26.167 -228.5 78.5
s-72.5 131.5 -72.5 237.5c0 82.667 13.333 179.834 40 291.501s62 202 106 271s97.833 121 161.5 156s138.5 52.5 224.5 52.5c75.333 0 137.333 -17.5 186 -52.5s81.667 -84.833 99 -149.5h3c4.66699 24.667 13 60.167 25 106.5s19.667 72.5 23 78.5h171l-19 -82l-30 -142
l-161 -826c-29.333 -151.333 -86.666 -265.166 -171.999 -341.499s-201.666 -114.5 -348.999 -114.5zM887 696.998c0 84 -18.832 149.666 -56.499 196.999s-90.834 71 -159.501 71c-60 0 -111 -13 -153 -39s-77.667 -66.667 -107 -122s-53.833 -128.833 -73.5 -220.5
s-29.5 -167.834 -29.5 -228.501c0 -73.333 15.5 -126.666 46.5 -159.999s82.167 -50 153.5 -50c53.333 0 103.5 14.333 150.5 43s87.833 69.834 122.5 123.501s61 116.667 79 189s27 137.833 27 196.5z" />
    <glyph glyph-name="h" unicode="h" 
d="M368 1484l181 -0.00195312l-75 -390c-7.33301 -37.333 -23.333 -103 -48 -197h3c44.667 63.333 97.5 113.333 158.5 150s134.5 55 220.5 55c192.667 0 289 -86.333 289 -259c0 -38 -4.33301 -78.667 -13 -122l-140 -721h-181l135 695c7.33301 38.667 11 71.334 11 98.001
c0 58.667 -14.5 101.667 -43.5 129s-74.167 41 -135.5 41c-82.667 0 -156.167 -30.167 -220.5 -90.5s-106.833 -142.166 -127.5 -245.499l-122 -627h-180z" />
    <glyph glyph-name="i" unicode="i" 
d="M668 142h380l-28 -142h-982l28 142h422l155 798h-319l27 142h499zM691 1292l37 192h200l-37 -192h-200z" />
    <glyph glyph-name="j" unicode="j" 
d="M217 -425c-52.667 0 -105.168 4.33301 -157.501 13s-92.833 18.667 -121.5 30l27 140c95.333 -22.667 184 -34 266 -34c84.667 0 154.334 21.833 209.001 65.5s90 105.5 106 185.5l188 965h-407l27 142h587l-215 -1110c-24 -124 -80.333 -221.167 -169 -291.5
s-202 -105.5 -340 -105.5zM781.999 1292l37 192h200l-37 -192h-200z" />
    <glyph glyph-name="k" unicode="k" 
d="M809 0l-269 499l-151 -98l-78 -401h-180l288 1484h180l-180 -927l577 525h211l-529 -465l342 -617h-211z" />
    <glyph glyph-name="l" unicode="l" 
d="M659 142h380l-28 -142h-982l28 142h422l233 1200h-289l27 142h469z" />
    <glyph glyph-name="m" unicode="m" 
d="M426 0l132.998 686.001c14.667 73.333 22 130.333 22 171c0 39.333 -6.66699 66.833 -20 82.5s-34 23.5 -62 23.5c-42 0 -82.333 -31.333 -121 -94s-69 -150 -91 -262l-118 -607h-169l165 851c4.66699 22.667 9.16699 46.5 13.5 71.5l12 71l9.5 57.5
c2.66699 16 4 26.333 4 31h149l-19 -127l-9 -48h2c38 71.333 77.333 121.666 118 150.999s86 44 136 44c58.667 0 99.334 -15.833 122.001 -47.5s34 -79.167 34 -142.5v-6h2c40.667 70.667 82.5 121 125.5 151s92.5 45 148.5 45c58.667 0 101.334 -15.333 128.001 -46
s40 -79.334 40 -146.001c0 -50 -7.33301 -113 -22 -189l-140 -721h-168l133 686c14.667 73.333 22 130.333 22 171c0 39.333 -6.66699 66.833 -20 82.5s-34 23.5 -62 23.5c-43.333 0 -83.5 -28.167 -120.5 -84.5s-66.167 -140.166 -87.5 -251.499l-122 -627h-168z" />
    <glyph glyph-name="n" unicode="n" 
d="M763 0l135 694.998c7.33301 38.667 11 71.334 11 98.001c0 58.667 -14.5 101.667 -43.5 129s-74.167 41 -135.5 41c-82.667 0 -156.167 -30.167 -220.5 -90.5s-106.833 -142.166 -127.5 -245.499l-122 -627h-180l165 851c4.66699 22.667 9.16699 46.5 13.5 71.5l12 71
l9.5 57.5c2.66699 16 4 26.333 4 31h170c0 -4 -2.83301 -26.5 -8.5 -67.5s-12.167 -80.167 -19.5 -117.5h3c45.333 63.333 99 113.333 161 150s137 55 225 55c188.667 0 283 -84.667 283 -254c0 -38 -4.66699 -80.333 -14 -127l-140 -721h-181z" />
    <glyph glyph-name="o" unicode="o" 
d="M500 -20c-125.333 0 -221.334 32.833 -288.001 98.5s-100 161.834 -100 288.501c0 52.667 6 111 18 175c36.667 186 106.167 325.833 208.5 419.5s230.833 140.5 385.5 140.5c132.667 0 231.334 -30.667 296.001 -92s97 -154 97 -278c0 -90 -14 -184.833 -42 -284.5
s-69 -184.834 -123 -255.501s-119.333 -123.667 -196 -159s-162 -53 -256 -53zM927.999 720c0 83.333 -18.1631 145.667 -54.4961 187s-93.833 62 -172.5 62c-88 0 -160.833 -25.667 -218.5 -77s-102.334 -128 -134.001 -230s-47.5 -198.333 -47.5 -289
c0 -173.333 74.333 -260 223 -260c67.333 0 124.666 13.833 171.999 41.5s88.166 70.5 122.499 128.5s61.166 129.833 80.499 215.5s29 159.5 29 221.5z" />
    <glyph glyph-name="p" unicode="p" 
d="M589 -20c-164.667 0 -263.002 61.333 -295.002 184h-5c0 -6.66699 -2.66699 -25.334 -8 -56.001s-39.666 -208.334 -102.999 -533.001h-181l250 1283c18 90.667 30.333 165.334 37 224.001h175c0 -13.333 -3 -41.166 -9 -83.499s-11 -73.833 -15 -94.5h4
c46.667 70 99.167 120.833 157.5 152.5s128.833 47.5 211.5 47.5c205.333 0 308 -112 308 -336c0 -63.333 -8.33301 -137.333 -25 -222c-73.333 -377.333 -240.666 -566 -501.999 -566zM927.998 743c0 72 -14.833 127 -44.5 165s-79.5 57 -149.5 57
c-64.667 0 -119.5 -14.167 -164.5 -42.5s-84 -72 -117 -131s-59.5 -132.333 -79.5 -220s-30 -161.5 -30 -221.5c0 -80.667 18 -140.334 54 -179.001s92.333 -58 169 -58c78 0 142.5 26 193.5 78s91.833 136.333 122.5 253s46 216.334 46 299.001z" />
    <glyph glyph-name="q" unicode="q" 
d="M637 1098c86.667 0 152.834 -15.001 198.501 -45.001s78.5 -76.333 98.5 -139h2c8.66699 43.333 17.667 81.333 27 114s15.333 51 18 55h175c-4.66699 -14.667 -12.334 -46.5 -23.001 -95.5s-103 -519.833 -277 -1412.5h-181c72 366.667 112.667 569 122 607h-2
c-50.667 -73.333 -105.5 -126.333 -164.5 -159s-129.167 -49 -210.5 -49c-105.333 0 -183 28 -233 84s-75 140.333 -75 253c0 64.667 8 138.334 24 221.001c73.333 377.333 240.333 566 501 566zM885 724.999c0 82 -17.833 142.502 -53.5 181.502s-92.167 58.5 -169.5 58.5
c-78 0 -142.667 -26.333 -194 -79s-91.833 -135.334 -121.5 -248.001s-44.5 -211.334 -44.5 -296.001c0 -76.667 15.167 -134 45.5 -172s79.166 -57 146.499 -57c84.667 0 154.834 26.667 210.501 80s99.667 133.333 132 240s48.5 204 48.5 292z" />
    <glyph glyph-name="r" unicode="r" 
d="M1118 918c-71.333 12.667 -140.666 19 -207.999 19c-106.667 0 -201 -40.333 -283 -121s-135 -183.334 -159 -308.001l-99 -508h-180l136 701c16.667 90.667 25 187 25 289l-3 92h171c4 -33.333 6 -76 6 -128c0 -44 -2 -84.667 -6 -122h5
c48.667 75.333 92.167 130.333 130.5 165s81.166 60.834 128.499 78.501s102.666 26.5 165.999 26.5c70.667 0 138.334 -5.66699 203.001 -17z" />
    <glyph glyph-name="s" unicode="s" 
d="M512 -20c-136.667 0 -236.665 21.167 -299.998 63.5s-97.333 110.5 -102 204.5l165 31c2 -58.667 21.5 -100.834 58.5 -126.501s105.167 -38.5 204.5 -38.5c101.333 0 177.666 18.333 228.999 55s77 85.334 77 146.001c0 32.667 -13.833 60 -41.5 82
s-73.167 41.667 -136.5 59l-116 31c-88 24 -149.833 45.833 -185.5 65.5s-63.334 43.667 -83.001 72s-29.5 62.833 -29.5 103.5c0 48 11 96 33 144s53.833 89 95.5 123s92.5 59.833 152.5 77.5s126.333 26.5 199 26.5c117.333 0 206.833 -22.333 268.5 -67
s92.5 -109 92.5 -193l-166 -20v5c0 46.667 -17.333 81.834 -52 105.501s-91 35.5 -169 35.5c-92 0 -161.333 -16 -208 -48s-70 -76.333 -70 -133c0 -30.667 11.833 -55.834 35.5 -75.501s64.167 -36.834 121.5 -51.501c147.333 -38.667 240.333 -66.667 279 -84
s69.667 -37.166 93 -59.499s39.833 -45.166 49.5 -68.499s14.5 -49.666 14.5 -78.999c0 -68.667 -21 -133.834 -63 -195.501s-101.667 -108.834 -179 -141.501s-166.333 -49 -267 -49z" />
    <glyph glyph-name="t" unicode="t" 
d="M268 940l27 142h170l113 282h120l-55 -282h432l-27 -142h-432l-127 -652l-5 -44c0 -38 12.667 -66 38 -84s65 -27 119 -27c88.667 0 189.667 11.333 303 34l-26 -137c-117.333 -30.667 -232 -46 -344 -46c-92.667 0 -162 16.5 -208 49.5s-69 84.833 -69 155.5
c0 30 2.66699 56.667 8 80l131 671h-168z" />
    <glyph glyph-name="u" unicode="u" 
d="M470 1082l-132.997 -686c-9.33301 -48 -14 -89 -14 -123c0 -56 14.167 -95.667 42.5 -119s75.5 -35 141.5 -35c87.333 0 161.666 30 222.999 90s101.666 142 120.999 246l122 627h181l-165 -851c-4.66699 -22.667 -9.16699 -46.5 -13.5 -71.5l-12 -71l-9.5 -57.5
c-2.66699 -16 -4 -26.333 -4 -31h-170c0 7.33301 3.5 33.166 10.5 77.499l17.5 107.5h-3c-55.333 -74.667 -113.833 -127.5 -175.5 -158.5s-131.834 -46.5 -210.501 -46.5c-97.333 0 -169 19.333 -215 58s-69 100.334 -69 185.001c0 40 5 86 15 138l140 721h180z" />
    <glyph glyph-name="v" unicode="v" 
d="M610 0l-212.999 -0.000976562l-223 1082h202l131 -704c6 -45.333 12.333 -106.666 19 -183.999l4 -53l26 53c25.333 53.333 56.666 114 93.999 182l413 706h201z" />
    <glyph glyph-name="w" unicode="w" 
d="M913 0l-203.998 0.00195312l-51 471l-18 202l-66 -139l-272 -534h-203l27 1082h178l-25 -607c-1.33301 -38 -5.5 -96.167 -12.5 -174.5s-12.833 -128.833 -17.5 -151.5l39 86l61 128l217 424h193l47 -425l14 -213c3.33301 17.333 8.66602 38.666 15.999 63.999
s34.666 112.666 81.999 261.999l219 607h176z" />
    <glyph glyph-name="x" unicode="x" 
d="M827 0l-235 444l-409 -444h-194l523 556l-295 526h199l218 -421l380 421h201l-499 -524l312 -558h-201z" />
    <glyph glyph-name="y" unicode="y" 
d="M104 -425c-48 0 -88.332 3.66602 -120.999 10.999l26 135c24 -4 51.667 -6 83 -6c52.667 0 106 19.667 160 59s105.333 102 154 188l27 49l-262 1071h192l140 -642c7.33301 -32.667 17.166 -80.5 29.499 -143.5s18.5 -99.833 18.5 -110.5
c6.66699 14.667 27.667 51.334 63 110.001l462 786h190l-666 -1082c-93.333 -161.333 -177.5 -272.5 -252.5 -333.5s-156.167 -91.5 -243.5 -91.5z" />
    <glyph glyph-name="z" unicode="z" 
d="M42 0l27 137l837 806h-641l27 139h844l-26 -137l-839 -806h719l-27 -139h-921z" />
    <glyph glyph-name="braceleft" unicode="{" 
d="M608 -425c-73.333 0 -132.002 20.5 -176.002 61.5s-66 97.833 -66 170.5c0 25.333 2.33301 49 7 71l69 351l5 50c0 55.333 -20.5 98.666 -61.5 129.999s-98.833 48.666 -173.5 51.999l26 137c88 3.33301 160.167 25.5 216.5 66.5s90.833 95.833 103.5 164.5l69 352
c18.667 92.667 60 166.334 124 221.001s140 82 228 82h265l-27 -139h-213c-62 0 -109 -15.167 -141 -45.5s-54.333 -80.166 -67 -149.499l-68 -346c-12.667 -64.667 -45 -122 -97 -172s-114.333 -83.333 -187 -100v-2c54.667 -14 98.834 -40.5 132.501 -79.5
s50.5 -85.833 50.5 -140.5c0 -20.667 -1.66699 -38.667 -5 -54l-68 -347c-5.33301 -28 -8 -52.667 -8 -74c0 -43.333 11.333 -74.333 34 -93s58.334 -28 107.001 -28h213l-27 -139h-265z" />
    <glyph glyph-name="bar" unicode="|" 
d="M531 -425v1909h166v-1909h-166z" />
    <glyph glyph-name="braceright" unicode="}" 
d="M-21 -425l26.999 138.999h213c60.667 0 107.5 14.833 140.5 44.5s56.167 79.834 69.5 150.501l68 347c12.667 68 45.334 126.833 98.001 176.5s114.334 82.167 185.001 97.5v2c-56 14.667 -100.333 42 -133 82s-49 86 -49 138l5 52l68 346c5.33301 28 8 52.667 8 74
c0 44 -11.667 75.167 -35 93.5s-59.333 27.5 -108 27.5h-213l27 139h265c75.333 0 134.666 -20.333 177.999 -61s65 -97 65 -169c0 -25.333 -2.33301 -49.666 -7 -72.999l-69 -352l-5 -49c0 -54 20 -97 60 -129s98.333 -49.667 175 -53l-26 -137
c-87.333 -3.33301 -159 -25 -215 -65s-91 -95.667 -105 -167l-69 -351c-16.667 -88.667 -57.667 -161.334 -123 -218.001s-142 -85 -230 -85h-265z" />
    <glyph glyph-name="asciitilde" unicode="~" 
d="M423 807c54 0 105.335 -7.66797 154.002 -23.001s95.667 -31.666 141 -48.999c80 -30 142.333 -45 187 -45c87.333 0 174.666 30.667 261.999 92l-29 -149c-49.333 -30 -93.833 -50.833 -133.5 -62.5s-87.167 -17.5 -142.5 -17.5c-46 0 -91.667 7.33301 -137 22
s-90.666 30.667 -135.999 48c-80 30 -149.333 45 -208 45c-44.667 0 -87.334 -6.66699 -128.001 -20s-86.334 -36 -137.001 -68l28 143c84 56 177 84 279 84z" />
    <glyph glyph-name="uni00A0" unicode="&#xa0;" 
 />
    <glyph glyph-name="exclamdown" unicode="&#xa1;" 
d="M567 685h148l-161 -951h-196zM818 1082l-39 -201h-194l39 201h194z" />
    <glyph glyph-name="cent" unicode="&#xa2;" 
d="M582 269c74.667 0 140.167 18.166 196.5 54.499s97.166 90.5 122.499 162.5l180 -12c-32 -94 -89.667 -171.833 -173 -233.5s-179.666 -97.167 -288.999 -106.5l-38 -195h-128l38 195c-112.667 8.66699 -199.167 45 -259.5 109s-90.5 153 -90.5 267
c0 78.667 13.333 160.667 40 246s64.5 159.666 113.5 222.999s107.833 113.5 176.5 150.5s144 58.833 226 65.5l36 184h128l-36 -184c102 -8.66699 181.833 -41 239.5 -97s87.167 -131 88.5 -225l-188 -14c0 66.667 -19.833 116.5 -59.5 149.5s-96.834 49.5 -171.501 49.5
c-62.667 0 -118.667 -12.167 -168 -36.5s-91.833 -60.833 -127.5 -109.5s-63.167 -108.167 -82.5 -178.5s-29 -136.166 -29 -197.499c0 -89.333 21.833 -156.166 65.5 -200.499s106.834 -66.5 189.501 -66.5z" />
    <glyph glyph-name="sterling" unicode="&#xa3;" 
d="M1113 240c-63.333 -160 -157 -240.002 -281 -240.002h-881l30 154c63.333 30 109.5 57.833 138.5 83.5s53.167 57.334 72.5 95.001s34.666 83.834 45.999 138.501l27 141h-186l28 142h186l42 220c25.333 130 80.5 228.5 165.5 295.5s196.167 100.5 333.5 100.5
c102.667 0 184 -20.333 244 -61s94.333 -97 103 -169l-185 -57c-6.66699 42 -27.5 73.667 -62.5 95s-78.5 32 -130.5 32c-81.333 0 -145.666 -19.167 -192.999 -57.5s-79 -99.166 -95 -182.499l-42 -216h408l-28 -142h-408l-27 -139
c-18 -88.667 -43.667 -156.334 -77 -203.001s-79.666 -84 -138.999 -112h600c39.333 0 70.166 8.83301 92.499 26.5s40.5 44.167 54.5 79.5z" />
    <glyph glyph-name="currency" unicode="&#xa4;" 
d="M337 936l-81 100l124 103l80 -101c85.333 54.667 175.333 82 270 82c92 0 170.333 -26.667 235 -80l116 97l84 -105l-115 -96c26 -52 39 -109 39 -171c0 -58 -12 -116 -36 -174s-58.333 -111 -103 -159l81 -100l-123 -105l-81 101c-86 -52 -174.667 -78 -266 -78
c-94.667 0 -173.667 26.667 -237 80l-125 -105l-82 105l122 102c-24.667 51.333 -37 107 -37 167c0 58.667 11.5 117 34.5 175s56.5 112 100.5 162zM359 633c0 -65.333 21.999 -119.5 65.999 -162.5s99.333 -64.5 166 -64.5c54.667 0 108.334 15.167 161.001 45.5
s95.5 71.5 128.5 123.5s49.5 106.667 49.5 164c0 66 -21.833 120.5 -65.5 163.5s-98.5 64.5 -164.5 64.5c-55.333 0 -108.833 -14.833 -160.5 -44.5s-94.667 -70.667 -129 -123s-51.5 -107.833 -51.5 -166.5z" />
    <glyph glyph-name="yen" unicode="&#xa5;" 
d="M791 679h321l-28 -142h-383l-26 -137h383l-28 -144h-383l-50 -256h-178l50 256h-381l28 144h381l28 137h-383l28 142h320l-281 670h199l241 -617l485 617h199z" />
    <glyph glyph-name="brokenbar" unicode="&#xa6;" 
d="M531 676v778h166v-778h-166zM531 -455v779h166v-779h-166z" />
    <glyph glyph-name="section" unicode="&#xa7;" 
d="M815 1484c115.333 0 204.332 -22.334 266.999 -67.001s94.667 -109 96 -193l-165 -20v5c0 50 -19 88.333 -57 115s-92.667 40 -164 40c-90.667 0 -161.334 -17.833 -212.001 -53.5s-76 -80.5 -76 -134.5c0 -36 18.333 -67.5 55 -94.5s106.667 -53.167 210 -78.5
c87.333 -22 152.5 -44.667 195.5 -68s76.5 -51 100.5 -83s36 -70 36 -114c0 -46 -11.667 -92.333 -35 -139s-56.5 -86.5 -99.5 -119.5s-90.5 -55.167 -142.5 -66.5c56 -26.667 97.833 -56.834 125.5 -90.501s41.5 -74.167 41.5 -121.5c0 -48 -11.667 -96 -35 -144
s-57.166 -89.167 -101.499 -123.5s-97.833 -60.5 -160.5 -78.5s-133 -27 -211 -27c-138 0 -239.333 21.833 -304 65.5s-100 112.5 -106 206.5l167 31c2 -64 24 -110.5 66 -139.5s108.667 -43.5 200 -43.5c97.333 0 174.833 19.833 232.5 59.5s86.5 90.834 86.5 153.501
c0 30.667 -9.33301 57 -28 79s-45.667 41.167 -81 57.5s-98.333 36.5 -189 60.5c-206.667 47.333 -310 134.333 -310 261c0 70.667 26.5 135.834 79.5 195.501s121.5 100.834 205.5 123.501c-49.333 17.333 -88.666 44.166 -117.999 80.499s-44 78.5 -44 126.5
c0 60.667 19 118 57 172s91.833 95.333 161.5 124s155.167 43 256.5 43zM936.999 691.999c0 40.667 -20.332 76 -60.999 106s-112.334 57.333 -215.001 82c-53.333 -2.66699 -101.5 -14.334 -144.5 -35.001s-76.167 -48.667 -99.5 -84s-35 -70.666 -35 -105.999
c0 -25.333 8.16699 -48.5 24.5 -69.5s41 -39.667 74 -56s87.167 -34.5 162.5 -54.5c57.333 1.33301 108 11 152 29s78.5 43.833 103.5 77.5s37.833 70.5 38.5 110.5z" />
    <glyph glyph-name="dieresis" unicode="&#xa8;" 
d="M861 1219l36 184h163l-36 -184h-163zM467 1219l36 184h165l-36 -184h-165z" />
    <glyph glyph-name="copyright" unicode="&#xa9;" 
d="M398 763c0 -102 19.665 -181.833 58.998 -239.5s94.333 -86.5 165 -86.5c43.333 0 81 12.333 113 37s59.667 64.334 83 119.001l115 -35c-34.667 -78.667 -77.5 -135.834 -128.5 -171.501s-111.833 -53.5 -182.5 -53.5c-112 0 -198.833 37.833 -260.5 113.5
s-92.5 181.167 -92.5 316.5c0 134.667 29.667 239 89 313s145 111 257 111c144.667 0 245.667 -69.667 303 -209l-114 -33c-17.333 44.667 -42.166 78.667 -74.499 102s-69.833 35 -112.5 35c-71.333 0 -125.666 -26.833 -162.999 -80.5s-56 -133.167 -56 -238.5zM1197 761
c0 -151.333 -23.6621 -281.502 -70.9951 -390.502s-115 -191.667 -203 -248s-191 -84.5 -309 -84.5s-220.833 28.5 -308.5 85.5s-155.334 139.833 -203.001 248.5s-71.5 238.334 -71.5 389.001s23.667 280.334 71 389.001s115.166 191.5 203.499 248.5
s191.166 85.5 308.499 85.5s220.166 -28.333 308.499 -85s156.166 -139.167 203.499 -247.5s71 -238.5 71 -390.5zM1105 760.998c0 200.667 -43.333 355.498 -130 464.498s-207 163.5 -361 163.5c-100.667 0 -187.5 -24.167 -260.5 -72.5s-129.167 -119.666 -168.5 -213.999
s-59 -208.166 -59 -341.499c0 -199.333 42.5 -354 127.5 -464s205.167 -165 360.5 -165s276 54.667 362 164s129 264.333 129 465z" />
    <glyph glyph-name="ordfeminine" unicode="&#xaa;" 
d="M881 1212c0 86 -50 129 -150 129c-56 0 -101.667 -11.333 -137 -34s-61.666 -59.667 -78.999 -111l-147 10c25.333 69.333 71.333 124.333 138 165s148.667 61 246 61c88.667 0 156.5 -17 203.5 -51s70.5 -84.333 70.5 -151c0 -23.333 -2.33301 -45 -7 -65l-56 -291
c-4 -20.667 -6 -39 -6 -55c0 -42 19 -63 57 -63c16 0 33 2.66699 51 8l-19 -94c-34.667 -8.66699 -69.334 -13 -104.001 -13c-88.667 0 -133 39.333 -133 118l4 42h-4c-83.333 -110.667 -191 -166 -323 -166c-70.667 0 -125.167 14.833 -163.5 44.5s-57.5 71.5 -57.5 125.5
c0 14 1.66699 30.333 5 49c32 158 167 238.667 405 242l192 4c9.33301 50 14 82 14 96zM418 860c0 -30 10 -55.5 30 -76.5s52.667 -31.5 98 -31.5c46 0 90.333 11.333 133 34s78.667 52.167 108 88.5s47.333 72.5 54 108.5l10 51l-155 -4
c-98 -2 -168.833 -17.333 -212.5 -46s-65.5 -70 -65.5 -124z" />
    <glyph glyph-name="guillemotleft" unicode="&#xab;" 
d="M862 141l-267 365l13 63l410 371h178l-6 -31l-411 -372l269 -367l-6 -29h-180zM385 141l-265 365l13 63l408 371h177l-6 -31l-408 -372l266 -367l-6 -29h-179z" />
    <glyph glyph-name="logicalnot" unicode="&#xac;" 
d="M966 180v428h-850v146h995v-574h-145z" />
    <glyph glyph-name="uni00AD" unicode="&#xad;" 
d="M319 464l31 160h560l-31 -160h-560z" />
    <glyph glyph-name="registered" unicode="&#xae;" 
d="M1197 761c0 -151.333 -23.6621 -281.502 -70.9951 -390.502s-115 -191.667 -203 -248s-191 -84.5 -309 -84.5s-220.833 28.5 -308.5 85.5s-155.334 139.833 -203.001 248.5s-71.5 238.334 -71.5 389.001s23.667 280.334 71 389.001s115.166 191.5 203.499 248.5
s191.166 85.5 308.499 85.5s220.166 -28.333 308.499 -85s156.166 -139.167 203.499 -247.5s71 -238.5 71 -390.5zM1105 760.998c0 200.667 -43.333 355.498 -130 464.498s-207 163.5 -361 163.5c-100.667 0 -187.5 -24.167 -260.5 -72.5s-129.167 -119.666 -168.5 -213.999
s-59 -208.166 -59 -341.499c0 -199.333 42.5 -354 127.5 -464s205.167 -165 360.5 -165s276 54.667 362 164s129 264.333 129 465zM815.005 342.996l-198.999 336h-161v-336h-127v831h307c94.667 0 167.167 -21 217.5 -63s75.5 -100 75.5 -174
c0 -68 -17.333 -122.5 -52 -163.5s-80.334 -67.833 -137.001 -80.5l221 -350h-145zM801.006 934.996c0 46 -15.833 81 -47.5 105s-74.5 36 -128.5 36h-170v-301h182c53.333 0 94 14.167 122 42.5s42 67.5 42 117.5z" />
    <glyph glyph-name="overscore" unicode="&#xaf;" 
d="M186 1522l19 96h1238l-19 -96h-1238z" />
    <glyph glyph-name="degree" unicode="&#xb0;" 
d="M901 1085c0 -79.333 -28.167 -146.668 -84.5 -202.001s-123.833 -83 -202.5 -83s-146.167 28 -202.5 84s-84.5 123 -84.5 201s27.833 145 83.5 201s123.5 84 203.5 84s147.833 -27.667 203.5 -83s83.5 -122.666 83.5 -201.999zM792 1085
c0 50.667 -17.167 93.3311 -51.5 127.998s-76.5 52 -126.5 52s-92.167 -17.667 -126.5 -53s-51.5 -77.666 -51.5 -126.999s17.5 -91.666 52.5 -126.999s76.833 -53 125.5 -53c49.333 0 91.333 17.5 126 52.5s52 77.5 52 127.5z" />
    <glyph glyph-name="plusminus" unicode="&#xb1;" 
d="M687 680v-395h-147v395h-424v145h424v394h147v-394h424v-145h-424zM116 0v145h995v-145h-995z" />
    <glyph glyph-name="twosuperior" unicode="&#xb2;" 
d="M318 563l17.999 102.998c29.333 46 69.5 90.333 120.5 133s117.5 89 199.5 139c83.333 50.667 143.5 97.167 180.5 139.5s55.5 87.5 55.5 135.5c0 68 -40.667 102 -122 102c-45.333 0 -85.166 -12.167 -119.499 -36.5s-58.5 -59.166 -72.5 -104.499l-131 8
c23.333 73.333 66.5 131.5 129.5 174.5s136.167 64.5 219.5 64.5c76.667 0 135.167 -16 175.5 -48s60.5 -77.333 60.5 -136c0 -64 -20.833 -122.5 -62.5 -175.5s-104.167 -105.167 -187.5 -156.5c-104 -65.333 -175 -112.666 -213 -141.999s-67.667 -60.333 -89 -93h459
l-19 -107h-602z" />
    <glyph glyph-name="threesuperior" unicode="&#xb3;" 
d="M626 551c-182.667 0 -273.997 70.667 -273.997 212v15l139 13v-5l-1 -9c0 -81.333 52 -122 156 -122c62 0 109.5 17 142.5 51s49.5 76.667 49.5 128c0 70.667 -55 106 -165 106h-61l21 109h57c62 0 111.167 15.667 147.5 47s54.5 71.666 54.5 120.999
c0 65.333 -41 98 -123 98c-45.333 0 -84.333 -11.667 -117 -35s-55.334 -56.666 -68.001 -99.999l-132 12c22.667 72 64 128.167 124 168.5s132.333 60.5 217 60.5c75.333 0 134.166 -15.167 176.499 -45.5s63.5 -73.166 63.5 -128.499
c0 -58.667 -19.167 -110.834 -57.5 -156.501s-92.5 -76.167 -162.5 -91.5v-2c57.333 -6 98.666 -23.667 123.999 -53s38 -64.333 38 -105c0 -50 -14 -98 -42 -144s-67.833 -81.5 -119.5 -106.5s-114.167 -37.5 -187.5 -37.5z" />
    <glyph glyph-name="acute" unicode="&#xb4;" 
d="M530 1201l4 20l274 239h197l-6 -29l-345 -230h-124z" />
    <glyph glyph-name="mu1" unicode="&#xb5;" 
d="M811 0c0 2.66699 0.501953 7.33301 1.50195 14s4.33301 30.667 10 72s11.5 79 17.5 113h-4c-99.333 -146 -225 -219 -377 -219c-54.667 0 -101.167 10.667 -139.5 32s-64.5 51.333 -78.5 90h-4l-20 -122l-72 -373h-182l286 1475h182l-125 -644
c-8 -46.667 -12 -82.334 -12 -107.001c0 -140 71.667 -210 215 -210c87.333 0 166.666 32.333 237.999 97s116.333 147 135 247l120 617h181l-165 -849l-13 -72c-4.66699 -25.333 -8.83398 -49.166 -12.501 -71.499l-9.5 -58c-2.66699 -16.333 -4 -26.833 -4 -31.5h-168z
" />
    <glyph glyph-name="paragraph" unicode="&#xb6;" 
d="M1085 1227l-302 -1551h-132l302 1551h-197l-302 -1551h-133l186 958c-97.333 0 -172 23.167 -224 69.5s-78 111.166 -78 194.499c0 80.667 19 156.834 57 228.501s91 126.667 159 165s145.667 57.5 233 57.5h583l-23 -122h-129z" />
    <glyph glyph-name="middot.001" unicode="&#xb7;" 
d="M473 420l58 299h235l-58 -299h-235z" />
    <glyph glyph-name="cedilla" unicode="&#xb8;" 
d="M18 -444c-38 0 -68.001 1.33105 -90.001 3.99805l20 98c32 -4 60 -6 84 -6c97.333 0 152 28.667 164 86l2 18c0 42.667 -39.667 64 -119 64c-28.667 0 -47.667 -0.666992 -57 -2l100 182h107l-58 -100c54 -1.33301 94.333 -12.666 121 -33.999s40 -50.666 40 -87.999
c0 -39.333 -11.167 -77 -33.5 -113s-56.666 -63.167 -102.999 -81.5s-105.5 -27.5 -177.5 -27.5z" />
    <glyph glyph-name="onesuperior" unicode="&#xb9;" 
d="M295 563l21.001 107h265l119 610c-22.667 -32.667 -62.334 -60 -119.001 -82s-115 -33 -175 -33l22 109c64 0 123.333 11.667 178 35s97.667 57 129 101h121l-144 -740h236l-21 -107h-632z" />
    <glyph glyph-name="ordmasculine" unicode="&#xba;" 
d="M633 651c-102.667 0 -181.499 25.668 -236.499 77.001s-82.5 123 -82.5 215c0 85.333 19.5 167.166 58.5 245.499s94.667 138.5 167 180.5s155.166 63 248.499 63c105.333 0 185.5 -24 240.5 -72s82.5 -118.333 82.5 -211c0 -64 -11.333 -128 -34 -192
s-55 -118.833 -97 -164.5s-92 -80.667 -150 -105s-123.667 -36.5 -197 -36.5zM962.001 1144c0 122 -63.332 182.999 -189.999 182.999c-64.667 0 -119.834 -15.833 -165.501 -47.5s-80.5 -79.5 -104.5 -143.5s-36 -127.667 -36 -191c0 -126 61.667 -189 185 -189
c50.667 0 95.667 9.33301 135 28s71.333 45.334 96 80.001s44.167 79 58.5 133s21.5 103 21.5 147z" />
    <glyph glyph-name="guillemotright" unicode="&#xbb;" 
d="M684 141h-178l6 29l409 367l-263 372l6 31h176l266 -371l-13 -63zM209 141h-180l6 29l409 367l-263 372l6 31h178l263 -371l-13 -63z" />
    <glyph glyph-name="onequarter" unicode="&#xbc;" 
d="M72 589l21 107h135l100 513c-18.667 -26.667 -47 -49.167 -85 -67.5s-72.667 -27.5 -104 -27.5l23 119c34 0 70.333 10.667 109 32s70 49.333 94 84h121l-127 -653h116l-21 -107h-382zM217 0h-118l965 1349h115zM1033 162l-31 -161h-127l31 161h-375l20 99l458 502h141
l-97 -500h122l-20 -101h-122zM999 635l-32 -37l-306 -335h265z" />
    <glyph glyph-name="onehalf" unicode="&#xbd;" 
d="M62 589l21 107h135l100 513c-18.667 -26.667 -47 -49.167 -85 -67.5s-72.667 -27.5 -104 -27.5l23 119c34 0 70.333 10.667 109 32s70 49.333 94 84h121l-127 -653h116l-21 -107h-382zM201 0h-118l965 1349h115zM573 1l19 97.002c26 41.333 60.5 80.833 103.5 118.5
s99.167 79.5 168.5 125.5c68 44.667 117.833 85.334 149.5 122.001s47.5 78.667 47.5 126c0 55.333 -30.667 83 -92 83c-40.667 0 -72.834 -10.333 -96.501 -31s-42.167 -51.334 -55.5 -92.001l-129 5c22 68.667 59.833 122.167 113.5 160.5s117.834 57.5 192.501 57.5
c136.667 0 205 -53.667 205 -161c0 -59.333 -18.833 -114 -56.5 -164s-90.5 -97 -158.5 -141c-84 -54.667 -142.167 -94.834 -174.5 -120.501s-56.833 -51.834 -73.5 -78.501h380l-21 -107h-522z" />
    <glyph glyph-name="threequarters" unicode="&#xbe;" 
d="M275 571c-69.333 0 -122.832 17.668 -160.499 53.001s-56.5 85 -56.5 149v10l139 13v-11c0 -36 8.83301 -63.333 26.5 -82s41.5 -28 71.5 -28c45.333 0 81.333 14.5 108 43.5s40 66.5 40 112.5c0 59.333 -43 89 -129 89h-41l21 109h37
c35.333 0 64.666 5.83301 87.999 17.5s41 30.5 53 56.5s18 52 18 78c0 49.333 -26 74 -78 74c-30 0 -58 -10.5 -84 -31.5s-44.667 -50.5 -56 -88.5l-133 12c20.667 64.667 57.167 116.5 109.5 155.5s113.833 58.5 184.5 58.5c62 0 110.167 -14.167 144.5 -42.5
s51.5 -66.833 51.5 -115.5c0 -106.667 -58 -180.334 -174 -221.001l-1 -2c84 -19.333 126 -66.666 126 -141.999c0 -12.667 -1.66699 -27.334 -5 -44.001c-12.667 -67.333 -46 -121.333 -100 -162s-120.667 -61 -200 -61zM242.001 0.000976562h-118l965 1349h115z
M1033 162.001l-31 -161h-127l31 161h-375l20 99l458 502h141l-97 -500h122l-20 -101h-122zM999.001 635.001l-32 -37l-306 -335h265z" />
    <glyph glyph-name="questiondown" unicode="&#xbf;" 
d="M631 724l174.999 0.000976562c-16 -70 -47.333 -132.5 -94 -187.5s-111.334 -107.5 -194.001 -157.5c-99.333 -60 -170.166 -115.333 -212.499 -166s-63.5 -108.334 -63.5 -173.001c0 -58.667 22.5 -103.167 67.5 -133.5s107.833 -45.5 188.5 -45.5
c89.333 0 166.833 23.833 232.5 71.5s111.834 114.5 138.501 200.5l182 -12c-42 -130 -114.333 -230.833 -217 -302.5s-223.667 -107.5 -363 -107.5c-131.333 0 -233.5 25.5 -306.5 76.5s-109.5 122.833 -109.5 215.5c0 47.333 9 96 27 146s48.833 98.333 92.5 145
s102.167 92 175.5 136c92 54.667 158.833 103.667 200.5 147s68.5 92.333 80.5 147zM882.999 1081l-39 -201h-195l39 201h195z" />
    <glyph glyph-name="Agrave" unicode="&#xc0;" 
d="M929 0l-64 382h-563l-211 -382h-196l772 1349h217l239 -1349h-194zM745 1205l-82.5 -161l-280.5 -513h463l-76 500zM784 1444l-255 230l6 29h197l180 -239l-4 -20h-124z" />
    <glyph glyph-name="Aacute" unicode="&#xc1;" 
d="M929 0l-64 382h-563l-211 -382h-196l772 1349h217l239 -1349h-194zM745 1205l-82.5 -161l-280.5 -513h463l-76 500zM670 1445l4 20l274 239h197l-6 -29l-345 -230h-124z" />
    <glyph glyph-name="Acircumflex" unicode="&#xc2;" 
d="M929 0l-64 382h-563l-211 -382h-196l772 1349h217l239 -1349h-194zM745 1205l-82.5 -161l-280.5 -513h463l-76 500zM1124 1465l-4 -20h-105l-192 138h-2l-259 -138h-104l4 20l301 239h164z" />
    <glyph glyph-name="Atilde" unicode="&#xc3;" 
d="M929 0l-64 382h-563l-211 -382h-196l772 1349h217l239 -1349h-194zM745 1205l-82.5 -161l-280.5 -513h463l-76 500zM945 1445c-28 0 -54.667 6.16699 -80 18.5s-50 26 -74 41s-47.5 28.667 -70.5 41s-46.167 18.5 -69.5 18.5c-24.667 0 -45 -7.83301 -61 -23.5
s-32.333 -47.5 -49 -95.5h-111c28 91.333 62.5 155.5 103.5 192.5s90.5 55.5 148.5 55.5c29.333 0 56.833 -6.16699 82.5 -18.5s50.334 -26 74.001 -41s46.667 -28.667 69 -41s44.5 -18.5 66.5 -18.5c26.667 0 48.334 9.16699 65.001 27.5s31.667 48.833 45 91.5h112
c-20.667 -64.667 -41.834 -113.167 -63.501 -145.5s-47.834 -57.5 -78.501 -75.5s-67 -27 -109 -27z" />
    <glyph glyph-name="Adieresis" unicode="&#xc4;" 
d="M929 0l-64 382h-563l-211 -382h-196l772 1349h217l239 -1349h-194zM745 1205l-82.5 -161l-280.5 -513h463l-76 500zM905 1445l36 184h163l-36 -184h-163zM511 1445l36 184h165l-36 -184h-165z" />
    <glyph glyph-name="Aring" unicode="&#xc5;" 
d="M929 0l-64 382h-563l-211 -382h-196l772 1349h217l239 -1349h-194zM745 1205l-82.5 -161l-280.5 -513h463l-76 500zM752 1233c-64 0 -114.498 14.501 -151.498 43.501s-55.5 68.5 -55.5 118.5c0 39.333 11.667 78 35 116s57.166 67.667 101.499 89s93.833 32 148.5 32
c63.333 0 113.666 -14 150.999 -42s56 -67.667 56 -119c0 -42 -12.333 -81.833 -37 -119.5s-58.667 -66.834 -102 -87.501s-92 -31 -146 -31zM913.002 1447c0 21.333 -9.66699 38.168 -29 50.501s-45 18.5 -77 18.5c-41.333 0 -74.833 -9.33301 -100.5 -28
s-38.5 -41.334 -38.5 -68.001c0 -22 9.33301 -39.333 28 -52s45 -19 79 -19c42 0 75.5 9.66699 100.5 29s37.5 42.333 37.5 69z" />
    <glyph glyph-name="AE" unicode="&#xc6;" 
d="M621 412h-335l-222 -412h-168l748 1349h667l-29 -152h-337l-84 -430h327l-29 -150h-327l-90 -465h378l-30 -152h-549zM775 1202h-73l-119 -240l-217 -401h284z" />
    <glyph glyph-name="Ccedilla" unicode="&#xc7;" 
d="M316 452c0 -211.333 88.666 -317.001 265.999 -317.001c68.667 0 135.334 23.833 200.001 71.5s123.667 117.834 177 210.501l146 -65c-148.667 -248 -333.667 -372 -555 -372c-141.333 0 -249 39.5 -323 118.5s-111 195.167 -111 348.5c0 110 17.333 228.333 52 355
s81.5 231.667 140.5 315s130.5 146.333 214.5 189s179.667 64 287 64c223.333 0 357 -111.667 401 -335l-180 -65c-12 79.333 -40 139.833 -84 181.5s-99.333 62.5 -166 62.5c-72 0 -135.167 -17 -189.5 -51s-101 -85.333 -140 -154s-71.333 -157.5 -97 -266.5
s-38.5 -205.833 -38.5 -290.5zM371.999 -444.001c-38 0 -68.001 1.33105 -90.001 3.99805l20 98c32 -4 60 -6 84 -6c97.333 0 152 28.667 164 86l2 18c0 42.667 -39.667 64 -119 64c-28.667 0 -47.667 -0.666992 -57 -2l100 182h107l-58 -100
c54 -1.33301 94.333 -12.666 121 -33.999s40 -50.666 40 -87.999c0 -39.333 -11.167 -77 -33.5 -113s-56.666 -63.167 -102.999 -81.5s-105.5 -27.5 -177.5 -27.5z" />
    <glyph glyph-name="Egrave" unicode="&#xc8;" 
d="M57 0l262 1349h919l-30 -156h-728l-82 -422h668l-30 -154h-668l-90 -461h769l-30 -156h-960zM806 1445l-255 230l6 29h197l180 -239l-4 -20h-124z" />
    <glyph glyph-name="Eacute" unicode="&#xc9;" 
d="M57 0l262 1349h919l-30 -156h-728l-82 -422h668l-30 -154h-668l-90 -461h769l-30 -156h-960zM668 1445l4 20l274 239h197l-6 -29l-345 -230h-124z" />
    <glyph glyph-name="Ecircumflex" unicode="&#xca;" 
d="M57 0l262 1349h919l-30 -156h-728l-82 -422h668l-30 -154h-668l-90 -461h769l-30 -156h-960zM1124 1465l-4 -20h-105l-192 138h-2l-259 -138h-104l4 20l301 239h164z" />
    <glyph glyph-name="Edieresis" unicode="&#xcb;" 
d="M57 0l262 1349h919l-30 -156h-728l-82 -422h668l-30 -154h-668l-90 -461h769l-30 -156h-960zM925 1445l36 184h163l-36 -184h-163zM531 1445l36 184h165l-36 -184h-165z" />
    <glyph glyph-name="Igrave" unicode="&#xcc;" 
d="M359 1349h823l-30 -156h-316l-202 -1037h316l-30 -156h-823l30 156h316l202 1037h-316zM796 1445l-255 230l6 29h197l180 -239l-4 -20h-124z" />
    <glyph glyph-name="Iacute" unicode="&#xcd;" 
d="M359 1349h823l-30 -156h-316l-202 -1037h316l-30 -156h-823l30 156h316l202 1037h-316zM680 1445l4 20l274 239h197l-6 -29l-345 -230h-124z" />
    <glyph glyph-name="Icircumflex" unicode="&#xce;" 
d="M359 1349h823l-30 -156h-316l-202 -1037h316l-30 -156h-823l30 156h316l202 1037h-316zM1124 1465l-4 -20h-105l-192 138h-2l-259 -138h-104l4 20l301 239h164z" />
    <glyph glyph-name="Idieresis" unicode="&#xcf;" 
d="M359 1349h823l-30 -156h-316l-202 -1037h316l-30 -156h-823l30 156h316l202 1037h-316zM905 1445l36 184h163l-36 -184h-163zM511 1445l36 184h165l-36 -184h-165z" />
    <glyph glyph-name="Eth" unicode="&#xd0;" 
d="M427 0h-370.002l116 597h-135l29 149h135l117 603h311c363.333 0 545 -153 545 -459c0 -105.333 -18 -217 -54 -335s-86.667 -218.5 -152 -301.5s-143.666 -146 -234.999 -189s-193.666 -64.5 -306.999 -64.5zM652.998 597l-289 0.000976562l-86 -441h162
c85.333 0 160.5 16.167 225.5 48.5s120.5 81.166 166.5 146.499s82.333 147.333 109 246s40 188 40 268c0 115.333 -31.5 198.833 -94.5 250.5s-158.167 77.5 -285.5 77.5h-121l-87 -447h289z" />
    <glyph glyph-name="Ntilde" unicode="&#xd1;" 
d="M731 0l-300 1130c-10 -107.333 -21.333 -192 -34 -254l-170 -876h-170l262 1349h222l307 -1138c8 103.333 19.667 194.666 35 273.999l168 864h172l-262 -1349h-230zM946 1446c-28 0 -54.667 6.16699 -80 18.5s-50 26 -74 41s-47.5 28.667 -70.5 41
s-46.167 18.5 -69.5 18.5c-24.667 0 -45 -7.83301 -61 -23.5s-32.333 -47.5 -49 -95.5h-111c28 91.333 62.5 155.5 103.5 192.5s90.5 55.5 148.5 55.5c29.333 0 56.833 -6.16699 82.5 -18.5s50.334 -26 74.001 -41s46.667 -28.667 69 -41s44.5 -18.5 66.5 -18.5
c26.667 0 48.334 9.16699 65.001 27.5s31.667 48.833 45 91.5h112c-20.667 -64.667 -41.834 -113.167 -63.501 -145.5s-47.834 -57.5 -78.501 -75.5s-67 -27 -109 -27z" />
    <glyph glyph-name="Ograve" unicode="&#xd2;" 
d="M504 -20c-134.667 0 -235.332 38.833 -301.999 116.5s-100 188.834 -100 333.501c0 106.667 16.5 223.667 49.5 351s78.667 235.166 137 323.499s128.166 154.666 209.499 198.999s174 66.5 278 66.5c132 0 232.333 -36.833 301 -110.5s103 -184.167 103 -331.5
c0 -103.333 -16.333 -218.666 -49 -345.999s-79 -236.5 -139 -327.5s-131.333 -159.5 -214 -205.5s-174 -69 -274 -69zM978.002 913c0 200.667 -77.333 301 -232 301c-90.667 0 -167.834 -33.167 -231.501 -99.5s-114.667 -166.833 -153 -301.5s-57.5 -257 -57.5 -367
c0 -207.333 77 -311 231 -311c66.667 0 125.334 17.333 176.001 52s95.5 89.334 134.5 164.001s70.833 167.167 95.5 277.5s37 205.166 37 284.499zM791.002 1445l-255 230l6 29h197l180 -239l-4 -20h-124z" />
    <glyph glyph-name="Oacute" unicode="&#xd3;" 
d="M504 -20c-134.667 0 -235.332 38.833 -301.999 116.5s-100 188.834 -100 333.501c0 106.667 16.5 223.667 49.5 351s78.667 235.166 137 323.499s128.166 154.666 209.499 198.999s174 66.5 278 66.5c132 0 232.333 -36.833 301 -110.5s103 -184.167 103 -331.5
c0 -103.333 -16.333 -218.666 -49 -345.999s-79 -236.5 -139 -327.5s-131.333 -159.5 -214 -205.5s-174 -69 -274 -69zM978.002 913c0 200.667 -77.333 301 -232 301c-90.667 0 -167.834 -33.167 -231.501 -99.5s-114.667 -166.833 -153 -301.5s-57.5 -257 -57.5 -367
c0 -207.333 77 -311 231 -311c66.667 0 125.334 17.333 176.001 52s95.5 89.334 134.5 164.001s70.833 167.167 95.5 277.5s37 205.166 37 284.499zM675.002 1445l4 20l274 239h197l-6 -29l-345 -230h-124z" />
    <glyph glyph-name="Ocircumflex" unicode="&#xd4;" 
d="M504 -20c-134.667 0 -235.332 38.833 -301.999 116.5s-100 188.834 -100 333.501c0 106.667 16.5 223.667 49.5 351s78.667 235.166 137 323.499s128.166 154.666 209.499 198.999s174 66.5 278 66.5c132 0 232.333 -36.833 301 -110.5s103 -184.167 103 -331.5
c0 -103.333 -16.333 -218.666 -49 -345.999s-79 -236.5 -139 -327.5s-131.333 -159.5 -214 -205.5s-174 -69 -274 -69zM978.002 913c0 200.667 -77.333 301 -232 301c-90.667 0 -167.834 -33.167 -231.501 -99.5s-114.667 -166.833 -153 -301.5s-57.5 -257 -57.5 -367
c0 -207.333 77 -311 231 -311c66.667 0 125.334 17.333 176.001 52s95.5 89.334 134.5 164.001s70.833 167.167 95.5 277.5s37 205.166 37 284.499zM1124 1465l-4 -20h-105l-192 138h-2l-259 -138h-104l4 20l301 239h164z" />
    <glyph glyph-name="Otilde" unicode="&#xd5;" 
d="M504 -20c-134.667 0 -235.332 38.833 -301.999 116.5s-100 188.834 -100 333.501c0 106.667 16.5 223.667 49.5 351s78.667 235.166 137 323.499s128.166 154.666 209.499 198.999s174 66.5 278 66.5c132 0 232.333 -36.833 301 -110.5s103 -184.167 103 -331.5
c0 -103.333 -16.333 -218.666 -49 -345.999s-79 -236.5 -139 -327.5s-131.333 -159.5 -214 -205.5s-174 -69 -274 -69zM978.002 913c0 200.667 -77.333 301 -232 301c-90.667 0 -167.834 -33.167 -231.501 -99.5s-114.667 -166.833 -153 -301.5s-57.5 -257 -57.5 -367
c0 -207.333 77 -311 231 -311c66.667 0 125.334 17.333 176.001 52s95.5 89.334 134.5 164.001s70.833 167.167 95.5 277.5s37 205.166 37 284.499zM945.002 1445c-28 0 -54.667 6.16699 -80 18.5s-50 26 -74 41s-47.5 28.667 -70.5 41s-46.167 18.5 -69.5 18.5
c-24.667 0 -45 -7.83301 -61 -23.5s-32.333 -47.5 -49 -95.5h-111c28 91.333 62.5 155.5 103.5 192.5s90.5 55.5 148.5 55.5c29.333 0 56.833 -6.16699 82.5 -18.5s50.334 -26 74.001 -41s46.667 -28.667 69 -41s44.5 -18.5 66.5 -18.5c26.667 0 48.334 9.16699 65.001 27.5
s31.667 48.833 45 91.5h112c-20.667 -64.667 -41.834 -113.167 -63.501 -145.5s-47.834 -57.5 -78.501 -75.5s-67 -27 -109 -27z" />
    <glyph glyph-name="Odieresis" unicode="&#xd6;" 
d="M504 -20c-134.667 0 -235.332 38.833 -301.999 116.5s-100 188.834 -100 333.501c0 106.667 16.5 223.667 49.5 351s78.667 235.166 137 323.499s128.166 154.666 209.499 198.999s174 66.5 278 66.5c132 0 232.333 -36.833 301 -110.5s103 -184.167 103 -331.5
c0 -103.333 -16.333 -218.666 -49 -345.999s-79 -236.5 -139 -327.5s-131.333 -159.5 -214 -205.5s-174 -69 -274 -69zM978.002 913c0 200.667 -77.333 301 -232 301c-90.667 0 -167.834 -33.167 -231.501 -99.5s-114.667 -166.833 -153 -301.5s-57.5 -257 -57.5 -367
c0 -207.333 77 -311 231 -311c66.667 0 125.334 17.333 176.001 52s95.5 89.334 134.5 164.001s70.833 167.167 95.5 277.5s37 205.166 37 284.499zM908.002 1445l36 184h163l-36 -184h-163zM514.002 1445l36 184h165l-36 -184h-165z" />
    <glyph glyph-name="multiply" unicode="&#xd7;" 
d="M157 330l354 354l-352 352l104 103l350 -353l350 351l105 -105l-350 -348l352 -352l-102 -105l-353 353l-356 -355z" />
    <glyph glyph-name="Oslash" unicode="&#xd8;" 
d="M504 -20c-146.667 0 -252.998 46.0029 -318.998 138.003l-147 -156l-82 65l178 189c-21.333 60.667 -32 131.667 -32 213c0 107.333 16.5 224.666 49.5 351.999s78.667 235.166 137 323.499s128.166 154.666 209.499 198.999s174 66.5 278 66.5
c145.333 0 251.666 -44.667 318.999 -134l147 156l81 -65l-176 -187c22 -60 33 -131 33 -213c0 -102.667 -16.333 -217.5 -49 -344.5s-79 -236 -139 -327s-131.333 -159.667 -214 -206s-174 -69.5 -274 -69.5zM978.002 908.003l-2.00098 50.999l-645 -686
c34.667 -92 102.667 -138 204 -138c66.667 0 125.334 17.333 176.001 52s95.5 89.334 134.5 164.001s70.833 167.167 95.5 277.5s37 203.5 37 279.5zM305.001 445.002c0 -23.333 0.333008 -38.666 1 -45.999l645 684c-34.667 87.333 -103 131 -205 131
c-90 0 -166.833 -32.667 -230.5 -98s-114.667 -164.833 -153 -298.5s-57.5 -257.834 -57.5 -372.501z" />
    <glyph glyph-name="Ugrave" unicode="&#xd9;" 
d="M496 -20c-134 0 -231.833 25.8311 -293.5 77.498s-92.5 132.834 -92.5 243.501c0 51.333 6.33301 108.333 19 171l170 877h191l-165 -851c-13.333 -68 -20 -124.667 -20 -170c0 -68 16.833 -117.167 50.5 -147.5s90.167 -45.5 169.5 -45.5
c107.333 0 187.833 27.333 241.5 82s94.5 152.667 122.5 294l163 838h190l-167 -859c-34.667 -177.333 -97.667 -306.666 -189 -387.999s-221.333 -122 -390 -122zM780 1445l-255 230l6 29h197l180 -239l-4 -20h-124z" />
    <glyph glyph-name="Uacute" unicode="&#xda;" 
d="M496 -20c-134 0 -231.833 25.8311 -293.5 77.498s-92.5 132.834 -92.5 243.501c0 51.333 6.33301 108.333 19 171l170 877h191l-165 -851c-13.333 -68 -20 -124.667 -20 -170c0 -68 16.833 -117.167 50.5 -147.5s90.167 -45.5 169.5 -45.5
c107.333 0 187.833 27.333 241.5 82s94.5 152.667 122.5 294l163 838h190l-167 -859c-34.667 -177.333 -97.667 -306.666 -189 -387.999s-221.333 -122 -390 -122zM663 1445l4 20l274 239h197l-6 -29l-345 -230h-124z" />
    <glyph glyph-name="Ucircumflex" unicode="&#xdb;" 
d="M496 -20c-134 0 -231.833 25.8311 -293.5 77.498s-92.5 132.834 -92.5 243.501c0 51.333 6.33301 108.333 19 171l170 877h191l-165 -851c-13.333 -68 -20 -124.667 -20 -170c0 -68 16.833 -117.167 50.5 -147.5s90.167 -45.5 169.5 -45.5
c107.333 0 187.833 27.333 241.5 82s94.5 152.667 122.5 294l163 838h190l-167 -859c-34.667 -177.333 -97.667 -306.666 -189 -387.999s-221.333 -122 -390 -122zM1124 1465l-4 -20h-105l-192 138h-2l-259 -138h-104l4 20l301 239h164z" />
    <glyph glyph-name="Udieresis" unicode="&#xdc;" 
d="M496 -20c-134 0 -231.833 25.8311 -293.5 77.498s-92.5 132.834 -92.5 243.501c0 51.333 6.33301 108.333 19 171l170 877h191l-165 -851c-13.333 -68 -20 -124.667 -20 -170c0 -68 16.833 -117.167 50.5 -147.5s90.167 -45.5 169.5 -45.5
c107.333 0 187.833 27.333 241.5 82s94.5 152.667 122.5 294l163 838h190l-167 -859c-34.667 -177.333 -97.667 -306.666 -189 -387.999s-221.333 -122 -390 -122zM905 1445l36 184h163l-36 -184h-163zM511 1445l36 184h165l-36 -184h-165z" />
    <glyph glyph-name="Yacute" unicode="&#xdd;" 
d="M603 0h-188l114 584l-336 765h205l255 -611l491 611h205l-632 -765zM678 1445l4 20l274 239h197l-6 -29l-345 -230h-124z" />
    <glyph glyph-name="Thorn" unicode="&#xde;" 
d="M578 254h-281l-49 -254h-191l262 1349h191l-45 -235h269c136.667 0 241.667 -28 315 -84s110 -136 110 -240c0 -93.333 -24.667 -182.5 -74 -267.5s-118.5 -151 -207.5 -198s-188.833 -70.5 -299.5 -70.5zM963 757c0 68.667 -23.166 121.5 -69.499 158.5
s-116.5 55.5 -210.5 55.5h-246l-112 -576h254c77.333 0 144.666 15.167 201.999 45.5s102 74.5 134 132.5s48 119.333 48 184z" />
    <glyph glyph-name="germandbls" unicode="&#xdf;" 
d="M698 -29c-112.667 0 -203.668 16.335 -273.001 49.002l30 164c34 -22 75.667 -39 125 -51s96.666 -18 141.999 -18c69.333 0 124.666 20.5 165.999 61.5s62 91.5 62 151.5c0 34.667 -10.5 66.5 -31.5 95.5s-56.833 60.833 -107.5 95.5c-46 32 -80.667 64.833 -104 98.5
s-35 71.5 -35 113.5c0 17.333 2 35.333 6 54c14.667 76 65 144.667 151 206c46.667 34 81.167 64.667 103.5 92s36.5 57.333 42.5 90l3 29c0 43.333 -19.167 77.666 -57.5 102.999s-90.166 38 -155.499 38c-97.333 0 -174.666 -26.5 -231.999 -79.5
s-96.666 -133.833 -117.999 -242.5l-198 -1021h-180l200 1027c29.333 152 90.666 266.167 183.999 342.5s217 114.5 371 114.5c112.667 0 201.334 -21.667 266.001 -65s97 -103.333 97 -180l-5 -52c-19.333 -93.333 -72.333 -173 -159 -239
c-52.667 -39.333 -88.667 -69.5 -108 -90.5s-31.333 -43.167 -36 -66.5l-2 -20c0 -22 9.16699 -44.333 27.5 -67s52.833 -52.334 103.5 -89.001c100 -72.667 150 -157 150 -253c0 -63.333 -17.167 -126.833 -51.5 -190.5s-84 -113 -149 -148s-140.833 -52.5 -227.5 -52.5z
" />
    <glyph glyph-name="agrave" unicode="&#xe0;" 
d="M1018 111c18 0 38.001 2.33301 60.001 7l-22 -112c-46.667 -10.667 -94 -16 -142 -16c-58 0 -99.167 12.667 -123.5 38s-36.5 63.333 -36.5 114l5 65h-6c-59.333 -81.333 -122.166 -139.5 -188.499 -174.5s-142.166 -52.5 -227.499 -52.5
c-88.667 0 -154.834 20.667 -198.501 62s-65.5 98.333 -65.5 171c0 27.333 3 57 9 89c45.333 232.667 219.666 350.667 522.999 354l236 4c11.333 54 17.833 88.167 19.5 102.5s2.5 29.5 2.5 45.5c0 56.667 -15.333 97 -46 121s-76.667 36 -138 36
c-77.333 0 -135.833 -13.167 -175.5 -39.5s-69.834 -70.5 -90.501 -132.5l-185 17c36 99.333 93.5 172.833 172.5 220.5s181.5 71.5 307.5 71.5c226.667 0 340 -89 340 -267c0 -30 -3.33301 -62.333 -10 -97l-90 -466c-6 -28.667 -9 -54 -9 -76c0 -28 6 -49.167 18 -63.5
s32.333 -21.5 61 -21.5zM410.001 117c63.333 0 122.669 15.166 178.002 45.499s101.666 71.166 138.999 122.499s61.333 104.666 72 159.999l18 89l-191 -4c-90 -1.33301 -159.833 -13.166 -209.5 -35.499s-87.334 -55.666 -113.001 -99.999s-38.5 -92.166 -38.5 -143.499
c0 -41.333 12.167 -74 36.5 -98s60.5 -36 108.5 -36zM716.004 1201l-255 230l6 29h197l180 -239l-4 -20h-124z" />
    <glyph glyph-name="aacute" unicode="&#xe1;" 
d="M1018 111c18 0 38.001 2.33301 60.001 7l-22 -112c-46.667 -10.667 -94 -16 -142 -16c-58 0 -99.167 12.667 -123.5 38s-36.5 63.333 -36.5 114l5 65h-6c-59.333 -81.333 -122.166 -139.5 -188.499 -174.5s-142.166 -52.5 -227.499 -52.5
c-88.667 0 -154.834 20.667 -198.501 62s-65.5 98.333 -65.5 171c0 27.333 3 57 9 89c45.333 232.667 219.666 350.667 522.999 354l236 4c11.333 54 17.833 88.167 19.5 102.5s2.5 29.5 2.5 45.5c0 56.667 -15.333 97 -46 121s-76.667 36 -138 36
c-77.333 0 -135.833 -13.167 -175.5 -39.5s-69.834 -70.5 -90.501 -132.5l-185 17c36 99.333 93.5 172.833 172.5 220.5s181.5 71.5 307.5 71.5c226.667 0 340 -89 340 -267c0 -30 -3.33301 -62.333 -10 -97l-90 -466c-6 -28.667 -9 -54 -9 -76c0 -28 6 -49.167 18 -63.5
s32.333 -21.5 61 -21.5zM410.001 117c63.333 0 122.669 15.166 178.002 45.499s101.666 71.166 138.999 122.499s61.333 104.666 72 159.999l18 89l-191 -4c-90 -1.33301 -159.833 -13.166 -209.5 -35.499s-87.334 -55.666 -113.001 -99.999s-38.5 -92.166 -38.5 -143.499
c0 -41.333 12.167 -74 36.5 -98s60.5 -36 108.5 -36zM607.004 1201l4 20l274 239h197l-6 -29l-345 -230h-124z" />
    <glyph glyph-name="acircumflex" unicode="&#xe2;" 
d="M1018 111c18 0 38.001 2.33301 60.001 7l-22 -112c-46.667 -10.667 -94 -16 -142 -16c-58 0 -99.167 12.667 -123.5 38s-36.5 63.333 -36.5 114l5 65h-6c-59.333 -81.333 -122.166 -139.5 -188.499 -174.5s-142.166 -52.5 -227.499 -52.5
c-88.667 0 -154.834 20.667 -198.501 62s-65.5 98.333 -65.5 171c0 27.333 3 57 9 89c45.333 232.667 219.666 350.667 522.999 354l236 4c11.333 54 17.833 88.167 19.5 102.5s2.5 29.5 2.5 45.5c0 56.667 -15.333 97 -46 121s-76.667 36 -138 36
c-77.333 0 -135.833 -13.167 -175.5 -39.5s-69.834 -70.5 -90.501 -132.5l-185 17c36 99.333 93.5 172.833 172.5 220.5s181.5 71.5 307.5 71.5c226.667 0 340 -89 340 -267c0 -30 -3.33301 -62.333 -10 -97l-90 -466c-6 -28.667 -9 -54 -9 -76c0 -28 6 -49.167 18 -63.5
s32.333 -21.5 61 -21.5zM410.001 117c63.333 0 122.669 15.166 178.002 45.499s101.666 71.166 138.999 122.499s61.333 104.666 72 159.999l18 89l-191 -4c-90 -1.33301 -159.833 -13.166 -209.5 -35.499s-87.334 -55.666 -113.001 -99.999s-38.5 -92.166 -38.5 -143.499
c0 -41.333 12.167 -74 36.5 -98s60.5 -36 108.5 -36zM1059 1221l-4 -20h-105l-192 138h-2l-259 -138h-104l4 20l301 239h164z" />
    <glyph glyph-name="atilde" unicode="&#xe3;" 
d="M1018 111c18 0 38.001 2.33301 60.001 7l-22 -112c-46.667 -10.667 -94 -16 -142 -16c-58 0 -99.167 12.667 -123.5 38s-36.5 63.333 -36.5 114l5 65h-6c-59.333 -81.333 -122.166 -139.5 -188.499 -174.5s-142.166 -52.5 -227.499 -52.5
c-88.667 0 -154.834 20.667 -198.501 62s-65.5 98.333 -65.5 171c0 27.333 3 57 9 89c45.333 232.667 219.666 350.667 522.999 354l236 4c11.333 54 17.833 88.167 19.5 102.5s2.5 29.5 2.5 45.5c0 56.667 -15.333 97 -46 121s-76.667 36 -138 36
c-77.333 0 -135.833 -13.167 -175.5 -39.5s-69.834 -70.5 -90.501 -132.5l-185 17c36 99.333 93.5 172.833 172.5 220.5s181.5 71.5 307.5 71.5c226.667 0 340 -89 340 -267c0 -30 -3.33301 -62.333 -10 -97l-90 -466c-6 -28.667 -9 -54 -9 -76c0 -28 6 -49.167 18 -63.5
s32.333 -21.5 61 -21.5zM410.001 117c63.333 0 122.669 15.166 178.002 45.499s101.666 71.166 138.999 122.499s61.333 104.666 72 159.999l18 89l-191 -4c-90 -1.33301 -159.833 -13.166 -209.5 -35.499s-87.334 -55.666 -113.001 -99.999s-38.5 -92.166 -38.5 -143.499
c0 -41.333 12.167 -74 36.5 -98s60.5 -36 108.5 -36zM890.004 1201c-28 0 -54.667 6.16699 -80 18.5s-50 26 -74 41s-47.5 28.667 -70.5 41s-46.167 18.5 -69.5 18.5c-24.667 0 -45 -7.83301 -61 -23.5s-32.333 -47.5 -49 -95.5h-111c28 91.333 62.5 155.5 103.5 192.5
s90.5 55.5 148.5 55.5c29.333 0 56.833 -6.16699 82.5 -18.5s50.334 -26 74.001 -41s46.667 -28.667 69 -41s44.5 -18.5 66.5 -18.5c26.667 0 48.334 9.16699 65.001 27.5s31.667 48.833 45 91.5h112c-20.667 -64.667 -41.834 -113.167 -63.501 -145.5
s-47.834 -57.5 -78.501 -75.5s-67 -27 -109 -27z" />
    <glyph glyph-name="adieresis" unicode="&#xe4;" 
d="M1018 111c18 0 38.001 2.33301 60.001 7l-22 -112c-46.667 -10.667 -94 -16 -142 -16c-58 0 -99.167 12.667 -123.5 38s-36.5 63.333 -36.5 114l5 65h-6c-59.333 -81.333 -122.166 -139.5 -188.499 -174.5s-142.166 -52.5 -227.499 -52.5
c-88.667 0 -154.834 20.667 -198.501 62s-65.5 98.333 -65.5 171c0 27.333 3 57 9 89c45.333 232.667 219.666 350.667 522.999 354l236 4c11.333 54 17.833 88.167 19.5 102.5s2.5 29.5 2.5 45.5c0 56.667 -15.333 97 -46 121s-76.667 36 -138 36
c-77.333 0 -135.833 -13.167 -175.5 -39.5s-69.834 -70.5 -90.501 -132.5l-185 17c36 99.333 93.5 172.833 172.5 220.5s181.5 71.5 307.5 71.5c226.667 0 340 -89 340 -267c0 -30 -3.33301 -62.333 -10 -97l-90 -466c-6 -28.667 -9 -54 -9 -76c0 -28 6 -49.167 18 -63.5
s32.333 -21.5 61 -21.5zM410.001 117c63.333 0 122.669 15.166 178.002 45.499s101.666 71.166 138.999 122.499s61.333 104.666 72 159.999l18 89l-191 -4c-90 -1.33301 -159.833 -13.166 -209.5 -35.499s-87.334 -55.666 -113.001 -99.999s-38.5 -92.166 -38.5 -143.499
c0 -41.333 12.167 -74 36.5 -98s60.5 -36 108.5 -36zM845.004 1219l36 184h163l-36 -184h-163zM451.004 1219l36 184h165l-36 -184h-165z" />
    <glyph glyph-name="aring" unicode="&#xe5;" 
d="M1018 111c18 0 38.001 2.33301 60.001 7l-22 -112c-46.667 -10.667 -94 -16 -142 -16c-58 0 -99.167 12.667 -123.5 38s-36.5 63.333 -36.5 114l5 65h-6c-59.333 -81.333 -122.166 -139.5 -188.499 -174.5s-142.166 -52.5 -227.499 -52.5
c-88.667 0 -154.834 20.667 -198.501 62s-65.5 98.333 -65.5 171c0 27.333 3 57 9 89c45.333 232.667 219.666 350.667 522.999 354l236 4c11.333 54 17.833 88.167 19.5 102.5s2.5 29.5 2.5 45.5c0 56.667 -15.333 97 -46 121s-76.667 36 -138 36
c-77.333 0 -135.833 -13.167 -175.5 -39.5s-69.834 -70.5 -90.501 -132.5l-185 17c36 99.333 93.5 172.833 172.5 220.5s181.5 71.5 307.5 71.5c226.667 0 340 -89 340 -267c0 -30 -3.33301 -62.333 -10 -97l-90 -466c-6 -28.667 -9 -54 -9 -76c0 -28 6 -49.167 18 -63.5
s32.333 -21.5 61 -21.5zM410.001 117c63.333 0 122.669 15.166 178.002 45.499s101.666 71.166 138.999 122.499s61.333 104.666 72 159.999l18 89l-191 -4c-90 -1.33301 -159.833 -13.166 -209.5 -35.499s-87.334 -55.666 -113.001 -99.999s-38.5 -92.166 -38.5 -143.499
c0 -41.333 12.167 -74 36.5 -98s60.5 -36 108.5 -36zM724.004 1148c-64 0 -114.498 14.501 -151.498 43.501s-55.5 68.5 -55.5 118.5c0 39.333 11.667 78 35 116s57.166 67.667 101.499 89s93.833 32 148.5 32c63.333 0 113.666 -14 150.999 -42s56 -67.667 56 -119
c0 -42 -12.333 -81.833 -37 -119.5s-58.667 -66.834 -102 -87.501s-92 -31 -146 -31zM885.006 1362c0 21.333 -9.66699 38.168 -29 50.501s-45 18.5 -77 18.5c-41.333 0 -74.833 -9.33301 -100.5 -28s-38.5 -41.334 -38.5 -68.001c0 -22 9.33301 -39.333 28 -52
s45 -19 79 -19c42 0 75.5 9.66699 100.5 29s37.5 42.333 37.5 69z" />
    <glyph glyph-name="ae" unicode="&#xe6;" 
d="M672 503c-14.667 -62 -22.001 -125.333 -22.001 -190c0 -132 43.667 -198 131 -198c50 0 93 15.667 129 47s64 71 84 119l129 -45c-79.333 -170.667 -200.666 -256 -363.999 -256c-80.667 0 -140.167 18.167 -178.5 54.5s-61.166 95.5 -68.499 177.5
c-94.667 -154.667 -209 -232 -343 -232c-138 0 -207 70 -207 210c0 34 4 71.333 12 112c45.333 232.667 178.333 350.667 399 354l167 4c18 88.667 27 150 27 184c0 43.333 -8.33301 74.333 -25 93s-42.667 28 -78 28c-49.333 0 -87.833 -13.5 -115.5 -40.5
s-49.834 -70.833 -66.501 -131.5l-165 17c31.333 99.333 77.833 172.833 139.5 220.5s139.167 71.5 232.5 71.5c118.667 0 192 -46.333 220 -139c74 92.667 165 139 273 139c168 0 252 -107 252 -321c0 -74 -9.66699 -158.667 -29 -254l-4 -24h-529zM134.999 230
c0 -75.333 28.666 -113 85.999 -113c62 0 119.167 31.667 171.5 95s87.5 141 105.5 233l18 89l-123 -4c-63.333 -2 -112.666 -15.333 -147.999 -40s-62.5 -62 -81.5 -112s-28.5 -99.333 -28.5 -148zM941.998 969c-54 0 -102.167 -29.167 -144.5 -87.5
s-74.5 -138.5 -96.5 -240.5h361c7.33301 57.333 11 102.333 11 135c0 66.667 -10.833 115.5 -32.5 146.5s-54.5 46.5 -98.5 46.5z" />
    <glyph glyph-name="ccedilla" unicode="&#xe7;" 
d="M741 1102c120.667 0 214.667 -28.8359 282 -86.5029s101 -136.5 101 -236.5l-194 -14v6c0 57.333 -17.667 103.333 -53 138s-92.333 52 -171 52c-89.333 0 -163 -23.5 -221 -70.5s-103.167 -122.167 -135.5 -225.5s-48.5 -201 -48.5 -293c0 -87.333 20 -151.333 60 -192
s100 -61 180 -61c72 0 135.167 17.667 189.5 53s94.166 89.333 119.499 162l188 -12c-21.333 -64 -56.833 -122.167 -106.5 -174.5s-110 -93.333 -181 -123s-147.167 -44.5 -228.5 -44.5c-135.333 0 -237.5 33 -306.5 99s-103.5 162.667 -103.5 290
c0 84.667 13.833 174.834 41.5 270.501s69 178.834 124 249.501s121.333 123.834 199 159.501s165.834 53.5 264.501 53.5zM355 -444.003c-38 0 -68.001 1.33105 -90.001 3.99805l20 98c32 -4 60 -6 84 -6c97.333 0 152 28.667 164 86l2 18c0 42.667 -39.667 64 -119 64
c-28.667 0 -47.667 -0.666992 -57 -2l100 182h107l-58 -100c54 -1.33301 94.333 -12.666 121 -33.999s40 -50.666 40 -87.999c0 -39.333 -11.167 -77 -33.5 -113s-56.666 -63.167 -102.999 -81.5s-105.5 -27.5 -177.5 -27.5z" />
    <glyph glyph-name="egrave" unicode="&#xe8;" 
d="M315 503c-8.66699 -46 -13 -86.332 -13 -120.999c0 -86 20.833 -152 62.5 -198s100.167 -69 175.5 -69c68 0 130.833 14.667 188.5 44s100.5 70 128.5 122l149 -45c-46 -82.667 -112.167 -146 -198.5 -190s-184.166 -66 -293.499 -66c-129.333 0 -228 33.5 -296 100.5
s-102 163.5 -102 289.5c0 82.667 13.333 172.167 40 268.5s66.667 179.666 120 249.999s117.666 123.5 192.999 159.5s161 54 257 54c257.333 0 386 -126.333 386 -379c0 -60.667 -7 -126 -21 -196l-4 -24h-772zM702 969.001c-88.667 0 -164.5 -29 -227.5 -87
s-106.5 -138.333 -130.5 -241h584l4 72c0 170.667 -76.667 256 -230 256zM751 1201l-255 230l6 29h197l180 -239l-4 -20h-124z" />
    <glyph glyph-name="eacute" unicode="&#xe9;" 
d="M315 503c-8.66699 -46 -13 -86.332 -13 -120.999c0 -86 20.833 -152 62.5 -198s100.167 -69 175.5 -69c68 0 130.833 14.667 188.5 44s100.5 70 128.5 122l149 -45c-46 -82.667 -112.167 -146 -198.5 -190s-184.166 -66 -293.499 -66c-129.333 0 -228 33.5 -296 100.5
s-102 163.5 -102 289.5c0 82.667 13.333 172.167 40 268.5s66.667 179.666 120 249.999s117.666 123.5 192.999 159.5s161 54 257 54c257.333 0 386 -126.333 386 -379c0 -60.667 -7 -126 -21 -196l-4 -24h-772zM702 969.001c-88.667 0 -164.5 -29 -227.5 -87
s-106.5 -138.333 -130.5 -241h584l4 72c0 170.667 -76.667 256 -230 256zM641 1201l4 20l274 239h197l-6 -29l-345 -230h-124z" />
    <glyph glyph-name="ecircumflex" unicode="&#xea;" 
d="M315 503c-8.66699 -46 -13 -86.332 -13 -120.999c0 -86 20.833 -152 62.5 -198s100.167 -69 175.5 -69c68 0 130.833 14.667 188.5 44s100.5 70 128.5 122l149 -45c-46 -82.667 -112.167 -146 -198.5 -190s-184.166 -66 -293.499 -66c-129.333 0 -228 33.5 -296 100.5
s-102 163.5 -102 289.5c0 82.667 13.333 172.167 40 268.5s66.667 179.666 120 249.999s117.666 123.5 192.999 159.5s161 54 257 54c257.333 0 386 -126.333 386 -379c0 -60.667 -7 -126 -21 -196l-4 -24h-772zM702 969.001c-88.667 0 -164.5 -29 -227.5 -87
s-106.5 -138.333 -130.5 -241h584l4 72c0 170.667 -76.667 256 -230 256zM1084 1221l-4 -20h-105l-192 138h-2l-259 -138h-104l4 20l301 239h164z" />
    <glyph glyph-name="edieresis" unicode="&#xeb;" 
d="M315 503c-8.66699 -46 -13 -86.332 -13 -120.999c0 -86 20.833 -152 62.5 -198s100.167 -69 175.5 -69c68 0 130.833 14.667 188.5 44s100.5 70 128.5 122l149 -45c-46 -82.667 -112.167 -146 -198.5 -190s-184.166 -66 -293.499 -66c-129.333 0 -228 33.5 -296 100.5
s-102 163.5 -102 289.5c0 82.667 13.333 172.167 40 268.5s66.667 179.666 120 249.999s117.666 123.5 192.999 159.5s161 54 257 54c257.333 0 386 -126.333 386 -379c0 -60.667 -7 -126 -21 -196l-4 -24h-772zM702 969.001c-88.667 0 -164.5 -29 -227.5 -87
s-106.5 -138.333 -130.5 -241h584l4 72c0 170.667 -76.667 256 -230 256zM869 1219l36 184h163l-36 -184h-163zM475 1219l36 184h165l-36 -184h-165z" />
    <glyph glyph-name="igrave" unicode="&#xec;" 
d="M668 142h380l-28 -142h-982l28 142h422l155 798h-319l27 142h499zM763 1201l-255 230l6 29h197l180 -239l-4 -20h-124z" />
    <glyph glyph-name="iacute" unicode="&#xed;" 
d="M668 142h380l-28 -142h-982l28 142h422l155 798h-319l27 142h499zM634 1201l4 20l274 239h197l-6 -29l-345 -230h-124z" />
    <glyph glyph-name="icircumflex" unicode="&#xee;" 
d="M668 142h380l-28 -142h-982l28 142h422l155 798h-319l27 142h499zM1087 1221l-4 -20h-105l-192 138h-2l-259 -138h-104l4 20l301 239h164z" />
    <glyph glyph-name="idieresis" unicode="&#xef;" 
d="M668 142h380l-28 -142h-982l28 142h422l155 798h-319l27 142h499zM902 1219l36 184h163l-36 -184h-163zM508 1219l36 184h165l-36 -184h-165z" />
    <glyph glyph-name="eth" unicode="&#xf0;" 
d="M697 979c91.333 0 164.668 -19.6709 220.001 -59.0039c-32 130.667 -85 236.334 -159 317.001l-282 -115l-34 110l237 94c-64.667 60.667 -135.334 113.334 -212.001 158.001h209c50 -24.667 100.333 -58.667 151 -102l286 114l34 -108l-229 -92
c135.333 -148.667 203 -331 203 -547c0 -105.333 -14 -209.166 -42 -311.499s-68 -186.666 -120 -252.999s-116.5 -117 -193.5 -152s-166.833 -52.5 -269.5 -52.5c-129.333 0 -228 30.5 -296 91.5s-102 150.167 -102 267.5c0 80 14.333 163 43 249s68.167 157.5 118.5 214.5
s111.5 100.667 183.5 131s156.667 45.5 254 45.5zM917.002 621.996c0 76.667 -19.165 133.165 -57.498 169.498s-99.833 54.5 -184.5 54.5c-88 0 -159.5 -20 -214.5 -60s-97.5 -102.5 -127.5 -187.5s-45 -168.5 -45 -250.5c0 -80.667 19.333 -140 58 -178
s96.667 -57 174 -57c67.333 0 125.166 11.333 173.499 34s88.666 57.334 120.999 104.001s57.5 106.834 75.5 180.501s27 137.167 27 190.5z" />
    <glyph glyph-name="ntilde" unicode="&#xf1;" 
d="M763 0l135 694.998c7.33301 38.667 11 71.334 11 98.001c0 58.667 -14.5 101.667 -43.5 129s-74.167 41 -135.5 41c-82.667 0 -156.167 -30.167 -220.5 -90.5s-106.833 -142.166 -127.5 -245.499l-122 -627h-180l165 851c4.66699 22.667 9.16699 46.5 13.5 71.5l12 71
l9.5 57.5c2.66699 16 4 26.333 4 31h170c0 -4 -2.83301 -26.5 -8.5 -67.5s-12.167 -80.167 -19.5 -117.5h3c45.333 63.333 99 113.333 161 150s137 55 225 55c188.667 0 283 -84.667 283 -254c0 -38 -4.66699 -80.333 -14 -127l-140 -721h-181zM908 1201
c-28 0 -54.667 6.16699 -80 18.5s-50 26 -74 41s-47.5 28.667 -70.5 41s-46.167 18.5 -69.5 18.5c-24.667 0 -45 -7.83301 -61 -23.5s-32.333 -47.5 -49 -95.5h-111c28 91.333 62.5 155.5 103.5 192.5s90.5 55.5 148.5 55.5c29.333 0 56.833 -6.16699 82.5 -18.5
s50.334 -26 74.001 -41s46.667 -28.667 69 -41s44.5 -18.5 66.5 -18.5c26.667 0 48.334 9.16699 65.001 27.5s31.667 48.833 45 91.5h112c-20.667 -64.667 -41.834 -113.167 -63.501 -145.5s-47.834 -57.5 -78.501 -75.5s-67 -27 -109 -27z" />
    <glyph glyph-name="ograve" unicode="&#xf2;" 
d="M500 -20c-125.333 0 -221.334 32.833 -288.001 98.5s-100 161.834 -100 288.501c0 52.667 6 111 18 175c36.667 186 106.167 325.833 208.5 419.5s230.833 140.5 385.5 140.5c132.667 0 231.334 -30.667 296.001 -92s97 -154 97 -278c0 -90 -14 -184.833 -42 -284.5
s-69 -184.834 -123 -255.501s-119.333 -123.667 -196 -159s-162 -53 -256 -53zM927.999 720c0 83.333 -18.1631 145.667 -54.4961 187s-93.833 62 -172.5 62c-88 0 -160.833 -25.667 -218.5 -77s-102.334 -128 -134.001 -230s-47.5 -198.333 -47.5 -289
c0 -173.333 74.333 -260 223 -260c67.333 0 124.666 13.833 171.999 41.5s88.166 70.5 122.499 128.5s61.166 129.833 80.499 215.5s29 159.5 29 221.5zM760.003 1201l-255 230l6 29h197l180 -239l-4 -20h-124z" />
    <glyph glyph-name="oacute" unicode="&#xf3;" 
d="M500 -20c-125.333 0 -221.334 32.833 -288.001 98.5s-100 161.834 -100 288.501c0 52.667 6 111 18 175c36.667 186 106.167 325.833 208.5 419.5s230.833 140.5 385.5 140.5c132.667 0 231.334 -30.667 296.001 -92s97 -154 97 -278c0 -90 -14 -184.833 -42 -284.5
s-69 -184.834 -123 -255.501s-119.333 -123.667 -196 -159s-162 -53 -256 -53zM927.999 720c0 83.333 -18.1631 145.667 -54.4961 187s-93.833 62 -172.5 62c-88 0 -160.833 -25.667 -218.5 -77s-102.334 -128 -134.001 -230s-47.5 -198.333 -47.5 -289
c0 -173.333 74.333 -260 223 -260c67.333 0 124.666 13.833 171.999 41.5s88.166 70.5 122.499 128.5s61.166 129.833 80.499 215.5s29 159.5 29 221.5zM631.003 1201l4 20l274 239h197l-6 -29l-345 -230h-124z" />
    <glyph glyph-name="ocircumflex" unicode="&#xf4;" 
d="M500 -20c-125.333 0 -221.334 32.833 -288.001 98.5s-100 161.834 -100 288.501c0 52.667 6 111 18 175c36.667 186 106.167 325.833 208.5 419.5s230.833 140.5 385.5 140.5c132.667 0 231.334 -30.667 296.001 -92s97 -154 97 -278c0 -90 -14 -184.833 -42 -284.5
s-69 -184.834 -123 -255.501s-119.333 -123.667 -196 -159s-162 -53 -256 -53zM927.999 720c0 83.333 -18.1631 145.667 -54.4961 187s-93.833 62 -172.5 62c-88 0 -160.833 -25.667 -218.5 -77s-102.334 -128 -134.001 -230s-47.5 -198.333 -47.5 -289
c0 -173.333 74.333 -260 223 -260c67.333 0 124.666 13.833 171.999 41.5s88.166 70.5 122.499 128.5s61.166 129.833 80.499 215.5s29 159.5 29 221.5zM1077 1221l-4 -20h-105l-192 138h-2l-259 -138h-104l4 20l301 239h164z" />
    <glyph glyph-name="otilde" unicode="&#xf5;" 
d="M500 -20c-125.333 0 -221.334 32.833 -288.001 98.5s-100 161.834 -100 288.501c0 52.667 6 111 18 175c36.667 186 106.167 325.833 208.5 419.5s230.833 140.5 385.5 140.5c132.667 0 231.334 -30.667 296.001 -92s97 -154 97 -278c0 -90 -14 -184.833 -42 -284.5
s-69 -184.834 -123 -255.501s-119.333 -123.667 -196 -159s-162 -53 -256 -53zM927.999 720c0 83.333 -18.1631 145.667 -54.4961 187s-93.833 62 -172.5 62c-88 0 -160.833 -25.667 -218.5 -77s-102.334 -128 -134.001 -230s-47.5 -198.333 -47.5 -289
c0 -173.333 74.333 -260 223 -260c67.333 0 124.666 13.833 171.999 41.5s88.166 70.5 122.499 128.5s61.166 129.833 80.499 215.5s29 159.5 29 221.5zM898.003 1201c-28 0 -54.667 6.16699 -80 18.5s-50 26 -74 41s-47.5 28.667 -70.5 41s-46.167 18.5 -69.5 18.5
c-24.667 0 -45 -7.83301 -61 -23.5s-32.333 -47.5 -49 -95.5h-111c28 91.333 62.5 155.5 103.5 192.5s90.5 55.5 148.5 55.5c29.333 0 56.833 -6.16699 82.5 -18.5s50.334 -26 74.001 -41s46.667 -28.667 69 -41s44.5 -18.5 66.5 -18.5c26.667 0 48.334 9.16699 65.001 27.5
s31.667 48.833 45 91.5h112c-20.667 -64.667 -41.834 -113.167 -63.501 -145.5s-47.834 -57.5 -78.501 -75.5s-67 -27 -109 -27z" />
    <glyph glyph-name="odieresis" unicode="&#xf6;" 
d="M500 -20c-125.333 0 -221.334 32.833 -288.001 98.5s-100 161.834 -100 288.501c0 52.667 6 111 18 175c36.667 186 106.167 325.833 208.5 419.5s230.833 140.5 385.5 140.5c132.667 0 231.334 -30.667 296.001 -92s97 -154 97 -278c0 -90 -14 -184.833 -42 -284.5
s-69 -184.834 -123 -255.501s-119.333 -123.667 -196 -159s-162 -53 -256 -53zM927.999 720c0 83.333 -18.1631 145.667 -54.4961 187s-93.833 62 -172.5 62c-88 0 -160.833 -25.667 -218.5 -77s-102.334 -128 -134.001 -230s-47.5 -198.333 -47.5 -289
c0 -173.333 74.333 -260 223 -260c67.333 0 124.666 13.833 171.999 41.5s88.166 70.5 122.499 128.5s61.166 129.833 80.499 215.5s29 159.5 29 221.5zM861.003 1219l36 184h163l-36 -184h-163zM467.003 1219l36 184h165l-36 -184h-165z" />
    <glyph glyph-name="divide" unicode="&#xf7;" 
d="M529 958v183h168v-183h-168zM116 608v146h995v-146h-995zM529 223v183h168v-183h-168z" />
    <glyph glyph-name="oslash" unicode="&#xf8;" 
d="M500 -20c-135.333 0 -238.666 35.668 -309.999 107.001l-94 -87l-63 68l103 95c-29.333 56.667 -44 126 -44 208c0 87.333 14.5 179.166 43.5 275.499s71 179 126 248s121 120.833 198 155.5s165.167 52 264.5 52c142 0 247.333 -33.333 316 -100l88 82l64 -68l-97 -90
c28 -54 42 -121 42 -201c0 -86.667 -14.167 -179.5 -42.5 -278.5s-70.333 -183.833 -126 -254.5s-122.834 -123.667 -201.501 -159s-167.667 -53 -267 -53zM947 713.001c0 20.667 -1.66797 44.333 -5.00098 71l-621 -576c39.333 -63.333 107 -95 203 -95
c71.333 0 132 13.5 182 40.5s92.833 69.333 128.5 127s63.334 128.5 83.001 212.5s29.5 157.333 29.5 220zM280.999 379c0 -26.667 2 -51.667 6 -75l621 576c-38 59.333 -107 89 -207 89c-68.667 0 -128 -13.5 -178 -40.5s-92.833 -68.5 -128.5 -124.5
s-63.5 -125 -83.5 -207s-30 -154.667 -30 -218z" />
    <glyph glyph-name="ugrave" unicode="&#xf9;" 
d="M470 1082l-132.997 -686c-9.33301 -48 -14 -89 -14 -123c0 -56 14.167 -95.667 42.5 -119s75.5 -35 141.5 -35c87.333 0 161.666 30 222.999 90s101.666 142 120.999 246l122 627h181l-165 -851c-4.66699 -22.667 -9.16699 -46.5 -13.5 -71.5l-12 -71l-9.5 -57.5
c-2.66699 -16 -4 -26.333 -4 -31h-170c0 7.33301 3.5 33.166 10.5 77.499l17.5 107.5h-3c-55.333 -74.667 -113.833 -127.5 -175.5 -158.5s-131.834 -46.5 -210.501 -46.5c-97.333 0 -169 19.333 -215 58s-69 100.334 -69 185.001c0 40 5 86 15 138l140 721h180z
M736.003 1201l-255 230l6 29h197l180 -239l-4 -20h-124z" />
    <glyph glyph-name="uacute" unicode="&#xfa;" 
d="M470 1082l-132.997 -686c-9.33301 -48 -14 -89 -14 -123c0 -56 14.167 -95.667 42.5 -119s75.5 -35 141.5 -35c87.333 0 161.666 30 222.999 90s101.666 142 120.999 246l122 627h181l-165 -851c-4.66699 -22.667 -9.16699 -46.5 -13.5 -71.5l-12 -71l-9.5 -57.5
c-2.66699 -16 -4 -26.333 -4 -31h-170c0 7.33301 3.5 33.166 10.5 77.499l17.5 107.5h-3c-55.333 -74.667 -113.833 -127.5 -175.5 -158.5s-131.834 -46.5 -210.501 -46.5c-97.333 0 -169 19.333 -215 58s-69 100.334 -69 185.001c0 40 5 86 15 138l140 721h180z
M620.003 1201l4 20l274 239h197l-6 -29l-345 -230h-124z" />
    <glyph glyph-name="ucircumflex" unicode="&#xfb;" 
d="M470 1082l-132.997 -686c-9.33301 -48 -14 -89 -14 -123c0 -56 14.167 -95.667 42.5 -119s75.5 -35 141.5 -35c87.333 0 161.666 30 222.999 90s101.666 142 120.999 246l122 627h181l-165 -851c-4.66699 -22.667 -9.16699 -46.5 -13.5 -71.5l-12 -71l-9.5 -57.5
c-2.66699 -16 -4 -26.333 -4 -31h-170c0 7.33301 3.5 33.166 10.5 77.499l17.5 107.5h-3c-55.333 -74.667 -113.833 -127.5 -175.5 -158.5s-131.834 -46.5 -210.501 -46.5c-97.333 0 -169 19.333 -215 58s-69 100.334 -69 185.001c0 40 5 86 15 138l140 721h180zM1077 1221
l-4 -20h-105l-192 138h-2l-259 -138h-104l4 20l301 239h164z" />
    <glyph glyph-name="udieresis" unicode="&#xfc;" 
d="M470 1082l-132.997 -686c-9.33301 -48 -14 -89 -14 -123c0 -56 14.167 -95.667 42.5 -119s75.5 -35 141.5 -35c87.333 0 161.666 30 222.999 90s101.666 142 120.999 246l122 627h181l-165 -851c-4.66699 -22.667 -9.16699 -46.5 -13.5 -71.5l-12 -71l-9.5 -57.5
c-2.66699 -16 -4 -26.333 -4 -31h-170c0 7.33301 3.5 33.166 10.5 77.499l17.5 107.5h-3c-55.333 -74.667 -113.833 -127.5 -175.5 -158.5s-131.834 -46.5 -210.501 -46.5c-97.333 0 -169 19.333 -215 58s-69 100.334 -69 185.001c0 40 5 86 15 138l140 721h180z
M861.003 1219l36 184h163l-36 -184h-163zM467.003 1219l36 184h165l-36 -184h-165z" />
    <glyph glyph-name="yacute" unicode="&#xfd;" 
d="M104 -425c-48 0 -88.332 3.66602 -120.999 10.999l26 135c24 -4 51.667 -6 83 -6c52.667 0 106 19.667 160 59s105.333 102 154 188l27 49l-262 1071h192l140 -642c7.33301 -32.667 17.166 -80.5 29.499 -143.5s18.5 -99.833 18.5 -110.5
c6.66699 14.667 27.667 51.334 63 110.001l462 786h190l-666 -1082c-93.333 -161.333 -177.5 -272.5 -252.5 -333.5s-156.167 -91.5 -243.5 -91.5zM637.001 1201l4 20l274 239h197l-6 -29l-345 -230h-124z" />
    <glyph glyph-name="thorn" unicode="&#xfe;" 
d="M928 743c0 72 -14.833 127 -44.5 165s-79.5 57 -149.5 57c-64.667 0 -119.5 -14.167 -164.5 -42.5s-84 -72 -117 -131s-59.5 -132.333 -79.5 -220s-30 -161.5 -30 -221.5c0 -80.667 18 -140.334 54 -179.001s92.333 -58 169 -58c78 0 142.5 26 193.5 78
s91.833 136.333 122.5 253s46 216.334 46 299.001zM439 904c46.667 70 99.165 120.835 157.498 152.502s128.833 47.5 211.5 47.5c205.333 0 308 -112 308 -336c0 -63.333 -8.33301 -137.333 -25 -222c-73.333 -377.333 -240.666 -566 -501.999 -566
c-164.667 0 -263 61.333 -295 184h-5c0 -6.66699 -2.66699 -25.334 -8 -56.001s-39.666 -208.334 -102.999 -533.001h-181l371 1909h180l-82 -423l-34 -157h7z" />
    <glyph glyph-name="ydieresis" unicode="&#xff;" 
d="M104 -425c-48 0 -88.332 3.66602 -120.999 10.999l26 135c24 -4 51.667 -6 83 -6c52.667 0 106 19.667 160 59s105.333 102 154 188l27 49l-262 1071h192l140 -642c7.33301 -32.667 17.166 -80.5 29.499 -143.5s18.5 -99.833 18.5 -110.5
c6.66699 14.667 27.667 51.334 63 110.001l462 786h190l-666 -1082c-93.333 -161.333 -177.5 -272.5 -252.5 -333.5s-156.167 -91.5 -243.5 -91.5zM866.001 1219l36 184h163l-36 -184h-163zM472.001 1219l36 184h165l-36 -184h-165z" />
    <glyph glyph-name="Amacron" unicode="&#x100;" 
d="M929 0l-64 382h-563l-211 -382h-196l772 1349h217l239 -1349h-194zM745 1205l-82.5 -161l-280.5 -513h463l-76 500zM1077 1503h-551l25 127h551z" />
    <glyph glyph-name="amacron" unicode="&#x101;" 
d="M1018 111c18 0 38.001 2.33301 60.001 7l-22 -112c-46.667 -10.667 -94 -16 -142 -16c-58 0 -99.167 12.667 -123.5 38s-36.5 63.333 -36.5 114l5 65h-6c-59.333 -81.333 -122.166 -139.5 -188.499 -174.5s-142.166 -52.5 -227.499 -52.5
c-88.667 0 -154.834 20.667 -198.501 62s-65.5 98.333 -65.5 171c0 27.333 3 57 9 89c45.333 232.667 219.666 350.667 522.999 354l236 4c11.333 54 17.833 88.167 19.5 102.5s2.5 29.5 2.5 45.5c0 56.667 -15.333 97 -46 121s-76.667 36 -138 36
c-77.333 0 -135.833 -13.167 -175.5 -39.5s-69.834 -70.5 -90.501 -132.5l-185 17c36 99.333 93.5 172.833 172.5 220.5s181.5 71.5 307.5 71.5c226.667 0 340 -89 340 -267c0 -30 -3.33301 -62.333 -10 -97l-90 -466c-6 -28.667 -9 -54 -9 -76c0 -28 6 -49.167 18 -63.5
s32.333 -21.5 61 -21.5zM410.001 117c63.333 0 122.669 15.166 178.002 45.499s101.666 71.166 138.999 122.499s61.333 104.666 72 159.999l18 89l-191 -4c-90 -1.33301 -159.833 -13.166 -209.5 -35.499s-87.334 -55.666 -113.001 -99.999s-38.5 -92.166 -38.5 -143.499
c0 -41.333 12.167 -74 36.5 -98s60.5 -36 108.5 -36zM986.004 1236h-551l25 127h551z" />
    <glyph glyph-name="Abreve" unicode="&#x102;" 
d="M929 0l-64 382h-563l-211 -382h-196l772 1349h217l239 -1349h-194zM745 1205l-82.5 -161l-280.5 -513h463l-76 500zM789 1446c-80 0 -143.5 23 -190.5 69s-70.5 107.333 -70.5 184v6h127c5.33301 -88.667 58.333 -133 159 -133c56.667 0 101.5 11.667 134.5 35
s59.167 56 78.5 98h127c-32.667 -81.333 -81 -144.833 -145 -190.5s-137.333 -68.5 -220 -68.5z" />
    <glyph glyph-name="abreve" unicode="&#x103;" 
d="M1018 111c18 0 38.001 2.33301 60.001 7l-22 -112c-46.667 -10.667 -94 -16 -142 -16c-58 0 -99.167 12.667 -123.5 38s-36.5 63.333 -36.5 114l5 65h-6c-59.333 -81.333 -122.166 -139.5 -188.499 -174.5s-142.166 -52.5 -227.499 -52.5
c-88.667 0 -154.834 20.667 -198.501 62s-65.5 98.333 -65.5 171c0 27.333 3 57 9 89c45.333 232.667 219.666 350.667 522.999 354l236 4c11.333 54 17.833 88.167 19.5 102.5s2.5 29.5 2.5 45.5c0 56.667 -15.333 97 -46 121s-76.667 36 -138 36
c-77.333 0 -135.833 -13.167 -175.5 -39.5s-69.834 -70.5 -90.501 -132.5l-185 17c36 99.333 93.5 172.833 172.5 220.5s181.5 71.5 307.5 71.5c226.667 0 340 -89 340 -267c0 -30 -3.33301 -62.333 -10 -97l-90 -466c-6 -28.667 -9 -54 -9 -76c0 -28 6 -49.167 18 -63.5
s32.333 -21.5 61 -21.5zM410.001 117c63.333 0 122.669 15.166 178.002 45.499s101.666 71.166 138.999 122.499s61.333 104.666 72 159.999l18 89l-191 -4c-90 -1.33301 -159.833 -13.166 -209.5 -35.499s-87.334 -55.666 -113.001 -99.999s-38.5 -92.166 -38.5 -143.499
c0 -41.333 12.167 -74 36.5 -98s60.5 -36 108.5 -36zM722.004 1201c-80 0 -143.5 23 -190.5 69s-70.5 107.333 -70.5 184v6h127c5.33301 -88.667 58.333 -133 159 -133c56.667 0 101.5 11.667 134.5 35s59.167 56 78.5 98h127c-32.667 -81.333 -81 -144.833 -145 -190.5
s-137.333 -68.5 -220 -68.5z" />
    <glyph glyph-name="Aogonek" unicode="&#x104;" 
d="M929 0l-64 382h-563l-211 -382h-196l772 1349h217l239 -1349h-194zM745 1205l-82.5 -161l-280.5 -513h463l-76 500zM922 -416c-60.667 0 -105.832 12.832 -135.499 38.499s-44.5 60.5 -44.5 104.5c0 53.333 19.167 105.833 57.5 157.5s88.166 93.834 149.499 126.501h133
c-55.333 -28.667 -101.333 -67.5 -138 -116.5s-55 -93.5 -55 -133.5c0 -44.667 26 -67 78 -67c36.667 0 76.667 8 120 24l-21 -107c-44.667 -18 -92.667 -27 -144 -27z" />
    <glyph glyph-name="aogonek" unicode="&#x105;" 
d="M1018 111c18 0 38.001 2.33301 60.001 7l-22 -112c-46.667 -10.667 -94 -16 -142 -16c-58 0 -99.167 12.667 -123.5 38s-36.5 63.333 -36.5 114l5 65h-6c-59.333 -81.333 -122.166 -139.5 -188.499 -174.5s-142.166 -52.5 -227.499 -52.5
c-88.667 0 -154.834 20.667 -198.501 62s-65.5 98.333 -65.5 171c0 27.333 3 57 9 89c45.333 232.667 219.666 350.667 522.999 354l236 4c11.333 54 17.833 88.167 19.5 102.5s2.5 29.5 2.5 45.5c0 56.667 -15.333 97 -46 121s-76.667 36 -138 36
c-77.333 0 -135.833 -13.167 -175.5 -39.5s-69.834 -70.5 -90.501 -132.5l-185 17c36 99.333 93.5 172.833 172.5 220.5s181.5 71.5 307.5 71.5c226.667 0 340 -89 340 -267c0 -30 -3.33301 -62.333 -10 -97l-90 -466c-6 -28.667 -9 -54 -9 -76c0 -28 6 -49.167 18 -63.5
s32.333 -21.5 61 -21.5zM410.001 117c63.333 0 122.669 15.166 178.002 45.499s101.666 71.166 138.999 122.499s61.333 104.666 72 159.999l18 89l-191 -4c-90 -1.33301 -159.833 -13.166 -209.5 -35.499s-87.334 -55.666 -113.001 -99.999s-38.5 -92.166 -38.5 -143.499
c0 -41.333 12.167 -74 36.5 -98s60.5 -36 108.5 -36zM833.004 -427.001c-60.667 0 -105.832 12.832 -135.499 38.499s-44.5 60.5 -44.5 104.5c0 53.333 19.167 105.833 57.5 157.5s88.166 93.834 149.499 126.501h133c-55.333 -28.667 -101.333 -67.5 -138 -116.5
s-55 -93.5 -55 -133.5c0 -44.667 26 -67 78 -67c36.667 0 76.667 8 120 24l-21 -107c-44.667 -18 -92.667 -27 -144 -27z" />
    <glyph glyph-name="Cacute" unicode="&#x106;" 
d="M316 452c0 -211.333 88.666 -317.001 265.999 -317.001c68.667 0 135.334 23.833 200.001 71.5s123.667 117.834 177 210.501l146 -65c-148.667 -248 -333.667 -372 -555 -372c-141.333 0 -249 39.5 -323 118.5s-111 195.167 -111 348.5c0 110 17.333 228.333 52 355
s81.5 231.667 140.5 315s130.5 146.333 214.5 189s179.667 64 287 64c223.333 0 357 -111.667 401 -335l-180 -65c-12 79.333 -40 139.833 -84 181.5s-99.333 62.5 -166 62.5c-72 0 -135.167 -17 -189.5 -51s-101 -85.333 -140 -154s-71.333 -157.5 -97 -266.5
s-38.5 -205.833 -38.5 -290.5zM708.999 1445l4 20l274 239h197l-6 -29l-345 -230h-124z" />
    <glyph glyph-name="cacute" unicode="&#x107;" 
d="M741 1102c120.667 0 214.667 -28.8359 282 -86.5029s101 -136.5 101 -236.5l-194 -14v6c0 57.333 -17.667 103.333 -53 138s-92.333 52 -171 52c-89.333 0 -163 -23.5 -221 -70.5s-103.167 -122.167 -135.5 -225.5s-48.5 -201 -48.5 -293c0 -87.333 20 -151.333 60 -192
s100 -61 180 -61c72 0 135.167 17.667 189.5 53s94.166 89.333 119.499 162l188 -12c-21.333 -64 -56.833 -122.167 -106.5 -174.5s-110 -93.333 -181 -123s-147.167 -44.5 -228.5 -44.5c-135.333 0 -237.5 33 -306.5 99s-103.5 162.667 -103.5 290
c0 84.667 13.833 174.834 41.5 270.501s69 178.834 124 249.501s121.333 123.834 199 159.501s165.834 53.5 264.501 53.5zM632 1201l4 20l274 239h197l-6 -29l-345 -230h-124z" />
    <glyph glyph-name="Ccircumflex" unicode="&#x108;" 
d="M316 452c0 -211.333 88.666 -317.001 265.999 -317.001c68.667 0 135.334 23.833 200.001 71.5s123.667 117.834 177 210.501l146 -65c-148.667 -248 -333.667 -372 -555 -372c-141.333 0 -249 39.5 -323 118.5s-111 195.167 -111 348.5c0 110 17.333 228.333 52 355
s81.5 231.667 140.5 315s130.5 146.333 214.5 189s179.667 64 287 64c223.333 0 357 -111.667 401 -335l-180 -65c-12 79.333 -40 139.833 -84 181.5s-99.333 62.5 -166 62.5c-72 0 -135.167 -17 -189.5 -51s-101 -85.333 -140 -154s-71.333 -157.5 -97 -266.5
s-38.5 -205.833 -38.5 -290.5zM1145 1466l-4 -20h-105l-192 138h-2l-259 -138h-104l4 20l301 239h164z" />
    <glyph glyph-name="ccircumflex" unicode="&#x109;" 
d="M741 1102c120.667 0 214.667 -28.8359 282 -86.5029s101 -136.5 101 -236.5l-194 -14v6c0 57.333 -17.667 103.333 -53 138s-92.333 52 -171 52c-89.333 0 -163 -23.5 -221 -70.5s-103.167 -122.167 -135.5 -225.5s-48.5 -201 -48.5 -293c0 -87.333 20 -151.333 60 -192
s100 -61 180 -61c72 0 135.167 17.667 189.5 53s94.166 89.333 119.499 162l188 -12c-21.333 -64 -56.833 -122.167 -106.5 -174.5s-110 -93.333 -181 -123s-147.167 -44.5 -228.5 -44.5c-135.333 0 -237.5 33 -306.5 99s-103.5 162.667 -103.5 290
c0 84.667 13.833 174.834 41.5 270.501s69 178.834 124 249.501s121.333 123.834 199 159.501s165.834 53.5 264.501 53.5zM1077 1221l-4 -20h-105l-192 138h-2l-259 -138h-104l4 20l301 239h164z" />
    <glyph glyph-name="Cdotaccent" unicode="&#x10a;" 
d="M316 452c0 -211.333 88.666 -317.001 265.999 -317.001c68.667 0 135.334 23.833 200.001 71.5s123.667 117.834 177 210.501l146 -65c-148.667 -248 -333.667 -372 -555 -372c-141.333 0 -249 39.5 -323 118.5s-111 195.167 -111 348.5c0 110 17.333 228.333 52 355
s81.5 231.667 140.5 315s130.5 146.333 214.5 189s179.667 64 287 64c223.333 0 357 -111.667 401 -335l-180 -65c-12 79.333 -40 139.833 -84 181.5s-99.333 62.5 -166 62.5c-72 0 -135.167 -17 -189.5 -51s-101 -85.333 -140 -154s-71.333 -157.5 -97 -266.5
s-38.5 -205.833 -38.5 -290.5zM720.999 1446l37 192h200l-37 -192h-200z" />
    <glyph glyph-name="cdotaccent" unicode="&#x10b;" 
d="M741 1102c120.667 0 214.667 -28.8359 282 -86.5029s101 -136.5 101 -236.5l-194 -14v6c0 57.333 -17.667 103.333 -53 138s-92.333 52 -171 52c-89.333 0 -163 -23.5 -221 -70.5s-103.167 -122.167 -135.5 -225.5s-48.5 -201 -48.5 -293c0 -87.333 20 -151.333 60 -192
s100 -61 180 -61c72 0 135.167 17.667 189.5 53s94.166 89.333 119.499 162l188 -12c-21.333 -64 -56.833 -122.167 -106.5 -174.5s-110 -93.333 -181 -123s-147.167 -44.5 -228.5 -44.5c-135.333 0 -237.5 33 -306.5 99s-103.5 162.667 -103.5 290
c0 84.667 13.833 174.834 41.5 270.501s69 178.834 124 249.501s121.333 123.834 199 159.501s165.834 53.5 264.501 53.5zM681 1292l37 192h200l-37 -192h-200z" />
    <glyph glyph-name="Ccaron" unicode="&#x10c;" 
d="M316 452c0 -211.333 88.666 -317.001 265.999 -317.001c68.667 0 135.334 23.833 200.001 71.5s123.667 117.834 177 210.501l146 -65c-148.667 -248 -333.667 -372 -555 -372c-141.333 0 -249 39.5 -323 118.5s-111 195.167 -111 348.5c0 110 17.333 228.333 52 355
s81.5 231.667 140.5 315s130.5 146.333 214.5 189s179.667 64 287 64c223.333 0 357 -111.667 401 -335l-180 -65c-12 79.333 -40 139.833 -84 181.5s-99.333 62.5 -166 62.5c-72 0 -135.167 -17 -189.5 -51s-101 -85.333 -140 -154s-71.333 -157.5 -97 -266.5
s-38.5 -205.833 -38.5 -290.5zM893.999 1446h-164l-207 239l4 20h104l205 -138h2l246 138h105l-4 -20z" />
    <glyph glyph-name="ccaron" unicode="&#x10d;" 
d="M741 1102c120.667 0 214.667 -28.8359 282 -86.5029s101 -136.5 101 -236.5l-194 -14v6c0 57.333 -17.667 103.333 -53 138s-92.333 52 -171 52c-89.333 0 -163 -23.5 -221 -70.5s-103.167 -122.167 -135.5 -225.5s-48.5 -201 -48.5 -293c0 -87.333 20 -151.333 60 -192
s100 -61 180 -61c72 0 135.167 17.667 189.5 53s94.166 89.333 119.499 162l188 -12c-21.333 -64 -56.833 -122.167 -106.5 -174.5s-110 -93.333 -181 -123s-147.167 -44.5 -228.5 -44.5c-135.333 0 -237.5 33 -306.5 99s-103.5 162.667 -103.5 290
c0 84.667 13.833 174.834 41.5 270.501s69 178.834 124 249.501s121.333 123.834 199 159.501s165.834 53.5 264.501 53.5zM825 1201h-164l-207 239l4 20h104l205 -138h2l246 138h105l-4 -20z" />
    <glyph glyph-name="Dcaron" unicode="&#x10e;" 
d="M427 0h-370.002l262 1349h311c363.333 0 545 -153 545 -459c0 -105.333 -18 -217 -54 -335s-86.667 -218.5 -152 -301.5s-143.666 -146 -234.999 -189s-193.666 -64.5 -306.999 -64.5zM980.998 865c0 115.333 -31.5 198.834 -94.5 250.501s-158.167 77.5 -285.5 77.5
h-121l-202 -1037h162c85.333 0 160.5 16.167 225.5 48.5s120.5 81.166 166.5 146.499s82.333 147.333 109 246s40 188 40 268zM846.998 1446h-164l-207 239l4 20h104l205 -138h2l246 138h105l-4 -20z" />
    <glyph glyph-name="dcaron" unicode="&#x10f;" 
d="M592 174c-46 -70 -94.332 -120.833 -144.999 -152.5s-108.334 -47.5 -173.001 -47.5c-84 0 -149.667 28.667 -197 86s-71 143.333 -71 258c0 84 12.667 177.667 38 281s59.666 192.666 102.999 267.999s94.333 132.666 153 171.999s122.667 59 192 59
c65.333 0 117.333 -14.333 156 -43s68 -75.667 88 -141h2l21 120l87 450h180l-245 -1261c-21.333 -119.333 -33.666 -193.666 -36.999 -222.999h-172v4c0 28.667 8 85.334 24 170.001h-4zM191.001 313c0 -69.333 11.502 -120.001 34.502 -152.001s58.5 -48 106.5 -48
c45.333 0 89.166 15.833 131.499 47.5s80.166 77.334 113.499 137.001s59.333 128.167 78 205.5s28 146 28 206c0 79.333 -16.167 141.833 -48.5 187.5s-77.5 68.5 -135.5 68.5c-61.333 0 -113.5 -27.833 -156.5 -83.5s-79 -143.5 -108 -263.5s-43.5 -221.667 -43.5 -305z
M1075 1159l7 33l135 292h197l-7 -37l-227 -288h-105z" />
    <glyph glyph-name="Dcroat" unicode="&#x110;" 
d="M427 0h-370.002l116 597h-135l29 149h135l117 603h311c363.333 0 545 -153 545 -459c0 -105.333 -18 -217 -54 -335s-86.667 -218.5 -152 -301.5s-143.666 -146 -234.999 -189s-193.666 -64.5 -306.999 -64.5zM652.998 597l-289 0.000976562l-86 -441h162
c85.333 0 160.5 16.167 225.5 48.5s120.5 81.166 166.5 146.499s82.333 147.333 109 246s40 188 40 268c0 115.333 -31.5 198.833 -94.5 250.5s-158.167 77.5 -285.5 77.5h-121l-87 -447h289z" />
    <glyph glyph-name="dcroat" unicode="&#x111;" 
d="M1170 1196l-189.001 -973.001c-21.333 -119.333 -33.666 -193.666 -36.999 -222.999h-172v4c0 28.667 8 85.334 24 170.001h-5c-46 -70 -99.167 -120.833 -159.5 -152.5s-130.833 -47.5 -211.5 -47.5c-105.333 0 -183.333 27.333 -234 82s-76 138 -76 250
c0 57.333 7.66699 127.666 23 210.999c72 370 238.667 555 500 555c80.667 0 145.5 -14.333 194.5 -43s83.5 -75.667 103.5 -141h2l5 26l52 282h-300l26 131h300l30 157h180l-30 -157h131l-26 -131h-131zM298.999 333.999c0 -76.667 15.833 -132.666 47.5 -167.999
s80.834 -53 147.501 -53c62.667 0 117 13.5 163 40.5s85.333 68.5 118 124.5s58.667 126.667 78 212s29 156.666 29 213.999c0 79.333 -17.833 138.333 -53.5 177s-92.834 58 -171.501 58c-78 0 -142.167 -25.5 -192.5 -76.5s-90.5 -131 -120.5 -240
s-45 -205.167 -45 -288.5z" />
    <glyph glyph-name="Emacron" unicode="&#x112;" 
d="M57 0l262 1349h919l-30 -156h-728l-82 -422h668l-30 -154h-668l-90 -461h769l-30 -156h-960zM1093 1503h-551l25 127h551z" />
    <glyph glyph-name="emacron" unicode="&#x113;" 
d="M315 503c-8.66699 -46 -13 -86.332 -13 -120.999c0 -86 20.833 -152 62.5 -198s100.167 -69 175.5 -69c68 0 130.833 14.667 188.5 44s100.5 70 128.5 122l149 -45c-46 -82.667 -112.167 -146 -198.5 -190s-184.166 -66 -293.499 -66c-129.333 0 -228 33.5 -296 100.5
s-102 163.5 -102 289.5c0 82.667 13.333 172.167 40 268.5s66.667 179.666 120 249.999s117.666 123.5 192.999 159.5s161 54 257 54c257.333 0 386 -126.333 386 -379c0 -60.667 -7 -126 -21 -196l-4 -24h-772zM702 969.001c-88.667 0 -164.5 -29 -227.5 -87
s-106.5 -138.333 -130.5 -241h584l4 72c0 170.667 -76.667 256 -230 256zM1025 1236h-551l25 127h551z" />
    <glyph glyph-name="Ebreve" unicode="&#x114;" 
d="M57 0l262 1349h919l-30 -156h-728l-82 -422h668l-30 -154h-668l-90 -461h769l-30 -156h-960zM789 1446c-80 0 -143.5 23 -190.5 69s-70.5 107.333 -70.5 184v6h127c5.33301 -88.667 58.333 -133 159 -133c56.667 0 101.5 11.667 134.5 35s59.167 56 78.5 98h127
c-32.667 -81.333 -81 -144.833 -145 -190.5s-137.333 -68.5 -220 -68.5z" />
    <glyph glyph-name="ebreve" unicode="&#x115;" 
d="M315 503c-8.66699 -46 -13 -86.332 -13 -120.999c0 -86 20.833 -152 62.5 -198s100.167 -69 175.5 -69c68 0 130.833 14.667 188.5 44s100.5 70 128.5 122l149 -45c-46 -82.667 -112.167 -146 -198.5 -190s-184.166 -66 -293.499 -66c-129.333 0 -228 33.5 -296 100.5
s-102 163.5 -102 289.5c0 82.667 13.333 172.167 40 268.5s66.667 179.666 120 249.999s117.666 123.5 192.999 159.5s161 54 257 54c257.333 0 386 -126.333 386 -379c0 -60.667 -7 -126 -21 -196l-4 -24h-772zM702 969.001c-88.667 0 -164.5 -29 -227.5 -87
s-106.5 -138.333 -130.5 -241h584l4 72c0 170.667 -76.667 256 -230 256zM745 1201c-80 0 -143.5 23 -190.5 69s-70.5 107.333 -70.5 184v6h127c5.33301 -88.667 58.333 -133 159 -133c56.667 0 101.5 11.667 134.5 35s59.167 56 78.5 98h127
c-32.667 -81.333 -81 -144.833 -145 -190.5s-137.333 -68.5 -220 -68.5z" />
    <glyph glyph-name="Edotaccent" unicode="&#x116;" 
d="M57 0l262 1349h919l-30 -156h-728l-82 -422h668l-30 -154h-668l-90 -461h769l-30 -156h-960zM691 1446l37 192h200l-37 -192h-200z" />
    <glyph glyph-name="edotaccent" unicode="&#x117;" 
d="M315 503c-8.66699 -46 -13 -86.332 -13 -120.999c0 -86 20.833 -152 62.5 -198s100.167 -69 175.5 -69c68 0 130.833 14.667 188.5 44s100.5 70 128.5 122l149 -45c-46 -82.667 -112.167 -146 -198.5 -190s-184.166 -66 -293.499 -66c-129.333 0 -228 33.5 -296 100.5
s-102 163.5 -102 289.5c0 82.667 13.333 172.167 40 268.5s66.667 179.666 120 249.999s117.666 123.5 192.999 159.5s161 54 257 54c257.333 0 386 -126.333 386 -379c0 -60.667 -7 -126 -21 -196l-4 -24h-772zM702 969.001c-88.667 0 -164.5 -29 -227.5 -87
s-106.5 -138.333 -130.5 -241h584l4 72c0 170.667 -76.667 256 -230 256zM664 1298l37 192h200l-37 -192h-200z" />
    <glyph glyph-name="Eogonek" unicode="&#x118;" 
d="M57 0l262 1349h919l-30 -156h-728l-82 -422h668l-30 -154h-668l-90 -461h769l-30 -156h-960zM795 -427c-60.667 0 -105.832 12.832 -135.499 38.499s-44.5 60.5 -44.5 104.5c0 53.333 19.167 105.833 57.5 157.5s88.166 93.834 149.499 126.501h133
c-55.333 -28.667 -101.333 -67.5 -138 -116.5s-55 -93.5 -55 -133.5c0 -44.667 26 -67 78 -67c36.667 0 76.667 8 120 24l-21 -107c-44.667 -18 -92.667 -27 -144 -27z" />
    <glyph glyph-name="eogonek" unicode="&#x119;" 
d="M315 503c-8.66699 -46 -13 -86.332 -13 -120.999c0 -86 20.833 -152 62.5 -198s100.167 -69 175.5 -69c68 0 130.833 14.667 188.5 44s100.5 70 128.5 122l149 -45c-46 -82.667 -112.167 -146 -198.5 -190s-184.166 -66 -293.499 -66c-129.333 0 -228 33.5 -296 100.5
s-102 163.5 -102 289.5c0 82.667 13.333 172.167 40 268.5s66.667 179.666 120 249.999s117.666 123.5 192.999 159.5s161 54 257 54c257.333 0 386 -126.333 386 -379c0 -60.667 -7 -126 -21 -196l-4 -24h-772zM702 969.001c-88.667 0 -164.5 -29 -227.5 -87
s-106.5 -138.333 -130.5 -241h584l4 72c0 170.667 -76.667 256 -230 256zM526 -426.999c-60.667 0 -105.832 12.832 -135.499 38.499s-44.5 60.5 -44.5 104.5c0 53.333 19.167 105.833 57.5 157.5s88.166 93.834 149.499 126.501h133
c-55.333 -28.667 -101.333 -67.5 -138 -116.5s-55 -93.5 -55 -133.5c0 -44.667 26 -67 78 -67c36.667 0 76.667 8 120 24l-21 -107c-44.667 -18 -92.667 -27 -144 -27z" />
    <glyph glyph-name="Ecaron" unicode="&#x11a;" 
d="M57 0l262 1349h919l-30 -156h-728l-82 -422h668l-30 -154h-668l-90 -461h769l-30 -156h-960zM877 1446h-164l-207 239l4 20h104l205 -138h2l246 138h105l-4 -20z" />
    <glyph glyph-name="ecaron" unicode="&#x11b;" 
d="M315 503c-8.66699 -46 -13 -86.332 -13 -120.999c0 -86 20.833 -152 62.5 -198s100.167 -69 175.5 -69c68 0 130.833 14.667 188.5 44s100.5 70 128.5 122l149 -45c-46 -82.667 -112.167 -146 -198.5 -190s-184.166 -66 -293.499 -66c-129.333 0 -228 33.5 -296 100.5
s-102 163.5 -102 289.5c0 82.667 13.333 172.167 40 268.5s66.667 179.666 120 249.999s117.666 123.5 192.999 159.5s161 54 257 54c257.333 0 386 -126.333 386 -379c0 -60.667 -7 -126 -21 -196l-4 -24h-772zM702 969.001c-88.667 0 -164.5 -29 -227.5 -87
s-106.5 -138.333 -130.5 -241h584l4 72c0 170.667 -76.667 256 -230 256zM822 1201h-164l-207 239l4 20h104l205 -138h2l246 138h105l-4 -20z" />
    <glyph glyph-name="Gcircumflex" unicode="&#x11c;" 
d="M530 -20c-132.667 0 -234.832 40.168 -306.499 120.501s-107.5 197.166 -107.5 350.499c0 107.333 17.667 225.166 53 353.499s82 233.833 140 316.5s128 144.834 210 186.501s176.667 62.5 284 62.5c229.333 0 361.666 -110.333 396.999 -331l-182 -56
c-24 154 -105 231 -243 231c-71.333 0 -133.5 -16.5 -186.5 -49.5s-98.5 -82.833 -136.5 -149.5s-70.167 -155.5 -96.5 -266.5s-39.5 -208.833 -39.5 -293.5c0 -213.333 86.667 -320 260 -320c45.333 0 93.5 7 144.5 21s94.5 31.667 130.5 53l65 336h-293l31 160h479
l-111 -572c-170 -102 -334 -153 -492 -153zM1125 1466l-4 -20h-105l-192 138h-2l-259 -138h-104l4 20l301 239h164z" />
    <glyph glyph-name="gcircumflex" unicode="&#x11d;" 
d="M428 -424c-112.667 0 -198.334 22.998 -257.001 68.998s-89.334 112 -92.001 198l189 25c1.33301 -50 18.333 -88.5 51 -115.5s79.667 -40.5 141 -40.5c166.667 0 269.667 105 309 315l38 194h-2c-94 -139.333 -222 -209 -384 -209c-104 0 -180.167 26.167 -228.5 78.5
s-72.5 131.5 -72.5 237.5c0 82.667 13.333 179.834 40 291.501s62 202 106 271s97.833 121 161.5 156s138.5 52.5 224.5 52.5c75.333 0 137.333 -17.5 186 -52.5s81.667 -84.833 99 -149.5h3c4.66699 24.667 13 60.167 25 106.5s19.667 72.5 23 78.5h171l-19 -82l-30 -142
l-161 -826c-29.333 -151.333 -86.666 -265.166 -171.999 -341.499s-201.666 -114.5 -348.999 -114.5zM887 696.998c0 84 -18.832 149.666 -56.499 196.999s-90.834 71 -159.501 71c-60 0 -111 -13 -153 -39s-77.667 -66.667 -107 -122s-53.833 -128.833 -73.5 -220.5
s-29.5 -167.834 -29.5 -228.501c0 -73.333 15.5 -126.666 46.5 -159.999s82.167 -50 153.5 -50c53.333 0 103.5 14.333 150.5 43s87.833 69.834 122.5 123.501s61 116.667 79 189s27 137.833 27 196.5zM1068 1221l-4 -20h-105l-192 138h-2l-259 -138h-104l4 20l301 239h164z
" />
    <glyph glyph-name="Gbreve" unicode="&#x11e;" 
d="M530 -20c-132.667 0 -234.832 40.168 -306.499 120.501s-107.5 197.166 -107.5 350.499c0 107.333 17.667 225.166 53 353.499s82 233.833 140 316.5s128 144.834 210 186.501s176.667 62.5 284 62.5c229.333 0 361.666 -110.333 396.999 -331l-182 -56
c-24 154 -105 231 -243 231c-71.333 0 -133.5 -16.5 -186.5 -49.5s-98.5 -82.833 -136.5 -149.5s-70.167 -155.5 -96.5 -266.5s-39.5 -208.833 -39.5 -293.5c0 -213.333 86.667 -320 260 -320c45.333 0 93.5 7 144.5 21s94.5 31.667 130.5 53l65 336h-293l31 160h479
l-111 -572c-170 -102 -334 -153 -492 -153zM792.002 1446c-80 0 -143.5 23 -190.5 69s-70.5 107.333 -70.5 184v6h127c5.33301 -88.667 58.333 -133 159 -133c56.667 0 101.5 11.667 134.5 35s59.167 56 78.5 98h127c-32.667 -81.333 -81 -144.833 -145 -190.5
s-137.333 -68.5 -220 -68.5z" />
    <glyph glyph-name="gbreve" unicode="&#x11f;" 
d="M428 -424c-112.667 0 -198.334 22.998 -257.001 68.998s-89.334 112 -92.001 198l189 25c1.33301 -50 18.333 -88.5 51 -115.5s79.667 -40.5 141 -40.5c166.667 0 269.667 105 309 315l38 194h-2c-94 -139.333 -222 -209 -384 -209c-104 0 -180.167 26.167 -228.5 78.5
s-72.5 131.5 -72.5 237.5c0 82.667 13.333 179.834 40 291.501s62 202 106 271s97.833 121 161.5 156s138.5 52.5 224.5 52.5c75.333 0 137.333 -17.5 186 -52.5s81.667 -84.833 99 -149.5h3c4.66699 24.667 13 60.167 25 106.5s19.667 72.5 23 78.5h171l-19 -82l-30 -142
l-161 -826c-29.333 -151.333 -86.666 -265.166 -171.999 -341.499s-201.666 -114.5 -348.999 -114.5zM887 696.998c0 84 -18.832 149.666 -56.499 196.999s-90.834 71 -159.501 71c-60 0 -111 -13 -153 -39s-77.667 -66.667 -107 -122s-53.833 -128.833 -73.5 -220.5
s-29.5 -167.834 -29.5 -228.501c0 -73.333 15.5 -126.666 46.5 -159.999s82.167 -50 153.5 -50c53.333 0 103.5 14.333 150.5 43s87.833 69.834 122.5 123.501s61 116.667 79 189s27 137.833 27 196.5zM732.001 1201c-80 0 -143.5 23 -190.5 69s-70.5 107.333 -70.5 184v6
h127c5.33301 -88.667 58.333 -133 159 -133c56.667 0 101.5 11.667 134.5 35s59.167 56 78.5 98h127c-32.667 -81.333 -81 -144.833 -145 -190.5s-137.333 -68.5 -220 -68.5z" />
    <glyph glyph-name="Gdotaccent" unicode="&#x120;" 
d="M530 -20c-132.667 0 -234.832 40.168 -306.499 120.501s-107.5 197.166 -107.5 350.499c0 107.333 17.667 225.166 53 353.499s82 233.833 140 316.5s128 144.834 210 186.501s176.667 62.5 284 62.5c229.333 0 361.666 -110.333 396.999 -331l-182 -56
c-24 154 -105 231 -243 231c-71.333 0 -133.5 -16.5 -186.5 -49.5s-98.5 -82.833 -136.5 -149.5s-70.167 -155.5 -96.5 -266.5s-39.5 -208.833 -39.5 -293.5c0 -213.333 86.667 -320 260 -320c45.333 0 93.5 7 144.5 21s94.5 31.667 130.5 53l65 336h-293l31 160h479
l-111 -572c-170 -102 -334 -153 -492 -153zM701.002 1446l37 192h200l-37 -192h-200z" />
    <glyph glyph-name="gdotaccent" unicode="&#x121;" 
d="M428 -424c-112.667 0 -198.334 22.998 -257.001 68.998s-89.334 112 -92.001 198l189 25c1.33301 -50 18.333 -88.5 51 -115.5s79.667 -40.5 141 -40.5c166.667 0 269.667 105 309 315l38 194h-2c-94 -139.333 -222 -209 -384 -209c-104 0 -180.167 26.167 -228.5 78.5
s-72.5 131.5 -72.5 237.5c0 82.667 13.333 179.834 40 291.501s62 202 106 271s97.833 121 161.5 156s138.5 52.5 224.5 52.5c75.333 0 137.333 -17.5 186 -52.5s81.667 -84.833 99 -149.5h3c4.66699 24.667 13 60.167 25 106.5s19.667 72.5 23 78.5h171l-19 -82l-30 -142
l-161 -826c-29.333 -151.333 -86.666 -265.166 -171.999 -341.499s-201.666 -114.5 -348.999 -114.5zM887 696.998c0 84 -18.832 149.666 -56.499 196.999s-90.834 71 -159.501 71c-60 0 -111 -13 -153 -39s-77.667 -66.667 -107 -122s-53.833 -128.833 -73.5 -220.5
s-29.5 -167.834 -29.5 -228.501c0 -73.333 15.5 -126.666 46.5 -159.999s82.167 -50 153.5 -50c53.333 0 103.5 14.333 150.5 43s87.833 69.834 122.5 123.501s61 116.667 79 189s27 137.833 27 196.5zM652.001 1292l37 192h200l-37 -192h-200z" />
    <glyph glyph-name="Gcommaaccent" unicode="&#x122;" 
d="M530 -20c-132.667 0 -234.832 40.168 -306.499 120.501s-107.5 197.166 -107.5 350.499c0 107.333 17.667 225.166 53 353.499s82 233.833 140 316.5s128 144.834 210 186.501s176.667 62.5 284 62.5c229.333 0 361.666 -110.333 396.999 -331l-182 -56
c-24 154 -105 231 -243 231c-71.333 0 -133.5 -16.5 -186.5 -49.5s-98.5 -82.833 -136.5 -149.5s-70.167 -155.5 -96.5 -266.5s-39.5 -208.833 -39.5 -293.5c0 -213.333 86.667 -320 260 -320c45.333 0 93.5 7 144.5 21s94.5 31.667 130.5 53l65 336h-293l31 160h479
l-111 -572c-170 -102 -334 -153 -492 -153zM288.002 -422.999l6 33l136 292h197l-7 -37l-227 -288h-105z" />
    <glyph glyph-name="gcommaaccent" unicode="&#x123;" 
d="M428 -424c-112.667 0 -198.334 22.998 -257.001 68.998s-89.334 112 -92.001 198l189 25c1.33301 -50 18.333 -88.5 51 -115.5s79.667 -40.5 141 -40.5c166.667 0 269.667 105 309 315l38 194h-2c-94 -139.333 -222 -209 -384 -209c-104 0 -180.167 26.167 -228.5 78.5
s-72.5 131.5 -72.5 237.5c0 82.667 13.333 179.834 40 291.501s62 202 106 271s97.833 121 161.5 156s138.5 52.5 224.5 52.5c75.333 0 137.333 -17.5 186 -52.5s81.667 -84.833 99 -149.5h3c4.66699 24.667 13 60.167 25 106.5s19.667 72.5 23 78.5h171l-19 -82l-30 -142
l-161 -826c-29.333 -151.333 -86.666 -265.166 -171.999 -341.499s-201.666 -114.5 -348.999 -114.5zM887 696.998c0 84 -18.832 149.666 -56.499 196.999s-90.834 71 -159.501 71c-60 0 -111 -13 -153 -39s-77.667 -66.667 -107 -122s-53.833 -128.833 -73.5 -220.5
s-29.5 -167.834 -29.5 -228.501c0 -73.333 15.5 -126.666 46.5 -159.999s82.167 -50 153.5 -50c53.333 0 103.5 14.333 150.5 43s87.833 69.834 122.5 123.501s61 116.667 79 189s27 137.833 27 196.5zM944.001 1536l-7 -33l-136 -292h-197l8 37l227 288h105z" />
    <glyph glyph-name="Hcircumflex" unicode="&#x124;" 
d="M770 0l121 623h-522l-121 -623h-191l262 1349h191l-110 -566h522l110 566h191l-262 -1349h-191zM1124 1466l-4 -20h-105l-192 138h-2l-259 -138h-104l4 20l301 239h164z" />
    <glyph glyph-name="hcircumflex" unicode="&#x125;" 
d="M342 1349l180.999 0.000976562l-58.5 -301c-14.333 -74 -30.833 -144.333 -49.5 -211h3c94.667 136.667 221 205 379 205c192 0 288 -85.667 288 -257c0 -39.333 -4.33301 -80.666 -13 -123.999l-128 -661h-181l123 635c7.33301 35.333 11 68.666 11 99.999
c0 58 -14.333 100.5 -43 127.5s-73.667 40.5 -135 40.5c-83.333 0 -157.166 -30.333 -221.499 -91s-106.833 -142.334 -127.5 -245.001l-110 -567h-180zM1125 1465l-4 -20h-105l-192 139h-2l-259 -139h-104l4 20l300 240h164z" />
    <glyph glyph-name="Hbar" unicode="&#x126;" 
d="M281 1153l38 196h191l-38 -196h522l38 196h191l-38 -196h160l-29 -148h-160l-195 -1005h-191l121 623h-522l-121 -623h-191l195 1005h-160l29 148h160zM922 783l43 222h-522l-43 -222h522z" />
    <glyph glyph-name="hbar" unicode="&#x127;" 
d="M368 1484l181 -0.00195312l-30 -157h299l-26 -131h-299l-21 -110c-5.33301 -28.667 -22.333 -101.667 -51 -219h3c94.667 136.667 220.667 205 378 205c192.667 0 289 -86.333 289 -259c0 -38 -4.33301 -78.667 -13 -122l-134 -691h-181l129 665
c7.33301 38.667 11 71.334 11 98.001c0 58.667 -14.5 101.667 -43.5 129s-74.167 41 -135.5 41c-82.667 0 -156.167 -30.167 -220.5 -90.5s-106.833 -142.166 -127.5 -245.499l-116 -597h-180l232 1196h-132l26 131h132z" />
    <glyph glyph-name="Itilde" unicode="&#x128;" 
d="M359 1349h823l-30 -156h-316l-202 -1037h316l-30 -156h-823l30 156h316l202 1037h-316zM947 1446c-28 0 -54.667 6.16699 -80 18.5s-50 26 -74 41s-47.5 28.667 -70.5 41s-46.167 18.5 -69.5 18.5c-24.667 0 -45 -7.83301 -61 -23.5s-32.333 -47.5 -49 -95.5h-111
c28 91.333 62.5 155.5 103.5 192.5s90.5 55.5 148.5 55.5c29.333 0 56.833 -6.16699 82.5 -18.5s50.334 -26 74.001 -41s46.667 -28.667 69 -41s44.5 -18.5 66.5 -18.5c26.667 0 48.334 9.16699 65.001 27.5s31.667 48.833 45 91.5h112
c-20.667 -64.667 -41.834 -113.167 -63.501 -145.5s-47.834 -57.5 -78.501 -75.5s-67 -27 -109 -27z" />
    <glyph glyph-name="itilde" unicode="&#x129;" 
d="M668 142h380l-28 -142h-982l28 142h422l155 798h-319l27 142h499zM898 1201c-28 0 -54.667 6.16699 -80 18.5s-50 26 -74 41s-47.5 28.667 -70.5 41s-46.167 18.5 -69.5 18.5c-24.667 0 -45 -7.83301 -61 -23.5s-32.333 -47.5 -49 -95.5h-111
c28 91.333 62.5 155.5 103.5 192.5s90.5 55.5 148.5 55.5c29.333 0 56.833 -6.16699 82.5 -18.5s50.334 -26 74.001 -41s46.667 -28.667 69 -41s44.5 -18.5 66.5 -18.5c26.667 0 48.334 9.16699 65.001 27.5s31.667 48.833 45 91.5h112
c-20.667 -64.667 -41.834 -113.167 -63.501 -145.5s-47.834 -57.5 -78.501 -75.5s-67 -27 -109 -27z" />
    <glyph glyph-name="Imacron" unicode="&#x12a;" 
d="M359 1349h823l-30 -156h-316l-202 -1037h316l-30 -156h-823l30 156h316l202 1037h-316zM1077 1503h-551l25 127h551z" />
    <glyph glyph-name="imacron" unicode="&#x12b;" 
d="M668 142h380l-28 -142h-982l28 142h422l155 798h-319l27 142h499zM1031 1236h-551l25 127h551z" />
    <glyph glyph-name="Ibreve" unicode="&#x12c;" 
d="M359 1349h823l-30 -156h-316l-202 -1037h316l-30 -156h-823l30 156h316l202 1037h-316zM788 1445c-80 0 -143.5 23 -190.5 69s-70.5 107.333 -70.5 184v6h127c5.33301 -88.667 58.333 -133 159 -133c56.667 0 101.5 11.667 134.5 35s59.167 56 78.5 98h127
c-32.667 -81.333 -81 -144.833 -145 -190.5s-137.333 -68.5 -220 -68.5z" />
    <glyph glyph-name="ibreve" unicode="&#x12d;" 
d="M668 142h380l-28 -142h-982l28 142h422l155 798h-319l27 142h499zM761 1201c-80 0 -143.5 23 -190.5 69s-70.5 107.333 -70.5 184v6h127c5.33301 -88.667 58.333 -133 159 -133c56.667 0 101.5 11.667 134.5 35s59.167 56 78.5 98h127
c-32.667 -81.333 -81 -144.833 -145 -190.5s-137.333 -68.5 -220 -68.5z" />
    <glyph glyph-name="Iogonek" unicode="&#x12e;" 
d="M359 1349h823l-30 -156h-316l-202 -1037h316l-30 -156h-823l30 156h316l202 1037h-316zM477 -427c-60.667 0 -105.832 12.832 -135.499 38.499s-44.5 60.5 -44.5 104.5c0 53.333 19.167 105.833 57.5 157.5s88.166 93.834 149.499 126.501h133
c-55.333 -28.667 -101.333 -67.5 -138 -116.5s-55 -93.5 -55 -133.5c0 -44.667 26 -67 78 -67c36.667 0 76.667 8 120 24l-21 -107c-44.667 -18 -92.667 -27 -144 -27z" />
    <glyph glyph-name="iogonek" unicode="&#x12f;" 
d="M668 142h380l-28 -142h-982l28 142h422l155 798h-319l27 142h499zM691 1292l37 192h200l-37 -192h-200zM520 -427c-60.667 0 -105.832 12.832 -135.499 38.499s-44.5 60.5 -44.5 104.5c0 53.333 19.167 105.833 57.5 157.5s88.166 93.834 149.499 126.501h133
c-55.333 -28.667 -101.333 -67.5 -138 -116.5s-55 -93.5 -55 -133.5c0 -44.667 26 -67 78 -67c36.667 0 76.667 8 120 24l-21 -107c-44.667 -18 -92.667 -27 -144 -27z" />
    <glyph glyph-name="Idotaccent" unicode="&#x130;" 
d="M359 1349h823l-30 -156h-316l-202 -1037h316l-30 -156h-823l30 156h316l202 1037h-316zM691 1446l37 192h200l-37 -192h-200z" />
    <glyph glyph-name="dotlessi" unicode="&#x131;" 
d="M668 142h380l-28 -142h-982l28 142h422l155 798h-319l27 142h499z" />
    <glyph glyph-name="IJ" unicode="&#x132;" 
d="M255 1349h191l-262 -1349h-191zM689 135c69.333 0 124.5 23.834 165.5 71.501s70.5 117.5 88.5 209.5l151 777h-271l30 156h461l-180 -929c-26.667 -140 -81.167 -248.333 -163.5 -325s-186.5 -115 -312.5 -115c-110 0 -190.5 28.167 -241.5 84.5
s-76.5 148.166 -76.5 275.499v10l192 31v-23c0 -74 12.5 -129.667 37.5 -167s64.833 -56 119.5 -56z" />
    <glyph glyph-name="ij" unicode="&#x133;" 
d="M342 1082h179l-210 -1082h-180zM362 1292l37 192h200l-37 -192h-200zM986 1082h179.999l-215 -1110c-24 -124 -80.333 -221.167 -169 -291.5s-202 -105.5 -340 -105.5c-52.667 0 -105.167 4.33301 -157.5 13s-92.833 18.667 -121.5 30l27 140
c95.333 -22.667 184 -34 266 -34c84.667 0 154.334 21.833 209.001 65.5s90 105.5 106 185.5zM1007 1292l37 192h200l-37 -192h-200z" />
    <glyph glyph-name="Jcircumflex" unicode="&#x134;" 
d="M477 -20c-112.667 0 -197.167 29 -253.5 87s-84.5 149.333 -84.5 274v9l193 31v-19c0 -74.667 15.333 -131.167 46 -169.5s74 -57.5 130 -57.5c139.333 0 227.333 93.667 264 281l151 777h-311l30 156h501l-180 -929c-26 -136.667 -81.5 -244.167 -166.5 -322.5
s-191.5 -117.5 -319.5 -117.5zM1245 1466l-4 -20h-105l-192 138h-2l-259 -138h-104l4 20l301 239h164z" />
    <glyph glyph-name="jcircumflex" unicode="&#x135;" 
d="M217 -425c-52.667 0 -105.168 4.33301 -157.501 13s-92.833 18.667 -121.5 30l27 140c95.333 -22.667 184 -34 266 -34c84.667 0 154.334 21.833 209.001 65.5s90 105.5 106 185.5l188 965h-407l27 142h587l-215 -1110c-24 -124 -80.333 -221.167 -169 -291.5
s-202 -105.5 -340 -105.5zM1181 1221l-4 -20h-105l-192 138h-2l-259 -138h-104l4 20l301 239h164z" />
    <glyph glyph-name="Kcommaaccent" unicode="&#x136;" 
d="M898 0l-359 641l-200 -172l-91 -469h-191l262 1349h191l-131 -673l703 673h225l-615 -572l430 -777h-224zM288 -423l6 33l136 292h197l-7 -37l-227 -288h-105z" />
    <glyph glyph-name="kcommaaccent" unicode="&#x137;" 
d="M809 0l-269 499l-151 -98l-78 -401h-180l288 1484h180l-180 -927l577 525h211l-529 -465l342 -617h-211zM288 -423l6 33l136 292h197l-7 -37l-227 -288h-105z" />
    <glyph glyph-name="kgreenlandic" unicode="&#x138;" 
d="M809 0l-270 494l-151 -98l-77 -396h-180l210 1082h180l-104 -538l579 538h211l-529 -465l342 -617h-211z" />
    <glyph glyph-name="Lacute" unicode="&#x139;" 
d="M132 0l262 1349h191l-232 -1193h672l-30 -156h-863zM480 1446l4 20l274 239h197l-6 -29l-345 -230h-124z" />
    <glyph glyph-name="lacute" unicode="&#x13a;" 
d="M659 142h380l-28 -142h-982l28 142h422l207 1065h-289l27 142h469zM707 1445l4 20l273 240h197l-5 -29l-345 -231h-124z" />
    <glyph glyph-name="Lcommaaccent" unicode="&#x13b;" 
d="M132 0l262 1349h191l-232 -1193h672l-30 -156h-863zM298 -423l6 33l136 292h197l-7 -37l-227 -288h-105z" />
    <glyph glyph-name="lcommaaccent" unicode="&#x13c;" 
d="M659 142h380l-28 -142h-982l28 142h422l233 1200h-289l27 142h469zM288 -423l6 33l136 292h197l-7 -37l-227 -288h-105z" />
    <glyph glyph-name="Lcaron" unicode="&#x13d;" 
d="M132 0l262 1349h191l-232 -1193h672l-30 -156h-863zM869 1024l6 33l136 292h197l-7 -37l-227 -288h-105z" />
    <glyph glyph-name="lcaron" unicode="&#x13e;" 
d="M610 142h380l-28 -142h-982l28 142h422l233 1200h-289l27 142h469zM1015 1159l7 33l135 292h197l-7 -37l-227 -288h-105z" />
    <glyph glyph-name="Ldot" unicode="&#x13f;" 
d="M132 0l262 1349h191l-232 -1193h672l-30 -156h-863zM684 608l37 192h200l-37 -192h-200z" />
    <glyph glyph-name="ldot" unicode="&#x140;" 
d="M659 142h380l-28 -142h-982l28 142h422l233 1200h-289l27 142h469zM944 608l37 192h200l-37 -192h-200z" />
    <glyph glyph-name="Lslash" unicode="&#x141;" 
d="M132 0l89 458l-129 -61l-42 121l201 96l143 735h191l-123 -636l321 151l37 -121l-389 -185l-78 -402h672l-30 -156h-863z" />
    <glyph glyph-name="lslash" unicode="&#x142;" 
d="M803 884l250 129l40 -113l-319 -164l-115 -594h380l-28 -142h-982l28 142h422l95 493l-241 -123l-43 112l313 159l109 559h-339l27 142h519z" />
    <glyph glyph-name="Nacute" unicode="&#x143;" 
d="M731 0l-300 1130c-10 -107.333 -21.333 -192 -34 -254l-170 -876h-170l262 1349h222l307 -1138c8 103.333 19.667 194.666 35 273.999l168 864h172l-262 -1349h-230zM700 1446l4 20l274 239h197l-6 -29l-345 -230h-124z" />
    <glyph glyph-name="nacute" unicode="&#x144;" 
d="M763 0l135 694.998c7.33301 38.667 11 71.334 11 98.001c0 58.667 -14.5 101.667 -43.5 129s-74.167 41 -135.5 41c-82.667 0 -156.167 -30.167 -220.5 -90.5s-106.833 -142.166 -127.5 -245.499l-122 -627h-180l165 851c4.66699 22.667 9.16699 46.5 13.5 71.5l12 71
l9.5 57.5c2.66699 16 4 26.333 4 31h170c0 -4 -2.83301 -26.5 -8.5 -67.5s-12.167 -80.167 -19.5 -117.5h3c45.333 63.333 99 113.333 161 150s137 55 225 55c188.667 0 283 -84.667 283 -254c0 -38 -4.66699 -80.333 -14 -127l-140 -721h-181zM667 1201l4 20l274 239h197
l-6 -29l-345 -230h-124z" />
    <glyph glyph-name="Ncommaaccent" unicode="&#x145;" 
d="M731 0l-300 1130c-10 -107.333 -21.333 -192 -34 -254l-170 -876h-170l262 1349h222l307 -1138c8 103.333 19.667 194.666 35 273.999l168 864h172l-262 -1349h-230zM257 -422.999l6 33l136 292h197l-7 -37l-227 -288h-105z" />
    <glyph glyph-name="ncommaaccent" unicode="&#x146;" 
d="M763 0l135 694.998c7.33301 38.667 11 71.334 11 98.001c0 58.667 -14.5 101.667 -43.5 129s-74.167 41 -135.5 41c-82.667 0 -156.167 -30.167 -220.5 -90.5s-106.833 -142.166 -127.5 -245.499l-122 -627h-180l165 851c4.66699 22.667 9.16699 46.5 13.5 71.5l12 71
l9.5 57.5c2.66699 16 4 26.333 4 31h170c0 -4 -2.83301 -26.5 -8.5 -67.5s-12.167 -80.167 -19.5 -117.5h3c45.333 63.333 99 113.333 161 150s137 55 225 55c188.667 0 283 -84.667 283 -254c0 -38 -4.66699 -80.333 -14 -127l-140 -721h-181zM261 -423.002l6 33l136 292
h197l-7 -37l-227 -288h-105z" />
    <glyph glyph-name="Ncaron" unicode="&#x147;" 
d="M731 0l-300 1130c-10 -107.333 -21.333 -192 -34 -254l-170 -876h-170l262 1349h222l307 -1138c8 103.333 19.667 194.666 35 273.999l168 864h172l-262 -1349h-230zM883 1446h-164l-207 239l4 20h104l205 -138h2l246 138h105l-4 -20z" />
    <glyph glyph-name="ncaron" unicode="&#x148;" 
d="M763 0l135 694.998c7.33301 38.667 11 71.334 11 98.001c0 58.667 -14.5 101.667 -43.5 129s-74.167 41 -135.5 41c-82.667 0 -156.167 -30.167 -220.5 -90.5s-106.833 -142.166 -127.5 -245.499l-122 -627h-180l165 851c4.66699 22.667 9.16699 46.5 13.5 71.5l12 71
l9.5 57.5c2.66699 16 4 26.333 4 31h170c0 -4 -2.83301 -26.5 -8.5 -67.5s-12.167 -80.167 -19.5 -117.5h3c45.333 63.333 99 113.333 161 150s137 55 225 55c188.667 0 283 -84.667 283 -254c0 -38 -4.66699 -80.333 -14 -127l-140 -721h-181zM829 1201h-164l-207 239l4 20
h104l205 -138h2l246 138h105l-4 -20z" />
    <glyph glyph-name="napostrophe" unicode="&#x149;" 
d="M868 0l135 694.998c7.33301 38.667 11 71.334 11 98.001c0 58.667 -14.5 101.667 -43.5 129s-74.167 41 -135.5 41c-82.667 0 -156.167 -30.167 -220.5 -90.5s-106.833 -142.166 -127.5 -245.499l-122 -627h-180l165 851c4.66699 22.667 9.16699 46.5 13.5 71.5l12 71
l9.5 57.5c2.66699 16 4 26.333 4 31h170c0 -4 -2.83301 -26.5 -8.5 -67.5s-12.167 -80.167 -19.5 -117.5h3c45.333 63.333 99 113.333 161 150s137 55 225 55c188.667 0 283 -84.667 283 -254c0 -38 -4.66699 -80.333 -14 -127l-140 -721h-181zM99 1025l6 33l136 292h197
l-7 -37l-227 -288h-105z" />
    <glyph glyph-name="Eng" unicode="&#x14a;" 
d="M661 -20c-44.667 0 -82.501 5.16602 -113.501 15.499s-57.333 25.5 -79 45.5s-42.5 50.333 -62.5 91l150 100c21.333 -40 42.333 -66.5 63 -79.5s46.334 -19.5 77.001 -19.5c52.667 0 97.667 31.833 135 95.5s70 169.5 98 317.5l81 417c6.66699 33.333 10 64 10 92
c0 58 -15.667 101.833 -47 131.5s-81.666 44.5 -150.999 44.5c-92.667 0 -175.334 -30.167 -248.001 -90.5s-119.334 -142.166 -140.001 -245.499l-174 -895h-180l218 1119l25 143l13 88h170c0 -4 -2.83301 -26.5 -8.5 -67.5s-12.167 -80.167 -19.5 -117.5h3
c98 136.667 240 205 426 205c201.333 0 302 -87 302 -261c0 -37.333 -4.33301 -77.333 -13 -120l-87 -447c-38.667 -201.333 -93.667 -345.333 -165 -432s-165.666 -130 -282.999 -130z" />
    <glyph glyph-name="eng" unicode="&#x14b;" 
d="M730 963c-82.667 0 -156.167 -30.1699 -220.5 -90.5029s-106.833 -142.166 -127.5 -245.499l-122 -627h-180l165 851c4.66699 22.667 9.16699 46.5 13.5 71.5l12 71l9.5 57.5c2.66699 16 4 26.333 4 31h170c0 -4 -2.83301 -26.5 -8.5 -67.5s-12.167 -80.167 -19.5 -117.5
h3c45.333 63.333 99 113.333 161 150s137 55 225 55c188.667 0 283 -84.667 283 -254c0 -38 -4.66699 -80.333 -14 -127l-166 -855c-19.333 -101.333 -53.666 -175.166 -102.999 -221.499s-114.333 -69.5 -195 -69.5c-50.667 0 -92.334 3 -125.001 9l27 139l61 -6
c46.667 0 81.5 12.167 104.5 36.5s41.167 70.833 54.5 139.5l156 802c7.33301 38.667 11 71.334 11 98.001c0 58.667 -14.5 101.667 -43.5 129s-74.167 41 -135.5 41z" />
    <glyph glyph-name="Omacron" unicode="&#x14c;" 
d="M504 -20c-134.667 0 -235.332 38.833 -301.999 116.5s-100 188.834 -100 333.501c0 106.667 16.5 223.667 49.5 351s78.667 235.166 137 323.499s128.166 154.666 209.499 198.999s174 66.5 278 66.5c132 0 232.333 -36.833 301 -110.5s103 -184.167 103 -331.5
c0 -103.333 -16.333 -218.666 -49 -345.999s-79 -236.5 -139 -327.5s-131.333 -159.5 -214 -205.5s-174 -69 -274 -69zM978.002 913c0 200.667 -77.333 301 -232 301c-90.667 0 -167.834 -33.167 -231.501 -99.5s-114.667 -166.833 -153 -301.5s-57.5 -257 -57.5 -367
c0 -207.333 77 -311 231 -311c66.667 0 125.334 17.333 176.001 52s95.5 89.334 134.5 164.001s70.833 167.167 95.5 277.5s37 205.166 37 284.499zM1077 1503h-551l25 127h551z" />
    <glyph glyph-name="omacron" unicode="&#x14d;" 
d="M500 -20c-125.333 0 -221.334 32.833 -288.001 98.5s-100 161.834 -100 288.501c0 52.667 6 111 18 175c36.667 186 106.167 325.833 208.5 419.5s230.833 140.5 385.5 140.5c132.667 0 231.334 -30.667 296.001 -92s97 -154 97 -278c0 -90 -14 -184.833 -42 -284.5
s-69 -184.834 -123 -255.501s-119.333 -123.667 -196 -159s-162 -53 -256 -53zM927.999 720c0 83.333 -18.1631 145.667 -54.4961 187s-93.833 62 -172.5 62c-88 0 -160.833 -25.667 -218.5 -77s-102.334 -128 -134.001 -230s-47.5 -198.333 -47.5 -289
c0 -173.333 74.333 -260 223 -260c67.333 0 124.666 13.833 171.999 41.5s88.166 70.5 122.499 128.5s61.166 129.833 80.499 215.5s29 159.5 29 221.5zM1025 1236h-551l25 127h551z" />
    <glyph glyph-name="Obreve" unicode="&#x14e;" 
d="M504 -20c-134.667 0 -235.332 38.833 -301.999 116.5s-100 188.834 -100 333.501c0 106.667 16.5 223.667 49.5 351s78.667 235.166 137 323.499s128.166 154.666 209.499 198.999s174 66.5 278 66.5c132 0 232.333 -36.833 301 -110.5s103 -184.167 103 -331.5
c0 -103.333 -16.333 -218.666 -49 -345.999s-79 -236.5 -139 -327.5s-131.333 -159.5 -214 -205.5s-174 -69 -274 -69zM978.002 913c0 200.667 -77.333 301 -232 301c-90.667 0 -167.834 -33.167 -231.501 -99.5s-114.667 -166.833 -153 -301.5s-57.5 -257 -57.5 -367
c0 -207.333 77 -311 231 -311c66.667 0 125.334 17.333 176.001 52s95.5 89.334 134.5 164.001s70.833 167.167 95.5 277.5s37 205.166 37 284.499zM789.002 1446c-80 0 -143.5 23 -190.5 69s-70.5 107.333 -70.5 184v6h127c5.33301 -88.667 58.333 -133 159 -133
c56.667 0 101.5 11.667 134.5 35s59.167 56 78.5 98h127c-32.667 -81.333 -81 -144.833 -145 -190.5s-137.333 -68.5 -220 -68.5z" />
    <glyph glyph-name="obreve" unicode="&#x14f;" 
d="M500 -20c-125.333 0 -221.334 32.833 -288.001 98.5s-100 161.834 -100 288.501c0 52.667 6 111 18 175c36.667 186 106.167 325.833 208.5 419.5s230.833 140.5 385.5 140.5c132.667 0 231.334 -30.667 296.001 -92s97 -154 97 -278c0 -90 -14 -184.833 -42 -284.5
s-69 -184.834 -123 -255.501s-119.333 -123.667 -196 -159s-162 -53 -256 -53zM927.999 720c0 83.333 -18.1631 145.667 -54.4961 187s-93.833 62 -172.5 62c-88 0 -160.833 -25.667 -218.5 -77s-102.334 -128 -134.001 -230s-47.5 -198.333 -47.5 -289
c0 -173.333 74.333 -260 223 -260c67.333 0 124.666 13.833 171.999 41.5s88.166 70.5 122.499 128.5s61.166 129.833 80.499 215.5s29 159.5 29 221.5zM741.003 1201c-80 0 -143.5 23 -190.5 69s-70.5 107.333 -70.5 184v6h127c5.33301 -88.667 58.333 -133 159 -133
c56.667 0 101.5 11.667 134.5 35s59.167 56 78.5 98h127c-32.667 -81.333 -81 -144.833 -145 -190.5s-137.333 -68.5 -220 -68.5z" />
    <glyph glyph-name="Ohungarumlaut" unicode="&#x150;" 
d="M504 -20c-134.667 0 -235.332 38.833 -301.999 116.5s-100 188.834 -100 333.501c0 106.667 16.5 223.667 49.5 351s78.667 235.166 137 323.499s128.166 154.666 209.499 198.999s174 66.5 278 66.5c132 0 232.333 -36.833 301 -110.5s103 -184.167 103 -331.5
c0 -103.333 -16.333 -218.666 -49 -345.999s-79 -236.5 -139 -327.5s-131.333 -159.5 -214 -205.5s-174 -69 -274 -69zM978.002 913c0 200.667 -77.333 301 -232 301c-90.667 0 -167.834 -33.167 -231.501 -99.5s-114.667 -166.833 -153 -301.5s-57.5 -257 -57.5 -367
c0 -207.333 77 -311 231 -311c66.667 0 125.334 17.333 176.001 52s95.5 89.334 134.5 164.001s70.833 167.167 95.5 277.5s37 205.166 37 284.499zM869.002 1445l4 20l254 239h187l-6 -29l-345 -230h-94zM505.002 1445l4 20l254 239h187l-6 -29l-345 -230h-94z" />
    <glyph glyph-name="ohungarumlaut" unicode="&#x151;" 
d="M500 -20c-125.333 0 -221.334 32.833 -288.001 98.5s-100 161.834 -100 288.501c0 52.667 6 111 18 175c36.667 186 106.167 325.833 208.5 419.5s230.833 140.5 385.5 140.5c132.667 0 231.334 -30.667 296.001 -92s97 -154 97 -278c0 -90 -14 -184.833 -42 -284.5
s-69 -184.834 -123 -255.501s-119.333 -123.667 -196 -159s-162 -53 -256 -53zM927.999 720c0 83.333 -18.1631 145.667 -54.4961 187s-93.833 62 -172.5 62c-88 0 -160.833 -25.667 -218.5 -77s-102.334 -128 -134.001 -230s-47.5 -198.333 -47.5 -289
c0 -173.333 74.333 -260 223 -260c67.333 0 124.666 13.833 171.999 41.5s88.166 70.5 122.499 128.5s61.166 129.833 80.499 215.5s29 159.5 29 221.5zM841.003 1201l4 20l254 239h187l-6 -29l-345 -230h-94zM477.003 1201l4 20l254 239h187l-6 -29l-345 -230h-94z" />
    <glyph glyph-name="OE" unicode="&#x152;" 
d="M504 0c-40 -3.33301 -73 -4.99805 -99 -4.99805c-132.667 0 -230.5 33.667 -293.5 101s-94.5 170.666 -94.5 309.999c0 105.333 16.167 225.666 48.5 360.999s75.333 246 129 332s119.5 150.167 197.5 192.5s171 63.5 279 63.5c39.333 0 75.333 -2 108 -6h558l-29 -152
h-398l-86 -440h367l-29 -150h-367l-88 -455h439l-30 -152h-612zM434 140.002c47.333 0 81 1.99902 101 5.99902l206 1057c-24 4 -56.667 6 -98 6c-96 0 -175.167 -32.833 -237.5 -98.5s-112 -167.5 -149 -305.5s-55.5 -260.667 -55.5 -368
c0 -103.333 19.667 -178.666 59 -225.999s97.333 -71 174 -71z" />
    <glyph glyph-name="oe" unicode="&#x153;" 
d="M705 503c-14.667 -73.333 -21.999 -138.667 -21.999 -196c0 -128 38 -192 114 -192c44 0 81.833 15.667 113.5 47s57.167 71 76.5 119l129 -45c-76 -170.667 -190.333 -256 -343 -256c-121.333 0 -197 61 -227 183c-78.667 -122 -179.334 -183 -302.001 -183
c-76.667 0 -136.167 26.833 -178.5 80.5s-63.5 135.834 -63.5 246.501c0 84.667 12.667 182.167 38 292.5s58.333 202.5 99 276.5s88.5 130.167 143.5 168.5s117.167 57.5 186.5 57.5c124.667 0 202 -59 232 -177c79.333 118 177 177 293 177c157.333 0 236 -105 236 -315
c0 -76.667 -9.66699 -163.334 -29 -260.001l-4 -24h-492zM573.001 788.999c0 62.667 -9.66797 108.333 -29.001 137s-48.666 43 -87.999 43c-56 0 -103.833 -29.5 -143.5 -88.5s-73.5 -150 -101.5 -273s-42 -223.833 -42 -302.5c0 -128 38.333 -192 115 -192
c59.333 0 108.833 31.5 148.5 94.5s73 157.667 100 284s40.5 225.5 40.5 297.5zM958 968.998c-48.667 0 -92.667 -28.833 -132 -86.5s-70 -138.167 -92 -241.5h324c8 57.333 12 106.333 12 147c0 62.667 -9.16699 108.5 -27.5 137.5s-46.5 43.5 -84.5 43.5z" />
    <glyph glyph-name="Racute" unicode="&#x154;" 
d="M852 0l-253.999 574.999h-238l-112 -575h-191l262 1349h482c139.333 0 243.166 -25.333 311.499 -76s102.5 -121.667 102.5 -213c0 -69.333 -17.167 -137.666 -51.5 -204.999s-84.5 -123.833 -150.5 -169.5s-141 -75.167 -225 -88.5l284 -597h-220zM1018 1026
c0 113.333 -88.667 170.001 -266 170.001h-272l-91 -470h280c74 0 137.667 13.167 191 39.5s93 63.666 119 111.999s39 97.833 39 148.5zM650.001 1446l4 20l274 239h197l-6 -29l-345 -230h-124z" />
    <glyph glyph-name="racute" unicode="&#x155;" 
d="M1118 918c-71.333 12.667 -140.666 19 -207.999 19c-106.667 0 -201 -40.333 -283 -121s-135 -183.334 -159 -308.001l-99 -508h-180l136 701c16.667 90.667 25 187 25 289l-3 92h171c4 -33.333 6 -76 6 -128c0 -44 -2 -84.667 -6 -122h5
c48.667 75.333 92.167 130.333 130.5 165s81.166 60.834 128.499 78.501s102.666 26.5 165.999 26.5c70.667 0 138.334 -5.66699 203.001 -17zM619 1201l4 20l274 239h197l-6 -29l-345 -230h-124z" />
    <glyph glyph-name="Rcommaaccent" unicode="&#x156;" 
d="M852 0l-253.999 574.999h-238l-112 -575h-191l262 1349h482c139.333 0 243.166 -25.333 311.499 -76s102.5 -121.667 102.5 -213c0 -69.333 -17.167 -137.666 -51.5 -204.999s-84.5 -123.833 -150.5 -169.5s-141 -75.167 -225 -88.5l284 -597h-220zM1018 1026
c0 113.333 -88.667 170.001 -266 170.001h-272l-91 -470h280c74 0 137.667 13.167 191 39.5s93 63.666 119 111.999s39 97.833 39 148.5zM285.001 -423l6 33l136 292h197l-7 -37l-227 -288h-105z" />
    <glyph glyph-name="rcommaaccent" unicode="&#x157;" 
d="M1118 918c-71.333 12.667 -140.666 19 -207.999 19c-106.667 0 -201 -40.333 -283 -121s-135 -183.334 -159 -308.001l-99 -508h-180l136 701c16.667 90.667 25 187 25 289l-3 92h171c4 -33.333 6 -76 6 -128c0 -44 -2 -84.667 -6 -122h5
c48.667 75.333 92.167 130.333 130.5 165s81.166 60.834 128.499 78.501s102.666 26.5 165.999 26.5c70.667 0 138.334 -5.66699 203.001 -17zM16 -423l6 33l136 292h197l-7 -37l-227 -288h-105z" />
    <glyph glyph-name="Rcaron" unicode="&#x158;" 
d="M852 0l-253.999 574.999h-238l-112 -575h-191l262 1349h482c139.333 0 243.166 -25.333 311.499 -76s102.5 -121.667 102.5 -213c0 -69.333 -17.167 -137.666 -51.5 -204.999s-84.5 -123.833 -150.5 -169.5s-141 -75.167 -225 -88.5l284 -597h-220zM1018 1026
c0 113.333 -88.667 170.001 -266 170.001h-272l-91 -470h280c74 0 137.667 13.167 191 39.5s93 63.666 119 111.999s39 97.833 39 148.5zM857.001 1446h-164l-207 239l4 20h104l205 -138h2l246 138h105l-4 -20z" />
    <glyph glyph-name="rcaron" unicode="&#x159;" 
d="M1118 918c-71.333 12.667 -140.666 19 -207.999 19c-106.667 0 -201 -40.333 -283 -121s-135 -183.334 -159 -308.001l-99 -508h-180l136 701c16.667 90.667 25 187 25 289l-3 92h171c4 -33.333 6 -76 6 -128c0 -44 -2 -84.667 -6 -122h5
c48.667 75.333 92.167 130.333 130.5 165s81.166 60.834 128.499 78.501s102.666 26.5 165.999 26.5c70.667 0 138.334 -5.66699 203.001 -17zM849 1201h-164l-207 239l4 20h104l205 -138h2l246 138h105l-4 -20z" />
    <glyph glyph-name="Sacute" unicode="&#x15a;" 
d="M501 -20c-304.667 0 -458.337 119.336 -461.004 358.003l192 37c1.33301 -84.667 27.333 -146.834 78 -186.501s125.667 -59.5 225 -59.5c106 0 190.5 20.5 253.5 61.5s101.833 99.833 116.5 176.5l5 45c0 37.333 -10.167 68.333 -30.5 93s-48.5 45.5 -84.5 62.5
s-106 38.833 -210 65.5c-96.667 26.667 -163.334 49 -200.001 67s-66.167 38 -88.5 60s-39.333 47 -51 75s-17.5 60.333 -17.5 97c0 57.333 12 114.166 36 170.499s59.833 104.833 107.5 145.5s105.834 71.167 174.501 91.5s145.334 30.5 230.001 30.5
c142.667 0 246.334 -25 311.001 -75s100 -133 106 -249l-194 -33c-1.33301 74 -22.333 128 -63 162s-103.667 51 -189 51c-187.333 0 -295.333 -71 -324 -213l-4 -41c0 -31.333 7.83301 -57 23.5 -77s36.834 -36.833 63.501 -50.5s57.667 -25.334 93 -35.001l112 -30.5
c118.667 -32 200.834 -60.667 246.501 -86s81.5 -56.833 107.5 -94.5s39 -85.5 39 -143.5c0 -64 -13.667 -126.5 -41 -187.5s-66.833 -112.667 -118.5 -155s-114.5 -75 -188.5 -98s-159 -34.5 -255 -34.5zM697.997 1446l4 20l274 239h197l-6 -29l-345 -230h-124z" />
    <glyph glyph-name="sacute" unicode="&#x15b;" 
d="M512 -20c-136.667 0 -236.665 21.167 -299.998 63.5s-97.333 110.5 -102 204.5l165 31c2 -58.667 21.5 -100.834 58.5 -126.501s105.167 -38.5 204.5 -38.5c101.333 0 177.666 18.333 228.999 55s77 85.334 77 146.001c0 32.667 -13.833 60 -41.5 82
s-73.167 41.667 -136.5 59l-116 31c-88 24 -149.833 45.833 -185.5 65.5s-63.334 43.667 -83.001 72s-29.5 62.833 -29.5 103.5c0 48 11 96 33 144s53.833 89 95.5 123s92.5 59.833 152.5 77.5s126.333 26.5 199 26.5c117.333 0 206.833 -22.333 268.5 -67
s92.5 -109 92.5 -193l-166 -20v5c0 46.667 -17.333 81.834 -52 105.501s-91 35.5 -169 35.5c-92 0 -161.333 -16 -208 -48s-70 -76.333 -70 -133c0 -30.667 11.833 -55.834 35.5 -75.501s64.167 -36.834 121.5 -51.501c147.333 -38.667 240.333 -66.667 279 -84
s69.667 -37.166 93 -59.499s39.833 -45.166 49.5 -68.499s14.5 -49.666 14.5 -78.999c0 -68.667 -21 -133.834 -63 -195.501s-101.667 -108.834 -179 -141.501s-166.333 -49 -267 -49zM616.002 1201l4 20l274 239h197l-6 -29l-345 -230h-124z" />
    <glyph glyph-name="Scircumflex" unicode="&#x15c;" 
d="M501 -20c-304.667 0 -458.337 119.336 -461.004 358.003l192 37c1.33301 -84.667 27.333 -146.834 78 -186.501s125.667 -59.5 225 -59.5c106 0 190.5 20.5 253.5 61.5s101.833 99.833 116.5 176.5l5 45c0 37.333 -10.167 68.333 -30.5 93s-48.5 45.5 -84.5 62.5
s-106 38.833 -210 65.5c-96.667 26.667 -163.334 49 -200.001 67s-66.167 38 -88.5 60s-39.333 47 -51 75s-17.5 60.333 -17.5 97c0 57.333 12 114.166 36 170.499s59.833 104.833 107.5 145.5s105.834 71.167 174.501 91.5s145.334 30.5 230.001 30.5
c142.667 0 246.334 -25 311.001 -75s100 -133 106 -249l-194 -33c-1.33301 74 -22.333 128 -63 162s-103.667 51 -189 51c-187.333 0 -295.333 -71 -324 -213l-4 -41c0 -31.333 7.83301 -57 23.5 -77s36.834 -36.833 63.501 -50.5s57.667 -25.334 93 -35.001l112 -30.5
c118.667 -32 200.834 -60.667 246.501 -86s81.5 -56.833 107.5 -94.5s39 -85.5 39 -143.5c0 -64 -13.667 -126.5 -41 -187.5s-66.833 -112.667 -118.5 -155s-114.5 -75 -188.5 -98s-159 -34.5 -255 -34.5zM1129 1466l-4 -20h-105l-192 138h-2l-259 -138h-104l4 20l301 239
h164z" />
    <glyph glyph-name="scircumflex" unicode="&#x15d;" 
d="M512 -20c-136.667 0 -236.665 21.167 -299.998 63.5s-97.333 110.5 -102 204.5l165 31c2 -58.667 21.5 -100.834 58.5 -126.501s105.167 -38.5 204.5 -38.5c101.333 0 177.666 18.333 228.999 55s77 85.334 77 146.001c0 32.667 -13.833 60 -41.5 82
s-73.167 41.667 -136.5 59l-116 31c-88 24 -149.833 45.833 -185.5 65.5s-63.334 43.667 -83.001 72s-29.5 62.833 -29.5 103.5c0 48 11 96 33 144s53.833 89 95.5 123s92.5 59.833 152.5 77.5s126.333 26.5 199 26.5c117.333 0 206.833 -22.333 268.5 -67
s92.5 -109 92.5 -193l-166 -20v5c0 46.667 -17.333 81.834 -52 105.501s-91 35.5 -169 35.5c-92 0 -161.333 -16 -208 -48s-70 -76.333 -70 -133c0 -30.667 11.833 -55.834 35.5 -75.501s64.167 -36.834 121.5 -51.501c147.333 -38.667 240.333 -66.667 279 -84
s69.667 -37.166 93 -59.499s39.833 -45.166 49.5 -68.499s14.5 -49.666 14.5 -78.999c0 -68.667 -21 -133.834 -63 -195.501s-101.667 -108.834 -179 -141.501s-166.333 -49 -267 -49zM1092 1221l-4 -20h-105l-192 138h-2l-259 -138h-104l4 20l301 239h164z" />
    <glyph glyph-name="Scedilla" unicode="&#x15e;" 
d="M501 -20c-304.667 0 -458.337 119.336 -461.004 358.003l192 37c1.33301 -84.667 27.333 -146.834 78 -186.501s125.667 -59.5 225 -59.5c106 0 190.5 20.5 253.5 61.5s101.833 99.833 116.5 176.5l5 45c0 37.333 -10.167 68.333 -30.5 93s-48.5 45.5 -84.5 62.5
s-106 38.833 -210 65.5c-96.667 26.667 -163.334 49 -200.001 67s-66.167 38 -88.5 60s-39.333 47 -51 75s-17.5 60.333 -17.5 97c0 57.333 12 114.166 36 170.499s59.833 104.833 107.5 145.5s105.834 71.167 174.501 91.5s145.334 30.5 230.001 30.5
c142.667 0 246.334 -25 311.001 -75s100 -133 106 -249l-194 -33c-1.33301 74 -22.333 128 -63 162s-103.667 51 -189 51c-187.333 0 -295.333 -71 -324 -213l-4 -41c0 -31.333 7.83301 -57 23.5 -77s36.834 -36.833 63.501 -50.5s57.667 -25.334 93 -35.001l112 -30.5
c118.667 -32 200.834 -60.667 246.501 -86s81.5 -56.833 107.5 -94.5s39 -85.5 39 -143.5c0 -64 -13.667 -126.5 -41 -187.5s-66.833 -112.667 -118.5 -155s-114.5 -75 -188.5 -98s-159 -34.5 -255 -34.5zM349.997 -443.997c-38 0 -68.001 1.33105 -90.001 3.99805l20 98
c32 -4 60 -6 84 -6c97.333 0 152 28.667 164 86l2 18c0 42.667 -39.667 64 -119 64c-28.667 0 -47.667 -0.666992 -57 -2l100 182h107l-58 -100c54 -1.33301 94.333 -12.666 121 -33.999s40 -50.666 40 -87.999c0 -39.333 -11.167 -77 -33.5 -113
s-56.666 -63.167 -102.999 -81.5s-105.5 -27.5 -177.5 -27.5z" />
    <glyph glyph-name="scedilla" unicode="&#x15f;" 
d="M512 -20c-136.667 0 -236.665 21.167 -299.998 63.5s-97.333 110.5 -102 204.5l165 31c2 -58.667 21.5 -100.834 58.5 -126.501s105.167 -38.5 204.5 -38.5c101.333 0 177.666 18.333 228.999 55s77 85.334 77 146.001c0 32.667 -13.833 60 -41.5 82
s-73.167 41.667 -136.5 59l-116 31c-88 24 -149.833 45.833 -185.5 65.5s-63.334 43.667 -83.001 72s-29.5 62.833 -29.5 103.5c0 48 11 96 33 144s53.833 89 95.5 123s92.5 59.833 152.5 77.5s126.333 26.5 199 26.5c117.333 0 206.833 -22.333 268.5 -67
s92.5 -109 92.5 -193l-166 -20v5c0 46.667 -17.333 81.834 -52 105.501s-91 35.5 -169 35.5c-92 0 -161.333 -16 -208 -48s-70 -76.333 -70 -133c0 -30.667 11.833 -55.834 35.5 -75.501s64.167 -36.834 121.5 -51.501c147.333 -38.667 240.333 -66.667 279 -84
s69.667 -37.166 93 -59.499s39.833 -45.166 49.5 -68.499s14.5 -49.666 14.5 -78.999c0 -68.667 -21 -133.834 -63 -195.501s-101.667 -108.834 -179 -141.501s-166.333 -49 -267 -49zM360.002 -444c-38 0 -68.001 1.33105 -90.001 3.99805l20 98c32 -4 60 -6 84 -6
c97.333 0 152 28.667 164 86l2 18c0 42.667 -39.667 64 -119 64c-28.667 0 -47.667 -0.666992 -57 -2l100 182h107l-58 -100c54 -1.33301 94.333 -12.666 121 -33.999s40 -50.666 40 -87.999c0 -39.333 -11.167 -77 -33.5 -113s-56.666 -63.167 -102.999 -81.5
s-105.5 -27.5 -177.5 -27.5z" />
    <glyph glyph-name="Scaron" unicode="&#x160;" 
d="M501 -20c-304.667 0 -458.337 119.336 -461.004 358.003l192 37c1.33301 -84.667 27.333 -146.834 78 -186.501s125.667 -59.5 225 -59.5c106 0 190.5 20.5 253.5 61.5s101.833 99.833 116.5 176.5l5 45c0 37.333 -10.167 68.333 -30.5 93s-48.5 45.5 -84.5 62.5
s-106 38.833 -210 65.5c-96.667 26.667 -163.334 49 -200.001 67s-66.167 38 -88.5 60s-39.333 47 -51 75s-17.5 60.333 -17.5 97c0 57.333 12 114.166 36 170.499s59.833 104.833 107.5 145.5s105.834 71.167 174.501 91.5s145.334 30.5 230.001 30.5
c142.667 0 246.334 -25 311.001 -75s100 -133 106 -249l-194 -33c-1.33301 74 -22.333 128 -63 162s-103.667 51 -189 51c-187.333 0 -295.333 -71 -324 -213l-4 -41c0 -31.333 7.83301 -57 23.5 -77s36.834 -36.833 63.501 -50.5s57.667 -25.334 93 -35.001l112 -30.5
c118.667 -32 200.834 -60.667 246.501 -86s81.5 -56.833 107.5 -94.5s39 -85.5 39 -143.5c0 -64 -13.667 -126.5 -41 -187.5s-66.833 -112.667 -118.5 -155s-114.5 -75 -188.5 -98s-159 -34.5 -255 -34.5zM875.997 1445h-164l-207 239l4 20h104l205 -138h2l246 138h105
l-4 -20z" />
    <glyph glyph-name="scaron" unicode="&#x161;" 
d="M512 -20c-136.667 0 -236.665 21.167 -299.998 63.5s-97.333 110.5 -102 204.5l165 31c2 -58.667 21.5 -100.834 58.5 -126.501s105.167 -38.5 204.5 -38.5c101.333 0 177.666 18.333 228.999 55s77 85.334 77 146.001c0 32.667 -13.833 60 -41.5 82
s-73.167 41.667 -136.5 59l-116 31c-88 24 -149.833 45.833 -185.5 65.5s-63.334 43.667 -83.001 72s-29.5 62.833 -29.5 103.5c0 48 11 96 33 144s53.833 89 95.5 123s92.5 59.833 152.5 77.5s126.333 26.5 199 26.5c117.333 0 206.833 -22.333 268.5 -67
s92.5 -109 92.5 -193l-166 -20v5c0 46.667 -17.333 81.834 -52 105.501s-91 35.5 -169 35.5c-92 0 -161.333 -16 -208 -48s-70 -76.333 -70 -133c0 -30.667 11.833 -55.834 35.5 -75.501s64.167 -36.834 121.5 -51.501c147.333 -38.667 240.333 -66.667 279 -84
s69.667 -37.166 93 -59.499s39.833 -45.166 49.5 -68.499s14.5 -49.666 14.5 -78.999c0 -68.667 -21 -133.834 -63 -195.501s-101.667 -108.834 -179 -141.501s-166.333 -49 -267 -49zM834.002 1201h-164l-207 239l4 20h104l205 -138h2l246 138h105l-4 -20z" />
    <glyph glyph-name="Tcommaaccent" unicode="&#x162;" 
d="M836 1193l-232 -1193h-190l232 1193h-443l30 156h1076l-30 -156h-443zM259 -423l6 33l136 292h197l-7 -37l-227 -288h-105z" />
    <glyph glyph-name="tcommaaccent" unicode="&#x163;" 
d="M268 940l27 142h170l113 282h120l-55 -282h432l-27 -142h-432l-127 -652l-5 -44c0 -38 12.667 -66 38 -84s65 -27 119 -27c88.667 0 189.667 11.333 303 34l-26 -137c-117.333 -30.667 -232 -46 -344 -46c-92.667 0 -162 16.5 -208 49.5s-69 84.833 -69 155.5
c0 30 2.66699 56.667 8 80l131 671h-168zM293 -423l6 33l136 292h197l-7 -37l-227 -288h-105z" />
    <glyph glyph-name="Tcaron" unicode="&#x164;" 
d="M836 1193l-232 -1193h-190l232 1193h-443l30 156h1076l-30 -156h-443zM877 1446h-164l-207 239l4 20h104l205 -138h2l246 138h105l-4 -20z" />
    <glyph glyph-name="tcaron" unicode="&#x165;" 
d="M179 940l27 142h170l113 282h120l-55 -282h432l-27 -142h-432l-127 -652l-5 -44c0 -38 12.667 -66 38 -84s65 -27 119 -27c88.667 0 189.667 11.333 303 34l-26 -137c-117.333 -30.667 -232 -46 -344 -46c-92.667 0 -162 16.5 -208 49.5s-69 84.833 -69 155.5
c0 30 2.66699 56.667 8 80l131 671h-168zM1065 1159l7 33l135 292h197l-7 -37l-227 -288h-105z" />
    <glyph glyph-name="Tbar" unicode="&#x166;" 
d="M836 1193l-83 -424h240l-28 -149h-240l-121 -620h-190l121 620h-240l28 149h240l83 424h-443l30 156h1076l-30 -156h-443z" />
    <glyph glyph-name="tbar" unicode="&#x167;" 
d="M1001 647l-26 -132.001h-432l-44 -227l-5 -44c0 -38 12.667 -66 38 -84s65 -27 119 -27c88.667 0 189.667 11.333 303 34l-26 -137c-117.333 -30.667 -232 -46 -344 -46c-92.667 0 -162 16.5 -208 49.5s-69 84.833 -69 155.5c0 11.333 0.5 23.333 1.5 36
s19.167 109.334 54.5 290.001h-168l26 132h168l57 293h-168l27 142h170l113 282h120l-55 -282h432l-27 -142h-432l-57 -293h432z" />
    <glyph glyph-name="Utilde" unicode="&#x168;" 
d="M496 -20c-134 0 -231.833 25.8311 -293.5 77.498s-92.5 132.834 -92.5 243.501c0 51.333 6.33301 108.333 19 171l170 877h191l-165 -851c-13.333 -68 -20 -124.667 -20 -170c0 -68 16.833 -117.167 50.5 -147.5s90.167 -45.5 169.5 -45.5
c107.333 0 187.833 27.333 241.5 82s94.5 152.667 122.5 294l163 838h190l-167 -859c-34.667 -177.333 -97.667 -306.666 -189 -387.999s-221.333 -122 -390 -122zM947 1446c-28 0 -54.667 6.16699 -80 18.5s-50 26 -74 41s-47.5 28.667 -70.5 41s-46.167 18.5 -69.5 18.5
c-24.667 0 -45 -7.83301 -61 -23.5s-32.333 -47.5 -49 -95.5h-111c28 91.333 62.5 155.5 103.5 192.5s90.5 55.5 148.5 55.5c29.333 0 56.833 -6.16699 82.5 -18.5s50.334 -26 74.001 -41s46.667 -28.667 69 -41s44.5 -18.5 66.5 -18.5c26.667 0 48.334 9.16699 65.001 27.5
s31.667 48.833 45 91.5h112c-20.667 -64.667 -41.834 -113.167 -63.501 -145.5s-47.834 -57.5 -78.501 -75.5s-67 -27 -109 -27z" />
    <glyph glyph-name="utilde" unicode="&#x169;" 
d="M470 1082l-132.997 -686c-9.33301 -48 -14 -89 -14 -123c0 -56 14.167 -95.667 42.5 -119s75.5 -35 141.5 -35c87.333 0 161.666 30 222.999 90s101.666 142 120.999 246l122 627h181l-165 -851c-4.66699 -22.667 -9.16699 -46.5 -13.5 -71.5l-12 -71l-9.5 -57.5
c-2.66699 -16 -4 -26.333 -4 -31h-170c0 7.33301 3.5 33.166 10.5 77.499l17.5 107.5h-3c-55.333 -74.667 -113.833 -127.5 -175.5 -158.5s-131.834 -46.5 -210.501 -46.5c-97.333 0 -169 19.333 -215 58s-69 100.334 -69 185.001c0 40 5 86 15 138l140 721h180z
M899.003 1201c-28 0 -54.667 6.16699 -80 18.5s-50 26 -74 41s-47.5 28.667 -70.5 41s-46.167 18.5 -69.5 18.5c-24.667 0 -45 -7.83301 -61 -23.5s-32.333 -47.5 -49 -95.5h-111c28 91.333 62.5 155.5 103.5 192.5s90.5 55.5 148.5 55.5
c29.333 0 56.833 -6.16699 82.5 -18.5s50.334 -26 74.001 -41s46.667 -28.667 69 -41s44.5 -18.5 66.5 -18.5c26.667 0 48.334 9.16699 65.001 27.5s31.667 48.833 45 91.5h112c-20.667 -64.667 -41.834 -113.167 -63.501 -145.5s-47.834 -57.5 -78.501 -75.5
s-67 -27 -109 -27z" />
    <glyph glyph-name="Umacron" unicode="&#x16a;" 
d="M496 -20c-134 0 -231.833 25.8311 -293.5 77.498s-92.5 132.834 -92.5 243.501c0 51.333 6.33301 108.333 19 171l170 877h191l-165 -851c-13.333 -68 -20 -124.667 -20 -170c0 -68 16.833 -117.167 50.5 -147.5s90.167 -45.5 169.5 -45.5
c107.333 0 187.833 27.333 241.5 82s94.5 152.667 122.5 294l163 838h190l-167 -859c-34.667 -177.333 -97.667 -306.666 -189 -387.999s-221.333 -122 -390 -122zM1077 1503h-551l25 127h551z" />
    <glyph glyph-name="umacron" unicode="&#x16b;" 
d="M470 1082l-132.997 -686c-9.33301 -48 -14 -89 -14 -123c0 -56 14.167 -95.667 42.5 -119s75.5 -35 141.5 -35c87.333 0 161.666 30 222.999 90s101.666 142 120.999 246l122 627h181l-165 -851c-4.66699 -22.667 -9.16699 -46.5 -13.5 -71.5l-12 -71l-9.5 -57.5
c-2.66699 -16 -4 -26.333 -4 -31h-170c0 7.33301 3.5 33.166 10.5 77.499l17.5 107.5h-3c-55.333 -74.667 -113.833 -127.5 -175.5 -158.5s-131.834 -46.5 -210.501 -46.5c-97.333 0 -169 19.333 -215 58s-69 100.334 -69 185.001c0 40 5 86 15 138l140 721h180zM1025 1236
h-551l25 127h551z" />
    <glyph glyph-name="Ubreve" unicode="&#x16c;" 
d="M496 -20c-134 0 -231.833 25.8311 -293.5 77.498s-92.5 132.834 -92.5 243.501c0 51.333 6.33301 108.333 19 171l170 877h191l-165 -851c-13.333 -68 -20 -124.667 -20 -170c0 -68 16.833 -117.167 50.5 -147.5s90.167 -45.5 169.5 -45.5
c107.333 0 187.833 27.333 241.5 82s94.5 152.667 122.5 294l163 838h190l-167 -859c-34.667 -177.333 -97.667 -306.666 -189 -387.999s-221.333 -122 -390 -122zM789 1446c-80 0 -143.5 23 -190.5 69s-70.5 107.333 -70.5 184v6h127c5.33301 -88.667 58.333 -133 159 -133
c56.667 0 101.5 11.667 134.5 35s59.167 56 78.5 98h127c-32.667 -81.333 -81 -144.833 -145 -190.5s-137.333 -68.5 -220 -68.5z" />
    <glyph glyph-name="ubreve" unicode="&#x16d;" 
d="M470 1082l-132.997 -686c-9.33301 -48 -14 -89 -14 -123c0 -56 14.167 -95.667 42.5 -119s75.5 -35 141.5 -35c87.333 0 161.666 30 222.999 90s101.666 142 120.999 246l122 627h181l-165 -851c-4.66699 -22.667 -9.16699 -46.5 -13.5 -71.5l-12 -71l-9.5 -57.5
c-2.66699 -16 -4 -26.333 -4 -31h-170c0 7.33301 3.5 33.166 10.5 77.499l17.5 107.5h-3c-55.333 -74.667 -113.833 -127.5 -175.5 -158.5s-131.834 -46.5 -210.501 -46.5c-97.333 0 -169 19.333 -215 58s-69 100.334 -69 185.001c0 40 5 86 15 138l140 721h180z
M741.003 1201c-80 0 -143.5 23 -190.5 69s-70.5 107.333 -70.5 184v6h127c5.33301 -88.667 58.333 -133 159 -133c56.667 0 101.5 11.667 134.5 35s59.167 56 78.5 98h127c-32.667 -81.333 -81 -144.833 -145 -190.5s-137.333 -68.5 -220 -68.5z" />
    <glyph glyph-name="Uring" unicode="&#x16e;" 
d="M496 -20c-134 0 -231.833 25.8311 -293.5 77.498s-92.5 132.834 -92.5 243.501c0 51.333 6.33301 108.333 19 171l170 877h191l-165 -851c-13.333 -68 -20 -124.667 -20 -170c0 -68 16.833 -117.167 50.5 -147.5s90.167 -45.5 169.5 -45.5
c107.333 0 187.833 27.333 241.5 82s94.5 152.667 122.5 294l163 838h190l-167 -859c-34.667 -177.333 -97.667 -306.666 -189 -387.999s-221.333 -122 -390 -122zM763 1306c-64 0 -114.498 14.501 -151.498 43.501s-55.5 68.5 -55.5 118.5c0 39.333 11.667 78 35 116
s57.166 67.667 101.499 89s93.833 32 148.5 32c63.333 0 113.666 -14 150.999 -42s56 -67.667 56 -119c0 -42 -12.333 -81.833 -37 -119.5s-58.667 -66.834 -102 -87.501s-92 -31 -146 -31zM924.002 1520c0 21.333 -9.66699 38.168 -29 50.501s-45 18.5 -77 18.5
c-41.333 0 -74.833 -9.33301 -100.5 -28s-38.5 -41.334 -38.5 -68.001c0 -22 9.33301 -39.333 28 -52s45 -19 79 -19c42 0 75.5 9.66699 100.5 29s37.5 42.333 37.5 69z" />
    <glyph glyph-name="uring" unicode="&#x16f;" 
d="M470 1082l-132.997 -686c-9.33301 -48 -14 -89 -14 -123c0 -56 14.167 -95.667 42.5 -119s75.5 -35 141.5 -35c87.333 0 161.666 30 222.999 90s101.666 142 120.999 246l122 627h181l-165 -851c-4.66699 -22.667 -9.16699 -46.5 -13.5 -71.5l-12 -71l-9.5 -57.5
c-2.66699 -16 -4 -26.333 -4 -31h-170c0 7.33301 3.5 33.166 10.5 77.499l17.5 107.5h-3c-55.333 -74.667 -113.833 -127.5 -175.5 -158.5s-131.834 -46.5 -210.501 -46.5c-97.333 0 -169 19.333 -215 58s-69 100.334 -69 185.001c0 40 5 86 15 138l140 721h180z
M732.003 1148c-64 0 -114.498 14.501 -151.498 43.501s-55.5 68.5 -55.5 118.5c0 39.333 11.667 78 35 116s57.166 67.667 101.499 89s93.833 32 148.5 32c63.333 0 113.666 -14 150.999 -42s56 -67.667 56 -119c0 -42 -12.333 -81.833 -37 -119.5
s-58.667 -66.834 -102 -87.501s-92 -31 -146 -31zM893.005 1362c0 21.333 -9.66699 38.168 -29 50.501s-45 18.5 -77 18.5c-41.333 0 -74.833 -9.33301 -100.5 -28s-38.5 -41.334 -38.5 -68.001c0 -22 9.33301 -39.333 28 -52s45 -19 79 -19c42 0 75.5 9.66699 100.5 29
s37.5 42.333 37.5 69z" />
    <glyph glyph-name="Uhungarumlaut" unicode="&#x170;" 
d="M496 -20c-134 0 -231.833 25.8311 -293.5 77.498s-92.5 132.834 -92.5 243.501c0 51.333 6.33301 108.333 19 171l170 877h191l-165 -851c-13.333 -68 -20 -124.667 -20 -170c0 -68 16.833 -117.167 50.5 -147.5s90.167 -45.5 169.5 -45.5
c107.333 0 187.833 27.333 241.5 82s94.5 152.667 122.5 294l163 838h190l-167 -859c-34.667 -177.333 -97.667 -306.666 -189 -387.999s-221.333 -122 -390 -122zM881 1446l4 20l254 239h187l-6 -29l-345 -230h-94zM517 1446l4 20l254 239h187l-6 -29l-345 -230h-94z" />
    <glyph glyph-name="uhungarumlaut" unicode="&#x171;" 
d="M470 1082l-132.997 -686c-9.33301 -48 -14 -89 -14 -123c0 -56 14.167 -95.667 42.5 -119s75.5 -35 141.5 -35c87.333 0 161.666 30 222.999 90s101.666 142 120.999 246l122 627h181l-165 -851c-4.66699 -22.667 -9.16699 -46.5 -13.5 -71.5l-12 -71l-9.5 -57.5
c-2.66699 -16 -4 -26.333 -4 -31h-170c0 7.33301 3.5 33.166 10.5 77.499l17.5 107.5h-3c-55.333 -74.667 -113.833 -127.5 -175.5 -158.5s-131.834 -46.5 -210.501 -46.5c-97.333 0 -169 19.333 -215 58s-69 100.334 -69 185.001c0 40 5 86 15 138l140 721h180z
M839.003 1201l4 20l254 239h187l-6 -29l-345 -230h-94zM475.003 1201l4 20l254 239h187l-6 -29l-345 -230h-94z" />
    <glyph glyph-name="Uogonek" unicode="&#x172;" 
d="M496 -20c-134 0 -231.833 25.8311 -293.5 77.498s-92.5 132.834 -92.5 243.501c0 51.333 6.33301 108.333 19 171l170 877h191l-165 -851c-13.333 -68 -20 -124.667 -20 -170c0 -68 16.833 -117.167 50.5 -147.5s90.167 -45.5 169.5 -45.5
c107.333 0 187.833 27.333 241.5 82s94.5 152.667 122.5 294l163 838h190l-167 -859c-34.667 -177.333 -97.667 -306.666 -189 -387.999s-221.333 -122 -390 -122zM523 -427.002c-60.667 0 -105.832 12.832 -135.499 38.499s-44.5 60.5 -44.5 104.5
c0 53.333 19.167 105.833 57.5 157.5s88.166 93.834 149.499 126.501h133c-55.333 -28.667 -101.333 -67.5 -138 -116.5s-55 -93.5 -55 -133.5c0 -44.667 26 -67 78 -67c36.667 0 76.667 8 120 24l-21 -107c-44.667 -18 -92.667 -27 -144 -27z" />
    <glyph glyph-name="uogonek" unicode="&#x173;" 
d="M470 1082l-132.997 -686c-9.33301 -48 -14 -89 -14 -123c0 -56 14.167 -95.667 42.5 -119s75.5 -35 141.5 -35c87.333 0 161.666 30 222.999 90s101.666 142 120.999 246l122 627h181l-165 -851c-4.66699 -22.667 -9.16699 -46.5 -13.5 -71.5l-12 -71l-9.5 -57.5
c-2.66699 -16 -4 -26.333 -4 -31h-170c0 7.33301 3.5 33.166 10.5 77.499l17.5 107.5h-3c-55.333 -74.667 -113.833 -127.5 -175.5 -158.5s-131.834 -46.5 -210.501 -46.5c-97.333 0 -169 19.333 -215 58s-69 100.334 -69 185.001c0 40 5 86 15 138l140 721h180z
M753.003 -427c-60.667 0 -105.832 12.832 -135.499 38.499s-44.5 60.5 -44.5 104.5c0 53.333 19.167 105.833 57.5 157.5s88.166 93.834 149.499 126.501h133c-55.333 -28.667 -101.333 -67.5 -138 -116.5s-55 -93.5 -55 -133.5c0 -44.667 26 -67 78 -67
c36.667 0 76.667 8 120 24l-21 -107c-44.667 -18 -92.667 -27 -144 -27z" />
    <glyph glyph-name="Wcircumflex" unicode="&#x174;" 
d="M913 0h-208.001l-32 432c-3.33301 39.333 -8.33301 147.333 -15 324l-82.5 -191.5l-261.5 -564.5h-208l51 1349h189l-53 -835c-8.66699 -110 -20 -225.333 -34 -346l132.5 307l212.5 456h175l33.5 -425.5c7.66699 -99 12.834 -211.5 15.501 -337.5l102 346l266 835h189z
M1120 1466l-4 -20h-105l-192 138h-2l-259 -138h-104l4 20l301 239h164z" />
    <glyph glyph-name="wcircumflex" unicode="&#x175;" 
d="M913 0l-203.998 0.00195312l-51 471l-18 202l-66 -139l-272 -534h-203l27 1082h178l-25 -607c-1.33301 -38 -5.5 -96.167 -12.5 -174.5s-12.833 -128.833 -17.5 -151.5l39 86l61 128l217 424h193l47 -425l14 -213c3.33301 17.333 8.66602 38.666 15.999 63.999
s34.666 112.666 81.999 261.999l219 607h176zM1073 1221l-4 -20h-105l-192 138h-2l-259 -138h-104l4 20l301 239h164z" />
    <glyph glyph-name="Ycircumflex" unicode="&#x176;" 
d="M603 0h-188l114 584l-336 765h205l255 -611l491 611h205l-632 -765zM1120 1466l-4 -20h-105l-192 138h-2l-259 -138h-104l4 20l301 239h164z" />
    <glyph glyph-name="ycircumflex" unicode="&#x177;" 
d="M104 -425c-48 0 -88.332 3.66602 -120.999 10.999l26 135c24 -4 51.667 -6 83 -6c52.667 0 106 19.667 160 59s105.333 102 154 188l27 49l-262 1071h192l140 -642c7.33301 -32.667 17.166 -80.5 29.499 -143.5s18.5 -99.833 18.5 -110.5
c6.66699 14.667 27.667 51.334 63 110.001l462 786h190l-666 -1082c-93.333 -161.333 -177.5 -272.5 -252.5 -333.5s-156.167 -91.5 -243.5 -91.5zM1073 1221l-4 -20h-105l-192 138h-2l-259 -138h-104l4 20l301 239h164z" />
    <glyph glyph-name="Ydieresis" unicode="&#x178;" 
d="M603 0h-188l114 584l-336 765h205l255 -611l491 611h205l-632 -765zM906 1445l36 184h163l-36 -184h-163zM512 1445l36 184h165l-36 -184h-165z" />
    <glyph glyph-name="Zacute" unicode="&#x179;" 
d="M1050 0h-1082l28 143l1022 1050h-745l30 156h962l-27 -139l-1023 -1054h865zM680 1446l4 20l274 239h197l-6 -29l-345 -230h-124z" />
    <glyph glyph-name="zacute" unicode="&#x17a;" 
d="M42 0l27 137l837 806h-641l27 139h844l-26 -137l-839 -806h719l-27 -139h-921zM615 1201l4 20l274 239h197l-6 -29l-345 -230h-124z" />
    <glyph glyph-name="Zdotaccent" unicode="&#x17b;" 
d="M1050 0h-1082l28 143l1022 1050h-745l30 156h962l-27 -139l-1023 -1054h865zM704 1446l37 192h200l-37 -192h-200z" />
    <glyph glyph-name="zdotaccent" unicode="&#x17c;" 
d="M42 0l27 137l837 806h-641l27 139h844l-26 -137l-839 -806h719l-27 -139h-921zM658 1292l37 192h200l-37 -192h-200z" />
    <glyph glyph-name="Zcaron" unicode="&#x17d;" 
d="M1050 0h-1082l28 143l1022 1050h-745l30 156h962l-27 -139l-1023 -1054h865zM886 1445h-164l-207 239l4 20h104l205 -138h2l246 138h105l-4 -20z" />
    <glyph glyph-name="zcaron" unicode="&#x17e;" 
d="M42 0l27 137l837 806h-641l27 139h844l-26 -137l-839 -806h719l-27 -139h-921zM830 1201h-164l-207 239l4 20h104l205 -138h2l246 138h105l-4 -20z" />
    <glyph glyph-name="longs" unicode="&#x17f;" 
d="M475 0l-180.005 -0.000976562l215 1107c26.667 136 77.5 232.833 152.5 290.5s187.833 86.5 338.5 86.5c46.667 0 97.334 -2.16699 152.001 -6.5s96.334 -9.16602 125.001 -14.499l-28 -145c-19.333 3.33301 -59.666 7 -120.999 11s-106.666 6 -135.999 6
c-99.333 0 -170.666 -18 -213.999 -54s-74 -99 -92 -189z" />
    <glyph glyph-name="uni0180" unicode="&#x180;" 
d="M589 -20c-162.667 0 -262 61.332 -298 183.999h-2c-3.33301 -17.333 -7.16602 -35.166 -11.499 -53.499s-8.5 -35.166 -12.5 -50.499s-7.66699 -28.5 -11 -39.5s-5.33301 -17.833 -6 -20.5h-174c5.33301 16.667 21.666 91 48.999 223l191 983h-127l26 131h126l29 147h180
l-29 -147h306l-26 -131h-305c-19.333 -100 -40 -200.667 -62 -302h4c86.667 133.333 211 200 373 200c204 0 306 -114.333 306 -343c0 -62.667 -8 -134.334 -24 -215.001c-37.333 -189.333 -98.833 -331 -184.5 -425s-191.5 -141 -317.5 -141zM926 735.999
c0 80 -15.833 138.167 -47.5 174.5s-80.167 54.5 -145.5 54.5c-84.667 0 -155 -26.667 -211 -80s-99.833 -133.666 -131.5 -240.999s-47.5 -205 -47.5 -293c0 -82 18 -142.167 54 -180.5s92 -57.5 168 -57.5c78.667 0 143.167 26.167 193.5 78.5
s90.833 134.166 121.5 245.499s46 211 46 299z" />
    <glyph glyph-name="uni0181" unicode="&#x181;" 
d="M1128 435c0 -135.333 -53.833 -241.666 -161.5 -318.999s-253.5 -116 -437.5 -116h-372l234 1201c-60 0 -104.167 -14.667 -132.5 -44s-42.5 -77.333 -42.5 -144l2 -56l-158 -17l-1 25v25c0 110 32.167 197.333 96.5 262s152.5 97 264.5 97h312
c292.667 0 439 -90 439 -270c0 -92 -30 -171 -90 -237s-141.667 -109.667 -245 -131c91.333 -10 162.833 -39.333 214.5 -88s77.5 -111.334 77.5 -188.001zM937 437c0 129.333 -104.667 194 -314 194h-152l-93 -478h166c262 0 393 94.667 393 284zM972 1036
c0 56.667 -22.333 97.5 -67 122.5s-111.667 37.5 -201 37.5h-123l-81 -416h125c114 0 200.333 21.667 259 65s88 107 88 191z" />
    <glyph glyph-name="uni0182" unicode="&#x182;" 
d="M608 0h-525l262 1349h918l-30 -156h-727l-80 -410h322c140.667 0 247.5 -26 320.5 -78s109.5 -126.667 109.5 -224c0 -88 -23.333 -170 -70 -246s-113.167 -134.167 -199.5 -174.5s-186.5 -60.5 -300.5 -60.5zM982 442c0 120.667 -95.999 181 -287.999 181h-299l-92 -472
h307c109.333 0 193.666 18.667 252.999 56s97 97.333 113 180c4 20 6 38.333 6 55z" />
    <glyph glyph-name="uni0183" unicode="&#x183;" 
d="M589 -20c-162.667 0 -262 61.332 -298 183.999h-2c-3.33301 -17.333 -7.16602 -35.166 -11.499 -53.499s-8.5 -35.166 -12.5 -50.499s-7.66699 -28.5 -11 -39.5s-5.33301 -17.833 -6 -20.5h-174c5.33301 16.667 21.666 91 48.999 223l245 1261h734l-30 -159h-555
l-51 -264l-34 -157h4c86.667 133.333 211 200 373 200c204 0 306 -114.333 306 -343c0 -62.667 -8 -134.334 -24 -215.001c-37.333 -189.333 -98.833 -331 -184.5 -425s-191.5 -141 -317.5 -141zM926 735.999c0 80 -15.833 138.167 -47.5 174.5s-80.167 54.5 -145.5 54.5
c-84.667 0 -155 -26.667 -211 -80s-99.833 -133.666 -131.5 -240.999s-47.5 -205 -47.5 -293c0 -82 18 -142.167 54 -180.5s92 -57.5 168 -57.5c78.667 0 143.167 26.167 193.5 78.5s90.833 134.166 121.5 245.499s46 211 46 299z" />
    <glyph glyph-name="uni0184" unicode="&#x184;" 
d="M1152 465c0 -92 -23.167 -173.499 -69.5 -244.499s-112.833 -125.5 -199.5 -163.5s-187 -57 -301 -57h-525l185 951l-126 165l6 33l332 200h56l-110 -566h322c138 0 244.167 -27.333 318.5 -82s111.5 -133.334 111.5 -236.001zM956 432.001
c0 127.333 -96.001 191 -288.001 191h-299l-92 -472h307c128.667 0 222.834 23 282.501 69s89.5 116.667 89.5 212z" />
    <glyph glyph-name="uni0185" unicode="&#x185;" 
d="M291 1086l-93 179.999l7 33l292 185h51l-82 -423l-34 -157h4c86.667 133.333 211 200 373 200c204 0 306 -114.333 306 -343c0 -62.667 -8 -134.334 -24 -215.001c-37.333 -189.333 -98.833 -331 -184.5 -425s-191.5 -141 -317.5 -141c-162.667 0 -262 61.333 -298 184
h-2c-3.33301 -17.333 -7.16602 -35.166 -11.499 -53.499s-8.5 -35.166 -12.5 -50.499s-7.66699 -28.5 -11 -39.5s-5.33301 -17.833 -6 -20.5h-174c5.33301 16.667 21.666 91 48.999 223zM926 735.999c0 80 -15.833 138.167 -47.5 174.5s-80.167 54.5 -145.5 54.5
c-84.667 0 -155 -26.667 -211 -80s-99.833 -133.666 -131.5 -240.999s-47.5 -205 -47.5 -293c0 -82 18 -142.167 54 -180.5s92 -57.5 168 -57.5c78.667 0 143.167 26.167 193.5 78.5s90.833 134.166 121.5 245.499s46 211 46 299z" />
    <glyph glyph-name="uni0186" unicode="&#x186;" 
d="M968 869c0 230 -86.001 344.999 -258.001 344.999c-68 0 -132.667 -21.833 -194 -65.5s-111.666 -103.167 -150.999 -178.5l-155 65c128.667 223.333 305.667 335 531 335c142.667 0 249.667 -41.667 321 -125s107 -204.333 107 -363
c0 -179.333 -29.333 -338.5 -88 -477.5s-141.5 -244.5 -248.5 -316.5s-230.833 -108 -371.5 -108c-220.667 0 -357.667 124 -411 372l172 65c17.333 -93.333 48.833 -163.666 94.5 -210.999s103.167 -71 172.5 -71c98.667 0 183.5 27.667 254.5 83
s126.167 139.5 165.5 252.5s59 245.833 59 398.5z" />
    <glyph glyph-name="uni0187" unicode="&#x187;" 
d="M316 452c0 -211.333 88.668 -316.999 266.001 -316.999c140 0 265.667 94 377 282l146 -65c-148.667 -248 -333.667 -372 -555 -372c-141.333 0 -249 39.5 -323 118.5s-111 195.167 -111 348.5c0 110 17.333 228.167 52 354.5s81.667 231.5 141 315.5
s131 147.167 215 189.5s179.333 63.5 286 63.5c117.333 0 210.333 -31.333 279 -94c19.333 91.333 57.166 163.166 113.499 215.499s124.166 78.5 203.499 78.5c35.333 0 74.333 -5 117 -15l-31 -157c-26.667 12 -54.667 18 -84 18c-47.333 0 -84 -11.833 -110 -35.5
s-43.333 -61.167 -52 -112.5l-40 -237l-175 -61c-12 79.333 -40 139.833 -84 181.5s-99.333 62.5 -166 62.5c-72.667 0 -136.5 -17.333 -191.5 -52s-102.167 -87.5 -141.5 -158.5s-71.166 -160.5 -95.499 -268.5s-36.5 -202.333 -36.5 -283z" />
    <glyph glyph-name="uni0188" unicode="&#x188;" 
d="M741 1102c115.333 0 206.999 -27.0039 274.999 -81.0039c20.667 84 58 148.667 112 194s119 68 195 68c32.667 0 65 -4 97 -12l-29 -150c-22 10.667 -47.333 16 -76 16c-44 0 -77.5 -11.833 -100.5 -35.5s-39.5 -61.167 -49.5 -112.5l-41 -210l-194 -14v3
c0 58.667 -17.667 105.5 -53 140.5s-92.333 52.5 -171 52.5c-67.333 0 -125.166 -13 -173.499 -39s-89 -65.167 -122 -117.5s-59.5 -121 -79.5 -206s-30 -160.5 -30 -226.5c0 -87.333 20 -151.333 60 -192s100 -61 180 -61c72 0 135.167 17.667 189.5 53
s94.166 89.333 119.499 162l188 -12c-35.333 -103.333 -100.5 -186.166 -195.5 -248.499s-201.833 -93.5 -320.5 -93.5c-135.333 0 -237.5 33 -306.5 99s-103.5 162.667 -103.5 290c0 84.667 13.833 174.834 41.5 270.501s69 178.834 124 249.501
s121.333 123.834 199 159.501s165.834 53.5 264.501 53.5z" />
    <glyph glyph-name="uni0189" unicode="&#x189;" 
d="M427 0h-370.002l116 597h-135l29 149h135l117 603h311c363.333 0 545 -153 545 -459c0 -105.333 -18 -217 -54 -335s-86.667 -218.5 -152 -301.5s-143.666 -146 -234.999 -189s-193.666 -64.5 -306.999 -64.5zM652.998 597l-289 0.000976562l-86 -441h162
c85.333 0 160.5 16.167 225.5 48.5s120.5 81.166 166.5 146.499s82.333 147.333 109 246s40 188 40 268c0 115.333 -31.5 198.833 -94.5 250.5s-158.167 77.5 -285.5 77.5h-121l-87 -447h289z" />
    <glyph glyph-name="uni018A" unicode="&#x18a;" 
d="M1176 854c0 -171.333 -30.167 -321.667 -90.5 -451s-147.333 -228.833 -261 -298.5s-246.167 -104.5 -397.5 -104.5h-270l234 1201c-60 0 -104.167 -14.667 -132.5 -44s-42.5 -77.333 -42.5 -144l2 -56l-158 -17l-1 25v25c0 110 32.167 197.333 96.5 262
s152.5 97 264.5 97h211c363.333 0 545 -165 545 -495zM981 833.999c0 125.333 -31.667 216.499 -95 273.499s-158.333 85.5 -285 85.5h-21l-201 -1037h62c172 0 305 59.333 399 178s141 285.334 141 500.001z" />
    <glyph glyph-name="uni018B" unicode="&#x18b;" 
d="M20 324c0 143.333 51.167 255.666 153.5 336.999s244.833 122 427.5 122h322l80 410h-727l30 156h918l-262 -1349h-525c-132 0 -234.5 28.333 -307.5 85s-109.5 136.334 -109.5 239.001zM213 337c0 -64.667 22.833 -111.833 68.5 -141.5s116.167 -44.5 211.5 -44.5h307
l92 472h-299c-253.333 0 -380 -95.333 -380 -286z" />
    <glyph glyph-name="uni018C" unicode="&#x18c;" 
d="M944 0l-172 -0.000976562v4c0 28.667 8 85.334 24 170.001h-5c-46 -70 -99.167 -120.833 -159.5 -152.5s-130.833 -47.5 -211.5 -47.5c-105.333 0 -183 27.833 -233 83.5s-75 140.167 -75 253.5c0 64 8 137.667 24 221c74 377.333 241.333 566 502 566
c80.667 0 145.5 -14.333 194.5 -43s83.5 -75.667 103.5 -141h2l21 119l56 292h-553l31 159h733l-245 -1261c-18 -86.667 -30.333 -161 -37 -223zM301 336.999c0 -78 15.498 -134.834 46.498 -170.501s79.833 -53.5 146.5 -53.5c84.667 0 154.834 26.333 210.501 79
s99.834 134.167 132.501 244.5s49 207.5 49 291.5c0 80.667 -18 140.334 -54 179.001s-92.667 58 -170 58c-58.667 0 -109 -14 -151 -42s-78 -71.833 -108 -131.5s-54.5 -135.5 -73.5 -227.5s-28.5 -167.667 -28.5 -227z" />
    <glyph glyph-name="uni018D" unicode="&#x18d;" 
d="M1117 697c0 -210.667 -48.332 -376.499 -144.999 -497.499s-236.334 -187.5 -419.001 -199.5l294 -293l-26 -132h-776l28 145h519c-54.667 59.333 -113.334 118.166 -176.001 176.499l-182 175.5c-39.333 39.333 -69.666 85 -90.999 137s-32 115.333 -32 190
c0 218.667 54 390.5 162 515.5s258.333 187.5 451 187.5c262 0 393 -135 393 -405zM928.001 688.001c0 95.333 -18.332 166 -54.999 212s-94 69 -172 69c-128.667 0 -227.334 -46.833 -296.001 -140.5s-103 -231.167 -103 -412.5c0 -94.667 19.5 -165.667 58.5 -213
s94.5 -71 166.5 -71c132.667 0 232.667 47.167 300 141.5s101 232.5 101 414.5z" />
    <glyph glyph-name="uni018E" unicode="&#x18e;" 
d="M2 0l30 156h769l90 461h-668l30 154h668l82 422h-728l30 156h919l-262 -1349h-960z" />
    <glyph glyph-name="uni018F" unicode="&#x18f;" 
d="M270 1134c66 78 138.999 136.835 218.999 176.502s171.667 59.5 275 59.5c138.667 0 242.5 -41 311.5 -123s103.5 -202.333 103.5 -361c0 -180.667 -27.5 -339.5 -82.5 -476.5s-134 -242.833 -237 -317.5s-221.833 -112 -356.5 -112c-132 0 -232 37.667 -300 113
s-102 185.666 -102 330.999c0 75.333 9.33301 159.666 28 252.999l16 80h821c8.66699 57.333 13 109 13 155c0 79.333 -16.167 149.5 -48.5 210.5s-99.5 91.5 -201.5 91.5c-133.333 0 -243.666 -56.667 -330.999 -170zM533.999 135.002c194.667 0 328.666 156 401.999 468
h-623c-8.66699 -58.667 -13 -112 -13 -160c0 -78 15.333 -148.833 46 -212.5s93.334 -95.5 188.001 -95.5z" />
    <glyph glyph-name="uni0190" unicode="&#x190;" 
d="M499 -20c-138.667 0 -247.834 28.832 -327.501 86.499s-119.5 138.167 -119.5 241.5c0 100.667 36.167 188.167 108.5 262.5s167.833 119.5 286.5 135.5c-152.667 37.333 -229 118.333 -229 243c0 77.333 24.167 148.5 72.5 213.5s114.833 115.667 199.5 152
s179.667 54.5 285 54.5c130.667 0 232.167 -26.333 304.5 -79s120.833 -137.667 145.5 -255l-181 -65c-17.333 86 -51.166 148.167 -101.499 186.5s-117.166 57.5 -200.499 57.5c-98.667 0 -178.834 -24.167 -240.501 -72.5s-92.5 -110.5 -92.5 -186.5
c0 -122 105.333 -183 316 -183h71l-29 -148h-71c-298 0 -447 -95 -447 -285c0 -64.667 25.667 -115.167 77 -151.5s121.333 -54.5 210 -54.5c86.667 0 165.667 21.667 237 65s137 112.333 197 207l140 -77c-82 -125.333 -171.833 -214.666 -269.5 -267.999
s-211.5 -80 -341.5 -80z" />
    <glyph glyph-name="uni0191" unicode="&#x191;" 
d="M512 1193l-96 -494h676l-31 -158h-677l-130 -671c-19.333 -96 -57.5 -169.167 -114.5 -219.5s-129.167 -75.5 -216.5 -75.5c-42 0 -88.333 6.66699 -139 20l65 156c32 -11.333 60 -17 84 -17c69.333 0 114.333 52.333 135 157l283 1458h891l-30 -156h-700z" />
    <glyph glyph-name="florin" unicode="&#x192;" 
d="M1070 1369c54 0 106 -7.66602 156 -22.999l-67 -136c-38 12.667 -80 19 -126 19c-57.333 0 -100.666 -10.833 -129.999 -32.5s-56 -62.834 -80 -123.501l-54 -137h302l-51 -131h-303l-482 -1230h-180l482 1230h-252l53 131h251l58 152
c43.333 102 99.166 174.333 167.499 217s153.5 64 255.5 64z" />
    <glyph glyph-name="uni0193" unicode="&#x193;" 
d="M530 -20c-132 0 -234.001 44.6699 -306.001 134.003s-108 215.333 -108 378c0 277.333 59 493 177 647s288 231 510 231c124 0 218.333 -33.667 283 -101c22 98.667 60.5 174.167 115.5 226.5s122.833 78.5 203.5 78.5c35.333 0 74.333 -5 117 -15l-31 -157
c-34.667 12 -62.667 18 -84 18c-47.333 0 -83.666 -11.833 -108.999 -35.5s-43 -61.167 -53 -112.5l-45 -233l-182 -56c-24 154 -105 231 -243 231c-95.333 0 -177.166 -27.333 -245.499 -82s-121 -135.334 -158 -242.001s-55.5 -238.334 -55.5 -395.001
c0 -116.667 21.5 -205.834 64.5 -267.501s108.167 -92.5 195.5 -92.5c44.667 0 92.5 6.83301 143.5 20.5s94.5 31.5 130.5 53.5l66 336h-293l31 160h479l-111 -572c-92.667 -54 -179.334 -93 -260.001 -117s-158 -36 -232 -36z" />
    <glyph glyph-name="uni0194" unicode="&#x194;" 
d="M428 -425c-65.333 0 -115.999 17.9961 -151.999 53.9961s-54 85 -54 147c0 42.667 10.167 86.834 30.5 132.501s50.5 94.834 90.5 147.501l104 143l-285 1150h201l222 -969l594 969h201l-733 -1149c32.667 -91.333 52.667 -150.166 60 -176.499s13.166 -52 17.499 -77
s6.5 -49.167 6.5 -72.5c0 -51.333 -12.167 -100.166 -36.5 -146.499s-58.833 -83.333 -103.5 -111s-99 -41.5 -163 -41.5zM568.001 -129.004c0 52 -13.668 123 -41.001 213c-46 -66 -76.167 -111.667 -90.5 -137s-26 -50.333 -35 -75s-13.5 -48 -13.5 -70
c0 -24.667 6 -43.667 18 -57s29 -20 51 -20c32.667 0 59.334 12.333 80.001 37s31 61 31 109z" />
    <glyph glyph-name="uni0195" unicode="&#x195;" 
d="M732 -20c-76.667 0 -133.669 17.499 -171.002 52.499s-56 88.167 -56 159.5c0 47.333 6.33301 103.666 19 168.999l65 333.5c14.667 76.333 21.334 128.833 20.001 157.5c0 40 -8 68.5 -24 85.5s-40.667 25.5 -74 25.5c-46 0 -88.833 -29 -128.5 -87
s-69.5 -137.333 -89.5 -238l-124 -638h-169l288 1484h169c-57.333 -295.333 -89.666 -458.666 -96.999 -489.999s-13.333 -53.666 -18 -66.999h3c76 116.667 162 175 258 175c121.333 0 182 -66.667 182 -200c0 -46 -6 -99.667 -18 -161l-69 -357
c-13.333 -68.667 -20 -121 -20 -157c0 -40 6.83301 -68.333 20.5 -85s33.5 -25 59.5 -25c41.333 0 74.5 19.5 99.5 58.5s47.5 108.5 67.5 208.5l136 698h168l-139 -717c-26 -131.333 -68.667 -228.333 -128 -291s-136 -94 -230 -94z" />
    <glyph glyph-name="uni0196" unicode="&#x196;" 
d="M659 142h380l-28 -142h-982l28 142h422l233 1200h-289l27 142h469z" />
    <glyph glyph-name="uni0197" unicode="&#x197;" 
d="M359 1349h823l-30 -156h-316l-80 -410h207l-27 -141h-207l-95 -486h316l-30 -156h-823l30 156h316l95 486h-207l27 141h207l80 410h-316z" />
    <glyph glyph-name="uni0198" unicode="&#x198;" 
d="M898 0l-356.999 627l-206 -178l-87 -449h-191l209 1074c18.667 94.667 58.167 167.667 118.5 219s137.166 77 230.499 77c44.667 0 87.667 -5 129 -15l-32 -165c-30.667 12 -65 18 -103 18c-84 0 -135.667 -49.333 -155 -148l-79 -404l707 693h225l-610 -587l425 -762
h-224z" />
    <glyph glyph-name="uni0199" unicode="&#x199;" 
d="M809 0l-269 499l-151 -98l-78 -401h-180l231 1188c18.667 94.667 58.167 167.667 118.5 219s137.166 77 230.499 77c44 0 87.333 -5 130 -15l-33 -165c-30.667 12 -68 18 -112 18c-85.333 0 -137.666 -49.333 -156.999 -148l-120 -617l577 525h211l-529 -465l342 -617
h-211z" />
    <glyph glyph-name="uni019A" unicode="&#x19a;" 
d="M789 813h209l-27 -141h-209l-103 -530h380l-28 -142h-982l28 142h422l103 530h-226l27 141h226l103 529h-289l27 142h469z" />
    <glyph glyph-name="uni019B" unicode="&#x19b;" 
d="M957 1275l-172 -60l216 -1215h-190l-94 579c-3.33301 18 -7.83301 51 -13.5 99s-9.16699 86.333 -10.5 115c-13.333 -25.333 -31 -56.833 -53 -94.5s-170 -270.5 -444 -698.5h-187l638 970l-33 190l-196 -68l-23 118l202 69l-34 205h177l26 -147l168 57z" />
    <glyph glyph-name="uni019C" unicode="&#x19c;" 
d="M690 -20c-90 0 -145.336 55.668 -166.003 167.001c-31.333 -50.667 -69.333 -91.167 -114 -121.5s-92.667 -45.5 -144 -45.5c-79.333 0 -136.833 20.667 -172.5 62s-53.5 105 -53.5 191c0 50 6.66699 109.667 20 179l182 937h163l-179 -921
c-12.667 -65.333 -19 -118 -19 -158c0 -48.667 7.83301 -83.334 23.5 -104.001s42.834 -31 81.501 -31c48.667 0 88.334 21.667 119.001 65s54.667 110 72 200l184 949h162l-181 -933c-12 -60 -18 -109.333 -18 -148c0 -46 7.33301 -79.667 22 -101s39.334 -32 74.001 -32
c98.667 0 166.667 94.333 204 283l181 931h162l-217 -1118c-15.333 -75.333 -27.333 -152.333 -36 -231h-138l18 134c-61.333 -102.667 -138 -154 -230 -154z" />
    <glyph glyph-name="uni019D" unicode="&#x19d;" 
d="M731 0l-300 1130c-10 -111.333 -21 -196 -33 -254l-196 -1006c-19.333 -98 -56.333 -171.667 -111 -221s-124.667 -74 -210 -74c-47.333 0 -87 3.66699 -119 11l31 162c26.667 -9.33301 59.334 -14 98.001 -14c75.333 0 123.666 52.333 144.999 157l283 1458h223
l306 -1138c7.33301 97.333 19.333 188.666 36 273.999l168 864h172l-263 -1349h-230z" />
    <glyph glyph-name="uni019E" unicode="&#x19e;" 
d="M680 -425l218 1120c7.33301 38.667 11 71.334 11 98.001c0 58.667 -14.5 101.667 -43.5 129s-74.167 41 -135.5 41c-82.667 0 -156.167 -30.167 -220.5 -90.5s-106.833 -142.166 -127.5 -245.499l-122 -627h-180l165 851c4.66699 22.667 9.16699 46.5 13.5 71.5l12 71
l9.5 57.5c2.66699 16 4 26.333 4 31h170c0 -4 -2.83301 -26.5 -8.5 -67.5s-12.167 -80.167 -19.5 -117.5h3c45.333 63.333 99 113.333 161 150s137 55 225 55c188.667 0 283 -84.667 283 -254c0 -38 -4.66699 -80.333 -14 -127l-223 -1146h-181z" />
    <glyph glyph-name="uni019F" unicode="&#x19f;" 
d="M504 -20c-135.333 0 -236.168 38.8311 -302.501 116.498s-99.5 188.834 -99.5 333.501c0 107.333 16.833 224.833 50.5 352.5s79.5 235.5 137.5 323.5s127.833 154 209.5 198s173.834 66 276.501 66c132 0 232.333 -36.833 301 -110.5s103 -184.167 103 -331.5
c0 -103.333 -16.333 -218.666 -49 -345.999s-79 -236.5 -139 -327.5s-131.333 -159.5 -214 -205.5s-174 -69 -274 -69zM534.998 134.998c193.333 0 326.667 156 400 468h-618c-8.66699 -54.667 -13 -107 -13 -157c0 -207.333 77 -311 231 -311zM745.999 1214
c-97.333 0 -179 -37.5 -245 -112.5s-117.667 -189.833 -155 -344.5h619c8.66699 62 13 114 13 156c0 200.667 -77.333 301 -232 301z" />
    <glyph glyph-name="Ohorn" unicode="&#x1a0;" 
d="M504 -20c-135.333 0 -236.169 38.8311 -302.502 116.498s-99.5 188.834 -99.5 333.501c0 107.333 16.833 224.833 50.5 352.5s79.5 235.5 137.5 323.5s127.833 154 209.5 198s173.834 66 276.501 66c222 0 352.333 -101.667 391 -305c62.667 42 101.334 101 116.001 177
h-88l32 167h196l-21 -106c-28 -139.333 -102.667 -246.333 -224 -321l2 -54c0 -103.333 -16.333 -218.666 -49 -345.999s-79 -236.5 -139 -327.5s-131.333 -159.5 -214 -205.5s-174 -69 -274 -69zM977.997 912.998c0 200.667 -77.334 301 -232.001 301
c-90.667 0 -168 -33.167 -232 -99.5s-115 -166.5 -153 -300.5s-57 -256.667 -57 -368c0 -207.333 77 -311 231 -311c66.667 0 125.334 17.333 176.001 52s95.5 89.334 134.5 164.001s70.833 167.167 95.5 277.5s37 205.166 37 284.499z" />
    <glyph glyph-name="ohorn" unicode="&#x1a1;" 
d="M500 -20c-125.333 0 -221.335 32.833 -288.002 98.5s-100 161.834 -100 288.501c0 52.667 6 111 18 175c36.667 186 106.167 325.833 208.5 419.5s230.833 140.5 385.5 140.5c132.667 0 231.334 -30.667 296.001 -92s97 -154 97 -278v-7c72 46 116 111.333 132 196h-88
l33 167h195l-21 -106c-15.333 -77.333 -44.666 -145.333 -87.999 -204s-99.666 -106.334 -168.999 -143.001c-2.66699 -29.333 -7.33398 -60.333 -14.001 -93c-34.667 -181.333 -103 -320.333 -205 -417s-232.667 -145 -392 -145zM927.998 720
c0 83.333 -18.1631 145.667 -54.4961 187s-93.833 62 -172.5 62c-88 0 -160.833 -25.667 -218.5 -77s-102.334 -128 -134.001 -230s-47.5 -198.333 -47.5 -289c0 -173.333 74.333 -260 223 -260c67.333 0 124.666 13.833 171.999 41.5s88.166 70.5 122.499 128.5
s61.166 129.833 80.499 215.5s29 159.5 29 221.5z" />
    <glyph glyph-name="uni01A2" unicode="&#x1a2;" 
d="M402 -20c-117.333 0 -205.667 41.5 -265 124.5s-89 200.5 -89 352.5c0 172 26.167 328.167 78.5 468.5s125.5 249.5 219.5 327.5s199.333 117 316 117c83.333 0 158.333 -23.667 225 -71l367 64h43l-347 -1787h-180l308 1587h-166l-211 -1088
c-101.333 -63.333 -201 -95 -299 -95zM733.999 1171c-24 28.667 -59.333 43.001 -106 43.001c-70 0 -134 -32.833 -192 -98.5s-104.333 -156.334 -139 -272.001s-52 -236.167 -52 -361.5c0 -108.667 16.167 -193.667 48.5 -255s78.5 -92 138.5 -92
c41.333 0 77 10.667 107 32z" />
    <glyph glyph-name="uni01A3" unicode="&#x1a3;" 
d="M799 -425l261 1343h-179l-166 -855c-43.333 -26 -91.833 -46.333 -145.5 -61s-107.5 -22 -161.5 -22c-124.667 0 -220.667 34.333 -288 103s-101 172 -101 310c0 228 53.333 403.167 160 525.5s257.667 183.5 453 183.5c54.667 0 105.5 -7.16699 152.5 -21.5
s85.5 -31.833 115.5 -52.5l326 65h42l-295 -1518h-174zM713 949c-32 13.333 -66.667 20 -104 20c-132.667 0 -232.667 -46.167 -300 -138.5s-101 -236.833 -101 -433.5c0 -95.333 18.333 -166.5 55 -213.5s93 -70.5 169 -70.5c44 0 85.333 7.33301 124 22z" />
    <glyph glyph-name="uni01A4" unicode="&#x1a4;" 
d="M1217 1019c0 -91.333 -24.5 -175.999 -73.5 -253.999s-117.333 -139.333 -205 -184s-187.5 -67 -299.5 -67h-191l-100 -514h-191l234 1201c-60 0 -104.167 -14.667 -132.5 -44s-42.5 -77.333 -42.5 -144l2 -56l-158 -17l-1 25v25c0 110 32.167 197.333 96.5 262
s152.5 97 264.5 97h370c138 0 243.667 -28.833 317 -86.5s110 -138.834 110 -243.501zM1022 991.001c0 136.667 -95 205 -285 205h-156l-103 -531h164c116 0 208.333 30 277 90s103 138.667 103 236z" />
    <glyph glyph-name="uni01A5" unicode="&#x1a5;" 
d="M1115 728c0 -154.667 -21.499 -289.667 -64.499 -405s-103.667 -201.333 -182 -258s-171.5 -85 -279.5 -85c-165.333 0 -264 61.333 -296 184h-5c0 -6 -2.5 -23.5 -7.5 -52.5s-39.167 -207.833 -102.5 -536.5h-181l314 1613c19.333 96.667 58.166 170.167 116.499 220.5
s134.833 75.5 229.5 75.5c36 0 66.667 -2.66699 92 -8l35 -8l-32 -166c-40 13.333 -77.333 20 -112 20c-83.333 0 -134.666 -49.333 -153.999 -148l-52 -270h3c49.333 70.667 102.666 121.667 159.999 153s127.333 47 210 47c205.333 0 308 -125.333 308 -376zM927.001 707
c0 172 -64.667 257.999 -194 257.999c-260 0 -390 -194.333 -390 -583c0 -93.333 18.167 -161.5 54.5 -204.5s92.5 -64.5 168.5 -64.5c116 0 205.167 51.333 267.5 154s93.5 249.334 93.5 440.001z" />
    <glyph glyph-name="uni01A6" unicode="&#x1a6;" 
d="M812 -319l-238 741h-244l-82 -422h-191l262 1349h191l-30 -153h291c139.333 0 243.166 -27 311.499 -81s102.5 -128.333 102.5 -223c0 -71.333 -17.667 -139 -53 -203s-85.666 -117.5 -150.999 -160.5s-141 -71.167 -227 -84.5l268 -763h-210zM989 863
c0 120 -88.667 180 -266 180h-272l-92 -470h280c110 0 195.833 25.833 257.5 77.5s92.5 122.5 92.5 212.5z" />
    <glyph glyph-name="uni01A7" unicode="&#x1a7;" 
d="M57 297c0 58.667 7.82812 109.835 23.4951 153.502s37.334 82 65.001 115s61.334 61.667 101.001 86s83.334 45.333 131.001 63s126.5 39.167 236.5 64.5l152 35.5c48.667 11.667 91.834 27 129.501 46s67.667 43.667 90 74s33.5 70.166 33.5 119.499
c0 114.667 -82.333 172 -247 172c-178 0 -296 -71 -354 -213l-177 33c52 113.333 122.333 195.666 211 246.999s206.334 77 353.001 77c129.333 0 228.833 -25 298.5 -75s104.5 -122.667 104.5 -218c0 -59.333 -9.5 -111.666 -28.5 -156.999s-45.833 -84.666 -80.5 -117.999
s-81.5 -63 -140.5 -89s-150.5 -52.667 -274.5 -80c-52 -11.333 -103.833 -23.333 -155.5 -36s-98.167 -29.834 -139.5 -51.501s-74.833 -49.834 -100.5 -84.501s-38.5 -79.667 -38.5 -135c0 -64 25 -112.833 75 -146.5s121.333 -50.5 214 -50.5
c196.667 0 327.667 82 393 246l173 -37c-96 -238.667 -295.667 -358 -599 -358c-146.667 0 -258.167 27.333 -334.5 82s-114.5 133 -114.5 235z" />
    <glyph glyph-name="uni01A8" unicode="&#x1a8;" 
d="M113 231c0 49.333 8.66211 93.332 25.9951 131.999s42.333 72.834 75 102.501s76.334 57.167 131.001 82.5s137.667 51.666 249 78.999l138 35c41.333 10.667 76.5 23.5 105.5 38.5s51.333 33.5 67 55.5s23.5 51 23.5 87c0 81.333 -73 122 -219 122
c-146.667 0 -239.667 -48.667 -279 -146l-154 22c32.667 83.333 88.834 147.166 168.501 191.499s177.834 66.5 294.501 66.5c238.667 0 358 -79.667 358 -239c0 -91.333 -33 -166.666 -99 -225.999s-179 -108.333 -339 -147l-150 -37
c-78.667 -18.667 -135.667 -42.667 -171 -72s-53 -68.666 -53 -117.999c0 -45.333 20.333 -81 61 -107s100.334 -39 179.001 -39c88.667 0 159 13.5 211 40.5s90.667 68.5 116 124.5l149 -34c-40.667 -91.333 -100.667 -158.333 -180 -201s-186.666 -64 -321.999 -64
c-125.333 0 -221 21 -287 63s-99 104.667 -99 188z" />
    <glyph glyph-name="uni01A9" unicode="&#x1a9;" 
d="M3 0l31 162l645 549l-428 477l31 161h999l-30 -156h-784l377 -415l-24 -124l-587 -498h877l-30 -156h-1077z" />
    <glyph glyph-name="uni01AA" unicode="&#x1aa;" 
d="M367 1269c0 64.667 22.501 118.169 67.501 160.502s104.5 63.5 178.5 63.5c89.333 0 148.166 -21 176.499 -63s42.5 -88.667 42.5 -140c0 -26.667 -3 -55.334 -9 -86.001l-258 -1328c-3.33301 -18 -5 -34 -5 -48c0 -63.333 31.333 -95 94 -95c36 0 72.333 4.33301 109 13
l-31 -158c-49.333 -8.66699 -95 -13 -137 -13c-72.667 0 -127.667 18.167 -165 54.5s-56 87.166 -56 152.499c0 26.667 3.33301 56.334 10 89.001l248 1277c-12 -8 -29 -14.833 -51 -20.5s-41 -8.5 -57 -8.5c-48.667 0 -87 13.667 -115 41s-42 63.666 -42 108.999z
M447.001 1286c0 -26 7.83301 -47.167 23.5 -63.5s37.5 -24.5 65.5 -24.5c38.667 0 70.5 12.167 95.5 36.5s37.5 55.166 37.5 92.499c0 26 -8 47.167 -24 63.5s-38.333 24.5 -67 24.5c-35.333 0 -66 -12.167 -92 -36.5s-39 -55.166 -39 -92.499z" />
    <glyph glyph-name="uni01AB" unicode="&#x1ab;" 
d="M268 940l27 142.001h170l113 282h120l-55 -282h432l-27 -142h-432l-127 -652c-3.33301 -16 -5 -30.667 -5 -44c0 -30.667 10 -56.834 30 -78.501s62.333 -32.5 127 -32.5c88.667 0 189.667 11.333 303 34l-60 -310c-37.333 -188 -140 -282 -308 -282
c-44 0 -87.667 5.66699 -131 17l31 160c34.667 -12 68.667 -18 102 -18c39.333 0 70.333 11.167 93 33.5s38.667 56.833 48 103.5l24 125c-62.667 -8 -119 -12 -169 -12c-108 0 -181.333 19.5 -220 58.5s-58 87.5 -58 145.5c0 24.667 3 51.667 9 81l130 671h-167z" />
    <glyph glyph-name="uni01AC" unicode="&#x1ac;" 
d="M836 1193l-232 -1193h-190l232 1193h-202c-61.333 0 -105.666 -12.833 -132.999 -38.5s-41 -72.834 -41 -141.501l3 -56l-159 -17v45c0 119.333 31.667 209.833 95 271.5s154.666 92.5 273.999 92.5h826l-30 -156h-443z" />
    <glyph glyph-name="uni01AD" unicode="&#x1ad;" 
d="M268 940l27.001 142h176l21 110c18 98.667 55.167 174.334 111.5 227.001s130.166 79 221.499 79c44 0 83 -4.66699 117 -14l-32 -168c-34 13.333 -66.667 20 -98 20c-42 0 -74.833 -12 -98.5 -36s-40.167 -61.333 -49.5 -112l-21 -106h432l-27 -142h-432l-127 -652
c-3.33301 -16 -5 -30.667 -5 -44c0 -30.667 10 -56.834 30 -78.501s62.333 -32.5 127 -32.5c88.667 0 189.667 11.333 303 34l-26 -137c-117.333 -30.667 -232 -46 -344 -46c-108 0 -181.333 19.5 -220 58.5s-58 87.5 -58 145.5c0 24.667 3 51.667 9 81l130 671h-167z" />
    <glyph glyph-name="uni01AE" unicode="&#x1ae;" 
d="M836 1193l-253 -1302c-5.33301 -26.667 -8 -49.667 -8 -69c0 -20.667 4.16699 -40.5 12.5 -59.5s29.833 -28.5 64.5 -28.5c40 0 78 5.33301 114 16l-31 -158c-48.667 -11.333 -94 -17 -136 -17c-71.333 0 -125.833 17.167 -163.5 51.5s-56.5 84.5 -56.5 150.5
c0 26 2.66699 53.333 8 82l259 1334h-443l30 156h1076l-30 -156h-443z" />
    <glyph glyph-name="Uhorn" unicode="&#x1af;" 
d="M1118 1019c59.333 17.333 109.001 43.333 149.001 78s66 83 78 145h-88l33 167h195l-21 -106c-20.667 -102 -61.834 -185.333 -123.501 -250s-141.834 -107.334 -240.501 -128.001l-85 -435c-35.333 -178 -96.166 -307.5 -182.499 -388.5s-208.5 -121.5 -366.5 -121.5
c-124 0 -214.5 25.333 -271.5 76s-85.5 129.334 -85.5 236.001c0 52 6.66699 112 20 180l170 877h191l-165 -851c-14.667 -77.333 -22 -139 -22 -185c0 -63.333 14.833 -108.833 44.5 -136.5s78.834 -41.5 147.501 -41.5c96.667 0 169.667 27 219 81
s87.666 152.333 114.999 295l163 838h190z" />
    <glyph glyph-name="uhorn" unicode="&#x1b0;" 
d="M465 1082l-133 -686.001c-10.667 -56.667 -16 -102.667 -16 -138c0 -49.333 12.667 -84.833 38 -106.5s68 -32.5 128 -32.5c80.667 0 149.5 29 206.5 87s96.167 141 117.5 249l122 627h181l-77 -396c58.667 22.667 103.167 51.334 133.5 86.001s51.5 82.334 63.5 143.001
h-88l32 167h196l-21 -106c-19.333 -100 -55.833 -180.667 -109.5 -242s-128.5 -108.333 -224.5 -141c-56 -289.333 -87.833 -457.5 -95.5 -504.5s-12.167 -76.5 -13.5 -88.5h-170c0 7.33301 3.5 33.166 10.5 77.499l17.5 107.5h-3
c-56.667 -76 -113.167 -129.167 -169.5 -159.5s-121.833 -45.5 -196.5 -45.5c-92 0 -159.333 18.833 -202 56.5s-64 96.5 -64 176.5c0 42.667 5.66699 92 17 148l140 721h180z" />
    <glyph glyph-name="uni01B1" unicode="&#x1b1;" 
d="M505 -21c-135.333 0 -241.167 41.501 -317.5 124.501s-114.5 196.833 -114.5 341.5c0 151.333 41.167 293.166 123.5 425.499s199.5 243.5 351.5 333.5c-80.667 -7.33301 -135 -11 -163 -11h-200l31 156h483l-44 -224c-126 -81.333 -221.667 -176.166 -287 -284.499
s-98 -236.166 -98 -383.499c0 -105.333 22.5 -185.333 67.5 -240s110.833 -82 197.5 -82c91.333 0 170.333 24.167 237 72.5s117.5 116.166 152.5 203.499s52.5 188 52.5 302c0 85.333 -15.167 163.333 -45.5 234s-73.833 130 -130.5 178l44 224h483l-31 -156h-200
c-30 0 -83 3.66699 -159 11c72 -54 128.333 -125.5 169 -214.5s61 -185.833 61 -290.5c0 -135.333 -28.333 -258.333 -85 -369s-136 -196.834 -238 -258.501s-215.333 -92.5 -340 -92.5z" />
    <glyph glyph-name="uni01B2" unicode="&#x1b2;" 
d="M492 -20c-130.667 0 -226.666 27.6709 -287.999 83.0039s-92 138.666 -92 249.999c0 49.333 6.33301 105.666 19 168.999l169 867h190l-165 -851c-11.333 -58 -17 -108 -17 -150c0 -72.667 16.833 -126.334 50.5 -161.001s88.834 -52 165.501 -52
c93.333 0 178.5 38.833 255.5 116.5s137.167 185.5 180.5 323.5s65 290 65 456c0 62 -10.333 107.5 -31 136.5s-53 43.5 -97 43.5c-38.667 0 -75.334 -3.33301 -110.001 -10l24 157c46.667 8 95.667 12 147 12c89.333 0 155.166 -27.333 197.499 -82
s63.5 -130.667 63.5 -228c0 -207.333 -30.833 -394.333 -92.5 -561s-147 -294.834 -256 -384.501s-235.167 -134.5 -378.5 -134.5z" />
    <glyph glyph-name="uni01B3" unicode="&#x1b3;" 
d="M1284 1370c42 0 79.8301 -7.5 113.497 -22.5s66.834 -39.5 99.501 -73.5l-110 -136c-40.667 46 -81.667 69 -123 69c-31.333 0 -57.166 -7.66699 -77.499 -23s-40.166 -35 -59.499 -59l-447 -541l-113 -584h-188l113 584l-335 765h205l255 -611l382 474
c86 105.333 181 158 285 158z" />
    <glyph glyph-name="uni01B4" unicode="&#x1b4;" 
d="M111 -425c-46 0 -85.332 3.66699 -117.999 11l26 135c24 -4 50.333 -6 79 -6c56.667 0 110.5 20.667 161.5 62s101.833 105 152.5 191l26 44l-256 1070h185l139 -642c28.667 -142 44.667 -224.667 48 -248h2c7.33301 16 28.166 56.5 62.499 121.5l81.5 150.5l424 777
c46.667 84 97.167 145.5 151.5 184.5s118.166 58.5 191.499 58.5c87.333 0 160.666 -31 219.999 -93l-107 -128c-37.333 41.333 -80 62 -128 62c-29.333 0 -58.166 -9.83301 -86.499 -29.5s-57.5 -55.5 -87.5 -107.5l-670 -1188
c-65.333 -114 -122.666 -199.5 -171.999 -256.5s-100.5 -99.333 -153.5 -127s-110.167 -41.5 -171.5 -41.5z" />
    <glyph glyph-name="uni01B5" unicode="&#x1b5;" 
d="M165 757h428l425 436h-745l30 156h962l-27 -139l-440 -453h349l-26 -133h-452l-454 -468h865l-30 -156h-1082l28 143l467 481h-324z" />
    <glyph glyph-name="uni01B6" unicode="&#x1b6;" 
d="M180 617h387l339 326h-641l27 139h844l-26 -137l-342 -328h286l-26 -133h-398l-359 -345h719l-27 -139h-921l27 137l360 347h-275z" />
    <glyph glyph-name="uni01B7" unicode="&#x1b7;" 
d="M1022 1193l-775.001 -0.000976562l31 156h988l-32 -161l-600 -489c146.667 -9.33301 257.667 -49.166 333 -119.499s113 -170.5 113 -300.5c0 -131.333 -30.167 -251 -90.5 -359s-144.333 -192.667 -252 -254s-225.834 -92 -354.501 -92c-92 0 -169.833 12 -233.5 36
s-114.834 59.667 -153.501 107s-70 115 -94 203l177 75c22.667 -94.667 60.834 -163.667 114.501 -207s125.5 -65 215.5 -65c88.667 0 169.834 21.667 243.501 65s131.334 105 173.001 185s62.5 171.333 62.5 274c0 102 -33.333 179.333 -100 232s-171.667 79 -315 79h-74
l27 141z" />
    <glyph glyph-name="uni01B8" unicode="&#x1b8;" 
d="M835 558l-74.002 -0.000976562c-120.667 0 -225.5 -20.333 -314.5 -61s-157.833 -100 -206.5 -178s-73 -172.333 -73 -283c0 -100 27.333 -177.167 82 -231.5s132.334 -81.5 233.001 -81.5c87.333 0 166.666 21.5 237.999 64.5s137.333 112.167 198 207.5l147 -75
c-79.333 -121.333 -170.166 -209.333 -272.499 -264s-219.833 -82 -352.5 -82c-147.333 0 -261.666 38.5 -342.999 115.5s-122 183.833 -122 320.5c0 126 28.333 238.333 85 337s136 177.834 238 237.501s220 96.5 354 110.5l-408 493l31 161h988l-30 -156h-775l404 -494z
" />
    <glyph glyph-name="uni01B9" unicode="&#x1b9;" 
d="M1115 941h-693.999l318 -386l-28 -144h-82c-125.333 0 -227.166 -39.5 -305.499 -118.5s-117.5 -182.833 -117.5 -311.5c0 -85.333 21 -151.5 63 -198.5s101.333 -70.5 178 -70.5c182 0 301.333 84 358 252l174 -12c-38.667 -124 -106.334 -217.833 -203.001 -281.5
s-217.334 -95.5 -362.001 -95.5c-123.333 0 -219.833 34 -289.5 102s-104.5 160.333 -104.5 277c0 105.333 22.667 200.333 68 285s108.5 153.5 189.5 206.5s170.833 85.833 269.5 98.5l-311 362l34 176h873z" />
    <glyph glyph-name="uni01BA" unicode="&#x1ba;" 
d="M1004 -101c-47.333 -104 -121.333 -184.167 -222 -240.5s-221 -84.5 -361 -84.5c-124 0 -222.333 22.667 -295 68s-109 109 -109 191c0 56.667 15 107 45 151s76.5 81.667 139.5 113s157.833 62 284.5 92c93.333 22 160.166 41.5 200.499 58.5s70.666 36.667 90.999 59
s30.5 49.166 30.5 80.499c0 42 -29.833 72.167 -89.5 90.5s-151.167 27.5 -274.5 27.5l27 139l414 298h-626l28 140h868l-24 -119l-458 -322c104 -8.66699 182 -32.334 234 -71.001s78 -91 78 -157c0 -39.333 -6 -74.166 -18 -104.499s-28.667 -57 -50 -80
s-46.666 -43 -75.999 -60s-62 -32 -98 -45s-107.667 -32.5 -215 -58.5c-102 -24 -171.667 -44.667 -209 -62s-66.166 -38 -86.499 -62s-30.5 -54.333 -30.5 -91c0 -42 21.5 -74.667 64.5 -98s104.167 -35 183.5 -35c92 0 169.833 17.333 233.5 52
s112.167 84.334 145.5 149.001z" />
    <glyph glyph-name="uni01BB" unicode="&#x1bb;" 
d="M165 757l616.998 -0.000976562c127.333 94 191 191 191 291c0 116 -76.333 174 -229 174c-72.667 0 -137.167 -19.833 -193.5 -59.5s-96.833 -99.167 -121.5 -178.5l-180 17c36 114.667 100 204.834 192 270.501s202.333 98.5 331 98.5c124 0 219.833 -25.333 287.5 -76
s101.5 -123.334 101.5 -218.001c0 -65.333 -14.167 -123.166 -42.5 -173.499s-68.5 -98.833 -120.5 -145.5h149l-26 -133h-286l-159 -109c-128.667 -87.333 -222.167 -157.666 -280.5 -210.999s-103.166 -106 -134.499 -158h746l-28 -146h-940l23 117
c48.667 82 111.834 161.167 189.501 237.5s192.5 166.166 344.5 269.499h-457z" />
    <glyph glyph-name="uni01BC" unicode="&#x1bc;" 
d="M1086 535c0 -106.667 -24.8301 -202.333 -74.4971 -287s-120.334 -150.5 -212.001 -197.5s-196.834 -70.5 -315.501 -70.5c-85.333 0 -157.833 14.667 -217.5 44s-105.334 71.5 -137.001 126.5s-47.5 119.833 -47.5 194.5l183 21c6 -84 30.333 -145.5 73 -184.5
s101.667 -58.5 177 -58.5c113.333 0 205 35 275 105s105 162.333 105 277c0 74 -24.333 130.833 -73 170.5s-120 59.5 -214 59.5h-219l89 458h-182l30 156h881l-30 -156h-515l-59 -303h68c133.333 0 235.833 -31 307.5 -93s107.5 -149.333 107.5 -262z" />
    <glyph glyph-name="uni01BD" unicode="&#x1bd;" 
d="M843 387c0 52.667 -20.832 93 -62.499 121s-110.5 42 -206.5 42h-197l77 392h-212l27 140h860l-27 -140h-486l-50 -254h74c125.333 0 221.166 -23.5 287.499 -70.5s99.5 -116.167 99.5 -207.5c0 -82.667 -20.333 -156.5 -61 -221.5s-99.5 -116 -176.5 -153
s-169.5 -55.5 -277.5 -55.5c-129.333 0 -227.333 27 -294 81s-101 137.333 -103 250l176 12v-5c0 -60.667 21.333 -110 64 -148s99.667 -57 171 -57c102.667 0 181.167 23.667 235.5 71s81.5 115 81.5 203z" />
    <glyph glyph-name="uni01BE" unicode="&#x1be;" 
d="M540 951c-19.333 -98.667 -29.001 -159.668 -29.001 -183.001c0 -32 12.5 -57.5 37.5 -76.5s69.833 -36.5 134.5 -52.5c104.667 -26 177.334 -50.167 218.001 -72.5s73 -50.166 97 -83.499s36 -75.333 36 -126c0 -120 -44.833 -212.833 -134.5 -278.5
s-217.167 -98.5 -382.5 -98.5c-146 0 -254.5 21.833 -325.5 65.5s-110.167 113.167 -117.5 208.5l165 31c7.33301 -58 35.833 -100.5 85.5 -127.5s123.5 -40.5 221.5 -40.5c103.333 0 180.333 16 231 48s76 84.667 76 158c0 27.333 -6.83301 50.333 -20.5 69
s-34 34.667 -61 48s-89.167 33 -186.5 59c-96 24.667 -162.833 56.667 -200.5 96s-56.5 91 -56.5 155c0 26 3 54.667 9 86l22 115h-151l26 131h152l67 347l195 78l-83 -425h245l-26 -131h-244z" />
    <glyph glyph-name="uni01BF" unicode="&#x1bf;" 
d="M1123 753c0 -130 -29.833 -248 -89.5 -354s-152 -201.333 -277 -286s-298.5 -164.667 -520.5 -240l-58 -298h-181l293 1507h169c-10.667 -88.667 -19 -148.334 -25 -179.001h4c87.333 134 207.666 201 360.999 201c104.667 0 184.834 -30.167 240.501 -90.5
s83.5 -147.166 83.5 -260.499zM934 731c0 76.667 -17.165 134.835 -51.498 174.502s-83.833 59.5 -148.5 59.5c-192 0 -314.333 -140 -367 -420l-102 -525c134 47.333 241.167 96.166 321.5 146.499s145.666 103.666 195.999 159.999s88.166 118.333 113.499 186
s38 140.5 38 218.5z" />
    <glyph glyph-name="uni01C0" unicode="&#x1c0;" 
d="M524 0v1484h180v-1484h-180z" />
    <glyph glyph-name="uni01C1" unicode="&#x1c1;" 
d="M370 0v1484h165v-1484h-165zM693 0v1484h165v-1484h-165z" />
    <glyph glyph-name="uni01C2" unicode="&#x1c2;" 
d="M130 1030h396v454h174v-454h398v-153h-398v-308h398v-153h-398v-416h-174v416h-396v153h396v308h-396v153z" />
    <glyph glyph-name="uni01C3" unicode="&#x1c3;" 
d="M661 397h-148l161 951h196zM410 0l39 201h194l-39 -201h-194z" />
    <glyph glyph-name="uni01C4" unicode="&#x1c4;" 
d="M947 1657l4 20h104l126 -123h2l172 123h104l-4 -20l-212 -212h-166zM721 939c0 -188.667 -23.668 -356.333 -71.001 -503s-113.666 -256 -198.999 -328s-186 -108 -302 -108h-165l262 1349h122c121.333 0 210.5 -33 267.5 -99s85.5 -169.667 85.5 -311zM548.999 906.001
c0 96 -13.668 167.833 -41.001 215.5s-69.333 71.5 -126 71.5h-4l-202 -1037h24c62.667 0 120.834 33.833 174.501 101.5s96.167 161.5 127.5 281.5s47 242.333 47 367zM1114 0.000976562h-562l28 142l584 1051h-307l30 156h489l-27 -138l-590 -1055h385z" />
    </font>
</defs>
</svg>
