<?xml version="1.0" standalone="no"?>
<!DOCTYPE svg PUBLIC "-//W3C//DTD SVG 1.1//EN" "http://www.w3.org/Graphics/SVG/1.1/DTD/svg11.dtd" >
<svg>
<metadata>
Created by FontForge 20090914 at Wed Nov 21 09:10:57 2012
 By www-data
Digitized data copyright (c) 2010 Google Corporation.
Copyright (c) 2012 Red Hat, Inc.
</metadata>
<defs>
<font id="LiberationSerif-BoldItalic" horiz-adv-x="0" >
  <font-face 
    font-family="Liberation Serif"
    font-weight="700"
    font-style="italic"
    font-stretch="normal"
    units-per-em="2048"
    panose-1="2 2 7 3 6 5 5 9 3 4"
    ascent="1638"
    descent="-410"
    x-height="940"
    cap-height="1341"
    bbox="-1114 -621 2678 2009"
    underline-thickness="195"
    underline-position="-126"
    slope="-16.333"
    unicode-range="U+0020-U+FFFC"
  />
<missing-glyph horiz-adv-x="1593" 
 />
    <glyph glyph-name=".notdef" horiz-adv-x="1593" 
 />
    <glyph glyph-name="space" unicode=" " horiz-adv-x="512" 
 />
    <glyph glyph-name="exclam" unicode="!" horiz-adv-x="797" 
d="M415 420h-95l60 921h299zM322 -29c-46 0 -85.167 16 -117.5 48s-48.5 71.333 -48.5 118c0 46 16 85.167 48 117.5s71.333 48.5 118 48.5c46 0 85.167 -16 117.5 -48s48.5 -71.333 48.5 -118c0 -46 -16 -85.167 -48 -117.5s-71.333 -48.5 -118 -48.5z" />
    <glyph glyph-name="quotedbl" unicode="&#x22;" horiz-adv-x="1137" 
d="M763 1341h238l-163 -481h-84zM377 1341h238l-163 -481h-84z" />
    <glyph glyph-name="numbersign" unicode="#" horiz-adv-x="1024" 
d="M713 411l-148 -411h-151l148 411h-262l-146 -411h-154l148 411h-153l22 123h178l103 287h-231l22 123h254l143 397h152l-144 -397h262l144 397h151l-144 -397h152l-22 -123h-174l-101 -287h225l-22 -123h-252zM449 821l-103 -287h262l104 287h-263z" />
    <glyph glyph-name="dollar" unicode="$" horiz-adv-x="1024" 
d="M713 1354c96 -5.33301 185.667 -19.0029 269 -41.0029l-56 -319h-89l-7 196c-41.333 30.667 -87 49.667 -137 57l-82 -437c96.667 -54.667 163.167 -98.667 199.5 -132s65.166 -70.666 86.499 -111.999s32 -89 32 -143c0 -269.333 -158 -415.666 -474 -438.999l-26 -140
h-102l25 136c-141.333 2 -266.666 25.667 -375.999 71l64 360h88l1 -215c21.333 -31.333 51.833 -58.166 91.5 -80.499s89.834 -33.833 150.501 -34.5l97 515c-90.667 47.333 -154.334 87.333 -191.001 120s-65.5 70.167 -86.5 112.5s-31.5 92.5 -31.5 150.5
c0 240 150.667 365.333 452 376l24 128h103zM685 345.997c0 42 -9.16699 79.332 -27.5 111.999s-49.833 64.334 -94.5 95.001l-87 -462c64.667 14.667 115.667 44.667 153 90s56 100.333 56 165zM399 1047c0 -43.333 11 -80 33 -110s50.333 -57 85 -81l75 394
c-62 -6 -109.667 -26.667 -143 -62s-50 -82.333 -50 -141z" />
    <glyph glyph-name="percent" unicode="%" horiz-adv-x="1706" 
d="M352 -20h-150l1192 1382h151zM801 1105c0 -29.333 -3.66602 -65.999 -10.999 -109.999c-44 -248 -173.667 -372 -389 -372c-179.333 0 -269 86.333 -269 259c0 145.333 35.5 261.666 106.5 348.999s167.5 131 289.5 131c89.333 0 157.166 -21.5 203.499 -64.5
s69.5 -107.167 69.5 -192.5zM323.001 853.001c0 -91.333 27.333 -137 82 -137c38 0 72.333 19 103 57s54.667 90.5 72 157.5s26 128.5 26 184.5c0 50 -6.66699 88 -20 114s-36 39 -68 39c-38 0 -71.667 -19.5 -101 -58.5s-52.333 -94 -69 -165s-25 -134.833 -25 -191.5z
M1601 455.001c0 -29.333 -3.66602 -65.999 -10.999 -109.999c-44 -248 -173.667 -372 -389 -372c-179.333 0 -269 86.333 -269 259c0 145.333 35.5 261.666 106.5 348.999s167.5 131 289.5 131c89.333 0 157.166 -21.5 203.499 -64.5s69.5 -107.167 69.5 -192.5z
M1123 203.002c0 -91.333 27.333 -137 82 -137c38 0 72.333 19 103 57s54.667 90.5 72 157.5s26 128.5 26 184.5c0 50 -6.66699 88 -20 114s-36 39 -68 39c-38 0 -71.667 -19.5 -101 -58.5s-52.333 -94 -69 -165s-25 -134.833 -25 -191.5z" />
    <glyph glyph-name="ampersand" unicode="&#x26;" horiz-adv-x="1593" 
d="M1099 1102c0 -54.667 -11.6699 -101.501 -35.0029 -140.501s-55.833 -73.167 -97.5 -102.5s-115.5 -65 -221.5 -107l312 -351c74 114 120.333 219.333 139 316l-116 26l11 64h477l-11 -64l-125 -26c-30.667 -72.667 -70.167 -148.667 -118.5 -228
s-99.166 -148.333 -152.499 -207l173 -194l122 -25l-11 -63h-364l-101 120c-78.667 -52.667 -154.167 -89.167 -226.5 -109.5s-151.833 -30.5 -238.5 -30.5c-151.333 0 -266.666 31.167 -345.999 93.5s-119 153.5 -119 273.5c0 66.667 14.833 124.167 44.5 172.5
s69.834 90.166 120.501 125.499s128 71.333 232 108c-57.333 90.667 -86 185.334 -86 284.001s34.333 177.334 103 236.001s163 88 283 88c73.333 0 136.333 -10.833 189 -32.5s93 -52.167 121 -91.5s42 -84.333 42 -135zM516.997 657.999
c-57.333 -29.333 -98.332 -56.999 -122.999 -82.999s-43.834 -56.833 -57.501 -92.5s-20.5 -77.834 -20.5 -126.501c0 -76 21 -136.333 63 -181s98 -67 168 -67c131.333 0 244.333 40 339 120zM594.998 1071c0 -75.333 26.667 -151.333 80 -228c78 36 131.5 73 160.5 111
s43.5 82.667 43.5 134c0 56 -12.5 99.333 -37.5 130s-56.5 46 -94.5 46c-49.333 0 -87 -17.333 -113 -52s-39 -81.667 -39 -141z" />
    <glyph glyph-name="quotesingle" unicode="'" horiz-adv-x="569" 
d="M291 1341h238l-163 -481h-84z" />
    <glyph glyph-name="parenleft" unicode="(" horiz-adv-x="682" 
d="M339 120c0 -206 53.667 -356.667 161 -452l-22 -104c-130.667 75.333 -226.167 165.333 -286.5 270s-90.5 232.667 -90.5 384c0 112.667 14.833 238.667 44.5 378s71 258.5 124 357.5s121 185 204 258s193.5 142.833 331.5 209.5l-22 -124
c-90 -60 -166.833 -147.333 -230.5 -262s-115.167 -263.667 -154.5 -447s-59 -339.333 -59 -468z" />
    <glyph glyph-name="parenright" unicode=")" horiz-adv-x="682" 
d="M-153 -436l21 124.001c88.667 60 164.834 146.167 228.501 258.5s115.834 261.166 156.501 446.499s61 344.333 61 477c0 204 -53 353 -159 447l18 104c134 -78.667 230.5 -169.5 289.5 -272.5s88.5 -229.5 88.5 -379.5c0 -110 -14.833 -234.5 -44.5 -373.5
s-70.834 -258.5 -123.501 -358.5s-120.334 -186.667 -203.001 -260s-193.667 -144.333 -333 -213z" />
    <glyph glyph-name="asterisk" unicode="*" horiz-adv-x="1024" 
d="M632 889l22 -324l-230 37l119 305l-320 -188l-60 225l317 39l-289 137l126 195l247 -275l-19 324l230 -36l-122 -302l320 179l61 -221l-322 -38l295 -134l-127 -193z" />
    <glyph glyph-name="plus" unicode="+" horiz-adv-x="1167" 
d="M672 608v-405h-143v405h-404v143h404v406h143v-406h405v-143h-405z" />
    <glyph glyph-name="comma" unicode="," horiz-adv-x="512" 
d="M343 106c0 -104.667 -32.999 -193.166 -98.999 -265.499s-162 -124.833 -288 -157.5v92c37.333 10 69.666 25.167 96.999 45.5s48.333 43.166 63 68.499s22 49.333 22 72c0 14.667 -4.83301 27.5 -14.5 38.5s-28.167 25.167 -55.5 42.5
c-47.333 28.667 -71 70.667 -71 126c0 43.333 15 76.333 45 99s68 34 114 34c56 0 101.167 -18 135.5 -54s51.5 -83 51.5 -141z" />
    <glyph glyph-name="hyphen" unicode="-" horiz-adv-x="682" 
d="M43 395l33 174h532l-33 -174h-532z" />
    <glyph glyph-name="period" unicode="." horiz-adv-x="512" 
d="M181 -29c-46 0 -85.167 16 -117.5 48s-48.5 71.333 -48.5 118c0 46 16 85.167 48 117.5s71.333 48.5 118 48.5c46 0 85.167 -16 117.5 -48s48.5 -71.333 48.5 -118c0 -46 -16 -85.167 -48 -117.5s-71.333 -48.5 -118 -48.5z" />
    <glyph glyph-name="slash" unicode="/" horiz-adv-x="569" 
d="M16 -20h-140l710 1369h140z" />
    <glyph glyph-name="zero" unicode="0" horiz-adv-x="1024" 
d="M988 951c0 -151.333 -24.166 -310.501 -72.499 -477.501s-114.5 -291 -198.5 -372s-186.333 -121.5 -307 -121.5c-226 0 -339 139.667 -339 419c0 157.333 24.167 317.333 72.5 480s114.166 283.834 197.499 363.501s184 119.5 302 119.5c230 0 345 -137 345 -411z
M741.001 969.999c0 92 -9.16992 161.835 -27.5029 209.502s-50.5 71.5 -96.5 71.5c-57.333 0 -106.166 -37.833 -146.499 -113.5s-76.166 -198.334 -107.499 -368.001s-47 -303.834 -47 -402.501c0 -184.667 39.667 -277 119 -277c46 0 86.333 22.667 121 68
s64.667 113.5 90 204.5s46.833 196.5 64.5 316.5s27.834 217 30.501 291z" />
    <glyph glyph-name="one" unicode="1" horiz-adv-x="1024" 
d="M578 110l239 -24l-15 -86h-754l15 86l246 24l177 1006l-253 -71l15 85l417 222h132z" />
    <glyph glyph-name="two" unicode="2" horiz-adv-x="1024" 
d="M825 0l-850 -0.00292969l33 189c258 199.333 438 364.333 540 495s153 252.334 153 365.001c0 72 -16.667 124.167 -50 156.5s-77 48.5 -131 48.5c-59.333 0 -112.333 -17.333 -159 -52l-77 -194h-87l54 305c56 12 110.167 22.167 162.5 30.5s108.5 12.5 168.5 12.5
c124.667 0 221.667 -25.667 291 -77s104 -122 104 -212c0 -65.333 -13 -129 -39 -191s-64.167 -122.667 -114.5 -182s-118.333 -123.166 -204 -191.499s-228.167 -167.166 -427.5 -296.499h672z" />
    <glyph glyph-name="three" unicode="3" horiz-adv-x="1024" 
d="M347 -20c-154 0 -275.001 13.332 -363.001 39.999l45 325h92l14 -215c12.667 -10.667 40 -21.5 82 -32.5s81.667 -16.5 119 -16.5c92 0 163.667 26.333 215 79s77 130.667 77 234c0 76.667 -16.5 133.834 -49.5 171.501s-81.833 60.167 -146.5 67.5l-115 7l22 121l113 8
c159.333 10 239 104 239 282c0 67.333 -16 118 -48 152s-76.333 51 -133 51c-60 0 -112 -17.333 -156 -52l-77 -194h-87l54 305c68 17.333 125.333 28.833 172 34.5s99.334 8.5 158.001 8.5c124 0 220.833 -25.833 290.5 -77.5s104.5 -122.834 104.5 -213.501
c0 -102.667 -28.667 -184.667 -86 -246s-141.333 -100.333 -252 -117c87.333 -14 155 -48.5 203 -103.5s72 -122.167 72 -201.5c0 -131.333 -50.333 -233.666 -151 -306.999s-236.667 -110 -408 -110z" />
    <glyph glyph-name="four" unicode="4" horiz-adv-x="1024" 
d="M772 275l-47 -275h-249l47 275h-555l28 153l763 920h203l-157 -888h157l-33 -185h-157zM681 1077l-510.001 -617h385l69 386c8.66699 46 27.334 123 56.001 231z" />
    <glyph glyph-name="five" unicode="5" horiz-adv-x="1024" 
d="M516 798c128.667 0 226.998 -30 294.998 -90s102 -146 102 -258c0 -149.333 -49.667 -265 -149 -347s-240.666 -123 -423.999 -123c-50 0 -95.333 2 -136 6s-101 15.333 -181 34l45 325h92l14 -215c18.667 -15.333 44.667 -27.333 78 -36s67.333 -13 102 -13
c90.667 0 160.834 31.5 210.501 94.5s74.5 152.833 74.5 269.5c0 161.333 -65.667 242 -197 242c-26.667 0 -58 -3.5 -94 -10.5s-68.667 -16.5 -98 -28.5h-93l122 693h692l-36 -203h-566l-63 -365c60 16.667 130 25 210 25z" />
    <glyph glyph-name="six" unicode="6" horiz-adv-x="1024" 
d="M459 -20c-125.333 0 -221.499 40.667 -288.499 122s-100.5 196 -100.5 344c0 160.667 30 311.167 90 451.5s141.833 251.833 245.5 334.5s215.834 124 336.501 124c96.667 0 190.667 -14.333 282 -43l-54 -305h-87l-9 194c-42.667 34.667 -89.667 52 -141 52
c-85.333 0 -161 -45.833 -227 -137.5s-114.667 -216.5 -146 -374.5c92 48.667 180 73 264 73c102 0 180.833 -29 236.5 -87s83.5 -139.667 83.5 -245c0 -96 -19.833 -182.5 -59.5 -259.5s-96.334 -136.833 -170.001 -179.5s-158.834 -64 -255.501 -64zM329.001 415
c0 -110.667 12.998 -193.999 38.998 -249.999s64 -84 114 -84c58.667 0 105.834 34.667 141.501 104s53.5 160.666 53.5 273.999c0 80 -15.333 138.5 -46 175.5s-70 55.5 -118 55.5c-47.333 0 -103.666 -13.667 -168.999 -41c-10 -76 -15 -154 -15 -234z" />
    <glyph glyph-name="seven" unicode="7" horiz-adv-x="1024" 
d="M254 958h-87l68 383h857l-14 -79l-733 -1262h-259l774 1138h-529z" />
    <glyph glyph-name="eight" unicode="8" horiz-adv-x="1024" 
d="M993 1085c0 -94 -22.501 -174 -67.501 -240s-106.5 -110.667 -184.5 -134c55.333 -20 98.833 -53.167 130.5 -99.5s47.5 -103.5 47.5 -171.5c0 -306.667 -166.667 -460 -500 -460c-123.333 0 -217.833 30.167 -283.5 90.5s-98.5 143.833 -98.5 250.5
c0 104 26.833 189.667 80.5 257s126.834 111.666 219.501 132.999c-42.667 22.667 -77 58.334 -103 107.001s-39 102.667 -39 162c0 124.667 38.667 219.5 116 284.5s190 97.5 338 97.5c112.667 0 198.167 -23.833 256.5 -71.5s87.5 -116.167 87.5 -205.5zM446.999 914
c0 -98.667 35.333 -148 106 -148c56.667 0 102 31.5 136 94.5s51 145.833 51 248.5c0 101.333 -38.333 152 -115 152c-56.667 0 -100.5 -30 -131.5 -90s-46.5 -145.667 -46.5 -257zM288.999 272c0 -126 51.333 -189 154 -189c73.333 0 128.833 33.333 166.5 100
s56.5 162.667 56.5 288c0 122 -51 183 -153 183c-72.667 0 -128.167 -34.167 -166.5 -102.5s-57.5 -161.5 -57.5 -279.5z" />
    <glyph glyph-name="nine" unicode="9" horiz-adv-x="1024" 
d="M588 1355c120.667 0 217.501 -42.833 290.501 -128.5s109.5 -201.167 109.5 -346.5c0 -164 -29 -315 -87 -453s-138.333 -247 -241 -327s-214 -120 -334 -120c-107.333 0 -206 14.333 -296 43l54 305h87l9 -194c43.333 -34.667 96.333 -52 159 -52
c83.333 0 157.166 43.667 221.499 131s111.833 211 142.5 371c-87.333 -42 -174 -63 -260 -63c-104 0 -184.833 31 -242.5 93s-86.5 148 -86.5 258c0 90.667 19.833 173 59.5 247s95.667 131.833 168 173.5s154.5 62.5 246.5 62.5zM730.001 883
c0 115.333 -13.832 206.167 -41.499 272.5s-65.167 99.5 -112.5 99.5c-58.667 0 -106.167 -35.167 -142.5 -105.5s-54.5 -162.833 -54.5 -277.5c0 -76 13.667 -132.667 41 -170s65.666 -56 114.999 -56c51.333 0 112.333 13 183 39c8 64.667 12 130.667 12 198z" />
    <glyph glyph-name="colon" unicode=":" horiz-adv-x="682" 
d="M374 628c-46.667 0 -85.833 16 -117.5 48s-47.5 71.333 -47.5 118s15.5 86 46.5 118s70.5 48 118.5 48c47.333 0 86.833 -16.167 118.5 -48.5s47.5 -71.5 47.5 -117.5s-16 -85.167 -48 -117.5s-71.333 -48.5 -118 -48.5zM235.001 -29c-46 0 -85.167 16 -117.5 48
s-48.5 71.333 -48.5 118c0 46 16 85.167 48 117.5s71.333 48.5 118 48.5c46 0 85.167 -16 117.5 -48s48.5 -71.333 48.5 -118c0 -46 -16 -85.167 -48 -117.5s-71.333 -48.5 -118 -48.5z" />
    <glyph glyph-name="semicolon" unicode=";" horiz-adv-x="682" 
d="M413 106c0 -104.667 -32.999 -193.166 -98.999 -265.499s-162 -124.833 -288 -157.5v92c37.333 10 69.666 25.167 96.999 45.5s48.333 43.166 63 68.499s22 49.333 22 72c0 14.667 -4.83301 27.5 -14.5 38.5s-28.167 25.167 -55.5 42.5
c-47.333 28.667 -71 70.667 -71 126c0 43.333 15 76.333 45 99s68 34 114 34c56 0 101.167 -18 135.5 -54s51.5 -83 51.5 -141zM382.001 628.001c-46.667 0 -85.833 16 -117.5 48s-47.5 71.333 -47.5 118s15.5 86 46.5 118s70.5 48 118.5 48
c47.333 0 86.833 -16.167 118.5 -48.5s47.5 -71.5 47.5 -117.5s-16 -85.167 -48 -117.5s-71.333 -48.5 -118 -48.5z" />
    <glyph glyph-name="less" unicode="&#x3c;" horiz-adv-x="1167" 
d="M101 635v90l952 468v-143l-767 -370l767 -371v-143z" />
    <glyph glyph-name="equal" unicode="=" horiz-adv-x="1167" 
d="M1070 547v-144h-952v144h952zM1070 956v-143h-952v143h952z" />
    <glyph glyph-name="greater" unicode="&#x3e;" horiz-adv-x="1167" 
d="M153 166v143l768 371l-768 370v143l952 -468v-90z" />
    <glyph glyph-name="question" unicode="?" horiz-adv-x="1024" 
d="M950 1043c0 -114 -30.168 -205.332 -90.501 -273.999s-154.166 -120.334 -281.499 -155.001l-81 -22l-63 -202h-103l-2 313l107 23c162.667 34 244 142.333 244 325c0 135.333 -63 203 -189 203c-25.333 0 -51.833 -4.5 -79.5 -13.5s-50.167 -20.167 -67.5 -33.5
l-65 -194h-89l40 295c105.333 32 209.333 48 312 48c130 0 230.5 -26.833 301.5 -80.5s106.5 -131.167 106.5 -232.5zM349.999 -28.999c-46.667 0 -85.834 16 -117.501 48s-47.5 71.333 -47.5 118s15.833 86 47.5 118s70.834 48 117.501 48c46 0 85.167 -16 117.5 -48
s48.5 -71.333 48.5 -118c0 -46 -16 -85.167 -48 -117.5s-71.333 -48.5 -118 -48.5z" />
    <glyph glyph-name="at" unicode="@" horiz-adv-x="1704" 
d="M972 1364c215.333 0 382.001 -53.5029 500.001 -160.503s177 -257.5 177 -451.5c0 -133.333 -29.333 -256.166 -88 -368.499s-136.167 -200.166 -232.5 -263.499s-199.166 -95 -308.499 -95c-44.667 0 -82.334 12.5 -113.001 37.5s-48.667 56.167 -54 93.5
c-46 -38 -94.167 -69.333 -144.5 -94s-93.166 -37 -128.499 -37c-56.667 0 -101.834 21.5 -135.501 64.5s-50.5 102.167 -50.5 177.5c0 97.333 16.833 186.333 50.5 267s83.167 151.5 148.5 212.5s133.833 105.833 205.5 134.5s167.167 43 286.5 43
c58 0 119 -3.66699 183 -11l-121 -534c-20 -84 -30 -136 -30 -156c0 -36 17.333 -54 52 -54c50.667 0 97.667 24.833 141 74.5s78.333 121.167 105 214.5s40 190.666 40 291.999c0 159.333 -43.5 283 -130.5 371s-207.167 132 -360.5 132c-140 0 -264.5 -37.667 -373.5 -113
s-194.333 -181.166 -256 -317.499s-92.5 -288.833 -92.5 -457.5c0 -124 24.167 -234.5 72.5 -331.5s118.166 -172.5 209.499 -226.5s198.666 -81 321.999 -81c70 0 134.833 6.33301 194.5 19s115 30.5 166 53.5s108.5 57.833 172.5 104.5l52 -76
c-94.667 -76 -191.667 -131 -291 -165s-207.666 -51 -324.999 -51c-152 0 -286.167 31.333 -402.5 94s-206.166 151.834 -269.499 267.501s-95 245.5 -95 389.5c0 190 40.167 361.667 120.5 515s191.166 272.833 332.499 358.5s298.333 128.5 471 128.5zM644.001 319.997
c0 -44 6.66699 -76.833 20 -98.5s29.333 -32.5 48 -32.5c44.667 0 92.667 21.333 144 64l127 552l-55 5c-70 0 -126 -22 -168 -66c-29.333 -37.333 -56 -98.333 -80 -183s-36 -165 -36 -241z" />
    <glyph glyph-name="A" unicode="A" horiz-adv-x="1366" 
d="M302 73l-14 -73h-394l14 73l103 27l668 1252h240l254 -1252l109 -27l-14 -73h-549l14 73l138 27l-61 347h-472l-184 -347zM689 1118l-295 -561h396z" />
    <glyph glyph-name="B" unicode="B" horiz-adv-x="1366" 
d="M677 764c210.667 0 316 90.333 316 271c0 63.333 -20.167 111.833 -60.5 145.5s-99.5 50.5 -177.5 50.5h-89l-83 -467h94zM654 104c112.667 0 195.334 24.501 248.001 73.501s79 124.833 79 227.5c0 81.333 -25.333 143.166 -76 185.499s-126.334 63.5 -227.001 63.5
h-114l-96 -544c70 -4 132 -6 186 -6zM648 -5.99902l-345 6.00098h-322l12 73l178 27l201 1142l-168 26l14 73h586c324 0 486 -97.667 486 -293c0 -94 -29.5 -169.167 -88.5 -225.5s-141.833 -91.833 -248.5 -106.5c101.333 -8.66699 180.833 -40.834 238.5 -96.501
s86.5 -127.5 86.5 -215.5c0 -139.333 -52.5 -242.5 -157.5 -309.5s-262.5 -100.5 -472.5 -100.5z" />
    <glyph glyph-name="C" unicode="C" horiz-adv-x="1366" 
d="M670 -20c-190 0 -337.5 49.167 -442.5 147.5s-157.5 232.833 -157.5 403.5c0 164 34.667 308.5 104 433.5s168.333 221.5 297 289.5s275.667 102 441 102c150.667 0 308.334 -17.333 473.001 -52l-53 -337h-84v194c-36 28.667 -79.5 50.834 -130.5 66.501
s-104.5 23.5 -160.5 23.5c-110 0 -208.833 -30.667 -296.5 -92s-155.834 -147.833 -204.501 -259.5s-73 -237.5 -73 -377.5c0 -138 30.667 -245.667 92 -323s147.666 -116 258.999 -116c65.333 0 131 9.5 197 28.5s119.333 43.167 160 72.5l77 220h85l-66 -340
c-75.333 -24.667 -158.666 -44.834 -249.999 -60.501s-180.333 -23.5 -267 -23.5z" />
    <glyph glyph-name="D" unicode="D" horiz-adv-x="1479" 
d="M1120 774c0 304.667 -138.334 457 -415.001 457h-37l-197 -1117c56.667 -5.33301 98 -8 124 -8c162.667 0 290.834 59.667 384.501 179s140.5 282.333 140.5 489zM741.999 1341c224.667 0 395.667 -47.834 513 -143.501s176 -232.167 176 -409.5
c0 -159.333 -33.833 -299.166 -101.5 -419.499s-164.667 -212.5 -291 -276.5s-272.833 -96 -439.5 -96l-419 4h-195l12 73l177 27l201 1142l-167 26l13 73h521z" />
    <glyph glyph-name="E" unicode="E" horiz-adv-x="1366" 
d="M375 1242l-167.001 26l13 73h1052l-60 -341h-91l6 217c-72.667 9.33301 -179.667 14 -321 14h-138l-87 -492h281l57 148h89l-73 -412h-89l-4 152h-281l-91 -517h183c168.667 0 281.334 5.33301 338.001 16l103 248h91l-84 -374h-1117l12 73l177 27z" />
    <glyph glyph-name="F" unicode="F" horiz-adv-x="1366" 
d="M556 592l-87 -492l218 -27l-12 -73h-677l12 73l164 27l201 1142l-167 26l13 73h1111l-64 -361h-94l10 237c-32.667 4.66699 -91.5 8.16699 -176.5 10.5s-151.833 3.5 -200.5 3.5h-138l-93 -529h363l61 170h89l-80 -452h-89l-1 172h-363z" />
    <glyph glyph-name="G" unicode="G" horiz-adv-x="1479" 
d="M70 523c0 167.333 35.5 314.002 106.5 440.002s171.5 223 301.5 291s278.667 102 446 102c164 0 322.333 -20.667 475 -62l-55 -308h-84l1 174c-80 60.667 -186.667 91 -320 91c-106 0 -202 -31.167 -288 -93.5s-152.833 -150.333 -200.5 -264
s-71.5 -243.834 -71.5 -390.501c0 -132 28.5 -235 85.5 -309s137.5 -111 241.5 -111c86.667 0 165.667 14.333 237 43l68 380l-167 32l12 68h598l-12 -68l-136 -32l-77 -436c-98.667 -30.667 -192.667 -53.334 -282 -68.001s-185 -22 -287 -22
c-187.333 0 -332.833 48 -436.5 144s-155.5 229 -155.5 399z" />
    <glyph glyph-name="H" unicode="H" horiz-adv-x="1593" 
d="M-15 0l13 74l176 26l201 1141l-167 27l13 73h639l-13 -73l-177 -27l-87 -496h488l87 496l-167 27l13 73h641l-13 -73l-178 -27l-201 -1141l168 -26l-13 -74h-641l13 74l177 26l94 535h-488l-94 -535l167 -26l-13 -74h-638z" />
    <glyph glyph-name="I" unicode="I" horiz-adv-x="797" 
d="M464 100l167 -26l-13 -74h-638l13 74l176 26l201 1141l-167 27l13 73h639l-13 -73l-177 -27z" />
    <glyph glyph-name="J" unicode="J" horiz-adv-x="1024" 
d="M613 1242l-167 26l13 73h619l-13 -73l-157 -26l-142 -810c-25.333 -144 -82.5 -255.333 -171.5 -334s-205.833 -118 -350.5 -118c-101.333 0 -184 10 -248 30l54 304h83l4 -179c21.333 -32.667 59 -49 113 -49c49.333 0 91.333 17 126 51s57 80.333 67 139z" />
    <glyph glyph-name="K" unicode="K" horiz-adv-x="1366" 
d="M469 100l178 -27l-12 -73h-650l12 73l177 27l201 1142l-167 26l13 73h629l-13 -73l-167 -26l-91 -524l576 524l-113 26l13 73h425l-13 -73l-139 -26l-473 -429l353 -713l134 -27l-12 -73h-386l-296 636l-93 -45z" />
    <glyph glyph-name="L" unicode="L" horiz-adv-x="1251" 
d="M470 106h113.001c64 0 136.167 2.16699 216.5 6.5s133.166 8.83301 158.499 13.5l117 279h84l-89 -405h-1085l12 73l177 27l201 1142l-166 26l13 73h663l-13 -73l-202 -26z" />
    <glyph glyph-name="M" unicode="M" horiz-adv-x="1821" 
d="M740 0h-45l-221 1158l-187 -1058l175 -27l-12 -73h-477l12 73l177 27l201 1142l-167 26l13 73h493l165 -874l476 874h535l-13 -73l-177 -26l-201 -1142l167 -27l-12 -73h-657l12 73l195 27l187 1058z" />
    <glyph glyph-name="N" unicode="N" horiz-adv-x="1479" 
d="M1225 1242l-175 26l13 73h477l-13 -73l-177 -26l-218 -1242h-115l-541 1112l-181 -1012l175 -27l-12 -73h-477l12 73l177 27l201 1142l-167 26l13 73h433l435 -894z" />
    <glyph glyph-name="O" unicode="O" horiz-adv-x="1479" 
d="M1120 843c0 126.667 -25.333 226.332 -76 298.999s-121.334 109 -212.001 109c-81.333 0 -156.166 -33.333 -224.499 -100s-124.166 -163.167 -167.499 -289.5s-65 -251.833 -65 -376.5c0 -125.333 24.667 -223.666 74 -294.999s118.666 -107 207.999 -107
c83.333 0 159.333 33 228 99s125 161 169 285s66 249.333 66 376zM639 -20.002c-110.667 0 -208.833 22.833 -294.5 68.5s-152.167 110 -199.5 193s-71 177.167 -71 282.5c0 161.333 32.667 305.833 98 433.5s157.166 226 275.499 295s254.5 103.5 408.5 103.5
c110.667 0 208.834 -22.833 294.501 -68.5s152.167 -110 199.5 -193s71 -177.167 71 -282.5c0 -160 -33.5 -305.5 -100.5 -436.5s-158.667 -229.667 -275 -296s-251.833 -99.5 -406.5 -99.5z" />
    <glyph glyph-name="P" unicode="P" horiz-adv-x="1251" 
d="M643 636c102 0 182.167 30.833 240.5 92.5s87.5 145.5 87.5 251.5c0 80 -19.5 141.667 -58.5 185s-97.167 65 -174.5 65h-69l-105 -594h79zM544 526l-76 -426l219 -27l-11 -73h-677l11 73l162 27l202 1142l-168 26l12 73h531c169.333 0 297.5 -30 384.5 -90
s130.5 -149.333 130.5 -268c0 -144.667 -49.667 -257 -149 -337s-242 -120 -428 -120h-143z" />
    <glyph glyph-name="Q" unicode="Q" horiz-adv-x="1479" 
d="M1421 812c0 -123.333 -20.333 -239.167 -61 -347.5s-99.5 -201 -176.5 -278s-168.167 -132.5 -273.5 -166.5l32 -49c77.333 -122.667 152 -184 224 -184c14 0 43.667 2.66699 89 8l13 -78c-29.333 -12 -71.5 -23.167 -126.5 -33.5s-99.833 -15.5 -134.5 -15.5
c-58.667 0 -109 8.16699 -151 24.5s-80.667 42.333 -116 78s-84.333 106.167 -147 211.5c-102.667 6 -193.5 32.667 -272.5 80s-139.833 111.5 -182.5 192.5s-64 170.833 -64 269.5c0 161.333 32.667 305.833 98 433.5s157.166 226 275.499 295s254.5 103.5 408.5 103.5
c110.667 0 208.834 -22.833 294.501 -68.5s152.167 -110 199.5 -193s71 -177.167 71 -282.5zM1120 842.999c0 126.667 -25.333 226.332 -76 298.999s-121.334 109 -212.001 109c-81.333 0 -156.166 -33.333 -224.499 -100s-124.166 -163.167 -167.499 -289.5
s-65 -251.833 -65 -376.5c0 -125.333 24.667 -223.666 74 -294.999s118.666 -107 207.999 -107c83.333 0 159.333 33 228 99s125 161 169 285s66 249.333 66 376z" />
    <glyph glyph-name="R" unicode="R" horiz-adv-x="1366" 
d="M552 568l-83 -468l167 -27l-12 -73h-627l12 73l164 27l201 1142l-167 26l13 73h535c174.667 0 304 -27.667 388 -83s126 -140.333 126 -255c0 -104 -28.167 -190.667 -84.5 -260s-137.833 -118.333 -244.5 -147l201 -496l147 -27l-12 -73h-400l-208 568h-116zM626 678
c109.333 0 195 27.168 257 81.501s93 130.166 93 227.499c0 86.667 -20.167 149 -60.5 187s-99.5 57 -177.5 57h-69l-98 -553h55z" />
    <glyph glyph-name="S" unicode="S" horiz-adv-x="1139" 
d="M432 -20c-144.667 0 -276.334 23.667 -395.001 71l64 360h88l1 -215c22.667 -32.667 58 -60 106 -82s99 -33 153 -33c97.333 0 172.333 20.333 225 61s79 97 79 169c0 36 -8 67.333 -24 94s-37.167 50.834 -63.5 72.501s-56.166 42 -89.499 61l-102.5 58
c-35 19.667 -69.167 41 -102.5 64s-63.166 49.5 -89.499 79.5s-47.5 64.333 -63.5 103s-24 84 -24 136c0 122.667 44.5 216.167 133.5 280.5s218.833 96.5 389.5 96.5c114 0 226 -14.333 336 -43l-56 -319h-89l-7 196c-54 41.333 -124.333 62 -211 62
c-75.333 0 -134.5 -16.333 -177.5 -49s-64.5 -77.334 -64.5 -134.001c0 -40 14.5 -76.833 43.5 -110.5s74.167 -67.5 135.5 -101.5c89.333 -50 153.833 -88.167 193.5 -114.5s73.167 -54.5 100.5 -84.5s49.166 -64 65.499 -102s24.5 -82.333 24.5 -133
c0 -144 -49.5 -253.833 -148.5 -329.5s-242.5 -113.5 -430.5 -113.5z" />
    <glyph glyph-name="T" unicode="T" horiz-adv-x="1251" 
d="M167 0l12 73l218 27l200 1135h-61c-37.333 0 -79.166 -2.33301 -125.499 -7s-79.5 -9 -99.5 -13l-75 -249h-87l66 375h1103l-66 -375h-88l13 249c-18.667 4 -52.834 8 -102.501 12s-90.5 6 -122.5 6h-59l-200 -1133l208 -27l-12 -73h-722z" />
    <glyph glyph-name="U" unicode="U" horiz-adv-x="1479" 
d="M167 1268l13.001 73.001h619l-13 -73l-177 -26l-113 -656c-15.333 -86.667 -23 -152.334 -23 -197.001c0 -178 89 -267 267 -267c107.333 0 195.166 29 263.499 87s112.5 142.667 132.5 254l137 779l-175 26l13 73h456l-13 -73l-157 -26l-135 -771
c-30 -168.667 -92.5 -292.5 -187.5 -371.5s-223.5 -118.5 -385.5 -118.5c-162.667 0 -288.167 36.167 -376.5 108.5s-132.5 175.5 -132.5 309.5c0 42.667 6.66699 104 20 184l114 659z" />
    <glyph glyph-name="V" unicode="V" horiz-adv-x="1366" 
d="M1505 1341l-12 -73l-132 -27l-722 -1272h-113l-301 1272l-105 27l12 73h547l-12 -73l-144 -27l202 -879l487 879l-130 27l12 73h411z" />
    <glyph glyph-name="W" unicode="W" horiz-adv-x="1821" 
d="M1214 -31h-94l-158 848l-402 -848h-101l-188 1273l-130 26l13 73h564l-13 -73l-162 -26l106 -814l397 829h100l152 -834l362 819l-164 26l13 73h432l-13 -73l-122 -26z" />
    <glyph glyph-name="X" unicode="X" horiz-adv-x="1366" 
d="M257 100l151 -27l-12 -73h-448l12 73l153 27l461 535l-238 607l-146 26l13 73h613l-13 -73l-165 -26l143 -367l316 367l-151 26l13 73h449l-13 -73l-153 -26l-416 -482l259 -660l147 -27l-12 -73h-613l12 73l165 27l-165 420z" />
    <glyph glyph-name="Y" unicode="Y" horiz-adv-x="1251" 
d="M702 100l208 -27l-12 -73h-722l12 73l218 27l79 442l-234 700l-146 26l13 73h636l-13 -73l-185 -26l178 -556l364 556l-159 26l13 73h456l-13 -73l-147 -26l-466 -694z" />
    <glyph glyph-name="Z" unicode="Z" horiz-adv-x="1251" 
d="M841 1235l-192 -0.000976562c-66 0 -126 -2.16699 -180 -6.5s-91.667 -8.83301 -113 -13.5l-68 -211h-89l59 337h941l-19 -106l-823 -1131h187c72.667 0 148.5 3.83301 227.5 11.5s133.167 14.834 162.5 21.501l104 256h90l-96 -393h-1037l20 114z" />
    <glyph glyph-name="bracketleft" unicode="[" horiz-adv-x="682" 
d="M51 -274l299 1695h436l-12 -67l-210 -41l-261 -1479l196 -41l-12 -67h-436z" />
    <glyph glyph-name="backslash" unicode="\" horiz-adv-x="569" 
d="M339 -20l-209 1369h127l212 -1369h-130z" />
    <glyph glyph-name="bracketright" unicode="]" horiz-adv-x="682" 
d="M-106 -274l12 67l210 41l261 1479l-196 41l12 67h436l-299 -1695h-436z" />
    <glyph glyph-name="asciicircum" unicode="^" horiz-adv-x="1167" 
d="M934 389l-330 761l-330 -761h-143l428 952h90l428 -952h-143z" />
    <glyph glyph-name="underscore" unicode="_" horiz-adv-x="1024" 
d="M-153 -285v144h1056v-144h-1056z" />
    <glyph glyph-name="grave" unicode="`" horiz-adv-x="682" 
d="M547 1118l-317 268l7 37h265l137 -273l-6 -32h-86z" />
    <glyph glyph-name="a" unicode="a" horiz-adv-x="1024" 
d="M823 90l108.999 -32.002l-8 -58h-347l-4 138c-39.333 -49.333 -83.833 -88.166 -133.5 -116.499s-100.167 -42.5 -151.5 -42.5c-83.333 0 -148.166 30 -194.499 90s-69.5 143.333 -69.5 250c0 116.667 24.333 224.834 73 324.501s116.5 178 203.5 235
s182.833 85.5 287.5 85.5c92 0 175.667 -15 251 -45l82 37h54zM286.999 350.998c0 -68.667 11.499 -123.167 34.499 -163.5s51.833 -60.5 86.5 -60.5c26.667 0 56.334 13.333 89.001 40s62 59.667 88 99l99 563c-30 22.667 -71.333 34 -124 34
c-49.333 0 -95 -23.5 -137 -70.5s-75.167 -110.667 -99.5 -191s-36.5 -163.833 -36.5 -250.5z" />
    <glyph glyph-name="b" unicode="b" horiz-adv-x="1024" 
d="M700 587c0 70 -11.166 125.168 -33.499 165.501s-51.5 60.5 -87.5 60.5c-24 0 -51.833 -12.833 -83.5 -38.5s-61.834 -59.167 -90.501 -100.5l-97 -550c13.333 -12.667 33 -23.834 59 -33.501s49.333 -14.5 70 -14.5c46 0 89.333 24 130 72s73 112.167 97 192.5
s36 162.5 36 246.5zM449.001 -22.999c-72.667 0 -146.832 5.99902 -222.499 17.999s-142.167 29.667 -199.5 53l227 1285l-92 23l11 65h365l-76 -430c-12.667 -78 -26.667 -142.667 -42 -194c40.667 54 85.167 95.5 133.5 124.5s97.5 43.5 147.5 43.5
c80 0 143.667 -29.833 191 -89.5s71 -141.167 71 -244.5c0 -117.333 -22.833 -227.166 -68.5 -329.499s-107.334 -182 -185.001 -239s-164.5 -85.5 -260.5 -85.5z" />
    <glyph glyph-name="c" unicode="c" horiz-adv-x="909" 
d="M391 -20c-114.667 0 -203.499 31 -266.499 93s-94.5 147.667 -94.5 257c0 123.333 24.5 233.333 73.5 330s116.5 171.667 202.5 225s179 80 279 80c48 0 100.167 -4.5 156.5 -13.5s102.166 -19.5 137.499 -31.5l-49 -288h-72l-14 171c-36 40 -84.667 60 -146 60
c-52.667 0 -102.5 -23.5 -149.5 -70.5s-83.833 -110.667 -110.5 -191s-40 -167.5 -40 -261.5c0 -74.667 14.667 -132.667 44 -174s72.333 -62 129 -62c50 0 95.5 9 136.5 27s80.5 40.333 118.5 67l44 -63c-54.667 -48.667 -115.5 -86.667 -182.5 -114s-132.5 -41 -196.5 -41
z" />
    <glyph glyph-name="d" unicode="d" horiz-adv-x="1024" 
d="M276 -20c-76 0 -137 29.332 -183 87.999s-69 139.334 -69 242.001c0 118 21.5 227.333 64.5 328s103.333 180.167 181 238.5s163.834 87.5 258.501 87.5c72.667 0 130.667 -9.33301 174 -28l3 30l11 94l46 272l-160 24l12 65h435l-237 -1336l99 -25l-12 -60h-332l-7 144
c-39.333 -52.667 -84.333 -93.167 -135 -121.5s-100.334 -42.5 -149.001 -42.5zM287 353.999c0 -72 9.50098 -127.665 28.501 -166.998s43.833 -59 74.5 -59c25.333 0 55.833 13.333 91.5 40s67.5 59.667 95.5 99l97 550c-13.333 13.333 -33.833 24.666 -61.5 33.999
s-51.834 14 -72.501 14c-45.333 0 -87.5 -23.667 -126.5 -71s-69.833 -111.333 -92.5 -192s-34 -163.334 -34 -248.001z" />
    <glyph glyph-name="e" unicode="e" horiz-adv-x="909" 
d="M864 760c0 -60 -21.999 -115.332 -65.999 -165.999s-107.5 -92.334 -190.5 -125.001s-177.167 -53 -282.5 -61c-3.33301 -13.333 -5 -36 -5 -68c0 -157.333 60.333 -236 181 -236c49.333 0 95 9.5 137 28.5s81.333 40.833 118 65.5l44 -63
c-58.667 -49.333 -122.334 -87.5 -191.001 -114.5s-134.667 -40.5 -198 -40.5c-118 0 -208 29.667 -270 89s-93 146.333 -93 261s24.333 221 73 319s113 175.167 193 231.5s163 84.5 249 84.5c92 0 165.167 -18.5 219.5 -55.5s81.5 -86.833 81.5 -149.5zM341.001 508.001
c81.333 8.66699 148.169 38.168 200.502 88.501s78.5 109.166 78.5 176.499c0 28 -6.83301 49 -20.5 63s-29.834 21 -48.501 21c-46 0 -88.833 -34 -128.5 -102s-66.834 -150.333 -81.501 -247z" />
    <glyph glyph-name="f" unicode="f" horiz-adv-x="682" 
d="M222 836l-162 0.000976562l12 69l169 39l23 122c24.667 132 72.667 227.667 144 287s166.333 89 285 89c60.667 0 113.667 -7 159 -21l-39 -222h-64l-12 112c-14 14 -32.667 21 -56 21c-35.333 0 -64 -17.833 -86 -53.5s-41 -95.834 -57 -180.501l-29 -158h206l-18 -104
h-206l-222 -1272h-269z" />
    <glyph glyph-name="g" unicode="g" horiz-adv-x="1024" 
d="M292 355c0 -70.667 10.833 -126 32.5 -166s49.167 -60 82.5 -60c23.333 0 50.833 11.667 82.5 35s62.5 55 92.5 95l107 582c-39.333 16.667 -82.333 25 -129 25c-49.333 0 -94.333 -23 -135 -69s-73 -109.667 -97 -191s-36 -165 -36 -251zM29 311
c0 119.333 22.666 230.002 67.999 332.002s107.833 181.167 187.5 237.5s169.834 84.5 270.501 84.5c108.667 0 247 -14 415 -42l-172 -958c-25.333 -138 -79 -239.333 -161 -304s-196.333 -97 -343 -97c-62 0 -123.833 6.66699 -185.5 20s-110.5 30.333 -146.5 51l22 253
h56l36 -131c24 -24.667 55 -44.834 93 -60.501s80 -23.5 126 -23.5c44.667 0 82 8.33301 112 25s54.167 41.5 72.5 74.5s33.5 83.833 45.5 152.5c16 98 31.667 171.333 47 220c-40.667 -52.667 -86.167 -93.834 -136.5 -123.501s-99.5 -44.5 -147.5 -44.5
c-78 0 -140.667 30 -188 90s-71 141.333 -71 244z" />
    <glyph glyph-name="h" unicode="h" horiz-adv-x="1139" 
d="M436 769c102.667 130.667 230 196.001 382 196.001c64.667 0 116.667 -17.833 156 -53.5s59 -84.167 59 -145.5c0 -34.667 -5.66699 -83 -17 -145l-95 -531l116 -24l-13 -66h-386l102 569c14.667 77.333 22 129.333 22 156c0 64.667 -30.333 97 -91 97
c-42 0 -89.333 -23.333 -142 -70s-91.667 -99.334 -117 -158.001l-106 -594h-266l234 1331l-91 24l11 66h365l-84 -463l-32 -160z" />
    <glyph glyph-name="i" unicode="i" horiz-adv-x="569" 
d="M337 90l119 -24l-11 -66h-393l150 850l-91 24l11 66h365zM253 1268c0 43.333 15.165 79.668 45.498 109.001s66.5 44 108.5 44c42.667 0 78.834 -14.833 108.501 -44.5s44.5 -65.834 44.5 -108.501c0 -42 -14.667 -78.167 -44 -108.5s-65.666 -45.5 -108.999 -45.5
c-42.667 0 -79 14.833 -109 44.5s-45 66.167 -45 109.5z" />
    <glyph glyph-name="j" unicode="j" horiz-adv-x="569" 
d="M-100 -436c-59.333 0 -115.334 5.99902 -168.001 17.999l39 225h63l24 -118c13.333 -10 28.333 -15 45 -15c34.667 0 64.834 22.333 90.501 67s45.5 107.334 59.5 188.001l161 911l-160 34l11 66h435l-172 -979c-23.333 -130.667 -71 -229.5 -143 -296.5
s-167 -100.5 -285 -100.5zM267.999 1268c0 43.333 15.165 79.668 45.498 109.001s66.5 44 108.5 44c42.667 0 78.834 -14.833 108.501 -44.5s44.5 -65.834 44.5 -108.501c0 -42 -14.667 -78.167 -44 -108.5s-65.666 -45.5 -108.999 -45.5c-42.667 0 -79 14.833 -109 44.5
s-45 66.167 -45 109.5z" />
    <glyph glyph-name="k" unicode="k" horiz-adv-x="1024" 
d="M388 507l351 344l-86 23l11 66h344l-11 -66l-92 -22l-243 -224l222 -538l80 -24l-11 -66h-314l-166 453l-108 -70l-68 -383h-269l235 1331l-92 24l12 66h365z" />
    <glyph glyph-name="l" unicode="l" horiz-adv-x="569" 
d="M330 90l119 -24l-11 -66h-393l236 1331l-91 24l11 66h365z" />
    <glyph glyph-name="m" unicode="m" horiz-adv-x="1593" 
d="M1220 725c0 64.667 -24.002 96.999 -72.002 96.999c-23.333 0 -50.833 -13.333 -82.5 -40s-60 -60.667 -85 -102s-40.833 -80.333 -47.5 -117l-99 -563h-267l102 569c14.667 77.333 22 129.333 22 156c0 64.667 -24.667 97 -74 97c-32 0 -68.333 -22.167 -109 -66.5
s-73 -98.166 -97 -161.499l-106 -594h-266l148 849l-89 25l13 66h328l-3 -168c48 65.333 99 113.833 153 145.5s114.333 47.5 181 47.5c59.333 0 105.833 -17.5 139.5 -52.5s50.834 -83.5 51.501 -145.5c94 132 206.667 198 338 198c58.667 0 105.334 -18.5 140.001 -55.5
s52 -88.833 52 -155.5c0 -24.667 -5.66699 -68.667 -17 -132l-95 -532l116 -24l-13 -66h-386l102 569c14.667 77.333 22 129.333 22 156z" />
    <glyph glyph-name="n" unicode="n" horiz-adv-x="1139" 
d="M764 725c0 64.667 -30.333 97.001 -91 97.001c-42 0 -89.333 -23.333 -142 -70s-91.667 -99.334 -117 -158.001l-106 -594h-266l148 849l-89 25l13 66h334l-8 -175c103.333 133.333 230 200 380 200c66 0 118.333 -17.667 157 -53s58 -85 58 -149
c0 -34.667 -8.33301 -95.667 -25 -183l-87 -490l116 -24l-13 -66h-386l102 569c14.667 77.333 22 129.333 22 156z" />
    <glyph glyph-name="o" unicode="o" horiz-adv-x="1024" 
d="M683 625c0 160.667 -41.668 241.001 -125.001 241.001c-42 0 -83.5 -25.333 -124.5 -76s-74 -118.667 -99 -204s-37.5 -174.333 -37.5 -267c0 -76.667 12.333 -135.834 37 -177.501s56.334 -62.5 95.001 -62.5c42.667 0 84 24.667 124 74s71.667 116 95 200
s35 174.667 35 272zM405.999 -19.999c-113.333 0 -204 35.667 -272 107s-102 167 -102 287c0 108 23.333 207.333 70 298s111.834 162.167 195.501 214.5s177.834 78.5 282.501 78.5c113.333 0 204 -35.667 272 -107s102 -167 102 -287c0 -108 -23.333 -207.333 -70 -298
s-111.834 -162.167 -195.501 -214.5s-177.834 -78.5 -282.501 -78.5z" />
    <glyph glyph-name="p" unicode="p" horiz-adv-x="1024" 
d="M962 631c0 -118.667 -21.667 -227.833 -65 -327.5s-104.333 -178.5 -183 -236.5s-167 -87 -265 -87c-57.333 0 -109 11 -155 33l-2 -29l-12 -95l-38 -236l160 -24l-12 -65h-536l12 65l104 24l214 1202l-99 25l12 60h345l-6 -138c83.333 108.667 172.333 163 267 163
c78 0 140.667 -30 188 -90s71 -141.333 71 -244zM699 587.001c0 70 -10.168 125.167 -30.501 165.5s-47.166 60.5 -80.499 60.5c-45.333 0 -101.333 -44.333 -168 -133l-98 -553c16 -16 35.167 -28 57.5 -36s41.833 -12 58.5 -12c48 0 92.167 23.5 132.5 70.5
s71.833 110.333 94.5 190s34 162.167 34 247.5z" />
    <glyph glyph-name="q" unicode="q" horiz-adv-x="1024" 
d="M289 355c0 -70.667 10.832 -126 32.499 -166s48.834 -60 81.501 -60c22.667 0 51.5 13.167 86.5 39.5s67.167 59.5 96.5 99.5l105 573c-39.333 16.667 -85 25 -137 25c-74.667 0 -137.5 -50.667 -188.5 -152s-76.5 -221 -76.5 -359zM539.999 965
c142 0 286.001 -13.998 432.001 -41.998l-229 -1271l92 -23l-11 -65h-365l73 387c12.667 78 26.667 142.667 42 194c-38 -50.667 -83.833 -91.334 -137.5 -122.001s-104.5 -46 -152.5 -46c-78.667 0 -141.334 30.167 -188.001 90.5s-70 141.5 -70 243.5
c0 120.667 21.5 231.167 64.5 331.5s103.667 179.166 182 236.499s167.5 86 267.5 86z" />
    <glyph glyph-name="r" unicode="r" horiz-adv-x="797" 
d="M438 738c36.667 71.333 81.167 126.999 133.5 166.999s104.833 60 157.5 60c32 0 59.667 -3.33301 83 -10l-58 -337h-55l-44 137c-50 0 -93.667 -12.667 -131 -38s-73.333 -65.666 -108 -120.999l-105 -596h-269l150 850l-117 24l11 66h375z" />
    <glyph glyph-name="s" unicode="s" horiz-adv-x="797" 
d="M693 297c0 -101.333 -34.001 -179.499 -102.001 -234.499s-169.667 -82.5 -305 -82.5c-51.333 0 -106.5 5.83301 -165.5 17.5s-102.833 23.834 -131.5 36.501l46 261h66l15 -132c42.667 -60 101.667 -90 177 -90c54.667 0 98.334 14.5 131.001 43.5s49 65.167 49 108.5
c0 26 -8.83301 49.833 -26.5 71.5s-45.167 43.167 -82.5 64.5l-66 38c-74 41.333 -126.333 84.5 -157 129.5s-46 95.5 -46 151.5c0 190 125.667 285 377 285c78.667 0 166 -10.667 262 -32l-43 -241h-66l-13 110c-14 17.333 -34.667 33.166 -62 47.499s-58 21.5 -92 21.5
c-50.667 0 -87.834 -11.333 -111.501 -34s-35.5 -52.334 -35.5 -89.001c0 -26 9.83301 -50.333 29.5 -73s62.834 -52.667 129.501 -90c63.333 -35.333 108.833 -65.833 136.5 -91.5s49 -54.167 64 -85.5s22.5 -68.333 22.5 -111z" />
    <glyph glyph-name="t" unicode="t" horiz-adv-x="569" 
d="M428 106c22.667 0 59.332 8.66699 109.999 26l26 -70c-32.667 -23.333 -74.167 -42.833 -124.5 -58.5s-98.166 -23.5 -143.499 -23.5c-73.333 0 -129.833 17.5 -169.5 52.5s-59.5 85.833 -59.5 152.5c0 30.667 6 78.667 18 144l92 507h-115l11 65l142 39l139 213h146
l-38 -213h158l-18 -104h-158l-91 -509c-10.667 -54.667 -16 -94.667 -16 -120c0 -35.333 8.83301 -61 26.5 -77s39.167 -24 64.5 -24z" />
    <glyph glyph-name="u" unicode="u" horiz-adv-x="1139" 
d="M350 216c0 -64.667 30.334 -97.002 91.001 -97.002c42.667 0 90.667 23.833 144 71.5s91.666 99.834 114.999 156.501l106 593h266l-148 -849l109 -25l-13 -66h-354l8 176c-103.333 -133.333 -230 -200 -380 -200c-67.333 0 -120 18.167 -158 54.5s-57 88.5 -57 156.5
c0 12.667 2.16699 34.334 6.5 65.001s39.5 230 105.5 598l-116 24l13 66h386l-102 -568c-14.667 -76.667 -22 -128.667 -22 -156z" />
    <glyph glyph-name="v" unicode="v" horiz-adv-x="909" 
d="M330 941l149.001 -654.001l203 314c21.333 33.333 37.666 66.333 48.999 99s17 59.667 17 81c0 17.333 -2.83301 31.5 -8.5 42.5s-13.167 20.167 -22.5 27.5s-29 15.333 -59 24l12 65h231c17.333 -15.333 26 -36.333 26 -63c0 -61.333 -27.667 -134.666 -83 -219.999
l-437 -677h-123l-204 871l-61 24l11 66h300z" />
    <glyph glyph-name="w" unicode="w" horiz-adv-x="1366" 
d="M1185 775c0 46.667 -21.333 76.666 -64 89.999l-36 10l12 65h245c20.667 -16 31 -43 31 -81c0 -59.333 -22.333 -126.666 -67 -201.999l-402 -677h-119l-103 538l-296 -538h-133l-171 870l-80 24l11 66h304l126 -658l309 564h100l112 -564l165 298
c13.333 24.667 26 57.167 38 97.5s18 72.833 18 97.5z" />
    <glyph glyph-name="x" unicode="x" horiz-adv-x="1024" 
d="M439 374l-165 -138.002c-24 -20.667 -42.5 -38.167 -55.5 -52.5s-22.333 -27 -28 -38s-8.5 -24.833 -8.5 -41.5c0 -20 14 -33 42 -39l-12 -65h-221c-10.667 8.66699 -16 23 -16 43c0 23.333 10.833 48.833 32.5 76.5s56.5 61.5 104.5 101.5l284 239l-202 390l-86 25
l11 65h299l165 -325l102 85c32.667 26.667 57.167 50.834 73.5 72.501s24.5 42.834 24.5 63.501c0 19.333 -18.333 32.333 -55 39l12 65h213c14 -10.667 21 -25 21 -43c0 -50 -46 -113.333 -138 -190l-208 -174l228 -447l86 -21l-11 -65h-302z" />
    <glyph glyph-name="y" unicode="y" horiz-adv-x="909" 
d="M915 877c0 -60 -27 -133.331 -81 -219.998l-439 -716c-64 -104.667 -117.833 -181.834 -161.5 -231.501s-88.167 -87.334 -133.5 -113.001s-93.333 -38.5 -144 -38.5c-34 0 -61.167 1.16699 -81.5 3.5s-46.833 7.5 -79.5 15.5l42 242h60l20 -126
c16.667 -15.333 40 -23 70 -23c40 0 83.667 23 131 69s108 131.333 182 256l-214 855l-61 24l11 66h303l152 -639l181 300c18 29.333 33.167 61.5 45.5 96.5s18.5 62.833 18.5 83.5c0 17.333 -2.83301 31.5 -8.5 42.5s-13.167 20.167 -22.5 27.5s-29 15.333 -59 24l12 65
h231c17.333 -15.333 26 -36.333 26 -63z" />
    <glyph glyph-name="z" unicode="z" horiz-adv-x="797" 
d="M-58 0l8.00195 50l516 800h-70c-36 0 -71.5 -3.16699 -106.5 -9.5s-60.833 -14.833 -77.5 -25.5l-60 -155h-72l49 280h660l-9 -54l-516 -796h83c37.333 0 76.666 4.5 117.999 13.5s72.666 20.167 93.999 33.5l82 178h72l-74 -315h-697z" />
    <glyph glyph-name="braceleft" unicode="{" horiz-adv-x="713" 
d="M402 -274c-81.333 0 -143.666 20.498 -186.999 61.498s-65 99.167 -65 174.5c0 26.667 2.33301 52.667 7 78l48 275c4 22 6 42.333 6 61c0 54.667 -15.833 94 -47.5 118s-76.834 37 -135.501 39l15 85c68.667 2 124.834 19.5 168.501 52.5s72.167 87.5 85.5 163.5l55 314
c16.667 94 53.167 163 109.5 207s136.166 66 239.499 66h135l-15 -87h-62c-46 0 -82.5 -11.5 -109.5 -34.5s-45.5 -63.167 -55.5 -120.5l-64 -360c-11.333 -64 -39.5 -118.667 -84.5 -164s-99.167 -74.333 -162.5 -87v-3c50 -11.333 89.5 -34.166 118.5 -68.499
s43.5 -78.166 43.5 -131.499l-5 -53l-53 -304c-4 -22 -6 -42.333 -6 -61c0 -40.667 8.83301 -73.167 26.5 -97.5s45.5 -36.5 83.5 -36.5h62l-16 -87h-135z" />
    <glyph glyph-name="bar" unicode="|" horiz-adv-x="451" 
d="M139 -442v1863h143v-1863h-143z" />
    <glyph glyph-name="braceright" unicode="}" horiz-adv-x="713" 
d="M-120 -274l16 87h62c46 0 82.333 11.5 109 34.5s45 63.167 55 120.5l65 364c11.333 65.333 39 120.333 83 165s98.667 74 164 88v3c-48 10.667 -87 33.334 -117 68.001s-45 78.667 -45 132l5 51l52 300c4 22 6 42.667 6 62c0 40.667 -8.83301 73 -26.5 97
s-45.167 36 -82.5 36h-62l15 87h135c86.667 0 150.5 -20.833 191.5 -62.5s61.5 -97.834 61.5 -168.501c0 -25.333 -2.66699 -52.666 -8 -81.999l-47 -274c-4 -22 -6 -42.333 -6 -61c0 -100.667 60.667 -152.334 182 -155.001l-15 -85
c-74 -2.66699 -131.5 -21.667 -172.5 -57s-67.833 -89 -80.5 -161l-56 -315c-16 -90.667 -52.333 -159 -109 -205s-136.667 -69 -240 -69h-135z" />
    <glyph glyph-name="asciitilde" unicode="~" horiz-adv-x="1167" 
d="M831 481c-38 0 -77.3311 9.83301 -117.998 29.5s-85.667 50.167 -135 91.5c-57.333 48 -99.833 80.167 -127.5 96.5s-52.5 24.5 -74.5 24.5c-47.333 0 -81.833 -18.5 -103.5 -55.5s-36.834 -99.167 -45.501 -186.5h-141c10 99.333 26 174.333 48 225s52.5 90 91.5 118
s89.167 42 150.5 42c38.667 0 79.667 -10 123 -30s102.666 -62.333 177.999 -127c64 -56.667 115.333 -85 154 -85c44 0 77 19.167 99 57.5s38 99.833 48 184.5h144c-13.333 -100.667 -31.333 -176.167 -54 -226.5s-53.167 -89.333 -91.5 -117s-86.833 -41.5 -145.5 -41.5z
" />
    <glyph glyph-name="uni00A0" unicode="&#xa0;" horiz-adv-x="512" 
 />
    <glyph glyph-name="exclamdown" unicode="&#xa1;" horiz-adv-x="797" 
d="M340 512h95l-60 -921h-299zM433 961c46 0 85.167 -16 117.5 -48s48.5 -71.333 48.5 -118c0 -46 -16 -85.167 -48 -117.5s-71.333 -48.5 -118 -48.5c-46 0 -85.167 16 -117.5 48s-48.5 71.333 -48.5 118c0 46 16 85.167 48 117.5s71.333 48.5 118 48.5z" />
    <glyph glyph-name="cent" unicode="&#xa2;" horiz-adv-x="1024" 
d="M883 348c-93.333 -80.667 -191 -131.668 -293 -153.001l-34 -195h-92l32 185c-116 0 -207.167 31.5 -273.5 94.5s-99.5 148.167 -99.5 255.5c0 120.667 24.167 228.5 72.5 323.5s115 169.833 200 224.5s176.5 83.334 274.5 86.001l30 172h92l-31 -174
c96 -8.66699 173 -22.667 231 -42l-49 -288h-72l-14 171c-26.667 30 -64.667 49 -114 57l-132 -754c67.333 8.66699 143.333 42 228 100zM391 544.999c0 -68 12.166 -121.167 36.499 -159.5s54.5 -62.833 90.5 -73.5l133 753c-47.333 -14 -91.166 -46 -131.499 -96
s-71.833 -112.5 -94.5 -187.5s-34 -153.833 -34 -236.5z" />
    <glyph glyph-name="sterling" unicode="&#xa3;" horiz-adv-x="1024" 
d="M905 203l-37.0029 -202.999h-873l21 123l94 72c59.333 44.667 104 91.167 134 139.5s45 99.833 45 154.5c0 38 -6.33301 81.667 -19 131h-161l18 101h88c-17.333 66 -26 126.333 -26 181c0 147.333 45.333 259.833 136 337.5s223.334 116.5 398.001 116.5
c40.667 0 81.834 -2.5 123.501 -7.5s101.5 -16.833 179.5 -35.5l-54 -305h-87l-9 194c-51.333 35.333 -106.666 53 -165.999 53c-87.333 0 -153.833 -38.5 -199.5 -115.5s-68.5 -182.833 -68.5 -317.5l3 -101h262l-18 -101h-243l1 -33v-36
c0 -64.667 -13.5 -127.834 -40.5 -189.501s-64.167 -114.5 -111.5 -158.5h610z" />
    <glyph glyph-name="currency" unicode="&#xa4;" horiz-adv-x="1024" 
d="M750 352c-64.667 -46 -139 -69 -223 -69c-80 0 -154.333 23 -223 69l-105 -104l-100 102l102 103c-44.667 67.333 -67 141.666 -67 222.999c0 82 22.333 156.333 67 223l-102 105l104 104l101 -107c70 46.667 144.333 70 223 70s153 -23.333 223 -70l105 105l102 -100
l-104 -107c46 -68.667 69 -143 69 -223c0 -79.333 -23 -153.666 -69 -222.999l104 -103l-100 -102zM527 932c-70.667 0 -130.667 -25.167 -180 -75.5s-74 -110.5 -74 -180.5s24.833 -129.833 74.5 -179.5s109.5 -74.5 179.5 -74.5s130.167 24.667 180.5 74
s75.5 109.333 75.5 180s-25 131 -75 181s-110.333 75 -181 75z" />
    <glyph glyph-name="yen" unicode="&#xa5;" horiz-adv-x="1024" 
d="M131 1275l12 66h473l-12 -66l-116 -26l109 -547l319 549l-106 24l12 66h331l-12 -66l-89 -20l-373 -616h233l-18 -102h-254l-24 -138h254l-18 -102h-254l-37 -207l139 -24l-11 -66h-554l11 66l146 24l37 207h-257l18 102h257l24 138h-257l18 102h233l-154 612z" />
    <glyph glyph-name="brokenbar" unicode="&#xa6;" horiz-adv-x="451" 
d="M182 801v620h142v-620h-142zM182 -442v622h142v-622h-142z" />
    <glyph glyph-name="section" unicode="&#xa7;" horiz-adv-x="1024" 
d="M768 57c0 -99.333 -36.001 -176.171 -108.001 -230.504s-180.667 -81.5 -326 -81.5c-50.667 0 -105.834 5.5 -165.501 16.5s-103.5 22.5 -131.5 34.5l46 261h66l14 -132c23.333 -27.333 52.333 -48.666 87 -63.999s70 -23 106 -23c58.667 0 105.834 14.833 141.501 44.5
s53.5 68.834 53.5 117.501c0 38.667 -15 74.667 -45 108s-86.333 76 -169 128c-72 44.667 -125.667 91.334 -161 140.001s-53 102.667 -53 162c0 76.667 25.167 142.667 75.5 198s121.166 94.666 212.499 117.999c-47.333 28 -84.166 62.667 -110.499 104
s-39.5 87.333 -39.5 138c0 94 34 166.5 102 217.5s164.667 76.5 290 76.5c71.333 0 162.333 -9.66699 273 -29l-42 -241h-66l-13 110c-16 19.333 -40.5 35.166 -73.5 47.499s-64.833 18.5 -95.5 18.5c-52.667 0 -93 -12.333 -121 -37s-42 -58 -42 -100
c0 -31.333 11.667 -60.666 35 -87.999s58.333 -53.666 105 -78.999l81 -45c60 -33.333 104 -63.166 132 -89.499s49.667 -55.333 65 -87s23 -67.5 23 -107.5c0 -82 -26.167 -151.667 -78.5 -209s-127.166 -99 -224.499 -125c55.333 -42 95.333 -84.833 120 -128.5
s37 -91.5 37 -143.5zM513.999 406.995c49.333 10.667 92.001 34.334 128.001 71.001s54 77 54 121c0 34 -12.167 64.667 -36.5 92s-71.5 57.333 -141.5 90c-49.333 -8 -91.833 -28.333 -127.5 -61s-53.5 -70 -53.5 -112c0 -34 12.667 -66.333 38 -97
s71.666 -65.334 138.999 -104.001z" />
    <glyph glyph-name="dieresis" unicode="&#xa8;" horiz-adv-x="682" 
d="M640 1130c-32 0 -60.167 11.833 -84.5 35.5s-36.5 52.167 -36.5 85.5s12.167 61.5 36.5 84.5s52.5 34.5 84.5 34.5c32.667 0 60.667 -11.333 84 -34s35 -51 35 -85c0 -33.333 -11.667 -61.833 -35 -85.5s-51.333 -35.5 -84 -35.5zM284 1130
c-32 0 -60.167 12.333 -84.5 37s-36.5 52.667 -36.5 84c0 32 12 59.833 36 83.5s52.333 35.5 85 35.5s60.667 -11.833 84 -35.5s35 -51.5 35 -83.5c0 -33.333 -11.667 -61.833 -35 -85.5s-51.333 -35.5 -84 -35.5z" />
    <glyph glyph-name="copyright" unicode="&#xa9;" horiz-adv-x="1530" 
d="M87 670c0 126 31.165 242.5 93.498 349.5s146.333 190.833 252 251.5s220.5 91 344.5 91c124.667 0 240.334 -30.667 347.001 -92s190.834 -145.166 252.501 -251.499s92.5 -222.5 92.5 -348.5c0 -123.333 -30.167 -237.833 -90.5 -343.5s-144 -189.834 -251 -252.501
s-223.833 -94 -350.5 -94c-124 0 -239.333 30.667 -346 92s-190.667 145.333 -252 252s-92 222 -92 346zM811.998 254c-132.667 0 -236.834 37 -312.501 111s-113.5 173.667 -113.5 299c0 138.667 36.833 244.167 110.5 316.5s179.5 108.5 317.5 108.5
c78.667 0 168 -10 268 -30l4 -207h-69l-19 105c-27.333 16.667 -54.666 29.334 -81.999 38.001s-60 13 -98 13c-86.667 0 -148.667 -25.333 -186 -76s-56 -139.334 -56 -266.001c0 -110 17.833 -192.833 53.5 -248.5s96.5 -83.5 182.5 -83.5c81.333 0 146.333 19.667 195 59
l22 119h70l-4 -219c-84.667 -26 -179 -39 -283 -39zM776.998 1278c-107.333 0 -207.333 -27.001 -300 -81.001s-165.834 -128 -219.501 -222s-80.5 -195.667 -80.5 -305c0 -108.667 26.833 -210.167 80.5 -304.5s126.667 -168.333 219 -222s192.5 -80.5 300.5 -80.5
c106.667 0 206.5 26.833 299.5 80.5s166.667 127.834 221 222.501s81.5 196 81.5 304s-26.667 208.833 -80 302.5s-126.166 168 -218.499 223s-193.5 82.5 -303.5 82.5z" />
    <glyph glyph-name="ordfeminine" unicode="&#xaa;" horiz-adv-x="545" 
d="M584 846l54 -14.999l-10 -49h-203l2 44c-53.333 -39.333 -111 -59 -173 -59c-48.667 0 -88.5 19.667 -119.5 59s-46.5 91.666 -46.5 156.999c0 70 15.333 134.167 46 192.5s74 104 130 137s120.333 49.5 193 49.5c42 0 85.333 -8.66699 130 -26l6 3l32 18h50zM495 1278
c-23.333 10 -47.333 15 -72 15c-51.333 0 -93.333 -28.833 -126 -86.5s-49 -129.167 -49 -214.5c0 -92.667 24 -139 72 -139c32 0 67.667 12.333 107 37z" />
    <glyph glyph-name="guillemotleft" unicode="&#xab;" horiz-adv-x="1024" 
d="M475 852h101l-262 -389l125 -389h-101l-258 356l12 66zM885 852h100l-261 -389l124 -389h-100l-258 356l12 66z" />
    <glyph glyph-name="logicalnot" unicode="&#xac;" horiz-adv-x="1241" 
d="M1067 752v-549h-142v405h-811v144h953z" />
    <glyph glyph-name="uni00AD" unicode="&#xad;" horiz-adv-x="682" 
d="M43 395l33 174h532l-33 -174h-532z" />
    <glyph glyph-name="registered" unicode="&#xae;" horiz-adv-x="1530" 
d="M1469 670c0 -123.333 -30.1689 -237.833 -90.502 -343.5s-144 -189.834 -251 -252.501s-223.833 -94 -350.5 -94c-124 0 -239.333 30.667 -346 92s-190.667 145.333 -252 252s-92 222 -92 346c0 126 31.167 242.5 93.5 349.5s146.333 190.833 252 251.5
s220.5 91 344.5 91c124.667 0 240.334 -30.667 347.001 -92s190.834 -145.166 252.501 -251.499s92.5 -222.5 92.5 -348.5zM965.998 276l-230 343.001h-49v-269l94 -16v-58h-346v58l76 16v660l-84 16v55h350c104 0 182.667 -19.167 236 -57.5s80 -92.833 80 -163.5
c0 -51.333 -15.167 -96.333 -45.5 -135s-74.833 -67.334 -133.5 -86.001l207 -289l70 -16v-58h-225zM909.998 858.001c0 54.667 -14 93 -42 115s-82 33 -162 33h-19v-312h23c69.333 0 120 12 152 36s48 66.667 48 128zM776.998 1278
c-107.333 0 -207.333 -27.001 -300 -81.001s-165.834 -128 -219.501 -222s-80.5 -195.667 -80.5 -305c0 -108.667 26.833 -210.167 80.5 -304.5s126.667 -168.333 219 -222s192.5 -80.5 300.5 -80.5c106.667 0 206.5 26.833 299.5 80.5s166.667 127.834 221 222.501
s81.5 196 81.5 304s-26.667 208.833 -80 302.5s-126.166 168 -218.499 223s-193.5 82.5 -303.5 82.5z" />
    <glyph glyph-name="overscore" unicode="&#xaf;" horiz-adv-x="1024" 
d="M1196 1452h-1059v94h1059v-94z" />
    <glyph glyph-name="degree" unicode="&#xb0;" horiz-adv-x="819" 
d="M184 1051c0 55.333 13.6689 107 41.002 155s65.166 86 113.499 114s100.166 42 155.499 42s107 -13.833 155 -41.5s86 -65.5 114 -113.5s42 -100 42 -156s-14.167 -108.167 -42.5 -156.5s-66.5 -86 -114.5 -113s-99.333 -40.5 -154 -40.5c-86.667 0 -160 30 -220 90
s-90 133.333 -90 220zM493.002 1250c-53.333 0 -98.332 -19.167 -134.999 -57.5s-55 -86.166 -55 -143.499c0 -55.333 18.5 -102.333 55.5 -141s81.833 -58 134.5 -58c54 0 99.5 19.333 136.5 58s55.5 85.667 55.5 141c0 57.333 -18.333 105.166 -55 143.499
s-82.334 57.5 -137.001 57.5z" />
    <glyph glyph-name="plusminus" unicode="&#xb1;" horiz-adv-x="1124" 
d="M632 608v-405h-143v405h-404v144h404v405h143v-405h406v-144h-406zM1038 141v-141h-953v141h953z" />
    <glyph glyph-name="twosuperior" unicode="&#xb2;" horiz-adv-x="614" 
d="M550 535h-510l20 114c112 87.333 194.167 157.666 246.5 210.999s91.833 104.666 118.5 153.999s40 98.333 40 147c0 34.667 -7.5 62.834 -22.5 84.501s-37.5 32.5 -67.5 32.5c-35.333 0 -67 -10.333 -95 -31l-46 -116h-62l33 192c78.667 18 145 27 199 27
c78.667 0 139.167 -17 181.5 -51s63.5 -80 63.5 -138c0 -49.333 -13 -96.166 -39 -140.499s-63.333 -88.5 -112 -132.5s-144 -114.333 -286 -211h363z" />
    <glyph glyph-name="threesuperior" unicode="&#xb3;" horiz-adv-x="614" 
d="M259 522c-74.667 0 -147.332 8.99609 -217.999 26.9961l27 203h65l9 -132c28 -16.667 63.667 -25 107 -25c119.333 0 179 63 179 189c0 76.667 -37 118 -111 124l-68 6l14 83l63 4c88 4.66699 132 62.334 132 173.001c0 32.667 -8 57.834 -24 75.501
s-38.333 26.5 -67 26.5c-34.667 0 -66.667 -9 -96 -27l-47 -119h-62l34 193c72 18 137.667 27 197 27c75.333 0 135.333 -15.667 180 -47s67 -73.666 67 -126.999c0 -123.333 -67.333 -196.666 -202 -219.999c55.333 -7.33301 97.166 -25.5 125.499 -54.5
s42.5 -66.833 42.5 -113.5c0 -79.333 -30.833 -143.5 -92.5 -192.5s-146.5 -73.5 -254.5 -73.5z" />
    <glyph glyph-name="acute" unicode="&#xb4;" horiz-adv-x="682" 
d="M253 1118l6 33l196 272h285l-4 -37l-397 -268h-86z" />
    <glyph glyph-name="mu1" unicode="&#xb5;" horiz-adv-x="1180" 
d="M105 874l13.002 66.001h386l-102 -569c-14.667 -76.667 -22 -128.667 -22 -156c0 -64.667 30.333 -97 91 -97c42.667 0 90.667 23.833 144 71.5s91.666 99.834 114.999 156.501l106 594h266l-148 -849l89 -25l-13 -66h-329l3 175
c-37.333 -54.667 -80.333 -100.834 -129 -138.501s-92.334 -56.5 -131.001 -56.5c-52.667 0 -89.667 16.333 -111 49c-29.333 -166.667 -68 -321.667 -116 -465h-274l8 45c22.667 47.333 46.667 115.166 72 203.499s45.333 173.833 60 256.5l138 781z" />
    <glyph glyph-name="paragraph" unicode="&#xb6;" horiz-adv-x="1024" 
d="M874 1245v-1503h-140v1503h-135v-1503h-140v803c-129.333 4.66699 -232.333 42.834 -309 114.501s-115 169.167 -115 292.5c0 124 37.667 219.833 113 287.5s182.333 101.5 321 101.5h488v-73z" />
    <glyph glyph-name="middot" unicode="&#xb7;" horiz-adv-x="512" 
d="M270 511c-46 0 -85.167 16 -117.5 48s-48.5 71.333 -48.5 118c0 46 16 85.167 48 117.5s71.333 48.5 118 48.5c46 0 85.167 -16 117.5 -48s48.5 -71.333 48.5 -118c0 -46 -16 -85.167 -48 -117.5s-71.333 -48.5 -118 -48.5z" />
    <glyph glyph-name="cedilla" unicode="&#xb8;" horiz-adv-x="682" 
d="M93 -432c-53.333 0 -102.999 9.66699 -148.999 29l37 97c36.667 -12.667 71 -19 103 -19c31.333 0 57.166 8.33301 77.499 25s30.5 39 30.5 67c0 52 -35.333 80.333 -106 85l86 195h91l-43 -110c53.333 -7.33301 94.833 -24.5 124.5 -51.5s44.5 -60.833 44.5 -101.5
c0 -66 -28 -118.5 -84 -157.5s-126.667 -58.5 -212 -58.5z" />
    <glyph glyph-name="onesuperior" unicode="&#xb9;" horiz-adv-x="614" 
d="M406 616l138 -14l-12 -67h-457l12 67l141 14l101 572l-146 -41l11 66l251 134h90z" />
    <glyph glyph-name="ordmasculine" unicode="&#xba;" horiz-adv-x="614" 
d="M364 840c31.333 0 58.833 15.333 82.5 46s42.5 72 56.5 124s21 104.333 21 157c0 82 -28.333 123 -85 123c-45.333 0 -82.5 -33.167 -111.5 -99.5s-43.5 -143.5 -43.5 -231.5c0 -79.333 26.667 -119 80 -119zM351 770c-67.333 0 -121.833 21.167 -163.5 63.5
s-62.5 100.166 -62.5 173.499c0 64.667 14.167 124.5 42.5 179.5s67.833 98 118.5 129s107.667 46.5 171 46.5c67.333 0 121.833 -21.167 163.5 -63.5s62.5 -100.166 62.5 -173.499c0 -100.667 -31.167 -185 -93.5 -253s-141.833 -102 -238.5 -102z" />
    <glyph glyph-name="guillemotright" unicode="&#xbb;" horiz-adv-x="1024" 
d="M508 74h-101l261 389l-124 389h101l257 -356l-12 -66zM98 74h-100l260 389l-123 389h100l257 -356l-12 -66z" />
    <glyph glyph-name="onequarter" unicode="&#xbc;" horiz-adv-x="1536" 
d="M411 0h-123l965 1341h120zM395 616l138 -14l-12 -67h-457l12 67l141 14l101 572l-146 -41l11 66l251 134h90zM1305 157l-28 -159h-161l28 159h-342l18 98l458 552h142l-93 -527h80l-22 -123h-80zM1236 639l-295 -359h225l40 227c8 44.667 18 88.667 30 132z" />
    <glyph glyph-name="onehalf" unicode="&#xbd;" horiz-adv-x="1536" 
d="M364 0h-123l965 1341h120zM376 616l138 -14l-12 -67h-457l12 67l141 14l101 572l-146 -41l11 66l251 134h90zM1392 1h-510l20 114c112 87.333 194.167 157.666 246.5 210.999s91.833 104.666 118.5 153.999s40 98.333 40 147c0 34.667 -7.5 62.834 -22.5 84.501
s-37.5 32.5 -67.5 32.5c-35.333 0 -67 -10.333 -95 -31l-46 -116h-62l33 192c78.667 18 145 27 199 27c78.667 0 139.167 -17 181.5 -51s63.5 -80 63.5 -138c0 -49.333 -13 -96.166 -39 -140.499s-63.333 -88.5 -112 -132.5s-144 -114.333 -286 -211h363z" />
    <glyph glyph-name="threequarters" unicode="&#xbe;" horiz-adv-x="1536" 
d="M441 0h-123l965 1341h120zM317 522c-74.667 0 -147.332 8.99609 -217.999 26.9961l27 203h65l9 -132c28 -16.667 63.667 -25 107 -25c119.333 0 179 63 179 189c0 76.667 -37 118 -111 124l-68 6l14 83l63 4c88 4.66699 132 62.334 132 173.001
c0 32.667 -8 57.834 -24 75.501s-38.333 26.5 -67 26.5c-34.667 0 -66.667 -9 -96 -27l-47 -119h-62l34 193c72 18 137.667 27 197 27c75.333 0 135.333 -15.667 180 -47s67 -73.666 67 -126.999c0 -123.333 -67.333 -196.666 -202 -219.999
c55.333 -7.33301 97.166 -25.5 125.499 -54.5s42.5 -66.833 42.5 -113.5c0 -79.333 -30.833 -143.5 -92.5 -192.5s-146.5 -73.5 -254.5 -73.5zM1321 156.996l-28 -159h-161l28 159h-342l18 98l458 552h142l-93 -527h80l-22 -123h-80zM1252 638.996l-295 -359h225l40 227
c8 44.667 18 88.667 30 132z" />
    <glyph glyph-name="questiondown" unicode="&#xbf;" horiz-adv-x="1024" 
d="M318 -123c0 -135.333 62.999 -203 188.999 -203c25.333 0 51.833 4.5 79.5 13.5s50.167 20.167 67.5 33.5l65 194h89l-40 -295c-105.333 -32 -209.333 -48 -312 -48c-137.333 0 -239.666 26.167 -306.999 78.5s-101 126.5 -101 222.5c0 114 28.333 207.333 85 280
s149 125.667 277 159l91 24l63 202h103l2 -313l-100 -25c-89.333 -22.667 -153.5 -59.167 -192.5 -109.5s-58.5 -121.5 -58.5 -213.5zM647.999 957c46.667 0 85.834 -16 117.501 -48s47.5 -71.333 47.5 -118s-15.833 -86 -47.5 -118s-70.834 -48 -117.501 -48
c-46 0 -85.167 16 -117.5 48s-48.5 71.333 -48.5 118c0 46 16 85.167 48 117.5s71.333 48.5 118 48.5z" />
    <glyph glyph-name="Agrave" unicode="&#xc0;" horiz-adv-x="1366" 
d="M302 73l-14 -73h-394l14 73l103 27l668 1252h240l254 -1252l109 -27l-14 -73h-549l14 73l138 27l-61 347h-472l-184 -347zM689 1118l-295 -561h396zM861 1452l-317 268l7 37h265l137 -273l-6 -32h-86z" />
    <glyph glyph-name="Aacute" unicode="&#xc1;" horiz-adv-x="1366" 
d="M302 73l-14 -73h-394l14 73l103 27l668 1252h240l254 -1252l109 -27l-14 -73h-549l14 73l138 27l-61 347h-472l-184 -347zM689 1118l-295 -561h396zM690 1452l6 33l196 272h285l-4 -37l-397 -268h-86z" />
    <glyph glyph-name="Acircumflex" unicode="&#xc2;" horiz-adv-x="1366" 
d="M302 73l-14 -73h-394l14 73l103 27l668 1252h240l254 -1252l109 -27l-14 -73h-549l14 73l138 27l-61 347h-472l-184 -347zM689 1118l-295 -561h396zM478 1452l6 33l269 293h213l166 -293l-6 -33h-76l-220 162l-276 -162h-76z" />
    <glyph glyph-name="Atilde" unicode="&#xc3;" horiz-adv-x="1366" 
d="M302 73l-14 -73h-394l14 73l103 27l668 1252h240l254 -1252l109 -27l-14 -73h-549l14 73l138 27l-61 347h-472l-184 -347zM689 1118l-295 -561h396zM899 1424c-56.667 0 -117.001 29.333 -181.001 88c-32.667 30 -60 45 -82 45c-25.333 0 -45 -8.66699 -59 -26
s-27.333 -47 -40 -89h-99c44.667 191.333 134.334 287 269.001 287c35.333 0 67 -8 95 -24s57.333 -36.667 88 -62c34.667 -30 61.667 -45 81 -45c24.667 0 44 8.5 58 25.5s27.667 45.833 41 86.5h99c-25.333 -101.333 -60.333 -174.333 -105 -219s-99.667 -67 -165 -67z
" />
    <glyph glyph-name="Adieresis" unicode="&#xc4;" horiz-adv-x="1366" 
d="M302 73l-14 -73h-394l14 73l103 27l668 1252h240l254 -1252l109 -27l-14 -73h-549l14 73l138 27l-61 347h-472l-184 -347zM689 1118l-295 -561h396zM993 1464c-32 0 -60.167 11.833 -84.5 35.5s-36.5 52.167 -36.5 85.5s12.167 61.5 36.5 84.5s52.5 34.5 84.5 34.5
c32.667 0 60.667 -11.333 84 -34s35 -51 35 -85c0 -33.333 -11.667 -61.833 -35 -85.5s-51.333 -35.5 -84 -35.5zM637 1464c-32 0 -60.167 12.333 -84.5 37s-36.5 52.667 -36.5 84c0 32 12 59.833 36 83.5s52.333 35.5 85 35.5s60.667 -11.833 84 -35.5s35 -51.5 35 -83.5
c0 -33.333 -11.667 -61.833 -35 -85.5s-51.333 -35.5 -84 -35.5z" />
    <glyph glyph-name="Aring" unicode="&#xc5;" horiz-adv-x="1366" 
d="M302 73l-14 -73h-394l14 73l103 27l668 1252h240l254 -1252l109 -27l-14 -73h-549l14 73l138 27l-61 347h-472l-184 -347zM689 1118l-295 -561h396zM800 1237c-58 0 -107.667 20.499 -149 61.499s-62 91.5 -62 151.5s20.5 110.167 61.5 150.5s90.833 60.5 149.5 60.5
s108.5 -20.167 149.5 -60.5s61.5 -90.5 61.5 -150.5c0 -59.333 -20.5 -109.666 -61.5 -150.999s-90.833 -62 -149.5 -62zM800 1549c-26 0 -48.833 -9.83301 -68.5 -29.5s-29.5 -42.834 -29.5 -69.501c0 -26 9.83301 -48.833 29.5 -68.5s42.5 -29.5 68.5 -29.5
s48.833 9.83301 68.5 29.5s29.5 42.5 29.5 68.5c0 26.667 -10 49.834 -30 69.501s-42.667 29.5 -68 29.5z" />
    <glyph glyph-name="AE" unicode="&#xc6;" horiz-adv-x="1933" 
d="M828 1252l-141.001 18l12 71h1141l-60 -341h-91l6 217c-72 9.33301 -159 14 -261 14h-200l-87 -492h283l57 148h89l-73 -412h-89l-4 152h-283l-91 -517h245c130.667 0 224.334 5.33301 281.001 16l100 248h91l-84 -374h-1119l12 73l177 27l61 347h-412l-254 -347l149 -27
l-12 -73h-432l12 73l125 27zM819.999 557l112 641l-463 -641h351z" />
    <glyph glyph-name="Ccedilla" unicode="&#xc7;" horiz-adv-x="1366" 
d="M670 -20c-190 0 -337.5 49.167 -442.5 147.5s-157.5 232.833 -157.5 403.5c0 164 34.667 308.5 104 433.5s168.333 221.5 297 289.5s275.667 102 441 102c150.667 0 308.334 -17.333 473.001 -52l-53 -337h-84v194c-36 28.667 -79.5 50.834 -130.5 66.501
s-104.5 23.5 -160.5 23.5c-110 0 -208.833 -30.667 -296.5 -92s-155.834 -147.833 -204.501 -259.5s-73 -237.5 -73 -377.5c0 -138 30.667 -245.667 92 -323s147.666 -116 258.999 -116c65.333 0 131 9.5 197 28.5s119.333 43.167 160 72.5l77 220h85l-66 -340
c-75.333 -24.667 -158.666 -44.834 -249.999 -60.501s-180.333 -23.5 -267 -23.5zM556 -432c-53.333 0 -102.999 9.66699 -148.999 29l37 97c36.667 -12.667 71 -19 103 -19c31.333 0 57.166 8.33301 77.499 25s30.5 39 30.5 67c0 52 -35.333 80.333 -106 85l86 195h91
l-43 -110c53.333 -7.33301 94.833 -24.5 124.5 -51.5s44.5 -60.833 44.5 -101.5c0 -66 -28 -118.5 -84 -157.5s-126.667 -58.5 -212 -58.5z" />
    <glyph glyph-name="Egrave" unicode="&#xc8;" horiz-adv-x="1366" 
d="M375 1242l-167.001 26l13 73h1052l-60 -341h-91l6 217c-72.667 9.33301 -179.667 14 -321 14h-138l-87 -492h281l57 148h89l-73 -412h-89l-4 152h-281l-91 -517h183c168.667 0 281.334 5.33301 338.001 16l103 248h91l-84 -374h-1117l12 73l177 27zM844.999 1452
l-317 268l7 37h265l137 -273l-6 -32h-86z" />
    <glyph glyph-name="Eacute" unicode="&#xc9;" horiz-adv-x="1366" 
d="M375 1242l-167.001 26l13 73h1052l-60 -341h-91l6 217c-72.667 9.33301 -179.667 14 -321 14h-138l-87 -492h281l57 148h89l-73 -412h-89l-4 152h-281l-91 -517h183c168.667 0 281.334 5.33301 338.001 16l103 248h91l-84 -374h-1117l12 73l177 27zM655.999 1452l6 33
l196 272h285l-4 -37l-397 -268h-86z" />
    <glyph glyph-name="Ecircumflex" unicode="&#xca;" horiz-adv-x="1366" 
d="M375 1242l-167.001 26l13 73h1052l-60 -341h-91l6 217c-72.667 9.33301 -179.667 14 -321 14h-138l-87 -492h281l57 148h89l-73 -412h-89l-4 152h-281l-91 -517h183c168.667 0 281.334 5.33301 338.001 16l103 248h91l-84 -374h-1117l12 73l177 27zM505.999 1452l6 33
l269 293h213l166 -293l-6 -33h-76l-220 162l-276 -162h-76z" />
    <glyph glyph-name="Edieresis" unicode="&#xcb;" horiz-adv-x="1366" 
d="M375 1242l-167.001 26l13 73h1052l-60 -341h-91l6 217c-72.667 9.33301 -179.667 14 -321 14h-138l-87 -492h281l57 148h89l-73 -412h-89l-4 152h-281l-91 -517h183c168.667 0 281.334 5.33301 338.001 16l103 248h91l-84 -374h-1117l12 73l177 27zM1002 1464
c-32 0 -60.167 11.833 -84.5 35.5s-36.5 52.167 -36.5 85.5s12.167 61.5 36.5 84.5s52.5 34.5 84.5 34.5c32.667 0 60.667 -11.333 84 -34s35 -51 35 -85c0 -33.333 -11.667 -61.833 -35 -85.5s-51.333 -35.5 -84 -35.5zM645.999 1464c-32 0 -60.167 12.333 -84.5 37
s-36.5 52.667 -36.5 84c0 32 12 59.833 36 83.5s52.333 35.5 85 35.5s60.667 -11.833 84 -35.5s35 -51.5 35 -83.5c0 -33.333 -11.667 -61.833 -35 -85.5s-51.333 -35.5 -84 -35.5z" />
    <glyph glyph-name="Igrave" unicode="&#xcc;" horiz-adv-x="797" 
d="M464 100l167 -26l-13 -74h-638l13 74l176 26l201 1141l-167 27l13 73h639l-13 -73l-177 -27zM625 1452l-317 268l7 37h265l137 -273l-6 -32h-86z" />
    <glyph glyph-name="Iacute" unicode="&#xcd;" horiz-adv-x="797" 
d="M464 100l167 -26l-13 -74h-638l13 74l176 26l201 1141l-167 27l13 73h639l-13 -73l-177 -27zM406 1452l6 33l196 272h285l-4 -37l-397 -268h-86z" />
    <glyph glyph-name="Icircumflex" unicode="&#xce;" horiz-adv-x="797" 
d="M464 100l167 -26l-13 -74h-638l13 74l176 26l201 1141l-167 27l13 73h639l-13 -73l-177 -27zM229 1452l6 33l269 293h213l166 -293l-6 -33h-76l-220 162l-276 -162h-76z" />
    <glyph glyph-name="Idieresis" unicode="&#xcf;" horiz-adv-x="797" 
d="M464 100l167 -26l-13 -74h-638l13 74l176 26l201 1141l-167 27l13 73h639l-13 -73l-177 -27zM757 1464c-32 0 -60.167 11.833 -84.5 35.5s-36.5 52.167 -36.5 85.5s12.167 61.5 36.5 84.5s52.5 34.5 84.5 34.5c32.667 0 60.667 -11.333 84 -34s35 -51 35 -85
c0 -33.333 -11.667 -61.833 -35 -85.5s-51.333 -35.5 -84 -35.5zM401 1464c-32 0 -60.167 12.333 -84.5 37s-36.5 52.667 -36.5 84c0 32 12 59.833 36 83.5s52.333 35.5 85 35.5s60.667 -11.833 84 -35.5s35 -51.5 35 -83.5c0 -33.333 -11.667 -61.833 -35 -85.5
s-51.333 -35.5 -84 -35.5z" />
    <glyph glyph-name="Eth" unicode="&#xd0;" horiz-adv-x="1479" 
d="M1431 788c0 -159.333 -33.833 -299.167 -101.5 -419.5s-164.667 -212.5 -291 -276.5s-272.833 -96 -439.5 -96l-419 4h-195l12 73l177 27l89 509h-172l22 122h172l90 511l-167 26l13 73h521c224.667 0 395.667 -47.833 513 -143.5s176 -232.167 176 -409.5zM1120 773.999
c0 304.667 -138.334 457 -415.001 457h-37l-88 -500h257l-21 -122h-258l-87 -495c56.667 -5.33301 98 -8 124 -8c162.667 0 290.834 59.667 384.501 179s140.5 282.333 140.5 489z" />
    <glyph glyph-name="Ntilde" unicode="&#xd1;" horiz-adv-x="1479" 
d="M1225 1242l-175 26l13 73h477l-13 -73l-177 -26l-218 -1242h-115l-541 1112l-181 -1012l175 -27l-12 -73h-477l12 73l177 27l201 1142l-167 26l13 73h433l435 -894zM1052 1424c-56.667 0 -117.001 29.333 -181.001 88c-32.667 30 -60 45 -82 45
c-25.333 0 -45 -8.66699 -59 -26s-27.333 -47 -40 -89h-99c44.667 191.333 134.334 287 269.001 287c35.333 0 67 -8 95 -24s57.333 -36.667 88 -62c34.667 -30 61.667 -45 81 -45c24.667 0 44 8.5 58 25.5s27.667 45.833 41 86.5h99
c-25.333 -101.333 -60.333 -174.333 -105 -219s-99.667 -67 -165 -67z" />
    <glyph glyph-name="Ograve" unicode="&#xd2;" horiz-adv-x="1479" 
d="M1120 843c0 126.667 -25.333 226.332 -76 298.999s-121.334 109 -212.001 109c-81.333 0 -156.166 -33.333 -224.499 -100s-124.166 -163.167 -167.499 -289.5s-65 -251.833 -65 -376.5c0 -125.333 24.667 -223.666 74 -294.999s118.666 -107 207.999 -107
c83.333 0 159.333 33 228 99s125 161 169 285s66 249.333 66 376zM639 -20.002c-110.667 0 -208.833 22.833 -294.5 68.5s-152.167 110 -199.5 193s-71 177.167 -71 282.5c0 161.333 32.667 305.833 98 433.5s157.166 226 275.499 295s254.5 103.5 408.5 103.5
c110.667 0 208.834 -22.833 294.501 -68.5s152.167 -110 199.5 -193s71 -177.167 71 -282.5c0 -160 -33.5 -305.5 -100.5 -436.5s-158.667 -229.667 -275 -296s-251.833 -99.5 -406.5 -99.5zM927.001 1452l-317 268l7 37h265l137 -273l-6 -32h-86z" />
    <glyph glyph-name="Oacute" unicode="&#xd3;" horiz-adv-x="1479" 
d="M1120 843c0 126.667 -25.333 226.332 -76 298.999s-121.334 109 -212.001 109c-81.333 0 -156.166 -33.333 -224.499 -100s-124.166 -163.167 -167.499 -289.5s-65 -251.833 -65 -376.5c0 -125.333 24.667 -223.666 74 -294.999s118.666 -107 207.999 -107
c83.333 0 159.333 33 228 99s125 161 169 285s66 249.333 66 376zM639 -20.002c-110.667 0 -208.833 22.833 -294.5 68.5s-152.167 110 -199.5 193s-71 177.167 -71 282.5c0 161.333 32.667 305.833 98 433.5s157.166 226 275.499 295s254.5 103.5 408.5 103.5
c110.667 0 208.834 -22.833 294.501 -68.5s152.167 -110 199.5 -193s71 -177.167 71 -282.5c0 -160 -33.5 -305.5 -100.5 -436.5s-158.667 -229.667 -275 -296s-251.833 -99.5 -406.5 -99.5zM744.001 1452l6 33l196 272h285l-4 -37l-397 -268h-86z" />
    <glyph glyph-name="Ocircumflex" unicode="&#xd4;" horiz-adv-x="1479" 
d="M1120 843c0 126.667 -25.333 226.332 -76 298.999s-121.334 109 -212.001 109c-81.333 0 -156.166 -33.333 -224.499 -100s-124.166 -163.167 -167.499 -289.5s-65 -251.833 -65 -376.5c0 -125.333 24.667 -223.666 74 -294.999s118.666 -107 207.999 -107
c83.333 0 159.333 33 228 99s125 161 169 285s66 249.333 66 376zM639 -20.002c-110.667 0 -208.833 22.833 -294.5 68.5s-152.167 110 -199.5 193s-71 177.167 -71 282.5c0 161.333 32.667 305.833 98 433.5s157.166 226 275.499 295s254.5 103.5 408.5 103.5
c110.667 0 208.834 -22.833 294.501 -68.5s152.167 -110 199.5 -193s71 -177.167 71 -282.5c0 -160 -33.5 -305.5 -100.5 -436.5s-158.667 -229.667 -275 -296s-251.833 -99.5 -406.5 -99.5zM571.001 1452l6 33l269 293h213l166 -293l-6 -33h-76l-220 162l-276 -162h-76z
" />
    <glyph glyph-name="Otilde" unicode="&#xd5;" horiz-adv-x="1479" 
d="M1120 843c0 126.667 -25.333 226.332 -76 298.999s-121.334 109 -212.001 109c-81.333 0 -156.166 -33.333 -224.499 -100s-124.166 -163.167 -167.499 -289.5s-65 -251.833 -65 -376.5c0 -125.333 24.667 -223.666 74 -294.999s118.666 -107 207.999 -107
c83.333 0 159.333 33 228 99s125 161 169 285s66 249.333 66 376zM639 -20.002c-110.667 0 -208.833 22.833 -294.5 68.5s-152.167 110 -199.5 193s-71 177.167 -71 282.5c0 161.333 32.667 305.833 98 433.5s157.166 226 275.499 295s254.5 103.5 408.5 103.5
c110.667 0 208.834 -22.833 294.501 -68.5s152.167 -110 199.5 -193s71 -177.167 71 -282.5c0 -160 -33.5 -305.5 -100.5 -436.5s-158.667 -229.667 -275 -296s-251.833 -99.5 -406.5 -99.5zM1016 1424c-56.667 0 -117.001 29.333 -181.001 88c-32.667 30 -60 45 -82 45
c-25.333 0 -45 -8.66699 -59 -26s-27.333 -47 -40 -89h-99c44.667 191.333 134.334 287 269.001 287c35.333 0 67 -8 95 -24s57.333 -36.667 88 -62c34.667 -30 61.667 -45 81 -45c24.667 0 44 8.5 58 25.5s27.667 45.833 41 86.5h99
c-25.333 -101.333 -60.333 -174.333 -105 -219s-99.667 -67 -165 -67z" />
    <glyph glyph-name="Odieresis" unicode="&#xd6;" horiz-adv-x="1479" 
d="M1120 843c0 126.667 -25.333 226.332 -76 298.999s-121.334 109 -212.001 109c-81.333 0 -156.166 -33.333 -224.499 -100s-124.166 -163.167 -167.499 -289.5s-65 -251.833 -65 -376.5c0 -125.333 24.667 -223.666 74 -294.999s118.666 -107 207.999 -107
c83.333 0 159.333 33 228 99s125 161 169 285s66 249.333 66 376zM639 -20.002c-110.667 0 -208.833 22.833 -294.5 68.5s-152.167 110 -199.5 193s-71 177.167 -71 282.5c0 161.333 32.667 305.833 98 433.5s157.166 226 275.499 295s254.5 103.5 408.5 103.5
c110.667 0 208.834 -22.833 294.501 -68.5s152.167 -110 199.5 -193s71 -177.167 71 -282.5c0 -160 -33.5 -305.5 -100.5 -436.5s-158.667 -229.667 -275 -296s-251.833 -99.5 -406.5 -99.5zM1094 1464c-32 0 -60.167 11.833 -84.5 35.5s-36.5 52.167 -36.5 85.5
s12.167 61.5 36.5 84.5s52.5 34.5 84.5 34.5c32.667 0 60.667 -11.333 84 -34s35 -51 35 -85c0 -33.333 -11.667 -61.833 -35 -85.5s-51.333 -35.5 -84 -35.5zM738.001 1464c-32 0 -60.167 12.333 -84.5 37s-36.5 52.667 -36.5 84c0 32 12 59.833 36 83.5
s52.333 35.5 85 35.5s60.667 -11.833 84 -35.5s35 -51.5 35 -83.5c0 -33.333 -11.667 -61.833 -35 -85.5s-51.333 -35.5 -84 -35.5z" />
    <glyph glyph-name="multiply" unicode="&#xd7;" horiz-adv-x="1167" 
d="M606 578l-325 -324l-101 102l324 326l-324 322l104 104l322 -324l326 324l101 -102l-324 -324l324 -326l-101 -102z" />
    <glyph glyph-name="Oslash" unicode="&#xd8;" horiz-adv-x="1479" 
d="M639 -20c-148 0 -272.666 39.998 -373.999 119.998l-155 -155h-149l229 229c-77.333 94.667 -116 211.334 -116 350.001c0 161.333 32.667 305.833 98 433.5s157.166 226 275.499 295s254.5 103.5 408.5 103.5c156 0 285 -44 387 -132l167 167h145l-241 -242
c71.333 -93.333 107 -205.666 107 -336.999c0 -160 -33.5 -305.5 -100.5 -436.5s-158.667 -229.667 -275 -296s-251.833 -99.5 -406.5 -99.5zM375.001 484.998c0 -50 2.66504 -89.333 7.99805 -118l700 698c-48 124 -131.667 186 -251 186
c-81.333 0 -156.166 -33.333 -224.499 -100s-124.166 -163.167 -167.499 -289.5s-65 -251.833 -65 -376.5zM1120 842.998c0 31.333 -2.33203 66.333 -6.99902 105l-697 -697c47.333 -112 127.666 -168 240.999 -168c83.333 0 159.333 33 228 99s125 161 169 285
s66 249.333 66 376z" />
    <glyph glyph-name="Ugrave" unicode="&#xd9;" horiz-adv-x="1479" 
d="M167 1268l13.001 73.001h619l-13 -73l-177 -26l-113 -656c-15.333 -86.667 -23 -152.334 -23 -197.001c0 -178 89 -267 267 -267c107.333 0 195.166 29 263.499 87s112.5 142.667 132.5 254l137 779l-175 26l13 73h456l-13 -73l-157 -26l-135 -771
c-30 -168.667 -92.5 -292.5 -187.5 -371.5s-223.5 -118.5 -385.5 -118.5c-162.667 0 -288.167 36.167 -376.5 108.5s-132.5 175.5 -132.5 309.5c0 42.667 6.66699 104 20 184l114 659zM961.001 1452l-317 268l7 37h265l137 -273l-6 -32h-86z" />
    <glyph glyph-name="Uacute" unicode="&#xda;" horiz-adv-x="1479" 
d="M167 1268l13.001 73.001h619l-13 -73l-177 -26l-113 -656c-15.333 -86.667 -23 -152.334 -23 -197.001c0 -178 89 -267 267 -267c107.333 0 195.166 29 263.499 87s112.5 142.667 132.5 254l137 779l-175 26l13 73h456l-13 -73l-157 -26l-135 -771
c-30 -168.667 -92.5 -292.5 -187.5 -371.5s-223.5 -118.5 -385.5 -118.5c-162.667 0 -288.167 36.167 -376.5 108.5s-132.5 175.5 -132.5 309.5c0 42.667 6.66699 104 20 184l114 659zM797.001 1452l6 33l196 272h285l-4 -37l-397 -268h-86z" />
    <glyph glyph-name="Ucircumflex" unicode="&#xdb;" horiz-adv-x="1479" 
d="M167 1268l13.001 73.001h619l-13 -73l-177 -26l-113 -656c-15.333 -86.667 -23 -152.334 -23 -197.001c0 -178 89 -267 267 -267c107.333 0 195.166 29 263.499 87s112.5 142.667 132.5 254l137 779l-175 26l13 73h456l-13 -73l-157 -26l-135 -771
c-30 -168.667 -92.5 -292.5 -187.5 -371.5s-223.5 -118.5 -385.5 -118.5c-162.667 0 -288.167 36.167 -376.5 108.5s-132.5 175.5 -132.5 309.5c0 42.667 6.66699 104 20 184l114 659zM626.001 1452l6 33l269 293h213l166 -293l-6 -33h-76l-220 162l-276 -162h-76z" />
    <glyph glyph-name="Udieresis" unicode="&#xdc;" horiz-adv-x="1479" 
d="M167 1268l13.001 73.001h619l-13 -73l-177 -26l-113 -656c-15.333 -86.667 -23 -152.334 -23 -197.001c0 -178 89 -267 267 -267c107.333 0 195.166 29 263.499 87s112.5 142.667 132.5 254l137 779l-175 26l13 73h456l-13 -73l-157 -26l-135 -771
c-30 -168.667 -92.5 -292.5 -187.5 -371.5s-223.5 -118.5 -385.5 -118.5c-162.667 0 -288.167 36.167 -376.5 108.5s-132.5 175.5 -132.5 309.5c0 42.667 6.66699 104 20 184l114 659zM1147 1464c-32 0 -60.167 11.833 -84.5 35.5s-36.5 52.167 -36.5 85.5
s12.167 61.5 36.5 84.5s52.5 34.5 84.5 34.5c32.667 0 60.667 -11.333 84 -34s35 -51 35 -85c0 -33.333 -11.667 -61.833 -35 -85.5s-51.333 -35.5 -84 -35.5zM791.001 1464c-32 0 -60.167 12.333 -84.5 37s-36.5 52.667 -36.5 84c0 32 12 59.833 36 83.5
s52.333 35.5 85 35.5s60.667 -11.833 84 -35.5s35 -51.5 35 -83.5c0 -33.333 -11.667 -61.833 -35 -85.5s-51.333 -35.5 -84 -35.5z" />
    <glyph glyph-name="Yacute" unicode="&#xdd;" horiz-adv-x="1251" 
d="M702 100l208 -27l-12 -73h-722l12 73l218 27l79 442l-234 700l-146 26l13 73h636l-13 -73l-185 -26l178 -556l364 556l-159 26l13 73h456l-13 -73l-147 -26l-466 -694zM707 1452l6 33l196 272h285l-4 -37l-397 -268h-86z" />
    <glyph glyph-name="Thorn" unicode="&#xde;" horiz-adv-x="1251" 
d="M564 378c230 0 345 112.333 345 337c0 88 -20.167 153 -60.5 195s-101.5 63 -183.5 63h-42l-105 -595h46zM751 1083c146 0 257.667 -30.333 335 -91s116 -148.667 116 -264c0 -150 -48.5 -264.167 -145.5 -342.5s-234.833 -117.5 -413.5 -117.5h-145l-29 -168l168 -26
l-13 -74h-639l13 74l176 26l201 1141l-167 27l13 73h639l-13 -73l-177 -27l-28 -158h109z" />
    <glyph glyph-name="germandbls" unicode="&#xdf;" horiz-adv-x="1024" 
d="M753 802c0 -31.333 7.66406 -63.165 22.9971 -95.498s39.333 -68.166 72 -107.499c46.667 -56.667 77.834 -103.834 93.501 -141.501s23.5 -78.167 23.5 -121.5c0 -109.333 -34 -196 -102 -260s-163 -96 -285 -96c-53.333 0 -98.666 4.5 -135.999 13.5
s-64.666 18.167 -81.999 27.5l35 223h66l17 -134c28 -24.667 60.333 -37 97 -37c43.333 0 77.833 15.833 103.5 47.5s38.5 75.5 38.5 131.5c0 29.333 -4.16699 56.5 -12.5 81.5s-20 49.833 -35 74.5s-44.5 62.667 -88.5 114c-47.333 56.667 -71 123 -71 199
c0 74 20.167 139.667 60.5 197s93.833 95.666 160.5 114.999c8 60.667 12 108.334 12 143.001c0 55.333 -8.16699 96.666 -24.5 123.999s-42.5 41 -78.5 41c-48 0 -86.5 -28.333 -115.5 -85s-56.167 -158 -81.5 -304l-167 -952h-351l11 66l86 24l152 862
c30 170.667 84.667 295 164 373s188 117 326 117c116.667 0 202 -27.333 256 -82s81 -135.667 81 -243c0 -35.333 -3.66699 -79.333 -11 -132c-78 0 -137 -15.833 -177 -47.5s-60 -76.834 -60 -135.501z" />
    <glyph glyph-name="agrave" unicode="&#xe0;" horiz-adv-x="1024" 
d="M823 90l108.999 -32.002l-8 -58h-347l-4 138c-39.333 -49.333 -83.833 -88.166 -133.5 -116.499s-100.167 -42.5 -151.5 -42.5c-83.333 0 -148.166 30 -194.499 90s-69.5 143.333 -69.5 250c0 116.667 24.333 224.834 73 324.501s116.5 178 203.5 235
s182.833 85.5 287.5 85.5c92 0 175.667 -15 251 -45l82 37h54zM286.999 350.998c0 -68.667 11.499 -123.167 34.499 -163.5s51.833 -60.5 86.5 -60.5c26.667 0 56.334 13.333 89.001 40s62 59.667 88 99l99 563c-30 22.667 -71.333 34 -124 34
c-49.333 0 -95 -23.5 -137 -70.5s-75.167 -110.667 -99.5 -191s-36.5 -163.833 -36.5 -250.5zM713.998 1118l-317 268l7 37h265l137 -273l-6 -32h-86z" />
    <glyph glyph-name="aacute" unicode="&#xe1;" horiz-adv-x="1024" 
d="M823 90l108.999 -32.002l-8 -58h-347l-4 138c-39.333 -49.333 -83.833 -88.166 -133.5 -116.499s-100.167 -42.5 -151.5 -42.5c-83.333 0 -148.166 30 -194.499 90s-69.5 143.333 -69.5 250c0 116.667 24.333 224.834 73 324.501s116.5 178 203.5 235
s182.833 85.5 287.5 85.5c92 0 175.667 -15 251 -45l82 37h54zM286.999 350.998c0 -68.667 11.499 -123.167 34.499 -163.5s51.833 -60.5 86.5 -60.5c26.667 0 56.334 13.333 89.001 40s62 59.667 88 99l99 563c-30 22.667 -71.333 34 -124 34
c-49.333 0 -95 -23.5 -137 -70.5s-75.167 -110.667 -99.5 -191s-36.5 -163.833 -36.5 -250.5zM542.998 1118l6 33l196 272h285l-4 -37l-397 -268h-86z" />
    <glyph glyph-name="acircumflex" unicode="&#xe2;" horiz-adv-x="1024" 
d="M823 90l108.999 -32.002l-8 -58h-347l-4 138c-39.333 -49.333 -83.833 -88.166 -133.5 -116.499s-100.167 -42.5 -151.5 -42.5c-83.333 0 -148.166 30 -194.499 90s-69.5 143.333 -69.5 250c0 116.667 24.333 224.834 73 324.501s116.5 178 203.5 235
s182.833 85.5 287.5 85.5c92 0 175.667 -15 251 -45l82 37h54zM286.999 350.998c0 -68.667 11.499 -123.167 34.499 -163.5s51.833 -60.5 86.5 -60.5c26.667 0 56.334 13.333 89.001 40s62 59.667 88 99l99 563c-30 22.667 -71.333 34 -124 34
c-49.333 0 -95 -23.5 -137 -70.5s-75.167 -110.667 -99.5 -191s-36.5 -163.833 -36.5 -250.5zM304.998 1118l6 33l269 293h213l166 -293l-6 -33h-76l-220 162l-276 -162h-76z" />
    <glyph glyph-name="atilde" unicode="&#xe3;" horiz-adv-x="1024" 
d="M823 90l108.999 -32.002l-8 -58h-347l-4 138c-39.333 -49.333 -83.833 -88.166 -133.5 -116.499s-100.167 -42.5 -151.5 -42.5c-83.333 0 -148.166 30 -194.499 90s-69.5 143.333 -69.5 250c0 116.667 24.333 224.834 73 324.501s116.5 178 203.5 235
s182.833 85.5 287.5 85.5c92 0 175.667 -15 251 -45l82 37h54zM286.999 350.998c0 -68.667 11.499 -123.167 34.499 -163.5s51.833 -60.5 86.5 -60.5c26.667 0 56.334 13.333 89.001 40s62 59.667 88 99l99 563c-30 22.667 -71.333 34 -124 34
c-49.333 0 -95 -23.5 -137 -70.5s-75.167 -110.667 -99.5 -191s-36.5 -163.833 -36.5 -250.5zM716.998 1090c-56.667 0 -117.001 29.333 -181.001 88c-32.667 30 -60 45 -82 45c-25.333 0 -45 -8.66699 -59 -26s-27.333 -47 -40 -89h-99
c44.667 191.333 134.334 287 269.001 287c35.333 0 67 -8 95 -24s57.333 -36.667 88 -62c34.667 -30 61.667 -45 81 -45c24.667 0 44 8.5 58 25.5s27.667 45.833 41 86.5h99c-25.333 -101.333 -60.333 -174.333 -105 -219s-99.667 -67 -165 -67z" />
    <glyph glyph-name="adieresis" unicode="&#xe4;" horiz-adv-x="1024" 
d="M823 90l108.999 -32.002l-8 -58h-347l-4 138c-39.333 -49.333 -83.833 -88.166 -133.5 -116.499s-100.167 -42.5 -151.5 -42.5c-83.333 0 -148.166 30 -194.499 90s-69.5 143.333 -69.5 250c0 116.667 24.333 224.834 73 324.501s116.5 178 203.5 235
s182.833 85.5 287.5 85.5c92 0 175.667 -15 251 -45l82 37h54zM286.999 350.998c0 -68.667 11.499 -123.167 34.499 -163.5s51.833 -60.5 86.5 -60.5c26.667 0 56.334 13.333 89.001 40s62 59.667 88 99l99 563c-30 22.667 -71.333 34 -124 34
c-49.333 0 -95 -23.5 -137 -70.5s-75.167 -110.667 -99.5 -191s-36.5 -163.833 -36.5 -250.5zM808.998 1130c-32 0 -60.167 11.833 -84.5 35.5s-36.5 52.167 -36.5 85.5s12.167 61.5 36.5 84.5s52.5 34.5 84.5 34.5c32.667 0 60.667 -11.333 84 -34s35 -51 35 -85
c0 -33.333 -11.667 -61.833 -35 -85.5s-51.333 -35.5 -84 -35.5zM452.998 1130c-32 0 -60.167 12.333 -84.5 37s-36.5 52.667 -36.5 84c0 32 12 59.833 36 83.5s52.333 35.5 85 35.5s60.667 -11.833 84 -35.5s35 -51.5 35 -83.5c0 -33.333 -11.667 -61.833 -35 -85.5
s-51.333 -35.5 -84 -35.5z" />
    <glyph glyph-name="aring" unicode="&#xe5;" horiz-adv-x="1024" 
d="M823 90l108.999 -32.002l-8 -58h-347l-4 138c-39.333 -49.333 -83.833 -88.166 -133.5 -116.499s-100.167 -42.5 -151.5 -42.5c-83.333 0 -148.166 30 -194.499 90s-69.5 143.333 -69.5 250c0 116.667 24.333 224.834 73 324.501s116.5 178 203.5 235
s182.833 85.5 287.5 85.5c92 0 175.667 -15 251 -45l82 37h54zM286.999 350.998c0 -68.667 11.499 -123.167 34.499 -163.5s51.833 -60.5 86.5 -60.5c26.667 0 56.334 13.333 89.001 40s62 59.667 88 99l99 563c-30 22.667 -71.333 34 -124 34
c-49.333 0 -95 -23.5 -137 -70.5s-75.167 -110.667 -99.5 -191s-36.5 -163.833 -36.5 -250.5zM636.998 1059c-58 0 -107.667 20.499 -149 61.499s-62 91.5 -62 151.5s20.5 110.167 61.5 150.5s90.833 60.5 149.5 60.5s108.5 -20.167 149.5 -60.5s61.5 -90.5 61.5 -150.5
c0 -59.333 -20.5 -109.666 -61.5 -150.999s-90.833 -62 -149.5 -62zM636.998 1371c-26 0 -48.833 -9.83301 -68.5 -29.5s-29.5 -42.834 -29.5 -69.501c0 -26 9.83301 -48.833 29.5 -68.5s42.5 -29.5 68.5 -29.5s48.833 9.83301 68.5 29.5s29.5 42.5 29.5 68.5
c0 26.667 -10 49.834 -30 69.501s-42.667 29.5 -68 29.5z" />
    <glyph glyph-name="ae" unicode="&#xe6;" horiz-adv-x="1479" 
d="M901 508c55.333 6 106.166 22.166 152.499 48.499s82.333 58.833 108 97.5s38.5 78.334 38.5 119.001c0 28 -8.16699 49 -24.5 63s-33.833 21 -52.5 21c-47.333 0 -92.666 -35 -135.999 -105s-72 -151.333 -86 -244zM887 894.999c34 22.667 73.502 40 118.502 52
s88.167 18 129.5 18c93.333 0 166.5 -18.667 219.5 -56s79.5 -87 79.5 -149c0 -59.333 -22.333 -114.333 -67 -165s-108.834 -92.334 -192.501 -125.001s-179.5 -53.334 -287.5 -62.001c-3.33301 -13.333 -5 -36 -5 -68c0 -75.333 16.5 -133.5 49.5 -174.5
s80.167 -61.5 141.5 -61.5c34 0 68.167 5.83301 102.5 17.5s81.166 37.167 140.499 76.5l44 -63c-58 -48.667 -121.333 -86.667 -190 -114s-135 -41 -199 -41c-170 0 -279 59.333 -327 178c-52 -61.333 -105 -106.5 -159 -135.5s-112.333 -43.5 -175 -43.5
c-85.333 0 -154 30.5 -206 91.5s-78 143.833 -78 248.5c0 114.667 25.5 221.834 76.5 321.501s121.667 178.5 212 236.5s188.833 87 295.5 87c37.333 0 81.833 -6.16699 133.5 -18.5s99.5 -29.166 143.5 -50.499zM623.002 263.999l-3 66c0 83.333 14 165.333 42 246
s66.333 151.334 115 212.001c-34.667 25.333 -69.667 44.166 -105 56.499s-65.333 18.5 -90 18.5c-50 0 -97.5 -23.833 -142.5 -71.5s-81.333 -112 -109 -193s-41.5 -163.5 -41.5 -247.5c0 -71.333 11.667 -126.5 35 -165.5s56 -58.5 98 -58.5
c29.333 0 64.5 14.333 105.5 43s72.833 60 95.5 94z" />
    <glyph glyph-name="ccedilla" unicode="&#xe7;" horiz-adv-x="909" 
d="M391 -20c-114.667 0 -203.499 31 -266.499 93s-94.5 147.667 -94.5 257c0 123.333 24.5 233.333 73.5 330s116.5 171.667 202.5 225s179 80 279 80c48 0 100.167 -4.5 156.5 -13.5s102.166 -19.5 137.499 -31.5l-49 -288h-72l-14 171c-36 40 -84.667 60 -146 60
c-52.667 0 -102.5 -23.5 -149.5 -70.5s-83.833 -110.667 -110.5 -191s-40 -167.5 -40 -261.5c0 -74.667 14.667 -132.667 44 -174s72.333 -62 129 -62c50 0 95.5 9 136.5 27s80.5 40.333 118.5 67l44 -63c-54.667 -48.667 -115.5 -86.667 -182.5 -114s-132.5 -41 -196.5 -41
zM237.001 -432c-53.333 0 -102.999 9.66699 -148.999 29l37 97c36.667 -12.667 71 -19 103 -19c31.333 0 57.166 8.33301 77.499 25s30.5 39 30.5 67c0 52 -35.333 80.333 -106 85l86 195h91l-43 -110c53.333 -7.33301 94.833 -24.5 124.5 -51.5s44.5 -60.833 44.5 -101.5
c0 -66 -28 -118.5 -84 -157.5s-126.667 -58.5 -212 -58.5z" />
    <glyph glyph-name="egrave" unicode="&#xe8;" horiz-adv-x="909" 
d="M864 760c0 -60 -21.999 -115.332 -65.999 -165.999s-107.5 -92.334 -190.5 -125.001s-177.167 -53 -282.5 -61c-3.33301 -13.333 -5 -36 -5 -68c0 -157.333 60.333 -236 181 -236c49.333 0 95 9.5 137 28.5s81.333 40.833 118 65.5l44 -63
c-58.667 -49.333 -122.334 -87.5 -191.001 -114.5s-134.667 -40.5 -198 -40.5c-118 0 -208 29.667 -270 89s-93 146.333 -93 261s24.333 221 73 319s113 175.167 193 231.5s163 84.5 249 84.5c92 0 165.167 -18.5 219.5 -55.5s81.5 -86.833 81.5 -149.5zM341.001 508.001
c81.333 8.66699 148.169 38.168 200.502 88.501s78.5 109.166 78.5 176.499c0 28 -6.83301 49 -20.5 63s-29.834 21 -48.501 21c-46 0 -88.833 -34 -128.5 -102s-66.834 -150.333 -81.501 -247zM647.004 1118l-317 268l7 37h265l137 -273l-6 -32h-86z" />
    <glyph glyph-name="eacute" unicode="&#xe9;" horiz-adv-x="909" 
d="M864 760c0 -60 -21.999 -115.332 -65.999 -165.999s-107.5 -92.334 -190.5 -125.001s-177.167 -53 -282.5 -61c-3.33301 -13.333 -5 -36 -5 -68c0 -157.333 60.333 -236 181 -236c49.333 0 95 9.5 137 28.5s81.333 40.833 118 65.5l44 -63
c-58.667 -49.333 -122.334 -87.5 -191.001 -114.5s-134.667 -40.5 -198 -40.5c-118 0 -208 29.667 -270 89s-93 146.333 -93 261s24.333 221 73 319s113 175.167 193 231.5s163 84.5 249 84.5c92 0 165.167 -18.5 219.5 -55.5s81.5 -86.833 81.5 -149.5zM341.001 508.001
c81.333 8.66699 148.169 38.168 200.502 88.501s78.5 109.166 78.5 176.499c0 28 -6.83301 49 -20.5 63s-29.834 21 -48.501 21c-46 0 -88.833 -34 -128.5 -102s-66.834 -150.333 -81.501 -247zM479.004 1118l6 33l196 272h285l-4 -37l-397 -268h-86z" />
    <glyph glyph-name="ecircumflex" unicode="&#xea;" horiz-adv-x="909" 
d="M864 760c0 -60 -21.999 -115.332 -65.999 -165.999s-107.5 -92.334 -190.5 -125.001s-177.167 -53 -282.5 -61c-3.33301 -13.333 -5 -36 -5 -68c0 -157.333 60.333 -236 181 -236c49.333 0 95 9.5 137 28.5s81.333 40.833 118 65.5l44 -63
c-58.667 -49.333 -122.334 -87.5 -191.001 -114.5s-134.667 -40.5 -198 -40.5c-118 0 -208 29.667 -270 89s-93 146.333 -93 261s24.333 221 73 319s113 175.167 193 231.5s163 84.5 249 84.5c92 0 165.167 -18.5 219.5 -55.5s81.5 -86.833 81.5 -149.5zM341.001 508.001
c81.333 8.66699 148.169 38.168 200.502 88.501s78.5 109.166 78.5 176.499c0 28 -6.83301 49 -20.5 63s-29.834 21 -48.501 21c-46 0 -88.833 -34 -128.5 -102s-66.834 -150.333 -81.501 -247zM259.004 1118l6 33l269 293h213l166 -293l-6 -33h-76l-220 162l-276 -162h-76z
" />
    <glyph glyph-name="edieresis" unicode="&#xeb;" horiz-adv-x="909" 
d="M864 760c0 -60 -21.999 -115.332 -65.999 -165.999s-107.5 -92.334 -190.5 -125.001s-177.167 -53 -282.5 -61c-3.33301 -13.333 -5 -36 -5 -68c0 -157.333 60.333 -236 181 -236c49.333 0 95 9.5 137 28.5s81.333 40.833 118 65.5l44 -63
c-58.667 -49.333 -122.334 -87.5 -191.001 -114.5s-134.667 -40.5 -198 -40.5c-118 0 -208 29.667 -270 89s-93 146.333 -93 261s24.333 221 73 319s113 175.167 193 231.5s163 84.5 249 84.5c92 0 165.167 -18.5 219.5 -55.5s81.5 -86.833 81.5 -149.5zM341.001 508.001
c81.333 8.66699 148.169 38.168 200.502 88.501s78.5 109.166 78.5 176.499c0 28 -6.83301 49 -20.5 63s-29.834 21 -48.501 21c-46 0 -88.833 -34 -128.5 -102s-66.834 -150.333 -81.501 -247zM758.004 1130c-32 0 -60.167 11.833 -84.5 35.5s-36.5 52.167 -36.5 85.5
s12.167 61.5 36.5 84.5s52.5 34.5 84.5 34.5c32.667 0 60.667 -11.333 84 -34s35 -51 35 -85c0 -33.333 -11.667 -61.833 -35 -85.5s-51.333 -35.5 -84 -35.5zM402.004 1130c-32 0 -60.167 12.333 -84.5 37s-36.5 52.667 -36.5 84c0 32 12 59.833 36 83.5
s52.333 35.5 85 35.5s60.667 -11.833 84 -35.5s35 -51.5 35 -83.5c0 -33.333 -11.667 -61.833 -35 -85.5s-51.333 -35.5 -84 -35.5z" />
    <glyph glyph-name="igrave" unicode="&#xec;" horiz-adv-x="569" 
d="M332 90l119 -24l-11 -66h-393l150 850l-91 24l11 66h365zM418 1118l-317 268l7 37h265l137 -273l-6 -32h-86z" />
    <glyph glyph-name="iacute" unicode="&#xed;" horiz-adv-x="569" 
d="M332 90l119 -24l-11 -66h-393l150 850l-91 24l11 66h365zM221 1118l6 33l196 272h285l-4 -37l-397 -268h-86z" />
    <glyph glyph-name="icircumflex" unicode="&#xee;" horiz-adv-x="569" 
d="M332 90l119 -24l-11 -66h-393l150 850l-91 24l11 66h365zM24 1118l6 33l269 293h213l166 -293l-6 -33h-76l-220 162l-276 -162h-76z" />
    <glyph glyph-name="idieresis" unicode="&#xef;" horiz-adv-x="569" 
d="M332 90l119 -24l-11 -66h-393l150 850l-91 24l11 66h365zM555 1130c-32 0 -60.167 11.833 -84.5 35.5s-36.5 52.167 -36.5 85.5s12.167 61.5 36.5 84.5s52.5 34.5 84.5 34.5c32.667 0 60.667 -11.333 84 -34s35 -51 35 -85c0 -33.333 -11.667 -61.833 -35 -85.5
s-51.333 -35.5 -84 -35.5zM199 1130c-32 0 -60.167 12.333 -84.5 37s-36.5 52.667 -36.5 84c0 32 12 59.833 36 83.5s52.333 35.5 85 35.5s60.667 -11.833 84 -35.5s35 -51.5 35 -83.5c0 -33.333 -11.667 -61.833 -35 -85.5s-51.333 -35.5 -84 -35.5z" />
    <glyph glyph-name="eth" unicode="&#xf0;" horiz-adv-x="1024" 
d="M524 1217c-52 44 -107.668 76 -167.001 96l19 108c101.333 -24 197 -66.333 287 -127l314 165l-22 -124l-211 -111c141.333 -135.333 212 -314.333 212 -537c0 -136 -23.167 -258.5 -69.5 -367.5s-110.5 -192.833 -192.5 -251.5s-176.667 -88 -284 -88
c-111.333 0 -201.666 34.333 -270.999 103s-104 158.667 -104 270c0 110 22 206.667 66 290s106.833 147.5 188.5 192.5s175.5 67.5 281.5 67.5c40 0 79 -4.33301 117 -13c-6 91.333 -38 174.333 -96 249l-281 -148l22 126zM300.999 283
c0 -68 11.999 -119.001 35.999 -153.001s55.667 -51 95 -51c43.333 0 84.833 25 124.5 75s71.167 116.5 94.5 199.5s35 170.833 35 263.5c0 60.667 -10.833 107 -32.5 139s-53.5 48 -95.5 48c-41.333 0 -82.166 -24.667 -122.499 -74s-72.833 -114.166 -97.5 -194.499
s-37 -164.5 -37 -252.5z" />
    <glyph glyph-name="ntilde" unicode="&#xf1;" horiz-adv-x="1139" 
d="M764 725c0 64.667 -30.333 97.001 -91 97.001c-42 0 -89.333 -23.333 -142 -70s-91.667 -99.334 -117 -158.001l-106 -594h-266l148 849l-89 25l13 66h334l-8 -175c103.333 133.333 230 200 380 200c66 0 118.333 -17.667 157 -53s58 -85 58 -149
c0 -34.667 -8.33301 -95.667 -25 -183l-87 -490l116 -24l-13 -66h-386l102 569c14.667 77.333 22 129.333 22 156zM775 1090c-56.667 0 -117.001 29.333 -181.001 88c-32.667 30 -60 45 -82 45c-25.333 0 -45 -8.66699 -59 -26s-27.333 -47 -40 -89h-99
c44.667 191.333 134.334 287 269.001 287c35.333 0 67 -8 95 -24s57.333 -36.667 88 -62c34.667 -30 61.667 -45 81 -45c24.667 0 44 8.5 58 25.5s27.667 45.833 41 86.5h99c-25.333 -101.333 -60.333 -174.333 -105 -219s-99.667 -67 -165 -67z" />
    <glyph glyph-name="ograve" unicode="&#xf2;" horiz-adv-x="1024" 
d="M683 625c0 160.667 -41.668 241.001 -125.001 241.001c-42 0 -83.5 -25.333 -124.5 -76s-74 -118.667 -99 -204s-37.5 -174.333 -37.5 -267c0 -76.667 12.333 -135.834 37 -177.501s56.334 -62.5 95.001 -62.5c42.667 0 84 24.667 124 74s71.667 116 95 200
s35 174.667 35 272zM405.999 -19.999c-113.333 0 -204 35.667 -272 107s-102 167 -102 287c0 108 23.333 207.333 70 298s111.834 162.167 195.501 214.5s177.834 78.5 282.501 78.5c113.333 0 204 -35.667 272 -107s102 -167 102 -287c0 -108 -23.333 -207.333 -70 -298
s-111.834 -162.167 -195.501 -214.5s-177.834 -78.5 -282.501 -78.5zM653.999 1118l-317 268l7 37h265l137 -273l-6 -32h-86z" />
    <glyph glyph-name="oacute" unicode="&#xf3;" horiz-adv-x="1024" 
d="M683 625c0 160.667 -41.668 241.001 -125.001 241.001c-42 0 -83.5 -25.333 -124.5 -76s-74 -118.667 -99 -204s-37.5 -174.333 -37.5 -267c0 -76.667 12.333 -135.834 37 -177.501s56.334 -62.5 95.001 -62.5c42.667 0 84 24.667 124 74s71.667 116 95 200
s35 174.667 35 272zM405.999 -19.999c-113.333 0 -204 35.667 -272 107s-102 167 -102 287c0 108 23.333 207.333 70 298s111.834 162.167 195.501 214.5s177.834 78.5 282.501 78.5c113.333 0 204 -35.667 272 -107s102 -167 102 -287c0 -108 -23.333 -207.333 -70 -298
s-111.834 -162.167 -195.501 -214.5s-177.834 -78.5 -282.501 -78.5zM468.999 1118l6 33l196 272h285l-4 -37l-397 -268h-86z" />
    <glyph glyph-name="ocircumflex" unicode="&#xf4;" horiz-adv-x="1024" 
d="M683 625c0 160.667 -41.668 241.001 -125.001 241.001c-42 0 -83.5 -25.333 -124.5 -76s-74 -118.667 -99 -204s-37.5 -174.333 -37.5 -267c0 -76.667 12.333 -135.834 37 -177.501s56.334 -62.5 95.001 -62.5c42.667 0 84 24.667 124 74s71.667 116 95 200
s35 174.667 35 272zM405.999 -19.999c-113.333 0 -204 35.667 -272 107s-102 167 -102 287c0 108 23.333 207.333 70 298s111.834 162.167 195.501 214.5s177.834 78.5 282.501 78.5c113.333 0 204 -35.667 272 -107s102 -167 102 -287c0 -108 -23.333 -207.333 -70 -298
s-111.834 -162.167 -195.501 -214.5s-177.834 -78.5 -282.501 -78.5zM280.999 1118l6 33l269 293h213l166 -293l-6 -33h-76l-220 162l-276 -162h-76z" />
    <glyph glyph-name="otilde" unicode="&#xf5;" horiz-adv-x="1024" 
d="M683 625c0 160.667 -41.668 241.001 -125.001 241.001c-42 0 -83.5 -25.333 -124.5 -76s-74 -118.667 -99 -204s-37.5 -174.333 -37.5 -267c0 -76.667 12.333 -135.834 37 -177.501s56.334 -62.5 95.001 -62.5c42.667 0 84 24.667 124 74s71.667 116 95 200
s35 174.667 35 272zM405.999 -19.999c-113.333 0 -204 35.667 -272 107s-102 167 -102 287c0 108 23.333 207.333 70 298s111.834 162.167 195.501 214.5s177.834 78.5 282.501 78.5c113.333 0 204 -35.667 272 -107s102 -167 102 -287c0 -108 -23.333 -207.333 -70 -298
s-111.834 -162.167 -195.501 -214.5s-177.834 -78.5 -282.501 -78.5zM716.999 1090c-56.667 0 -117.001 29.333 -181.001 88c-32.667 30 -60 45 -82 45c-25.333 0 -45 -8.66699 -59 -26s-27.333 -47 -40 -89h-99c44.667 191.333 134.334 287 269.001 287
c35.333 0 67 -8 95 -24s57.333 -36.667 88 -62c34.667 -30 61.667 -45 81 -45c24.667 0 44 8.5 58 25.5s27.667 45.833 41 86.5h99c-25.333 -101.333 -60.333 -174.333 -105 -219s-99.667 -67 -165 -67z" />
    <glyph glyph-name="odieresis" unicode="&#xf6;" horiz-adv-x="1024" 
d="M683 625c0 160.667 -41.668 241.001 -125.001 241.001c-42 0 -83.5 -25.333 -124.5 -76s-74 -118.667 -99 -204s-37.5 -174.333 -37.5 -267c0 -76.667 12.333 -135.834 37 -177.501s56.334 -62.5 95.001 -62.5c42.667 0 84 24.667 124 74s71.667 116 95 200
s35 174.667 35 272zM405.999 -19.999c-113.333 0 -204 35.667 -272 107s-102 167 -102 287c0 108 23.333 207.333 70 298s111.834 162.167 195.501 214.5s177.834 78.5 282.501 78.5c113.333 0 204 -35.667 272 -107s102 -167 102 -287c0 -108 -23.333 -207.333 -70 -298
s-111.834 -162.167 -195.501 -214.5s-177.834 -78.5 -282.501 -78.5zM800.999 1130c-32 0 -60.167 11.833 -84.5 35.5s-36.5 52.167 -36.5 85.5s12.167 61.5 36.5 84.5s52.5 34.5 84.5 34.5c32.667 0 60.667 -11.333 84 -34s35 -51 35 -85
c0 -33.333 -11.667 -61.833 -35 -85.5s-51.333 -35.5 -84 -35.5zM444.999 1130c-32 0 -60.167 12.333 -84.5 37s-36.5 52.667 -36.5 84c0 32 12 59.833 36 83.5s52.333 35.5 85 35.5s60.667 -11.833 84 -35.5s35 -51.5 35 -83.5c0 -33.333 -11.667 -61.833 -35 -85.5
s-51.333 -35.5 -84 -35.5z" />
    <glyph glyph-name="divide" unicode="&#xf7;" horiz-adv-x="1124" 
d="M1052 751v-143h-952v143h952zM575 183c-37.333 0 -69 13 -95 39s-39 57.667 -39 95s13 69 39 95s57.667 39 95 39s69 -13 95 -39s39 -57.667 39 -95s-13 -69 -39 -95s-57.667 -39 -95 -39zM575 909c-37.333 0 -69 13 -95 39s-39 57.667 -39 95s13 69 39 95
s57.667 39 95 39s69 -13 95 -39s39 -57.667 39 -95s-13 -69 -39 -95s-57.667 -39 -95 -39z" />
    <glyph glyph-name="oslash" unicode="&#xf8;" horiz-adv-x="1024" 
d="M406 -20c-85.333 0 -158.334 20.333 -219.001 61l-107 -125h-127l164 190c-56.667 70.667 -85 160 -85 268s23.333 207.333 70 298s111.834 162.167 195.501 214.5s177.834 78.5 282.501 78.5c86.667 0 160.334 -21.333 221.001 -64l104 121h124l-159 -185
c56 -71.333 84 -160 84 -266c0 -108 -23.333 -207.333 -70 -298s-111.834 -162.167 -195.501 -214.5s-177.834 -78.5 -282.501 -78.5zM296.999 315l372.999 434c-19.333 78 -56.666 117 -111.999 117c-42 0 -83.5 -25.333 -124.5 -76s-74 -118.667 -99 -204
s-37.5 -174.333 -37.5 -267v-4zM428.998 79c42 0 83.001 24.333 123.001 73s71.667 114.167 95 196.5s35.333 172.5 36 270.5l-369 -430c23.333 -73.333 61.666 -110 114.999 -110z" />
    <glyph glyph-name="ugrave" unicode="&#xf9;" horiz-adv-x="1139" 
d="M350 216c0 -64.667 30.334 -97.002 91.001 -97.002c42.667 0 90.667 23.833 144 71.5s91.666 99.834 114.999 156.501l106 593h266l-148 -849l109 -25l-13 -66h-354l8 176c-103.333 -133.333 -230 -200 -380 -200c-67.333 0 -120 18.167 -158 54.5s-57 88.5 -57 156.5
c0 12.667 2.16699 34.334 6.5 65.001s39.5 230 105.5 598l-116 24l13 66h386l-102 -568c-14.667 -76.667 -22 -128.667 -22 -156zM738.001 1118l-317 268l7 37h265l137 -273l-6 -32h-86z" />
    <glyph glyph-name="uacute" unicode="&#xfa;" horiz-adv-x="1139" 
d="M350 216c0 -64.667 30.334 -97.002 91.001 -97.002c42.667 0 90.667 23.833 144 71.5s91.666 99.834 114.999 156.501l106 593h266l-148 -849l109 -25l-13 -66h-354l8 176c-103.333 -133.333 -230 -200 -380 -200c-67.333 0 -120 18.167 -158 54.5s-57 88.5 -57 156.5
c0 12.667 2.16699 34.334 6.5 65.001s39.5 230 105.5 598l-116 24l13 66h386l-102 -568c-14.667 -76.667 -22 -128.667 -22 -156zM503.001 1118l6 33l196 272h285l-4 -37l-397 -268h-86z" />
    <glyph glyph-name="ucircumflex" unicode="&#xfb;" horiz-adv-x="1139" 
d="M350 216c0 -64.667 30.334 -97.002 91.001 -97.002c42.667 0 90.667 23.833 144 71.5s91.666 99.834 114.999 156.501l106 593h266l-148 -849l109 -25l-13 -66h-354l8 176c-103.333 -133.333 -230 -200 -380 -200c-67.333 0 -120 18.167 -158 54.5s-57 88.5 -57 156.5
c0 12.667 2.16699 34.334 6.5 65.001s39.5 230 105.5 598l-116 24l13 66h386l-102 -568c-14.667 -76.667 -22 -128.667 -22 -156zM339.001 1118l6 33l269 293h213l166 -293l-6 -33h-76l-220 162l-276 -162h-76z" />
    <glyph glyph-name="udieresis" unicode="&#xfc;" horiz-adv-x="1139" 
d="M350 216c0 -64.667 30.334 -97.002 91.001 -97.002c42.667 0 90.667 23.833 144 71.5s91.666 99.834 114.999 156.501l106 593h266l-148 -849l109 -25l-13 -66h-354l8 176c-103.333 -133.333 -230 -200 -380 -200c-67.333 0 -120 18.167 -158 54.5s-57 88.5 -57 156.5
c0 12.667 2.16699 34.334 6.5 65.001s39.5 230 105.5 598l-116 24l13 66h386l-102 -568c-14.667 -76.667 -22 -128.667 -22 -156zM849.001 1130c-32 0 -60.167 11.833 -84.5 35.5s-36.5 52.167 -36.5 85.5s12.167 61.5 36.5 84.5s52.5 34.5 84.5 34.5
c32.667 0 60.667 -11.333 84 -34s35 -51 35 -85c0 -33.333 -11.667 -61.833 -35 -85.5s-51.333 -35.5 -84 -35.5zM493.001 1130c-32 0 -60.167 12.333 -84.5 37s-36.5 52.667 -36.5 84c0 32 12 59.833 36 83.5s52.333 35.5 85 35.5s60.667 -11.833 84 -35.5
s35 -51.5 35 -83.5c0 -33.333 -11.667 -61.833 -35 -85.5s-51.333 -35.5 -84 -35.5z" />
    <glyph glyph-name="yacute" unicode="&#xfd;" horiz-adv-x="909" 
d="M915 877c0 -60 -27 -133.331 -81 -219.998l-439 -716c-64 -104.667 -117.833 -181.834 -161.5 -231.501s-88.167 -87.334 -133.5 -113.001s-93.333 -38.5 -144 -38.5c-34 0 -61.167 1.16699 -81.5 3.5s-46.833 7.5 -79.5 15.5l42 242h60l20 -126
c16.667 -15.333 40 -23 70 -23c40 0 83.667 23 131 69s108 131.333 182 256l-214 855l-61 24l11 66h303l152 -639l181 300c18 29.333 33.167 61.5 45.5 96.5s18.5 62.833 18.5 83.5c0 17.333 -2.83301 31.5 -8.5 42.5s-13.167 20.167 -22.5 27.5s-29 15.333 -59 24l12 65
h231c17.333 -15.333 26 -36.333 26 -63zM407 1118l6 33l196 272h285l-4 -37l-397 -268h-86z" />
    <glyph glyph-name="thorn" unicode="&#xfe;" horiz-adv-x="1024" 
d="M956 631c0 -119.333 -21.834 -229.165 -65.501 -329.498s-105 -179 -184 -236s-167.167 -85.5 -264.5 -85.5c-24.667 0 -53.667 3.16699 -87 9.5s-60.666 14.166 -81.999 23.499c-3.33301 -38.667 -6.16602 -66.5 -8.49902 -83.5s-16.833 -109.167 -43.5 -276.5l160 -24
l-12 -65h-536l12 65l104 24l297 1683l-99 25l12 60h370l-74.5 -424.5c-17.667 -99.667 -32.834 -168.167 -45.501 -205.5c37.333 55.333 82.5 98.166 135.5 128.499s107.833 45.5 164.5 45.5c75.333 0 135.333 -29.5 180 -88.5s67 -140.833 67 -245.5zM692.999 587.001
c0 68.667 -10.667 123.501 -32 164.501s-49.666 61.5 -84.999 61.5c-22 0 -50.5 -13.667 -85.5 -41s-65.833 -60 -92.5 -98l-97 -547c13.333 -12.667 33 -23.834 59 -33.501s49.333 -14.5 70 -14.5c48 0 92.167 23.167 132.5 69.5s72.166 109.5 95.499 189.5s35 163 35 249z
" />
    <glyph glyph-name="ydieresis" unicode="&#xff;" horiz-adv-x="909" 
d="M915 877c0 -60 -27 -133.331 -81 -219.998l-439 -716c-64 -104.667 -117.833 -181.834 -161.5 -231.501s-88.167 -87.334 -133.5 -113.001s-93.333 -38.5 -144 -38.5c-34 0 -61.167 1.16699 -81.5 3.5s-46.833 7.5 -79.5 15.5l42 242h60l20 -126
c16.667 -15.333 40 -23 70 -23c40 0 83.667 23 131 69s108 131.333 182 256l-214 855l-61 24l11 66h303l152 -639l181 300c18 29.333 33.167 61.5 45.5 96.5s18.5 62.833 18.5 83.5c0 17.333 -2.83301 31.5 -8.5 42.5s-13.167 20.167 -22.5 27.5s-29 15.333 -59 24l12 65
h231c17.333 -15.333 26 -36.333 26 -63zM715 1130c-32 0 -60.167 11.833 -84.5 35.5s-36.5 52.167 -36.5 85.5s12.167 61.5 36.5 84.5s52.5 34.5 84.5 34.5c32.667 0 60.667 -11.333 84 -34s35 -51 35 -85c0 -33.333 -11.667 -61.833 -35 -85.5s-51.333 -35.5 -84 -35.5z
M359 1130c-32 0 -60.167 12.333 -84.5 37s-36.5 52.667 -36.5 84c0 32 12 59.833 36 83.5s52.333 35.5 85 35.5s60.667 -11.833 84 -35.5s35 -51.5 35 -83.5c0 -33.333 -11.667 -61.833 -35 -85.5s-51.333 -35.5 -84 -35.5z" />
    <glyph glyph-name="Amacron" unicode="&#x100;" horiz-adv-x="1366" 
d="M302 73l-14 -73h-394l14 73l103 27l668 1252h240l254 -1252l109 -27l-14 -73h-549l14 73l138 27l-61 347h-472l-184 -347zM689 1118l-295 -561h396zM477 1485l26 150h628l-26 -150h-628z" />
    <glyph glyph-name="amacron" unicode="&#x101;" horiz-adv-x="1024" 
d="M823 90l108.999 -32.002l-8 -58h-347l-4 138c-39.333 -49.333 -83.833 -88.166 -133.5 -116.499s-100.167 -42.5 -151.5 -42.5c-83.333 0 -148.166 30 -194.499 90s-69.5 143.333 -69.5 250c0 116.667 24.333 224.834 73 324.501s116.5 178 203.5 235
s182.833 85.5 287.5 85.5c92 0 175.667 -15 251 -45l82 37h54zM286.999 350.998c0 -68.667 11.499 -123.167 34.499 -163.5s51.833 -60.5 86.5 -60.5c26.667 0 56.334 13.333 89.001 40s62 59.667 88 99l99 563c-30 22.667 -71.333 34 -124 34
c-49.333 0 -95 -23.5 -137 -70.5s-75.167 -110.667 -99.5 -191s-36.5 -163.833 -36.5 -250.5zM313.998 1151l26 150h628l-26 -150h-628z" />
    <glyph glyph-name="Abreve" unicode="&#x102;" horiz-adv-x="1366" 
d="M302 73l-14 -73h-394l14 73l103 27l668 1252h240l254 -1252l109 -27l-14 -73h-549l14 73l138 27l-61 347h-472l-184 -347zM689 1118l-295 -561h396zM792 1452c-80 0 -141.668 20.833 -185.001 62.5s-65 102.5 -65 182.5c0 24.667 2 50.667 6 78h121
c4.66699 -87.333 57 -131 157 -131s167.667 43.667 203 131h121c-20.667 -102.667 -62.167 -182.167 -124.5 -238.5s-140.166 -84.5 -233.499 -84.5z" />
    <glyph glyph-name="abreve" unicode="&#x103;" horiz-adv-x="1024" 
d="M823 90l108.999 -32.002l-8 -58h-347l-4 138c-39.333 -49.333 -83.833 -88.166 -133.5 -116.499s-100.167 -42.5 -151.5 -42.5c-83.333 0 -148.166 30 -194.499 90s-69.5 143.333 -69.5 250c0 116.667 24.333 224.834 73 324.501s116.5 178 203.5 235
s182.833 85.5 287.5 85.5c92 0 175.667 -15 251 -45l82 37h54zM286.999 350.998c0 -68.667 11.499 -123.167 34.499 -163.5s51.833 -60.5 86.5 -60.5c26.667 0 56.334 13.333 89.001 40s62 59.667 88 99l99 563c-30 22.667 -71.333 34 -124 34
c-49.333 0 -95 -23.5 -137 -70.5s-75.167 -110.667 -99.5 -191s-36.5 -163.833 -36.5 -250.5zM570.998 1118c-80 0 -141.668 20.833 -185.001 62.5s-65 102.5 -65 182.5c0 24.667 2 50.667 6 78h121c4.66699 -87.333 57 -131 157 -131s167.667 43.667 203 131h121
c-20.667 -102.667 -62.167 -182.167 -124.5 -238.5s-140.166 -84.5 -233.499 -84.5z" />
    <glyph glyph-name="Aogonek" unicode="&#x104;" horiz-adv-x="1366" 
d="M302 73l-14 -73h-394l14 73l103 27l668 1252h240l254 -1252l109 -27l-14 -73h-549l14 73l138 27l-61 347h-472l-184 -347zM689 1118l-295 -561h396zM996 -430c-72.667 0 -128.335 16.999 -167.002 50.999s-58 84 -58 150c0 44.667 11.833 89.834 35.5 135.501
s54.5 81.5 92.5 107.5h132c-21.333 -32.667 -39 -68.667 -53 -108s-21 -77 -21 -113c0 -75.333 34.667 -113 104 -113c34.667 0 71.334 8.66699 110.001 26l30 -83c-61.333 -35.333 -129.666 -53 -204.999 -53z" />
    <glyph glyph-name="aogonek" unicode="&#x105;" horiz-adv-x="1024" 
d="M823 90l108.999 -32.002l-8 -58h-347l-4 138c-39.333 -49.333 -83.833 -88.166 -133.5 -116.499s-100.167 -42.5 -151.5 -42.5c-83.333 0 -148.166 30 -194.499 90s-69.5 143.333 -69.5 250c0 116.667 24.333 224.834 73 324.501s116.5 178 203.5 235
s182.833 85.5 287.5 85.5c92 0 175.667 -15 251 -45l82 37h54zM286.999 350.998c0 -68.667 11.499 -123.167 34.499 -163.5s51.833 -60.5 86.5 -60.5c26.667 0 56.334 13.333 89.001 40s62 59.667 88 99l99 563c-30 22.667 -71.333 34 -124 34
c-49.333 0 -95 -23.5 -137 -70.5s-75.167 -110.667 -99.5 -191s-36.5 -163.833 -36.5 -250.5zM689.998 -430.002c-72.667 0 -128.335 16.999 -167.002 50.999s-58 84 -58 150c0 44.667 11.833 89.834 35.5 135.501s54.5 81.5 92.5 107.5h132
c-21.333 -32.667 -39 -68.667 -53 -108s-21 -77 -21 -113c0 -75.333 34.667 -113 104 -113c34.667 0 71.334 8.66699 110.001 26l30 -83c-61.333 -35.333 -129.666 -53 -204.999 -53z" />
    <glyph glyph-name="Cacute" unicode="&#x106;" horiz-adv-x="1366" 
d="M670 -20c-190 0 -337.5 49.167 -442.5 147.5s-157.5 232.833 -157.5 403.5c0 164 34.667 308.5 104 433.5s168.333 221.5 297 289.5s275.667 102 441 102c150.667 0 308.334 -17.333 473.001 -52l-53 -337h-84v194c-36 28.667 -79.5 50.834 -130.5 66.501
s-104.5 23.5 -160.5 23.5c-110 0 -208.833 -30.667 -296.5 -92s-155.834 -147.833 -204.501 -259.5s-73 -237.5 -73 -377.5c0 -138 30.667 -245.667 92 -323s147.666 -116 258.999 -116c65.333 0 131 9.5 197 28.5s119.333 43.167 160 72.5l77 220h85l-66 -340
c-75.333 -24.667 -158.666 -44.834 -249.999 -60.501s-180.333 -23.5 -267 -23.5zM753 1452l6 33l196 272h285l-4 -37l-397 -268h-86z" />
    <glyph glyph-name="cacute" unicode="&#x107;" horiz-adv-x="909" 
d="M391 -20c-114.667 0 -203.499 31 -266.499 93s-94.5 147.667 -94.5 257c0 123.333 24.5 233.333 73.5 330s116.5 171.667 202.5 225s179 80 279 80c48 0 100.167 -4.5 156.5 -13.5s102.166 -19.5 137.499 -31.5l-49 -288h-72l-14 171c-36 40 -84.667 60 -146 60
c-52.667 0 -102.5 -23.5 -149.5 -70.5s-83.833 -110.667 -110.5 -191s-40 -167.5 -40 -261.5c0 -74.667 14.667 -132.667 44 -174s72.333 -62 129 -62c50 0 95.5 9 136.5 27s80.5 40.333 118.5 67l44 -63c-54.667 -48.667 -115.5 -86.667 -182.5 -114s-132.5 -41 -196.5 -41
zM479.001 1118l6 33l196 272h285l-4 -37l-397 -268h-86z" />
    <glyph glyph-name="Ccircumflex" unicode="&#x108;" horiz-adv-x="1366" 
d="M670 -20c-190 0 -337.5 49.167 -442.5 147.5s-157.5 232.833 -157.5 403.5c0 164 34.667 308.5 104 433.5s168.333 221.5 297 289.5s275.667 102 441 102c150.667 0 308.334 -17.333 473.001 -52l-53 -337h-84v194c-36 28.667 -79.5 50.834 -130.5 66.501
s-104.5 23.5 -160.5 23.5c-110 0 -208.833 -30.667 -296.5 -92s-155.834 -147.833 -204.501 -259.5s-73 -237.5 -73 -377.5c0 -138 30.667 -245.667 92 -323s147.666 -116 258.999 -116c65.333 0 131 9.5 197 28.5s119.333 43.167 160 72.5l77 220h85l-66 -340
c-75.333 -24.667 -158.666 -44.834 -249.999 -60.501s-180.333 -23.5 -267 -23.5zM573 1452l6 33l269 293h213l166 -293l-6 -33h-76l-220 162l-276 -162h-76z" />
    <glyph glyph-name="ccircumflex" unicode="&#x109;" horiz-adv-x="909" 
d="M391 -20c-114.667 0 -203.499 31 -266.499 93s-94.5 147.667 -94.5 257c0 123.333 24.5 233.333 73.5 330s116.5 171.667 202.5 225s179 80 279 80c48 0 100.167 -4.5 156.5 -13.5s102.166 -19.5 137.499 -31.5l-49 -288h-72l-14 171c-36 40 -84.667 60 -146 60
c-52.667 0 -102.5 -23.5 -149.5 -70.5s-83.833 -110.667 -110.5 -191s-40 -167.5 -40 -261.5c0 -74.667 14.667 -132.667 44 -174s72.333 -62 129 -62c50 0 95.5 9 136.5 27s80.5 40.333 118.5 67l44 -63c-54.667 -48.667 -115.5 -86.667 -182.5 -114s-132.5 -41 -196.5 -41
zM295.001 1118l6 33l269 293h213l166 -293l-6 -33h-76l-220 162l-276 -162h-76z" />
    <glyph glyph-name="Cdotaccent" unicode="&#x10a;" horiz-adv-x="1366" 
d="M670 -20c-190 0 -337.5 49.167 -442.5 147.5s-157.5 232.833 -157.5 403.5c0 164 34.667 308.5 104 433.5s168.333 221.5 297 289.5s275.667 102 441 102c150.667 0 308.334 -17.333 473.001 -52l-53 -337h-84v194c-36 28.667 -79.5 50.834 -130.5 66.501
s-104.5 23.5 -160.5 23.5c-110 0 -208.833 -30.667 -296.5 -92s-155.834 -147.833 -204.501 -259.5s-73 -237.5 -73 -377.5c0 -138 30.667 -245.667 92 -323s147.666 -116 258.999 -116c65.333 0 131 9.5 197 28.5s119.333 43.167 160 72.5l77 220h85l-66 -340
c-75.333 -24.667 -158.666 -44.834 -249.999 -60.501s-180.333 -23.5 -267 -23.5zM772 1625c0 43.333 15.165 79.668 45.498 109.001s66.5 44 108.5 44c42.667 0 78.834 -14.833 108.501 -44.5s44.5 -65.834 44.5 -108.501c0 -42 -14.667 -78.167 -44 -108.5
s-65.666 -45.5 -108.999 -45.5c-42.667 0 -79 14.833 -109 44.5s-45 66.167 -45 109.5z" />
    <glyph glyph-name="cdotaccent" unicode="&#x10b;" horiz-adv-x="909" 
d="M391 -20c-114.667 0 -203.499 31 -266.499 93s-94.5 147.667 -94.5 257c0 123.333 24.5 233.333 73.5 330s116.5 171.667 202.5 225s179 80 279 80c48 0 100.167 -4.5 156.5 -13.5s102.166 -19.5 137.499 -31.5l-49 -288h-72l-14 171c-36 40 -84.667 60 -146 60
c-52.667 0 -102.5 -23.5 -149.5 -70.5s-83.833 -110.667 -110.5 -191s-40 -167.5 -40 -261.5c0 -74.667 14.667 -132.667 44 -174s72.333 -62 129 -62c50 0 95.5 9 136.5 27s80.5 40.333 118.5 67l44 -63c-54.667 -48.667 -115.5 -86.667 -182.5 -114s-132.5 -41 -196.5 -41
zM461.001 1291c0 43.333 15.165 79.668 45.498 109.001s66.5 44 108.5 44c42.667 0 78.834 -14.833 108.501 -44.5s44.5 -65.834 44.5 -108.501c0 -42 -14.667 -78.167 -44 -108.5s-65.666 -45.5 -108.999 -45.5c-42.667 0 -79 14.833 -109 44.5s-45 66.167 -45 109.5z" />
    <glyph glyph-name="Ccaron" unicode="&#x10c;" horiz-adv-x="1366" 
d="M670 -20c-190 0 -337.5 49.167 -442.5 147.5s-157.5 232.833 -157.5 403.5c0 164 34.667 308.5 104 433.5s168.333 221.5 297 289.5s275.667 102 441 102c150.667 0 308.334 -17.333 473.001 -52l-53 -337h-84v194c-36 28.667 -79.5 50.834 -130.5 66.501
s-104.5 23.5 -160.5 23.5c-110 0 -208.833 -30.667 -296.5 -92s-155.834 -147.833 -204.501 -259.5s-73 -237.5 -73 -377.5c0 -138 30.667 -245.667 92 -323s147.666 -116 258.999 -116c65.333 0 131 9.5 197 28.5s119.333 43.167 160 72.5l77 220h85l-66 -340
c-75.333 -24.667 -158.666 -44.834 -249.999 -60.501s-180.333 -23.5 -267 -23.5zM1281 1778l-6 -33l-269 -293h-213l-166 293l6 33h76l220 -162l276 162h76z" />
    <glyph glyph-name="ccaron" unicode="&#x10d;" horiz-adv-x="909" 
d="M391 -20c-114.667 0 -203.499 31 -266.499 93s-94.5 147.667 -94.5 257c0 123.333 24.5 233.333 73.5 330s116.5 171.667 202.5 225s179 80 279 80c48 0 100.167 -4.5 156.5 -13.5s102.166 -19.5 137.499 -31.5l-49 -288h-72l-14 171c-36 40 -84.667 60 -146 60
c-52.667 0 -102.5 -23.5 -149.5 -70.5s-83.833 -110.667 -110.5 -191s-40 -167.5 -40 -261.5c0 -74.667 14.667 -132.667 44 -174s72.333 -62 129 -62c50 0 95.5 9 136.5 27s80.5 40.333 118.5 67l44 -63c-54.667 -48.667 -115.5 -86.667 -182.5 -114s-132.5 -41 -196.5 -41
zM979.001 1444l-6 -33l-269 -293h-213l-166 293l6 33h76l220 -162l276 162h76z" />
    <glyph glyph-name="Dcaron" unicode="&#x10e;" horiz-adv-x="1479" 
d="M1120 774c0 304.667 -138.334 457 -415.001 457h-37l-197 -1117c56.667 -5.33301 98 -8 124 -8c162.667 0 290.834 59.667 384.501 179s140.5 282.333 140.5 489zM741.999 1341c224.667 0 395.667 -47.834 513 -143.501s176 -232.167 176 -409.5
c0 -159.333 -33.833 -299.166 -101.5 -419.499s-164.667 -212.5 -291 -276.5s-272.833 -96 -439.5 -96l-419 4h-195l12 73l177 27l201 1142l-167 26l13 73h521zM1195 1778l-6 -33l-269 -293h-213l-166 293l6 33h76l220 -162l276 162h76z" />
    <glyph glyph-name="dcaron" unicode="&#x10f;" horiz-adv-x="1533" 
d="M276 -20c-76 0 -137 29.332 -183 87.999s-69 139.334 -69 242.001c0 118 21.5 227.333 64.5 328s103.333 180.167 181 238.5s163.834 87.5 258.501 87.5c72.667 0 130.667 -9.33301 174 -28l3 30l11 94l46 272l-160 24l12 65h435l-237 -1336l99 -25l-12 -60h-332l-7 144
c-39.333 -52.667 -84.333 -93.167 -135 -121.5s-100.334 -42.5 -149.001 -42.5zM287 353.999c0 -72 9.50098 -127.665 28.501 -166.998s43.833 -59 74.5 -59c25.333 0 55.833 13.333 91.5 40s67.5 59.667 95.5 99l97 550c-13.333 13.333 -33.833 24.666 -61.5 33.999
s-51.834 14 -72.501 14c-45.333 0 -87.5 -23.667 -126.5 -71s-69.833 -111.333 -92.5 -192s-34 -163.334 -34 -248.001zM1384 1421c47.333 0 85 -13.5 113 -40.5s42 -63.833 42 -110.5c0 -88.667 -36.167 -165.5 -108.5 -230.5s-180.5 -115.167 -324.5 -150.5l15 80
c64 16 115.167 39 153.5 69s57.5 60.667 57.5 92c0 16.667 -5.33301 30.834 -16 42.501s-22.5 23.167 -35.5 34.5s-24.833 24 -35.5 38s-16 31.667 -16 53c0 39.333 13.667 69.666 41 90.999s65.333 32 114 32z" />
    <glyph glyph-name="Dcroat" unicode="&#x110;" horiz-adv-x="1479" 
d="M1431 788c0 -159.333 -33.833 -299.167 -101.5 -419.5s-164.667 -212.5 -291 -276.5s-272.833 -96 -439.5 -96l-419 4h-195l12 73l177 27l89 509h-172l22 122h172l90 511l-167 26l13 73h521c224.667 0 395.667 -47.833 513 -143.5s176 -232.167 176 -409.5zM1120 773.999
c0 304.667 -138.334 457 -415.001 457h-37l-88 -500h257l-21 -122h-258l-87 -495c56.667 -5.33301 98 -8 124 -8c162.667 0 290.834 59.667 384.501 179s140.5 282.333 140.5 489z" />
    <glyph glyph-name="dcroat" unicode="&#x111;" horiz-adv-x="1024" 
d="M991 1099l-179 -1014l99 -25l-12 -60h-332l-7 144c-39.333 -52.667 -84.333 -93.167 -135 -121.5s-100.334 -42.5 -149.001 -42.5c-76 0 -137 29.333 -183 88s-69 139.334 -69 242.001c0 118 21.5 227.333 64.5 328s103.333 180.167 181 238.5s163.834 87.5 258.501 87.5
c72.667 0 130.667 -9.33301 174 -28c4 48 10.667 102.333 20 163h-210l18 103h211l22 130l-161 24l12 65h435l-39 -219h101l-18 -103h-102zM674 816.999c-13.333 13.333 -33.833 24.668 -61.5 34.001s-51.834 14 -72.501 14c-45.333 0 -87.5 -23.667 -126.5 -71
s-69.833 -111.333 -92.5 -192s-34 -163.334 -34 -248.001c0 -68.667 9.83301 -123.5 29.5 -164.5s45.834 -61.5 78.501 -61.5c22 0 51 13.5 87 40.5s67.667 59.833 95 98.5z" />
    <glyph glyph-name="Emacron" unicode="&#x112;" horiz-adv-x="1366" 
d="M375 1242l-167.001 26l13 73h1052l-60 -341h-91l6 217c-72.667 9.33301 -179.667 14 -321 14h-138l-87 -492h281l57 148h89l-73 -412h-89l-4 152h-281l-91 -517h183c168.667 0 281.334 5.33301 338.001 16l103 248h91l-84 -374h-1117l12 73l177 27zM466.999 1485l26 150
h628l-26 -150h-628z" />
    <glyph glyph-name="emacron" unicode="&#x113;" horiz-adv-x="909" 
d="M864 760c0 -60 -21.999 -115.332 -65.999 -165.999s-107.5 -92.334 -190.5 -125.001s-177.167 -53 -282.5 -61c-3.33301 -13.333 -5 -36 -5 -68c0 -157.333 60.333 -236 181 -236c49.333 0 95 9.5 137 28.5s81.333 40.833 118 65.5l44 -63
c-58.667 -49.333 -122.334 -87.5 -191.001 -114.5s-134.667 -40.5 -198 -40.5c-118 0 -208 29.667 -270 89s-93 146.333 -93 261s24.333 221 73 319s113 175.167 193 231.5s163 84.5 249 84.5c92 0 165.167 -18.5 219.5 -55.5s81.5 -86.833 81.5 -149.5zM341.001 508.001
c81.333 8.66699 148.169 38.168 200.502 88.501s78.5 109.166 78.5 176.499c0 28 -6.83301 49 -20.5 63s-29.834 21 -48.501 21c-46 0 -88.833 -34 -128.5 -102s-66.834 -150.333 -81.501 -247zM265.004 1151l26 150h628l-26 -150h-628z" />
    <glyph glyph-name="Ebreve" unicode="&#x114;" horiz-adv-x="1366" 
d="M375 1242l-167.001 26l13 73h1052l-60 -341h-91l6 217c-72.667 9.33301 -179.667 14 -321 14h-138l-87 -492h281l57 148h89l-73 -412h-89l-4 152h-281l-91 -517h183c168.667 0 281.334 5.33301 338.001 16l103 248h91l-84 -374h-1117l12 73l177 27zM794.999 1452
c-80 0 -141.668 20.833 -185.001 62.5s-65 102.5 -65 182.5c0 24.667 2 50.667 6 78h121c4.66699 -87.333 57 -131 157 -131s167.667 43.667 203 131h121c-20.667 -102.667 -62.167 -182.167 -124.5 -238.5s-140.166 -84.5 -233.499 -84.5z" />
    <glyph glyph-name="ebreve" unicode="&#x115;" horiz-adv-x="909" 
d="M864 760c0 -60 -21.999 -115.332 -65.999 -165.999s-107.5 -92.334 -190.5 -125.001s-177.167 -53 -282.5 -61c-3.33301 -13.333 -5 -36 -5 -68c0 -157.333 60.333 -236 181 -236c49.333 0 95 9.5 137 28.5s81.333 40.833 118 65.5l44 -63
c-58.667 -49.333 -122.334 -87.5 -191.001 -114.5s-134.667 -40.5 -198 -40.5c-118 0 -208 29.667 -270 89s-93 146.333 -93 261s24.333 221 73 319s113 175.167 193 231.5s163 84.5 249 84.5c92 0 165.167 -18.5 219.5 -55.5s81.5 -86.833 81.5 -149.5zM341.001 508.001
c81.333 8.66699 148.169 38.168 200.502 88.501s78.5 109.166 78.5 176.499c0 28 -6.83301 49 -20.5 63s-29.834 21 -48.501 21c-46 0 -88.833 -34 -128.5 -102s-66.834 -150.333 -81.501 -247zM567.004 1118c-80 0 -141.668 20.833 -185.001 62.5s-65 102.5 -65 182.5
c0 24.667 2 50.667 6 78h121c4.66699 -87.333 57 -131 157 -131s167.667 43.667 203 131h121c-20.667 -102.667 -62.167 -182.167 -124.5 -238.5s-140.166 -84.5 -233.499 -84.5z" />
    <glyph glyph-name="Edotaccent" unicode="&#x116;" horiz-adv-x="1366" 
d="M375 1242l-167.001 26l13 73h1052l-60 -341h-91l6 217c-72.667 9.33301 -179.667 14 -321 14h-138l-87 -492h281l57 148h89l-73 -412h-89l-4 152h-281l-91 -517h183c168.667 0 281.334 5.33301 338.001 16l103 248h91l-84 -374h-1117l12 73l177 27zM642.999 1625
c0 43.333 15.165 79.668 45.498 109.001s66.5 44 108.5 44c42.667 0 78.834 -14.833 108.501 -44.5s44.5 -65.834 44.5 -108.501c0 -42 -14.667 -78.167 -44 -108.5s-65.666 -45.5 -108.999 -45.5c-42.667 0 -79 14.833 -109 44.5s-45 66.167 -45 109.5z" />
    <glyph glyph-name="edotaccent" unicode="&#x117;" horiz-adv-x="909" 
d="M864 760c0 -60 -21.999 -115.332 -65.999 -165.999s-107.5 -92.334 -190.5 -125.001s-177.167 -53 -282.5 -61c-3.33301 -13.333 -5 -36 -5 -68c0 -157.333 60.333 -236 181 -236c49.333 0 95 9.5 137 28.5s81.333 40.833 118 65.5l44 -63
c-58.667 -49.333 -122.334 -87.5 -191.001 -114.5s-134.667 -40.5 -198 -40.5c-118 0 -208 29.667 -270 89s-93 146.333 -93 261s24.333 221 73 319s113 175.167 193 231.5s163 84.5 249 84.5c92 0 165.167 -18.5 219.5 -55.5s81.5 -86.833 81.5 -149.5zM341.001 508.001
c81.333 8.66699 148.169 38.168 200.502 88.501s78.5 109.166 78.5 176.499c0 28 -6.83301 49 -20.5 63s-29.834 21 -48.501 21c-46 0 -88.833 -34 -128.5 -102s-66.834 -150.333 -81.501 -247zM443.004 1291c0 43.333 15.165 79.668 45.498 109.001s66.5 44 108.5 44
c42.667 0 78.834 -14.833 108.501 -44.5s44.5 -65.834 44.5 -108.501c0 -42 -14.667 -78.167 -44 -108.5s-65.666 -45.5 -108.999 -45.5c-42.667 0 -79 14.833 -109 44.5s-45 66.167 -45 109.5z" />
    <glyph glyph-name="Eogonek" unicode="&#x118;" horiz-adv-x="1366" 
d="M375 1242l-167.001 26l13 73h1052l-60 -341h-91l6 217c-72.667 9.33301 -179.667 14 -321 14h-138l-87 -492h281l57 148h89l-73 -412h-89l-4 152h-281l-91 -517h183c168.667 0 281.334 5.33301 338.001 16l103 248h91l-84 -374h-1117l12 73l177 27zM904.999 -430
c-72.667 0 -128.335 16.999 -167.002 50.999s-58 84 -58 150c0 44.667 11.833 89.834 35.5 135.501s54.5 81.5 92.5 107.5h132c-21.333 -32.667 -39 -68.667 -53 -108s-21 -77 -21 -113c0 -75.333 34.667 -113 104 -113c34.667 0 71.334 8.66699 110.001 26l30 -83
c-61.333 -35.333 -129.666 -53 -204.999 -53z" />
    <glyph glyph-name="eogonek" unicode="&#x119;" horiz-adv-x="909" 
d="M864 760c0 -60 -21.999 -115.332 -65.999 -165.999s-107.5 -92.334 -190.5 -125.001s-177.167 -53 -282.5 -61c-3.33301 -13.333 -5 -36 -5 -68c0 -157.333 60.333 -236 181 -236c49.333 0 95 9.5 137 28.5s81.333 40.833 118 65.5l44 -63
c-58.667 -49.333 -122.334 -87.5 -191.001 -114.5s-134.667 -40.5 -198 -40.5c-118 0 -208 29.667 -270 89s-93 146.333 -93 261s24.333 221 73 319s113 175.167 193 231.5s163 84.5 249 84.5c92 0 165.167 -18.5 219.5 -55.5s81.5 -86.833 81.5 -149.5zM341.001 508.001
c81.333 8.66699 148.169 38.168 200.502 88.501s78.5 109.166 78.5 176.499c0 28 -6.83301 49 -20.5 63s-29.834 21 -48.501 21c-46 0 -88.833 -34 -128.5 -102s-66.834 -150.333 -81.501 -247zM561.004 -429.998c-72.667 0 -128.335 16.999 -167.002 50.999s-58 84 -58 150
c0 44.667 11.833 89.834 35.5 135.501s54.5 81.5 92.5 107.5h132c-21.333 -32.667 -39 -68.667 -53 -108s-21 -77 -21 -113c0 -75.333 34.667 -113 104 -113c34.667 0 71.334 8.66699 110.001 26l30 -83c-61.333 -35.333 -129.666 -53 -204.999 -53z" />
    <glyph glyph-name="Ecaron" unicode="&#x11a;" horiz-adv-x="1366" 
d="M375 1242l-167.001 26l13 73h1052l-60 -341h-91l6 217c-72.667 9.33301 -179.667 14 -321 14h-138l-87 -492h281l57 148h89l-73 -412h-89l-4 152h-281l-91 -517h183c168.667 0 281.334 5.33301 338.001 16l103 248h91l-84 -374h-1117l12 73l177 27zM1147 1778l-6 -33
l-269 -293h-213l-166 293l6 33h76l220 -162l276 162h76z" />
    <glyph glyph-name="ecaron" unicode="&#x11b;" horiz-adv-x="909" 
d="M864 760c0 -60 -21.999 -115.332 -65.999 -165.999s-107.5 -92.334 -190.5 -125.001s-177.167 -53 -282.5 -61c-3.33301 -13.333 -5 -36 -5 -68c0 -157.333 60.333 -236 181 -236c49.333 0 95 9.5 137 28.5s81.333 40.833 118 65.5l44 -63
c-58.667 -49.333 -122.334 -87.5 -191.001 -114.5s-134.667 -40.5 -198 -40.5c-118 0 -208 29.667 -270 89s-93 146.333 -93 261s24.333 221 73 319s113 175.167 193 231.5s163 84.5 249 84.5c92 0 165.167 -18.5 219.5 -55.5s81.5 -86.833 81.5 -149.5zM341.001 508.001
c81.333 8.66699 148.169 38.168 200.502 88.501s78.5 109.166 78.5 176.499c0 28 -6.83301 49 -20.5 63s-29.834 21 -48.501 21c-46 0 -88.833 -34 -128.5 -102s-66.834 -150.333 -81.501 -247zM947.004 1444l-6 -33l-269 -293h-213l-166 293l6 33h76l220 -162l276 162h76z
" />
    <glyph glyph-name="Gcircumflex" unicode="&#x11c;" horiz-adv-x="1479" 
d="M70 523c0 167.333 35.5 314.002 106.5 440.002s171.5 223 301.5 291s278.667 102 446 102c164 0 322.333 -20.667 475 -62l-55 -308h-84l1 174c-80 60.667 -186.667 91 -320 91c-106 0 -202 -31.167 -288 -93.5s-152.833 -150.333 -200.5 -264
s-71.5 -243.834 -71.5 -390.501c0 -132 28.5 -235 85.5 -309s137.5 -111 241.5 -111c86.667 0 165.667 14.333 237 43l68 380l-167 32l12 68h598l-12 -68l-136 -32l-77 -436c-98.667 -30.667 -192.667 -53.334 -282 -68.001s-185 -22 -287 -22
c-187.333 0 -332.833 48 -436.5 144s-155.5 229 -155.5 399zM573 1452l6 33l269 293h213l166 -293l-6 -33h-76l-220 162l-276 -162h-76z" />
    <glyph glyph-name="gcircumflex" unicode="&#x11d;" horiz-adv-x="1024" 
d="M292 355c0 -70.667 10.833 -126 32.5 -166s49.167 -60 82.5 -60c23.333 0 50.833 11.667 82.5 35s62.5 55 92.5 95l107 582c-39.333 16.667 -82.333 25 -129 25c-49.333 0 -94.333 -23 -135 -69s-73 -109.667 -97 -191s-36 -165 -36 -251zM29 311
c0 119.333 22.666 230.002 67.999 332.002s107.833 181.167 187.5 237.5s169.834 84.5 270.501 84.5c108.667 0 247 -14 415 -42l-172 -958c-25.333 -138 -79 -239.333 -161 -304s-196.333 -97 -343 -97c-62 0 -123.833 6.66699 -185.5 20s-110.5 30.333 -146.5 51l22 253
h56l36 -131c24 -24.667 55 -44.834 93 -60.501s80 -23.5 126 -23.5c44.667 0 82 8.33301 112 25s54.167 41.5 72.5 74.5s33.5 83.833 45.5 152.5c16 98 31.667 171.333 47 220c-40.667 -52.667 -86.167 -93.834 -136.5 -123.501s-99.5 -44.5 -147.5 -44.5
c-78 0 -140.667 30 -188 90s-71 141.333 -71 244zM250.999 1118l6 33l269 293h213l166 -293l-6 -33h-76l-220 162l-276 -162h-76z" />
    <glyph glyph-name="Gbreve" unicode="&#x11e;" horiz-adv-x="1479" 
d="M70 523c0 167.333 35.5 314.002 106.5 440.002s171.5 223 301.5 291s278.667 102 446 102c164 0 322.333 -20.667 475 -62l-55 -308h-84l1 174c-80 60.667 -186.667 91 -320 91c-106 0 -202 -31.167 -288 -93.5s-152.833 -150.333 -200.5 -264
s-71.5 -243.834 -71.5 -390.501c0 -132 28.5 -235 85.5 -309s137.5 -111 241.5 -111c86.667 0 165.667 14.333 237 43l68 380l-167 32l12 68h598l-12 -68l-136 -32l-77 -436c-98.667 -30.667 -192.667 -53.334 -282 -68.001s-185 -22 -287 -22
c-187.333 0 -332.833 48 -436.5 144s-155.5 229 -155.5 399zM896 1452c-80 0 -141.668 20.833 -185.001 62.5s-65 102.5 -65 182.5c0 24.667 2 50.667 6 78h121c4.66699 -87.333 57 -131 157 -131s167.667 43.667 203 131h121
c-20.667 -102.667 -62.167 -182.167 -124.5 -238.5s-140.166 -84.5 -233.499 -84.5z" />
    <glyph glyph-name="gbreve" unicode="&#x11f;" horiz-adv-x="1024" 
d="M292 355c0 -70.667 10.833 -126 32.5 -166s49.167 -60 82.5 -60c23.333 0 50.833 11.667 82.5 35s62.5 55 92.5 95l107 582c-39.333 16.667 -82.333 25 -129 25c-49.333 0 -94.333 -23 -135 -69s-73 -109.667 -97 -191s-36 -165 -36 -251zM29 311
c0 119.333 22.666 230.002 67.999 332.002s107.833 181.167 187.5 237.5s169.834 84.5 270.501 84.5c108.667 0 247 -14 415 -42l-172 -958c-25.333 -138 -79 -239.333 -161 -304s-196.333 -97 -343 -97c-62 0 -123.833 6.66699 -185.5 20s-110.5 30.333 -146.5 51l22 253
h56l36 -131c24 -24.667 55 -44.834 93 -60.501s80 -23.5 126 -23.5c44.667 0 82 8.33301 112 25s54.167 41.5 72.5 74.5s33.5 83.833 45.5 152.5c16 98 31.667 171.333 47 220c-40.667 -52.667 -86.167 -93.834 -136.5 -123.501s-99.5 -44.5 -147.5 -44.5
c-78 0 -140.667 30 -188 90s-71 141.333 -71 244zM588.999 1118c-80 0 -141.668 20.833 -185.001 62.5s-65 102.5 -65 182.5c0 24.667 2 50.667 6 78h121c4.66699 -87.333 57 -131 157 -131s167.667 43.667 203 131h121c-20.667 -102.667 -62.167 -182.167 -124.5 -238.5
s-140.166 -84.5 -233.499 -84.5z" />
    <glyph glyph-name="Gdotaccent" unicode="&#x120;" horiz-adv-x="1479" 
d="M70 523c0 167.333 35.5 314.002 106.5 440.002s171.5 223 301.5 291s278.667 102 446 102c164 0 322.333 -20.667 475 -62l-55 -308h-84l1 174c-80 60.667 -186.667 91 -320 91c-106 0 -202 -31.167 -288 -93.5s-152.833 -150.333 -200.5 -264
s-71.5 -243.834 -71.5 -390.501c0 -132 28.5 -235 85.5 -309s137.5 -111 241.5 -111c86.667 0 165.667 14.333 237 43l68 380l-167 32l12 68h598l-12 -68l-136 -32l-77 -436c-98.667 -30.667 -192.667 -53.334 -282 -68.001s-185 -22 -287 -22
c-187.333 0 -332.833 48 -436.5 144s-155.5 229 -155.5 399zM772 1625c0 43.333 15.165 79.668 45.498 109.001s66.5 44 108.5 44c42.667 0 78.834 -14.833 108.501 -44.5s44.5 -65.834 44.5 -108.501c0 -42 -14.667 -78.167 -44 -108.5s-65.666 -45.5 -108.999 -45.5
c-42.667 0 -79 14.833 -109 44.5s-45 66.167 -45 109.5z" />
    <glyph glyph-name="gdotaccent" unicode="&#x121;" horiz-adv-x="1024" 
d="M292 355c0 -70.667 10.833 -126 32.5 -166s49.167 -60 82.5 -60c23.333 0 50.833 11.667 82.5 35s62.5 55 92.5 95l107 582c-39.333 16.667 -82.333 25 -129 25c-49.333 0 -94.333 -23 -135 -69s-73 -109.667 -97 -191s-36 -165 -36 -251zM29 311
c0 119.333 22.666 230.002 67.999 332.002s107.833 181.167 187.5 237.5s169.834 84.5 270.501 84.5c108.667 0 247 -14 415 -42l-172 -958c-25.333 -138 -79 -239.333 -161 -304s-196.333 -97 -343 -97c-62 0 -123.833 6.66699 -185.5 20s-110.5 30.333 -146.5 51l22 253
h56l36 -131c24 -24.667 55 -44.834 93 -60.501s80 -23.5 126 -23.5c44.667 0 82 8.33301 112 25s54.167 41.5 72.5 74.5s33.5 83.833 45.5 152.5c16 98 31.667 171.333 47 220c-40.667 -52.667 -86.167 -93.834 -136.5 -123.501s-99.5 -44.5 -147.5 -44.5
c-78 0 -140.667 30 -188 90s-71 141.333 -71 244zM449.999 1291c0 43.333 15.165 79.668 45.498 109.001s66.5 44 108.5 44c42.667 0 78.834 -14.833 108.501 -44.5s44.5 -65.834 44.5 -108.501c0 -42 -14.667 -78.167 -44 -108.5s-65.666 -45.5 -108.999 -45.5
c-42.667 0 -79 14.833 -109 44.5s-45 66.167 -45 109.5z" />
    <glyph glyph-name="Gcommaaccent" unicode="&#x122;" horiz-adv-x="1479" 
d="M70 523c0 167.333 35.5 314.002 106.5 440.002s171.5 223 301.5 291s278.667 102 446 102c164 0 322.333 -20.667 475 -62l-55 -308h-84l1 174c-80 60.667 -186.667 91 -320 91c-106 0 -202 -31.167 -288 -93.5s-152.833 -150.333 -200.5 -264
s-71.5 -243.834 -71.5 -390.501c0 -132 28.5 -235 85.5 -309s137.5 -111 241.5 -111c86.667 0 165.667 14.333 237 43l68 380l-167 32l12 68h598l-12 -68l-136 -32l-77 -436c-98.667 -30.667 -192.667 -53.334 -282 -68.001s-185 -22 -287 -22
c-187.333 0 -332.833 48 -436.5 144s-155.5 229 -155.5 399zM706 -71.998c40 0 73.332 -13.332 99.999 -39.999s40 -62 40 -106c0 -79.333 -32.833 -145.333 -98.5 -198s-160.167 -88.334 -283.5 -107.001l13 69c115.333 26.667 173 67.667 173 123
c0 13.333 -4.5 25 -13.5 35l-29 31c-10.333 10.667 -20 22.5 -29 35.5s-13.5 29.167 -13.5 48.5c0 32.667 12.833 59 38.5 79s59.834 30 102.501 30z" />
    <glyph glyph-name="gcommaaccent" unicode="&#x123;" horiz-adv-x="1024" 
d="M292 355c0 -70.667 10.833 -126 32.5 -166s49.167 -60 82.5 -60c23.333 0 50.833 11.667 82.5 35s62.5 55 92.5 95l107 582c-39.333 16.667 -82.333 25 -129 25c-49.333 0 -94.333 -23 -135 -69s-73 -109.667 -97 -191s-36 -165 -36 -251zM29 311
c0 119.333 22.666 230.002 67.999 332.002s107.833 181.167 187.5 237.5s169.834 84.5 270.501 84.5c108.667 0 247 -14 415 -42l-172 -958c-25.333 -138 -79 -239.333 -161 -304s-196.333 -97 -343 -97c-62 0 -123.833 6.66699 -185.5 20s-110.5 30.333 -146.5 51l22 253
h56l36 -131c24 -24.667 55 -44.834 93 -60.501s80 -23.5 126 -23.5c44.667 0 82 8.33301 112 25s54.167 41.5 72.5 74.5s33.5 83.833 45.5 152.5c16 98 31.667 171.333 47 220c-40.667 -52.667 -86.167 -93.834 -136.5 -123.501s-99.5 -44.5 -147.5 -44.5
c-78 0 -140.667 30 -188 90s-71 141.333 -71 244zM601.999 1120c-40 0 -73.334 13.332 -100.001 39.999s-40 62 -40 106c0 79.333 33 145.333 99 198s160.333 88.334 283 107.001l-13 -69c-57.333 -14 -100.5 -31 -129.5 -51s-43.5 -44 -43.5 -72
c0 -13.333 4.5 -25 13.5 -35l29 -31c10.333 -10.667 20 -22.667 29 -36s13.5 -29.333 13.5 -48c0 -31.333 -12.667 -57.333 -38 -78s-59.666 -31 -102.999 -31z" />
    <glyph glyph-name="Hcircumflex" unicode="&#x124;" horiz-adv-x="1593" 
d="M-15 0l13 74l176 26l201 1141l-167 27l13 73h639l-13 -73l-177 -27l-87 -496h488l87 496l-167 27l13 73h641l-13 -73l-178 -27l-201 -1141l168 -26l-13 -74h-641l13 74l177 26l94 535h-488l-94 -535l167 -26l-13 -74h-638zM628 1452l6 33l269 293h213l166 -293l-6 -33
h-76l-220 162l-276 -162h-76z" />
    <glyph glyph-name="hcircumflex" unicode="&#x125;" horiz-adv-x="1139" 
d="M436 769c102.667 130.667 230 196.001 382 196.001c64.667 0 116.667 -17.833 156 -53.5s59 -84.167 59 -145.5c0 -34.667 -5.66699 -83 -17 -145l-95 -531l116 -24l-13 -66h-386l102 569c14.667 77.333 22 129.333 22 156c0 64.667 -30.333 97 -91 97
c-42 0 -89.333 -23.333 -142 -70s-91.667 -99.334 -117 -158.001l-106 -594h-266l234 1331l-91 24l11 66h365l-84 -463l-32 -160zM401 1502l6 33l269 293h213l166 -293l-6 -33h-76l-220 162l-276 -162h-76z" />
    <glyph glyph-name="Hbar" unicode="&#x126;" horiz-adv-x="1593" 
d="M-14 0l13 74l176 26l151 852h-172l18 110h172l32 179l-167 27l13 73h639l-13 -73l-177 -27l-32 -179h487l32 179l-167 27l13 73h641l-13 -73l-178 -27l-32 -179h173l-18 -110h-173l-151 -852l168 -26l-13 -74h-641l13 74l177 26l94 535h-487l-94 -535l167 -26l-13 -74
h-638zM1071 745l37 207h-487l-37 -207h487z" />
    <glyph glyph-name="hbar" unicode="&#x127;" horiz-adv-x="1139" 
d="M519 1202l254.999 0.000976562l-20 -103h-254l-43 -249l-16 -81c102.667 130.667 228.334 196 377.001 196c67.333 0 120 -18.167 158 -54.5s57 -88.5 57 -156.5c0 -24.667 -5.66699 -68.667 -17 -132l-95 -532l116 -24l-13 -66h-386l102 569
c14.667 77.333 22 129.333 22 156c0 64.667 -30.333 97 -91 97c-42 0 -89.333 -23.333 -142 -70s-91.667 -99.334 -117 -158.001l-106 -594h-266l193 1099h-144l20 103h142l23 129l-91 24l11 66h365z" />
    <glyph glyph-name="Itilde" unicode="&#x128;" horiz-adv-x="797" 
d="M464 100l167 -26l-13 -74h-638l13 74l176 26l201 1141l-167 27l13 73h639l-13 -73l-177 -27zM673 1424c-56.667 0 -117.001 29.333 -181.001 88c-32.667 30 -60 45 -82 45c-25.333 0 -45 -8.66699 -59 -26s-27.333 -47 -40 -89h-99
c44.667 191.333 134.334 287 269.001 287c35.333 0 67 -8 95 -24s57.333 -36.667 88 -62c34.667 -30 61.667 -45 81 -45c24.667 0 44 8.5 58 25.5s27.667 45.833 41 86.5h99c-25.333 -101.333 -60.333 -174.333 -105 -219s-99.667 -67 -165 -67z" />
    <glyph glyph-name="itilde" unicode="&#x129;" horiz-adv-x="569" 
d="M332 90l119 -24l-11 -66h-393l150 850l-91 24l11 66h365zM488 1090c-56.667 0 -117.001 29.333 -181.001 88c-32.667 30 -60 45 -82 45c-25.333 0 -45 -8.66699 -59 -26s-27.333 -47 -40 -89h-99c44.667 191.333 134.334 287 269.001 287c35.333 0 67 -8 95 -24
s57.333 -36.667 88 -62c34.667 -30 61.667 -45 81 -45c24.667 0 44 8.5 58 25.5s27.667 45.833 41 86.5h99c-25.333 -101.333 -60.333 -174.333 -105 -219s-99.667 -67 -165 -67z" />
    <glyph glyph-name="Imacron" unicode="&#x12a;" horiz-adv-x="797" 
d="M464 100l167 -26l-13 -74h-638l13 74l176 26l201 1141l-167 27l13 73h639l-13 -73l-177 -27zM259 1552l26 150h628l-26 -150h-628z" />
    <glyph glyph-name="imacron" unicode="&#x12b;" horiz-adv-x="569" 
d="M332 90l119 -24l-11 -66h-393l150 850l-91 24l11 66h365zM39 1151l26 150h628l-26 -150h-628z" />
    <glyph glyph-name="Ibreve" unicode="&#x12c;" horiz-adv-x="797" 
d="M464 100l167 -26l-13 -74h-638l13 74l176 26l201 1141l-167 27l13 73h639l-13 -73l-177 -27zM567 1519c-80 0 -141.668 20.833 -185.001 62.5s-65 102.5 -65 182.5c0 24.667 2 50.667 6 78h121c4.66699 -87.333 57 -131 157 -131s167.667 43.667 203 131h121
c-20.667 -102.667 -62.167 -182.167 -124.5 -238.5s-140.166 -84.5 -233.499 -84.5z" />
    <glyph glyph-name="ibreve" unicode="&#x12d;" horiz-adv-x="569" 
d="M332 90l119 -24l-11 -66h-393l150 850l-91 24l11 66h365zM347 1118c-80 0 -141.668 20.833 -185.001 62.5s-65 102.5 -65 182.5c0 24.667 2 50.667 6 78h121c4.66699 -87.333 57 -131 157 -131s167.667 43.667 203 131h121
c-20.667 -102.667 -62.167 -182.167 -124.5 -238.5s-140.166 -84.5 -233.499 -84.5z" />
    <glyph glyph-name="Iogonek" unicode="&#x12e;" horiz-adv-x="797" 
d="M464 100l167 -26l-13 -74h-638l13 74l176 26l201 1141l-167 27l13 73h639l-13 -73l-177 -27zM346 -430c-72.667 0 -128.335 16.999 -167.002 50.999s-58 84 -58 150c0 44.667 11.833 89.834 35.5 135.501s54.5 81.5 92.5 107.5h132c-21.333 -32.667 -39 -68.667 -53 -108
s-21 -77 -21 -113c0 -75.333 34.667 -113 104 -113c34.667 0 71.334 8.66699 110.001 26l30 -83c-61.333 -35.333 -129.666 -53 -204.999 -53z" />
    <glyph glyph-name="iogonek" unicode="&#x12f;" horiz-adv-x="569" 
d="M337 90l119 -24l-11 -66h-393l150 850l-91 24l11 66h365zM253 1268c0 43.333 15.165 79.668 45.498 109.001s66.5 44 108.5 44c42.667 0 78.834 -14.833 108.501 -44.5s44.5 -65.834 44.5 -108.501c0 -42 -14.667 -78.167 -44 -108.5s-65.666 -45.5 -108.999 -45.5
c-42.667 0 -79 14.833 -109 44.5s-45 66.167 -45 109.5zM168.998 -429.998c-72.667 0 -128.335 16.999 -167.002 50.999s-58 84 -58 150c0 44.667 11.833 89.834 35.5 135.501s54.5 81.5 92.5 107.5h132c-21.333 -32.667 -39 -68.667 -53 -108s-21 -77 -21 -113
c0 -75.333 34.667 -113 104 -113c34.667 0 71.334 8.66699 110.001 26l30 -83c-61.333 -35.333 -129.666 -53 -204.999 -53z" />
    <glyph glyph-name="Idotaccent" unicode="&#x130;" horiz-adv-x="797" 
d="M464 100l167 -26l-13 -74h-638l13 74l176 26l201 1141l-167 27l13 73h639l-13 -73l-177 -27zM433 1625c0 43.333 15.165 79.668 45.498 109.001s66.5 44 108.5 44c42.667 0 78.834 -14.833 108.501 -44.5s44.5 -65.834 44.5 -108.501c0 -42 -14.667 -78.167 -44 -108.5
s-65.666 -45.5 -108.999 -45.5c-42.667 0 -79 14.833 -109 44.5s-45 66.167 -45 109.5z" />
    <glyph glyph-name="dotlessi" unicode="&#x131;" horiz-adv-x="569" 
d="M332 90l119 -24l-11 -66h-393l150 850l-91 24l11 66h365z" />
    <glyph glyph-name="IJ" unicode="&#x132;" horiz-adv-x="1685" 
d="M464 100l167 -26l-13 -74h-638l13 74l176 26l201 1141l-167 27l13 73h639l-13 -73l-177 -27zM1278 1242l-167 26l13 73h619l-13 -73l-157 -26l-142 -810c-25.333 -144 -82.5 -255.333 -171.5 -334s-205.833 -118 -350.5 -118c-101.333 0 -184 10 -248 30l54 304h83
l4 -179c21.333 -32.667 59 -49 113 -49c49.333 0 91.333 17 126 51s57 80.333 67 139z" />
    <glyph glyph-name="ij" unicode="&#x133;" horiz-adv-x="1131" 
d="M337 90l119 -24l-11 -66h-393l150 850l-91 24l11 66h365zM253 1268c0 43.333 15.165 79.668 45.498 109.001s66.5 44 108.5 44c42.667 0 78.834 -14.833 108.501 -44.5s44.5 -65.834 44.5 -108.501c0 -42 -14.667 -78.167 -44 -108.5s-65.666 -45.5 -108.999 -45.5
c-42.667 0 -79 14.833 -109 44.5s-45 66.167 -45 109.5zM449.998 -435.998c-59.333 0 -115.334 5.99902 -168.001 17.999l39 225h63l24 -118c13.333 -10 28.333 -15 45 -15c34.667 0 64.834 22.333 90.501 67s45.5 107.334 59.5 188.001l161 911l-160 34l11 66h435
l-172 -979c-23.333 -130.667 -71 -229.5 -143 -296.5s-167 -100.5 -285 -100.5zM817.997 1268c0 43.333 15.165 79.668 45.498 109.001s66.5 44 108.5 44c42.667 0 78.834 -14.833 108.501 -44.5s44.5 -65.834 44.5 -108.501c0 -42 -14.667 -78.167 -44 -108.5
s-65.666 -45.5 -108.999 -45.5c-42.667 0 -79 14.833 -109 44.5s-45 66.167 -45 109.5z" />
    <glyph glyph-name="Jcircumflex" unicode="&#x134;" horiz-adv-x="1024" 
d="M613 1242l-167 26l13 73h619l-13 -73l-157 -26l-142 -810c-25.333 -144 -82.5 -255.333 -171.5 -334s-205.833 -118 -350.5 -118c-101.333 0 -184 10 -248 30l54 304h83l4 -179c21.333 -32.667 59 -49 113 -49c49.333 0 91.333 17 126 51s57 80.333 67 139zM464 1452
l6 33l269 293h213l166 -293l-6 -33h-76l-220 162l-276 -162h-76z" />
    <glyph glyph-name="jcircumflex" unicode="&#x135;" horiz-adv-x="569" 
d="M-100 -436c-59.333 0 -115.334 5.99902 -168.001 17.999l39 225h63l23 -114c12.667 -12.667 28 -19 46 -19c34.667 0 64.834 22.333 90.501 67s45.5 107.334 59.5 188.001l161 911l-160 34l11 66h435l-172 -979c-23.333 -130.667 -71 -229.5 -143 -296.5
s-167 -100.5 -285 -100.5zM33.999 1118l6 33l269 293h213l166 -293l-6 -33h-76l-220 162l-276 -162h-76z" />
    <glyph glyph-name="Kcommaaccent" unicode="&#x136;" horiz-adv-x="1366" 
d="M469 100l178 -27l-12 -73h-650l12 73l177 27l201 1142l-167 26l13 73h629l-13 -73l-167 -26l-91 -524l576 524l-113 26l13 73h425l-13 -73l-139 -26l-473 -429l353 -713l134 -27l-12 -73h-386l-296 636l-93 -45zM703 -72c40 0 73.332 -13.332 99.999 -39.999
s40 -62 40 -106c0 -79.333 -32.833 -145.333 -98.5 -198s-160.167 -88.334 -283.5 -107.001l13 69c115.333 26.667 173 67.667 173 123c0 13.333 -4.5 25 -13.5 35l-29 31c-10.333 10.667 -20 22.5 -29 35.5s-13.5 29.167 -13.5 48.5c0 32.667 12.833 59 38.5 79
s59.834 30 102.501 30z" />
    <glyph glyph-name="kcommaaccent" unicode="&#x137;" horiz-adv-x="1024" 
d="M388 507l351 344l-86 23l11 66h344l-11 -66l-92 -22l-243 -224l222 -538l80 -24l-11 -66h-314l-166 453l-108 -70l-68 -383h-269l235 1331l-92 24l12 66h365zM472 -72c40 0 73.332 -13.332 99.999 -39.999s40 -62 40 -106c0 -79.333 -32.833 -145.333 -98.5 -198
s-160.167 -88.334 -283.5 -107.001l13 69c115.333 26.667 173 67.667 173 123c0 13.333 -4.5 25 -13.5 35l-29 31c-10.333 10.667 -20 22.5 -29 35.5s-13.5 29.167 -13.5 48.5c0 32.667 12.833 59 38.5 79s59.834 30 102.501 30z" />
    <glyph glyph-name="kgreenlandic" unicode="&#x138;" horiz-adv-x="1024" 
d="M382 476l357 375l-86 23l11 66h344l-11 -66l-92 -22l-249 -255l238 -507l80 -24l-11 -66h-324l-176 420l-104 -66l-62 -354h-269l151 850l-92 24l12 66h365z" />
    <glyph glyph-name="Lacute" unicode="&#x139;" horiz-adv-x="1251" 
d="M470 106h113.001c64 0 136.167 2.16699 216.5 6.5s133.166 8.83301 158.499 13.5l117 279h84l-89 -405h-1085l12 73l177 27l201 1142l-166 26l13 73h663l-13 -73l-202 -26zM456.001 1452l6 33l196 272h285l-4 -37l-397 -268h-86z" />
    <glyph glyph-name="lacute" unicode="&#x13a;" horiz-adv-x="569" 
d="M330 90l119 -24l-11 -66h-393l236 1331l-91 24l11 66h365zM311 1502l6 33l196 272h285l-4 -37l-397 -268h-86z" />
    <glyph glyph-name="Lcommaaccent" unicode="&#x13b;" horiz-adv-x="1251" 
d="M470 106h113.001c64 0 136.167 2.16699 216.5 6.5s133.166 8.83301 158.499 13.5l117 279h84l-89 -405h-1085l12 73l177 27l201 1142l-166 26l13 73h663l-13 -73l-202 -26zM552.001 -72c40 0 73.332 -13.332 99.999 -39.999s40 -62 40 -106
c0 -79.333 -32.833 -145.333 -98.5 -198s-160.167 -88.334 -283.5 -107.001l13 69c115.333 26.667 173 67.667 173 123c0 13.333 -4.5 25 -13.5 35l-29 31c-10.333 10.667 -20 22.5 -29 35.5s-13.5 29.167 -13.5 48.5c0 32.667 12.833 59 38.5 79s59.834 30 102.501 30z" />
    <glyph glyph-name="lcommaaccent" unicode="&#x13c;" horiz-adv-x="569" 
d="M330 90l119 -24l-11 -66h-393l236 1331l-91 24l11 66h365zM176 -72c40 0 73.332 -13.332 99.999 -39.999s40 -62 40 -106c0 -79.333 -32.833 -145.333 -98.5 -198s-160.167 -88.334 -283.5 -107.001l13 69c115.333 26.667 173 67.667 173 123c0 13.333 -4.5 25 -13.5 35
l-29 31c-10.333 10.667 -20 22.5 -29 35.5s-13.5 29.167 -13.5 48.5c0 32.667 12.833 59 38.5 79s59.834 30 102.501 30z" />
    <glyph glyph-name="Lcaron" unicode="&#x13d;" horiz-adv-x="1251" 
d="M470 106h113.001c64 0 136.167 2.16699 216.5 6.5s133.166 8.83301 158.499 13.5l117 279h84l-89 -405h-1085l12 73l177 27l201 1142l-166 26l13 73h663l-13 -73l-202 -26zM1178 1362c47.333 0 85 -13.5 113 -40.5s42 -63.833 42 -110.5
c0 -88.667 -36.167 -165.5 -108.5 -230.5s-180.5 -115.167 -324.5 -150.5l15 80c64 16 115.167 39 153.5 69s57.5 60.667 57.5 92c0 16.667 -5.33301 30.834 -16 42.501s-22.5 23.167 -35.5 34.5s-24.833 24 -35.5 38s-16 31.667 -16 53c0 39.333 13.667 69.666 41 90.999
s65.333 32 114 32z" />
    <glyph glyph-name="lcaron" unicode="&#x13e;" horiz-adv-x="1067" 
d="M330 90l119 -24l-11 -66h-393l236 1331l-91 24l11 66h365zM918 1421c47.333 0 85 -13.5 113 -40.5s42 -63.833 42 -110.5c0 -88.667 -36.167 -165.5 -108.5 -230.5s-180.5 -115.167 -324.5 -150.5l15 80c64 16 115.167 39 153.5 69s57.5 60.667 57.5 92
c0 16.667 -5.33301 30.834 -16 42.501s-22.5 23.167 -35.5 34.5s-24.833 24 -35.5 38s-16 31.667 -16 53c0 39.333 13.667 69.666 41 90.999s65.333 32 114 32z" />
    <glyph glyph-name="Ldot" unicode="&#x13f;" horiz-adv-x="1251" 
d="M470 106h113.001c64 0 136.167 2.16699 216.5 6.5s133.166 8.83301 158.499 13.5l117 279h84l-89 -405h-1085l12 73l177 27l201 1142l-166 26l13 73h663l-13 -73l-202 -26zM765.001 714c0 43.333 15.165 79.668 45.498 109.001s66.5 44 108.5 44
c42.667 0 78.834 -14.833 108.501 -44.5s44.5 -65.834 44.5 -108.501c0 -42 -14.667 -78.167 -44 -108.5s-65.666 -45.5 -108.999 -45.5c-42.667 0 -79 14.833 -109 44.5s-45 66.167 -45 109.5z" />
    <glyph glyph-name="ldot" unicode="&#x140;" horiz-adv-x="768" 
d="M330 90l119 -24l-11 -66h-393l236 1331l-91 24l11 66h365zM536 714c0 43.333 15.165 79.668 45.498 109.001s66.5 44 108.5 44c42.667 0 78.834 -14.833 108.501 -44.5s44.5 -65.834 44.5 -108.501c0 -42 -14.667 -78.167 -44 -108.5s-65.666 -45.5 -108.999 -45.5
c-42.667 0 -79 14.833 -109 44.5s-45 66.167 -45 109.5z" />
    <glyph glyph-name="Lslash" unicode="&#x141;" horiz-adv-x="1251" 
d="M594 811l262 140l-23 -134l-262 -137l-101 -574h113c67.333 0 140.5 2.16699 219.5 6.5s130.833 8.83301 155.5 13.5l117 279h84l-89 -405h-1085l12 73l177 27l71 402l-184 -100l24 136l183 98l107 606l-166 26l13 73h663l-13 -73l-202 -26z" />
    <glyph glyph-name="lslash" unicode="&#x142;" horiz-adv-x="569" 
d="M273 1331l-92 24l12 66h365l-115 -651l141 74l-22 -124l-141 -75l-98 -555l99 -24l-11 -66h-374l86 478l-135 -71l22 126l135 70z" />
    <glyph glyph-name="Nacute" unicode="&#x143;" horiz-adv-x="1479" 
d="M1225 1242l-175 26l13 73h477l-13 -73l-177 -26l-218 -1242h-115l-541 1112l-181 -1012l175 -27l-12 -73h-477l12 73l177 27l201 1142l-167 26l13 73h433l435 -894zM748 1452l6 33l196 272h285l-4 -37l-397 -268h-86z" />
    <glyph glyph-name="nacute" unicode="&#x144;" horiz-adv-x="1139" 
d="M764 725c0 64.667 -30.333 97.001 -91 97.001c-42 0 -89.333 -23.333 -142 -70s-91.667 -99.334 -117 -158.001l-106 -594h-266l148 849l-89 25l13 66h334l-8 -175c103.333 133.333 230 200 380 200c66 0 118.333 -17.667 157 -53s58 -85 58 -149
c0 -34.667 -8.33301 -95.667 -25 -183l-87 -490l116 -24l-13 -66h-386l102 569c14.667 77.333 22 129.333 22 156zM572 1118l6 33l196 272h285l-4 -37l-397 -268h-86z" />
    <glyph glyph-name="Ncommaaccent" unicode="&#x145;" horiz-adv-x="1479" 
d="M1225 1242l-175 26l13 73h477l-13 -73l-177 -26l-218 -1242h-115l-541 1112l-181 -1012l175 -27l-12 -73h-477l12 73l177 27l201 1142l-167 26l13 73h433l435 -894zM628 -72c40 0 73.332 -13.332 99.999 -39.999s40 -62 40 -106c0 -79.333 -32.833 -145.333 -98.5 -198
s-160.167 -88.334 -283.5 -107.001l13 69c115.333 26.667 173 67.667 173 123c0 13.333 -4.5 25 -13.5 35l-29 31c-10.333 10.667 -20 22.5 -29 35.5s-13.5 29.167 -13.5 48.5c0 32.667 12.833 59 38.5 79s59.834 30 102.501 30z" />
    <glyph glyph-name="ncommaaccent" unicode="&#x146;" horiz-adv-x="1139" 
d="M764 725c0 64.667 -30.333 97.001 -91 97.001c-42 0 -89.333 -23.333 -142 -70s-91.667 -99.334 -117 -158.001l-106 -594h-266l148 849l-89 25l13 66h334l-8 -175c103.333 133.333 230 200 380 200c66 0 118.333 -17.667 157 -53s58 -85 58 -149
c0 -34.667 -8.33301 -95.667 -25 -183l-87 -490l116 -24l-13 -66h-386l102 569c14.667 77.333 22 129.333 22 156zM457 -71.999c40 0 73.332 -13.332 99.999 -39.999s40 -62 40 -106c0 -79.333 -32.833 -145.333 -98.5 -198s-160.167 -88.334 -283.5 -107.001l13 69
c115.333 26.667 173 67.667 173 123c0 13.333 -4.5 25 -13.5 35l-29 31c-10.333 10.667 -20 22.5 -29 35.5s-13.5 29.167 -13.5 48.5c0 32.667 12.833 59 38.5 79s59.834 30 102.501 30z" />
    <glyph glyph-name="Ncaron" unicode="&#x147;" horiz-adv-x="1479" 
d="M1225 1242l-175 26l13 73h477l-13 -73l-177 -26l-218 -1242h-115l-541 1112l-181 -1012l175 -27l-12 -73h-477l12 73l177 27l201 1142l-167 26l13 73h433l435 -894zM1265 1778l-6 -33l-269 -293h-213l-166 293l6 33h76l220 -162l276 162h76z" />
    <glyph glyph-name="ncaron" unicode="&#x148;" horiz-adv-x="1139" 
d="M764 725c0 64.667 -30.333 97.001 -91 97.001c-42 0 -89.333 -23.333 -142 -70s-91.667 -99.334 -117 -158.001l-106 -594h-266l148 849l-89 25l13 66h334l-8 -175c103.333 133.333 230 200 380 200c66 0 118.333 -17.667 157 -53s58 -85 58 -149
c0 -34.667 -8.33301 -95.667 -25 -183l-87 -490l116 -24l-13 -66h-386l102 569c14.667 77.333 22 129.333 22 156zM1051 1444l-6 -33l-269 -293h-213l-166 293l6 33h76l220 -162l276 162h76z" />
    <glyph glyph-name="napostrophe" unicode="&#x149;" horiz-adv-x="1472" 
d="M1097 725c0 64.667 -30.333 97.001 -91 97.001c-42 0 -89.333 -23.333 -142 -70s-91.667 -99.334 -117 -158.001l-106 -594h-266l148 849l-89 25l13 66h334l-8 -175c103.333 133.333 230 200 380 200c66 0 118.333 -17.667 157 -53s58 -85 58 -149
c0 -34.667 -8.33301 -95.667 -25 -183l-87 -490l116 -24l-13 -66h-386l102 569c14.667 77.333 22 129.333 22 156zM416 1166c0 -104.667 -32.999 -193.166 -98.999 -265.499s-162 -124.833 -288 -157.5v92c37.333 10 69.666 25.167 96.999 45.5s48.333 43.166 63 68.499
s22 49.333 22 72c0 14.667 -4.83301 27.5 -14.5 38.5s-28.167 25.167 -55.5 42.5c-47.333 28.667 -71 70.667 -71 126c0 43.333 15 76.333 45 99s68 34 114 34c56 0 101.167 -18 135.5 -54s51.5 -83 51.5 -141z" />
    <glyph glyph-name="Eng" unicode="&#x14a;" horiz-adv-x="1605" 
d="M898 -20c-99.333 0 -177.667 10 -235 30l48 274h89l5 -165c23.333 -22 56 -33 98 -33c80 0 131.667 65.333 155 196l112 637c12 64 18 108 18 132c0 111.333 -57.667 167 -173 167c-99.333 0 -222.333 -34.667 -369 -104l-178 -1014l98 -15l-15 -85h-567l13 74l175 26
l201 1141l-166 27l13 73h453l-8 -122c88 45.333 168.833 78.666 242.5 99.999s145.5 32 215.5 32c118.667 0 208.667 -22.167 270 -66.5s92 -115.166 92 -212.499c0 -22 -7 -77.333 -21 -166l-84 -474c-26.667 -150.667 -78.167 -263.667 -154.5 -339
s-185.5 -113 -327.5 -113z" />
    <glyph glyph-name="eng" unicode="&#x14b;" horiz-adv-x="1107" 
d="M673 822c-42 0 -89.334 -23.333 -142.001 -70s-91.667 -99.334 -117 -158.001l-106 -594h-266l148 849l-89 25l13 66h334l-8 -175c103.333 133.333 230 200 380 200c67.333 0 120 -18.167 158 -54.5s57 -88.5 57 -156.5c0 -24.667 -5.66699 -68.667 -17 -132l-115 -661
c-22 -128 -69.167 -226.167 -141.5 -294.5s-167.833 -102.5 -286.5 -102.5c-59.333 0 -115.333 6 -168 18l39 225h63l23 -114c12.667 -12.667 28 -19 46 -19c34.667 0 64.834 22.333 90.501 67s45.5 107.334 59.5 188.001l114 640c14.667 77.333 22 129.333 22 156
c0 64.667 -30.333 97 -91 97z" />
    <glyph glyph-name="Omacron" unicode="&#x14c;" horiz-adv-x="1479" 
d="M1120 843c0 126.667 -25.333 226.332 -76 298.999s-121.334 109 -212.001 109c-81.333 0 -156.166 -33.333 -224.499 -100s-124.166 -163.167 -167.499 -289.5s-65 -251.833 -65 -376.5c0 -125.333 24.667 -223.666 74 -294.999s118.666 -107 207.999 -107
c83.333 0 159.333 33 228 99s125 161 169 285s66 249.333 66 376zM639 -20.002c-110.667 0 -208.833 22.833 -294.5 68.5s-152.167 110 -199.5 193s-71 177.167 -71 282.5c0 161.333 32.667 305.833 98 433.5s157.166 226 275.499 295s254.5 103.5 408.5 103.5
c110.667 0 208.834 -22.833 294.501 -68.5s152.167 -110 199.5 -193s71 -177.167 71 -282.5c0 -160 -33.5 -305.5 -100.5 -436.5s-158.667 -229.667 -275 -296s-251.833 -99.5 -406.5 -99.5zM578.001 1485l26 150h628l-26 -150h-628z" />
    <glyph glyph-name="omacron" unicode="&#x14d;" horiz-adv-x="1024" 
d="M683 625c0 160.667 -41.668 241.001 -125.001 241.001c-42 0 -83.5 -25.333 -124.5 -76s-74 -118.667 -99 -204s-37.5 -174.333 -37.5 -267c0 -76.667 12.333 -135.834 37 -177.501s56.334 -62.5 95.001 -62.5c42.667 0 84 24.667 124 74s71.667 116 95 200
s35 174.667 35 272zM405.999 -19.999c-113.333 0 -204 35.667 -272 107s-102 167 -102 287c0 108 23.333 207.333 70 298s111.834 162.167 195.501 214.5s177.834 78.5 282.501 78.5c113.333 0 204 -35.667 272 -107s102 -167 102 -287c0 -108 -23.333 -207.333 -70 -298
s-111.834 -162.167 -195.501 -214.5s-177.834 -78.5 -282.501 -78.5zM297.999 1151l26 150h628l-26 -150h-628z" />
    <glyph glyph-name="Obreve" unicode="&#x14e;" horiz-adv-x="1479" 
d="M1120 843c0 126.667 -25.333 226.332 -76 298.999s-121.334 109 -212.001 109c-81.333 0 -156.166 -33.333 -224.499 -100s-124.166 -163.167 -167.499 -289.5s-65 -251.833 -65 -376.5c0 -125.333 24.667 -223.666 74 -294.999s118.666 -107 207.999 -107
c83.333 0 159.333 33 228 99s125 161 169 285s66 249.333 66 376zM639 -20.002c-110.667 0 -208.833 22.833 -294.5 68.5s-152.167 110 -199.5 193s-71 177.167 -71 282.5c0 161.333 32.667 305.833 98 433.5s157.166 226 275.499 295s254.5 103.5 408.5 103.5
c110.667 0 208.834 -22.833 294.501 -68.5s152.167 -110 199.5 -193s71 -177.167 71 -282.5c0 -160 -33.5 -305.5 -100.5 -436.5s-158.667 -229.667 -275 -296s-251.833 -99.5 -406.5 -99.5zM885.001 1452c-80 0 -141.668 20.833 -185.001 62.5s-65 102.5 -65 182.5
c0 24.667 2 50.667 6 78h121c4.66699 -87.333 57 -131 157 -131s167.667 43.667 203 131h121c-20.667 -102.667 -62.167 -182.167 -124.5 -238.5s-140.166 -84.5 -233.499 -84.5z" />
    <glyph glyph-name="obreve" unicode="&#x14f;" horiz-adv-x="1024" 
d="M683 625c0 160.667 -41.668 241.001 -125.001 241.001c-42 0 -83.5 -25.333 -124.5 -76s-74 -118.667 -99 -204s-37.5 -174.333 -37.5 -267c0 -76.667 12.333 -135.834 37 -177.501s56.334 -62.5 95.001 -62.5c42.667 0 84 24.667 124 74s71.667 116 95 200
s35 174.667 35 272zM405.999 -19.999c-113.333 0 -204 35.667 -272 107s-102 167 -102 287c0 108 23.333 207.333 70 298s111.834 162.167 195.501 214.5s177.834 78.5 282.501 78.5c113.333 0 204 -35.667 272 -107s102 -167 102 -287c0 -108 -23.333 -207.333 -70 -298
s-111.834 -162.167 -195.501 -214.5s-177.834 -78.5 -282.501 -78.5zM605.999 1118c-80 0 -141.668 20.833 -185.001 62.5s-65 102.5 -65 182.5c0 24.667 2 50.667 6 78h121c4.66699 -87.333 57 -131 157 -131s167.667 43.667 203 131h121
c-20.667 -102.667 -62.167 -182.167 -124.5 -238.5s-140.166 -84.5 -233.499 -84.5z" />
    <glyph glyph-name="Ohungarumlaut" unicode="&#x150;" horiz-adv-x="1479" 
d="M1120 843c0 126.667 -25.333 226.332 -76 298.999s-121.334 109 -212.001 109c-81.333 0 -156.166 -33.333 -224.499 -100s-124.166 -163.167 -167.499 -289.5s-65 -251.833 -65 -376.5c0 -125.333 24.667 -223.666 74 -294.999s118.666 -107 207.999 -107
c83.333 0 159.333 33 228 99s125 161 169 285s66 249.333 66 376zM639 -20.002c-110.667 0 -208.833 22.833 -294.5 68.5s-152.167 110 -199.5 193s-71 177.167 -71 282.5c0 161.333 32.667 305.833 98 433.5s157.166 226 275.499 295s254.5 103.5 408.5 103.5
c110.667 0 208.834 -22.833 294.501 -68.5s152.167 -110 199.5 -193s71 -177.167 71 -282.5c0 -160 -33.5 -305.5 -100.5 -436.5s-158.667 -229.667 -275 -296s-251.833 -99.5 -406.5 -99.5zM624.001 1452l6 33l190 293h251l-7 -37l-343 -289h-97zM975.001 1452l6 33
l189 293h252l-7 -37l-344 -289h-96z" />
    <glyph glyph-name="ohungarumlaut" unicode="&#x151;" horiz-adv-x="1024" 
d="M683 625c0 160.667 -41.668 241.001 -125.001 241.001c-42 0 -83.5 -25.333 -124.5 -76s-74 -118.667 -99 -204s-37.5 -174.333 -37.5 -267c0 -76.667 12.333 -135.834 37 -177.501s56.334 -62.5 95.001 -62.5c42.667 0 84 24.667 124 74s71.667 116 95 200
s35 174.667 35 272zM405.999 -19.999c-113.333 0 -204 35.667 -272 107s-102 167 -102 287c0 108 23.333 207.333 70 298s111.834 162.167 195.501 214.5s177.834 78.5 282.501 78.5c113.333 0 204 -35.667 272 -107s102 -167 102 -287c0 -108 -23.333 -207.333 -70 -298
s-111.834 -162.167 -195.501 -214.5s-177.834 -78.5 -282.501 -78.5zM331.999 1118l6 33l190 293h251l-7 -37l-343 -289h-97zM682.999 1118l6 33l189 293h252l-7 -37l-344 -289h-96z" />
    <glyph glyph-name="OE" unicode="&#x152;" horiz-adv-x="1933" 
d="M636 -7c-169.333 0 -305.833 48.5 -409.5 145.5s-155.5 225.5 -155.5 385.5c0 158.667 31.833 301 95.5 427s154.667 223.833 273 293.5s256.166 104.5 413.499 104.5c60.667 0 127.667 -2.66699 201 -8h793l-60 -341h-91l6 217c-72.667 9.33301 -183.667 14 -333 14h-58
l-87 -492h213l57 148h89l-73 -412h-89l-4 152h-213l-91 -517h103c178.667 0 296.334 5.33301 353.001 16l100 248h91l-84 -374h-875c-80.667 -4.66699 -135.667 -7 -165 -7zM654 93c64.667 0 119.665 8 164.998 24l194 1102c-42 12.667 -75.667 20.667 -101 24
s-49.666 5 -72.999 5c-85.333 0 -163 -33.333 -233 -100s-126.5 -162.5 -169.5 -287.5s-64.5 -250.167 -64.5 -375.5c0 -123.333 24.333 -219.5 73 -288.5s118.334 -103.5 209.001 -103.5z" />
    <glyph glyph-name="oe" unicode="&#x153;" horiz-adv-x="1479" 
d="M1436 760c0 -60 -22 -115.332 -66 -165.999s-107.5 -92.334 -190.5 -125.001s-177.167 -53 -282.5 -61c-3.33301 -13.333 -5 -36 -5 -68c0 -157.333 60.333 -236 181 -236c49.333 0 95 9.5 137 28.5s81.333 40.833 118 65.5l44 -63
c-56.667 -47.333 -118.334 -85 -185.001 -113s-131 -42 -193 -42c-136 0 -231.667 42.333 -287 127c-84.667 -84.667 -190 -127 -316 -127c-230.667 0 -346 113.333 -346 340c0 114 20.5 223.667 61.5 329s100.333 184.333 178 237s173.834 79 288.501 79
c124 0 212.333 -44 265 -132c85.333 88 184.333 132 297 132c98 0 172.667 -18 224 -54s77 -86.333 77 -151zM660 696.001c0 56.667 -8.66895 98.8311 -26.002 126.498s-45.666 41.5 -84.999 41.5c-50 0 -90.833 -25.167 -122.5 -75.5s-59.5 -136.166 -83.5 -257.499
s-36 -217.666 -36 -288.999c0 -54 7.83301 -94.5 23.5 -121.5s42.5 -40.5 80.5 -40.5c51.333 0 93.833 26.333 127.5 79s62.334 138.667 86.001 258s35.5 212.333 35.5 279zM912.998 507.998c81.333 8.66699 148.169 38.168 200.502 88.501s78.5 109.166 78.5 176.499
c0 28 -6.83301 49 -20.5 63s-29.834 21 -48.501 21c-46 0 -88.833 -34 -128.5 -102s-66.834 -150.333 -81.501 -247z" />
    <glyph glyph-name="Racute" unicode="&#x154;" horiz-adv-x="1366" 
d="M552 568l-83 -468l167 -27l-12 -73h-627l12 73l164 27l201 1142l-167 26l13 73h535c174.667 0 304 -27.667 388 -83s126 -140.333 126 -255c0 -104 -28.167 -190.667 -84.5 -260s-137.833 -118.333 -244.5 -147l201 -496l147 -27l-12 -73h-400l-208 568h-116zM626 678
c109.333 0 195 27.168 257 81.501s93 130.166 93 227.499c0 86.667 -20.167 149 -60.5 187s-99.5 57 -177.5 57h-69l-98 -553h55zM644 1452l6 33l196 272h285l-4 -37l-397 -268h-86z" />
    <glyph glyph-name="racute" unicode="&#x155;" horiz-adv-x="797" 
d="M438 738c36.667 71.333 81.167 126.999 133.5 166.999s104.833 60 157.5 60c32 0 59.667 -3.33301 83 -10l-58 -337h-55l-44 137c-50 0 -93.667 -12.667 -131 -38s-73.333 -65.666 -108 -120.999l-105 -596h-269l150 850l-117 24l11 66h375zM404 1118l6 33l196 272h285
l-4 -37l-397 -268h-86z" />
    <glyph glyph-name="Rcommaaccent" unicode="&#x156;" horiz-adv-x="1366" 
d="M552 568l-83 -468l167 -27l-12 -73h-627l12 73l164 27l201 1142l-167 26l13 73h535c174.667 0 304 -27.667 388 -83s126 -140.333 126 -255c0 -104 -28.167 -190.667 -84.5 -260s-137.833 -118.333 -244.5 -147l201 -496l147 -27l-12 -73h-400l-208 568h-116zM626 678
c109.333 0 195 27.168 257 81.501s93 130.166 93 227.499c0 86.667 -20.167 149 -60.5 187s-99.5 57 -177.5 57h-69l-98 -553h55zM623 -71.999c40 0 73.332 -13.332 99.999 -39.999s40 -62 40 -106c0 -79.333 -32.833 -145.333 -98.5 -198s-160.167 -88.334 -283.5 -107.001
l13 69c115.333 26.667 173 67.667 173 123c0 13.333 -4.5 25 -13.5 35l-29 31c-10.333 10.667 -20 22.5 -29 35.5s-13.5 29.167 -13.5 48.5c0 32.667 12.833 59 38.5 79s59.834 30 102.501 30z" />
    <glyph glyph-name="rcommaaccent" unicode="&#x157;" horiz-adv-x="797" 
d="M438 738c36.667 71.333 81.167 126.999 133.5 166.999s104.833 60 157.5 60c32 0 59.667 -3.33301 83 -10l-58 -337h-55l-44 137c-50 0 -93.667 -12.667 -131 -38s-73.333 -65.666 -108 -120.999l-105 -596h-269l150 850l-117 24l11 66h375zM154 -72.001
c40 0 73.332 -13.332 99.999 -39.999s40 -62 40 -106c0 -79.333 -32.833 -145.333 -98.5 -198s-160.167 -88.334 -283.5 -107.001l13 69c115.333 26.667 173 67.667 173 123c0 13.333 -4.5 25 -13.5 35l-29 31c-10.333 10.667 -20 22.5 -29 35.5s-13.5 29.167 -13.5 48.5
c0 32.667 12.833 59 38.5 79s59.834 30 102.501 30z" />
    <glyph glyph-name="Rcaron" unicode="&#x158;" horiz-adv-x="1366" 
d="M552 568l-83 -468l167 -27l-12 -73h-627l12 73l164 27l201 1142l-167 26l13 73h535c174.667 0 304 -27.667 388 -83s126 -140.333 126 -255c0 -104 -28.167 -190.667 -84.5 -260s-137.833 -118.333 -244.5 -147l201 -496l147 -27l-12 -73h-400l-208 568h-116zM626 678
c109.333 0 195 27.168 257 81.501s93 130.166 93 227.499c0 86.667 -20.167 149 -60.5 187s-99.5 57 -177.5 57h-69l-98 -553h55zM1177 1778l-6 -33l-269 -293h-213l-166 293l6 33h76l220 -162l276 162h76z" />
    <glyph glyph-name="rcaron" unicode="&#x159;" horiz-adv-x="797" 
d="M438 738c36.667 71.333 81.167 126.999 133.5 166.999s104.833 60 157.5 60c32 0 59.667 -3.33301 83 -10l-58 -337h-55l-44 137c-50 0 -93.667 -12.667 -131 -38s-73.333 -65.666 -108 -120.999l-105 -596h-269l150 850l-117 24l11 66h375zM886 1444l-6 -33l-269 -293
h-213l-166 293l6 33h76l220 -162l276 162h76z" />
    <glyph glyph-name="Sacute" unicode="&#x15a;" horiz-adv-x="1139" 
d="M432 -20c-144.667 0 -276.334 23.667 -395.001 71l64 360h88l1 -215c22.667 -32.667 58 -60 106 -82s99 -33 153 -33c97.333 0 172.333 20.333 225 61s79 97 79 169c0 36 -8 67.333 -24 94s-37.167 50.834 -63.5 72.501s-56.166 42 -89.499 61l-102.5 58
c-35 19.667 -69.167 41 -102.5 64s-63.166 49.5 -89.499 79.5s-47.5 64.333 -63.5 103s-24 84 -24 136c0 122.667 44.5 216.167 133.5 280.5s218.833 96.5 389.5 96.5c114 0 226 -14.333 336 -43l-56 -319h-89l-7 196c-54 41.333 -124.333 62 -211 62
c-75.333 0 -134.5 -16.333 -177.5 -49s-64.5 -77.334 -64.5 -134.001c0 -40 14.5 -76.833 43.5 -110.5s74.167 -67.5 135.5 -101.5c89.333 -50 153.833 -88.167 193.5 -114.5s73.167 -54.5 100.5 -84.5s49.166 -64 65.499 -102s24.5 -82.333 24.5 -133
c0 -144 -49.5 -253.833 -148.5 -329.5s-242.5 -113.5 -430.5 -113.5zM582 1452l6 33l196 272h285l-4 -37l-397 -268h-86z" />
    <glyph glyph-name="sacute" unicode="&#x15b;" horiz-adv-x="797" 
d="M693 297c0 -101.333 -34.001 -179.499 -102.001 -234.499s-169.667 -82.5 -305 -82.5c-51.333 0 -106.5 5.83301 -165.5 17.5s-102.833 23.834 -131.5 36.501l46 261h66l15 -132c42.667 -60 101.667 -90 177 -90c54.667 0 98.334 14.5 131.001 43.5s49 65.167 49 108.5
c0 26 -8.83301 49.833 -26.5 71.5s-45.167 43.167 -82.5 64.5l-66 38c-74 41.333 -126.333 84.5 -157 129.5s-46 95.5 -46 151.5c0 190 125.667 285 377 285c78.667 0 166 -10.667 262 -32l-43 -241h-66l-13 110c-14 17.333 -34.667 33.166 -62 47.499s-58 21.5 -92 21.5
c-50.667 0 -87.834 -11.333 -111.501 -34s-35.5 -52.334 -35.5 -89.001c0 -26 9.83301 -50.333 29.5 -73s62.834 -52.667 129.501 -90c63.333 -35.333 108.833 -65.833 136.5 -91.5s49 -54.167 64 -85.5s22.5 -68.333 22.5 -111zM361.999 1118l6 33l196 272h285l-4 -37
l-397 -268h-86z" />
    <glyph glyph-name="Scircumflex" unicode="&#x15c;" horiz-adv-x="1139" 
d="M432 -20c-144.667 0 -276.334 23.667 -395.001 71l64 360h88l1 -215c22.667 -32.667 58 -60 106 -82s99 -33 153 -33c97.333 0 172.333 20.333 225 61s79 97 79 169c0 36 -8 67.333 -24 94s-37.167 50.834 -63.5 72.501s-56.166 42 -89.499 61l-102.5 58
c-35 19.667 -69.167 41 -102.5 64s-63.166 49.5 -89.499 79.5s-47.5 64.333 -63.5 103s-24 84 -24 136c0 122.667 44.5 216.167 133.5 280.5s218.833 96.5 389.5 96.5c114 0 226 -14.333 336 -43l-56 -319h-89l-7 196c-54 41.333 -124.333 62 -211 62
c-75.333 0 -134.5 -16.333 -177.5 -49s-64.5 -77.334 -64.5 -134.001c0 -40 14.5 -76.833 43.5 -110.5s74.167 -67.5 135.5 -101.5c89.333 -50 153.833 -88.167 193.5 -114.5s73.167 -54.5 100.5 -84.5s49.166 -64 65.499 -102s24.5 -82.333 24.5 -133
c0 -144 -49.5 -253.833 -148.5 -329.5s-242.5 -113.5 -430.5 -113.5zM374 1452l6 33l269 293h213l166 -293l-6 -33h-76l-220 162l-276 -162h-76z" />
    <glyph glyph-name="scircumflex" unicode="&#x15d;" horiz-adv-x="797" 
d="M693 297c0 -101.333 -34.001 -179.499 -102.001 -234.499s-169.667 -82.5 -305 -82.5c-51.333 0 -106.5 5.83301 -165.5 17.5s-102.833 23.834 -131.5 36.501l46 261h66l15 -132c42.667 -60 101.667 -90 177 -90c54.667 0 98.334 14.5 131.001 43.5s49 65.167 49 108.5
c0 26 -8.83301 49.833 -26.5 71.5s-45.167 43.167 -82.5 64.5l-66 38c-74 41.333 -126.333 84.5 -157 129.5s-46 95.5 -46 151.5c0 190 125.667 285 377 285c78.667 0 166 -10.667 262 -32l-43 -241h-66l-13 110c-14 17.333 -34.667 33.166 -62 47.499s-58 21.5 -92 21.5
c-50.667 0 -87.834 -11.333 -111.501 -34s-35.5 -52.334 -35.5 -89.001c0 -26 9.83301 -50.333 29.5 -73s62.834 -52.667 129.501 -90c63.333 -35.333 108.833 -65.833 136.5 -91.5s49 -54.167 64 -85.5s22.5 -68.333 22.5 -111zM178.999 1118l6 33l269 293h213l166 -293
l-6 -33h-76l-220 162l-276 -162h-76z" />
    <glyph glyph-name="Scedilla" unicode="&#x15e;" horiz-adv-x="1139" 
d="M432 -20c-144.667 0 -276.334 23.667 -395.001 71l64 360h88l1 -215c22.667 -32.667 58 -60 106 -82s99 -33 153 -33c97.333 0 172.333 20.333 225 61s79 97 79 169c0 36 -8 67.333 -24 94s-37.167 50.834 -63.5 72.501s-56.166 42 -89.499 61l-102.5 58
c-35 19.667 -69.167 41 -102.5 64s-63.166 49.5 -89.499 79.5s-47.5 64.333 -63.5 103s-24 84 -24 136c0 122.667 44.5 216.167 133.5 280.5s218.833 96.5 389.5 96.5c114 0 226 -14.333 336 -43l-56 -319h-89l-7 196c-54 41.333 -124.333 62 -211 62
c-75.333 0 -134.5 -16.333 -177.5 -49s-64.5 -77.334 -64.5 -134.001c0 -40 14.5 -76.833 43.5 -110.5s74.167 -67.5 135.5 -101.5c89.333 -50 153.833 -88.167 193.5 -114.5s73.167 -54.5 100.5 -84.5s49.166 -64 65.499 -102s24.5 -82.333 24.5 -133
c0 -144 -49.5 -253.833 -148.5 -329.5s-242.5 -113.5 -430.5 -113.5zM372 -432c-53.333 0 -102.999 9.66699 -148.999 29l37 97c36.667 -12.667 71 -19 103 -19c31.333 0 57.166 8.33301 77.499 25s30.5 39 30.5 67c0 52 -35.333 80.333 -106 85l86 195h91l-43 -110
c53.333 -7.33301 94.833 -24.5 124.5 -51.5s44.5 -60.833 44.5 -101.5c0 -66 -28 -118.5 -84 -157.5s-126.667 -58.5 -212 -58.5z" />
    <glyph glyph-name="scedilla" unicode="&#x15f;" horiz-adv-x="797" 
d="M693 297c0 -101.333 -34.001 -179.499 -102.001 -234.499s-169.667 -82.5 -305 -82.5c-51.333 0 -106.5 5.83301 -165.5 17.5s-102.833 23.834 -131.5 36.501l46 261h66l15 -132c42.667 -60 101.667 -90 177 -90c54.667 0 98.334 14.5 131.001 43.5s49 65.167 49 108.5
c0 26 -8.83301 49.833 -26.5 71.5s-45.167 43.167 -82.5 64.5l-66 38c-74 41.333 -126.333 84.5 -157 129.5s-46 95.5 -46 151.5c0 190 125.667 285 377 285c78.667 0 166 -10.667 262 -32l-43 -241h-66l-13 110c-14 17.333 -34.667 33.166 -62 47.499s-58 21.5 -92 21.5
c-50.667 0 -87.834 -11.333 -111.501 -34s-35.5 -52.334 -35.5 -89.001c0 -26 9.83301 -50.333 29.5 -73s62.834 -52.667 129.501 -90c63.333 -35.333 108.833 -65.833 136.5 -91.5s49 -54.167 64 -85.5s22.5 -68.333 22.5 -111zM206.999 -431.999
c-53.333 0 -102.999 9.66699 -148.999 29l37 97c36.667 -12.667 71 -19 103 -19c31.333 0 57.166 8.33301 77.499 25s30.5 39 30.5 67c0 52 -35.333 80.333 -106 85l86 195h91l-43 -110c53.333 -7.33301 94.833 -24.5 124.5 -51.5s44.5 -60.833 44.5 -101.5
c0 -66 -28 -118.5 -84 -157.5s-126.667 -58.5 -212 -58.5z" />
    <glyph glyph-name="Scaron" unicode="&#x160;" horiz-adv-x="1139" 
d="M432 -20c-144.667 0 -276.334 23.667 -395.001 71l64 360h88l1 -215c22.667 -32.667 58 -60 106 -82s99 -33 153 -33c97.333 0 172.333 20.333 225 61s79 97 79 169c0 36 -8 67.333 -24 94s-37.167 50.834 -63.5 72.501s-56.166 42 -89.499 61l-102.5 58
c-35 19.667 -69.167 41 -102.5 64s-63.166 49.5 -89.499 79.5s-47.5 64.333 -63.5 103s-24 84 -24 136c0 122.667 44.5 216.167 133.5 280.5s218.833 96.5 389.5 96.5c114 0 226 -14.333 336 -43l-56 -319h-89l-7 196c-54 41.333 -124.333 62 -211 62
c-75.333 0 -134.5 -16.333 -177.5 -49s-64.5 -77.334 -64.5 -134.001c0 -40 14.5 -76.833 43.5 -110.5s74.167 -67.5 135.5 -101.5c89.333 -50 153.833 -88.167 193.5 -114.5s73.167 -54.5 100.5 -84.5s49.166 -64 65.499 -102s24.5 -82.333 24.5 -133
c0 -144 -49.5 -253.833 -148.5 -329.5s-242.5 -113.5 -430.5 -113.5zM1086 1778l-6 -33l-269 -293h-213l-166 293l6 33h76l220 -162l276 162h76z" />
    <glyph glyph-name="scaron" unicode="&#x161;" horiz-adv-x="797" 
d="M693 297c0 -101.333 -34.001 -179.499 -102.001 -234.499s-169.667 -82.5 -305 -82.5c-51.333 0 -106.5 5.83301 -165.5 17.5s-102.833 23.834 -131.5 36.501l46 261h66l15 -132c42.667 -60 101.667 -90 177 -90c54.667 0 98.334 14.5 131.001 43.5s49 65.167 49 108.5
c0 26 -8.83301 49.833 -26.5 71.5s-45.167 43.167 -82.5 64.5l-66 38c-74 41.333 -126.333 84.5 -157 129.5s-46 95.5 -46 151.5c0 190 125.667 285 377 285c78.667 0 166 -10.667 262 -32l-43 -241h-66l-13 110c-14 17.333 -34.667 33.166 -62 47.499s-58 21.5 -92 21.5
c-50.667 0 -87.834 -11.333 -111.501 -34s-35.5 -52.334 -35.5 -89.001c0 -26 9.83301 -50.333 29.5 -73s62.834 -52.667 129.501 -90c63.333 -35.333 108.833 -65.833 136.5 -91.5s49 -54.167 64 -85.5s22.5 -68.333 22.5 -111zM865.999 1444l-6 -33l-269 -293h-213
l-166 293l6 33h76l220 -162l276 162h76z" />
    <glyph glyph-name="Tcommaaccent" unicode="&#x162;" horiz-adv-x="1251" 
d="M167 0l12 73l218 27l200 1135h-61c-37.333 0 -79.166 -2.33301 -125.499 -7s-79.5 -9 -99.5 -13l-75 -249h-87l66 375h1103l-66 -375h-88l13 249c-18.667 4 -52.834 8 -102.501 12s-90.5 6 -122.5 6h-59l-200 -1133l208 -27l-12 -73h-722zM401 -432
c-53.333 0 -102.999 9.66699 -148.999 29l37 97c36.667 -12.667 71 -19 103 -19c31.333 0 57.166 8.33301 77.499 25s30.5 39 30.5 67c0 52 -35.333 80.333 -106 85l86 195h91l-43 -110c53.333 -7.33301 94.833 -24.5 124.5 -51.5s44.5 -60.833 44.5 -101.5
c0 -66 -28 -118.5 -84 -157.5s-126.667 -58.5 -212 -58.5z" />
    <glyph glyph-name="tcommaaccent" unicode="&#x163;" horiz-adv-x="569" 
d="M428 106c22.667 0 59.332 8.66699 109.999 26l26 -70c-32.667 -23.333 -74.167 -42.833 -124.5 -58.5s-98.166 -23.5 -143.499 -23.5c-73.333 0 -129.833 17.5 -169.5 52.5s-59.5 85.833 -59.5 152.5c0 30.667 6 78.667 18 144l92 507h-115l11 65l142 39l139 213h146
l-38 -213h158l-18 -104h-158l-91 -509c-10.667 -54.667 -16 -94.667 -16 -120c0 -35.333 8.83301 -61 26.5 -77s39.167 -24 64.5 -24zM156.998 -432c-53.333 0 -102.999 9.66699 -148.999 29l37 97c36.667 -12.667 71 -19 103 -19c31.333 0 57.166 8.33301 77.499 25
s30.5 39 30.5 67c0 52 -35.333 80.333 -106 85l86 195h91l-43 -110c53.333 -7.33301 94.833 -24.5 124.5 -51.5s44.5 -60.833 44.5 -101.5c0 -66 -28 -118.5 -84 -157.5s-126.667 -58.5 -212 -58.5z" />
    <glyph glyph-name="Tcaron" unicode="&#x164;" horiz-adv-x="1251" 
d="M167 0l12 73l218 27l200 1135h-61c-37.333 0 -79.166 -2.33301 -125.499 -7s-79.5 -9 -99.5 -13l-75 -249h-87l66 375h1103l-66 -375h-88l13 249c-18.667 4 -52.834 8 -102.501 12s-90.5 6 -122.5 6h-59l-200 -1133l208 -27l-12 -73h-722zM1154 1778l-6 -33l-269 -293
h-213l-166 293l6 33h76l220 -162l276 162h76z" />
    <glyph glyph-name="tcaron" unicode="&#x165;" horiz-adv-x="1088" 
d="M428 106c22.667 0 59.332 8.66699 109.999 26l26 -70c-32.667 -23.333 -74.167 -42.833 -124.5 -58.5s-98.166 -23.5 -143.499 -23.5c-73.333 0 -129.833 17.5 -169.5 52.5s-59.5 85.833 -59.5 152.5c0 30.667 6 78.667 18 144l92 507h-115l11 65l142 39l139 213h146
l-38 -213h158l-18 -104h-158l-91 -509c-10.667 -54.667 -16 -94.667 -16 -120c0 -35.333 8.83301 -61 26.5 -77s39.167 -24 64.5 -24zM950.998 1421c47.333 0 85 -13.5 113 -40.5s42 -63.833 42 -110.5c0 -88.667 -36.167 -165.5 -108.5 -230.5
s-180.5 -115.167 -324.5 -150.5l15 80c64 16 115.167 39 153.5 69s57.5 60.667 57.5 92c0 16.667 -5.33301 30.834 -16 42.501s-22.5 23.167 -35.5 34.5s-24.833 24 -35.5 38s-16 31.667 -16 53c0 39.333 13.667 69.666 41 90.999s65.333 32 114 32z" />
    <glyph glyph-name="Tbar" unicode="&#x166;" horiz-adv-x="1251" 
d="M167 0l12 73l218 27l89 509h-279l21 122h280l89 504h-61c-37.333 0 -79.166 -2.33301 -125.499 -7s-79.5 -9 -99.5 -13l-75 -249h-87l66 375h1103l-66 -375h-88l13 249c-18.667 4 -52.834 8 -102.501 12s-90.5 6 -122.5 6h-59l-89 -502h281l-21 -122h-281l-90 -509
l208 -27l-12 -73h-722z" />
    <glyph glyph-name="tbar" unicode="&#x167;" horiz-adv-x="569" 
d="M177 836h-115.001l11 65l142 39l139 213h146l-38 -213h158l-18 -104h-158l-46 -255h167l-18 -104h-167l-27 -150c-10.667 -54.667 -16 -94.667 -16 -120c0 -35.333 8.83301 -61 26.5 -77s39.167 -24 64.5 -24c22.667 0 59.334 8.66699 110.001 26l26 -70
c-32.667 -23.333 -74.167 -42.833 -124.5 -58.5s-98.166 -23.5 -143.499 -23.5c-73.333 0 -129.833 17.5 -169.5 52.5s-59.5 85.833 -59.5 152.5c0 15.333 1.16699 32.5 3.5 51.5s16.166 99.167 41.499 240.5h-102l18 104h103z" />
    <glyph glyph-name="Utilde" unicode="&#x168;" horiz-adv-x="1479" 
d="M167 1268l13.001 73.001h619l-13 -73l-177 -26l-113 -656c-15.333 -86.667 -23 -152.334 -23 -197.001c0 -178 89 -267 267 -267c107.333 0 195.166 29 263.499 87s112.5 142.667 132.5 254l137 779l-175 26l13 73h456l-13 -73l-157 -26l-135 -771
c-30 -168.667 -92.5 -292.5 -187.5 -371.5s-223.5 -118.5 -385.5 -118.5c-162.667 0 -288.167 36.167 -376.5 108.5s-132.5 175.5 -132.5 309.5c0 42.667 6.66699 104 20 184l114 659zM1037 1424c-56.667 0 -117.001 29.333 -181.001 88c-32.667 30 -60 45 -82 45
c-25.333 0 -45 -8.66699 -59 -26s-27.333 -47 -40 -89h-99c44.667 191.333 134.334 287 269.001 287c35.333 0 67 -8 95 -24s57.333 -36.667 88 -62c34.667 -30 61.667 -45 81 -45c24.667 0 44 8.5 58 25.5s27.667 45.833 41 86.5h99
c-25.333 -101.333 -60.333 -174.333 -105 -219s-99.667 -67 -165 -67z" />
    <glyph glyph-name="utilde" unicode="&#x169;" horiz-adv-x="1139" 
d="M350 216c0 -64.667 30.334 -97.002 91.001 -97.002c42.667 0 90.667 23.833 144 71.5s91.666 99.834 114.999 156.501l106 593h266l-148 -849l109 -25l-13 -66h-354l8 176c-103.333 -133.333 -230 -200 -380 -200c-67.333 0 -120 18.167 -158 54.5s-57 88.5 -57 156.5
c0 12.667 2.16699 34.334 6.5 65.001s39.5 230 105.5 598l-116 24l13 66h386l-102 -568c-14.667 -76.667 -22 -128.667 -22 -156zM788.001 1090c-56.667 0 -117.001 29.333 -181.001 88c-32.667 30 -60 45 -82 45c-25.333 0 -45 -8.66699 -59 -26s-27.333 -47 -40 -89h-99
c44.667 191.333 134.334 287 269.001 287c35.333 0 67 -8 95 -24s57.333 -36.667 88 -62c34.667 -30 61.667 -45 81 -45c24.667 0 44 8.5 58 25.5s27.667 45.833 41 86.5h99c-25.333 -101.333 -60.333 -174.333 -105 -219s-99.667 -67 -165 -67z" />
    <glyph glyph-name="Umacron" unicode="&#x16a;" horiz-adv-x="1479" 
d="M167 1268l13.001 73.001h619l-13 -73l-177 -26l-113 -656c-15.333 -86.667 -23 -152.334 -23 -197.001c0 -178 89 -267 267 -267c107.333 0 195.166 29 263.499 87s112.5 142.667 132.5 254l137 779l-175 26l13 73h456l-13 -73l-157 -26l-135 -771
c-30 -168.667 -92.5 -292.5 -187.5 -371.5s-223.5 -118.5 -385.5 -118.5c-162.667 0 -288.167 36.167 -376.5 108.5s-132.5 175.5 -132.5 309.5c0 42.667 6.66699 104 20 184l114 659zM605.001 1485l26 150h628l-26 -150h-628z" />
    <glyph glyph-name="umacron" unicode="&#x16b;" horiz-adv-x="1139" 
d="M350 216c0 -64.667 30.334 -97.002 91.001 -97.002c42.667 0 90.667 23.833 144 71.5s91.666 99.834 114.999 156.501l106 593h266l-148 -849l109 -25l-13 -66h-354l8 176c-103.333 -133.333 -230 -200 -380 -200c-67.333 0 -120 18.167 -158 54.5s-57 88.5 -57 156.5
c0 12.667 2.16699 34.334 6.5 65.001s39.5 230 105.5 598l-116 24l13 66h386l-102 -568c-14.667 -76.667 -22 -128.667 -22 -156zM363.001 1151l26 150h628l-26 -150h-628z" />
    <glyph glyph-name="Ubreve" unicode="&#x16c;" horiz-adv-x="1479" 
d="M167 1268l13.001 73.001h619l-13 -73l-177 -26l-113 -656c-15.333 -86.667 -23 -152.334 -23 -197.001c0 -178 89 -267 267 -267c107.333 0 195.166 29 263.499 87s112.5 142.667 132.5 254l137 779l-175 26l13 73h456l-13 -73l-157 -26l-135 -771
c-30 -168.667 -92.5 -292.5 -187.5 -371.5s-223.5 -118.5 -385.5 -118.5c-162.667 0 -288.167 36.167 -376.5 108.5s-132.5 175.5 -132.5 309.5c0 42.667 6.66699 104 20 184l114 659zM890.001 1452c-80 0 -141.668 20.833 -185.001 62.5s-65 102.5 -65 182.5
c0 24.667 2 50.667 6 78h121c4.66699 -87.333 57 -131 157 -131s167.667 43.667 203 131h121c-20.667 -102.667 -62.167 -182.167 -124.5 -238.5s-140.166 -84.5 -233.499 -84.5z" />
    <glyph glyph-name="ubreve" unicode="&#x16d;" horiz-adv-x="1139" 
d="M350 216c0 -64.667 30.334 -97.002 91.001 -97.002c42.667 0 90.667 23.833 144 71.5s91.666 99.834 114.999 156.501l106 593h266l-148 -849l109 -25l-13 -66h-354l8 176c-103.333 -133.333 -230 -200 -380 -200c-67.333 0 -120 18.167 -158 54.5s-57 88.5 -57 156.5
c0 12.667 2.16699 34.334 6.5 65.001s39.5 230 105.5 598l-116 24l13 66h386l-102 -568c-14.667 -76.667 -22 -128.667 -22 -156zM671.001 1118c-80 0 -141.668 20.833 -185.001 62.5s-65 102.5 -65 182.5c0 24.667 2 50.667 6 78h121c4.66699 -87.333 57 -131 157 -131
s167.667 43.667 203 131h121c-20.667 -102.667 -62.167 -182.167 -124.5 -238.5s-140.166 -84.5 -233.499 -84.5z" />
    <glyph glyph-name="Uring" unicode="&#x16e;" horiz-adv-x="1479" 
d="M167 1268l13.001 73.001h619l-13 -73l-177 -26l-113 -656c-15.333 -86.667 -23 -152.334 -23 -197.001c0 -178 89 -267 267 -267c107.333 0 195.166 29 263.499 87s112.5 142.667 132.5 254l137 779l-175 26l13 73h456l-13 -73l-157 -26l-135 -771
c-30 -168.667 -92.5 -292.5 -187.5 -371.5s-223.5 -118.5 -385.5 -118.5c-162.667 0 -288.167 36.167 -376.5 108.5s-132.5 175.5 -132.5 309.5c0 42.667 6.66699 104 20 184l114 659zM940.001 1393c-58 0 -107.667 20.499 -149 61.499s-62 91.5 -62 151.5
s20.5 110.167 61.5 150.5s90.833 60.5 149.5 60.5s108.5 -20.167 149.5 -60.5s61.5 -90.5 61.5 -150.5c0 -59.333 -20.5 -109.666 -61.5 -150.999s-90.833 -62 -149.5 -62zM940.001 1705c-26 0 -48.833 -9.83301 -68.5 -29.5s-29.5 -42.834 -29.5 -69.501
c0 -26 9.83301 -48.833 29.5 -68.5s42.5 -29.5 68.5 -29.5s48.833 9.83301 68.5 29.5s29.5 42.5 29.5 68.5c0 26.667 -10 49.834 -30 69.501s-42.667 29.5 -68 29.5z" />
    <glyph glyph-name="uring" unicode="&#x16f;" horiz-adv-x="1139" 
d="M350 216c0 -64.667 30.334 -97.002 91.001 -97.002c42.667 0 90.667 23.833 144 71.5s91.666 99.834 114.999 156.501l106 593h266l-148 -849l109 -25l-13 -66h-354l8 176c-103.333 -133.333 -230 -200 -380 -200c-67.333 0 -120 18.167 -158 54.5s-57 88.5 -57 156.5
c0 12.667 2.16699 34.334 6.5 65.001s39.5 230 105.5 598l-116 24l13 66h386l-102 -568c-14.667 -76.667 -22 -128.667 -22 -156zM697.001 1059c-58 0 -107.667 20.499 -149 61.499s-62 91.5 -62 151.5s20.5 110.167 61.5 150.5s90.833 60.5 149.5 60.5
s108.5 -20.167 149.5 -60.5s61.5 -90.5 61.5 -150.5c0 -59.333 -20.5 -109.666 -61.5 -150.999s-90.833 -62 -149.5 -62zM697.001 1371c-26 0 -48.833 -9.83301 -68.5 -29.5s-29.5 -42.834 -29.5 -69.501c0 -26 9.83301 -48.833 29.5 -68.5s42.5 -29.5 68.5 -29.5
s48.833 9.83301 68.5 29.5s29.5 42.5 29.5 68.5c0 26.667 -10 49.834 -30 69.501s-42.667 29.5 -68 29.5z" />
    <glyph glyph-name="Uhungarumlaut" unicode="&#x170;" horiz-adv-x="1479" 
d="M167 1268l13.001 73.001h619l-13 -73l-177 -26l-113 -656c-15.333 -86.667 -23 -152.334 -23 -197.001c0 -178 89 -267 267 -267c107.333 0 195.166 29 263.499 87s112.5 142.667 132.5 254l137 779l-175 26l13 73h456l-13 -73l-157 -26l-135 -771
c-30 -168.667 -92.5 -292.5 -187.5 -371.5s-223.5 -118.5 -385.5 -118.5c-162.667 0 -288.167 36.167 -376.5 108.5s-132.5 175.5 -132.5 309.5c0 42.667 6.66699 104 20 184l114 659zM623.001 1452l6 33l190 293h251l-7 -37l-343 -289h-97zM974.001 1452l6 33l189 293h252
l-7 -37l-344 -289h-96z" />
    <glyph glyph-name="uhungarumlaut" unicode="&#x171;" horiz-adv-x="1139" 
d="M350 216c0 -64.667 30.334 -97.002 91.001 -97.002c42.667 0 90.667 23.833 144 71.5s91.666 99.834 114.999 156.501l106 593h266l-148 -849l109 -25l-13 -66h-354l8 176c-103.333 -133.333 -230 -200 -380 -200c-67.333 0 -120 18.167 -158 54.5s-57 88.5 -57 156.5
c0 12.667 2.16699 34.334 6.5 65.001s39.5 230 105.5 598l-116 24l13 66h386l-102 -568c-14.667 -76.667 -22 -128.667 -22 -156zM398.001 1118l6 33l190 293h251l-7 -37l-343 -289h-97zM749.001 1118l6 33l189 293h252l-7 -37l-344 -289h-96z" />
    <glyph glyph-name="Uogonek" unicode="&#x172;" horiz-adv-x="1479" 
d="M167 1268l13.001 73.001h619l-13 -73l-177 -26l-113 -656c-15.333 -86.667 -23 -152.334 -23 -197.001c0 -178 89 -267 267 -267c107.333 0 195.166 29 263.499 87s112.5 142.667 132.5 254l137 779l-175 26l13 73h456l-13 -73l-157 -26l-135 -771
c-30 -168.667 -92.5 -292.5 -187.5 -371.5s-223.5 -118.5 -385.5 -118.5c-162.667 0 -288.167 36.167 -376.5 108.5s-132.5 175.5 -132.5 309.5c0 42.667 6.66699 104 20 184l114 659zM793.001 -429.999c-72.667 0 -128.335 16.999 -167.002 50.999s-58 84 -58 150
c0 44.667 11.833 89.834 35.5 135.501s54.5 81.5 92.5 107.5h132c-21.333 -32.667 -39 -68.667 -53 -108s-21 -77 -21 -113c0 -75.333 34.667 -113 104 -113c34.667 0 71.334 8.66699 110.001 26l30 -83c-61.333 -35.333 -129.666 -53 -204.999 -53z" />
    <glyph glyph-name="uogonek" unicode="&#x173;" horiz-adv-x="1139" 
d="M350 216c0 -64.667 30.334 -97.002 91.001 -97.002c42.667 0 90.667 23.833 144 71.5s91.666 99.834 114.999 156.501l106 593h266l-148 -849l109 -25l-13 -66h-354l8 176c-103.333 -133.333 -230 -200 -380 -200c-67.333 0 -120 18.167 -158 54.5s-57 88.5 -57 156.5
c0 12.667 2.16699 34.334 6.5 65.001s39.5 230 105.5 598l-116 24l13 66h386l-102 -568c-14.667 -76.667 -22 -128.667 -22 -156zM783.001 -430.002c-72.667 0 -128.335 16.999 -167.002 50.999s-58 84 -58 150c0 44.667 11.833 89.834 35.5 135.501s54.5 81.5 92.5 107.5
h132c-21.333 -32.667 -39 -68.667 -53 -108s-21 -77 -21 -113c0 -75.333 34.667 -113 104 -113c34.667 0 71.334 8.66699 110.001 26l30 -83c-61.333 -35.333 -129.666 -53 -204.999 -53z" />
    <glyph glyph-name="Wcircumflex" unicode="&#x174;" horiz-adv-x="1821" 
d="M1214 -31h-94l-158 848l-402 -848h-101l-188 1273l-130 26l13 73h564l-13 -73l-162 -26l106 -814l397 829h100l152 -834l362 819l-164 26l13 73h432l-13 -73l-122 -26zM757 1452l6 33l269 293h213l166 -293l-6 -33h-76l-220 162l-276 -162h-76z" />
    <glyph glyph-name="wcircumflex" unicode="&#x175;" horiz-adv-x="1366" 
d="M1171 775c0 46.667 -21.333 76.666 -64 89.999l-36 10l12 65h245c20.667 -16 31 -43 31 -81c0 -59.333 -22.333 -126.666 -67 -201.999l-402 -677h-119l-103 538l-296 -538h-133l-171 870l-80 24l11 66h304l126 -658l309 564h100l112 -564l165 298
c13.333 24.667 26 57.167 38 97.5s18 72.833 18 97.5zM450 1118l6 33l269 293h213l166 -293l-6 -33h-76l-220 162l-276 -162h-76z" />
    <glyph glyph-name="Ycircumflex" unicode="&#x176;" horiz-adv-x="1251" 
d="M702 100l208 -27l-12 -73h-722l12 73l218 27l79 442l-234 700l-146 26l13 73h636l-13 -73l-185 -26l178 -556l364 556l-159 26l13 73h456l-13 -73l-147 -26l-466 -694zM471 1452l6 33l269 293h213l166 -293l-6 -33h-76l-220 162l-276 -162h-76z" />
    <glyph glyph-name="ycircumflex" unicode="&#x177;" horiz-adv-x="909" 
d="M915 877c0 -60 -27 -133.331 -81 -219.998l-439 -716c-64 -104.667 -117.833 -181.834 -161.5 -231.501s-88.167 -87.334 -133.5 -113.001s-93.333 -38.5 -144 -38.5c-34 0 -61.167 1.16699 -81.5 3.5s-46.833 7.5 -79.5 15.5l42 242h60l20 -126
c16.667 -15.333 40 -23 70 -23c40 0 83.667 23 131 69s108 131.333 182 256l-214 855l-61 24l11 66h303l152 -639l181 300c18 29.333 33.167 61.5 45.5 96.5s18.5 62.833 18.5 83.5c0 17.333 -2.83301 31.5 -8.5 42.5s-13.167 20.167 -22.5 27.5s-29 15.333 -59 24l12 65
h231c17.333 -15.333 26 -36.333 26 -63zM237 1118l6 33l269 293h213l166 -293l-6 -33h-76l-220 162l-276 -162h-76z" />
    <glyph glyph-name="Ydieresis" unicode="&#x178;" horiz-adv-x="1251" 
d="M702 100l208 -27l-12 -73h-722l12 73l218 27l79 442l-234 700l-146 26l13 73h636l-13 -73l-185 -26l178 -556l364 556l-159 26l13 73h456l-13 -73l-147 -26l-466 -694zM1035 1531c-32 0 -60.167 11.833 -84.5 35.5s-36.5 52.167 -36.5 85.5s12.167 61.5 36.5 84.5
s52.5 34.5 84.5 34.5c32.667 0 60.667 -11.333 84 -34s35 -51 35 -85c0 -33.333 -11.667 -61.833 -35 -85.5s-51.333 -35.5 -84 -35.5zM679 1531c-32 0 -60.167 12.333 -84.5 37s-36.5 52.667 -36.5 84c0 32 12 59.833 36 83.5s52.333 35.5 85 35.5s60.667 -11.833 84 -35.5
s35 -51.5 35 -83.5c0 -33.333 -11.667 -61.833 -35 -85.5s-51.333 -35.5 -84 -35.5z" />
    <glyph glyph-name="Zacute" unicode="&#x179;" horiz-adv-x="1251" 
d="M841 1235l-192 -0.000976562c-66 0 -126 -2.16699 -180 -6.5s-91.667 -8.83301 -113 -13.5l-68 -211h-89l59 337h941l-19 -106l-823 -1131h187c72.667 0 148.5 3.83301 227.5 11.5s133.167 14.834 162.5 21.501l104 256h90l-96 -393h-1037l20 114zM597 1452l6 33l196 272
h285l-4 -37l-397 -268h-86z" />
    <glyph glyph-name="zacute" unicode="&#x17a;" horiz-adv-x="797" 
d="M-58 0l8.00195 50l516 800h-70c-36 0 -71.5 -3.16699 -106.5 -9.5s-60.833 -14.833 -77.5 -25.5l-60 -155h-72l49 280h660l-9 -54l-516 -796h83c37.333 0 76.666 4.5 117.999 13.5s72.666 20.167 93.999 33.5l82 178h72l-74 -315h-697zM357.002 1118l6 33l196 272h285
l-4 -37l-397 -268h-86z" />
    <glyph glyph-name="Zdotaccent" unicode="&#x17b;" horiz-adv-x="1251" 
d="M841 1235l-192 -0.000976562c-66 0 -126 -2.16699 -180 -6.5s-91.667 -8.83301 -113 -13.5l-68 -211h-89l59 337h941l-19 -106l-823 -1131h187c72.667 0 148.5 3.83301 227.5 11.5s133.167 14.834 162.5 21.501l104 256h90l-96 -393h-1037l20 114zM593 1625
c0 43.333 15.165 79.668 45.498 109.001s66.5 44 108.5 44c42.667 0 78.834 -14.833 108.501 -44.5s44.5 -65.834 44.5 -108.501c0 -42 -14.667 -78.167 -44 -108.5s-65.666 -45.5 -108.999 -45.5c-42.667 0 -79 14.833 -109 44.5s-45 66.167 -45 109.5z" />
    <glyph glyph-name="zdotaccent" unicode="&#x17c;" horiz-adv-x="797" 
d="M-58 0l8.00195 50l516 800h-70c-36 0 -71.5 -3.16699 -106.5 -9.5s-60.833 -14.833 -77.5 -25.5l-60 -155h-72l49 280h660l-9 -54l-516 -796h83c37.333 0 76.666 4.5 117.999 13.5s72.666 20.167 93.999 33.5l82 178h72l-74 -315h-697zM343.002 1291
c0 43.333 15.165 79.668 45.498 109.001s66.5 44 108.5 44c42.667 0 78.834 -14.833 108.501 -44.5s44.5 -65.834 44.5 -108.501c0 -42 -14.667 -78.167 -44 -108.5s-65.666 -45.5 -108.999 -45.5c-42.667 0 -79 14.833 -109 44.5s-45 66.167 -45 109.5z" />
    <glyph glyph-name="Zcaron" unicode="&#x17d;" horiz-adv-x="1251" 
d="M841 1235l-192 -0.000976562c-66 0 -126 -2.16699 -180 -6.5s-91.667 -8.83301 -113 -13.5l-68 -211h-89l59 337h941l-19 -106l-823 -1131h187c72.667 0 148.5 3.83301 227.5 11.5s133.167 14.834 162.5 21.501l104 256h90l-96 -393h-1037l20 114zM1111 1778l-6 -33
l-269 -293h-213l-166 293l6 33h76l220 -162l276 162h76z" />
    <glyph glyph-name="zcaron" unicode="&#x17e;" horiz-adv-x="797" 
d="M-58 0l8.00195 50l516 800h-70c-36 0 -71.5 -3.16699 -106.5 -9.5s-60.833 -14.833 -77.5 -25.5l-60 -155h-72l49 280h660l-9 -54l-516 -796h83c37.333 0 76.666 4.5 117.999 13.5s72.666 20.167 93.999 33.5l82 178h72l-74 -315h-697zM833.002 1444l-6 -33l-269 -293
h-213l-166 293l6 33h76l220 -162l276 162h76z" />
    <glyph glyph-name="longs" unicode="&#x17f;" horiz-adv-x="682" 
d="M693 1442c60.667 0 113.669 -7.00098 159.002 -21.001l-39 -222h-64l-12 109c-14 16 -32.667 24 -56 24c-36.667 0 -66.334 -19.167 -89.001 -57.5s-40.667 -97.166 -54 -176.499l-269 -1534h-269l264 1502c21.333 126 67.166 220.167 137.499 282.5
s167.5 93.5 291.5 93.5z" />
    <glyph glyph-name="uni0180" unicode="&#x180;" horiz-adv-x="1024" 
d="M449 -23c-72.667 0 -146.832 6 -222.499 18s-142.167 29.667 -199.5 53l186 1054h-117l18 104h117l23 127l-92 23l11 65h365l-38 -215h303l-18 -104h-304c-26.667 -154.667 -47 -256.334 -61 -305.001c40.667 54 85.167 95.5 133.5 124.5s97.5 43.5 147.5 43.5
c80 0 143.667 -29.833 191 -89.5s71 -141.167 71 -244.5c0 -117.333 -22.833 -227.166 -68.5 -329.499s-107.334 -182 -185.001 -239s-164.5 -85.5 -260.5 -85.5zM700.002 587c0 70 -11.166 125.168 -33.499 165.501s-51.5 60.5 -87.5 60.5
c-24 0 -51.833 -12.833 -83.5 -38.5s-61.834 -59.167 -90.501 -100.5l-97 -550c13.333 -12.667 33 -23.834 59 -33.501s49.333 -14.5 70 -14.5c46 0 89.333 24 130 72s73 112.167 97 192.5s36 162.5 36 246.5z" />
    <glyph glyph-name="uni0181" unicode="&#x181;" horiz-adv-x="1464" 
d="M746 -6l-345.001 6.00098h-322l12 73l178 27l199 1131h-34c-52.667 0 -96.667 -7.5 -132 -22.5s-64.666 -42.167 -87.999 -81.5l-71 -121h-87l57 286c72 32.667 170 49 294 49h495c324 0 486 -97.667 486 -293c0 -94 -29.5 -169.167 -88.5 -225.5
s-141.833 -91.833 -248.5 -106.5c101.333 -8.66699 180.833 -40.834 238.5 -96.501s86.5 -127.5 86.5 -215.5c0 -139.333 -52.5 -242.5 -157.5 -309.5s-262.5 -100.5 -472.5 -100.5zM751.999 104.001c112.667 0 195.334 24.501 248.001 73.501s79 124.833 79 227.5
c0 81.333 -25.333 143.166 -76 185.499s-126.334 63.5 -227.001 63.5h-114l-96 -544c70 -4 132 -6 186 -6zM774.999 764.002c210.667 0 316 90.333 316 271c0 63.333 -20.167 111.833 -60.5 145.5s-99.5 50.5 -177.5 50.5h-89l-83 -467h94z" />
    <glyph glyph-name="uni0182" unicode="&#x182;" horiz-adv-x="1301" 
d="M581 755l95 0.000976562c166.667 0 292.667 -28.167 378 -84.5s128 -144.833 128 -265.5c0 -136.667 -51.333 -238.334 -154 -305.001s-262 -100 -478 -100h-568l13 73l176 26l201 1142l-157 27l14 73h1015l-55 -365h-83l-14 239c-25.333 5.33301 -66.5 10 -123.5 14
s-114.5 6 -172.5 6h-130zM562 645.001l-94 -535h65c127.333 0 217.5 23.833 270.5 71.5s79.5 124.5 79.5 230.5c0 76 -20.667 133.833 -62 173.5s-107.333 59.5 -198 59.5h-61z" />
    <glyph glyph-name="uni0183" unicode="&#x183;" horiz-adv-x="1024" 
d="M449 -23c-72.667 0 -146.832 5.99902 -222.499 17.999s-142.167 29.667 -199.5 53l227 1285l-92 23l11 65h817l-34 -268h-77l-28 146c-31.333 5.33301 -72.166 9.83301 -122.499 13.5s-91.5 5.5 -123.5 5.5h-85l-60.5 -342.5c-13.667 -77 -26.834 -136.5 -39.501 -178.5
c40.667 54 85.167 95.5 133.5 124.5s97.5 43.5 147.5 43.5c80 0 143.667 -29.833 191 -89.5s71 -141.167 71 -244.5c0 -117.333 -22.833 -227.166 -68.5 -329.499s-107.334 -182 -185.001 -239s-164.5 -85.5 -260.5 -85.5zM700.002 586.999
c0 70 -11.166 125.168 -33.499 165.501s-51.5 60.5 -87.5 60.5c-24 0 -51.833 -12.833 -83.5 -38.5s-61.834 -59.167 -90.501 -100.5l-97 -550c13.333 -12.667 33 -23.834 59 -33.501s49.333 -14.5 70 -14.5c46 0 89.333 24 130 72s73 112.167 97 192.5s36 162.5 36 246.5z
" />
    <glyph glyph-name="uni0184" unicode="&#x184;" horiz-adv-x="1298" 
d="M309 879l-165 162.001l12 73l444 227h83l-102 -586h95c166.667 0 292.667 -28.167 378 -84.5s128 -144.833 128 -265.5c0 -136.667 -51.333 -238.334 -154 -305.001s-262 -100 -478 -100h-568l13 73l176 26zM562 645.001l-94 -535h65c127.333 0 217.5 23.833 270.5 71.5
s79.5 124.5 79.5 230.5c0 76 -20.667 133.833 -62 173.5s-107.333 59.5 -198 59.5h-61z" />
    <glyph glyph-name="uni0185" unicode="&#x185;" horiz-adv-x="1024" 
d="M700 587c0 70 -11.166 125.168 -33.499 165.501s-51.5 60.5 -87.5 60.5c-24 0 -51.833 -12.833 -83.5 -38.5s-61.834 -59.167 -90.501 -100.5l-97 -550c13.333 -12.667 33 -23.834 59 -33.501s49.333 -14.5 70 -14.5c46 0 89.333 24 130 72s73 112.167 97 192.5
s36 162.5 36 246.5zM420.001 797.001c40.667 54 85.1689 95.499 133.502 124.499s97.5 43.5 147.5 43.5c80 0 143.667 -29.833 191 -89.5s71 -141.167 71 -244.5c0 -117.333 -22.833 -227.166 -68.5 -329.499s-107.334 -182 -185.001 -239s-164.5 -85.5 -260.5 -85.5
c-72.667 0 -146.834 6 -222.501 18s-142.167 29.667 -199.5 53l156 886l-94 155l11 65l373 267h65l-76 -430c-12.667 -78 -26.667 -142.667 -42 -194z" />
    <glyph glyph-name="uni0186" unicode="&#x186;" horiz-adv-x="1366" 
d="M708 1376c190 0 337.498 -49.166 442.498 -147.499s157.5 -232.833 157.5 -403.5c0 -164.667 -34.667 -309.334 -104 -434.001s-168.166 -221 -296.499 -289s-275.5 -102 -441.5 -102c-150.667 -0 -308.334 17.333 -473.001 52l53 337h84v-194
c36 -28.667 79.5 -50.834 130.5 -66.501s104.5 -23.5 160.5 -23.5c110 0 208.833 30.667 296.5 92s155.834 147.833 204.501 259.5s73 237.5 73 377.5c0 138 -30.667 245.667 -92 323s-147.666 116 -258.999 116c-66 0 -132.167 -9.5 -198.5 -28.5
s-119.166 -43.167 -158.499 -72.5l-77 -220h-85l66 340c75.333 24.667 158.666 44.834 249.999 60.501s180.333 23.5 267 23.5z" />
    <glyph glyph-name="uni0187" unicode="&#x187;" horiz-adv-x="1366" 
d="M1269 1324c20 104.667 58.668 183.833 116.001 237.5s131 80.5 221 80.5c84.667 0 152 -10 202 -30l-43 -244h-75l-10 115c-9.33301 15.333 -24.5 27.333 -45.5 36s-45.167 13 -72.5 13c-44.667 0 -81.5 -16 -110.5 -48s-48.5 -79.333 -58.5 -142l-61 -375h-84v194
c-36 28.667 -79.5 50.834 -130.5 66.501s-104.5 23.5 -160.5 23.5c-110 0 -208.833 -30.667 -296.5 -92s-155.834 -147.833 -204.501 -259.5s-73 -237.5 -73 -377.5c0 -138 30.667 -245.667 92 -323s147.666 -116 258.999 -116c65.333 0 131 9.5 197 28.5
s119.333 43.167 160 72.5l77 220h85l-66 -340c-75.333 -24.667 -158.666 -44.834 -249.999 -60.501s-180.333 -23.5 -267 -23.5c-190 0 -337.5 49.167 -442.5 147.5s-157.5 232.833 -157.5 403.5c0 164 34.667 308.5 104 433.5s168.333 221.5 297 289.5s275.667 102 441 102
c111.333 0 230.333 -10.667 357 -32z" />
    <glyph glyph-name="uni0188" unicode="&#x188;" horiz-adv-x="909" 
d="M762 951c22.667 93.333 62.667 165.167 120 215.5s127.333 75.5 210 75.5c84.667 0 152 -10 202 -30l-43 -244h-66l-6 139c-9.33301 15.333 -25 27.333 -47 36s-47 13 -75 13c-46 0 -84 -15.833 -114 -47.5s-50 -79.167 -60 -142.5l-53 -334h-72l-14 171
c-36 40 -84.667 60 -146 60c-52.667 0 -102.5 -23.5 -149.5 -70.5s-83.833 -110.667 -110.5 -191s-40 -167.5 -40 -261.5c0 -74.667 14.667 -132.667 44 -174s72.333 -62 129 -62c50 0 95.5 9 136.5 27s80.5 40.333 118.5 67l44 -63
c-54.667 -48.667 -115.5 -86.667 -182.5 -114s-132.5 -41 -196.5 -41c-114.667 0 -203.5 31 -266.5 93s-94.5 147.667 -94.5 257c0 123.333 24.5 233.333 73.5 330s116.5 171.667 202.5 225s179 80 279 80c68.667 0 127.667 -4.66699 177 -14z" />
    <glyph glyph-name="uni0189" unicode="&#x189;" horiz-adv-x="1479" 
d="M1431 788c0 -159.333 -33.833 -299.167 -101.5 -419.5s-164.667 -212.5 -291 -276.5s-272.833 -96 -439.5 -96l-419 4h-195l12 73l177 27l89 509h-172l22 122h172l90 511l-167 26l13 73h521c224.667 0 395.667 -47.833 513 -143.5s176 -232.167 176 -409.5zM1120 773.999
c0 304.667 -138.334 457 -415.001 457h-37l-88 -500h257l-21 -122h-258l-87 -495c56.667 -5.33301 98 -8 124 -8c162.667 0 290.834 59.667 384.501 179s140.5 282.333 140.5 489z" />
    <glyph glyph-name="uni018A" unicode="&#x18a;" horiz-adv-x="1599" 
d="M493 1231l-34.001 -0.000976562c-52.667 0 -96.667 -7.5 -132 -22.5s-64.666 -42.167 -87.999 -81.5l-71 -121h-87l57 286c72 32.667 170 49 294 49h430c224.667 0 395.667 -47.833 513 -143.5s176 -232.167 176 -409.5c0 -159.333 -33.833 -299.166 -101.5 -419.499
s-164.667 -212.5 -291 -276.5s-272.833 -96 -439.5 -96l-419 4h-195l12 73l177 27zM1240 773.999c0 304.667 -138.334 457 -415.001 457h-37l-197 -1117c56.667 -5.33301 98 -8 124 -8c162.667 0 290.834 59.667 384.501 179s140.5 282.333 140.5 489z" />
    <glyph glyph-name="uni018B" unicode="&#x18b;" horiz-adv-x="1298" 
d="M1118 0h-616c-165.333 0 -289.5 27.5 -372.5 82.5s-124.5 140.167 -124.5 255.5c0 135.333 54.333 240 163 314s265 111 469 111h130l83 472h-143c-140 0 -245.667 -6.66699 -317 -20l-91 -204h-90l70 330h1077l-13 -73l-177 -27l-201 -1142l166 -26zM650 104l97 549h-87
c-100.667 0 -180 -29.833 -238 -89.5s-87 -141.5 -87 -245.5c0 -68.667 18.333 -121.5 55 -158.5s91 -55.5 163 -55.5h97z" />
    <glyph glyph-name="uni018C" unicode="&#x18c;" horiz-adv-x="1024" 
d="M812 85l99.001 -25l-12 -60h-332l-7 144c-39.333 -52.667 -84.333 -93.167 -135 -121.5s-100.334 -42.5 -149.001 -42.5c-76 0 -137 29.333 -183 88s-69 139.334 -69 242.001c0 118 21.5 227.333 64.5 328s103.333 180.167 181 238.5s163.834 87.5 258.501 87.5
c72.667 0 130.667 -9.33301 174 -28c2.66699 30.667 5 54.667 7 72s19 120.666 51 309.999h-85c-30 0 -71.333 -1.83301 -124 -5.5s-95.334 -8.16699 -128.001 -13.5l-80 -146h-77l60 268h817l-11 -65l-100 -23zM287.001 354c0 -72 9.50098 -127.665 28.501 -166.998
s43.833 -59 74.5 -59c25.333 0 55.833 13.333 91.5 40s67.5 59.667 95.5 99l97 550c-13.333 13.333 -33.833 24.666 -61.5 33.999s-51.834 14 -72.501 14c-45.333 0 -87.5 -23.667 -126.5 -71s-69.833 -111.333 -92.5 -192s-34 -163.334 -34 -248.001z" />
    <glyph glyph-name="uni018D" unicode="&#x18d;" horiz-adv-x="1049" 
d="M607 964c116.667 0 208.169 -32.1641 274.502 -96.4971s99.5 -152.166 99.5 -263.499c0 -118.667 -38.333 -220.834 -115 -306.501s-191 -149.834 -343 -192.501c97.333 -100.667 146 -197 146 -289c0 -80 -34.333 -142.167 -103 -186.5s-166 -66.5 -292 -66.5
c-74.667 0 -158 12.667 -250 38l38 223h67l23 -114c13.333 -15.333 32.166 -27 56.499 -35s50.166 -12 77.499 -12c40 0 72.5 11.5 97.5 34.5s37.5 58.5 37.5 106.5c0 23.333 -5.16699 46.666 -15.5 69.999s-24.666 47 -42.999 71s-60.5 68 -126.5 132
c-60.667 62 -105.334 124.833 -134.001 188.5s-43 131.5 -43 203.5c0 89.333 23.667 173.166 71 251.499s112 138.5 194 180.5s176.333 63 283 63zM584.002 865.003c-50 0 -93.999 -16.1689 -131.999 -48.502s-67.833 -81.166 -89.5 -146.499s-32.5 -134.333 -32.5 -207
c0 -102.667 41.667 -192.334 125 -269.001c86 34.667 151 93.834 195 177.501s66 175.834 66 276.501c0 70.667 -11.333 124.5 -34 161.5s-55.334 55.5 -98.001 55.5z" />
    <glyph glyph-name="uni018E" unicode="&#x18e;" horiz-adv-x="1366" 
d="M1187 0h-1207l47 374h91l13 -248c53.333 -10.667 165.333 -16 336 -16h253l91 517h-351l-58 -152h-89l73 412h89l5 -148h351l86 492h-208c-142.667 0 -251.334 -4.66699 -326.001 -14l-70 -217h-91l60 341h1142l-13 -73l-177 -26l-201 -1142l167 -27z" />
    <glyph glyph-name="uni018F" unicode="&#x18f;" horiz-adv-x="1479" 
d="M804 1255c-132 0 -247.333 -31.334 -346 -94.001l-58 -194h-90l63 322c166.667 44.667 323.667 67 471 67c190 0 333.667 -44.833 431 -134.5s146 -223.5 146 -401.5c0 -172 -32 -321.333 -96 -448s-155.167 -223.667 -273.5 -291s-254.833 -101 -409.5 -101
c-184 0 -324.833 46.333 -422.5 139s-146.5 227.334 -146.5 404.001c0 71.333 9 145.333 27 222h1014c8 54 12 104 12 150c0 116 -25.5 205 -76.5 267s-132.833 93 -245.5 93zM650 79.999c109.333 0 203.5 49.168 282.5 147.501s133.5 234.166 163.5 407.499h-704
c-14 -84 -21 -159.667 -21 -227c0 -218.667 93 -328 279 -328z" />
    <glyph glyph-name="uni0190" unicode="&#x190;" horiz-adv-x="1042" 
d="M5 309c0 228.667 137.668 359.665 413.001 392.998c-76.667 11.333 -136.834 41 -180.501 89s-65.5 108.667 -65.5 182c0 126.667 47.5 222.167 142.5 286.5s232.5 96.5 412.5 96.5c122 0 238 -14.333 348 -43l-54 -305h-87l-9 194c-20 16 -47.833 28.667 -83.5 38
s-70.5 14 -104.5 14c-84.667 0 -148.5 -25 -191.5 -75s-64.5 -123.667 -64.5 -221c0 -60.667 14.333 -106.5 43 -137.5s67.667 -48.167 117 -51.5l115 -8l-22 -121l-121 -7c-97.333 -5.33301 -170.833 -36.166 -220.5 -92.499s-74.5 -136.166 -74.5 -239.499
c0 -146.667 74.667 -220 224 -220c29.333 0 65 4.33301 107 13s77.667 20.667 107 36l90 215h92l-69 -325c-116 -26.667 -241.667 -40 -377 -40c-154.667 0 -274.5 29.167 -359.5 87.5s-127.5 138.833 -127.5 241.5z" />
    <glyph glyph-name="uni0191" unicode="&#x191;" horiz-adv-x="1366" 
d="M375 1242l-166.998 26.001l13 73h1111l-64 -361h-94l10 237c-32.667 4.66699 -91.5 8.16699 -176.5 10.5s-151.833 3.5 -200.5 3.5h-138l-93 -529h363l61 170h89l-80 -452h-89l-1 172h-363l-103 -582c-26 -146.667 -86 -258.667 -180 -336s-214.333 -116 -361 -116
c-50.667 0 -100.167 3 -148.5 9s-84.5 13 -108.5 21l54 304h89l-2 -179c21.333 -32.667 61.666 -49 120.999 -49c51.333 0 97.666 17.667 138.999 53s67 81.666 77 138.999z" />
    <glyph glyph-name="florin" unicode="&#x192;" horiz-adv-x="1024" 
d="M160 -285l171 978.001h-169l15 69l173 34l39 226c17.333 104.667 57.166 187.5 119.499 248.5s141.5 91.5 237.5 91.5c85.333 0 154 -6.33301 206 -19l-10 -224h-64l-28 113c-18 13.333 -39 20 -63 20c-26.667 0 -48.167 -15.333 -64.5 -46
s-33.166 -92.334 -50.499 -185.001l-40 -224h239l-19 -104h-239l-171 -978h-282z" />
    <glyph glyph-name="uni0193" unicode="&#x193;" horiz-adv-x="1479" 
d="M1282 1324c20 104.667 58.667 183.835 116 237.502s131 80.5 221 80.5c84.667 0 152 -10 202 -30l-43 -244h-75l-10 115c-9.33301 15.333 -24.5 27.333 -45.5 36s-45.167 13 -72.5 13c-44.667 0 -81.5 -16 -110.5 -48s-48.5 -79.333 -58.5 -142l-61 -375h-84v193
c-80 60.667 -186.667 91 -320 91c-106 0 -202 -31.167 -288 -93.5s-152.833 -150.333 -200.5 -264s-71.5 -243.834 -71.5 -390.501c0 -132 28.5 -235 85.5 -309s137.5 -111 241.5 -111c86.667 0 165.667 14.333 237 43l68 380l-167 32l12 68h598l-12 -68l-136 -32l-77 -436
c-98.667 -30.667 -192.667 -53.334 -282 -68.001s-185 -22 -287 -22c-187.333 0 -332.833 48 -436.5 144s-155.5 229 -155.5 399c0 167.333 35.5 314 106.5 440s171.5 223 301.5 291s278.667 102 446 102c136 0 255.333 -10.667 358 -32z" />
    <glyph glyph-name="uni0194" unicode="&#x194;" horiz-adv-x="1443" 
d="M135 1268l13 72.999h579l-13 -73l-144 -27l197 -855l532 855l-130 27l13 73h399l-13 -73l-132 -27l-627 -1021c61.333 -279.333 92 -487.666 92 -624.999v-24l-507 -13l-81 33c42 94 116.667 230.667 224 410l-297 1240zM476 -337.001l112.999 4.99902v12
c0 44.667 -5.33301 96.667 -16 156l-31.5 -52.5l-28.5 -48.5c-8.66699 -15.333 -16.167 -29.166 -22.5 -41.499s-11.166 -22.5 -14.499 -30.5z" />
    <glyph glyph-name="uni0195" unicode="&#x195;" horiz-adv-x="1618" 
d="M918 182c0 -35.333 9.99902 -64.668 29.999 -88.001s50.333 -35 91 -35c44.667 0 79.667 19.5 105 58.5s45 99.5 59 181.5l97 551l-106 24l12 66h355l-115 -653c-18 -99.333 -61.5 -175.333 -130.5 -228s-163.5 -79 -283.5 -79c-132 0 -227.833 19.833 -287.5 59.5
s-89.5 99.834 -89.5 180.501c0 25.333 3.66699 57 11 95l50.5 289.5c11.667 65.667 16.834 105.834 15.501 120.501c0 64.667 -30.333 97 -91 97c-38.667 0 -79.5 -21.333 -122.5 -64s-78.5 -97.334 -106.5 -164.001l-106 -594h-266l234 1331l-91 24l11 66h365l-84 -463
l-32 -160l-7 -29c56 70.667 110.667 121 164 151s116 45 188 45c64.667 0 116.667 -17.833 156 -53.5s59 -84.167 59 -145.5c0 -34.667 -5.66699 -83 -17 -145l-57 -322c-7.33301 -38 -11 -77 -11 -117z" />
    <glyph glyph-name="uni0196" unicode="&#x196;" horiz-adv-x="569" 
d="M330 90l119 -24l-11 -66h-393l236 1331l-91 24l11 66h365z" />
    <glyph glyph-name="uni0197" unicode="&#x197;" horiz-adv-x="797" 
d="M464 100l167 -26l-13 -74h-638l13 74l176 26l97 554h-170l21 122h171l82 465l-167 27l13 73h639l-13 -73l-177 -27l-82 -465h173l-21 -122h-174z" />
    <glyph glyph-name="uni0198" unicode="&#x198;" horiz-adv-x="1366" 
d="M469 100l177.999 -27l-12 -73h-650l12 73l177 27l152 864c23.333 133.333 72 232.833 146 298.5s177 98.5 309 98.5c59.333 0 119 -8 179 -24l-45 -259h-81l-3 149c-14 16 -33.667 24 -59 24c-67.333 0 -115.666 -85 -144.999 -255l-48 -278l576 524l-113 26l13 73h425
l-13 -73l-139 -26l-473 -429l353 -713l134 -27l-12 -73h-386l-296 636l-93 -45z" />
    <glyph glyph-name="uni0199" unicode="&#x199;" horiz-adv-x="1024" 
d="M388 507l350.999 344l-86 23l11 66h344l-11 -66l-92 -22l-243 -224l222 -538l80 -24l-11 -66h-314l-166 453l-108 -70l-68 -383h-269l185 1045c46 264.667 189.333 397 430 397c66.667 0 120.667 -6.33301 162 -19l-39 -224h-64l-10 109c-14 16 -33.667 24 -59 24
c-67.333 0 -115.666 -85 -144.999 -255z" />
    <glyph glyph-name="uni019A" unicode="&#x19a;" horiz-adv-x="569" 
d="M450 767h137l-18 -104h-138l-101 -573l119 -24l-11 -66h-393l117 663h-118l18 104h119l100 564l-91 24l11 66h365z" />
    <glyph glyph-name="uni019B" unicode="&#x19b;" horiz-adv-x="909" 
d="M479 1152c-8 58 -22.001 101.834 -42.001 131.501s-48.333 44.5 -85 44.5c-20 0 -37.333 -4 -52 -12l-48 -83h-69l24 188c52.667 14 102.667 21 150 21c62.667 0 111.5 -16.833 146.5 -50.5s61.5 -84.834 79.5 -153.501l223 185l-26 -144l-176 -146l154 -966
c8.66699 -50 41.334 -84 98.001 -102l-12 -65h-216l-76 593l-329 -593h-293l8 43l562 960l-6 39l-400 -332l26 144z" />
    <glyph glyph-name="uni019C" unicode="&#x19c;" horiz-adv-x="1731" 
d="M1196 80c-126 -67.333 -223.999 -101 -293.999 -101c-50.667 0 -93.834 10.333 -129.501 31s-63.167 45.667 -82.5 75c-137.333 -70.667 -255.333 -106 -354 -106c-80.667 0 -142.667 18.5 -186 55.5s-65 92.167 -65 165.5c0 37.333 4.66699 80 14 128l162 914l-137 26
l13 73h537l-13 -73l-105 -26l-163 -925c-7.33301 -44 -11 -76.333 -11 -97c0 -66 30 -99 90 -99c16 0 42.833 3.5 80.5 10.5s72.167 15.167 103.5 24.5l-3 44c0 24.667 2.33301 49.667 7 75l170 967l-96 26l13 73h495l-13 -73l-104 -26l-163 -927
c-6.66699 -32 -10 -63.333 -10 -94c0 -30 8 -54.167 24 -72.5s39.667 -27.5 71 -27.5c20 0 46.5 3 79.5 9s59.833 12.667 80.5 20l192 1092l-96 26l13 73h516l-13 -73l-124 -26l-202 -1142l124 -26l-13 -74h-409z" />
    <glyph glyph-name="uni019D" unicode="&#x19d;" horiz-adv-x="1479" 
d="M1225 1242l-175.002 25.999l13 73h477l-13 -73l-177 -26l-218 -1242h-115l-541 1112l-223 -1251c-18 -101.333 -56.833 -177.166 -116.5 -227.499s-143.167 -75.5 -250.5 -75.5c-31.333 0 -63.666 3.33301 -96.999 10s-58.666 14 -75.999 22l53 302h89l-1 -179
c7.33301 -15.333 20.5 -27.333 39.5 -36s40.167 -13 63.5 -13c43.333 0 79.5 15.833 108.5 47.5s49.167 77.5 60.5 137.5l245 1393l-167 26l13 73h433l435 -894z" />
    <glyph glyph-name="uni019E" unicode="&#x19e;" horiz-adv-x="1124" 
d="M820 965c67.333 0 120 -18.166 158 -54.499s57 -88.5 57 -156.5c0 -24.667 -5.66699 -68.667 -17 -132l-96 -553c-10.667 -64.667 -19.834 -142.667 -27.501 -234s-11.5 -167 -11.5 -227l-8 -45h-277c0 68 5.83301 150.167 17.5 246.5s23.834 178.833 36.501 247.5
l91 512c14 73.333 21 125.333 21 156c0 64.667 -30.333 97 -91 97c-42 0 -89.333 -23.333 -142 -70s-91.667 -99.334 -117 -158.001l-106 -594h-266l148 849l-89 25l13 66h334l-8 -175c103.333 133.333 230 200 380 200z" />
    <glyph glyph-name="uni019F" unicode="&#x19f;" horiz-adv-x="1479" 
d="M639 -20c-110.667 0 -208.833 22.833 -294.5 68.5s-152.167 110 -199.5 193s-71 177.167 -71 282.5c0 161.333 32.667 305.833 98 433.5s157.166 226 275.499 295s254.5 103.5 408.5 103.5c110.667 0 208.834 -22.833 294.501 -68.5s152.167 -110 199.5 -193
s71 -177.167 71 -282.5c0 -160 -33.5 -305.5 -100.5 -436.5s-158.667 -229.667 -275 -296s-251.833 -99.5 -406.5 -99.5zM657.001 83c68.667 0 132.5 22.499 191.5 67.499s110.333 110.5 154 196.5s75.834 182 96.501 288h-713c-7.33301 -48.667 -11 -98.667 -11 -150
c0 -125.333 24.667 -223.666 74 -294.999s118.666 -107 207.999 -107zM1120 842.999c0 126.667 -25.332 226.333 -75.999 299s-121.334 109 -212.001 109c-100.667 0 -188.5 -47.167 -263.5 -141.5s-129.167 -215.833 -162.5 -364.5h709z" />
    <glyph glyph-name="Ohorn" unicode="&#x1a0;" horiz-adv-x="1479" 
d="M1671 1329c0 -78.667 -23.3301 -146.169 -69.9971 -202.502s-116.334 -98.833 -209.001 -127.5c19.333 -58 29 -120.333 29 -187c0 -160 -33.5 -305.5 -100.5 -436.5s-158.667 -229.667 -275 -296s-251.833 -99.5 -406.5 -99.5c-110.667 0 -208.834 22.833 -294.501 68.5
s-152.167 110 -199.5 193s-71 177.167 -71 282.5c0 161.333 32.667 305.833 98 433.5s157.166 226 275.499 295s254.5 103.5 408.5 103.5c116.667 0 219.5 -25.5 308.5 -76.5s155.833 -122.5 200.5 -214.5c43.333 13.333 77.833 34.166 103.5 62.499s38.5 56.833 38.5 85.5
c0 16.667 -5.83301 29.167 -17.5 37.5l-39 27c-14.333 9.66699 -27.333 21.834 -39 36.501s-17.5 36.334 -17.5 65.001c0 34.667 12 61 36 79s54.667 27 92 27c44 0 79.833 -14.167 107.5 -42.5s41.5 -66.166 41.5 -113.499zM1120 842.998
c0 126.667 -25.333 226.332 -76 298.999s-121.334 109 -212.001 109c-81.333 0 -156.166 -33.333 -224.499 -100s-124.166 -163.167 -167.499 -289.5s-65 -251.833 -65 -376.5c0 -125.333 24.667 -223.666 74 -294.999s118.666 -107 207.999 -107
c83.333 0 159.333 33 228 99s125 161 169 285s66 249.333 66 376z" />
    <glyph glyph-name="ohorn" unicode="&#x1a1;" horiz-adv-x="1099" 
d="M406 -20c-113.333 0 -204 35.667 -272 107s-102 167 -102 287c0 108 23.333 207.333 70 298s111.834 162.167 195.501 214.5s177.834 78.5 282.501 78.5c80.667 0 150.667 -18.833 210 -56.5s103 -90.834 131 -159.501c32.667 13.333 60 33.666 82 60.999
s33 53.333 33 78c0 16.667 -5.83301 29.167 -17.5 37.5l-39 27c-14.333 9.66699 -27.333 21.834 -39 36.501s-17.5 36.334 -17.5 65.001c0 34.667 12 61 36 79s54.667 27 92 27c44 0 79.833 -14.167 107.5 -42.5s41.5 -66.166 41.5 -113.499
c0 -76.667 -22 -142.334 -66 -197.001s-108 -96.667 -192 -126c8 -34 12 -70.667 12 -110c0 -108 -23.333 -207.333 -70 -298s-111.834 -162.167 -195.501 -214.5s-177.834 -78.5 -282.501 -78.5zM683 625c0 160.667 -41.668 241.001 -125.001 241.001
c-42 0 -83.5 -25.333 -124.5 -76s-74 -118.667 -99 -204s-37.5 -174.333 -37.5 -267c0 -76.667 12.333 -135.834 37 -177.501s56.334 -62.5 95.001 -62.5c42.667 0 84 24.667 124 74s71.667 116 95 200s35 174.667 35 272z" />
    <glyph glyph-name="uni01A2" unicode="&#x1a2;" horiz-adv-x="2083" 
d="M1142 1232c-54 12.667 -121 19.001 -201 19.001c-106 0 -202 -31.167 -288 -93.5s-152.833 -150.333 -200.5 -264s-71.5 -243.834 -71.5 -390.501c0 -132 28.5 -235 85.5 -309s137.5 -111 241.5 -111c86.667 0 165.667 14.333 237 43zM1434 1231l-203 -1161
c-98.667 -30.667 -192.667 -53.334 -282 -68.001s-185 -22 -287 -22c-187.333 0 -332.833 48 -436.5 144s-155.5 229 -155.5 399c0 167.333 35.5 314 106.5 440s171.5 223 301.5 291s278.667 102 446 102c51.333 0 116 -3.66699 194 -11l50 -4h842l-297 -1684l167 -26
l-13 -74h-639l13 74l177 26l277 1574h-261z" />
    <glyph glyph-name="uni01A3" unicode="&#x1a3;" horiz-adv-x="1484" 
d="M558 866c-42 0 -83.5 -25.332 -124.5 -75.999s-74 -118.667 -99 -204s-37.5 -174.333 -37.5 -267c0 -76.667 12.333 -135.834 37 -177.501s56.334 -62.5 95.001 -62.5c48.667 0 90.667 29.833 126 89.5s62.666 142.5 81.999 248.5l81 440c-18 0 -40.667 1.5 -68 4.5
s-58 4.5 -92 4.5zM1413 940.001l-224.002 -1287l110 -24l-12 -65h-486l12 65l104 24l216 1213h-148l-63 -341c-32 -178.667 -91.5 -314.167 -178.5 -406.5s-199.5 -138.5 -337.5 -138.5c-113.333 0 -204 35.667 -272 107s-102 167 -102 287c0 108 23.333 207.333 70 298
s111.834 162.167 195.501 214.5s177.834 78.5 282.501 78.5c58 0 164 -7 318 -21l66 -4h449z" />
    <glyph glyph-name="uni01A4" unicode="&#x1a4;" horiz-adv-x="1358" 
d="M651 526l-76.001 -426l219 -27l-11 -73h-677l11 73l162 27l200 1130h-38c-52.667 0 -96.667 -7.5 -132 -22.5s-64.333 -41.833 -87 -80.5l-71 -121h-87l57 286c70.667 32.667 169.334 49 296.001 49h439c169.333 0 297.5 -30 384.5 -90s130.5 -149.333 130.5 -268
c0 -144.667 -49.667 -257 -149 -337s-242 -120 -428 -120h-143zM749.999 636c102 0 182.167 30.833 240.5 92.5s87.5 145.5 87.5 251.5c0 80 -19.5 141.667 -58.5 185s-97.167 65 -174.5 65h-69l-105 -594h79z" />
    <glyph glyph-name="uni01A5" unicode="&#x1a5;" horiz-adv-x="1024" 
d="M962 631c0 -118.667 -21.6699 -227.833 -65.0029 -327.5s-104.333 -178.5 -183 -236.5s-167 -87 -265 -87c-57.333 0 -109 11 -155 33c-3.33301 -38.667 -6.16602 -66.5 -8.49902 -83.5s-16.833 -109.167 -43.5 -276.5l160 -24l-12 -65h-536l12 65l104 24l247 1392
c24.667 137.333 72.334 237.833 143.001 301.5s165.334 95.5 284.001 95.5c67.333 0 121.666 -6.33301 162.999 -19l-40 -224h-64l-10 109c-12.667 16 -32 24 -58 24c-67.333 0 -115.666 -85 -144.999 -255l-48 -267c81.333 103.333 168.333 155 261 155
c78 0 140.667 -30 188 -90s71 -141.333 71 -244zM698.997 587.001c0 70 -10.168 125.167 -30.501 165.5s-47.166 60.5 -80.499 60.5c-45.333 0 -101.333 -44.333 -168 -133l-98 -553c16 -16 35.167 -28 57.5 -36s41.833 -12 58.5 -12c48 0 92.167 23.5 132.5 70.5
s71.833 110.333 94.5 190s34 162.167 34 247.5z" />
    </font>
</defs>
</svg>
